<?xml version="1.0" encoding="utf-8" standalone="no"?>
<!DOCTYPE svg PUBLIC "-//W3C//DTD SVG 1.1//EN"
  "http://www.w3.org/Graphics/SVG/1.1/DTD/svg11.dtd">
<svg height="345.6pt" version="1.1" viewBox="0 0 460.8 345.6" width="460.8pt" xmlns="http://www.w3.org/2000/svg" xmlns:xlink="http://www.w3.org/1999/xlink">
 <metadata>
  <rdf:RDF xmlns:cc="http://creativecommons.org/ns#" xmlns:dc="http://purl.org/dc/elements/1.1/" xmlns:rdf="http://www.w3.org/1999/02/22-rdf-syntax-ns#">
   <cc:Work>
    <dc:type rdf:resource="http://purl.org/dc/dcmitype/StillImage"/>
    <dc:date>2021-08-04T22:03:03.456849</dc:date>
    <dc:format>image/svg+xml</dc:format>
    <dc:creator>
     <cc:Agent>
      <dc:title>Matplotlib v3.4.2, https://matplotlib.org/</dc:title>
     </cc:Agent>
    </dc:creator>
   </cc:Work>
  </rdf:RDF>
 </metadata>
 <defs>
  <style type="text/css">*{stroke-linecap:butt;stroke-linejoin:round;}</style>
 </defs>
 <g id="figure_1">
  <g id="patch_1">
   <path d="M 0 345.6 
L 460.8 345.6 
L 460.8 0 
L 0 0 
z
" style="fill:#ffffff;"/>
  </g>
  <g id="axes_1">
   <g id="patch_2">
    <path d="M 57.6 307.584 
L 414.72 307.584 
L 414.72 41.472 
L 57.6 41.472 
z
" style="fill:#ffffff;"/>
   </g>
   <g id="matplotlib.axis_1">
    <g id="xtick_1">
     <g id="line2d_1">
      <defs>
       <path d="M 0 0 
L 0 3.5 
" id="m2712e214ad" style="stroke:#000000;stroke-width:0.8;"/>
      </defs>
      <g>
       <use style="stroke:#000000;stroke-width:0.8;" x="57.6" xlink:href="#m2712e214ad" y="307.584"/>
      </g>
     </g>
     <g id="text_1">
      <!-- 0.0 -->
      <g transform="translate(49.648438 322.182437)scale(0.1 -0.1)">
       <defs>
        <path d="M 2034 4250 
Q 1547 4250 1301 3770 
Q 1056 3291 1056 2328 
Q 1056 1369 1301 889 
Q 1547 409 2034 409 
Q 2525 409 2770 889 
Q 3016 1369 3016 2328 
Q 3016 3291 2770 3770 
Q 2525 4250 2034 4250 
z
M 2034 4750 
Q 2819 4750 3233 4129 
Q 3647 3509 3647 2328 
Q 3647 1150 3233 529 
Q 2819 -91 2034 -91 
Q 1250 -91 836 529 
Q 422 1150 422 2328 
Q 422 3509 836 4129 
Q 1250 4750 2034 4750 
z
" id="DejaVuSans-30" transform="scale(0.015625)"/>
        <path d="M 684 794 
L 1344 794 
L 1344 0 
L 684 0 
L 684 794 
z
" id="DejaVuSans-2e" transform="scale(0.015625)"/>
       </defs>
       <use xlink:href="#DejaVuSans-30"/>
       <use x="63.623047" xlink:href="#DejaVuSans-2e"/>
       <use x="95.410156" xlink:href="#DejaVuSans-30"/>
      </g>
     </g>
    </g>
    <g id="xtick_2">
     <g id="line2d_2">
      <g>
       <use style="stroke:#000000;stroke-width:0.8;" x="129.024" xlink:href="#m2712e214ad" y="307.584"/>
      </g>
     </g>
     <g id="text_2">
      <!-- 0.2 -->
      <g transform="translate(121.072438 322.182437)scale(0.1 -0.1)">
       <defs>
        <path d="M 1228 531 
L 3431 531 
L 3431 0 
L 469 0 
L 469 531 
Q 828 903 1448 1529 
Q 2069 2156 2228 2338 
Q 2531 2678 2651 2914 
Q 2772 3150 2772 3378 
Q 2772 3750 2511 3984 
Q 2250 4219 1831 4219 
Q 1534 4219 1204 4116 
Q 875 4013 500 3803 
L 500 4441 
Q 881 4594 1212 4672 
Q 1544 4750 1819 4750 
Q 2544 4750 2975 4387 
Q 3406 4025 3406 3419 
Q 3406 3131 3298 2873 
Q 3191 2616 2906 2266 
Q 2828 2175 2409 1742 
Q 1991 1309 1228 531 
z
" id="DejaVuSans-32" transform="scale(0.015625)"/>
       </defs>
       <use xlink:href="#DejaVuSans-30"/>
       <use x="63.623047" xlink:href="#DejaVuSans-2e"/>
       <use x="95.410156" xlink:href="#DejaVuSans-32"/>
      </g>
     </g>
    </g>
    <g id="xtick_3">
     <g id="line2d_3">
      <g>
       <use style="stroke:#000000;stroke-width:0.8;" x="200.448" xlink:href="#m2712e214ad" y="307.584"/>
      </g>
     </g>
     <g id="text_3">
      <!-- 0.4 -->
      <g transform="translate(192.496438 322.182437)scale(0.1 -0.1)">
       <defs>
        <path d="M 2419 4116 
L 825 1625 
L 2419 1625 
L 2419 4116 
z
M 2253 4666 
L 3047 4666 
L 3047 1625 
L 3713 1625 
L 3713 1100 
L 3047 1100 
L 3047 0 
L 2419 0 
L 2419 1100 
L 313 1100 
L 313 1709 
L 2253 4666 
z
" id="DejaVuSans-34" transform="scale(0.015625)"/>
       </defs>
       <use xlink:href="#DejaVuSans-30"/>
       <use x="63.623047" xlink:href="#DejaVuSans-2e"/>
       <use x="95.410156" xlink:href="#DejaVuSans-34"/>
      </g>
     </g>
    </g>
    <g id="xtick_4">
     <g id="line2d_4">
      <g>
       <use style="stroke:#000000;stroke-width:0.8;" x="271.872" xlink:href="#m2712e214ad" y="307.584"/>
      </g>
     </g>
     <g id="text_4">
      <!-- 0.6 -->
      <g transform="translate(263.920438 322.182437)scale(0.1 -0.1)">
       <defs>
        <path d="M 2113 2584 
Q 1688 2584 1439 2293 
Q 1191 2003 1191 1497 
Q 1191 994 1439 701 
Q 1688 409 2113 409 
Q 2538 409 2786 701 
Q 3034 994 3034 1497 
Q 3034 2003 2786 2293 
Q 2538 2584 2113 2584 
z
M 3366 4563 
L 3366 3988 
Q 3128 4100 2886 4159 
Q 2644 4219 2406 4219 
Q 1781 4219 1451 3797 
Q 1122 3375 1075 2522 
Q 1259 2794 1537 2939 
Q 1816 3084 2150 3084 
Q 2853 3084 3261 2657 
Q 3669 2231 3669 1497 
Q 3669 778 3244 343 
Q 2819 -91 2113 -91 
Q 1303 -91 875 529 
Q 447 1150 447 2328 
Q 447 3434 972 4092 
Q 1497 4750 2381 4750 
Q 2619 4750 2861 4703 
Q 3103 4656 3366 4563 
z
" id="DejaVuSans-36" transform="scale(0.015625)"/>
       </defs>
       <use xlink:href="#DejaVuSans-30"/>
       <use x="63.623047" xlink:href="#DejaVuSans-2e"/>
       <use x="95.410156" xlink:href="#DejaVuSans-36"/>
      </g>
     </g>
    </g>
    <g id="xtick_5">
     <g id="line2d_5">
      <g>
       <use style="stroke:#000000;stroke-width:0.8;" x="343.296" xlink:href="#m2712e214ad" y="307.584"/>
      </g>
     </g>
     <g id="text_5">
      <!-- 0.8 -->
      <g transform="translate(335.344438 322.182437)scale(0.1 -0.1)">
       <defs>
        <path d="M 2034 2216 
Q 1584 2216 1326 1975 
Q 1069 1734 1069 1313 
Q 1069 891 1326 650 
Q 1584 409 2034 409 
Q 2484 409 2743 651 
Q 3003 894 3003 1313 
Q 3003 1734 2745 1975 
Q 2488 2216 2034 2216 
z
M 1403 2484 
Q 997 2584 770 2862 
Q 544 3141 544 3541 
Q 544 4100 942 4425 
Q 1341 4750 2034 4750 
Q 2731 4750 3128 4425 
Q 3525 4100 3525 3541 
Q 3525 3141 3298 2862 
Q 3072 2584 2669 2484 
Q 3125 2378 3379 2068 
Q 3634 1759 3634 1313 
Q 3634 634 3220 271 
Q 2806 -91 2034 -91 
Q 1263 -91 848 271 
Q 434 634 434 1313 
Q 434 1759 690 2068 
Q 947 2378 1403 2484 
z
M 1172 3481 
Q 1172 3119 1398 2916 
Q 1625 2713 2034 2713 
Q 2441 2713 2670 2916 
Q 2900 3119 2900 3481 
Q 2900 3844 2670 4047 
Q 2441 4250 2034 4250 
Q 1625 4250 1398 4047 
Q 1172 3844 1172 3481 
z
" id="DejaVuSans-38" transform="scale(0.015625)"/>
       </defs>
       <use xlink:href="#DejaVuSans-30"/>
       <use x="63.623047" xlink:href="#DejaVuSans-2e"/>
       <use x="95.410156" xlink:href="#DejaVuSans-38"/>
      </g>
     </g>
    </g>
    <g id="xtick_6">
     <g id="line2d_6">
      <g>
       <use style="stroke:#000000;stroke-width:0.8;" x="414.72" xlink:href="#m2712e214ad" y="307.584"/>
      </g>
     </g>
     <g id="text_6">
      <!-- 1.0 -->
      <g transform="translate(406.768438 322.182437)scale(0.1 -0.1)">
       <defs>
        <path d="M 794 531 
L 1825 531 
L 1825 4091 
L 703 3866 
L 703 4441 
L 1819 4666 
L 2450 4666 
L 2450 531 
L 3481 531 
L 3481 0 
L 794 0 
L 794 531 
z
" id="DejaVuSans-31" transform="scale(0.015625)"/>
       </defs>
       <use xlink:href="#DejaVuSans-31"/>
       <use x="63.623047" xlink:href="#DejaVuSans-2e"/>
       <use x="95.410156" xlink:href="#DejaVuSans-30"/>
      </g>
     </g>
    </g>
    <g id="text_7">
     <!-- Recall -->
     <g transform="translate(221.242812 335.860562)scale(0.1 -0.1)">
      <defs>
       <path d="M 2841 2188 
Q 3044 2119 3236 1894 
Q 3428 1669 3622 1275 
L 4263 0 
L 3584 0 
L 2988 1197 
Q 2756 1666 2539 1819 
Q 2322 1972 1947 1972 
L 1259 1972 
L 1259 0 
L 628 0 
L 628 4666 
L 2053 4666 
Q 2853 4666 3247 4331 
Q 3641 3997 3641 3322 
Q 3641 2881 3436 2590 
Q 3231 2300 2841 2188 
z
M 1259 4147 
L 1259 2491 
L 2053 2491 
Q 2509 2491 2742 2702 
Q 2975 2913 2975 3322 
Q 2975 3731 2742 3939 
Q 2509 4147 2053 4147 
L 1259 4147 
z
" id="DejaVuSans-52" transform="scale(0.015625)"/>
       <path d="M 3597 1894 
L 3597 1613 
L 953 1613 
Q 991 1019 1311 708 
Q 1631 397 2203 397 
Q 2534 397 2845 478 
Q 3156 559 3463 722 
L 3463 178 
Q 3153 47 2828 -22 
Q 2503 -91 2169 -91 
Q 1331 -91 842 396 
Q 353 884 353 1716 
Q 353 2575 817 3079 
Q 1281 3584 2069 3584 
Q 2775 3584 3186 3129 
Q 3597 2675 3597 1894 
z
M 3022 2063 
Q 3016 2534 2758 2815 
Q 2500 3097 2075 3097 
Q 1594 3097 1305 2825 
Q 1016 2553 972 2059 
L 3022 2063 
z
" id="DejaVuSans-65" transform="scale(0.015625)"/>
       <path d="M 3122 3366 
L 3122 2828 
Q 2878 2963 2633 3030 
Q 2388 3097 2138 3097 
Q 1578 3097 1268 2742 
Q 959 2388 959 1747 
Q 959 1106 1268 751 
Q 1578 397 2138 397 
Q 2388 397 2633 464 
Q 2878 531 3122 666 
L 3122 134 
Q 2881 22 2623 -34 
Q 2366 -91 2075 -91 
Q 1284 -91 818 406 
Q 353 903 353 1747 
Q 353 2603 823 3093 
Q 1294 3584 2113 3584 
Q 2378 3584 2631 3529 
Q 2884 3475 3122 3366 
z
" id="DejaVuSans-63" transform="scale(0.015625)"/>
       <path d="M 2194 1759 
Q 1497 1759 1228 1600 
Q 959 1441 959 1056 
Q 959 750 1161 570 
Q 1363 391 1709 391 
Q 2188 391 2477 730 
Q 2766 1069 2766 1631 
L 2766 1759 
L 2194 1759 
z
M 3341 1997 
L 3341 0 
L 2766 0 
L 2766 531 
Q 2569 213 2275 61 
Q 1981 -91 1556 -91 
Q 1019 -91 701 211 
Q 384 513 384 1019 
Q 384 1609 779 1909 
Q 1175 2209 1959 2209 
L 2766 2209 
L 2766 2266 
Q 2766 2663 2505 2880 
Q 2244 3097 1772 3097 
Q 1472 3097 1187 3025 
Q 903 2953 641 2809 
L 641 3341 
Q 956 3463 1253 3523 
Q 1550 3584 1831 3584 
Q 2591 3584 2966 3190 
Q 3341 2797 3341 1997 
z
" id="DejaVuSans-61" transform="scale(0.015625)"/>
       <path d="M 603 4863 
L 1178 4863 
L 1178 0 
L 603 0 
L 603 4863 
z
" id="DejaVuSans-6c" transform="scale(0.015625)"/>
      </defs>
      <use xlink:href="#DejaVuSans-52"/>
      <use x="64.982422" xlink:href="#DejaVuSans-65"/>
      <use x="126.505859" xlink:href="#DejaVuSans-63"/>
      <use x="181.486328" xlink:href="#DejaVuSans-61"/>
      <use x="242.765625" xlink:href="#DejaVuSans-6c"/>
      <use x="270.548828" xlink:href="#DejaVuSans-6c"/>
     </g>
    </g>
   </g>
   <g id="matplotlib.axis_2">
    <g id="ytick_1">
     <g id="line2d_7">
      <defs>
       <path d="M 0 0 
L -3.5 0 
" id="m319458f713" style="stroke:#000000;stroke-width:0.8;"/>
      </defs>
      <g>
       <use style="stroke:#000000;stroke-width:0.8;" x="57.6" xlink:href="#m319458f713" y="307.584"/>
      </g>
     </g>
     <g id="text_8">
      <!-- 0.0 -->
      <g transform="translate(34.696875 311.383219)scale(0.1 -0.1)">
       <use xlink:href="#DejaVuSans-30"/>
       <use x="63.623047" xlink:href="#DejaVuSans-2e"/>
       <use x="95.410156" xlink:href="#DejaVuSans-30"/>
      </g>
     </g>
    </g>
    <g id="ytick_2">
     <g id="line2d_8">
      <g>
       <use style="stroke:#000000;stroke-width:0.8;" x="57.6" xlink:href="#m319458f713" y="256.896"/>
      </g>
     </g>
     <g id="text_9">
      <!-- 0.2 -->
      <g transform="translate(34.696875 260.695219)scale(0.1 -0.1)">
       <use xlink:href="#DejaVuSans-30"/>
       <use x="63.623047" xlink:href="#DejaVuSans-2e"/>
       <use x="95.410156" xlink:href="#DejaVuSans-32"/>
      </g>
     </g>
    </g>
    <g id="ytick_3">
     <g id="line2d_9">
      <g>
       <use style="stroke:#000000;stroke-width:0.8;" x="57.6" xlink:href="#m319458f713" y="206.208"/>
      </g>
     </g>
     <g id="text_10">
      <!-- 0.4 -->
      <g transform="translate(34.696875 210.007219)scale(0.1 -0.1)">
       <use xlink:href="#DejaVuSans-30"/>
       <use x="63.623047" xlink:href="#DejaVuSans-2e"/>
       <use x="95.410156" xlink:href="#DejaVuSans-34"/>
      </g>
     </g>
    </g>
    <g id="ytick_4">
     <g id="line2d_10">
      <g>
       <use style="stroke:#000000;stroke-width:0.8;" x="57.6" xlink:href="#m319458f713" y="155.52"/>
      </g>
     </g>
     <g id="text_11">
      <!-- 0.6 -->
      <g transform="translate(34.696875 159.319219)scale(0.1 -0.1)">
       <use xlink:href="#DejaVuSans-30"/>
       <use x="63.623047" xlink:href="#DejaVuSans-2e"/>
       <use x="95.410156" xlink:href="#DejaVuSans-36"/>
      </g>
     </g>
    </g>
    <g id="ytick_5">
     <g id="line2d_11">
      <g>
       <use style="stroke:#000000;stroke-width:0.8;" x="57.6" xlink:href="#m319458f713" y="104.832"/>
      </g>
     </g>
     <g id="text_12">
      <!-- 0.8 -->
      <g transform="translate(34.696875 108.631219)scale(0.1 -0.1)">
       <use xlink:href="#DejaVuSans-30"/>
       <use x="63.623047" xlink:href="#DejaVuSans-2e"/>
       <use x="95.410156" xlink:href="#DejaVuSans-38"/>
      </g>
     </g>
    </g>
    <g id="ytick_6">
     <g id="line2d_12">
      <g>
       <use style="stroke:#000000;stroke-width:0.8;" x="57.6" xlink:href="#m319458f713" y="54.144"/>
      </g>
     </g>
     <g id="text_13">
      <!-- 1.0 -->
      <g transform="translate(34.696875 57.943219)scale(0.1 -0.1)">
       <use xlink:href="#DejaVuSans-31"/>
       <use x="63.623047" xlink:href="#DejaVuSans-2e"/>
       <use x="95.410156" xlink:href="#DejaVuSans-30"/>
      </g>
     </g>
    </g>
    <g id="text_14">
     <!-- Precision -->
     <g transform="translate(28.617187 196.835031)rotate(-90)scale(0.1 -0.1)">
      <defs>
       <path d="M 1259 4147 
L 1259 2394 
L 2053 2394 
Q 2494 2394 2734 2622 
Q 2975 2850 2975 3272 
Q 2975 3691 2734 3919 
Q 2494 4147 2053 4147 
L 1259 4147 
z
M 628 4666 
L 2053 4666 
Q 2838 4666 3239 4311 
Q 3641 3956 3641 3272 
Q 3641 2581 3239 2228 
Q 2838 1875 2053 1875 
L 1259 1875 
L 1259 0 
L 628 0 
L 628 4666 
z
" id="DejaVuSans-50" transform="scale(0.015625)"/>
       <path d="M 2631 2963 
Q 2534 3019 2420 3045 
Q 2306 3072 2169 3072 
Q 1681 3072 1420 2755 
Q 1159 2438 1159 1844 
L 1159 0 
L 581 0 
L 581 3500 
L 1159 3500 
L 1159 2956 
Q 1341 3275 1631 3429 
Q 1922 3584 2338 3584 
Q 2397 3584 2469 3576 
Q 2541 3569 2628 3553 
L 2631 2963 
z
" id="DejaVuSans-72" transform="scale(0.015625)"/>
       <path d="M 603 3500 
L 1178 3500 
L 1178 0 
L 603 0 
L 603 3500 
z
M 603 4863 
L 1178 4863 
L 1178 4134 
L 603 4134 
L 603 4863 
z
" id="DejaVuSans-69" transform="scale(0.015625)"/>
       <path d="M 2834 3397 
L 2834 2853 
Q 2591 2978 2328 3040 
Q 2066 3103 1784 3103 
Q 1356 3103 1142 2972 
Q 928 2841 928 2578 
Q 928 2378 1081 2264 
Q 1234 2150 1697 2047 
L 1894 2003 
Q 2506 1872 2764 1633 
Q 3022 1394 3022 966 
Q 3022 478 2636 193 
Q 2250 -91 1575 -91 
Q 1294 -91 989 -36 
Q 684 19 347 128 
L 347 722 
Q 666 556 975 473 
Q 1284 391 1588 391 
Q 1994 391 2212 530 
Q 2431 669 2431 922 
Q 2431 1156 2273 1281 
Q 2116 1406 1581 1522 
L 1381 1569 
Q 847 1681 609 1914 
Q 372 2147 372 2553 
Q 372 3047 722 3315 
Q 1072 3584 1716 3584 
Q 2034 3584 2315 3537 
Q 2597 3491 2834 3397 
z
" id="DejaVuSans-73" transform="scale(0.015625)"/>
       <path d="M 1959 3097 
Q 1497 3097 1228 2736 
Q 959 2375 959 1747 
Q 959 1119 1226 758 
Q 1494 397 1959 397 
Q 2419 397 2687 759 
Q 2956 1122 2956 1747 
Q 2956 2369 2687 2733 
Q 2419 3097 1959 3097 
z
M 1959 3584 
Q 2709 3584 3137 3096 
Q 3566 2609 3566 1747 
Q 3566 888 3137 398 
Q 2709 -91 1959 -91 
Q 1206 -91 779 398 
Q 353 888 353 1747 
Q 353 2609 779 3096 
Q 1206 3584 1959 3584 
z
" id="DejaVuSans-6f" transform="scale(0.015625)"/>
       <path d="M 3513 2113 
L 3513 0 
L 2938 0 
L 2938 2094 
Q 2938 2591 2744 2837 
Q 2550 3084 2163 3084 
Q 1697 3084 1428 2787 
Q 1159 2491 1159 1978 
L 1159 0 
L 581 0 
L 581 3500 
L 1159 3500 
L 1159 2956 
Q 1366 3272 1645 3428 
Q 1925 3584 2291 3584 
Q 2894 3584 3203 3211 
Q 3513 2838 3513 2113 
z
" id="DejaVuSans-6e" transform="scale(0.015625)"/>
      </defs>
      <use xlink:href="#DejaVuSans-50"/>
      <use x="58.552734" xlink:href="#DejaVuSans-72"/>
      <use x="97.416016" xlink:href="#DejaVuSans-65"/>
      <use x="158.939453" xlink:href="#DejaVuSans-63"/>
      <use x="213.919922" xlink:href="#DejaVuSans-69"/>
      <use x="241.703125" xlink:href="#DejaVuSans-73"/>
      <use x="293.802734" xlink:href="#DejaVuSans-69"/>
      <use x="321.585938" xlink:href="#DejaVuSans-6f"/>
      <use x="382.767578" xlink:href="#DejaVuSans-6e"/>
     </g>
    </g>
   </g>
   <g id="line2d_13">
    <path clip-path="url(#pc51a0c8aaa)" d="M 414.72 54.144 
L 57.6 54.144 
L 57.6 54.144 
" style="fill:none;stroke:#87175f;stroke-linecap:square;stroke-width:2;"/>
   </g>
   <g id="line2d_14">
    <path clip-path="url(#pc51a0c8aaa)" d="M 414.72 298.020226 
L 355.2 299.563747 
L 355.2 299.460923 
L 355.2 126.555429 
L 295.68 138.624 
L 295.68 54.144 
L 57.6 54.144 
L 57.6 54.144 
" style="fill:none;stroke:#db90a8;stroke-linecap:square;stroke-width:2;"/>
   </g>
   <g id="line2d_15">
    <path clip-path="url(#pc51a0c8aaa)" d="M 414.72 60.813474 
L 405.068108 60.99373 
L 405.068108 54.144 
L 395.416216 54.144 
L 385.764324 54.144 
L 376.112432 54.144 
L 366.460541 54.144 
L 356.808649 54.144 
L 347.156757 54.144 
L 337.504865 54.144 
L 327.852973 54.144 
L 318.201081 54.144 
L 308.549189 54.144 
L 298.897297 54.144 
L 289.245405 54.144 
L 279.593514 54.144 
L 269.941622 54.144 
L 260.28973 54.144 
L 250.637838 54.144 
L 240.985946 54.144 
L 231.334054 54.144 
L 221.682162 54.144 
L 212.03027 54.144 
L 202.378378 54.144 
L 192.726486 54.144 
L 183.074595 54.144 
L 173.422703 54.144 
L 163.770811 54.144 
L 154.118919 54.144 
L 144.467027 54.144 
L 134.815135 54.144 
L 125.163243 54.144 
L 115.511351 54.144 
L 105.859459 54.144 
L 96.207568 54.144 
L 86.555676 54.144 
L 76.903784 54.144 
L 67.251892 54.144 
L 57.6 54.144 
" style="fill:none;stroke:#0aa4ac;stroke-linecap:square;stroke-width:2;"/>
   </g>
   <g id="line2d_16">
    <path clip-path="url(#pc51a0c8aaa)" d="M 414.72 124.434 
L 412.789622 124.709647 
L 412.789622 64.704 
L 410.859243 64.759288 
L 410.859243 62.189714 
L 408.928865 62.232511 
L 408.928865 56.898783 
L 406.998486 56.913836 
L 406.998486 54.144 
L 57.6 54.144 
L 57.6 54.144 
" style="fill:none;stroke:#5a58d7;stroke-linecap:square;stroke-width:2;"/>
   </g>
   <g id="line2d_17">
    <path clip-path="url(#pc51a0c8aaa)" d="M 414.72 64.418595 
L 413.462535 64.453424 
L 413.462535 61.955507 
L 409.690141 62.036595 
L 409.690141 58.590316 
L 399.630423 58.718729 
L 399.630423 57.817043 
L 397.115493 57.843854 
L 397.115493 56.929055 
L 394.600563 56.949609 
L 394.600563 56.021333 
L 378.253521 56.116296 
L 378.253521 55.134 
L 329.212394 55.311926 
L 329.212394 54.144 
L 57.6 54.144 
L 57.6 54.144 
" style="fill:none;stroke:#514b15;stroke-linecap:square;stroke-width:2;"/>
   </g>
   <g id="line2d_18">
    <path clip-path="url(#pc51a0c8aaa)" d="M 414.72 164.374059 
L 413.979087 164.503437 
L 413.979087 128.575718 
L 413.238174 128.685176 
L 413.238174 112.94208 
L 412.497261 113.036308 
L 412.497261 105.591055 
L 411.756349 105.6768 
L 411.756349 79.440271 
L 411.015436 79.488 
L 411.015436 78.624 
L 409.53361 78.71708 
L 409.53361 76.076308 
L 408.051784 76.160988 
L 408.051784 75.713362 
L 407.310871 75.755163 
L 407.310871 72.566947 
L 406.569959 72.603213 
L 406.569959 71.207287 
L 405.829046 71.241143 
L 405.829046 69.3504 
L 405.088133 69.380874 
L 405.088133 66.48185 
L 404.34722 66.506927 
L 404.34722 65.522939 
L 403.606307 65.546209 
L 403.606307 65.05023 
L 402.865394 65.072624 
L 402.865394 64.57363 
L 402.124481 64.595134 
L 402.124481 64.093091 
L 401.383568 64.113689 
L 401.383568 63.608564 
L 400.642656 63.628241 
L 400.642656 63.12 
L 399.16083 63.157556 
L 399.16083 62.645132 
L 397.679004 62.680926 
L 397.679004 61.124339 
L 396.938091 61.139159 
L 396.938091 60.614809 
L 393.97444 60.670352 
L 393.97444 59.606069 
L 388.047137 59.701895 
L 388.047137 59.157099 
L 387.306224 59.168141 
L 387.306224 58.619762 
L 385.083485 58.6496 
L 385.083485 58.09518 
L 381.378921 58.139676 
L 381.378921 56.442776 
L 359.892448 56.604583 
L 359.892448 55.993927 
L 355.446971 56.021333 
L 355.446971 55.398653 
L 333.960498 55.49568 
L 333.960498 54.821647 
L 330.255934 54.830829 
L 330.255934 54.144 
L 57.6 54.144 
L 57.6 54.144 
" style="fill:none;stroke:#88dbfd;stroke-linecap:square;stroke-width:2;"/>
   </g>
   <g id="line2d_19">
    <path clip-path="url(#pc51a0c8aaa)" d="M 414.72 73.639385 
L 399.84 74.4192 
L 399.84 64.704 
L 399.84 54.144 
L 384.96 54.144 
L 370.08 54.144 
L 355.2 54.144 
L 340.32 54.144 
L 325.44 54.144 
L 310.56 54.144 
L 295.68 54.144 
L 280.8 54.144 
L 265.92 54.144 
L 251.04 54.144 
L 236.16 54.144 
L 221.28 54.144 
L 206.4 54.144 
L 191.52 54.144 
L 176.64 54.144 
L 161.76 54.144 
L 146.88 54.144 
L 132 54.144 
L 117.12 54.144 
L 102.24 54.144 
L 87.36 54.144 
L 72.48 54.144 
L 57.6 54.144 
" style="fill:none;stroke:#23d7cd;stroke-linecap:square;stroke-width:2;"/>
   </g>
   <g id="line2d_20">
    <path clip-path="url(#pc51a0c8aaa)" d="M 414.72 59.379423 
L 414.654497 59.380364 
L 414.654497 59.291146 
L 414.588995 58.126171 
L 414.523492 58.12689 
L 414.523492 58.036736 
L 414.45799 56.768174 
L 414.392487 56.768651 
L 414.392487 56.677479 
L 414.326985 56.449677 
L 414.195979 56.450516 
L 414.195979 56.359062 
L 414.130477 56.222134 
L 414.064974 56.222513 
L 414.064974 56.130859 
L 413.999472 55.855807 
L 413.933969 55.85612 
L 413.933969 55.764164 
L 413.868467 55.395899 
L 413.737461 55.304015 
L 413.671959 55.119305 
L 413.344446 55.027552 
L 413.278944 54.934982 
L 412.623918 54.88996 
L 412.623918 54.843466 
L 412.558415 54.657414 
L 411.837887 54.611774 
L 411.837887 54.565074 
L 411.837887 54.471623 
L 411.772384 54.471684 
L 410.658841 54.378884 
L 410.658841 54.331942 
L 410.593338 54.331977 
L 400.44044 54.240807 
L 400.44044 54.192413 
L 400.374938 54.192422 
L 57.6 54.144 
L 57.6 54.144 
" style="fill:none;stroke:#abd3d3;stroke-linecap:square;stroke-width:2;"/>
   </g>
   <g id="line2d_21">
    <path clip-path="url(#pc51a0c8aaa)" d="M 414.72 111.056239 
L 414.667927 111.062675 
L 414.667927 110.951495 
L 414.56378 76.525189 
L 414.511706 76.528166 
L 414.511706 76.435928 
L 414.407559 65.789113 
L 414.355486 65.790734 
L 414.355486 65.689678 
L 414.251339 61.822913 
L 414.199265 61.824 
L 414.199265 61.719555 
L 414.095118 60.917773 
L 413.938898 60.850479 
L 413.938898 60.815372 
L 413.834751 59.688226 
L 413.730604 59.689812 
L 413.730604 59.583405 
L 413.626457 59.300681 
L 413.574383 59.30142 
L 413.574383 59.194632 
L 413.470236 58.374078 
L 413.418163 58.374686 
L 413.418163 58.267052 
L 413.314016 58.01666 
L 413.261942 58.017218 
L 413.261942 57.909227 
L 413.157795 57.69399 
L 413.053648 57.658915 
L 413.053648 57.586682 
L 412.949501 57.298246 
L 412.897428 57.298703 
L 412.897428 57.189977 
L 412.793281 57.045704 
L 412.48084 56.975526 
L 412.48084 56.939159 
L 412.376693 56.757922 
L 412.324619 56.758302 
L 412.324619 56.64893 
L 412.220472 56.467108 
L 411.855958 56.396308 
L 411.855958 56.359707 
L 411.803885 56.140173 
L 411.751811 56.140464 
L 411.491444 56.068486 
L 411.491444 56.031752 
L 411.43937 55.921747 
L 411.387297 55.922006 
L 411.179003 55.812588 
L 411.126929 55.665382 
L 411.074856 55.665605 
L 410.762415 55.556129 
L 410.710341 55.445408 
L 410.658268 55.445599 
L 410.189606 55.410269 
L 410.189606 55.373206 
L 410.189606 55.299049 
L 410.085459 55.299388 
L 409.304357 55.227556 
L 409.20021 55.153423 
L 408.627402 55.080447 
L 408.627402 55.005786 
L 408.523255 55.006041 
L 407.11727 54.934471 
L 407.013123 54.82205 
L 405.91958 54.748779 
L 405.91958 54.711064 
L 405.815433 54.711234 
L 404.513596 54.637591 
L 404.513596 54.599691 
L 404.409449 54.599827 
L 403.263832 54.525227 
L 403.263832 54.487156 
L 403.159685 54.48726 
L 401.337113 54.412475 
L 401.337113 54.374156 
L 401.232966 54.374226 
L 392.068031 54.301735 
L 392.068031 54.262319 
L 391.963885 54.262356 
L 374.779633 54.185602 
L 374.779633 54.144 
L 374.675486 54.144 
L 57.6 54.144 
L 57.6 54.144 
" style="fill:none;stroke:#ff1493;stroke-dasharray:4,6.6;stroke-dashoffset:0;stroke-width:4;"/>
   </g>
   <g id="line2d_22">
    <path clip-path="url(#pc51a0c8aaa)" d="M 57.6 307.584 
L 414.72 54.144 
" style="fill:none;stroke:#000000;stroke-dasharray:7.4,3.2;stroke-dashoffset:0;stroke-width:2;"/>
   </g>
   <g id="line2d_23">
    <path clip-path="url(#pc51a0c8aaa)" d="M 57.6 307.584 
L 414.72 54.144 
" style="fill:none;stroke:#000000;stroke-dasharray:7.4,3.2;stroke-dashoffset:0;stroke-width:2;"/>
   </g>
   <g id="patch_3">
    <path d="M 57.6 307.584 
L 57.6 41.472 
" style="fill:none;stroke:#000000;stroke-linecap:square;stroke-linejoin:miter;stroke-width:0.8;"/>
   </g>
   <g id="patch_4">
    <path d="M 414.72 307.584 
L 414.72 41.472 
" style="fill:none;stroke:#000000;stroke-linecap:square;stroke-linejoin:miter;stroke-width:0.8;"/>
   </g>
   <g id="patch_5">
    <path d="M 57.6 307.584 
L 414.72 307.584 
" style="fill:none;stroke:#000000;stroke-linecap:square;stroke-linejoin:miter;stroke-width:0.8;"/>
   </g>
   <g id="patch_6">
    <path d="M 57.6 41.472 
L 414.72 41.472 
" style="fill:none;stroke:#000000;stroke-linecap:square;stroke-linejoin:miter;stroke-width:0.8;"/>
   </g>
   <g id="text_15">
    <!-- PR Curves -->
    <g transform="translate(205.63875 35.472)scale(0.12 -0.12)">
     <defs>
      <path id="DejaVuSans-20" transform="scale(0.015625)"/>
      <path d="M 4122 4306 
L 4122 3641 
Q 3803 3938 3442 4084 
Q 3081 4231 2675 4231 
Q 1875 4231 1450 3742 
Q 1025 3253 1025 2328 
Q 1025 1406 1450 917 
Q 1875 428 2675 428 
Q 3081 428 3442 575 
Q 3803 722 4122 1019 
L 4122 359 
Q 3791 134 3420 21 
Q 3050 -91 2638 -91 
Q 1578 -91 968 557 
Q 359 1206 359 2328 
Q 359 3453 968 4101 
Q 1578 4750 2638 4750 
Q 3056 4750 3426 4639 
Q 3797 4528 4122 4306 
z
" id="DejaVuSans-43" transform="scale(0.015625)"/>
      <path d="M 544 1381 
L 544 3500 
L 1119 3500 
L 1119 1403 
Q 1119 906 1312 657 
Q 1506 409 1894 409 
Q 2359 409 2629 706 
Q 2900 1003 2900 1516 
L 2900 3500 
L 3475 3500 
L 3475 0 
L 2900 0 
L 2900 538 
Q 2691 219 2414 64 
Q 2138 -91 1772 -91 
Q 1169 -91 856 284 
Q 544 659 544 1381 
z
M 1991 3584 
L 1991 3584 
z
" id="DejaVuSans-75" transform="scale(0.015625)"/>
      <path d="M 191 3500 
L 800 3500 
L 1894 563 
L 2988 3500 
L 3597 3500 
L 2284 0 
L 1503 0 
L 191 3500 
z
" id="DejaVuSans-76" transform="scale(0.015625)"/>
     </defs>
     <use xlink:href="#DejaVuSans-50"/>
     <use x="60.302734" xlink:href="#DejaVuSans-52"/>
     <use x="129.785156" xlink:href="#DejaVuSans-20"/>
     <use x="161.572266" xlink:href="#DejaVuSans-43"/>
     <use x="231.396484" xlink:href="#DejaVuSans-75"/>
     <use x="294.775391" xlink:href="#DejaVuSans-72"/>
     <use x="335.888672" xlink:href="#DejaVuSans-76"/>
     <use x="395.068359" xlink:href="#DejaVuSans-65"/>
     <use x="456.591797" xlink:href="#DejaVuSans-73"/>
    </g>
   </g>
   <g id="legend_1">
    <g id="patch_7">
     <path d="M 64.6 302.584 
L 288.623438 302.584 
Q 290.623438 302.584 290.623438 300.584 
L 290.623438 169.480875 
Q 290.623438 167.480875 288.623438 167.480875 
L 64.6 167.480875 
Q 62.6 167.480875 62.6 169.480875 
L 62.6 300.584 
Q 62.6 302.584 64.6 302.584 
z
" style="fill:#ffffff;opacity:0.8;stroke:#cccccc;stroke-linejoin:miter;"/>
    </g>
    <g id="line2d_24">
     <path d="M 66.6 175.579313 
L 86.6 175.579313 
" style="fill:none;stroke:#87175f;stroke-linecap:square;stroke-width:2;"/>
    </g>
    <g id="line2d_25"/>
    <g id="text_16">
     <!-- PR curve of B-cell (area = 1.00) -->
     <g transform="translate(94.6 179.079313)scale(0.1 -0.1)">
      <defs>
       <path d="M 2375 4863 
L 2375 4384 
L 1825 4384 
Q 1516 4384 1395 4259 
Q 1275 4134 1275 3809 
L 1275 3500 
L 2222 3500 
L 2222 3053 
L 1275 3053 
L 1275 0 
L 697 0 
L 697 3053 
L 147 3053 
L 147 3500 
L 697 3500 
L 697 3744 
Q 697 4328 969 4595 
Q 1241 4863 1831 4863 
L 2375 4863 
z
" id="DejaVuSans-66" transform="scale(0.015625)"/>
       <path d="M 1259 2228 
L 1259 519 
L 2272 519 
Q 2781 519 3026 730 
Q 3272 941 3272 1375 
Q 3272 1813 3026 2020 
Q 2781 2228 2272 2228 
L 1259 2228 
z
M 1259 4147 
L 1259 2741 
L 2194 2741 
Q 2656 2741 2882 2914 
Q 3109 3088 3109 3444 
Q 3109 3797 2882 3972 
Q 2656 4147 2194 4147 
L 1259 4147 
z
M 628 4666 
L 2241 4666 
Q 2963 4666 3353 4366 
Q 3744 4066 3744 3513 
Q 3744 3084 3544 2831 
Q 3344 2578 2956 2516 
Q 3422 2416 3680 2098 
Q 3938 1781 3938 1306 
Q 3938 681 3513 340 
Q 3088 0 2303 0 
L 628 0 
L 628 4666 
z
" id="DejaVuSans-42" transform="scale(0.015625)"/>
       <path d="M 313 2009 
L 1997 2009 
L 1997 1497 
L 313 1497 
L 313 2009 
z
" id="DejaVuSans-2d" transform="scale(0.015625)"/>
       <path d="M 1984 4856 
Q 1566 4138 1362 3434 
Q 1159 2731 1159 2009 
Q 1159 1288 1364 580 
Q 1569 -128 1984 -844 
L 1484 -844 
Q 1016 -109 783 600 
Q 550 1309 550 2009 
Q 550 2706 781 3412 
Q 1013 4119 1484 4856 
L 1984 4856 
z
" id="DejaVuSans-28" transform="scale(0.015625)"/>
       <path d="M 678 2906 
L 4684 2906 
L 4684 2381 
L 678 2381 
L 678 2906 
z
M 678 1631 
L 4684 1631 
L 4684 1100 
L 678 1100 
L 678 1631 
z
" id="DejaVuSans-3d" transform="scale(0.015625)"/>
       <path d="M 513 4856 
L 1013 4856 
Q 1481 4119 1714 3412 
Q 1947 2706 1947 2009 
Q 1947 1309 1714 600 
Q 1481 -109 1013 -844 
L 513 -844 
Q 928 -128 1133 580 
Q 1338 1288 1338 2009 
Q 1338 2731 1133 3434 
Q 928 4138 513 4856 
z
" id="DejaVuSans-29" transform="scale(0.015625)"/>
      </defs>
      <use xlink:href="#DejaVuSans-50"/>
      <use x="60.302734" xlink:href="#DejaVuSans-52"/>
      <use x="129.785156" xlink:href="#DejaVuSans-20"/>
      <use x="161.572266" xlink:href="#DejaVuSans-63"/>
      <use x="216.552734" xlink:href="#DejaVuSans-75"/>
      <use x="279.931641" xlink:href="#DejaVuSans-72"/>
      <use x="321.044922" xlink:href="#DejaVuSans-76"/>
      <use x="380.224609" xlink:href="#DejaVuSans-65"/>
      <use x="441.748047" xlink:href="#DejaVuSans-20"/>
      <use x="473.535156" xlink:href="#DejaVuSans-6f"/>
      <use x="534.716797" xlink:href="#DejaVuSans-66"/>
      <use x="569.921875" xlink:href="#DejaVuSans-20"/>
      <use x="601.708984" xlink:href="#DejaVuSans-42"/>
      <use x="670.3125" xlink:href="#DejaVuSans-2d"/>
      <use x="706.396484" xlink:href="#DejaVuSans-63"/>
      <use x="761.376953" xlink:href="#DejaVuSans-65"/>
      <use x="822.900391" xlink:href="#DejaVuSans-6c"/>
      <use x="850.683594" xlink:href="#DejaVuSans-6c"/>
      <use x="878.466797" xlink:href="#DejaVuSans-20"/>
      <use x="910.253906" xlink:href="#DejaVuSans-28"/>
      <use x="949.267578" xlink:href="#DejaVuSans-61"/>
      <use x="1010.546875" xlink:href="#DejaVuSans-72"/>
      <use x="1049.410156" xlink:href="#DejaVuSans-65"/>
      <use x="1110.933594" xlink:href="#DejaVuSans-61"/>
      <use x="1172.212891" xlink:href="#DejaVuSans-20"/>
      <use x="1204" xlink:href="#DejaVuSans-3d"/>
      <use x="1287.789062" xlink:href="#DejaVuSans-20"/>
      <use x="1319.576172" xlink:href="#DejaVuSans-31"/>
      <use x="1383.199219" xlink:href="#DejaVuSans-2e"/>
      <use x="1414.986328" xlink:href="#DejaVuSans-30"/>
      <use x="1478.609375" xlink:href="#DejaVuSans-30"/>
      <use x="1542.232422" xlink:href="#DejaVuSans-29"/>
     </g>
    </g>
    <g id="line2d_26">
     <path d="M 66.6 190.257438 
L 86.6 190.257438 
" style="fill:none;stroke:#db90a8;stroke-linecap:square;stroke-width:2;"/>
    </g>
    <g id="line2d_27"/>
    <g id="text_17">
     <!-- PR curve of Basophil (area = 0.79) -->
     <g transform="translate(94.6 193.757438)scale(0.1 -0.1)">
      <defs>
       <path d="M 1159 525 
L 1159 -1331 
L 581 -1331 
L 581 3500 
L 1159 3500 
L 1159 2969 
Q 1341 3281 1617 3432 
Q 1894 3584 2278 3584 
Q 2916 3584 3314 3078 
Q 3713 2572 3713 1747 
Q 3713 922 3314 415 
Q 2916 -91 2278 -91 
Q 1894 -91 1617 61 
Q 1341 213 1159 525 
z
M 3116 1747 
Q 3116 2381 2855 2742 
Q 2594 3103 2138 3103 
Q 1681 3103 1420 2742 
Q 1159 2381 1159 1747 
Q 1159 1113 1420 752 
Q 1681 391 2138 391 
Q 2594 391 2855 752 
Q 3116 1113 3116 1747 
z
" id="DejaVuSans-70" transform="scale(0.015625)"/>
       <path d="M 3513 2113 
L 3513 0 
L 2938 0 
L 2938 2094 
Q 2938 2591 2744 2837 
Q 2550 3084 2163 3084 
Q 1697 3084 1428 2787 
Q 1159 2491 1159 1978 
L 1159 0 
L 581 0 
L 581 4863 
L 1159 4863 
L 1159 2956 
Q 1366 3272 1645 3428 
Q 1925 3584 2291 3584 
Q 2894 3584 3203 3211 
Q 3513 2838 3513 2113 
z
" id="DejaVuSans-68" transform="scale(0.015625)"/>
       <path d="M 525 4666 
L 3525 4666 
L 3525 4397 
L 1831 0 
L 1172 0 
L 2766 4134 
L 525 4134 
L 525 4666 
z
" id="DejaVuSans-37" transform="scale(0.015625)"/>
       <path d="M 703 97 
L 703 672 
Q 941 559 1184 500 
Q 1428 441 1663 441 
Q 2288 441 2617 861 
Q 2947 1281 2994 2138 
Q 2813 1869 2534 1725 
Q 2256 1581 1919 1581 
Q 1219 1581 811 2004 
Q 403 2428 403 3163 
Q 403 3881 828 4315 
Q 1253 4750 1959 4750 
Q 2769 4750 3195 4129 
Q 3622 3509 3622 2328 
Q 3622 1225 3098 567 
Q 2575 -91 1691 -91 
Q 1453 -91 1209 -44 
Q 966 3 703 97 
z
M 1959 2075 
Q 2384 2075 2632 2365 
Q 2881 2656 2881 3163 
Q 2881 3666 2632 3958 
Q 2384 4250 1959 4250 
Q 1534 4250 1286 3958 
Q 1038 3666 1038 3163 
Q 1038 2656 1286 2365 
Q 1534 2075 1959 2075 
z
" id="DejaVuSans-39" transform="scale(0.015625)"/>
      </defs>
      <use xlink:href="#DejaVuSans-50"/>
      <use x="60.302734" xlink:href="#DejaVuSans-52"/>
      <use x="129.785156" xlink:href="#DejaVuSans-20"/>
      <use x="161.572266" xlink:href="#DejaVuSans-63"/>
      <use x="216.552734" xlink:href="#DejaVuSans-75"/>
      <use x="279.931641" xlink:href="#DejaVuSans-72"/>
      <use x="321.044922" xlink:href="#DejaVuSans-76"/>
      <use x="380.224609" xlink:href="#DejaVuSans-65"/>
      <use x="441.748047" xlink:href="#DejaVuSans-20"/>
      <use x="473.535156" xlink:href="#DejaVuSans-6f"/>
      <use x="534.716797" xlink:href="#DejaVuSans-66"/>
      <use x="569.921875" xlink:href="#DejaVuSans-20"/>
      <use x="601.708984" xlink:href="#DejaVuSans-42"/>
      <use x="670.3125" xlink:href="#DejaVuSans-61"/>
      <use x="731.591797" xlink:href="#DejaVuSans-73"/>
      <use x="783.691406" xlink:href="#DejaVuSans-6f"/>
      <use x="844.873047" xlink:href="#DejaVuSans-70"/>
      <use x="908.349609" xlink:href="#DejaVuSans-68"/>
      <use x="971.728516" xlink:href="#DejaVuSans-69"/>
      <use x="999.511719" xlink:href="#DejaVuSans-6c"/>
      <use x="1027.294922" xlink:href="#DejaVuSans-20"/>
      <use x="1059.082031" xlink:href="#DejaVuSans-28"/>
      <use x="1098.095703" xlink:href="#DejaVuSans-61"/>
      <use x="1159.375" xlink:href="#DejaVuSans-72"/>
      <use x="1198.238281" xlink:href="#DejaVuSans-65"/>
      <use x="1259.761719" xlink:href="#DejaVuSans-61"/>
      <use x="1321.041016" xlink:href="#DejaVuSans-20"/>
      <use x="1352.828125" xlink:href="#DejaVuSans-3d"/>
      <use x="1436.617188" xlink:href="#DejaVuSans-20"/>
      <use x="1468.404297" xlink:href="#DejaVuSans-30"/>
      <use x="1532.027344" xlink:href="#DejaVuSans-2e"/>
      <use x="1563.814453" xlink:href="#DejaVuSans-37"/>
      <use x="1627.4375" xlink:href="#DejaVuSans-39"/>
      <use x="1691.060547" xlink:href="#DejaVuSans-29"/>
     </g>
    </g>
    <g id="line2d_28">
     <path d="M 66.6 204.935563 
L 86.6 204.935563 
" style="fill:none;stroke:#0aa4ac;stroke-linecap:square;stroke-width:2;"/>
    </g>
    <g id="line2d_29"/>
    <g id="text_18">
     <!-- PR curve of Dendritic (area = 1.00) -->
     <g transform="translate(94.6 208.435563)scale(0.1 -0.1)">
      <defs>
       <path d="M 1259 4147 
L 1259 519 
L 2022 519 
Q 2988 519 3436 956 
Q 3884 1394 3884 2338 
Q 3884 3275 3436 3711 
Q 2988 4147 2022 4147 
L 1259 4147 
z
M 628 4666 
L 1925 4666 
Q 3281 4666 3915 4102 
Q 4550 3538 4550 2338 
Q 4550 1131 3912 565 
Q 3275 0 1925 0 
L 628 0 
L 628 4666 
z
" id="DejaVuSans-44" transform="scale(0.015625)"/>
       <path d="M 2906 2969 
L 2906 4863 
L 3481 4863 
L 3481 0 
L 2906 0 
L 2906 525 
Q 2725 213 2448 61 
Q 2172 -91 1784 -91 
Q 1150 -91 751 415 
Q 353 922 353 1747 
Q 353 2572 751 3078 
Q 1150 3584 1784 3584 
Q 2172 3584 2448 3432 
Q 2725 3281 2906 2969 
z
M 947 1747 
Q 947 1113 1208 752 
Q 1469 391 1925 391 
Q 2381 391 2643 752 
Q 2906 1113 2906 1747 
Q 2906 2381 2643 2742 
Q 2381 3103 1925 3103 
Q 1469 3103 1208 2742 
Q 947 2381 947 1747 
z
" id="DejaVuSans-64" transform="scale(0.015625)"/>
       <path d="M 1172 4494 
L 1172 3500 
L 2356 3500 
L 2356 3053 
L 1172 3053 
L 1172 1153 
Q 1172 725 1289 603 
Q 1406 481 1766 481 
L 2356 481 
L 2356 0 
L 1766 0 
Q 1100 0 847 248 
Q 594 497 594 1153 
L 594 3053 
L 172 3053 
L 172 3500 
L 594 3500 
L 594 4494 
L 1172 4494 
z
" id="DejaVuSans-74" transform="scale(0.015625)"/>
      </defs>
      <use xlink:href="#DejaVuSans-50"/>
      <use x="60.302734" xlink:href="#DejaVuSans-52"/>
      <use x="129.785156" xlink:href="#DejaVuSans-20"/>
      <use x="161.572266" xlink:href="#DejaVuSans-63"/>
      <use x="216.552734" xlink:href="#DejaVuSans-75"/>
      <use x="279.931641" xlink:href="#DejaVuSans-72"/>
      <use x="321.044922" xlink:href="#DejaVuSans-76"/>
      <use x="380.224609" xlink:href="#DejaVuSans-65"/>
      <use x="441.748047" xlink:href="#DejaVuSans-20"/>
      <use x="473.535156" xlink:href="#DejaVuSans-6f"/>
      <use x="534.716797" xlink:href="#DejaVuSans-66"/>
      <use x="569.921875" xlink:href="#DejaVuSans-20"/>
      <use x="601.708984" xlink:href="#DejaVuSans-44"/>
      <use x="678.710938" xlink:href="#DejaVuSans-65"/>
      <use x="740.234375" xlink:href="#DejaVuSans-6e"/>
      <use x="803.613281" xlink:href="#DejaVuSans-64"/>
      <use x="867.089844" xlink:href="#DejaVuSans-72"/>
      <use x="908.203125" xlink:href="#DejaVuSans-69"/>
      <use x="935.986328" xlink:href="#DejaVuSans-74"/>
      <use x="975.195312" xlink:href="#DejaVuSans-69"/>
      <use x="1002.978516" xlink:href="#DejaVuSans-63"/>
      <use x="1057.958984" xlink:href="#DejaVuSans-20"/>
      <use x="1089.746094" xlink:href="#DejaVuSans-28"/>
      <use x="1128.759766" xlink:href="#DejaVuSans-61"/>
      <use x="1190.039062" xlink:href="#DejaVuSans-72"/>
      <use x="1228.902344" xlink:href="#DejaVuSans-65"/>
      <use x="1290.425781" xlink:href="#DejaVuSans-61"/>
      <use x="1351.705078" xlink:href="#DejaVuSans-20"/>
      <use x="1383.492188" xlink:href="#DejaVuSans-3d"/>
      <use x="1467.28125" xlink:href="#DejaVuSans-20"/>
      <use x="1499.068359" xlink:href="#DejaVuSans-31"/>
      <use x="1562.691406" xlink:href="#DejaVuSans-2e"/>
      <use x="1594.478516" xlink:href="#DejaVuSans-30"/>
      <use x="1658.101562" xlink:href="#DejaVuSans-30"/>
      <use x="1721.724609" xlink:href="#DejaVuSans-29"/>
     </g>
    </g>
    <g id="line2d_30">
     <path d="M 66.6 219.613688 
L 86.6 219.613688 
" style="fill:none;stroke:#5a58d7;stroke-linecap:square;stroke-width:2;"/>
    </g>
    <g id="line2d_31"/>
    <g id="text_19">
     <!-- PR curve of Macrophage (area = 1.00) -->
     <g transform="translate(94.6 223.113688)scale(0.1 -0.1)">
      <defs>
       <path d="M 628 4666 
L 1569 4666 
L 2759 1491 
L 3956 4666 
L 4897 4666 
L 4897 0 
L 4281 0 
L 4281 4097 
L 3078 897 
L 2444 897 
L 1241 4097 
L 1241 0 
L 628 0 
L 628 4666 
z
" id="DejaVuSans-4d" transform="scale(0.015625)"/>
       <path d="M 2906 1791 
Q 2906 2416 2648 2759 
Q 2391 3103 1925 3103 
Q 1463 3103 1205 2759 
Q 947 2416 947 1791 
Q 947 1169 1205 825 
Q 1463 481 1925 481 
Q 2391 481 2648 825 
Q 2906 1169 2906 1791 
z
M 3481 434 
Q 3481 -459 3084 -895 
Q 2688 -1331 1869 -1331 
Q 1566 -1331 1297 -1286 
Q 1028 -1241 775 -1147 
L 775 -588 
Q 1028 -725 1275 -790 
Q 1522 -856 1778 -856 
Q 2344 -856 2625 -561 
Q 2906 -266 2906 331 
L 2906 616 
Q 2728 306 2450 153 
Q 2172 0 1784 0 
Q 1141 0 747 490 
Q 353 981 353 1791 
Q 353 2603 747 3093 
Q 1141 3584 1784 3584 
Q 2172 3584 2450 3431 
Q 2728 3278 2906 2969 
L 2906 3500 
L 3481 3500 
L 3481 434 
z
" id="DejaVuSans-67" transform="scale(0.015625)"/>
      </defs>
      <use xlink:href="#DejaVuSans-50"/>
      <use x="60.302734" xlink:href="#DejaVuSans-52"/>
      <use x="129.785156" xlink:href="#DejaVuSans-20"/>
      <use x="161.572266" xlink:href="#DejaVuSans-63"/>
      <use x="216.552734" xlink:href="#DejaVuSans-75"/>
      <use x="279.931641" xlink:href="#DejaVuSans-72"/>
      <use x="321.044922" xlink:href="#DejaVuSans-76"/>
      <use x="380.224609" xlink:href="#DejaVuSans-65"/>
      <use x="441.748047" xlink:href="#DejaVuSans-20"/>
      <use x="473.535156" xlink:href="#DejaVuSans-6f"/>
      <use x="534.716797" xlink:href="#DejaVuSans-66"/>
      <use x="569.921875" xlink:href="#DejaVuSans-20"/>
      <use x="601.708984" xlink:href="#DejaVuSans-4d"/>
      <use x="687.988281" xlink:href="#DejaVuSans-61"/>
      <use x="749.267578" xlink:href="#DejaVuSans-63"/>
      <use x="804.248047" xlink:href="#DejaVuSans-72"/>
      <use x="843.111328" xlink:href="#DejaVuSans-6f"/>
      <use x="904.292969" xlink:href="#DejaVuSans-70"/>
      <use x="967.769531" xlink:href="#DejaVuSans-68"/>
      <use x="1031.148438" xlink:href="#DejaVuSans-61"/>
      <use x="1092.427734" xlink:href="#DejaVuSans-67"/>
      <use x="1155.904297" xlink:href="#DejaVuSans-65"/>
      <use x="1217.427734" xlink:href="#DejaVuSans-20"/>
      <use x="1249.214844" xlink:href="#DejaVuSans-28"/>
      <use x="1288.228516" xlink:href="#DejaVuSans-61"/>
      <use x="1349.507812" xlink:href="#DejaVuSans-72"/>
      <use x="1388.371094" xlink:href="#DejaVuSans-65"/>
      <use x="1449.894531" xlink:href="#DejaVuSans-61"/>
      <use x="1511.173828" xlink:href="#DejaVuSans-20"/>
      <use x="1542.960938" xlink:href="#DejaVuSans-3d"/>
      <use x="1626.75" xlink:href="#DejaVuSans-20"/>
      <use x="1658.537109" xlink:href="#DejaVuSans-31"/>
      <use x="1722.160156" xlink:href="#DejaVuSans-2e"/>
      <use x="1753.947266" xlink:href="#DejaVuSans-30"/>
      <use x="1817.570312" xlink:href="#DejaVuSans-30"/>
      <use x="1881.193359" xlink:href="#DejaVuSans-29"/>
     </g>
    </g>
    <g id="line2d_32">
     <path d="M 66.6 234.291813 
L 86.6 234.291813 
" style="fill:none;stroke:#514b15;stroke-linecap:square;stroke-width:2;"/>
    </g>
    <g id="line2d_33"/>
    <g id="text_20">
     <!-- PR curve of Monocyte (area = 1.00) -->
     <g transform="translate(94.6 237.791813)scale(0.1 -0.1)">
      <defs>
       <path d="M 2059 -325 
Q 1816 -950 1584 -1140 
Q 1353 -1331 966 -1331 
L 506 -1331 
L 506 -850 
L 844 -850 
Q 1081 -850 1212 -737 
Q 1344 -625 1503 -206 
L 1606 56 
L 191 3500 
L 800 3500 
L 1894 763 
L 2988 3500 
L 3597 3500 
L 2059 -325 
z
" id="DejaVuSans-79" transform="scale(0.015625)"/>
      </defs>
      <use xlink:href="#DejaVuSans-50"/>
      <use x="60.302734" xlink:href="#DejaVuSans-52"/>
      <use x="129.785156" xlink:href="#DejaVuSans-20"/>
      <use x="161.572266" xlink:href="#DejaVuSans-63"/>
      <use x="216.552734" xlink:href="#DejaVuSans-75"/>
      <use x="279.931641" xlink:href="#DejaVuSans-72"/>
      <use x="321.044922" xlink:href="#DejaVuSans-76"/>
      <use x="380.224609" xlink:href="#DejaVuSans-65"/>
      <use x="441.748047" xlink:href="#DejaVuSans-20"/>
      <use x="473.535156" xlink:href="#DejaVuSans-6f"/>
      <use x="534.716797" xlink:href="#DejaVuSans-66"/>
      <use x="569.921875" xlink:href="#DejaVuSans-20"/>
      <use x="601.708984" xlink:href="#DejaVuSans-4d"/>
      <use x="687.988281" xlink:href="#DejaVuSans-6f"/>
      <use x="749.169922" xlink:href="#DejaVuSans-6e"/>
      <use x="812.548828" xlink:href="#DejaVuSans-6f"/>
      <use x="873.730469" xlink:href="#DejaVuSans-63"/>
      <use x="928.710938" xlink:href="#DejaVuSans-79"/>
      <use x="987.890625" xlink:href="#DejaVuSans-74"/>
      <use x="1027.099609" xlink:href="#DejaVuSans-65"/>
      <use x="1088.623047" xlink:href="#DejaVuSans-20"/>
      <use x="1120.410156" xlink:href="#DejaVuSans-28"/>
      <use x="1159.423828" xlink:href="#DejaVuSans-61"/>
      <use x="1220.703125" xlink:href="#DejaVuSans-72"/>
      <use x="1259.566406" xlink:href="#DejaVuSans-65"/>
      <use x="1321.089844" xlink:href="#DejaVuSans-61"/>
      <use x="1382.369141" xlink:href="#DejaVuSans-20"/>
      <use x="1414.15625" xlink:href="#DejaVuSans-3d"/>
      <use x="1497.945312" xlink:href="#DejaVuSans-20"/>
      <use x="1529.732422" xlink:href="#DejaVuSans-31"/>
      <use x="1593.355469" xlink:href="#DejaVuSans-2e"/>
      <use x="1625.142578" xlink:href="#DejaVuSans-30"/>
      <use x="1688.765625" xlink:href="#DejaVuSans-30"/>
      <use x="1752.388672" xlink:href="#DejaVuSans-29"/>
     </g>
    </g>
    <g id="line2d_34">
     <path d="M 66.6 248.969938 
L 86.6 248.969938 
" style="fill:none;stroke:#88dbfd;stroke-linecap:square;stroke-width:2;"/>
    </g>
    <g id="line2d_35"/>
    <g id="text_21">
     <!-- PR curve of NK (area = 0.99) -->
     <g transform="translate(94.6 252.469938)scale(0.1 -0.1)">
      <defs>
       <path d="M 628 4666 
L 1478 4666 
L 3547 763 
L 3547 4666 
L 4159 4666 
L 4159 0 
L 3309 0 
L 1241 3903 
L 1241 0 
L 628 0 
L 628 4666 
z
" id="DejaVuSans-4e" transform="scale(0.015625)"/>
       <path d="M 628 4666 
L 1259 4666 
L 1259 2694 
L 3353 4666 
L 4166 4666 
L 1850 2491 
L 4331 0 
L 3500 0 
L 1259 2247 
L 1259 0 
L 628 0 
L 628 4666 
z
" id="DejaVuSans-4b" transform="scale(0.015625)"/>
      </defs>
      <use xlink:href="#DejaVuSans-50"/>
      <use x="60.302734" xlink:href="#DejaVuSans-52"/>
      <use x="129.785156" xlink:href="#DejaVuSans-20"/>
      <use x="161.572266" xlink:href="#DejaVuSans-63"/>
      <use x="216.552734" xlink:href="#DejaVuSans-75"/>
      <use x="279.931641" xlink:href="#DejaVuSans-72"/>
      <use x="321.044922" xlink:href="#DejaVuSans-76"/>
      <use x="380.224609" xlink:href="#DejaVuSans-65"/>
      <use x="441.748047" xlink:href="#DejaVuSans-20"/>
      <use x="473.535156" xlink:href="#DejaVuSans-6f"/>
      <use x="534.716797" xlink:href="#DejaVuSans-66"/>
      <use x="569.921875" xlink:href="#DejaVuSans-20"/>
      <use x="601.708984" xlink:href="#DejaVuSans-4e"/>
      <use x="676.513672" xlink:href="#DejaVuSans-4b"/>
      <use x="742.089844" xlink:href="#DejaVuSans-20"/>
      <use x="773.876953" xlink:href="#DejaVuSans-28"/>
      <use x="812.890625" xlink:href="#DejaVuSans-61"/>
      <use x="874.169922" xlink:href="#DejaVuSans-72"/>
      <use x="913.033203" xlink:href="#DejaVuSans-65"/>
      <use x="974.556641" xlink:href="#DejaVuSans-61"/>
      <use x="1035.835938" xlink:href="#DejaVuSans-20"/>
      <use x="1067.623047" xlink:href="#DejaVuSans-3d"/>
      <use x="1151.412109" xlink:href="#DejaVuSans-20"/>
      <use x="1183.199219" xlink:href="#DejaVuSans-30"/>
      <use x="1246.822266" xlink:href="#DejaVuSans-2e"/>
      <use x="1278.609375" xlink:href="#DejaVuSans-39"/>
      <use x="1342.232422" xlink:href="#DejaVuSans-39"/>
      <use x="1405.855469" xlink:href="#DejaVuSans-29"/>
     </g>
    </g>
    <g id="line2d_36">
     <path d="M 66.6 263.648063 
L 86.6 263.648063 
" style="fill:none;stroke:#23d7cd;stroke-linecap:square;stroke-width:2;"/>
    </g>
    <g id="line2d_37"/>
    <g id="text_22">
     <!-- PR curve of Platelet (area = 1.00) -->
     <g transform="translate(94.6 267.148063)scale(0.1 -0.1)">
      <use xlink:href="#DejaVuSans-50"/>
      <use x="60.302734" xlink:href="#DejaVuSans-52"/>
      <use x="129.785156" xlink:href="#DejaVuSans-20"/>
      <use x="161.572266" xlink:href="#DejaVuSans-63"/>
      <use x="216.552734" xlink:href="#DejaVuSans-75"/>
      <use x="279.931641" xlink:href="#DejaVuSans-72"/>
      <use x="321.044922" xlink:href="#DejaVuSans-76"/>
      <use x="380.224609" xlink:href="#DejaVuSans-65"/>
      <use x="441.748047" xlink:href="#DejaVuSans-20"/>
      <use x="473.535156" xlink:href="#DejaVuSans-6f"/>
      <use x="534.716797" xlink:href="#DejaVuSans-66"/>
      <use x="569.921875" xlink:href="#DejaVuSans-20"/>
      <use x="601.708984" xlink:href="#DejaVuSans-50"/>
      <use x="662.011719" xlink:href="#DejaVuSans-6c"/>
      <use x="689.794922" xlink:href="#DejaVuSans-61"/>
      <use x="751.074219" xlink:href="#DejaVuSans-74"/>
      <use x="790.283203" xlink:href="#DejaVuSans-65"/>
      <use x="851.806641" xlink:href="#DejaVuSans-6c"/>
      <use x="879.589844" xlink:href="#DejaVuSans-65"/>
      <use x="941.113281" xlink:href="#DejaVuSans-74"/>
      <use x="980.322266" xlink:href="#DejaVuSans-20"/>
      <use x="1012.109375" xlink:href="#DejaVuSans-28"/>
      <use x="1051.123047" xlink:href="#DejaVuSans-61"/>
      <use x="1112.402344" xlink:href="#DejaVuSans-72"/>
      <use x="1151.265625" xlink:href="#DejaVuSans-65"/>
      <use x="1212.789062" xlink:href="#DejaVuSans-61"/>
      <use x="1274.068359" xlink:href="#DejaVuSans-20"/>
      <use x="1305.855469" xlink:href="#DejaVuSans-3d"/>
      <use x="1389.644531" xlink:href="#DejaVuSans-20"/>
      <use x="1421.431641" xlink:href="#DejaVuSans-31"/>
      <use x="1485.054688" xlink:href="#DejaVuSans-2e"/>
      <use x="1516.841797" xlink:href="#DejaVuSans-30"/>
      <use x="1580.464844" xlink:href="#DejaVuSans-30"/>
      <use x="1644.087891" xlink:href="#DejaVuSans-29"/>
     </g>
    </g>
    <g id="line2d_38">
     <path d="M 66.6 278.326188 
L 86.6 278.326188 
" style="fill:none;stroke:#abd3d3;stroke-linecap:square;stroke-width:2;"/>
    </g>
    <g id="line2d_39"/>
    <g id="text_23">
     <!-- PR curve of T-cell (area = 1.00) -->
     <g transform="translate(94.6 281.826188)scale(0.1 -0.1)">
      <defs>
       <path d="M -19 4666 
L 3928 4666 
L 3928 4134 
L 2272 4134 
L 2272 0 
L 1638 0 
L 1638 4134 
L -19 4134 
L -19 4666 
z
" id="DejaVuSans-54" transform="scale(0.015625)"/>
      </defs>
      <use xlink:href="#DejaVuSans-50"/>
      <use x="60.302734" xlink:href="#DejaVuSans-52"/>
      <use x="129.785156" xlink:href="#DejaVuSans-20"/>
      <use x="161.572266" xlink:href="#DejaVuSans-63"/>
      <use x="216.552734" xlink:href="#DejaVuSans-75"/>
      <use x="279.931641" xlink:href="#DejaVuSans-72"/>
      <use x="321.044922" xlink:href="#DejaVuSans-76"/>
      <use x="380.224609" xlink:href="#DejaVuSans-65"/>
      <use x="441.748047" xlink:href="#DejaVuSans-20"/>
      <use x="473.535156" xlink:href="#DejaVuSans-6f"/>
      <use x="534.716797" xlink:href="#DejaVuSans-66"/>
      <use x="569.921875" xlink:href="#DejaVuSans-20"/>
      <use x="601.708984" xlink:href="#DejaVuSans-54"/>
      <use x="653.667969" xlink:href="#DejaVuSans-2d"/>
      <use x="689.751953" xlink:href="#DejaVuSans-63"/>
      <use x="744.732422" xlink:href="#DejaVuSans-65"/>
      <use x="806.255859" xlink:href="#DejaVuSans-6c"/>
      <use x="834.039062" xlink:href="#DejaVuSans-6c"/>
      <use x="861.822266" xlink:href="#DejaVuSans-20"/>
      <use x="893.609375" xlink:href="#DejaVuSans-28"/>
      <use x="932.623047" xlink:href="#DejaVuSans-61"/>
      <use x="993.902344" xlink:href="#DejaVuSans-72"/>
      <use x="1032.765625" xlink:href="#DejaVuSans-65"/>
      <use x="1094.289062" xlink:href="#DejaVuSans-61"/>
      <use x="1155.568359" xlink:href="#DejaVuSans-20"/>
      <use x="1187.355469" xlink:href="#DejaVuSans-3d"/>
      <use x="1271.144531" xlink:href="#DejaVuSans-20"/>
      <use x="1302.931641" xlink:href="#DejaVuSans-31"/>
      <use x="1366.554688" xlink:href="#DejaVuSans-2e"/>
      <use x="1398.341797" xlink:href="#DejaVuSans-30"/>
      <use x="1461.964844" xlink:href="#DejaVuSans-30"/>
      <use x="1525.587891" xlink:href="#DejaVuSans-29"/>
     </g>
    </g>
    <g id="line2d_40">
     <path d="M 66.6 293.004312 
L 86.6 293.004312 
" style="fill:none;stroke:#ff1493;stroke-dasharray:4,6.6;stroke-dashoffset:0;stroke-width:4;"/>
    </g>
    <g id="line2d_41"/>
    <g id="text_24">
     <!-- micro-average PR curve (area = 1.00) -->
     <g transform="translate(94.6 296.504312)scale(0.1 -0.1)">
      <defs>
       <path d="M 3328 2828 
Q 3544 3216 3844 3400 
Q 4144 3584 4550 3584 
Q 5097 3584 5394 3201 
Q 5691 2819 5691 2113 
L 5691 0 
L 5113 0 
L 5113 2094 
Q 5113 2597 4934 2840 
Q 4756 3084 4391 3084 
Q 3944 3084 3684 2787 
Q 3425 2491 3425 1978 
L 3425 0 
L 2847 0 
L 2847 2094 
Q 2847 2600 2669 2842 
Q 2491 3084 2119 3084 
Q 1678 3084 1418 2786 
Q 1159 2488 1159 1978 
L 1159 0 
L 581 0 
L 581 3500 
L 1159 3500 
L 1159 2956 
Q 1356 3278 1631 3431 
Q 1906 3584 2284 3584 
Q 2666 3584 2933 3390 
Q 3200 3197 3328 2828 
z
" id="DejaVuSans-6d" transform="scale(0.015625)"/>
      </defs>
      <use xlink:href="#DejaVuSans-6d"/>
      <use x="97.412109" xlink:href="#DejaVuSans-69"/>
      <use x="125.195312" xlink:href="#DejaVuSans-63"/>
      <use x="180.175781" xlink:href="#DejaVuSans-72"/>
      <use x="219.039062" xlink:href="#DejaVuSans-6f"/>
      <use x="282.095703" xlink:href="#DejaVuSans-2d"/>
      <use x="318.179688" xlink:href="#DejaVuSans-61"/>
      <use x="379.458984" xlink:href="#DejaVuSans-76"/>
      <use x="438.638672" xlink:href="#DejaVuSans-65"/>
      <use x="500.162109" xlink:href="#DejaVuSans-72"/>
      <use x="541.275391" xlink:href="#DejaVuSans-61"/>
      <use x="602.554688" xlink:href="#DejaVuSans-67"/>
      <use x="666.03125" xlink:href="#DejaVuSans-65"/>
      <use x="727.554688" xlink:href="#DejaVuSans-20"/>
      <use x="759.341797" xlink:href="#DejaVuSans-50"/>
      <use x="819.644531" xlink:href="#DejaVuSans-52"/>
      <use x="889.126953" xlink:href="#DejaVuSans-20"/>
      <use x="920.914062" xlink:href="#DejaVuSans-63"/>
      <use x="975.894531" xlink:href="#DejaVuSans-75"/>
      <use x="1039.273438" xlink:href="#DejaVuSans-72"/>
      <use x="1080.386719" xlink:href="#DejaVuSans-76"/>
      <use x="1139.566406" xlink:href="#DejaVuSans-65"/>
      <use x="1201.089844" xlink:href="#DejaVuSans-20"/>
      <use x="1232.876953" xlink:href="#DejaVuSans-28"/>
      <use x="1271.890625" xlink:href="#DejaVuSans-61"/>
      <use x="1333.169922" xlink:href="#DejaVuSans-72"/>
      <use x="1372.033203" xlink:href="#DejaVuSans-65"/>
      <use x="1433.556641" xlink:href="#DejaVuSans-61"/>
      <use x="1494.835938" xlink:href="#DejaVuSans-20"/>
      <use x="1526.623047" xlink:href="#DejaVuSans-3d"/>
      <use x="1610.412109" xlink:href="#DejaVuSans-20"/>
      <use x="1642.199219" xlink:href="#DejaVuSans-31"/>
      <use x="1705.822266" xlink:href="#DejaVuSans-2e"/>
      <use x="1737.609375" xlink:href="#DejaVuSans-30"/>
      <use x="1801.232422" xlink:href="#DejaVuSans-30"/>
      <use x="1864.855469" xlink:href="#DejaVuSans-29"/>
     </g>
    </g>
   </g>
  </g>
 </g>
 <defs>
  <clipPath id="pc51a0c8aaa">
   <rect height="266.112" width="357.12" x="57.6" y="41.472"/>
  </clipPath>
 </defs>
</svg>
