<?xml version="1.0" encoding="utf-8" standalone="no"?>
<!DOCTYPE svg PUBLIC "-//W3C//DTD SVG 1.1//EN"
  "http://www.w3.org/Graphics/SVG/1.1/DTD/svg11.dtd">
<!-- Created with matplotlib (https://matplotlib.org/) -->
<svg height="345.6pt" version="1.1" viewBox="0 0 460.8 345.6" width="460.8pt" xmlns="http://www.w3.org/2000/svg" xmlns:xlink="http://www.w3.org/1999/xlink">
 <metadata>
  <rdf:RDF xmlns:cc="http://creativecommons.org/ns#" xmlns:dc="http://purl.org/dc/elements/1.1/" xmlns:rdf="http://www.w3.org/1999/02/22-rdf-syntax-ns#">
   <cc:Work>
    <dc:type rdf:resource="http://purl.org/dc/dcmitype/StillImage"/>
    <dc:date>2021-07-28T21:43:49.365962</dc:date>
    <dc:format>image/svg+xml</dc:format>
    <dc:creator>
     <cc:Agent>
      <dc:title>Matplotlib v3.3.4, https://matplotlib.org/</dc:title>
     </cc:Agent>
    </dc:creator>
   </cc:Work>
  </rdf:RDF>
 </metadata>
 <defs>
  <style type="text/css">*{stroke-linecap:butt;stroke-linejoin:round;}</style>
 </defs>
 <g id="figure_1">
  <g id="patch_1">
   <path d="M 0 345.6 
L 460.8 345.6 
L 460.8 0 
L 0 0 
z
" style="fill:#ffffff;"/>
  </g>
  <g id="axes_1">
   <g id="patch_2">
    <path d="M 57.6 307.584 
L 414.72 307.584 
L 414.72 41.472 
L 57.6 41.472 
z
" style="fill:#ffffff;"/>
   </g>
   <g id="matplotlib.axis_1">
    <g id="xtick_1">
     <g id="line2d_1">
      <defs>
       <path d="M 0 0 
L 0 3.5 
" id="m714a4af038" style="stroke:#000000;stroke-width:0.8;"/>
      </defs>
      <g>
       <use style="stroke:#000000;stroke-width:0.8;" x="57.6" xlink:href="#m714a4af038" y="307.584"/>
      </g>
     </g>
     <g id="text_1">
      <!-- 0.0 -->
      <g transform="translate(49.648438 322.182437)scale(0.1 -0.1)">
       <defs>
        <path d="M 31.78125 66.40625 
Q 24.171875 66.40625 20.328125 58.90625 
Q 16.5 51.421875 16.5 36.375 
Q 16.5 21.390625 20.328125 13.890625 
Q 24.171875 6.390625 31.78125 6.390625 
Q 39.453125 6.390625 43.28125 13.890625 
Q 47.125 21.390625 47.125 36.375 
Q 47.125 51.421875 43.28125 58.90625 
Q 39.453125 66.40625 31.78125 66.40625 
z
M 31.78125 74.21875 
Q 44.046875 74.21875 50.515625 64.515625 
Q 56.984375 54.828125 56.984375 36.375 
Q 56.984375 17.96875 50.515625 8.265625 
Q 44.046875 -1.421875 31.78125 -1.421875 
Q 19.53125 -1.421875 13.0625 8.265625 
Q 6.59375 17.96875 6.59375 36.375 
Q 6.59375 54.828125 13.0625 64.515625 
Q 19.53125 74.21875 31.78125 74.21875 
z
" id="DejaVuSans-48"/>
        <path d="M 10.6875 12.40625 
L 21 12.40625 
L 21 0 
L 10.6875 0 
z
" id="DejaVuSans-46"/>
       </defs>
       <use xlink:href="#DejaVuSans-48"/>
       <use x="63.623047" xlink:href="#DejaVuSans-46"/>
       <use x="95.410156" xlink:href="#DejaVuSans-48"/>
      </g>
     </g>
    </g>
    <g id="xtick_2">
     <g id="line2d_2">
      <g>
       <use style="stroke:#000000;stroke-width:0.8;" x="129.024" xlink:href="#m714a4af038" y="307.584"/>
      </g>
     </g>
     <g id="text_2">
      <!-- 0.2 -->
      <g transform="translate(121.072438 322.182437)scale(0.1 -0.1)">
       <defs>
        <path d="M 19.1875 8.296875 
L 53.609375 8.296875 
L 53.609375 0 
L 7.328125 0 
L 7.328125 8.296875 
Q 12.9375 14.109375 22.625 23.890625 
Q 32.328125 33.6875 34.8125 36.53125 
Q 39.546875 41.84375 41.421875 45.53125 
Q 43.3125 49.21875 43.3125 52.78125 
Q 43.3125 58.59375 39.234375 62.25 
Q 35.15625 65.921875 28.609375 65.921875 
Q 23.96875 65.921875 18.8125 64.3125 
Q 13.671875 62.703125 7.8125 59.421875 
L 7.8125 69.390625 
Q 13.765625 71.78125 18.9375 73 
Q 24.125 74.21875 28.421875 74.21875 
Q 39.75 74.21875 46.484375 68.546875 
Q 53.21875 62.890625 53.21875 53.421875 
Q 53.21875 48.921875 51.53125 44.890625 
Q 49.859375 40.875 45.40625 35.40625 
Q 44.1875 33.984375 37.640625 27.21875 
Q 31.109375 20.453125 19.1875 8.296875 
z
" id="DejaVuSans-50"/>
       </defs>
       <use xlink:href="#DejaVuSans-48"/>
       <use x="63.623047" xlink:href="#DejaVuSans-46"/>
       <use x="95.410156" xlink:href="#DejaVuSans-50"/>
      </g>
     </g>
    </g>
    <g id="xtick_3">
     <g id="line2d_3">
      <g>
       <use style="stroke:#000000;stroke-width:0.8;" x="200.448" xlink:href="#m714a4af038" y="307.584"/>
      </g>
     </g>
     <g id="text_3">
      <!-- 0.4 -->
      <g transform="translate(192.496438 322.182437)scale(0.1 -0.1)">
       <defs>
        <path d="M 37.796875 64.3125 
L 12.890625 25.390625 
L 37.796875 25.390625 
z
M 35.203125 72.90625 
L 47.609375 72.90625 
L 47.609375 25.390625 
L 58.015625 25.390625 
L 58.015625 17.1875 
L 47.609375 17.1875 
L 47.609375 0 
L 37.796875 0 
L 37.796875 17.1875 
L 4.890625 17.1875 
L 4.890625 26.703125 
z
" id="DejaVuSans-52"/>
       </defs>
       <use xlink:href="#DejaVuSans-48"/>
       <use x="63.623047" xlink:href="#DejaVuSans-46"/>
       <use x="95.410156" xlink:href="#DejaVuSans-52"/>
      </g>
     </g>
    </g>
    <g id="xtick_4">
     <g id="line2d_4">
      <g>
       <use style="stroke:#000000;stroke-width:0.8;" x="271.872" xlink:href="#m714a4af038" y="307.584"/>
      </g>
     </g>
     <g id="text_4">
      <!-- 0.6 -->
      <g transform="translate(263.920438 322.182437)scale(0.1 -0.1)">
       <defs>
        <path d="M 33.015625 40.375 
Q 26.375 40.375 22.484375 35.828125 
Q 18.609375 31.296875 18.609375 23.390625 
Q 18.609375 15.53125 22.484375 10.953125 
Q 26.375 6.390625 33.015625 6.390625 
Q 39.65625 6.390625 43.53125 10.953125 
Q 47.40625 15.53125 47.40625 23.390625 
Q 47.40625 31.296875 43.53125 35.828125 
Q 39.65625 40.375 33.015625 40.375 
z
M 52.59375 71.296875 
L 52.59375 62.3125 
Q 48.875 64.0625 45.09375 64.984375 
Q 41.3125 65.921875 37.59375 65.921875 
Q 27.828125 65.921875 22.671875 59.328125 
Q 17.53125 52.734375 16.796875 39.40625 
Q 19.671875 43.65625 24.015625 45.921875 
Q 28.375 48.1875 33.59375 48.1875 
Q 44.578125 48.1875 50.953125 41.515625 
Q 57.328125 34.859375 57.328125 23.390625 
Q 57.328125 12.15625 50.6875 5.359375 
Q 44.046875 -1.421875 33.015625 -1.421875 
Q 20.359375 -1.421875 13.671875 8.265625 
Q 6.984375 17.96875 6.984375 36.375 
Q 6.984375 53.65625 15.1875 63.9375 
Q 23.390625 74.21875 37.203125 74.21875 
Q 40.921875 74.21875 44.703125 73.484375 
Q 48.484375 72.75 52.59375 71.296875 
z
" id="DejaVuSans-54"/>
       </defs>
       <use xlink:href="#DejaVuSans-48"/>
       <use x="63.623047" xlink:href="#DejaVuSans-46"/>
       <use x="95.410156" xlink:href="#DejaVuSans-54"/>
      </g>
     </g>
    </g>
    <g id="xtick_5">
     <g id="line2d_5">
      <g>
       <use style="stroke:#000000;stroke-width:0.8;" x="343.296" xlink:href="#m714a4af038" y="307.584"/>
      </g>
     </g>
     <g id="text_5">
      <!-- 0.8 -->
      <g transform="translate(335.344438 322.182437)scale(0.1 -0.1)">
       <defs>
        <path d="M 31.78125 34.625 
Q 24.75 34.625 20.71875 30.859375 
Q 16.703125 27.09375 16.703125 20.515625 
Q 16.703125 13.921875 20.71875 10.15625 
Q 24.75 6.390625 31.78125 6.390625 
Q 38.8125 6.390625 42.859375 10.171875 
Q 46.921875 13.96875 46.921875 20.515625 
Q 46.921875 27.09375 42.890625 30.859375 
Q 38.875 34.625 31.78125 34.625 
z
M 21.921875 38.8125 
Q 15.578125 40.375 12.03125 44.71875 
Q 8.5 49.078125 8.5 55.328125 
Q 8.5 64.0625 14.71875 69.140625 
Q 20.953125 74.21875 31.78125 74.21875 
Q 42.671875 74.21875 48.875 69.140625 
Q 55.078125 64.0625 55.078125 55.328125 
Q 55.078125 49.078125 51.53125 44.71875 
Q 48 40.375 41.703125 38.8125 
Q 48.828125 37.15625 52.796875 32.3125 
Q 56.78125 27.484375 56.78125 20.515625 
Q 56.78125 9.90625 50.3125 4.234375 
Q 43.84375 -1.421875 31.78125 -1.421875 
Q 19.734375 -1.421875 13.25 4.234375 
Q 6.78125 9.90625 6.78125 20.515625 
Q 6.78125 27.484375 10.78125 32.3125 
Q 14.796875 37.15625 21.921875 38.8125 
z
M 18.3125 54.390625 
Q 18.3125 48.734375 21.84375 45.5625 
Q 25.390625 42.390625 31.78125 42.390625 
Q 38.140625 42.390625 41.71875 45.5625 
Q 45.3125 48.734375 45.3125 54.390625 
Q 45.3125 60.0625 41.71875 63.234375 
Q 38.140625 66.40625 31.78125 66.40625 
Q 25.390625 66.40625 21.84375 63.234375 
Q 18.3125 60.0625 18.3125 54.390625 
z
" id="DejaVuSans-56"/>
       </defs>
       <use xlink:href="#DejaVuSans-48"/>
       <use x="63.623047" xlink:href="#DejaVuSans-46"/>
       <use x="95.410156" xlink:href="#DejaVuSans-56"/>
      </g>
     </g>
    </g>
    <g id="xtick_6">
     <g id="line2d_6">
      <g>
       <use style="stroke:#000000;stroke-width:0.8;" x="414.72" xlink:href="#m714a4af038" y="307.584"/>
      </g>
     </g>
     <g id="text_6">
      <!-- 1.0 -->
      <g transform="translate(406.768438 322.182437)scale(0.1 -0.1)">
       <defs>
        <path d="M 12.40625 8.296875 
L 28.515625 8.296875 
L 28.515625 63.921875 
L 10.984375 60.40625 
L 10.984375 69.390625 
L 28.421875 72.90625 
L 38.28125 72.90625 
L 38.28125 8.296875 
L 54.390625 8.296875 
L 54.390625 0 
L 12.40625 0 
z
" id="DejaVuSans-49"/>
       </defs>
       <use xlink:href="#DejaVuSans-49"/>
       <use x="63.623047" xlink:href="#DejaVuSans-46"/>
       <use x="95.410156" xlink:href="#DejaVuSans-48"/>
      </g>
     </g>
    </g>
    <g id="text_7">
     <!-- Recall -->
     <g transform="translate(221.242812 335.860562)scale(0.1 -0.1)">
      <defs>
       <path d="M 44.390625 34.1875 
Q 47.5625 33.109375 50.5625 29.59375 
Q 53.5625 26.078125 56.59375 19.921875 
L 66.609375 0 
L 56 0 
L 46.6875 18.703125 
Q 43.0625 26.03125 39.671875 28.421875 
Q 36.28125 30.8125 30.421875 30.8125 
L 19.671875 30.8125 
L 19.671875 0 
L 9.8125 0 
L 9.8125 72.90625 
L 32.078125 72.90625 
Q 44.578125 72.90625 50.734375 67.671875 
Q 56.890625 62.453125 56.890625 51.90625 
Q 56.890625 45.015625 53.6875 40.46875 
Q 50.484375 35.9375 44.390625 34.1875 
z
M 19.671875 64.796875 
L 19.671875 38.921875 
L 32.078125 38.921875 
Q 39.203125 38.921875 42.84375 42.21875 
Q 46.484375 45.515625 46.484375 51.90625 
Q 46.484375 58.296875 42.84375 61.546875 
Q 39.203125 64.796875 32.078125 64.796875 
z
" id="DejaVuSans-82"/>
       <path d="M 56.203125 29.59375 
L 56.203125 25.203125 
L 14.890625 25.203125 
Q 15.484375 15.921875 20.484375 11.0625 
Q 25.484375 6.203125 34.421875 6.203125 
Q 39.59375 6.203125 44.453125 7.46875 
Q 49.3125 8.734375 54.109375 11.28125 
L 54.109375 2.78125 
Q 49.265625 0.734375 44.1875 -0.34375 
Q 39.109375 -1.421875 33.890625 -1.421875 
Q 20.796875 -1.421875 13.15625 6.1875 
Q 5.515625 13.8125 5.515625 26.8125 
Q 5.515625 40.234375 12.765625 48.109375 
Q 20.015625 56 32.328125 56 
Q 43.359375 56 49.78125 48.890625 
Q 56.203125 41.796875 56.203125 29.59375 
z
M 47.21875 32.234375 
Q 47.125 39.59375 43.09375 43.984375 
Q 39.0625 48.390625 32.421875 48.390625 
Q 24.90625 48.390625 20.390625 44.140625 
Q 15.875 39.890625 15.1875 32.171875 
z
" id="DejaVuSans-101"/>
       <path d="M 48.78125 52.59375 
L 48.78125 44.1875 
Q 44.96875 46.296875 41.140625 47.34375 
Q 37.3125 48.390625 33.40625 48.390625 
Q 24.65625 48.390625 19.8125 42.84375 
Q 14.984375 37.3125 14.984375 27.296875 
Q 14.984375 17.28125 19.8125 11.734375 
Q 24.65625 6.203125 33.40625 6.203125 
Q 37.3125 6.203125 41.140625 7.25 
Q 44.96875 8.296875 48.78125 10.40625 
L 48.78125 2.09375 
Q 45.015625 0.34375 40.984375 -0.53125 
Q 36.96875 -1.421875 32.421875 -1.421875 
Q 20.0625 -1.421875 12.78125 6.34375 
Q 5.515625 14.109375 5.515625 27.296875 
Q 5.515625 40.671875 12.859375 48.328125 
Q 20.21875 56 33.015625 56 
Q 37.15625 56 41.109375 55.140625 
Q 45.0625 54.296875 48.78125 52.59375 
z
" id="DejaVuSans-99"/>
       <path d="M 34.28125 27.484375 
Q 23.390625 27.484375 19.1875 25 
Q 14.984375 22.515625 14.984375 16.5 
Q 14.984375 11.71875 18.140625 8.90625 
Q 21.296875 6.109375 26.703125 6.109375 
Q 34.1875 6.109375 38.703125 11.40625 
Q 43.21875 16.703125 43.21875 25.484375 
L 43.21875 27.484375 
z
M 52.203125 31.203125 
L 52.203125 0 
L 43.21875 0 
L 43.21875 8.296875 
Q 40.140625 3.328125 35.546875 0.953125 
Q 30.953125 -1.421875 24.3125 -1.421875 
Q 15.921875 -1.421875 10.953125 3.296875 
Q 6 8.015625 6 15.921875 
Q 6 25.140625 12.171875 29.828125 
Q 18.359375 34.515625 30.609375 34.515625 
L 43.21875 34.515625 
L 43.21875 35.40625 
Q 43.21875 41.609375 39.140625 45 
Q 35.0625 48.390625 27.6875 48.390625 
Q 23 48.390625 18.546875 47.265625 
Q 14.109375 46.140625 10.015625 43.890625 
L 10.015625 52.203125 
Q 14.9375 54.109375 19.578125 55.046875 
Q 24.21875 56 28.609375 56 
Q 40.484375 56 46.34375 49.84375 
Q 52.203125 43.703125 52.203125 31.203125 
z
" id="DejaVuSans-97"/>
       <path d="M 9.421875 75.984375 
L 18.40625 75.984375 
L 18.40625 0 
L 9.421875 0 
z
" id="DejaVuSans-108"/>
      </defs>
      <use xlink:href="#DejaVuSans-82"/>
      <use x="64.982422" xlink:href="#DejaVuSans-101"/>
      <use x="126.505859" xlink:href="#DejaVuSans-99"/>
      <use x="181.486328" xlink:href="#DejaVuSans-97"/>
      <use x="242.765625" xlink:href="#DejaVuSans-108"/>
      <use x="270.548828" xlink:href="#DejaVuSans-108"/>
     </g>
    </g>
   </g>
   <g id="matplotlib.axis_2">
    <g id="ytick_1">
     <g id="line2d_7">
      <defs>
       <path d="M 0 0 
L -3.5 0 
" id="maf1047e57b" style="stroke:#000000;stroke-width:0.8;"/>
      </defs>
      <g>
       <use style="stroke:#000000;stroke-width:0.8;" x="57.6" xlink:href="#maf1047e57b" y="307.584"/>
      </g>
     </g>
     <g id="text_8">
      <!-- 0.0 -->
      <g transform="translate(34.696875 311.383219)scale(0.1 -0.1)">
       <use xlink:href="#DejaVuSans-48"/>
       <use x="63.623047" xlink:href="#DejaVuSans-46"/>
       <use x="95.410156" xlink:href="#DejaVuSans-48"/>
      </g>
     </g>
    </g>
    <g id="ytick_2">
     <g id="line2d_8">
      <g>
       <use style="stroke:#000000;stroke-width:0.8;" x="57.6" xlink:href="#maf1047e57b" y="256.896"/>
      </g>
     </g>
     <g id="text_9">
      <!-- 0.2 -->
      <g transform="translate(34.696875 260.695219)scale(0.1 -0.1)">
       <use xlink:href="#DejaVuSans-48"/>
       <use x="63.623047" xlink:href="#DejaVuSans-46"/>
       <use x="95.410156" xlink:href="#DejaVuSans-50"/>
      </g>
     </g>
    </g>
    <g id="ytick_3">
     <g id="line2d_9">
      <g>
       <use style="stroke:#000000;stroke-width:0.8;" x="57.6" xlink:href="#maf1047e57b" y="206.208"/>
      </g>
     </g>
     <g id="text_10">
      <!-- 0.4 -->
      <g transform="translate(34.696875 210.007219)scale(0.1 -0.1)">
       <use xlink:href="#DejaVuSans-48"/>
       <use x="63.623047" xlink:href="#DejaVuSans-46"/>
       <use x="95.410156" xlink:href="#DejaVuSans-52"/>
      </g>
     </g>
    </g>
    <g id="ytick_4">
     <g id="line2d_10">
      <g>
       <use style="stroke:#000000;stroke-width:0.8;" x="57.6" xlink:href="#maf1047e57b" y="155.52"/>
      </g>
     </g>
     <g id="text_11">
      <!-- 0.6 -->
      <g transform="translate(34.696875 159.319219)scale(0.1 -0.1)">
       <use xlink:href="#DejaVuSans-48"/>
       <use x="63.623047" xlink:href="#DejaVuSans-46"/>
       <use x="95.410156" xlink:href="#DejaVuSans-54"/>
      </g>
     </g>
    </g>
    <g id="ytick_5">
     <g id="line2d_11">
      <g>
       <use style="stroke:#000000;stroke-width:0.8;" x="57.6" xlink:href="#maf1047e57b" y="104.832"/>
      </g>
     </g>
     <g id="text_12">
      <!-- 0.8 -->
      <g transform="translate(34.696875 108.631219)scale(0.1 -0.1)">
       <use xlink:href="#DejaVuSans-48"/>
       <use x="63.623047" xlink:href="#DejaVuSans-46"/>
       <use x="95.410156" xlink:href="#DejaVuSans-56"/>
      </g>
     </g>
    </g>
    <g id="ytick_6">
     <g id="line2d_12">
      <g>
       <use style="stroke:#000000;stroke-width:0.8;" x="57.6" xlink:href="#maf1047e57b" y="54.144"/>
      </g>
     </g>
     <g id="text_13">
      <!-- 1.0 -->
      <g transform="translate(34.696875 57.943219)scale(0.1 -0.1)">
       <use xlink:href="#DejaVuSans-49"/>
       <use x="63.623047" xlink:href="#DejaVuSans-46"/>
       <use x="95.410156" xlink:href="#DejaVuSans-48"/>
      </g>
     </g>
    </g>
    <g id="text_14">
     <!-- Precision -->
     <g transform="translate(28.617187 196.835031)rotate(-90)scale(0.1 -0.1)">
      <defs>
       <path d="M 19.671875 64.796875 
L 19.671875 37.40625 
L 32.078125 37.40625 
Q 38.96875 37.40625 42.71875 40.96875 
Q 46.484375 44.53125 46.484375 51.125 
Q 46.484375 57.671875 42.71875 61.234375 
Q 38.96875 64.796875 32.078125 64.796875 
z
M 9.8125 72.90625 
L 32.078125 72.90625 
Q 44.34375 72.90625 50.609375 67.359375 
Q 56.890625 61.8125 56.890625 51.125 
Q 56.890625 40.328125 50.609375 34.8125 
Q 44.34375 29.296875 32.078125 29.296875 
L 19.671875 29.296875 
L 19.671875 0 
L 9.8125 0 
z
" id="DejaVuSans-80"/>
       <path d="M 41.109375 46.296875 
Q 39.59375 47.171875 37.8125 47.578125 
Q 36.03125 48 33.890625 48 
Q 26.265625 48 22.1875 43.046875 
Q 18.109375 38.09375 18.109375 28.8125 
L 18.109375 0 
L 9.078125 0 
L 9.078125 54.6875 
L 18.109375 54.6875 
L 18.109375 46.1875 
Q 20.953125 51.171875 25.484375 53.578125 
Q 30.03125 56 36.53125 56 
Q 37.453125 56 38.578125 55.875 
Q 39.703125 55.765625 41.0625 55.515625 
z
" id="DejaVuSans-114"/>
       <path d="M 9.421875 54.6875 
L 18.40625 54.6875 
L 18.40625 0 
L 9.421875 0 
z
M 9.421875 75.984375 
L 18.40625 75.984375 
L 18.40625 64.59375 
L 9.421875 64.59375 
z
" id="DejaVuSans-105"/>
       <path d="M 44.28125 53.078125 
L 44.28125 44.578125 
Q 40.484375 46.53125 36.375 47.5 
Q 32.28125 48.484375 27.875 48.484375 
Q 21.1875 48.484375 17.84375 46.4375 
Q 14.5 44.390625 14.5 40.28125 
Q 14.5 37.15625 16.890625 35.375 
Q 19.28125 33.59375 26.515625 31.984375 
L 29.59375 31.296875 
Q 39.15625 29.25 43.1875 25.515625 
Q 47.21875 21.78125 47.21875 15.09375 
Q 47.21875 7.46875 41.1875 3.015625 
Q 35.15625 -1.421875 24.609375 -1.421875 
Q 20.21875 -1.421875 15.453125 -0.5625 
Q 10.6875 0.296875 5.421875 2 
L 5.421875 11.28125 
Q 10.40625 8.6875 15.234375 7.390625 
Q 20.0625 6.109375 24.8125 6.109375 
Q 31.15625 6.109375 34.5625 8.28125 
Q 37.984375 10.453125 37.984375 14.40625 
Q 37.984375 18.0625 35.515625 20.015625 
Q 33.0625 21.96875 24.703125 23.78125 
L 21.578125 24.515625 
Q 13.234375 26.265625 9.515625 29.90625 
Q 5.8125 33.546875 5.8125 39.890625 
Q 5.8125 47.609375 11.28125 51.796875 
Q 16.75 56 26.8125 56 
Q 31.78125 56 36.171875 55.265625 
Q 40.578125 54.546875 44.28125 53.078125 
z
" id="DejaVuSans-115"/>
       <path d="M 30.609375 48.390625 
Q 23.390625 48.390625 19.1875 42.75 
Q 14.984375 37.109375 14.984375 27.296875 
Q 14.984375 17.484375 19.15625 11.84375 
Q 23.34375 6.203125 30.609375 6.203125 
Q 37.796875 6.203125 41.984375 11.859375 
Q 46.1875 17.53125 46.1875 27.296875 
Q 46.1875 37.015625 41.984375 42.703125 
Q 37.796875 48.390625 30.609375 48.390625 
z
M 30.609375 56 
Q 42.328125 56 49.015625 48.375 
Q 55.71875 40.765625 55.71875 27.296875 
Q 55.71875 13.875 49.015625 6.21875 
Q 42.328125 -1.421875 30.609375 -1.421875 
Q 18.84375 -1.421875 12.171875 6.21875 
Q 5.515625 13.875 5.515625 27.296875 
Q 5.515625 40.765625 12.171875 48.375 
Q 18.84375 56 30.609375 56 
z
" id="DejaVuSans-111"/>
       <path d="M 54.890625 33.015625 
L 54.890625 0 
L 45.90625 0 
L 45.90625 32.71875 
Q 45.90625 40.484375 42.875 44.328125 
Q 39.84375 48.1875 33.796875 48.1875 
Q 26.515625 48.1875 22.3125 43.546875 
Q 18.109375 38.921875 18.109375 30.90625 
L 18.109375 0 
L 9.078125 0 
L 9.078125 54.6875 
L 18.109375 54.6875 
L 18.109375 46.1875 
Q 21.34375 51.125 25.703125 53.5625 
Q 30.078125 56 35.796875 56 
Q 45.21875 56 50.046875 50.171875 
Q 54.890625 44.34375 54.890625 33.015625 
z
" id="DejaVuSans-110"/>
      </defs>
      <use xlink:href="#DejaVuSans-80"/>
      <use x="58.552734" xlink:href="#DejaVuSans-114"/>
      <use x="97.416016" xlink:href="#DejaVuSans-101"/>
      <use x="158.939453" xlink:href="#DejaVuSans-99"/>
      <use x="213.919922" xlink:href="#DejaVuSans-105"/>
      <use x="241.703125" xlink:href="#DejaVuSans-115"/>
      <use x="293.802734" xlink:href="#DejaVuSans-105"/>
      <use x="321.585938" xlink:href="#DejaVuSans-111"/>
      <use x="382.767578" xlink:href="#DejaVuSans-110"/>
     </g>
    </g>
   </g>
   <g id="line2d_13">
    <path clip-path="url(#p53c0a7ad0d)" d="M 414.72 67.03078 
L 408.342857 67.252966 
L 408.342857 63.036632 
L 408.342857 58.669714 
L 408.342857 54.144 
L 401.965714 54.144 
L 395.588571 54.144 
L 389.211429 54.144 
L 382.834286 54.144 
L 376.457143 54.144 
L 370.08 54.144 
L 363.702857 54.144 
L 357.325714 54.144 
L 350.948571 54.144 
L 344.571429 54.144 
L 338.194286 54.144 
L 331.817143 54.144 
L 325.44 54.144 
L 319.062857 54.144 
L 312.685714 54.144 
L 306.308571 54.144 
L 299.931429 54.144 
L 293.554286 54.144 
L 287.177143 54.144 
L 280.8 54.144 
L 274.422857 54.144 
L 268.045714 54.144 
L 261.668571 54.144 
L 255.291429 54.144 
L 248.914286 54.144 
L 242.537143 54.144 
L 236.16 54.144 
L 229.782857 54.144 
L 223.405714 54.144 
L 217.028571 54.144 
L 210.651429 54.144 
L 204.274286 54.144 
L 197.897143 54.144 
L 191.52 54.144 
L 185.142857 54.144 
L 178.765714 54.144 
L 172.388571 54.144 
L 166.011429 54.144 
L 159.634286 54.144 
L 153.257143 54.144 
L 146.88 54.144 
L 140.502857 54.144 
L 134.125714 54.144 
L 127.748571 54.144 
L 121.371429 54.144 
L 114.994286 54.144 
L 108.617143 54.144 
L 102.24 54.144 
L 95.862857 54.144 
L 89.485714 54.144 
L 83.108571 54.144 
L 76.731429 54.144 
L 70.354286 54.144 
L 63.977143 54.144 
L 57.6 54.144 
" style="fill:none;stroke:#9dd11f;stroke-linecap:square;stroke-width:2;"/>
   </g>
   <g id="line2d_14">
    <path clip-path="url(#p53c0a7ad0d)" d="M 414.72 265.344 
L 57.6 307.584 
L 57.6 307.584 
L 57.6 307.584 
L 57.6 307.584 
L 57.6 307.584 
L 57.6 54.144 
" style="fill:none;stroke:#23a568;stroke-linecap:square;stroke-width:2;"/>
   </g>
   <g id="line2d_15">
    <path clip-path="url(#p53c0a7ad0d)" d="M 414.72 54.144 
L 343.296 54.144 
L 271.872 54.144 
L 200.448 54.144 
L 129.024 54.144 
L 57.6 54.144 
" style="fill:none;stroke:#f67b58;stroke-linecap:square;stroke-width:2;"/>
   </g>
   <g id="line2d_16">
    <path clip-path="url(#p53c0a7ad0d)" d="M 414.72 54.144 
L 401.493333 54.144 
L 388.266667 54.144 
L 375.04 54.144 
L 361.813333 54.144 
L 348.586667 54.144 
L 335.36 54.144 
L 322.133333 54.144 
L 308.906667 54.144 
L 295.68 54.144 
L 282.453333 54.144 
L 269.226667 54.144 
L 256 54.144 
L 242.773333 54.144 
L 229.546667 54.144 
L 216.32 54.144 
L 203.093333 54.144 
L 189.866667 54.144 
L 176.64 54.144 
L 163.413333 54.144 
L 150.186667 54.144 
L 136.96 54.144 
L 123.733333 54.144 
L 110.506667 54.144 
L 97.28 54.144 
L 84.053333 54.144 
L 70.826667 54.144 
L 57.6 54.144 
" style="fill:none;stroke:#ac8d07;stroke-linecap:square;stroke-width:2;"/>
   </g>
   <g id="line2d_17">
    <path clip-path="url(#p53c0a7ad0d)" d="M 414.72 106.744755 
L 406.217143 107.756308 
L 406.217143 103.838118 
L 406.217143 99.7632 
L 406.217143 95.521959 
L 406.217143 91.104 
L 406.217143 86.498043 
L 406.217143 81.691826 
L 406.217143 76.672 
L 406.217143 71.424 
L 406.217143 65.931907 
L 406.217143 60.178286 
L 406.217143 54.144 
L 397.714286 54.144 
L 389.211429 54.144 
L 380.708571 54.144 
L 372.205714 54.144 
L 363.702857 54.144 
L 355.2 54.144 
L 346.697143 54.144 
L 338.194286 54.144 
L 329.691429 54.144 
L 321.188571 54.144 
L 312.685714 54.144 
L 304.182857 54.144 
L 295.68 54.144 
L 287.177143 54.144 
L 278.674286 54.144 
L 270.171429 54.144 
L 261.668571 54.144 
L 253.165714 54.144 
L 244.662857 54.144 
L 236.16 54.144 
L 227.657143 54.144 
L 219.154286 54.144 
L 210.651429 54.144 
L 202.148571 54.144 
L 193.645714 54.144 
L 185.142857 54.144 
L 176.64 54.144 
L 168.137143 54.144 
L 159.634286 54.144 
L 151.131429 54.144 
L 142.628571 54.144 
L 134.125714 54.144 
L 125.622857 54.144 
L 117.12 54.144 
L 108.617143 54.144 
L 100.114286 54.144 
L 91.611429 54.144 
L 83.108571 54.144 
L 74.605714 54.144 
L 66.102857 54.144 
L 57.6 54.144 
" style="fill:none;stroke:#c00979;stroke-linecap:square;stroke-width:2;"/>
   </g>
   <g id="line2d_18">
    <path clip-path="url(#p53c0a7ad0d)" d="M 414.72 251.970207 
L 409.618286 252.592302 
L 409.618286 91.690667 
L 404.516571 92.16 
L 404.516571 64.852732 
L 394.313143 65.16313 
L 394.313143 61.598118 
L 389.211429 61.709373 
L 389.211429 57.984 
L 384.109714 58.043077 
L 384.109714 54.144 
L 57.6 54.144 
L 57.6 54.144 
" style="fill:none;stroke:#7b02d7;stroke-linecap:square;stroke-width:2;"/>
   </g>
   <g id="line2d_19">
    <path clip-path="url(#p53c0a7ad0d)" d="M 414.72 292.067265 
L 295.68 297.024 
L 295.68 296.799319 
L 295.68 296.56487 
L 295.68 296.32 
L 295.68 296.064 
L 295.68 295.796093 
L 295.68 295.515429 
L 295.68 295.221073 
L 295.68 294.912 
L 295.68 294.587077 
L 295.68 294.245053 
L 295.68 293.884541 
L 295.68 293.504 
L 295.68 293.101714 
L 295.68 292.675765 
L 295.68 292.224 
L 295.68 291.744 
L 295.68 291.233032 
L 295.68 290.688 
L 295.68 290.105379 
L 295.68 289.481143 
L 295.68 288.810667 
L 295.68 288.088615 
L 295.68 287.3088 
L 295.68 286.464 
L 295.68 285.545739 
L 295.68 284.544 
L 295.68 283.446857 
L 295.68 282.24 
L 295.68 280.906105 
L 295.68 279.424 
L 295.68 277.767529 
L 295.68 275.904 
L 295.68 273.792 
L 295.68 271.378286 
L 295.68 268.593231 
L 295.68 265.344 
L 295.68 261.504 
L 295.68 256.896 
L 295.68 251.264 
L 295.68 244.224 
L 295.68 235.172571 
L 295.68 223.104 
L 295.68 206.208 
L 295.68 180.864 
L 295.68 138.624 
L 295.68 54.144 
L 176.64 54.144 
L 57.6 54.144 
" style="fill:none;stroke:#f884d2;stroke-linecap:square;stroke-width:2;"/>
   </g>
   <g id="line2d_20">
    <path clip-path="url(#p53c0a7ad0d)" d="M 414.72 56.977491 
L 413.822714 56.984548 
L 413.822714 56.67208 
L 413.37407 56.675236 
L 413.37407 55.73197 
L 408.438995 55.754165 
L 408.438995 55.433771 
L 407.990352 55.435414 
L 407.990352 55.113796 
L 403.055276 55.127596 
L 403.055276 54.80058 
L 358.639598 54.897165 
L 358.639598 54.521143 
L 280.575678 54.652916 
L 280.575678 54.144 
L 57.6 54.144 
L 57.6 54.144 
" style="fill:none;stroke:#e334ae;stroke-linecap:square;stroke-width:2;"/>
   </g>
   <g id="line2d_21">
    <path clip-path="url(#p53c0a7ad0d)" d="M 414.72 172.91875 
L 414.36288 172.981895 
L 414.36288 172.910298 
L 414.36288 142.534091 
L 414.00576 142.59175 
L 414.00576 142.484052 
L 414.00576 87.066895 
L 413.64864 87.095623 
L 413.64864 79.533747 
L 413.29152 79.556683 
L 413.29152 69.670484 
L 412.9344 69.685132 
L 412.9344 68.784 
L 412.57728 68.797877 
L 412.57728 62.048561 
L 411.86304 62.064 
L 411.86304 60.374088 
L 411.50592 60.38022 
L 411.50592 57.425594 
L 411.1488 57.428865 
L 411.1488 56.6784 
L 410.79168 56.680937 
L 410.79168 56.429531 
L 405.792 56.462049 
L 405.792 56.206584 
L 402.93504 56.223508 
L 402.93504 55.447704 
L 391.5072 55.492085 
L 391.5072 55.223617 
L 390.79296 55.225921 
L 390.79296 54.956308 
L 377.93664 54.9888 
L 377.93664 54.707826 
L 325.44 54.818043 
L 325.44 54.48147 
L 248.30208 54.61772 
L 248.30208 54.144 
L 57.6 54.144 
L 57.6 54.144 
" style="fill:none;stroke:#ff1493;stroke-dasharray:4,6.6;stroke-dashoffset:0;stroke-width:4;"/>
   </g>
   <g id="line2d_22">
    <path clip-path="url(#p53c0a7ad0d)" d="M 57.6 307.584 
L 414.72 54.144 
" style="fill:none;stroke:#000000;stroke-dasharray:7.4,3.2;stroke-dashoffset:0;stroke-width:2;"/>
   </g>
   <g id="line2d_23">
    <path clip-path="url(#p53c0a7ad0d)" d="M 57.6 307.584 
L 414.72 54.144 
" style="fill:none;stroke:#000000;stroke-dasharray:7.4,3.2;stroke-dashoffset:0;stroke-width:2;"/>
   </g>
   <g id="patch_3">
    <path d="M 57.6 307.584 
L 57.6 41.472 
" style="fill:none;stroke:#000000;stroke-linecap:square;stroke-linejoin:miter;stroke-width:0.8;"/>
   </g>
   <g id="patch_4">
    <path d="M 414.72 307.584 
L 414.72 41.472 
" style="fill:none;stroke:#000000;stroke-linecap:square;stroke-linejoin:miter;stroke-width:0.8;"/>
   </g>
   <g id="patch_5">
    <path d="M 57.6 307.584 
L 414.72 307.584 
" style="fill:none;stroke:#000000;stroke-linecap:square;stroke-linejoin:miter;stroke-width:0.8;"/>
   </g>
   <g id="patch_6">
    <path d="M 57.6 41.472 
L 414.72 41.472 
" style="fill:none;stroke:#000000;stroke-linecap:square;stroke-linejoin:miter;stroke-width:0.8;"/>
   </g>
   <g id="text_15">
    <!-- PR Curves -->
    <g transform="translate(205.63875 35.472)scale(0.12 -0.12)">
     <defs>
      <path id="DejaVuSans-32"/>
      <path d="M 64.40625 67.28125 
L 64.40625 56.890625 
Q 59.421875 61.53125 53.78125 63.8125 
Q 48.140625 66.109375 41.796875 66.109375 
Q 29.296875 66.109375 22.65625 58.46875 
Q 16.015625 50.828125 16.015625 36.375 
Q 16.015625 21.96875 22.65625 14.328125 
Q 29.296875 6.6875 41.796875 6.6875 
Q 48.140625 6.6875 53.78125 8.984375 
Q 59.421875 11.28125 64.40625 15.921875 
L 64.40625 5.609375 
Q 59.234375 2.09375 53.4375 0.328125 
Q 47.65625 -1.421875 41.21875 -1.421875 
Q 24.65625 -1.421875 15.125 8.703125 
Q 5.609375 18.84375 5.609375 36.375 
Q 5.609375 53.953125 15.125 64.078125 
Q 24.65625 74.21875 41.21875 74.21875 
Q 47.75 74.21875 53.53125 72.484375 
Q 59.328125 70.75 64.40625 67.28125 
z
" id="DejaVuSans-67"/>
      <path d="M 8.5 21.578125 
L 8.5 54.6875 
L 17.484375 54.6875 
L 17.484375 21.921875 
Q 17.484375 14.15625 20.5 10.265625 
Q 23.53125 6.390625 29.59375 6.390625 
Q 36.859375 6.390625 41.078125 11.03125 
Q 45.3125 15.671875 45.3125 23.6875 
L 45.3125 54.6875 
L 54.296875 54.6875 
L 54.296875 0 
L 45.3125 0 
L 45.3125 8.40625 
Q 42.046875 3.421875 37.71875 1 
Q 33.40625 -1.421875 27.6875 -1.421875 
Q 18.265625 -1.421875 13.375 4.4375 
Q 8.5 10.296875 8.5 21.578125 
z
M 31.109375 56 
z
" id="DejaVuSans-117"/>
      <path d="M 2.984375 54.6875 
L 12.5 54.6875 
L 29.59375 8.796875 
L 46.6875 54.6875 
L 56.203125 54.6875 
L 35.6875 0 
L 23.484375 0 
z
" id="DejaVuSans-118"/>
     </defs>
     <use xlink:href="#DejaVuSans-80"/>
     <use x="60.302734" xlink:href="#DejaVuSans-82"/>
     <use x="129.785156" xlink:href="#DejaVuSans-32"/>
     <use x="161.572266" xlink:href="#DejaVuSans-67"/>
     <use x="231.396484" xlink:href="#DejaVuSans-117"/>
     <use x="294.775391" xlink:href="#DejaVuSans-114"/>
     <use x="335.888672" xlink:href="#DejaVuSans-118"/>
     <use x="395.068359" xlink:href="#DejaVuSans-101"/>
     <use x="456.591797" xlink:href="#DejaVuSans-115"/>
    </g>
   </g>
   <g id="legend_1">
    <g id="patch_7">
     <path d="M 64.6 302.584 
L 286.989063 302.584 
Q 288.989063 302.584 288.989063 300.584 
L 288.989063 169.480875 
Q 288.989063 167.480875 286.989063 167.480875 
L 64.6 167.480875 
Q 62.6 167.480875 62.6 169.480875 
L 62.6 300.584 
Q 62.6 302.584 64.6 302.584 
z
" style="fill:#ffffff;opacity:0.8;stroke:#cccccc;stroke-linejoin:miter;"/>
    </g>
    <g id="line2d_24">
     <path d="M 66.6 175.579313 
L 86.6 175.579313 
" style="fill:none;stroke:#9dd11f;stroke-linecap:square;stroke-width:2;"/>
    </g>
    <g id="line2d_25"/>
    <g id="text_16">
     <!-- PR curve of class 0 (area = 1.00) -->
     <g transform="translate(94.6 179.079313)scale(0.1 -0.1)">
      <defs>
       <path d="M 37.109375 75.984375 
L 37.109375 68.5 
L 28.515625 68.5 
Q 23.6875 68.5 21.796875 66.546875 
Q 19.921875 64.59375 19.921875 59.515625 
L 19.921875 54.6875 
L 34.71875 54.6875 
L 34.71875 47.703125 
L 19.921875 47.703125 
L 19.921875 0 
L 10.890625 0 
L 10.890625 47.703125 
L 2.296875 47.703125 
L 2.296875 54.6875 
L 10.890625 54.6875 
L 10.890625 58.5 
Q 10.890625 67.625 15.140625 71.796875 
Q 19.390625 75.984375 28.609375 75.984375 
z
" id="DejaVuSans-102"/>
       <path d="M 31 75.875 
Q 24.46875 64.65625 21.28125 53.65625 
Q 18.109375 42.671875 18.109375 31.390625 
Q 18.109375 20.125 21.3125 9.0625 
Q 24.515625 -2 31 -13.1875 
L 23.1875 -13.1875 
Q 15.875 -1.703125 12.234375 9.375 
Q 8.59375 20.453125 8.59375 31.390625 
Q 8.59375 42.28125 12.203125 53.3125 
Q 15.828125 64.359375 23.1875 75.875 
z
" id="DejaVuSans-40"/>
       <path d="M 10.59375 45.40625 
L 73.1875 45.40625 
L 73.1875 37.203125 
L 10.59375 37.203125 
z
M 10.59375 25.484375 
L 73.1875 25.484375 
L 73.1875 17.1875 
L 10.59375 17.1875 
z
" id="DejaVuSans-61"/>
       <path d="M 8.015625 75.875 
L 15.828125 75.875 
Q 23.140625 64.359375 26.78125 53.3125 
Q 30.421875 42.28125 30.421875 31.390625 
Q 30.421875 20.453125 26.78125 9.375 
Q 23.140625 -1.703125 15.828125 -13.1875 
L 8.015625 -13.1875 
Q 14.5 -2 17.703125 9.0625 
Q 20.90625 20.125 20.90625 31.390625 
Q 20.90625 42.671875 17.703125 53.65625 
Q 14.5 64.65625 8.015625 75.875 
z
" id="DejaVuSans-41"/>
      </defs>
      <use xlink:href="#DejaVuSans-80"/>
      <use x="60.302734" xlink:href="#DejaVuSans-82"/>
      <use x="129.785156" xlink:href="#DejaVuSans-32"/>
      <use x="161.572266" xlink:href="#DejaVuSans-99"/>
      <use x="216.552734" xlink:href="#DejaVuSans-117"/>
      <use x="279.931641" xlink:href="#DejaVuSans-114"/>
      <use x="321.044922" xlink:href="#DejaVuSans-118"/>
      <use x="380.224609" xlink:href="#DejaVuSans-101"/>
      <use x="441.748047" xlink:href="#DejaVuSans-32"/>
      <use x="473.535156" xlink:href="#DejaVuSans-111"/>
      <use x="534.716797" xlink:href="#DejaVuSans-102"/>
      <use x="569.921875" xlink:href="#DejaVuSans-32"/>
      <use x="601.708984" xlink:href="#DejaVuSans-99"/>
      <use x="656.689453" xlink:href="#DejaVuSans-108"/>
      <use x="684.472656" xlink:href="#DejaVuSans-97"/>
      <use x="745.751953" xlink:href="#DejaVuSans-115"/>
      <use x="797.851562" xlink:href="#DejaVuSans-115"/>
      <use x="849.951172" xlink:href="#DejaVuSans-32"/>
      <use x="881.738281" xlink:href="#DejaVuSans-48"/>
      <use x="945.361328" xlink:href="#DejaVuSans-32"/>
      <use x="977.148438" xlink:href="#DejaVuSans-40"/>
      <use x="1016.162109" xlink:href="#DejaVuSans-97"/>
      <use x="1077.441406" xlink:href="#DejaVuSans-114"/>
      <use x="1116.304688" xlink:href="#DejaVuSans-101"/>
      <use x="1177.828125" xlink:href="#DejaVuSans-97"/>
      <use x="1239.107422" xlink:href="#DejaVuSans-32"/>
      <use x="1270.894531" xlink:href="#DejaVuSans-61"/>
      <use x="1354.683594" xlink:href="#DejaVuSans-32"/>
      <use x="1386.470703" xlink:href="#DejaVuSans-49"/>
      <use x="1450.09375" xlink:href="#DejaVuSans-46"/>
      <use x="1481.880859" xlink:href="#DejaVuSans-48"/>
      <use x="1545.503906" xlink:href="#DejaVuSans-48"/>
      <use x="1609.126953" xlink:href="#DejaVuSans-41"/>
     </g>
    </g>
    <g id="line2d_26">
     <path d="M 66.6 190.257438 
L 86.6 190.257438 
" style="fill:none;stroke:#23a568;stroke-linecap:square;stroke-width:2;"/>
    </g>
    <g id="line2d_27"/>
    <g id="text_17">
     <!-- PR curve of class 1 (area = 0.17) -->
     <g transform="translate(94.6 193.757438)scale(0.1 -0.1)">
      <defs>
       <path d="M 8.203125 72.90625 
L 55.078125 72.90625 
L 55.078125 68.703125 
L 28.609375 0 
L 18.3125 0 
L 43.21875 64.59375 
L 8.203125 64.59375 
z
" id="DejaVuSans-55"/>
      </defs>
      <use xlink:href="#DejaVuSans-80"/>
      <use x="60.302734" xlink:href="#DejaVuSans-82"/>
      <use x="129.785156" xlink:href="#DejaVuSans-32"/>
      <use x="161.572266" xlink:href="#DejaVuSans-99"/>
      <use x="216.552734" xlink:href="#DejaVuSans-117"/>
      <use x="279.931641" xlink:href="#DejaVuSans-114"/>
      <use x="321.044922" xlink:href="#DejaVuSans-118"/>
      <use x="380.224609" xlink:href="#DejaVuSans-101"/>
      <use x="441.748047" xlink:href="#DejaVuSans-32"/>
      <use x="473.535156" xlink:href="#DejaVuSans-111"/>
      <use x="534.716797" xlink:href="#DejaVuSans-102"/>
      <use x="569.921875" xlink:href="#DejaVuSans-32"/>
      <use x="601.708984" xlink:href="#DejaVuSans-99"/>
      <use x="656.689453" xlink:href="#DejaVuSans-108"/>
      <use x="684.472656" xlink:href="#DejaVuSans-97"/>
      <use x="745.751953" xlink:href="#DejaVuSans-115"/>
      <use x="797.851562" xlink:href="#DejaVuSans-115"/>
      <use x="849.951172" xlink:href="#DejaVuSans-32"/>
      <use x="881.738281" xlink:href="#DejaVuSans-49"/>
      <use x="945.361328" xlink:href="#DejaVuSans-32"/>
      <use x="977.148438" xlink:href="#DejaVuSans-40"/>
      <use x="1016.162109" xlink:href="#DejaVuSans-97"/>
      <use x="1077.441406" xlink:href="#DejaVuSans-114"/>
      <use x="1116.304688" xlink:href="#DejaVuSans-101"/>
      <use x="1177.828125" xlink:href="#DejaVuSans-97"/>
      <use x="1239.107422" xlink:href="#DejaVuSans-32"/>
      <use x="1270.894531" xlink:href="#DejaVuSans-61"/>
      <use x="1354.683594" xlink:href="#DejaVuSans-32"/>
      <use x="1386.470703" xlink:href="#DejaVuSans-48"/>
      <use x="1450.09375" xlink:href="#DejaVuSans-46"/>
      <use x="1481.880859" xlink:href="#DejaVuSans-49"/>
      <use x="1545.503906" xlink:href="#DejaVuSans-55"/>
      <use x="1609.126953" xlink:href="#DejaVuSans-41"/>
     </g>
    </g>
    <g id="line2d_28">
     <path d="M 66.6 204.935563 
L 86.6 204.935563 
" style="fill:none;stroke:#f67b58;stroke-linecap:square;stroke-width:2;"/>
    </g>
    <g id="line2d_29"/>
    <g id="text_18">
     <!-- PR curve of class 2 (area = 1.00) -->
     <g transform="translate(94.6 208.435563)scale(0.1 -0.1)">
      <use xlink:href="#DejaVuSans-80"/>
      <use x="60.302734" xlink:href="#DejaVuSans-82"/>
      <use x="129.785156" xlink:href="#DejaVuSans-32"/>
      <use x="161.572266" xlink:href="#DejaVuSans-99"/>
      <use x="216.552734" xlink:href="#DejaVuSans-117"/>
      <use x="279.931641" xlink:href="#DejaVuSans-114"/>
      <use x="321.044922" xlink:href="#DejaVuSans-118"/>
      <use x="380.224609" xlink:href="#DejaVuSans-101"/>
      <use x="441.748047" xlink:href="#DejaVuSans-32"/>
      <use x="473.535156" xlink:href="#DejaVuSans-111"/>
      <use x="534.716797" xlink:href="#DejaVuSans-102"/>
      <use x="569.921875" xlink:href="#DejaVuSans-32"/>
      <use x="601.708984" xlink:href="#DejaVuSans-99"/>
      <use x="656.689453" xlink:href="#DejaVuSans-108"/>
      <use x="684.472656" xlink:href="#DejaVuSans-97"/>
      <use x="745.751953" xlink:href="#DejaVuSans-115"/>
      <use x="797.851562" xlink:href="#DejaVuSans-115"/>
      <use x="849.951172" xlink:href="#DejaVuSans-32"/>
      <use x="881.738281" xlink:href="#DejaVuSans-50"/>
      <use x="945.361328" xlink:href="#DejaVuSans-32"/>
      <use x="977.148438" xlink:href="#DejaVuSans-40"/>
      <use x="1016.162109" xlink:href="#DejaVuSans-97"/>
      <use x="1077.441406" xlink:href="#DejaVuSans-114"/>
      <use x="1116.304688" xlink:href="#DejaVuSans-101"/>
      <use x="1177.828125" xlink:href="#DejaVuSans-97"/>
      <use x="1239.107422" xlink:href="#DejaVuSans-32"/>
      <use x="1270.894531" xlink:href="#DejaVuSans-61"/>
      <use x="1354.683594" xlink:href="#DejaVuSans-32"/>
      <use x="1386.470703" xlink:href="#DejaVuSans-49"/>
      <use x="1450.09375" xlink:href="#DejaVuSans-46"/>
      <use x="1481.880859" xlink:href="#DejaVuSans-48"/>
      <use x="1545.503906" xlink:href="#DejaVuSans-48"/>
      <use x="1609.126953" xlink:href="#DejaVuSans-41"/>
     </g>
    </g>
    <g id="line2d_30">
     <path d="M 66.6 219.613688 
L 86.6 219.613688 
" style="fill:none;stroke:#ac8d07;stroke-linecap:square;stroke-width:2;"/>
    </g>
    <g id="line2d_31"/>
    <g id="text_19">
     <!-- PR curve of class 3 (area = 1.00) -->
     <g transform="translate(94.6 223.113688)scale(0.1 -0.1)">
      <defs>
       <path d="M 40.578125 39.3125 
Q 47.65625 37.796875 51.625 33 
Q 55.609375 28.21875 55.609375 21.1875 
Q 55.609375 10.40625 48.1875 4.484375 
Q 40.765625 -1.421875 27.09375 -1.421875 
Q 22.515625 -1.421875 17.65625 -0.515625 
Q 12.796875 0.390625 7.625 2.203125 
L 7.625 11.71875 
Q 11.71875 9.328125 16.59375 8.109375 
Q 21.484375 6.890625 26.8125 6.890625 
Q 36.078125 6.890625 40.9375 10.546875 
Q 45.796875 14.203125 45.796875 21.1875 
Q 45.796875 27.640625 41.28125 31.265625 
Q 36.765625 34.90625 28.71875 34.90625 
L 20.21875 34.90625 
L 20.21875 43.015625 
L 29.109375 43.015625 
Q 36.375 43.015625 40.234375 45.921875 
Q 44.09375 48.828125 44.09375 54.296875 
Q 44.09375 59.90625 40.109375 62.90625 
Q 36.140625 65.921875 28.71875 65.921875 
Q 24.65625 65.921875 20.015625 65.03125 
Q 15.375 64.15625 9.8125 62.3125 
L 9.8125 71.09375 
Q 15.4375 72.65625 20.34375 73.4375 
Q 25.25 74.21875 29.59375 74.21875 
Q 40.828125 74.21875 47.359375 69.109375 
Q 53.90625 64.015625 53.90625 55.328125 
Q 53.90625 49.265625 50.4375 45.09375 
Q 46.96875 40.921875 40.578125 39.3125 
z
" id="DejaVuSans-51"/>
      </defs>
      <use xlink:href="#DejaVuSans-80"/>
      <use x="60.302734" xlink:href="#DejaVuSans-82"/>
      <use x="129.785156" xlink:href="#DejaVuSans-32"/>
      <use x="161.572266" xlink:href="#DejaVuSans-99"/>
      <use x="216.552734" xlink:href="#DejaVuSans-117"/>
      <use x="279.931641" xlink:href="#DejaVuSans-114"/>
      <use x="321.044922" xlink:href="#DejaVuSans-118"/>
      <use x="380.224609" xlink:href="#DejaVuSans-101"/>
      <use x="441.748047" xlink:href="#DejaVuSans-32"/>
      <use x="473.535156" xlink:href="#DejaVuSans-111"/>
      <use x="534.716797" xlink:href="#DejaVuSans-102"/>
      <use x="569.921875" xlink:href="#DejaVuSans-32"/>
      <use x="601.708984" xlink:href="#DejaVuSans-99"/>
      <use x="656.689453" xlink:href="#DejaVuSans-108"/>
      <use x="684.472656" xlink:href="#DejaVuSans-97"/>
      <use x="745.751953" xlink:href="#DejaVuSans-115"/>
      <use x="797.851562" xlink:href="#DejaVuSans-115"/>
      <use x="849.951172" xlink:href="#DejaVuSans-32"/>
      <use x="881.738281" xlink:href="#DejaVuSans-51"/>
      <use x="945.361328" xlink:href="#DejaVuSans-32"/>
      <use x="977.148438" xlink:href="#DejaVuSans-40"/>
      <use x="1016.162109" xlink:href="#DejaVuSans-97"/>
      <use x="1077.441406" xlink:href="#DejaVuSans-114"/>
      <use x="1116.304688" xlink:href="#DejaVuSans-101"/>
      <use x="1177.828125" xlink:href="#DejaVuSans-97"/>
      <use x="1239.107422" xlink:href="#DejaVuSans-32"/>
      <use x="1270.894531" xlink:href="#DejaVuSans-61"/>
      <use x="1354.683594" xlink:href="#DejaVuSans-32"/>
      <use x="1386.470703" xlink:href="#DejaVuSans-49"/>
      <use x="1450.09375" xlink:href="#DejaVuSans-46"/>
      <use x="1481.880859" xlink:href="#DejaVuSans-48"/>
      <use x="1545.503906" xlink:href="#DejaVuSans-48"/>
      <use x="1609.126953" xlink:href="#DejaVuSans-41"/>
     </g>
    </g>
    <g id="line2d_32">
     <path d="M 66.6 234.291813 
L 86.6 234.291813 
" style="fill:none;stroke:#c00979;stroke-linecap:square;stroke-width:2;"/>
    </g>
    <g id="line2d_33"/>
    <g id="text_20">
     <!-- PR curve of class 4 (area = 1.00) -->
     <g transform="translate(94.6 237.791813)scale(0.1 -0.1)">
      <use xlink:href="#DejaVuSans-80"/>
      <use x="60.302734" xlink:href="#DejaVuSans-82"/>
      <use x="129.785156" xlink:href="#DejaVuSans-32"/>
      <use x="161.572266" xlink:href="#DejaVuSans-99"/>
      <use x="216.552734" xlink:href="#DejaVuSans-117"/>
      <use x="279.931641" xlink:href="#DejaVuSans-114"/>
      <use x="321.044922" xlink:href="#DejaVuSans-118"/>
      <use x="380.224609" xlink:href="#DejaVuSans-101"/>
      <use x="441.748047" xlink:href="#DejaVuSans-32"/>
      <use x="473.535156" xlink:href="#DejaVuSans-111"/>
      <use x="534.716797" xlink:href="#DejaVuSans-102"/>
      <use x="569.921875" xlink:href="#DejaVuSans-32"/>
      <use x="601.708984" xlink:href="#DejaVuSans-99"/>
      <use x="656.689453" xlink:href="#DejaVuSans-108"/>
      <use x="684.472656" xlink:href="#DejaVuSans-97"/>
      <use x="745.751953" xlink:href="#DejaVuSans-115"/>
      <use x="797.851562" xlink:href="#DejaVuSans-115"/>
      <use x="849.951172" xlink:href="#DejaVuSans-32"/>
      <use x="881.738281" xlink:href="#DejaVuSans-52"/>
      <use x="945.361328" xlink:href="#DejaVuSans-32"/>
      <use x="977.148438" xlink:href="#DejaVuSans-40"/>
      <use x="1016.162109" xlink:href="#DejaVuSans-97"/>
      <use x="1077.441406" xlink:href="#DejaVuSans-114"/>
      <use x="1116.304688" xlink:href="#DejaVuSans-101"/>
      <use x="1177.828125" xlink:href="#DejaVuSans-97"/>
      <use x="1239.107422" xlink:href="#DejaVuSans-32"/>
      <use x="1270.894531" xlink:href="#DejaVuSans-61"/>
      <use x="1354.683594" xlink:href="#DejaVuSans-32"/>
      <use x="1386.470703" xlink:href="#DejaVuSans-49"/>
      <use x="1450.09375" xlink:href="#DejaVuSans-46"/>
      <use x="1481.880859" xlink:href="#DejaVuSans-48"/>
      <use x="1545.503906" xlink:href="#DejaVuSans-48"/>
      <use x="1609.126953" xlink:href="#DejaVuSans-41"/>
     </g>
    </g>
    <g id="line2d_34">
     <path d="M 66.6 248.969938 
L 86.6 248.969938 
" style="fill:none;stroke:#7b02d7;stroke-linecap:square;stroke-width:2;"/>
    </g>
    <g id="line2d_35"/>
    <g id="text_21">
     <!-- PR curve of class 5 (area = 0.98) -->
     <g transform="translate(94.6 252.469938)scale(0.1 -0.1)">
      <defs>
       <path d="M 10.796875 72.90625 
L 49.515625 72.90625 
L 49.515625 64.59375 
L 19.828125 64.59375 
L 19.828125 46.734375 
Q 21.96875 47.46875 24.109375 47.828125 
Q 26.265625 48.1875 28.421875 48.1875 
Q 40.625 48.1875 47.75 41.5 
Q 54.890625 34.8125 54.890625 23.390625 
Q 54.890625 11.625 47.5625 5.09375 
Q 40.234375 -1.421875 26.90625 -1.421875 
Q 22.3125 -1.421875 17.546875 -0.640625 
Q 12.796875 0.140625 7.71875 1.703125 
L 7.71875 11.625 
Q 12.109375 9.234375 16.796875 8.0625 
Q 21.484375 6.890625 26.703125 6.890625 
Q 35.15625 6.890625 40.078125 11.328125 
Q 45.015625 15.765625 45.015625 23.390625 
Q 45.015625 31 40.078125 35.4375 
Q 35.15625 39.890625 26.703125 39.890625 
Q 22.75 39.890625 18.8125 39.015625 
Q 14.890625 38.140625 10.796875 36.28125 
z
" id="DejaVuSans-53"/>
       <path d="M 10.984375 1.515625 
L 10.984375 10.5 
Q 14.703125 8.734375 18.5 7.8125 
Q 22.3125 6.890625 25.984375 6.890625 
Q 35.75 6.890625 40.890625 13.453125 
Q 46.046875 20.015625 46.78125 33.40625 
Q 43.953125 29.203125 39.59375 26.953125 
Q 35.25 24.703125 29.984375 24.703125 
Q 19.046875 24.703125 12.671875 31.3125 
Q 6.296875 37.9375 6.296875 49.421875 
Q 6.296875 60.640625 12.9375 67.421875 
Q 19.578125 74.21875 30.609375 74.21875 
Q 43.265625 74.21875 49.921875 64.515625 
Q 56.59375 54.828125 56.59375 36.375 
Q 56.59375 19.140625 48.40625 8.859375 
Q 40.234375 -1.421875 26.421875 -1.421875 
Q 22.703125 -1.421875 18.890625 -0.6875 
Q 15.09375 0.046875 10.984375 1.515625 
z
M 30.609375 32.421875 
Q 37.25 32.421875 41.125 36.953125 
Q 45.015625 41.5 45.015625 49.421875 
Q 45.015625 57.28125 41.125 61.84375 
Q 37.25 66.40625 30.609375 66.40625 
Q 23.96875 66.40625 20.09375 61.84375 
Q 16.21875 57.28125 16.21875 49.421875 
Q 16.21875 41.5 20.09375 36.953125 
Q 23.96875 32.421875 30.609375 32.421875 
z
" id="DejaVuSans-57"/>
      </defs>
      <use xlink:href="#DejaVuSans-80"/>
      <use x="60.302734" xlink:href="#DejaVuSans-82"/>
      <use x="129.785156" xlink:href="#DejaVuSans-32"/>
      <use x="161.572266" xlink:href="#DejaVuSans-99"/>
      <use x="216.552734" xlink:href="#DejaVuSans-117"/>
      <use x="279.931641" xlink:href="#DejaVuSans-114"/>
      <use x="321.044922" xlink:href="#DejaVuSans-118"/>
      <use x="380.224609" xlink:href="#DejaVuSans-101"/>
      <use x="441.748047" xlink:href="#DejaVuSans-32"/>
      <use x="473.535156" xlink:href="#DejaVuSans-111"/>
      <use x="534.716797" xlink:href="#DejaVuSans-102"/>
      <use x="569.921875" xlink:href="#DejaVuSans-32"/>
      <use x="601.708984" xlink:href="#DejaVuSans-99"/>
      <use x="656.689453" xlink:href="#DejaVuSans-108"/>
      <use x="684.472656" xlink:href="#DejaVuSans-97"/>
      <use x="745.751953" xlink:href="#DejaVuSans-115"/>
      <use x="797.851562" xlink:href="#DejaVuSans-115"/>
      <use x="849.951172" xlink:href="#DejaVuSans-32"/>
      <use x="881.738281" xlink:href="#DejaVuSans-53"/>
      <use x="945.361328" xlink:href="#DejaVuSans-32"/>
      <use x="977.148438" xlink:href="#DejaVuSans-40"/>
      <use x="1016.162109" xlink:href="#DejaVuSans-97"/>
      <use x="1077.441406" xlink:href="#DejaVuSans-114"/>
      <use x="1116.304688" xlink:href="#DejaVuSans-101"/>
      <use x="1177.828125" xlink:href="#DejaVuSans-97"/>
      <use x="1239.107422" xlink:href="#DejaVuSans-32"/>
      <use x="1270.894531" xlink:href="#DejaVuSans-61"/>
      <use x="1354.683594" xlink:href="#DejaVuSans-32"/>
      <use x="1386.470703" xlink:href="#DejaVuSans-48"/>
      <use x="1450.09375" xlink:href="#DejaVuSans-46"/>
      <use x="1481.880859" xlink:href="#DejaVuSans-57"/>
      <use x="1545.503906" xlink:href="#DejaVuSans-56"/>
      <use x="1609.126953" xlink:href="#DejaVuSans-41"/>
     </g>
    </g>
    <g id="line2d_36">
     <path d="M 66.6 263.648063 
L 86.6 263.648063 
" style="fill:none;stroke:#f884d2;stroke-linecap:square;stroke-width:2;"/>
    </g>
    <g id="line2d_37"/>
    <g id="text_22">
     <!-- PR curve of class 6 (area = 0.69) -->
     <g transform="translate(94.6 267.148063)scale(0.1 -0.1)">
      <use xlink:href="#DejaVuSans-80"/>
      <use x="60.302734" xlink:href="#DejaVuSans-82"/>
      <use x="129.785156" xlink:href="#DejaVuSans-32"/>
      <use x="161.572266" xlink:href="#DejaVuSans-99"/>
      <use x="216.552734" xlink:href="#DejaVuSans-117"/>
      <use x="279.931641" xlink:href="#DejaVuSans-114"/>
      <use x="321.044922" xlink:href="#DejaVuSans-118"/>
      <use x="380.224609" xlink:href="#DejaVuSans-101"/>
      <use x="441.748047" xlink:href="#DejaVuSans-32"/>
      <use x="473.535156" xlink:href="#DejaVuSans-111"/>
      <use x="534.716797" xlink:href="#DejaVuSans-102"/>
      <use x="569.921875" xlink:href="#DejaVuSans-32"/>
      <use x="601.708984" xlink:href="#DejaVuSans-99"/>
      <use x="656.689453" xlink:href="#DejaVuSans-108"/>
      <use x="684.472656" xlink:href="#DejaVuSans-97"/>
      <use x="745.751953" xlink:href="#DejaVuSans-115"/>
      <use x="797.851562" xlink:href="#DejaVuSans-115"/>
      <use x="849.951172" xlink:href="#DejaVuSans-32"/>
      <use x="881.738281" xlink:href="#DejaVuSans-54"/>
      <use x="945.361328" xlink:href="#DejaVuSans-32"/>
      <use x="977.148438" xlink:href="#DejaVuSans-40"/>
      <use x="1016.162109" xlink:href="#DejaVuSans-97"/>
      <use x="1077.441406" xlink:href="#DejaVuSans-114"/>
      <use x="1116.304688" xlink:href="#DejaVuSans-101"/>
      <use x="1177.828125" xlink:href="#DejaVuSans-97"/>
      <use x="1239.107422" xlink:href="#DejaVuSans-32"/>
      <use x="1270.894531" xlink:href="#DejaVuSans-61"/>
      <use x="1354.683594" xlink:href="#DejaVuSans-32"/>
      <use x="1386.470703" xlink:href="#DejaVuSans-48"/>
      <use x="1450.09375" xlink:href="#DejaVuSans-46"/>
      <use x="1481.880859" xlink:href="#DejaVuSans-54"/>
      <use x="1545.503906" xlink:href="#DejaVuSans-57"/>
      <use x="1609.126953" xlink:href="#DejaVuSans-41"/>
     </g>
    </g>
    <g id="line2d_38">
     <path d="M 66.6 278.326188 
L 86.6 278.326188 
" style="fill:none;stroke:#e334ae;stroke-linecap:square;stroke-width:2;"/>
    </g>
    <g id="line2d_39"/>
    <g id="text_23">
     <!-- PR curve of class 7 (area = 1.00) -->
     <g transform="translate(94.6 281.826188)scale(0.1 -0.1)">
      <use xlink:href="#DejaVuSans-80"/>
      <use x="60.302734" xlink:href="#DejaVuSans-82"/>
      <use x="129.785156" xlink:href="#DejaVuSans-32"/>
      <use x="161.572266" xlink:href="#DejaVuSans-99"/>
      <use x="216.552734" xlink:href="#DejaVuSans-117"/>
      <use x="279.931641" xlink:href="#DejaVuSans-114"/>
      <use x="321.044922" xlink:href="#DejaVuSans-118"/>
      <use x="380.224609" xlink:href="#DejaVuSans-101"/>
      <use x="441.748047" xlink:href="#DejaVuSans-32"/>
      <use x="473.535156" xlink:href="#DejaVuSans-111"/>
      <use x="534.716797" xlink:href="#DejaVuSans-102"/>
      <use x="569.921875" xlink:href="#DejaVuSans-32"/>
      <use x="601.708984" xlink:href="#DejaVuSans-99"/>
      <use x="656.689453" xlink:href="#DejaVuSans-108"/>
      <use x="684.472656" xlink:href="#DejaVuSans-97"/>
      <use x="745.751953" xlink:href="#DejaVuSans-115"/>
      <use x="797.851562" xlink:href="#DejaVuSans-115"/>
      <use x="849.951172" xlink:href="#DejaVuSans-32"/>
      <use x="881.738281" xlink:href="#DejaVuSans-55"/>
      <use x="945.361328" xlink:href="#DejaVuSans-32"/>
      <use x="977.148438" xlink:href="#DejaVuSans-40"/>
      <use x="1016.162109" xlink:href="#DejaVuSans-97"/>
      <use x="1077.441406" xlink:href="#DejaVuSans-114"/>
      <use x="1116.304688" xlink:href="#DejaVuSans-101"/>
      <use x="1177.828125" xlink:href="#DejaVuSans-97"/>
      <use x="1239.107422" xlink:href="#DejaVuSans-32"/>
      <use x="1270.894531" xlink:href="#DejaVuSans-61"/>
      <use x="1354.683594" xlink:href="#DejaVuSans-32"/>
      <use x="1386.470703" xlink:href="#DejaVuSans-49"/>
      <use x="1450.09375" xlink:href="#DejaVuSans-46"/>
      <use x="1481.880859" xlink:href="#DejaVuSans-48"/>
      <use x="1545.503906" xlink:href="#DejaVuSans-48"/>
      <use x="1609.126953" xlink:href="#DejaVuSans-41"/>
     </g>
    </g>
    <g id="line2d_40">
     <path d="M 66.6 293.004312 
L 86.6 293.004312 
" style="fill:none;stroke:#ff1493;stroke-dasharray:4,6.6;stroke-dashoffset:0;stroke-width:4;"/>
    </g>
    <g id="line2d_41"/>
    <g id="text_24">
     <!-- micro-average PR curve (area = 1.00) -->
     <g transform="translate(94.6 296.504312)scale(0.1 -0.1)">
      <defs>
       <path d="M 52 44.1875 
Q 55.375 50.25 60.0625 53.125 
Q 64.75 56 71.09375 56 
Q 79.640625 56 84.28125 50.015625 
Q 88.921875 44.046875 88.921875 33.015625 
L 88.921875 0 
L 79.890625 0 
L 79.890625 32.71875 
Q 79.890625 40.578125 77.09375 44.375 
Q 74.3125 48.1875 68.609375 48.1875 
Q 61.625 48.1875 57.5625 43.546875 
Q 53.515625 38.921875 53.515625 30.90625 
L 53.515625 0 
L 44.484375 0 
L 44.484375 32.71875 
Q 44.484375 40.625 41.703125 44.40625 
Q 38.921875 48.1875 33.109375 48.1875 
Q 26.21875 48.1875 22.15625 43.53125 
Q 18.109375 38.875 18.109375 30.90625 
L 18.109375 0 
L 9.078125 0 
L 9.078125 54.6875 
L 18.109375 54.6875 
L 18.109375 46.1875 
Q 21.1875 51.21875 25.484375 53.609375 
Q 29.78125 56 35.6875 56 
Q 41.65625 56 45.828125 52.96875 
Q 50 49.953125 52 44.1875 
z
" id="DejaVuSans-109"/>
       <path d="M 4.890625 31.390625 
L 31.203125 31.390625 
L 31.203125 23.390625 
L 4.890625 23.390625 
z
" id="DejaVuSans-45"/>
       <path d="M 45.40625 27.984375 
Q 45.40625 37.75 41.375 43.109375 
Q 37.359375 48.484375 30.078125 48.484375 
Q 22.859375 48.484375 18.828125 43.109375 
Q 14.796875 37.75 14.796875 27.984375 
Q 14.796875 18.265625 18.828125 12.890625 
Q 22.859375 7.515625 30.078125 7.515625 
Q 37.359375 7.515625 41.375 12.890625 
Q 45.40625 18.265625 45.40625 27.984375 
z
M 54.390625 6.78125 
Q 54.390625 -7.171875 48.1875 -13.984375 
Q 42 -20.796875 29.203125 -20.796875 
Q 24.46875 -20.796875 20.265625 -20.09375 
Q 16.0625 -19.390625 12.109375 -17.921875 
L 12.109375 -9.1875 
Q 16.0625 -11.328125 19.921875 -12.34375 
Q 23.78125 -13.375 27.78125 -13.375 
Q 36.625 -13.375 41.015625 -8.765625 
Q 45.40625 -4.15625 45.40625 5.171875 
L 45.40625 9.625 
Q 42.625 4.78125 38.28125 2.390625 
Q 33.9375 0 27.875 0 
Q 17.828125 0 11.671875 7.65625 
Q 5.515625 15.328125 5.515625 27.984375 
Q 5.515625 40.671875 11.671875 48.328125 
Q 17.828125 56 27.875 56 
Q 33.9375 56 38.28125 53.609375 
Q 42.625 51.21875 45.40625 46.390625 
L 45.40625 54.6875 
L 54.390625 54.6875 
z
" id="DejaVuSans-103"/>
      </defs>
      <use xlink:href="#DejaVuSans-109"/>
      <use x="97.412109" xlink:href="#DejaVuSans-105"/>
      <use x="125.195312" xlink:href="#DejaVuSans-99"/>
      <use x="180.175781" xlink:href="#DejaVuSans-114"/>
      <use x="219.039062" xlink:href="#DejaVuSans-111"/>
      <use x="282.095703" xlink:href="#DejaVuSans-45"/>
      <use x="318.179688" xlink:href="#DejaVuSans-97"/>
      <use x="379.458984" xlink:href="#DejaVuSans-118"/>
      <use x="438.638672" xlink:href="#DejaVuSans-101"/>
      <use x="500.162109" xlink:href="#DejaVuSans-114"/>
      <use x="541.275391" xlink:href="#DejaVuSans-97"/>
      <use x="602.554688" xlink:href="#DejaVuSans-103"/>
      <use x="666.03125" xlink:href="#DejaVuSans-101"/>
      <use x="727.554688" xlink:href="#DejaVuSans-32"/>
      <use x="759.341797" xlink:href="#DejaVuSans-80"/>
      <use x="819.644531" xlink:href="#DejaVuSans-82"/>
      <use x="889.126953" xlink:href="#DejaVuSans-32"/>
      <use x="920.914062" xlink:href="#DejaVuSans-99"/>
      <use x="975.894531" xlink:href="#DejaVuSans-117"/>
      <use x="1039.273438" xlink:href="#DejaVuSans-114"/>
      <use x="1080.386719" xlink:href="#DejaVuSans-118"/>
      <use x="1139.566406" xlink:href="#DejaVuSans-101"/>
      <use x="1201.089844" xlink:href="#DejaVuSans-32"/>
      <use x="1232.876953" xlink:href="#DejaVuSans-40"/>
      <use x="1271.890625" xlink:href="#DejaVuSans-97"/>
      <use x="1333.169922" xlink:href="#DejaVuSans-114"/>
      <use x="1372.033203" xlink:href="#DejaVuSans-101"/>
      <use x="1433.556641" xlink:href="#DejaVuSans-97"/>
      <use x="1494.835938" xlink:href="#DejaVuSans-32"/>
      <use x="1526.623047" xlink:href="#DejaVuSans-61"/>
      <use x="1610.412109" xlink:href="#DejaVuSans-32"/>
      <use x="1642.199219" xlink:href="#DejaVuSans-49"/>
      <use x="1705.822266" xlink:href="#DejaVuSans-46"/>
      <use x="1737.609375" xlink:href="#DejaVuSans-48"/>
      <use x="1801.232422" xlink:href="#DejaVuSans-48"/>
      <use x="1864.855469" xlink:href="#DejaVuSans-41"/>
     </g>
    </g>
   </g>
  </g>
 </g>
 <defs>
  <clipPath id="p53c0a7ad0d">
   <rect height="266.112" width="357.12" x="57.6" y="41.472"/>
  </clipPath>
 </defs>
</svg>
