<?xml version="1.0" encoding="utf-8" standalone="no"?>
<!DOCTYPE svg PUBLIC "-//W3C//DTD SVG 1.1//EN"
  "http://www.w3.org/Graphics/SVG/1.1/DTD/svg11.dtd">
<svg height="345.6pt" version="1.1" viewBox="0 0 460.8 345.6" width="460.8pt" xmlns="http://www.w3.org/2000/svg" xmlns:xlink="http://www.w3.org/1999/xlink">
 <metadata>
  <rdf:RDF xmlns:cc="http://creativecommons.org/ns#" xmlns:dc="http://purl.org/dc/elements/1.1/" xmlns:rdf="http://www.w3.org/1999/02/22-rdf-syntax-ns#">
   <cc:Work>
    <dc:type rdf:resource="http://purl.org/dc/dcmitype/StillImage"/>
    <dc:date>2021-08-04T23:14:23.925342</dc:date>
    <dc:format>image/svg+xml</dc:format>
    <dc:creator>
     <cc:Agent>
      <dc:title>Matplotlib v3.4.2, https://matplotlib.org/</dc:title>
     </cc:Agent>
    </dc:creator>
   </cc:Work>
  </rdf:RDF>
 </metadata>
 <defs>
  <style type="text/css">*{stroke-linecap:butt;stroke-linejoin:round;}</style>
 </defs>
 <g id="figure_1">
  <g id="patch_1">
   <path d="M 0 345.6 
L 460.8 345.6 
L 460.8 0 
L 0 0 
z
" style="fill:#ffffff;"/>
  </g>
  <g id="axes_1">
   <g id="patch_2">
    <path d="M 57.6 307.584 
L 414.72 307.584 
L 414.72 41.472 
L 57.6 41.472 
z
" style="fill:#ffffff;"/>
   </g>
   <g id="matplotlib.axis_1">
    <g id="xtick_1">
     <g id="line2d_1">
      <defs>
       <path d="M 0 0 
L 0 3.5 
" id="mbee69c357f" style="stroke:#000000;stroke-width:0.8;"/>
      </defs>
      <g>
       <use style="stroke:#000000;stroke-width:0.8;" x="57.6" xlink:href="#mbee69c357f" y="307.584"/>
      </g>
     </g>
     <g id="text_1">
      <!-- 0.0 -->
      <g transform="translate(49.648438 322.182437)scale(0.1 -0.1)">
       <defs>
        <path d="M 2034 4250 
Q 1547 4250 1301 3770 
Q 1056 3291 1056 2328 
Q 1056 1369 1301 889 
Q 1547 409 2034 409 
Q 2525 409 2770 889 
Q 3016 1369 3016 2328 
Q 3016 3291 2770 3770 
Q 2525 4250 2034 4250 
z
M 2034 4750 
Q 2819 4750 3233 4129 
Q 3647 3509 3647 2328 
Q 3647 1150 3233 529 
Q 2819 -91 2034 -91 
Q 1250 -91 836 529 
Q 422 1150 422 2328 
Q 422 3509 836 4129 
Q 1250 4750 2034 4750 
z
" id="DejaVuSans-30" transform="scale(0.015625)"/>
        <path d="M 684 794 
L 1344 794 
L 1344 0 
L 684 0 
L 684 794 
z
" id="DejaVuSans-2e" transform="scale(0.015625)"/>
       </defs>
       <use xlink:href="#DejaVuSans-30"/>
       <use x="63.623047" xlink:href="#DejaVuSans-2e"/>
       <use x="95.410156" xlink:href="#DejaVuSans-30"/>
      </g>
     </g>
    </g>
    <g id="xtick_2">
     <g id="line2d_2">
      <g>
       <use style="stroke:#000000;stroke-width:0.8;" x="129.024" xlink:href="#mbee69c357f" y="307.584"/>
      </g>
     </g>
     <g id="text_2">
      <!-- 0.2 -->
      <g transform="translate(121.072438 322.182437)scale(0.1 -0.1)">
       <defs>
        <path d="M 1228 531 
L 3431 531 
L 3431 0 
L 469 0 
L 469 531 
Q 828 903 1448 1529 
Q 2069 2156 2228 2338 
Q 2531 2678 2651 2914 
Q 2772 3150 2772 3378 
Q 2772 3750 2511 3984 
Q 2250 4219 1831 4219 
Q 1534 4219 1204 4116 
Q 875 4013 500 3803 
L 500 4441 
Q 881 4594 1212 4672 
Q 1544 4750 1819 4750 
Q 2544 4750 2975 4387 
Q 3406 4025 3406 3419 
Q 3406 3131 3298 2873 
Q 3191 2616 2906 2266 
Q 2828 2175 2409 1742 
Q 1991 1309 1228 531 
z
" id="DejaVuSans-32" transform="scale(0.015625)"/>
       </defs>
       <use xlink:href="#DejaVuSans-30"/>
       <use x="63.623047" xlink:href="#DejaVuSans-2e"/>
       <use x="95.410156" xlink:href="#DejaVuSans-32"/>
      </g>
     </g>
    </g>
    <g id="xtick_3">
     <g id="line2d_3">
      <g>
       <use style="stroke:#000000;stroke-width:0.8;" x="200.448" xlink:href="#mbee69c357f" y="307.584"/>
      </g>
     </g>
     <g id="text_3">
      <!-- 0.4 -->
      <g transform="translate(192.496438 322.182437)scale(0.1 -0.1)">
       <defs>
        <path d="M 2419 4116 
L 825 1625 
L 2419 1625 
L 2419 4116 
z
M 2253 4666 
L 3047 4666 
L 3047 1625 
L 3713 1625 
L 3713 1100 
L 3047 1100 
L 3047 0 
L 2419 0 
L 2419 1100 
L 313 1100 
L 313 1709 
L 2253 4666 
z
" id="DejaVuSans-34" transform="scale(0.015625)"/>
       </defs>
       <use xlink:href="#DejaVuSans-30"/>
       <use x="63.623047" xlink:href="#DejaVuSans-2e"/>
       <use x="95.410156" xlink:href="#DejaVuSans-34"/>
      </g>
     </g>
    </g>
    <g id="xtick_4">
     <g id="line2d_4">
      <g>
       <use style="stroke:#000000;stroke-width:0.8;" x="271.872" xlink:href="#mbee69c357f" y="307.584"/>
      </g>
     </g>
     <g id="text_4">
      <!-- 0.6 -->
      <g transform="translate(263.920438 322.182437)scale(0.1 -0.1)">
       <defs>
        <path d="M 2113 2584 
Q 1688 2584 1439 2293 
Q 1191 2003 1191 1497 
Q 1191 994 1439 701 
Q 1688 409 2113 409 
Q 2538 409 2786 701 
Q 3034 994 3034 1497 
Q 3034 2003 2786 2293 
Q 2538 2584 2113 2584 
z
M 3366 4563 
L 3366 3988 
Q 3128 4100 2886 4159 
Q 2644 4219 2406 4219 
Q 1781 4219 1451 3797 
Q 1122 3375 1075 2522 
Q 1259 2794 1537 2939 
Q 1816 3084 2150 3084 
Q 2853 3084 3261 2657 
Q 3669 2231 3669 1497 
Q 3669 778 3244 343 
Q 2819 -91 2113 -91 
Q 1303 -91 875 529 
Q 447 1150 447 2328 
Q 447 3434 972 4092 
Q 1497 4750 2381 4750 
Q 2619 4750 2861 4703 
Q 3103 4656 3366 4563 
z
" id="DejaVuSans-36" transform="scale(0.015625)"/>
       </defs>
       <use xlink:href="#DejaVuSans-30"/>
       <use x="63.623047" xlink:href="#DejaVuSans-2e"/>
       <use x="95.410156" xlink:href="#DejaVuSans-36"/>
      </g>
     </g>
    </g>
    <g id="xtick_5">
     <g id="line2d_5">
      <g>
       <use style="stroke:#000000;stroke-width:0.8;" x="343.296" xlink:href="#mbee69c357f" y="307.584"/>
      </g>
     </g>
     <g id="text_5">
      <!-- 0.8 -->
      <g transform="translate(335.344438 322.182437)scale(0.1 -0.1)">
       <defs>
        <path d="M 2034 2216 
Q 1584 2216 1326 1975 
Q 1069 1734 1069 1313 
Q 1069 891 1326 650 
Q 1584 409 2034 409 
Q 2484 409 2743 651 
Q 3003 894 3003 1313 
Q 3003 1734 2745 1975 
Q 2488 2216 2034 2216 
z
M 1403 2484 
Q 997 2584 770 2862 
Q 544 3141 544 3541 
Q 544 4100 942 4425 
Q 1341 4750 2034 4750 
Q 2731 4750 3128 4425 
Q 3525 4100 3525 3541 
Q 3525 3141 3298 2862 
Q 3072 2584 2669 2484 
Q 3125 2378 3379 2068 
Q 3634 1759 3634 1313 
Q 3634 634 3220 271 
Q 2806 -91 2034 -91 
Q 1263 -91 848 271 
Q 434 634 434 1313 
Q 434 1759 690 2068 
Q 947 2378 1403 2484 
z
M 1172 3481 
Q 1172 3119 1398 2916 
Q 1625 2713 2034 2713 
Q 2441 2713 2670 2916 
Q 2900 3119 2900 3481 
Q 2900 3844 2670 4047 
Q 2441 4250 2034 4250 
Q 1625 4250 1398 4047 
Q 1172 3844 1172 3481 
z
" id="DejaVuSans-38" transform="scale(0.015625)"/>
       </defs>
       <use xlink:href="#DejaVuSans-30"/>
       <use x="63.623047" xlink:href="#DejaVuSans-2e"/>
       <use x="95.410156" xlink:href="#DejaVuSans-38"/>
      </g>
     </g>
    </g>
    <g id="xtick_6">
     <g id="line2d_6">
      <g>
       <use style="stroke:#000000;stroke-width:0.8;" x="414.72" xlink:href="#mbee69c357f" y="307.584"/>
      </g>
     </g>
     <g id="text_6">
      <!-- 1.0 -->
      <g transform="translate(406.768438 322.182437)scale(0.1 -0.1)">
       <defs>
        <path d="M 794 531 
L 1825 531 
L 1825 4091 
L 703 3866 
L 703 4441 
L 1819 4666 
L 2450 4666 
L 2450 531 
L 3481 531 
L 3481 0 
L 794 0 
L 794 531 
z
" id="DejaVuSans-31" transform="scale(0.015625)"/>
       </defs>
       <use xlink:href="#DejaVuSans-31"/>
       <use x="63.623047" xlink:href="#DejaVuSans-2e"/>
       <use x="95.410156" xlink:href="#DejaVuSans-30"/>
      </g>
     </g>
    </g>
    <g id="text_7">
     <!-- False Positive Rate -->
     <g transform="translate(189.693594 335.860562)scale(0.1 -0.1)">
      <defs>
       <path d="M 628 4666 
L 3309 4666 
L 3309 4134 
L 1259 4134 
L 1259 2759 
L 3109 2759 
L 3109 2228 
L 1259 2228 
L 1259 0 
L 628 0 
L 628 4666 
z
" id="DejaVuSans-46" transform="scale(0.015625)"/>
       <path d="M 2194 1759 
Q 1497 1759 1228 1600 
Q 959 1441 959 1056 
Q 959 750 1161 570 
Q 1363 391 1709 391 
Q 2188 391 2477 730 
Q 2766 1069 2766 1631 
L 2766 1759 
L 2194 1759 
z
M 3341 1997 
L 3341 0 
L 2766 0 
L 2766 531 
Q 2569 213 2275 61 
Q 1981 -91 1556 -91 
Q 1019 -91 701 211 
Q 384 513 384 1019 
Q 384 1609 779 1909 
Q 1175 2209 1959 2209 
L 2766 2209 
L 2766 2266 
Q 2766 2663 2505 2880 
Q 2244 3097 1772 3097 
Q 1472 3097 1187 3025 
Q 903 2953 641 2809 
L 641 3341 
Q 956 3463 1253 3523 
Q 1550 3584 1831 3584 
Q 2591 3584 2966 3190 
Q 3341 2797 3341 1997 
z
" id="DejaVuSans-61" transform="scale(0.015625)"/>
       <path d="M 603 4863 
L 1178 4863 
L 1178 0 
L 603 0 
L 603 4863 
z
" id="DejaVuSans-6c" transform="scale(0.015625)"/>
       <path d="M 2834 3397 
L 2834 2853 
Q 2591 2978 2328 3040 
Q 2066 3103 1784 3103 
Q 1356 3103 1142 2972 
Q 928 2841 928 2578 
Q 928 2378 1081 2264 
Q 1234 2150 1697 2047 
L 1894 2003 
Q 2506 1872 2764 1633 
Q 3022 1394 3022 966 
Q 3022 478 2636 193 
Q 2250 -91 1575 -91 
Q 1294 -91 989 -36 
Q 684 19 347 128 
L 347 722 
Q 666 556 975 473 
Q 1284 391 1588 391 
Q 1994 391 2212 530 
Q 2431 669 2431 922 
Q 2431 1156 2273 1281 
Q 2116 1406 1581 1522 
L 1381 1569 
Q 847 1681 609 1914 
Q 372 2147 372 2553 
Q 372 3047 722 3315 
Q 1072 3584 1716 3584 
Q 2034 3584 2315 3537 
Q 2597 3491 2834 3397 
z
" id="DejaVuSans-73" transform="scale(0.015625)"/>
       <path d="M 3597 1894 
L 3597 1613 
L 953 1613 
Q 991 1019 1311 708 
Q 1631 397 2203 397 
Q 2534 397 2845 478 
Q 3156 559 3463 722 
L 3463 178 
Q 3153 47 2828 -22 
Q 2503 -91 2169 -91 
Q 1331 -91 842 396 
Q 353 884 353 1716 
Q 353 2575 817 3079 
Q 1281 3584 2069 3584 
Q 2775 3584 3186 3129 
Q 3597 2675 3597 1894 
z
M 3022 2063 
Q 3016 2534 2758 2815 
Q 2500 3097 2075 3097 
Q 1594 3097 1305 2825 
Q 1016 2553 972 2059 
L 3022 2063 
z
" id="DejaVuSans-65" transform="scale(0.015625)"/>
       <path id="DejaVuSans-20" transform="scale(0.015625)"/>
       <path d="M 1259 4147 
L 1259 2394 
L 2053 2394 
Q 2494 2394 2734 2622 
Q 2975 2850 2975 3272 
Q 2975 3691 2734 3919 
Q 2494 4147 2053 4147 
L 1259 4147 
z
M 628 4666 
L 2053 4666 
Q 2838 4666 3239 4311 
Q 3641 3956 3641 3272 
Q 3641 2581 3239 2228 
Q 2838 1875 2053 1875 
L 1259 1875 
L 1259 0 
L 628 0 
L 628 4666 
z
" id="DejaVuSans-50" transform="scale(0.015625)"/>
       <path d="M 1959 3097 
Q 1497 3097 1228 2736 
Q 959 2375 959 1747 
Q 959 1119 1226 758 
Q 1494 397 1959 397 
Q 2419 397 2687 759 
Q 2956 1122 2956 1747 
Q 2956 2369 2687 2733 
Q 2419 3097 1959 3097 
z
M 1959 3584 
Q 2709 3584 3137 3096 
Q 3566 2609 3566 1747 
Q 3566 888 3137 398 
Q 2709 -91 1959 -91 
Q 1206 -91 779 398 
Q 353 888 353 1747 
Q 353 2609 779 3096 
Q 1206 3584 1959 3584 
z
" id="DejaVuSans-6f" transform="scale(0.015625)"/>
       <path d="M 603 3500 
L 1178 3500 
L 1178 0 
L 603 0 
L 603 3500 
z
M 603 4863 
L 1178 4863 
L 1178 4134 
L 603 4134 
L 603 4863 
z
" id="DejaVuSans-69" transform="scale(0.015625)"/>
       <path d="M 1172 4494 
L 1172 3500 
L 2356 3500 
L 2356 3053 
L 1172 3053 
L 1172 1153 
Q 1172 725 1289 603 
Q 1406 481 1766 481 
L 2356 481 
L 2356 0 
L 1766 0 
Q 1100 0 847 248 
Q 594 497 594 1153 
L 594 3053 
L 172 3053 
L 172 3500 
L 594 3500 
L 594 4494 
L 1172 4494 
z
" id="DejaVuSans-74" transform="scale(0.015625)"/>
       <path d="M 191 3500 
L 800 3500 
L 1894 563 
L 2988 3500 
L 3597 3500 
L 2284 0 
L 1503 0 
L 191 3500 
z
" id="DejaVuSans-76" transform="scale(0.015625)"/>
       <path d="M 2841 2188 
Q 3044 2119 3236 1894 
Q 3428 1669 3622 1275 
L 4263 0 
L 3584 0 
L 2988 1197 
Q 2756 1666 2539 1819 
Q 2322 1972 1947 1972 
L 1259 1972 
L 1259 0 
L 628 0 
L 628 4666 
L 2053 4666 
Q 2853 4666 3247 4331 
Q 3641 3997 3641 3322 
Q 3641 2881 3436 2590 
Q 3231 2300 2841 2188 
z
M 1259 4147 
L 1259 2491 
L 2053 2491 
Q 2509 2491 2742 2702 
Q 2975 2913 2975 3322 
Q 2975 3731 2742 3939 
Q 2509 4147 2053 4147 
L 1259 4147 
z
" id="DejaVuSans-52" transform="scale(0.015625)"/>
      </defs>
      <use xlink:href="#DejaVuSans-46"/>
      <use x="48.394531" xlink:href="#DejaVuSans-61"/>
      <use x="109.673828" xlink:href="#DejaVuSans-6c"/>
      <use x="137.457031" xlink:href="#DejaVuSans-73"/>
      <use x="189.556641" xlink:href="#DejaVuSans-65"/>
      <use x="251.080078" xlink:href="#DejaVuSans-20"/>
      <use x="282.867188" xlink:href="#DejaVuSans-50"/>
      <use x="339.544922" xlink:href="#DejaVuSans-6f"/>
      <use x="400.726562" xlink:href="#DejaVuSans-73"/>
      <use x="452.826172" xlink:href="#DejaVuSans-69"/>
      <use x="480.609375" xlink:href="#DejaVuSans-74"/>
      <use x="519.818359" xlink:href="#DejaVuSans-69"/>
      <use x="547.601562" xlink:href="#DejaVuSans-76"/>
      <use x="606.78125" xlink:href="#DejaVuSans-65"/>
      <use x="668.304688" xlink:href="#DejaVuSans-20"/>
      <use x="700.091797" xlink:href="#DejaVuSans-52"/>
      <use x="767.324219" xlink:href="#DejaVuSans-61"/>
      <use x="828.603516" xlink:href="#DejaVuSans-74"/>
      <use x="867.8125" xlink:href="#DejaVuSans-65"/>
     </g>
    </g>
   </g>
   <g id="matplotlib.axis_2">
    <g id="ytick_1">
     <g id="line2d_7">
      <defs>
       <path d="M 0 0 
L -3.5 0 
" id="m4d02c2ba68" style="stroke:#000000;stroke-width:0.8;"/>
      </defs>
      <g>
       <use style="stroke:#000000;stroke-width:0.8;" x="57.6" xlink:href="#m4d02c2ba68" y="307.584"/>
      </g>
     </g>
     <g id="text_8">
      <!-- 0.0 -->
      <g transform="translate(34.696875 311.383219)scale(0.1 -0.1)">
       <use xlink:href="#DejaVuSans-30"/>
       <use x="63.623047" xlink:href="#DejaVuSans-2e"/>
       <use x="95.410156" xlink:href="#DejaVuSans-30"/>
      </g>
     </g>
    </g>
    <g id="ytick_2">
     <g id="line2d_8">
      <g>
       <use style="stroke:#000000;stroke-width:0.8;" x="57.6" xlink:href="#m4d02c2ba68" y="256.896"/>
      </g>
     </g>
     <g id="text_9">
      <!-- 0.2 -->
      <g transform="translate(34.696875 260.695219)scale(0.1 -0.1)">
       <use xlink:href="#DejaVuSans-30"/>
       <use x="63.623047" xlink:href="#DejaVuSans-2e"/>
       <use x="95.410156" xlink:href="#DejaVuSans-32"/>
      </g>
     </g>
    </g>
    <g id="ytick_3">
     <g id="line2d_9">
      <g>
       <use style="stroke:#000000;stroke-width:0.8;" x="57.6" xlink:href="#m4d02c2ba68" y="206.208"/>
      </g>
     </g>
     <g id="text_10">
      <!-- 0.4 -->
      <g transform="translate(34.696875 210.007219)scale(0.1 -0.1)">
       <use xlink:href="#DejaVuSans-30"/>
       <use x="63.623047" xlink:href="#DejaVuSans-2e"/>
       <use x="95.410156" xlink:href="#DejaVuSans-34"/>
      </g>
     </g>
    </g>
    <g id="ytick_4">
     <g id="line2d_10">
      <g>
       <use style="stroke:#000000;stroke-width:0.8;" x="57.6" xlink:href="#m4d02c2ba68" y="155.52"/>
      </g>
     </g>
     <g id="text_11">
      <!-- 0.6 -->
      <g transform="translate(34.696875 159.319219)scale(0.1 -0.1)">
       <use xlink:href="#DejaVuSans-30"/>
       <use x="63.623047" xlink:href="#DejaVuSans-2e"/>
       <use x="95.410156" xlink:href="#DejaVuSans-36"/>
      </g>
     </g>
    </g>
    <g id="ytick_5">
     <g id="line2d_11">
      <g>
       <use style="stroke:#000000;stroke-width:0.8;" x="57.6" xlink:href="#m4d02c2ba68" y="104.832"/>
      </g>
     </g>
     <g id="text_12">
      <!-- 0.8 -->
      <g transform="translate(34.696875 108.631219)scale(0.1 -0.1)">
       <use xlink:href="#DejaVuSans-30"/>
       <use x="63.623047" xlink:href="#DejaVuSans-2e"/>
       <use x="95.410156" xlink:href="#DejaVuSans-38"/>
      </g>
     </g>
    </g>
    <g id="ytick_6">
     <g id="line2d_12">
      <g>
       <use style="stroke:#000000;stroke-width:0.8;" x="57.6" xlink:href="#m4d02c2ba68" y="54.144"/>
      </g>
     </g>
     <g id="text_13">
      <!-- 1.0 -->
      <g transform="translate(34.696875 57.943219)scale(0.1 -0.1)">
       <use xlink:href="#DejaVuSans-31"/>
       <use x="63.623047" xlink:href="#DejaVuSans-2e"/>
       <use x="95.410156" xlink:href="#DejaVuSans-30"/>
      </g>
     </g>
    </g>
    <g id="text_14">
     <!-- True Positive Rate -->
     <g transform="translate(28.617187 219.057687)rotate(-90)scale(0.1 -0.1)">
      <defs>
       <path d="M -19 4666 
L 3928 4666 
L 3928 4134 
L 2272 4134 
L 2272 0 
L 1638 0 
L 1638 4134 
L -19 4134 
L -19 4666 
z
" id="DejaVuSans-54" transform="scale(0.015625)"/>
       <path d="M 2631 2963 
Q 2534 3019 2420 3045 
Q 2306 3072 2169 3072 
Q 1681 3072 1420 2755 
Q 1159 2438 1159 1844 
L 1159 0 
L 581 0 
L 581 3500 
L 1159 3500 
L 1159 2956 
Q 1341 3275 1631 3429 
Q 1922 3584 2338 3584 
Q 2397 3584 2469 3576 
Q 2541 3569 2628 3553 
L 2631 2963 
z
" id="DejaVuSans-72" transform="scale(0.015625)"/>
       <path d="M 544 1381 
L 544 3500 
L 1119 3500 
L 1119 1403 
Q 1119 906 1312 657 
Q 1506 409 1894 409 
Q 2359 409 2629 706 
Q 2900 1003 2900 1516 
L 2900 3500 
L 3475 3500 
L 3475 0 
L 2900 0 
L 2900 538 
Q 2691 219 2414 64 
Q 2138 -91 1772 -91 
Q 1169 -91 856 284 
Q 544 659 544 1381 
z
M 1991 3584 
L 1991 3584 
z
" id="DejaVuSans-75" transform="scale(0.015625)"/>
      </defs>
      <use xlink:href="#DejaVuSans-54"/>
      <use x="46.333984" xlink:href="#DejaVuSans-72"/>
      <use x="87.447266" xlink:href="#DejaVuSans-75"/>
      <use x="150.826172" xlink:href="#DejaVuSans-65"/>
      <use x="212.349609" xlink:href="#DejaVuSans-20"/>
      <use x="244.136719" xlink:href="#DejaVuSans-50"/>
      <use x="300.814453" xlink:href="#DejaVuSans-6f"/>
      <use x="361.996094" xlink:href="#DejaVuSans-73"/>
      <use x="414.095703" xlink:href="#DejaVuSans-69"/>
      <use x="441.878906" xlink:href="#DejaVuSans-74"/>
      <use x="481.087891" xlink:href="#DejaVuSans-69"/>
      <use x="508.871094" xlink:href="#DejaVuSans-76"/>
      <use x="568.050781" xlink:href="#DejaVuSans-65"/>
      <use x="629.574219" xlink:href="#DejaVuSans-20"/>
      <use x="661.361328" xlink:href="#DejaVuSans-52"/>
      <use x="728.59375" xlink:href="#DejaVuSans-61"/>
      <use x="789.873047" xlink:href="#DejaVuSans-74"/>
      <use x="829.082031" xlink:href="#DejaVuSans-65"/>
     </g>
    </g>
   </g>
   <g id="line2d_13">
    <path clip-path="url(#pb10b64deb1)" d="M 57.6 307.584 
L 57.6 226.540295 
L 57.758298 226.381697 
L 57.758298 211.552761 
L 57.916596 211.473462 
L 57.916596 170.237917 
L 58.074894 170.237917 
L 58.074894 140.10425 
L 58.233191 140.024951 
L 58.233191 124.958118 
L 58.391489 124.958118 
L 58.391489 120.834563 
L 58.549787 120.834563 
L 58.549787 115.600821 
L 58.708085 115.600821 
L 58.708085 111.080771 
L 58.866383 111.080771 
L 58.866383 108.226003 
L 59.024681 108.226003 
L 59.024681 101.564876 
L 59.182979 101.564876 
L 59.182979 99.503099 
L 59.499574 99.4238 
L 59.499574 90.066503 
L 59.657872 90.066503 
L 59.657872 88.084025 
L 59.81617 88.084025 
L 59.81617 87.60823 
L 59.974468 87.60823 
L 59.974468 86.022248 
L 60.132766 86.022248 
L 60.132766 85.149957 
L 60.449362 85.070658 
L 60.449362 83.801872 
L 60.765957 83.722573 
L 60.765957 82.770984 
L 60.924255 82.770984 
L 60.924255 81.185001 
L 61.082553 81.185001 
L 61.082553 80.39201 
L 61.240851 80.39201 
L 61.240851 80.074814 
L 61.399149 80.074814 
L 61.399149 79.51972 
L 61.715745 79.51972 
L 61.715745 78.885327 
L 61.874043 78.885327 
L 61.874043 78.647429 
L 62.03234 78.647429 
L 62.03234 78.488831 
L 62.190638 78.488831 
L 62.190638 78.013036 
L 62.348936 78.013036 
L 62.348936 77.854438 
L 62.507234 77.854438 
L 62.507234 77.140746 
L 62.665532 77.140746 
L 62.665532 76.982148 
L 62.982128 76.902849 
L 62.982128 76.823549 
L 63.140426 76.823549 
L 63.140426 76.664951 
L 63.298723 76.664951 
L 63.298723 75.634063 
L 63.457021 75.634063 
L 63.457021 75.078969 
L 63.773617 75.078969 
L 63.773617 74.603174 
L 63.931915 74.603174 
L 63.931915 74.127379 
L 64.406809 74.04808 
L 64.406809 73.968781 
L 64.723404 73.889482 
L 64.723404 73.810183 
L 64.881702 73.810183 
L 64.881702 73.492986 
L 65.198298 73.413687 
L 65.198298 73.255089 
L 65.356596 73.255089 
L 65.356596 73.096491 
L 65.989787 73.017191 
L 65.989787 72.858593 
L 66.148085 72.858593 
L 66.148085 71.748406 
L 66.464681 71.748406 
L 66.464681 71.589807 
L 67.25617 71.510508 
L 67.25617 71.431209 
L 67.414468 71.431209 
L 67.414468 71.114013 
L 67.572766 71.114013 
L 67.572766 70.876115 
L 67.889362 70.796816 
L 67.889362 70.40032 
L 68.522553 70.321021 
L 68.522553 70.003825 
L 68.680851 70.003825 
L 68.680851 69.765927 
L 69.155745 69.686628 
L 69.155745 69.52803 
L 69.630638 69.448731 
L 69.630638 69.369432 
L 69.788936 69.369432 
L 69.788936 68.972936 
L 69.947234 68.972936 
L 69.947234 68.814338 
L 70.26383 68.735039 
L 70.26383 68.417842 
L 70.897021 68.338543 
L 70.897021 68.179945 
L 71.371915 68.179945 
L 71.371915 67.70415 
L 71.530213 67.70415 
L 71.530213 67.307655 
L 71.688511 67.307655 
L 71.688511 67.149056 
L 72.005106 67.069757 
L 72.005106 66.752561 
L 72.321702 66.673262 
L 72.321702 66.593962 
L 72.638298 66.593962 
L 72.638298 66.356065 
L 73.271489 66.276766 
L 73.271489 66.118168 
L 73.746383 66.038869 
L 73.746383 65.483775 
L 73.904681 65.483775 
L 73.904681 65.325176 
L 74.221277 65.245877 
L 74.221277 64.849382 
L 74.379574 64.849382 
L 74.379574 64.690783 
L 74.69617 64.690783 
L 74.69617 64.05639 
L 74.854468 64.05639 
L 74.854468 63.897792 
L 75.012766 63.897792 
L 75.012766 63.421997 
L 75.171064 63.421997 
L 75.171064 63.263399 
L 75.645957 63.1841 
L 75.645957 63.104801 
L 76.279149 63.025502 
L 76.279149 62.708305 
L 76.595745 62.629006 
L 76.595745 62.549707 
L 77.545532 62.549707 
L 77.545532 62.391109 
L 77.862128 62.391109 
L 77.862128 62.232511 
L 78.653617 62.153212 
L 78.653617 61.915314 
L 79.286809 61.836015 
L 79.286809 61.518819 
L 80.394894 61.439519 
L 80.394894 61.36022 
L 80.869787 61.280921 
L 80.869787 61.201622 
L 81.344681 61.122323 
L 81.344681 60.725827 
L 81.502979 60.725827 
L 81.502979 60.567229 
L 82.452766 60.48793 
L 82.452766 60.329332 
L 83.244255 60.250033 
L 83.244255 60.170733 
L 84.194043 60.091434 
L 84.194043 59.932836 
L 85.14383 59.853537 
L 85.14383 59.774238 
L 85.302128 59.774238 
L 85.302128 59.61564 
L 87.834894 59.61564 
L 87.834894 59.457041 
L 88.309787 59.377742 
L 88.309787 59.298443 
L 88.942979 59.219144 
L 88.942979 59.139845 
L 89.259574 59.139845 
L 89.259574 58.981247 
L 90.525957 58.901947 
L 90.525957 58.822648 
L 90.842553 58.743349 
L 90.842553 58.505452 
L 91.159149 58.426153 
L 91.159149 58.267554 
L 91.475745 58.267554 
L 91.475745 58.108956 
L 91.79234 58.029657 
L 91.79234 57.871059 
L 94.8 57.79176 
L 94.8 57.712461 
L 95.116596 57.633161 
L 95.116596 57.553862 
L 97.491064 57.474563 
L 97.491064 57.395264 
L 98.757447 57.315965 
L 98.757447 57.236666 
L 99.707234 57.157367 
L 99.707234 57.078068 
L 101.606809 56.998768 
L 101.606809 56.919469 
L 101.765106 56.919469 
L 101.765106 56.760871 
L 102.873191 56.681572 
L 102.873191 56.522974 
L 106.197447 56.443675 
L 106.197447 56.364375 
L 107.622128 56.285076 
L 107.622128 56.205777 
L 108.097021 56.126478 
L 108.097021 56.047179 
L 114.11234 55.96788 
L 114.11234 55.888581 
L 118.702979 55.809282 
L 118.702979 55.729982 
L 128.834043 55.650683 
L 128.834043 55.571384 
L 134.532766 55.492085 
L 134.532766 55.412786 
L 138.648511 55.333487 
L 138.648511 55.254188 
L 144.66383 55.174889 
L 144.66383 55.095589 
L 150.679149 55.01629 
L 150.679149 54.936991 
L 165.717447 54.857692 
L 165.717447 54.778393 
L 170.466383 54.699094 
L 170.466383 54.619795 
L 184.08 54.540496 
L 184.08 54.461196 
L 197.060426 54.381897 
L 197.060426 54.302598 
L 227.295319 54.223299 
L 227.295319 54.144 
L 414.72 54.144 
L 414.72 54.144 
" style="fill:none;stroke:#dd02ec;stroke-linecap:square;stroke-width:2;"/>
   </g>
   <g id="line2d_14">
    <path clip-path="url(#pb10b64deb1)" d="M 57.6 307.584 
L 57.6 174.572936 
L 57.71174 174.572936 
L 57.71174 161.653787 
L 57.823479 161.653787 
L 57.823479 153.115915 
L 57.935219 153.115915 
L 57.935219 147.948255 
L 58.046959 147.948255 
L 58.046959 143.904 
L 58.158698 143.904 
L 58.158698 139.972085 
L 58.270438 139.972085 
L 58.270438 134.242723 
L 58.382178 134.242723 
L 58.382178 133.23166 
L 58.493917 133.23166 
L 58.493917 130.872511 
L 58.605657 130.872511 
L 58.605657 126.041872 
L 58.717397 126.041872 
L 58.717397 120.20017 
L 58.829136 120.20017 
L 58.829136 117.166979 
L 58.940876 117.166979 
L 58.940876 115.931234 
L 59.052616 115.931234 
L 59.052616 114.695489 
L 59.164355 114.695489 
L 59.164355 111.662298 
L 59.276095 111.662298 
L 59.276095 109.864851 
L 59.387835 109.864851 
L 59.387835 108.741447 
L 59.499574 108.741447 
L 59.499574 105.595915 
L 59.611314 105.595915 
L 59.611314 104.697191 
L 59.723054 104.697191 
L 59.723054 98.406128 
L 59.834793 98.406128 
L 59.834793 97.507404 
L 59.946533 97.507404 
L 59.946533 94.474213 
L 60.058273 94.474213 
L 60.058273 94.249532 
L 60.170013 94.249532 
L 60.170013 94.137191 
L 60.281752 94.137191 
L 60.281752 89.980596 
L 60.393492 89.980596 
L 60.393492 89.755915 
L 60.505232 89.755915 
L 60.505232 89.643574 
L 60.616971 89.643574 
L 60.616971 89.081872 
L 60.728711 89.081872 
L 60.728711 88.632511 
L 60.840451 88.632511 
L 60.840451 86.722723 
L 60.95219 86.722723 
L 60.95219 86.273362 
L 61.17567 86.273362 
L 61.17567 85.824 
L 61.287409 85.824 
L 61.287409 85.486979 
L 61.510889 85.486979 
L 61.510889 85.374638 
L 61.622628 85.374638 
L 61.622628 84.363574 
L 61.734368 84.363574 
L 61.734368 84.026553 
L 61.846108 84.026553 
L 61.846108 83.801872 
L 61.957847 83.801872 
L 61.957847 83.352511 
L 62.069587 83.352511 
L 62.069587 83.015489 
L 62.181327 83.015489 
L 62.181327 82.453787 
L 62.293066 82.453787 
L 62.293066 81.105702 
L 62.404806 81.105702 
L 62.404806 80.768681 
L 62.516546 80.768681 
L 62.516546 80.65634 
L 62.628285 80.65634 
L 62.628285 80.544 
L 62.740025 80.544 
L 62.740025 80.43166 
L 62.851765 80.43166 
L 62.851765 78.409532 
L 63.075244 78.409532 
L 63.075244 78.297191 
L 63.186984 78.297191 
L 63.186984 78.184851 
L 63.410463 78.184851 
L 63.410463 77.96017 
L 63.633942 77.96017 
L 63.633942 77.84783 
L 63.745682 77.84783 
L 63.745682 77.735489 
L 64.080901 77.735489 
L 64.080901 77.623149 
L 64.192641 77.623149 
L 64.192641 77.510809 
L 64.30438 77.510809 
L 64.30438 77.061447 
L 64.41612 77.061447 
L 64.41612 76.612085 
L 64.639599 76.612085 
L 64.639599 76.387404 
L 64.751339 76.387404 
L 64.751339 76.050383 
L 64.863079 76.050383 
L 64.863079 75.938043 
L 64.974819 75.938043 
L 64.974819 75.713362 
L 65.086558 75.713362 
L 65.086558 75.601021 
L 65.310038 75.601021 
L 65.310038 73.803574 
L 65.533517 73.803574 
L 65.533517 73.691234 
L 65.645257 73.691234 
L 65.645257 73.241872 
L 65.756996 73.241872 
L 65.756996 73.017191 
L 65.980476 73.017191 
L 65.980476 72.792511 
L 66.092215 72.792511 
L 66.092215 72.343149 
L 66.203955 72.343149 
L 66.203955 72.230809 
L 66.315695 72.230809 
L 66.315695 71.781447 
L 66.539174 71.781447 
L 66.539174 71.669106 
L 66.650914 71.556766 
L 66.650914 71.107404 
L 66.874393 71.107404 
L 66.874393 70.995064 
L 67.433091 70.995064 
L 67.433091 70.770383 
L 67.544831 70.770383 
L 67.544831 70.658043 
L 67.656571 70.658043 
L 67.656571 70.545702 
L 67.76831 70.545702 
L 67.76831 70.321021 
L 67.88005 70.321021 
L 67.88005 69.646979 
L 67.99179 69.646979 
L 67.99179 69.534638 
L 68.438748 69.534638 
L 68.438748 69.422298 
L 68.550488 69.422298 
L 68.550488 69.085277 
L 68.885707 69.085277 
L 68.885707 68.748255 
L 68.997447 68.748255 
L 68.997447 68.523574 
L 69.220926 68.523574 
L 69.220926 68.298894 
L 69.444406 68.298894 
L 69.444406 67.624851 
L 69.556145 67.624851 
L 69.556145 67.512511 
L 69.667885 67.512511 
L 69.667885 67.40017 
L 70.114844 67.40017 
L 70.114844 67.28783 
L 70.226583 67.28783 
L 70.226583 66.950809 
L 70.338323 66.950809 
L 70.338323 66.838468 
L 70.450063 66.838468 
L 70.450063 66.613787 
L 70.673542 66.613787 
L 70.673542 66.501447 
L 71.34398 66.501447 
L 71.34398 66.389106 
L 71.567459 66.389106 
L 71.567459 66.276766 
L 72.461377 66.276766 
L 72.461377 66.052085 
L 72.684856 66.052085 
L 72.684856 65.939745 
L 73.243554 65.939745 
L 73.243554 65.827404 
L 73.355294 65.827404 
L 73.355294 65.715064 
L 73.578773 65.715064 
L 73.578773 65.602723 
L 74.360951 65.602723 
L 74.360951 65.490383 
L 74.472691 65.490383 
L 74.472691 65.265702 
L 74.69617 65.265702 
L 74.69617 64.928681 
L 74.80791 64.928681 
L 74.80791 64.81634 
L 75.143129 64.81634 
L 75.143129 64.59166 
L 75.254869 64.59166 
L 75.254869 64.479319 
L 75.366608 64.479319 
L 75.366608 64.366979 
L 75.813567 64.366979 
L 75.813567 64.254638 
L 75.925307 64.254638 
L 75.925307 64.142298 
L 76.148786 64.142298 
L 76.148786 64.029957 
L 76.707484 64.029957 
L 76.707484 63.917617 
L 77.377922 63.917617 
L 77.377922 63.580596 
L 77.601402 63.580596 
L 77.601402 63.355915 
L 77.713141 63.355915 
L 77.713141 63.131234 
L 78.1601 63.131234 
L 78.1601 63.018894 
L 78.27184 63.018894 
L 78.27184 62.906553 
L 78.495319 62.906553 
L 78.495319 62.794213 
L 79.054018 62.794213 
L 79.054018 62.681872 
L 79.165757 62.681872 
L 79.165757 62.569532 
L 79.277497 62.569532 
L 79.277497 62.344851 
L 79.500976 62.344851 
L 79.500976 62.12017 
L 79.612716 62.12017 
L 79.612716 62.00783 
L 79.947935 62.00783 
L 79.947935 61.895489 
L 80.394894 61.895489 
L 80.394894 61.670809 
L 80.506633 61.670809 
L 80.506633 61.446128 
L 81.065332 61.446128 
L 81.065332 61.333787 
L 81.177071 61.333787 
L 81.177071 61.221447 
L 81.51229 61.221447 
L 81.51229 61.109106 
L 81.959249 61.109106 
L 81.959249 60.996766 
L 82.070989 60.996766 
L 82.070989 60.772085 
L 82.182728 60.772085 
L 82.182728 60.435064 
L 82.406208 60.435064 
L 82.406208 60.210383 
L 83.970563 60.210383 
L 83.970563 60.098043 
L 84.194043 60.098043 
L 84.194043 59.761021 
L 84.305782 59.761021 
L 84.305782 59.648681 
L 84.529262 59.648681 
L 84.529262 59.53634 
L 84.752741 59.53634 
L 84.752741 59.424 
L 84.864481 59.424 
L 84.864481 59.31166 
L 85.311439 59.31166 
L 85.311439 59.199319 
L 85.423179 59.199319 
L 85.423179 59.086979 
L 85.534919 59.086979 
L 85.534919 58.974638 
L 85.646658 58.974638 
L 85.646658 58.862298 
L 85.758398 58.862298 
L 85.758398 58.637617 
L 86.428836 58.637617 
L 86.428836 58.525277 
L 87.099274 58.525277 
L 87.099274 58.300596 
L 87.881452 58.300596 
L 87.881452 58.188255 
L 89.334068 58.188255 
L 89.334068 58.075915 
L 89.557547 58.075915 
L 89.557547 57.963574 
L 89.669287 57.963574 
L 89.669287 57.851234 
L 89.781026 57.851234 
L 89.781026 57.738894 
L 90.004506 57.738894 
L 90.004506 57.626553 
L 91.010163 57.626553 
L 91.010163 57.514213 
L 91.233642 57.514213 
L 91.233642 57.401872 
L 91.90408 57.401872 
L 91.90408 57.289532 
L 92.127559 57.289532 
L 92.127559 57.177191 
L 92.462778 57.177191 
L 92.462778 57.064851 
L 93.356696 57.064851 
L 93.356696 56.84017 
L 94.138874 56.84017 
L 94.138874 56.72783 
L 94.585832 56.72783 
L 94.585832 56.615489 
L 95.703229 56.615489 
L 95.703229 56.503149 
L 97.938023 56.503149 
L 97.938023 56.390809 
L 99.278899 56.390809 
L 99.278899 56.278468 
L 99.390638 56.278468 
L 99.390638 56.166128 
L 101.178473 56.166128 
L 101.178473 56.053787 
L 101.290213 56.053787 
L 101.290213 55.941447 
L 102.519349 55.941447 
L 102.519349 55.829106 
L 104.754143 55.829106 
L 104.754143 55.716766 
L 105.424581 55.716766 
L 105.424581 55.604426 
L 108.218073 55.604426 
L 108.218073 55.492085 
L 121.403354 55.492085 
L 121.403354 55.379745 
L 121.515094 55.379745 
L 121.515094 55.267404 
L 124.420325 55.267404 
L 124.420325 55.155064 
L 133.806458 55.155064 
L 133.806458 55.042723 
L 137.829086 55.042723 
L 137.829086 54.930383 
L 144.198248 54.930383 
L 144.198248 54.818043 
L 151.573066 54.818043 
L 151.573066 54.705702 
L 157.383529 54.705702 
L 157.383529 54.593362 
L 178.614068 54.593362 
L 178.725807 54.481021 
L 221.186884 54.481021 
L 221.186884 54.368681 
L 279.403254 54.368681 
L 279.403254 54.25634 
L 300.298573 54.25634 
L 300.522053 54.144 
L 414.72 54.144 
L 414.72 54.144 
" style="fill:none;stroke:#ee262e;stroke-linecap:square;stroke-width:2;"/>
   </g>
   <g id="line2d_15">
    <path clip-path="url(#pb10b64deb1)" d="M 57.6 307.584 
L 414.72 54.144 
" style="fill:none;stroke:#000000;stroke-dasharray:7.4,3.2;stroke-dashoffset:0;stroke-width:2;"/>
   </g>
   <g id="patch_3">
    <path d="M 57.6 307.584 
L 57.6 41.472 
" style="fill:none;stroke:#000000;stroke-linecap:square;stroke-linejoin:miter;stroke-width:0.8;"/>
   </g>
   <g id="patch_4">
    <path d="M 414.72 307.584 
L 414.72 41.472 
" style="fill:none;stroke:#000000;stroke-linecap:square;stroke-linejoin:miter;stroke-width:0.8;"/>
   </g>
   <g id="patch_5">
    <path d="M 57.6 307.584 
L 414.72 307.584 
" style="fill:none;stroke:#000000;stroke-linecap:square;stroke-linejoin:miter;stroke-width:0.8;"/>
   </g>
   <g id="patch_6">
    <path d="M 57.6 41.472 
L 414.72 41.472 
" style="fill:none;stroke:#000000;stroke-linecap:square;stroke-linejoin:miter;stroke-width:0.8;"/>
   </g>
   <g id="text_15">
    <!-- Class ROC Curves -->
    <g transform="translate(182.652187 35.472)scale(0.12 -0.12)">
     <defs>
      <path d="M 4122 4306 
L 4122 3641 
Q 3803 3938 3442 4084 
Q 3081 4231 2675 4231 
Q 1875 4231 1450 3742 
Q 1025 3253 1025 2328 
Q 1025 1406 1450 917 
Q 1875 428 2675 428 
Q 3081 428 3442 575 
Q 3803 722 4122 1019 
L 4122 359 
Q 3791 134 3420 21 
Q 3050 -91 2638 -91 
Q 1578 -91 968 557 
Q 359 1206 359 2328 
Q 359 3453 968 4101 
Q 1578 4750 2638 4750 
Q 3056 4750 3426 4639 
Q 3797 4528 4122 4306 
z
" id="DejaVuSans-43" transform="scale(0.015625)"/>
      <path d="M 2522 4238 
Q 1834 4238 1429 3725 
Q 1025 3213 1025 2328 
Q 1025 1447 1429 934 
Q 1834 422 2522 422 
Q 3209 422 3611 934 
Q 4013 1447 4013 2328 
Q 4013 3213 3611 3725 
Q 3209 4238 2522 4238 
z
M 2522 4750 
Q 3503 4750 4090 4092 
Q 4678 3434 4678 2328 
Q 4678 1225 4090 567 
Q 3503 -91 2522 -91 
Q 1538 -91 948 565 
Q 359 1222 359 2328 
Q 359 3434 948 4092 
Q 1538 4750 2522 4750 
z
" id="DejaVuSans-4f" transform="scale(0.015625)"/>
     </defs>
     <use xlink:href="#DejaVuSans-43"/>
     <use x="69.824219" xlink:href="#DejaVuSans-6c"/>
     <use x="97.607422" xlink:href="#DejaVuSans-61"/>
     <use x="158.886719" xlink:href="#DejaVuSans-73"/>
     <use x="210.986328" xlink:href="#DejaVuSans-73"/>
     <use x="263.085938" xlink:href="#DejaVuSans-20"/>
     <use x="294.873047" xlink:href="#DejaVuSans-52"/>
     <use x="364.355469" xlink:href="#DejaVuSans-4f"/>
     <use x="443.066406" xlink:href="#DejaVuSans-43"/>
     <use x="512.890625" xlink:href="#DejaVuSans-20"/>
     <use x="544.677734" xlink:href="#DejaVuSans-43"/>
     <use x="614.501953" xlink:href="#DejaVuSans-75"/>
     <use x="677.880859" xlink:href="#DejaVuSans-72"/>
     <use x="718.994141" xlink:href="#DejaVuSans-76"/>
     <use x="778.173828" xlink:href="#DejaVuSans-65"/>
     <use x="839.697266" xlink:href="#DejaVuSans-73"/>
    </g>
   </g>
   <g id="legend_1">
    <g id="patch_7">
     <path d="M 215.40125 302.584 
L 407.72 302.584 
Q 409.72 302.584 409.72 300.584 
L 409.72 272.22775 
Q 409.72 270.22775 407.72 270.22775 
L 215.40125 270.22775 
Q 213.40125 270.22775 213.40125 272.22775 
L 213.40125 300.584 
Q 213.40125 302.584 215.40125 302.584 
z
" style="fill:#ffffff;opacity:0.8;stroke:#cccccc;stroke-linejoin:miter;"/>
    </g>
    <g id="line2d_16">
     <path d="M 217.40125 278.326187 
L 237.40125 278.326187 
" style="fill:none;stroke:#dd02ec;stroke-linecap:square;stroke-width:2;"/>
    </g>
    <g id="line2d_17"/>
    <g id="text_16">
     <!-- ROC curve of CD4 (area = 0.99) -->
     <g transform="translate(245.40125 281.826187)scale(0.1 -0.1)">
      <defs>
       <path d="M 3122 3366 
L 3122 2828 
Q 2878 2963 2633 3030 
Q 2388 3097 2138 3097 
Q 1578 3097 1268 2742 
Q 959 2388 959 1747 
Q 959 1106 1268 751 
Q 1578 397 2138 397 
Q 2388 397 2633 464 
Q 2878 531 3122 666 
L 3122 134 
Q 2881 22 2623 -34 
Q 2366 -91 2075 -91 
Q 1284 -91 818 406 
Q 353 903 353 1747 
Q 353 2603 823 3093 
Q 1294 3584 2113 3584 
Q 2378 3584 2631 3529 
Q 2884 3475 3122 3366 
z
" id="DejaVuSans-63" transform="scale(0.015625)"/>
       <path d="M 2375 4863 
L 2375 4384 
L 1825 4384 
Q 1516 4384 1395 4259 
Q 1275 4134 1275 3809 
L 1275 3500 
L 2222 3500 
L 2222 3053 
L 1275 3053 
L 1275 0 
L 697 0 
L 697 3053 
L 147 3053 
L 147 3500 
L 697 3500 
L 697 3744 
Q 697 4328 969 4595 
Q 1241 4863 1831 4863 
L 2375 4863 
z
" id="DejaVuSans-66" transform="scale(0.015625)"/>
       <path d="M 1259 4147 
L 1259 519 
L 2022 519 
Q 2988 519 3436 956 
Q 3884 1394 3884 2338 
Q 3884 3275 3436 3711 
Q 2988 4147 2022 4147 
L 1259 4147 
z
M 628 4666 
L 1925 4666 
Q 3281 4666 3915 4102 
Q 4550 3538 4550 2338 
Q 4550 1131 3912 565 
Q 3275 0 1925 0 
L 628 0 
L 628 4666 
z
" id="DejaVuSans-44" transform="scale(0.015625)"/>
       <path d="M 1984 4856 
Q 1566 4138 1362 3434 
Q 1159 2731 1159 2009 
Q 1159 1288 1364 580 
Q 1569 -128 1984 -844 
L 1484 -844 
Q 1016 -109 783 600 
Q 550 1309 550 2009 
Q 550 2706 781 3412 
Q 1013 4119 1484 4856 
L 1984 4856 
z
" id="DejaVuSans-28" transform="scale(0.015625)"/>
       <path d="M 678 2906 
L 4684 2906 
L 4684 2381 
L 678 2381 
L 678 2906 
z
M 678 1631 
L 4684 1631 
L 4684 1100 
L 678 1100 
L 678 1631 
z
" id="DejaVuSans-3d" transform="scale(0.015625)"/>
       <path d="M 703 97 
L 703 672 
Q 941 559 1184 500 
Q 1428 441 1663 441 
Q 2288 441 2617 861 
Q 2947 1281 2994 2138 
Q 2813 1869 2534 1725 
Q 2256 1581 1919 1581 
Q 1219 1581 811 2004 
Q 403 2428 403 3163 
Q 403 3881 828 4315 
Q 1253 4750 1959 4750 
Q 2769 4750 3195 4129 
Q 3622 3509 3622 2328 
Q 3622 1225 3098 567 
Q 2575 -91 1691 -91 
Q 1453 -91 1209 -44 
Q 966 3 703 97 
z
M 1959 2075 
Q 2384 2075 2632 2365 
Q 2881 2656 2881 3163 
Q 2881 3666 2632 3958 
Q 2384 4250 1959 4250 
Q 1534 4250 1286 3958 
Q 1038 3666 1038 3163 
Q 1038 2656 1286 2365 
Q 1534 2075 1959 2075 
z
" id="DejaVuSans-39" transform="scale(0.015625)"/>
       <path d="M 513 4856 
L 1013 4856 
Q 1481 4119 1714 3412 
Q 1947 2706 1947 2009 
Q 1947 1309 1714 600 
Q 1481 -109 1013 -844 
L 513 -844 
Q 928 -128 1133 580 
Q 1338 1288 1338 2009 
Q 1338 2731 1133 3434 
Q 928 4138 513 4856 
z
" id="DejaVuSans-29" transform="scale(0.015625)"/>
      </defs>
      <use xlink:href="#DejaVuSans-52"/>
      <use x="69.482422" xlink:href="#DejaVuSans-4f"/>
      <use x="148.193359" xlink:href="#DejaVuSans-43"/>
      <use x="218.017578" xlink:href="#DejaVuSans-20"/>
      <use x="249.804688" xlink:href="#DejaVuSans-63"/>
      <use x="304.785156" xlink:href="#DejaVuSans-75"/>
      <use x="368.164062" xlink:href="#DejaVuSans-72"/>
      <use x="409.277344" xlink:href="#DejaVuSans-76"/>
      <use x="468.457031" xlink:href="#DejaVuSans-65"/>
      <use x="529.980469" xlink:href="#DejaVuSans-20"/>
      <use x="561.767578" xlink:href="#DejaVuSans-6f"/>
      <use x="622.949219" xlink:href="#DejaVuSans-66"/>
      <use x="658.154297" xlink:href="#DejaVuSans-20"/>
      <use x="689.941406" xlink:href="#DejaVuSans-43"/>
      <use x="759.765625" xlink:href="#DejaVuSans-44"/>
      <use x="836.767578" xlink:href="#DejaVuSans-34"/>
      <use x="900.390625" xlink:href="#DejaVuSans-20"/>
      <use x="932.177734" xlink:href="#DejaVuSans-28"/>
      <use x="971.191406" xlink:href="#DejaVuSans-61"/>
      <use x="1032.470703" xlink:href="#DejaVuSans-72"/>
      <use x="1071.333984" xlink:href="#DejaVuSans-65"/>
      <use x="1132.857422" xlink:href="#DejaVuSans-61"/>
      <use x="1194.136719" xlink:href="#DejaVuSans-20"/>
      <use x="1225.923828" xlink:href="#DejaVuSans-3d"/>
      <use x="1309.712891" xlink:href="#DejaVuSans-20"/>
      <use x="1341.5" xlink:href="#DejaVuSans-30"/>
      <use x="1405.123047" xlink:href="#DejaVuSans-2e"/>
      <use x="1436.910156" xlink:href="#DejaVuSans-39"/>
      <use x="1500.533203" xlink:href="#DejaVuSans-39"/>
      <use x="1564.15625" xlink:href="#DejaVuSans-29"/>
     </g>
    </g>
    <g id="line2d_18">
     <path d="M 217.40125 293.004312 
L 237.40125 293.004312 
" style="fill:none;stroke:#ee262e;stroke-linecap:square;stroke-width:2;"/>
    </g>
    <g id="line2d_19"/>
    <g id="text_17">
     <!-- ROC curve of CD8 (area = 0.99) -->
     <g transform="translate(245.40125 296.504312)scale(0.1 -0.1)">
      <use xlink:href="#DejaVuSans-52"/>
      <use x="69.482422" xlink:href="#DejaVuSans-4f"/>
      <use x="148.193359" xlink:href="#DejaVuSans-43"/>
      <use x="218.017578" xlink:href="#DejaVuSans-20"/>
      <use x="249.804688" xlink:href="#DejaVuSans-63"/>
      <use x="304.785156" xlink:href="#DejaVuSans-75"/>
      <use x="368.164062" xlink:href="#DejaVuSans-72"/>
      <use x="409.277344" xlink:href="#DejaVuSans-76"/>
      <use x="468.457031" xlink:href="#DejaVuSans-65"/>
      <use x="529.980469" xlink:href="#DejaVuSans-20"/>
      <use x="561.767578" xlink:href="#DejaVuSans-6f"/>
      <use x="622.949219" xlink:href="#DejaVuSans-66"/>
      <use x="658.154297" xlink:href="#DejaVuSans-20"/>
      <use x="689.941406" xlink:href="#DejaVuSans-43"/>
      <use x="759.765625" xlink:href="#DejaVuSans-44"/>
      <use x="836.767578" xlink:href="#DejaVuSans-38"/>
      <use x="900.390625" xlink:href="#DejaVuSans-20"/>
      <use x="932.177734" xlink:href="#DejaVuSans-28"/>
      <use x="971.191406" xlink:href="#DejaVuSans-61"/>
      <use x="1032.470703" xlink:href="#DejaVuSans-72"/>
      <use x="1071.333984" xlink:href="#DejaVuSans-65"/>
      <use x="1132.857422" xlink:href="#DejaVuSans-61"/>
      <use x="1194.136719" xlink:href="#DejaVuSans-20"/>
      <use x="1225.923828" xlink:href="#DejaVuSans-3d"/>
      <use x="1309.712891" xlink:href="#DejaVuSans-20"/>
      <use x="1341.5" xlink:href="#DejaVuSans-30"/>
      <use x="1405.123047" xlink:href="#DejaVuSans-2e"/>
      <use x="1436.910156" xlink:href="#DejaVuSans-39"/>
      <use x="1500.533203" xlink:href="#DejaVuSans-39"/>
      <use x="1564.15625" xlink:href="#DejaVuSans-29"/>
     </g>
    </g>
   </g>
  </g>
 </g>
 <defs>
  <clipPath id="pb10b64deb1">
   <rect height="266.112" width="357.12" x="57.6" y="41.472"/>
  </clipPath>
 </defs>
</svg>
