<?xml version="1.0" encoding="utf-8" standalone="no"?>
<!DOCTYPE svg PUBLIC "-//W3C//DTD SVG 1.1//EN"
  "http://www.w3.org/Graphics/SVG/1.1/DTD/svg11.dtd">
<svg height="345.6pt" version="1.1" viewBox="0 0 460.8 345.6" width="460.8pt" xmlns="http://www.w3.org/2000/svg" xmlns:xlink="http://www.w3.org/1999/xlink">
 <metadata>
  <rdf:RDF xmlns:cc="http://creativecommons.org/ns#" xmlns:dc="http://purl.org/dc/elements/1.1/" xmlns:rdf="http://www.w3.org/1999/02/22-rdf-syntax-ns#">
   <cc:Work>
    <dc:type rdf:resource="http://purl.org/dc/dcmitype/StillImage"/>
    <dc:date>2021-08-04T23:14:25.441805</dc:date>
    <dc:format>image/svg+xml</dc:format>
    <dc:creator>
     <cc:Agent>
      <dc:title>Matplotlib v3.4.2, https://matplotlib.org/</dc:title>
     </cc:Agent>
    </dc:creator>
   </cc:Work>
  </rdf:RDF>
 </metadata>
 <defs>
  <style type="text/css">*{stroke-linecap:butt;stroke-linejoin:round;}</style>
 </defs>
 <g id="figure_1">
  <g id="patch_1">
   <path d="M 0 345.6 
L 460.8 345.6 
L 460.8 0 
L 0 0 
z
" style="fill:#ffffff;"/>
  </g>
  <g id="axes_1">
   <g id="patch_2">
    <path d="M 57.6 307.584 
L 414.72 307.584 
L 414.72 41.472 
L 57.6 41.472 
z
" style="fill:#ffffff;"/>
   </g>
   <g id="matplotlib.axis_1">
    <g id="xtick_1">
     <g id="line2d_1">
      <defs>
       <path d="M 0 0 
L 0 3.5 
" id="m6ad6b8ca6d" style="stroke:#000000;stroke-width:0.8;"/>
      </defs>
      <g>
       <use style="stroke:#000000;stroke-width:0.8;" x="57.6" xlink:href="#m6ad6b8ca6d" y="307.584"/>
      </g>
     </g>
     <g id="text_1">
      <!-- 0.0 -->
      <g transform="translate(49.648438 322.182437)scale(0.1 -0.1)">
       <defs>
        <path d="M 2034 4250 
Q 1547 4250 1301 3770 
Q 1056 3291 1056 2328 
Q 1056 1369 1301 889 
Q 1547 409 2034 409 
Q 2525 409 2770 889 
Q 3016 1369 3016 2328 
Q 3016 3291 2770 3770 
Q 2525 4250 2034 4250 
z
M 2034 4750 
Q 2819 4750 3233 4129 
Q 3647 3509 3647 2328 
Q 3647 1150 3233 529 
Q 2819 -91 2034 -91 
Q 1250 -91 836 529 
Q 422 1150 422 2328 
Q 422 3509 836 4129 
Q 1250 4750 2034 4750 
z
" id="DejaVuSans-30" transform="scale(0.015625)"/>
        <path d="M 684 794 
L 1344 794 
L 1344 0 
L 684 0 
L 684 794 
z
" id="DejaVuSans-2e" transform="scale(0.015625)"/>
       </defs>
       <use xlink:href="#DejaVuSans-30"/>
       <use x="63.623047" xlink:href="#DejaVuSans-2e"/>
       <use x="95.410156" xlink:href="#DejaVuSans-30"/>
      </g>
     </g>
    </g>
    <g id="xtick_2">
     <g id="line2d_2">
      <g>
       <use style="stroke:#000000;stroke-width:0.8;" x="129.024" xlink:href="#m6ad6b8ca6d" y="307.584"/>
      </g>
     </g>
     <g id="text_2">
      <!-- 0.2 -->
      <g transform="translate(121.072438 322.182437)scale(0.1 -0.1)">
       <defs>
        <path d="M 1228 531 
L 3431 531 
L 3431 0 
L 469 0 
L 469 531 
Q 828 903 1448 1529 
Q 2069 2156 2228 2338 
Q 2531 2678 2651 2914 
Q 2772 3150 2772 3378 
Q 2772 3750 2511 3984 
Q 2250 4219 1831 4219 
Q 1534 4219 1204 4116 
Q 875 4013 500 3803 
L 500 4441 
Q 881 4594 1212 4672 
Q 1544 4750 1819 4750 
Q 2544 4750 2975 4387 
Q 3406 4025 3406 3419 
Q 3406 3131 3298 2873 
Q 3191 2616 2906 2266 
Q 2828 2175 2409 1742 
Q 1991 1309 1228 531 
z
" id="DejaVuSans-32" transform="scale(0.015625)"/>
       </defs>
       <use xlink:href="#DejaVuSans-30"/>
       <use x="63.623047" xlink:href="#DejaVuSans-2e"/>
       <use x="95.410156" xlink:href="#DejaVuSans-32"/>
      </g>
     </g>
    </g>
    <g id="xtick_3">
     <g id="line2d_3">
      <g>
       <use style="stroke:#000000;stroke-width:0.8;" x="200.448" xlink:href="#m6ad6b8ca6d" y="307.584"/>
      </g>
     </g>
     <g id="text_3">
      <!-- 0.4 -->
      <g transform="translate(192.496438 322.182437)scale(0.1 -0.1)">
       <defs>
        <path d="M 2419 4116 
L 825 1625 
L 2419 1625 
L 2419 4116 
z
M 2253 4666 
L 3047 4666 
L 3047 1625 
L 3713 1625 
L 3713 1100 
L 3047 1100 
L 3047 0 
L 2419 0 
L 2419 1100 
L 313 1100 
L 313 1709 
L 2253 4666 
z
" id="DejaVuSans-34" transform="scale(0.015625)"/>
       </defs>
       <use xlink:href="#DejaVuSans-30"/>
       <use x="63.623047" xlink:href="#DejaVuSans-2e"/>
       <use x="95.410156" xlink:href="#DejaVuSans-34"/>
      </g>
     </g>
    </g>
    <g id="xtick_4">
     <g id="line2d_4">
      <g>
       <use style="stroke:#000000;stroke-width:0.8;" x="271.872" xlink:href="#m6ad6b8ca6d" y="307.584"/>
      </g>
     </g>
     <g id="text_4">
      <!-- 0.6 -->
      <g transform="translate(263.920438 322.182437)scale(0.1 -0.1)">
       <defs>
        <path d="M 2113 2584 
Q 1688 2584 1439 2293 
Q 1191 2003 1191 1497 
Q 1191 994 1439 701 
Q 1688 409 2113 409 
Q 2538 409 2786 701 
Q 3034 994 3034 1497 
Q 3034 2003 2786 2293 
Q 2538 2584 2113 2584 
z
M 3366 4563 
L 3366 3988 
Q 3128 4100 2886 4159 
Q 2644 4219 2406 4219 
Q 1781 4219 1451 3797 
Q 1122 3375 1075 2522 
Q 1259 2794 1537 2939 
Q 1816 3084 2150 3084 
Q 2853 3084 3261 2657 
Q 3669 2231 3669 1497 
Q 3669 778 3244 343 
Q 2819 -91 2113 -91 
Q 1303 -91 875 529 
Q 447 1150 447 2328 
Q 447 3434 972 4092 
Q 1497 4750 2381 4750 
Q 2619 4750 2861 4703 
Q 3103 4656 3366 4563 
z
" id="DejaVuSans-36" transform="scale(0.015625)"/>
       </defs>
       <use xlink:href="#DejaVuSans-30"/>
       <use x="63.623047" xlink:href="#DejaVuSans-2e"/>
       <use x="95.410156" xlink:href="#DejaVuSans-36"/>
      </g>
     </g>
    </g>
    <g id="xtick_5">
     <g id="line2d_5">
      <g>
       <use style="stroke:#000000;stroke-width:0.8;" x="343.296" xlink:href="#m6ad6b8ca6d" y="307.584"/>
      </g>
     </g>
     <g id="text_5">
      <!-- 0.8 -->
      <g transform="translate(335.344438 322.182437)scale(0.1 -0.1)">
       <defs>
        <path d="M 2034 2216 
Q 1584 2216 1326 1975 
Q 1069 1734 1069 1313 
Q 1069 891 1326 650 
Q 1584 409 2034 409 
Q 2484 409 2743 651 
Q 3003 894 3003 1313 
Q 3003 1734 2745 1975 
Q 2488 2216 2034 2216 
z
M 1403 2484 
Q 997 2584 770 2862 
Q 544 3141 544 3541 
Q 544 4100 942 4425 
Q 1341 4750 2034 4750 
Q 2731 4750 3128 4425 
Q 3525 4100 3525 3541 
Q 3525 3141 3298 2862 
Q 3072 2584 2669 2484 
Q 3125 2378 3379 2068 
Q 3634 1759 3634 1313 
Q 3634 634 3220 271 
Q 2806 -91 2034 -91 
Q 1263 -91 848 271 
Q 434 634 434 1313 
Q 434 1759 690 2068 
Q 947 2378 1403 2484 
z
M 1172 3481 
Q 1172 3119 1398 2916 
Q 1625 2713 2034 2713 
Q 2441 2713 2670 2916 
Q 2900 3119 2900 3481 
Q 2900 3844 2670 4047 
Q 2441 4250 2034 4250 
Q 1625 4250 1398 4047 
Q 1172 3844 1172 3481 
z
" id="DejaVuSans-38" transform="scale(0.015625)"/>
       </defs>
       <use xlink:href="#DejaVuSans-30"/>
       <use x="63.623047" xlink:href="#DejaVuSans-2e"/>
       <use x="95.410156" xlink:href="#DejaVuSans-38"/>
      </g>
     </g>
    </g>
    <g id="xtick_6">
     <g id="line2d_6">
      <g>
       <use style="stroke:#000000;stroke-width:0.8;" x="414.72" xlink:href="#m6ad6b8ca6d" y="307.584"/>
      </g>
     </g>
     <g id="text_6">
      <!-- 1.0 -->
      <g transform="translate(406.768438 322.182437)scale(0.1 -0.1)">
       <defs>
        <path d="M 794 531 
L 1825 531 
L 1825 4091 
L 703 3866 
L 703 4441 
L 1819 4666 
L 2450 4666 
L 2450 531 
L 3481 531 
L 3481 0 
L 794 0 
L 794 531 
z
" id="DejaVuSans-31" transform="scale(0.015625)"/>
       </defs>
       <use xlink:href="#DejaVuSans-31"/>
       <use x="63.623047" xlink:href="#DejaVuSans-2e"/>
       <use x="95.410156" xlink:href="#DejaVuSans-30"/>
      </g>
     </g>
    </g>
    <g id="text_7">
     <!-- Recall -->
     <g transform="translate(221.242812 335.860562)scale(0.1 -0.1)">
      <defs>
       <path d="M 2841 2188 
Q 3044 2119 3236 1894 
Q 3428 1669 3622 1275 
L 4263 0 
L 3584 0 
L 2988 1197 
Q 2756 1666 2539 1819 
Q 2322 1972 1947 1972 
L 1259 1972 
L 1259 0 
L 628 0 
L 628 4666 
L 2053 4666 
Q 2853 4666 3247 4331 
Q 3641 3997 3641 3322 
Q 3641 2881 3436 2590 
Q 3231 2300 2841 2188 
z
M 1259 4147 
L 1259 2491 
L 2053 2491 
Q 2509 2491 2742 2702 
Q 2975 2913 2975 3322 
Q 2975 3731 2742 3939 
Q 2509 4147 2053 4147 
L 1259 4147 
z
" id="DejaVuSans-52" transform="scale(0.015625)"/>
       <path d="M 3597 1894 
L 3597 1613 
L 953 1613 
Q 991 1019 1311 708 
Q 1631 397 2203 397 
Q 2534 397 2845 478 
Q 3156 559 3463 722 
L 3463 178 
Q 3153 47 2828 -22 
Q 2503 -91 2169 -91 
Q 1331 -91 842 396 
Q 353 884 353 1716 
Q 353 2575 817 3079 
Q 1281 3584 2069 3584 
Q 2775 3584 3186 3129 
Q 3597 2675 3597 1894 
z
M 3022 2063 
Q 3016 2534 2758 2815 
Q 2500 3097 2075 3097 
Q 1594 3097 1305 2825 
Q 1016 2553 972 2059 
L 3022 2063 
z
" id="DejaVuSans-65" transform="scale(0.015625)"/>
       <path d="M 3122 3366 
L 3122 2828 
Q 2878 2963 2633 3030 
Q 2388 3097 2138 3097 
Q 1578 3097 1268 2742 
Q 959 2388 959 1747 
Q 959 1106 1268 751 
Q 1578 397 2138 397 
Q 2388 397 2633 464 
Q 2878 531 3122 666 
L 3122 134 
Q 2881 22 2623 -34 
Q 2366 -91 2075 -91 
Q 1284 -91 818 406 
Q 353 903 353 1747 
Q 353 2603 823 3093 
Q 1294 3584 2113 3584 
Q 2378 3584 2631 3529 
Q 2884 3475 3122 3366 
z
" id="DejaVuSans-63" transform="scale(0.015625)"/>
       <path d="M 2194 1759 
Q 1497 1759 1228 1600 
Q 959 1441 959 1056 
Q 959 750 1161 570 
Q 1363 391 1709 391 
Q 2188 391 2477 730 
Q 2766 1069 2766 1631 
L 2766 1759 
L 2194 1759 
z
M 3341 1997 
L 3341 0 
L 2766 0 
L 2766 531 
Q 2569 213 2275 61 
Q 1981 -91 1556 -91 
Q 1019 -91 701 211 
Q 384 513 384 1019 
Q 384 1609 779 1909 
Q 1175 2209 1959 2209 
L 2766 2209 
L 2766 2266 
Q 2766 2663 2505 2880 
Q 2244 3097 1772 3097 
Q 1472 3097 1187 3025 
Q 903 2953 641 2809 
L 641 3341 
Q 956 3463 1253 3523 
Q 1550 3584 1831 3584 
Q 2591 3584 2966 3190 
Q 3341 2797 3341 1997 
z
" id="DejaVuSans-61" transform="scale(0.015625)"/>
       <path d="M 603 4863 
L 1178 4863 
L 1178 0 
L 603 0 
L 603 4863 
z
" id="DejaVuSans-6c" transform="scale(0.015625)"/>
      </defs>
      <use xlink:href="#DejaVuSans-52"/>
      <use x="64.982422" xlink:href="#DejaVuSans-65"/>
      <use x="126.505859" xlink:href="#DejaVuSans-63"/>
      <use x="181.486328" xlink:href="#DejaVuSans-61"/>
      <use x="242.765625" xlink:href="#DejaVuSans-6c"/>
      <use x="270.548828" xlink:href="#DejaVuSans-6c"/>
     </g>
    </g>
   </g>
   <g id="matplotlib.axis_2">
    <g id="ytick_1">
     <g id="line2d_7">
      <defs>
       <path d="M 0 0 
L -3.5 0 
" id="m5ca8be0a23" style="stroke:#000000;stroke-width:0.8;"/>
      </defs>
      <g>
       <use style="stroke:#000000;stroke-width:0.8;" x="57.6" xlink:href="#m5ca8be0a23" y="307.584"/>
      </g>
     </g>
     <g id="text_8">
      <!-- 0.0 -->
      <g transform="translate(34.696875 311.383219)scale(0.1 -0.1)">
       <use xlink:href="#DejaVuSans-30"/>
       <use x="63.623047" xlink:href="#DejaVuSans-2e"/>
       <use x="95.410156" xlink:href="#DejaVuSans-30"/>
      </g>
     </g>
    </g>
    <g id="ytick_2">
     <g id="line2d_8">
      <g>
       <use style="stroke:#000000;stroke-width:0.8;" x="57.6" xlink:href="#m5ca8be0a23" y="256.896"/>
      </g>
     </g>
     <g id="text_9">
      <!-- 0.2 -->
      <g transform="translate(34.696875 260.695219)scale(0.1 -0.1)">
       <use xlink:href="#DejaVuSans-30"/>
       <use x="63.623047" xlink:href="#DejaVuSans-2e"/>
       <use x="95.410156" xlink:href="#DejaVuSans-32"/>
      </g>
     </g>
    </g>
    <g id="ytick_3">
     <g id="line2d_9">
      <g>
       <use style="stroke:#000000;stroke-width:0.8;" x="57.6" xlink:href="#m5ca8be0a23" y="206.208"/>
      </g>
     </g>
     <g id="text_10">
      <!-- 0.4 -->
      <g transform="translate(34.696875 210.007219)scale(0.1 -0.1)">
       <use xlink:href="#DejaVuSans-30"/>
       <use x="63.623047" xlink:href="#DejaVuSans-2e"/>
       <use x="95.410156" xlink:href="#DejaVuSans-34"/>
      </g>
     </g>
    </g>
    <g id="ytick_4">
     <g id="line2d_10">
      <g>
       <use style="stroke:#000000;stroke-width:0.8;" x="57.6" xlink:href="#m5ca8be0a23" y="155.52"/>
      </g>
     </g>
     <g id="text_11">
      <!-- 0.6 -->
      <g transform="translate(34.696875 159.319219)scale(0.1 -0.1)">
       <use xlink:href="#DejaVuSans-30"/>
       <use x="63.623047" xlink:href="#DejaVuSans-2e"/>
       <use x="95.410156" xlink:href="#DejaVuSans-36"/>
      </g>
     </g>
    </g>
    <g id="ytick_5">
     <g id="line2d_11">
      <g>
       <use style="stroke:#000000;stroke-width:0.8;" x="57.6" xlink:href="#m5ca8be0a23" y="104.832"/>
      </g>
     </g>
     <g id="text_12">
      <!-- 0.8 -->
      <g transform="translate(34.696875 108.631219)scale(0.1 -0.1)">
       <use xlink:href="#DejaVuSans-30"/>
       <use x="63.623047" xlink:href="#DejaVuSans-2e"/>
       <use x="95.410156" xlink:href="#DejaVuSans-38"/>
      </g>
     </g>
    </g>
    <g id="ytick_6">
     <g id="line2d_12">
      <g>
       <use style="stroke:#000000;stroke-width:0.8;" x="57.6" xlink:href="#m5ca8be0a23" y="54.144"/>
      </g>
     </g>
     <g id="text_13">
      <!-- 1.0 -->
      <g transform="translate(34.696875 57.943219)scale(0.1 -0.1)">
       <use xlink:href="#DejaVuSans-31"/>
       <use x="63.623047" xlink:href="#DejaVuSans-2e"/>
       <use x="95.410156" xlink:href="#DejaVuSans-30"/>
      </g>
     </g>
    </g>
    <g id="text_14">
     <!-- Precision -->
     <g transform="translate(28.617187 196.835031)rotate(-90)scale(0.1 -0.1)">
      <defs>
       <path d="M 1259 4147 
L 1259 2394 
L 2053 2394 
Q 2494 2394 2734 2622 
Q 2975 2850 2975 3272 
Q 2975 3691 2734 3919 
Q 2494 4147 2053 4147 
L 1259 4147 
z
M 628 4666 
L 2053 4666 
Q 2838 4666 3239 4311 
Q 3641 3956 3641 3272 
Q 3641 2581 3239 2228 
Q 2838 1875 2053 1875 
L 1259 1875 
L 1259 0 
L 628 0 
L 628 4666 
z
" id="DejaVuSans-50" transform="scale(0.015625)"/>
       <path d="M 2631 2963 
Q 2534 3019 2420 3045 
Q 2306 3072 2169 3072 
Q 1681 3072 1420 2755 
Q 1159 2438 1159 1844 
L 1159 0 
L 581 0 
L 581 3500 
L 1159 3500 
L 1159 2956 
Q 1341 3275 1631 3429 
Q 1922 3584 2338 3584 
Q 2397 3584 2469 3576 
Q 2541 3569 2628 3553 
L 2631 2963 
z
" id="DejaVuSans-72" transform="scale(0.015625)"/>
       <path d="M 603 3500 
L 1178 3500 
L 1178 0 
L 603 0 
L 603 3500 
z
M 603 4863 
L 1178 4863 
L 1178 4134 
L 603 4134 
L 603 4863 
z
" id="DejaVuSans-69" transform="scale(0.015625)"/>
       <path d="M 2834 3397 
L 2834 2853 
Q 2591 2978 2328 3040 
Q 2066 3103 1784 3103 
Q 1356 3103 1142 2972 
Q 928 2841 928 2578 
Q 928 2378 1081 2264 
Q 1234 2150 1697 2047 
L 1894 2003 
Q 2506 1872 2764 1633 
Q 3022 1394 3022 966 
Q 3022 478 2636 193 
Q 2250 -91 1575 -91 
Q 1294 -91 989 -36 
Q 684 19 347 128 
L 347 722 
Q 666 556 975 473 
Q 1284 391 1588 391 
Q 1994 391 2212 530 
Q 2431 669 2431 922 
Q 2431 1156 2273 1281 
Q 2116 1406 1581 1522 
L 1381 1569 
Q 847 1681 609 1914 
Q 372 2147 372 2553 
Q 372 3047 722 3315 
Q 1072 3584 1716 3584 
Q 2034 3584 2315 3537 
Q 2597 3491 2834 3397 
z
" id="DejaVuSans-73" transform="scale(0.015625)"/>
       <path d="M 1959 3097 
Q 1497 3097 1228 2736 
Q 959 2375 959 1747 
Q 959 1119 1226 758 
Q 1494 397 1959 397 
Q 2419 397 2687 759 
Q 2956 1122 2956 1747 
Q 2956 2369 2687 2733 
Q 2419 3097 1959 3097 
z
M 1959 3584 
Q 2709 3584 3137 3096 
Q 3566 2609 3566 1747 
Q 3566 888 3137 398 
Q 2709 -91 1959 -91 
Q 1206 -91 779 398 
Q 353 888 353 1747 
Q 353 2609 779 3096 
Q 1206 3584 1959 3584 
z
" id="DejaVuSans-6f" transform="scale(0.015625)"/>
       <path d="M 3513 2113 
L 3513 0 
L 2938 0 
L 2938 2094 
Q 2938 2591 2744 2837 
Q 2550 3084 2163 3084 
Q 1697 3084 1428 2787 
Q 1159 2491 1159 1978 
L 1159 0 
L 581 0 
L 581 3500 
L 1159 3500 
L 1159 2956 
Q 1366 3272 1645 3428 
Q 1925 3584 2291 3584 
Q 2894 3584 3203 3211 
Q 3513 2838 3513 2113 
z
" id="DejaVuSans-6e" transform="scale(0.015625)"/>
      </defs>
      <use xlink:href="#DejaVuSans-50"/>
      <use x="58.552734" xlink:href="#DejaVuSans-72"/>
      <use x="97.416016" xlink:href="#DejaVuSans-65"/>
      <use x="158.939453" xlink:href="#DejaVuSans-63"/>
      <use x="213.919922" xlink:href="#DejaVuSans-69"/>
      <use x="241.703125" xlink:href="#DejaVuSans-73"/>
      <use x="293.802734" xlink:href="#DejaVuSans-69"/>
      <use x="321.585938" xlink:href="#DejaVuSans-6f"/>
      <use x="382.767578" xlink:href="#DejaVuSans-6e"/>
     </g>
    </g>
   </g>
   <g id="line2d_13">
    <path clip-path="url(#p52941bb01f)" d="M 414.72 117.800907 
L 414.60826 117.815826 
L 414.60826 117.726837 
L 414.60826 112.559723 
L 414.496521 112.573795 
L 414.496521 112.479792 
L 414.496521 108.936795 
L 414.384781 108.950244 
L 414.384781 108.852684 
L 414.384781 106.681835 
L 414.273041 106.694882 
L 414.273041 106.595061 
L 414.273041 104.882802 
L 414.161302 104.895519 
L 414.161302 104.79387 
L 414.161302 103.101815 
L 414.049562 103.114197 
L 414.049562 103.010721 
L 414.049562 100.442417 
L 413.937822 100.454282 
L 413.937822 100.348062 
L 413.937822 99.975431 
L 413.826083 99.987207 
L 413.826083 99.880473 
L 413.826083 98.861003 
L 413.714343 98.872558 
L 413.714343 98.764641 
L 413.714343 96.527486 
L 413.602603 96.538564 
L 413.602603 96.428184 
L 413.602603 93.630677 
L 413.490864 93.641143 
L 413.490864 93.584424 
L 413.490864 92.099109 
L 413.379124 92.109244 
L 413.379124 92.051692 
L 413.379124 91.474477 
L 413.267384 91.484477 
L 413.267384 91.426572 
L 413.267384 90.845816 
L 413.155645 90.85568 
L 413.155645 90.797419 
L 413.155645 89.27158 
L 413.043905 89.281092 
L 413.043905 89.221963 
L 413.043905 88.331174 
L 412.932165 88.340474 
L 412.932165 88.280816 
L 412.932165 87.742429 
L 412.820426 87.751596 
L 412.820426 87.691598 
L 412.820426 86.059183 
L 412.708686 86.06796 
L 412.708686 86.007021 
L 412.708686 85.579502 
L 412.596946 85.588169 
L 412.596946 85.526945 
L 412.596946 82.106856 
L 412.485207 82.114689 
L 412.485207 82.051515 
L 412.485207 81.608301 
L 412.373467 81.616013 
L 412.373467 81.552539 
L 412.373467 79.889603 
L 412.261727 79.89689 
L 412.261727 79.832426 
L 412.261727 79.767925 
L 412.038248 79.717878 
L 412.038248 77.302797 
L 411.926508 77.309433 
L 411.926508 77.243433 
L 411.926508 77.177394 
L 411.703029 77.124499 
L 411.703029 76.793379 
L 411.591289 76.79989 
L 411.591289 76.733534 
L 411.591289 76.534239 
L 411.479549 76.540684 
L 411.479549 76.474158 
L 411.479549 75.404515 
L 411.36781 75.410667 
L 411.36781 75.343467 
L 411.36781 75.141636 
L 411.14433 75.153809 
L 411.14433 75.086418 
L 411.14433 74.884012 
L 411.032591 74.890032 
L 411.032591 74.822467 
L 411.032591 74.687219 
L 410.697372 74.637403 
L 410.697372 74.025995 
L 410.585632 74.031795 
L 410.585632 73.963644 
L 410.585632 73.827223 
L 410.473892 73.832972 
L 410.473892 73.764684 
L 410.473892 73.696355 
L 410.362153 73.702071 
L 410.362153 73.633684 
L 410.362153 73.428284 
L 410.250413 73.43393 
L 410.250413 73.365365 
L 410.250413 73.228114 
L 410.138673 73.233707 
L 410.138673 73.165003 
L 410.138673 72.889782 
L 410.026934 72.895286 
L 410.026934 72.826361 
L 410.026934 72.065509 
L 409.915194 72.07079 
L 409.915194 72.001358 
L 409.915194 71.862372 
L 409.691715 71.803238 
L 409.691715 71.733604 
L 409.468235 71.674287 
L 409.468235 70.412363 
L 409.133016 70.356318 
L 409.133016 70.285714 
L 408.909537 70.295328 
L 408.909537 70.224643 
L 408.909537 70.153917 
L 408.574318 70.097413 
L 408.574318 70.026543 
L 408.127359 69.974532 
L 408.127359 69.903498 
L 408.01562 69.908211 
L 408.01562 69.837114 
L 408.01562 69.623569 
L 407.90388 69.628205 
L 407.90388 69.556918 
L 407.90388 69.342801 
L 407.680401 69.351921 
L 407.680401 69.280423 
L 407.680401 69.208881 
L 407.568661 69.213405 
L 407.568661 69.141801 
L 407.568661 68.998463 
L 407.345181 68.935625 
L 407.345181 68.791947 
L 407.009962 68.733222 
L 407.009962 67.575859 
L 406.674743 67.515304 
L 406.674743 67.223781 
L 406.563004 67.227753 
L 406.563004 67.154741 
L 406.563004 67.081685 
L 406.339524 67.089552 
L 406.339524 67.016409 
L 406.339524 66.943221 
L 406.227785 66.947116 
L 406.227785 66.873863 
L 406.227785 66.653835 
L 406.004305 66.587989 
L 406.004305 66.293643 
L 405.780826 66.301067 
L 405.780826 66.227325 
L 405.669086 66.083358 
L 405.669086 65.861526 
L 404.886909 65.812508 
L 404.886909 65.664 
L 404.663429 65.596714 
L 404.663429 65.522303 
L 404.55169 65.525803 
L 404.55169 65.451323 
L 404.55169 65.376798 
L 404.43995 65.380256 
L 404.43995 65.305663 
L 404.43995 64.932007 
L 403.881252 64.873691 
L 403.881252 64.798665 
L 403.769512 64.801959 
L 403.769512 64.726864 
L 403.769512 64.576535 
L 403.434293 64.58623 
L 403.434293 64.510929 
L 403.434293 64.360186 
L 403.322553 64.363355 
L 403.322553 64.287891 
L 403.322553 64.21238 
L 403.099074 64.218634 
L 403.099074 64.143031 
L 403.099074 64.067381 
L 402.875594 64.073552 
L 402.875594 63.99781 
L 402.875594 63.618393 
L 402.652115 63.548228 
L 402.652115 63.47211 
L 402.093417 63.4104 
L 402.093417 63.181272 
L 401.869937 63.110412 
L 401.869937 62.957233 
L 400.97602 62.90253 
L 400.97602 62.825634 
L 399.858623 62.775826 
L 399.858623 62.621324 
L 399.076446 62.562602 
L 399.076446 62.485063 
L 398.741227 62.415331 
L 398.741227 62.337623 
L 397.847309 62.280503 
L 397.847309 62.124458 
L 397.62383 62.129538 
L 397.62383 62.051393 
L 397.62383 61.894953 
L 397.176871 61.826451 
L 397.176871 61.669517 
L 396.953392 61.595735 
L 396.953392 61.517095 
L 396.394693 61.450086 
L 396.394693 61.371222 
L 395.612516 61.308382 
L 395.612516 61.229244 
L 394.942078 61.242931 
L 394.942078 61.163594 
L 394.942078 61.004767 
L 394.718598 61.009192 
L 394.718598 60.929652 
L 394.718598 60.85006 
L 394.606859 60.852225 
L 394.606859 60.772557 
L 394.606859 60.692837 
L 394.04816 60.623534 
L 394.04816 60.543586 
L 393.265982 60.477944 
L 393.265982 60.397714 
L 393.042503 60.321446 
L 393.042503 60.160624 
L 392.819024 60.16454 
L 392.819024 60.084 
L 392.819024 60.003407 
L 392.372065 59.930301 
L 392.372065 59.849501 
L 391.925106 59.856957 
L 391.925106 59.776 
L 391.925106 59.694991 
L 391.813367 59.696806 
L 391.813367 59.615717 
L 391.813367 59.534576 
L 391.142929 59.463829 
L 391.142929 59.382425 
L 390.360751 59.312842 
L 390.360751 59.231147 
L 390.249011 59.232822 
L 390.249011 59.151046 
L 390.249011 59.069217 
L 390.137272 59.07084 
L 390.137272 58.988931 
L 390.137272 58.82495 
L 389.913792 58.82804 
L 389.913792 58.745915 
L 389.913792 58.663736 
L 388.125957 58.605083 
L 388.125957 58.356766 
L 387.790738 58.278008 
L 387.790738 58.194989 
L 387.455519 58.115884 
L 387.455519 58.032672 
L 386.896821 57.955765 
L 386.896821 57.872305 
L 386.673342 57.791229 
L 386.673342 57.707602 
L 386.561602 57.708796 
L 386.561602 57.625085 
L 386.561602 57.541319 
L 385.220726 57.47088 
L 385.220726 57.302397 
L 382.985932 57.238925 
L 382.985932 57.153976 
L 382.650713 57.071951 
L 382.650713 56.986801 
L 382.315494 56.904408 
L 382.315494 56.819056 
L 381.086358 56.743385 
L 381.086358 56.657598 
L 380.192441 56.578415 
L 380.192441 56.492277 
L 378.963304 56.414655 
L 378.963304 56.241434 
L 377.734168 56.162393 
L 377.734168 56.075306 
L 374.381977 56.007529 
L 374.381977 55.919412 
L 372.929362 55.838952 
L 372.929362 55.75031 
L 371.029787 55.670747 
L 371.029787 55.581448 
L 367.565857 55.507069 
L 367.565857 55.416654 
L 364.101927 55.339472 
L 364.101927 55.247913 
L 350.804906 55.202004 
L 350.804906 55.106187 
L 338.513542 55.048067 
L 338.513542 54.947933 
L 328.121752 54.874675 
L 328.121752 54.770551 
L 314.936471 54.693047 
L 314.936471 54.583428 
L 293.705932 54.622866 
L 293.482453 54.503659 
L 251.133116 54.582225 
L 251.133116 54.436318 
L 192.916746 54.561873 
L 192.916746 54.353109 
L 172.021427 54.391259 
L 171.797947 54.144 
L 57.6 54.144 
L 57.6 54.144 
" style="fill:none;stroke:#f7628a;stroke-linecap:square;stroke-width:2;"/>
   </g>
   <g id="line2d_14">
    <path clip-path="url(#p52941bb01f)" d="M 414.72 178.518393 
L 414.561702 178.429831 
L 414.561702 172.794566 
L 414.403404 172.822556 
L 414.403404 172.790758 
L 414.403404 153.938556 
L 414.245106 153.965404 
L 414.245106 153.882703 
L 414.245106 136.472127 
L 414.086809 136.342812 
L 414.086809 126.106455 
L 413.928511 126.129344 
L 413.928511 126.071611 
L 413.928511 123.077713 
L 413.770213 123.100014 
L 413.770213 123.040311 
L 413.770213 119.074909 
L 413.611915 119.096381 
L 413.611915 119.03403 
L 413.611915 115.475284 
L 413.453617 115.495962 
L 413.453617 115.431177 
L 413.453617 113.135836 
L 413.295319 113.155977 
L 413.295319 113.089574 
L 413.295319 107.415395 
L 413.137021 107.434127 
L 413.137021 107.363726 
L 413.137021 105.587463 
L 412.820426 105.552256 
L 412.820426 96.712899 
L 412.662128 96.728688 
L 412.662128 96.650449 
L 412.662128 94.755127 
L 412.50383 94.770337 
L 412.50383 94.690602 
L 412.50383 94.291027 
L 412.345532 94.306103 
L 412.345532 94.225983 
L 412.345532 92.692195 
L 412.187234 92.706786 
L 412.187234 92.625424 
L 412.187234 91.808401 
L 411.870638 91.754959 
L 411.870638 90.432882 
L 411.554043 90.377469 
L 411.554043 89.373819 
L 411.395745 89.38739 
L 411.395745 89.303306 
L 411.395745 87.693317 
L 411.237447 87.706346 
L 411.237447 87.620923 
L 411.237447 86.849123 
L 411.079149 86.861878 
L 411.079149 86.77576 
L 411.079149 86.517 
L 410.920851 86.529651 
L 410.920851 86.443234 
L 410.920851 85.92331 
L 410.604255 85.948235 
L 410.604255 85.861285 
L 410.604255 85.250719 
L 410.445957 85.262961 
L 410.445957 85.175433 
L 410.445957 85.00017 
L 410.28766 85.012333 
L 410.28766 84.924568 
L 410.28766 84.836734 
L 410.129362 84.848846 
L 410.129362 84.760913 
L 410.129362 84.320203 
L 409.971064 84.332144 
L 409.971064 84.243762 
L 409.971064 84.155311 
L 409.812766 84.167201 
L 409.812766 84.078649 
L 409.812766 83.367698 
L 409.654468 83.379322 
L 409.654468 83.290104 
L 409.654468 83.200815 
L 409.337872 83.134546 
L 409.337872 83.045053 
L 409.179574 83.056581 
L 409.179574 82.966985 
L 409.179574 82.877317 
L 409.021277 82.888792 
L 409.021277 82.799022 
L 409.021277 81.716156 
L 408.862979 81.727229 
L 408.862979 81.636487 
L 408.862979 81.0905 
L 408.546383 81.112222 
L 408.546383 81.020903 
L 408.546383 80.5632 
L 408.388085 80.573879 
L 408.388085 80.482083 
L 408.388085 80.02199 
L 407.913191 79.961143 
L 407.913191 79.868726 
L 407.596596 79.797073 
L 407.596596 79.704439 
L 407.438298 79.714838 
L 407.438298 79.622095 
L 407.438298 79.343413 
L 407.121702 79.270854 
L 407.121702 79.0844 
L 406.963404 79.094588 
L 406.963404 79.001213 
L 406.963404 78.907761 
L 406.330213 78.85466 
L 406.330213 78.6671 
L 406.171915 78.677158 
L 406.171915 78.583229 
L 406.171915 77.355089 
L 405.855319 77.374256 
L 405.855319 77.279167 
L 405.855319 77.184 
L 405.06383 77.136278 
L 405.06383 77.040776 
L 404.905532 77.050269 
L 404.905532 76.954651 
L 404.905532 76.667322 
L 404.747234 76.67668 
L 404.747234 76.580708 
L 404.747234 76.388526 
L 404.430638 76.310764 
L 404.430638 75.82814 
L 403.797447 75.767488 
L 403.797447 75.379023 
L 403.639149 75.387923 
L 403.639149 75.290566 
L 403.639149 75.095607 
L 403.164255 75.024303 
L 403.164255 74.828628 
L 402.689362 74.756693 
L 402.689362 74.658536 
L 402.531064 74.667189 
L 402.531064 74.568911 
L 402.531064 74.174972 
L 402.372766 74.183442 
L 402.372766 74.084711 
L 402.372766 73.985896 
L 402.05617 73.903729 
L 402.05617 73.506988 
L 401.422979 73.440368 
L 401.422979 73.241011 
L 400.948085 73.265432 
L 400.948085 73.16551 
L 400.948085 72.664615 
L 400.789787 72.672534 
L 400.789787 72.572058 
L 400.789787 72.169296 
L 400.631489 72.177022 
L 400.631489 72.076075 
L 400.631489 71.975042 
L 400.314894 71.889155 
L 400.314894 71.483484 
L 399.998298 71.396701 
L 399.998298 71.294897 
L 399.681702 71.309695 
L 399.681702 71.20772 
L 399.681702 71.003508 
L 399.048511 70.930286 
L 399.048511 70.725213 
L 398.573617 70.644 
L 398.573617 69.921936 
L 398.415319 69.928808 
L 398.415319 69.825255 
L 398.415319 69.721611 
L 398.098723 69.631385 
L 398.098723 69.110929 
L 397.940426 69.117479 
L 397.940426 69.013072 
L 397.940426 68.908573 
L 397.62383 68.921519 
L 397.62383 68.816842 
L 397.62383 68.081527 
L 397.465532 68.087662 
L 397.465532 67.982203 
L 397.465532 67.876652 
L 397.307234 67.882704 
L 397.307234 67.777016 
L 397.307234 67.247173 
L 397.148936 67.252966 
L 397.148936 67.146671 
L 397.148936 67.040283 
L 396.674043 66.950809 
L 396.674043 66.844098 
L 396.040851 66.75968 
L 396.040851 66.330785 
L 395.724255 66.234094 
L 395.724255 66.126444 
L 394.774468 66.158597 
L 394.774468 66.050577 
L 394.774468 65.94246 
L 394.457872 65.953032 
L 394.457872 65.844726 
L 394.457872 65.736323 
L 393.666383 65.65364 
L 393.666383 65.326855 
L 393.033191 65.237718 
L 393.033191 64.799479 
L 391.925106 64.723165 
L 391.925106 64.612924 
L 391.450213 64.516715 
L 391.450213 64.406129 
L 390.975319 64.309324 
L 390.975319 63.753648 
L 390.817021 63.75804 
L 390.817021 63.534961 
L 390.18383 63.552176 
L 389.550638 63.232883 
L 389.234043 63.241248 
L 389.234043 63.128751 
L 389.075745 63.13289 
L 389.075745 63.02024 
L 388.442553 63.036632 
L 388.442553 62.923677 
L 388.125957 62.931795 
L 388.125957 62.70537 
L 387.809362 62.713301 
L 387.809362 62.599829 
L 387.17617 62.615532 
L 387.17617 62.501752 
L 387.017872 62.505636 
L 387.017872 62.277656 
L 384.485106 62.338639 
L 384.485106 62.108578 
L 384.326809 62.112315 
L 384.326809 61.99707 
L 384.010213 62.004451 
L 384.010213 61.888993 
L 383.851915 61.892636 
L 383.851915 61.777016 
L 383.377021 61.787808 
L 383.377021 61.671921 
L 383.060426 61.679026 
L 383.060426 61.446711 
L 382.427234 61.460536 
L 382.427234 61.344 
L 381.794043 61.357662 
L 381.794043 61.240801 
L 381.635745 61.244171 
L 381.635745 61.127145 
L 381.477447 61.130464 
L 381.477447 60.778555 
L 381.319149 60.781714 
L 381.319149 60.664133 
L 381.160851 60.667241 
L 381.160851 60.431634 
L 380.844255 60.437639 
L 380.844255 60.201361 
L 380.685957 60.204258 
L 380.685957 60.085895 
L 380.52766 60.088739 
L 380.52766 59.851561 
L 377.678298 59.901216 
L 377.678298 59.781447 
L 377.52 59.784174 
L 377.52 59.664232 
L 377.361702 59.666906 
L 377.361702 59.546791 
L 377.203404 59.54941 
L 377.203404 59.429121 
L 376.728511 59.436822 
L 376.728511 59.316245 
L 374.828936 59.346581 
L 374.828936 59.225193 
L 374.037447 59.237647 
L 374.037447 59.115849 
L 373.562553 59.123175 
L 373.562553 59.001081 
L 372.929362 59.010647 
L 372.929362 58.888197 
L 372.612766 58.892876 
L 372.612766 58.770186 
L 372.137872 58.777043 
L 372.137872 58.654054 
L 370.713191 58.674209 
L 370.713191 58.550557 
L 370.554894 58.552748 
L 370.554894 58.304955 
L 370.08 58.311175 
L 370.08 58.186911 
L 369.446809 58.194989 
L 369.446809 57.9456 
L 368.813617 57.953218 
L 368.813617 57.82809 
L 366.122553 57.859753 
L 366.122553 57.733439 
L 365.489362 57.740716 
L 365.489362 57.61402 
L 364.697872 57.622841 
L 364.697872 57.495699 
L 364.539574 57.497405 
L 364.539574 57.370069 
L 364.222979 57.373358 
L 364.222979 57.245764 
L 358.365957 57.305414 
L 358.365957 57.175264 
L 358.20766 57.176841 
L 358.20766 57.046488 
L 357.891064 57.049513 
L 357.891064 56.918891 
L 353.617021 56.958511 
L 353.617021 56.825905 
L 352.350638 56.837305 
L 352.350638 56.704 
L 343.485957 56.782553 
L 343.485957 56.645053 
L 342.219574 56.65607 
L 342.219574 56.517818 
L 337.787234 56.555013 
L 337.787234 56.414459 
L 336.204255 56.427243 
L 336.204255 56.285746 
L 333.671489 56.305228 
L 333.671489 56.162294 
L 329.397447 56.193775 
L 329.397447 56.048462 
L 327.65617 56.060649 
L 327.65617 55.914244 
L 325.914894 55.925652 
L 325.914894 55.778138 
L 321.640851 55.804417 
L 321.640851 55.654369 
L 313.409362 55.702672 
L 313.409362 55.547668 
L 306.602553 55.58582 
L 306.602553 55.426429 
L 303.278298 55.443692 
L 303.278298 55.28196 
L 301.853617 55.288568 
L 301.853617 55.125691 
L 293.780426 55.159113 
L 293.780426 54.990493 
L 288.24 55.010758 
L 288.24 54.837881 
L 282.541277 54.855411 
L 282.541277 54.677933 
L 275.259574 54.695756 
L 275.259574 54.512105 
L 263.228936 54.533608 
L 263.228936 54.338954 
L 245.024681 54.357873 
L 245.024681 54.144 
L 57.6 54.144 
L 57.6 54.144 
" style="fill:none;stroke:#f3deb0;stroke-linecap:square;stroke-width:2;"/>
   </g>
   <g id="line2d_15">
    <path clip-path="url(#p52941bb01f)" d="M 414.72 148.779853 
L 414.654497 148.717689 
L 414.588995 145.026862 
L 414.523492 145.037559 
L 414.523492 144.999286 
L 414.45799 125.859715 
L 414.392487 125.869155 
L 414.392487 125.773427 
L 414.326985 116.521674 
L 414.261482 116.53031 
L 414.261482 116.424449 
L 414.195979 114.480101 
L 414.130477 114.488546 
L 414.130477 114.38037 
L 414.130477 111.997169 
L 414.064974 112.005373 
L 413.999472 112.013579 
L 413.999472 111.90257 
L 413.933969 109.236482 
L 413.868467 109.244409 
L 413.868467 109.158757 
L 413.802964 107.059234 
L 413.737461 107.066934 
L 413.737461 106.979359 
L 413.671959 103.359298 
L 413.606456 103.366595 
L 413.606456 103.275724 
L 413.540954 102.032812 
L 413.475451 102.039961 
L 413.475451 101.947871 
L 413.409949 101.246158 
L 413.344446 101.253219 
L 413.344446 101.160389 
L 413.278944 95.864123 
L 413.213441 95.870543 
L 413.213441 95.772768 
L 413.147938 93.837524 
L 413.082436 93.843692 
L 413.082436 93.744 
L 413.016933 92.512771 
L 412.951431 92.518772 
L 412.951431 92.417803 
L 412.885928 91.985104 
L 412.820426 91.99104 
L 412.820426 91.889537 
L 412.754923 90.498427 
L 412.68942 90.504171 
L 412.68942 90.401224 
L 412.623918 89.787139 
L 412.558415 89.792792 
L 412.558415 89.689131 
L 412.492913 88.931465 
L 412.42741 88.937005 
L 412.42741 88.832489 
L 412.361908 88.418897 
L 412.296405 88.42437 
L 412.296405 88.319325 
L 412.230902 87.162448 
L 412.099897 87.17306 
L 412.099897 87.066752 
L 412.034395 84.162065 
L 411.90339 84.062565 
L 411.90339 83.660942 
L 411.837887 83.665764 
L 411.772384 83.670588 
L 411.772384 83.560773 
L 411.706882 82.941167 
L 411.641379 82.945889 
L 411.641379 82.835321 
L 411.575877 82.137126 
L 411.510374 82.141735 
L 411.510374 82.067478 
L 411.444872 81.923397 
L 411.379369 81.927976 
L 411.379369 81.853551 
L 411.313866 81.671818 
L 411.182861 81.606279 
L 411.117359 80.748896 
L 411.051856 80.753308 
L 411.051856 80.678037 
L 410.986354 80.002642 
L 410.855348 79.935446 
L 410.789846 79.597934 
L 410.724343 79.602181 
L 410.724343 79.526073 
L 410.658841 79.416036 
L 410.593338 79.420258 
L 410.593338 79.344 
L 410.527836 78.697859 
L 410.396831 78.66771 
L 410.396831 78.629314 
L 410.331328 77.978616 
L 410.265825 77.982627 
L 410.265825 77.905333 
L 410.200323 77.522024 
L 410.13482 77.525967 
L 410.13482 77.448336 
L 410.069318 77.219027 
L 410.003815 77.222925 
L 410.003815 77.145061 
L 409.938313 77.032037 
L 409.807307 77.039781 
L 409.807307 76.961749 
L 409.807307 76.883665 
L 409.741805 76.887515 
L 409.479795 76.824732 
L 409.414292 76.632823 
L 409.348789 76.636639 
L 409.348789 76.558232 
L 409.348789 76.244071 
L 409.283287 76.247829 
L 409.217784 76.251587 
L 409.217784 76.172889 
L 409.217784 76.094138 
L 409.152282 76.097873 
L 409.086779 76.10161 
L 409.086779 76.022781 
L 409.086779 75.943898 
L 409.021277 75.947612 
L 408.955774 75.951327 
L 408.955774 75.872365 
L 408.890271 75.6784 
L 408.628261 75.613896 
L 408.562759 75.419268 
L 408.497256 75.422906 
L 408.497256 75.34348 
L 408.431753 74.349526 
L 408.366251 74.352998 
L 408.366251 74.272809 
L 408.366251 74.152421 
L 408.300748 74.155863 
L 408.104241 74.126014 
L 408.104241 74.085818 
L 408.038738 74.008806 
L 407.907733 73.975396 
L 407.907733 73.935126 
L 407.907733 73.894841 
L 407.84223 73.898247 
L 407.711225 73.824414 
L 407.645723 73.504608 
L 407.58022 73.507955 
L 407.58022 73.427002 
L 407.514718 73.024665 
L 407.187205 72.959667 
L 407.187205 72.796762 
L 407.121702 72.8 
L 406.925194 72.728132 
L 406.925194 72.687316 
L 406.859692 72.690539 
L 406.663184 72.659359 
L 406.663184 72.618489 
L 406.597682 72.539906 
L 406.532179 72.543109 
L 406.532179 72.461241 
L 406.532179 72.256324 
L 406.466676 72.259481 
L 406.335671 72.224754 
L 406.335671 72.183693 
L 406.270169 72.063553 
L 406.073661 71.99064 
L 406.008158 71.663916 
L 405.877153 71.67005 
L 405.877153 71.587419 
L 405.811651 71.507771 
L 405.615143 71.434102 
L 405.54964 71.27133 
L 405.222128 71.203318 
L 405.156625 70.414222 
L 405.091123 70.417092 
L 405.091123 70.333391 
L 405.091123 70.249631 
L 405.02562 70.252475 
L 404.76361 70.17997 
L 404.698107 69.88868 
L 404.501599 69.812833 
L 404.436097 69.520349 
L 404.108584 69.449435 
L 404.043081 69.198057 
L 403.715569 69.126564 
L 403.715569 68.828971 
L 403.650066 68.831589 
L 403.584563 68.834209 
L 403.584563 68.749017 
L 403.519061 68.666356 
L 403.257051 68.591348 
L 403.191548 68.422948 
L 403.060543 68.342446 
L 402.99504 68.216434 
L 402.798533 68.181096 
L 402.798533 68.138177 
L 402.73303 67.83977 
L 402.602025 67.758545 
L 402.602025 67.629213 
L 402.536522 67.631638 
L 402.405517 67.593325 
L 402.405517 67.550146 
L 402.405517 67.506951 
L 402.340015 67.509356 
L 402.143507 67.430082 
L 402.143507 67.386811 
L 402.078004 67.389197 
L 401.815994 67.355429 
L 401.815994 67.312089 
L 401.815994 67.138577 
L 401.750492 67.140923 
L 401.422979 67.065728 
L 401.357476 66.763229 
L 401.291974 66.765514 
L 401.291974 66.678261 
L 401.226471 66.549511 
L 401.095466 66.466554 
L 401.029963 66.381255 
L 400.898958 66.341893 
L 400.898958 66.298071 
L 400.833456 65.949066 
L 400.70245 65.953363 
L 400.70245 65.865369 
L 400.636948 65.603092 
L 400.571445 65.605182 
L 400.571445 65.5169 
L 400.505943 65.38641 
L 400.243933 65.306105 
L 400.17843 65.086525 
L 400.112927 65.088527 
L 400.112927 64.99975 
L 400.047425 64.77947 
L 399.719912 64.700125 
L 399.719912 64.566354 
L 399.654409 64.568267 
L 399.064886 64.496103 
L 399.064886 64.451368 
L 398.999384 64.453266 
L 398.802876 64.414179 
L 398.802876 64.36938 
L 398.802876 64.279732 
L 398.737373 64.2816 
L 398.278855 64.204857 
L 398.278855 64.159911 
L 398.213353 64.161761 
L 397.820337 64.082824 
L 397.820337 64.037772 
L 397.754835 64.039603 
L 397.230814 63.963978 
L 397.165312 63.875419 
L 396.706794 63.797512 
L 396.706794 63.752207 
L 396.641291 63.753993 
L 396.182773 63.675722 
L 396.117271 63.450185 
L 395.789758 63.458866 
L 395.789758 63.36774 
L 395.724255 63.232622 
L 395.527748 63.192045 
L 395.527748 63.146356 
L 395.527748 63.054926 
L 395.462245 63.056593 
L 395.33124 63.014163 
L 395.33124 62.96838 
L 395.33124 62.922581 
L 395.265737 62.924225 
L 394.741717 62.845598 
L 394.741717 62.799673 
L 394.676214 62.801297 
L 394.414204 62.715815 
L 394.414204 62.669796 
L 394.348701 62.671398 
L 394.086691 62.585641 
L 394.086691 62.539528 
L 394.021189 62.541108 
L 393.693676 62.456641 
L 393.628173 62.273208 
L 392.973147 62.1958 
L 392.842142 62.013019 
L 392.842142 61.966518 
L 392.77664 61.968 
L 392.449127 61.928846 
L 392.449127 61.882259 
L 392.383624 61.743833 
L 391.859604 61.661901 
L 391.859604 61.61513 
L 391.794101 61.616551 
L 391.532091 61.528559 
L 391.532091 61.481691 
L 391.466588 61.483089 
L 391.139076 61.396194 
L 391.139076 61.25522 
L 391.073573 61.256577 
L 389.632517 61.192101 
L 389.567014 61.051578 
L 389.436009 60.959521 
L 389.436009 60.912138 
L 389.370506 60.913439 
L 389.108496 60.823738 
L 389.042993 60.730025 
L 388.45347 60.646222 
L 388.45347 60.598578 
L 388.387968 60.599824 
L 388.19146 60.508149 
L 388.19146 60.460414 
L 388.125957 60.461635 
L 387.863947 60.370907 
L 387.863947 60.275217 
L 387.798445 60.276404 
L 387.208921 60.191162 
L 387.143419 60.000186 
L 386.946911 59.907359 
L 386.946911 59.811043 
L 386.881409 59.812145 
L 386.684901 59.815454 
L 386.684901 59.718989 
L 386.619398 59.623517 
L 385.767865 59.540554 
L 385.767865 59.492089 
L 385.702362 59.493134 
L 385.112839 59.405387 
L 385.112839 59.308138 
L 385.047337 59.30915 
L 384.850829 59.214789 
L 384.850829 59.16606 
L 384.785326 59.167046 
L 384.654321 59.071447 
L 384.654321 58.9738 
L 384.588819 58.974749 
L 382.558239 58.906025 
L 382.558239 58.856831 
L 382.492737 58.857763 
L 382.230726 58.812235 
L 382.230726 58.762954 
L 382.230726 58.713653 
L 382.165224 58.714559 
L 381.968716 58.618541 
L 381.968716 58.569143 
L 381.903213 58.570021 
L 381.379193 58.478031 
L 381.379193 58.378923 
L 381.31369 58.379766 
L 380.462157 58.291292 
L 380.462157 58.241533 
L 380.396654 58.242351 
L 380.134644 58.195799 
L 380.134644 58.145951 
L 380.069142 58.046976 
L 379.741629 57.95093 
L 379.741629 57.850896 
L 379.676126 57.851639 
L 379.348613 57.755126 
L 379.348613 57.70498 
L 379.283111 57.705694 
L 378.104065 57.61788 
L 378.038562 57.517747 
L 376.20449 57.435429 
L 376.20449 57.384658 
L 376.138988 57.385315 
L 375.287454 57.292002 
L 375.287454 57.241026 
L 375.221952 57.241657 
L 374.566926 57.14574 
L 374.566926 57.094588 
L 374.501423 57.095191 
L 372.012326 57.015102 
L 372.012326 56.963481 
L 371.946823 56.964062 
L 371.553808 56.864099 
L 371.553808 56.81234 
L 371.488305 56.812891 
L 370.767777 56.71513 
L 370.767777 56.66318 
L 370.702274 56.663702 
L 369.130213 56.571788 
L 369.130213 56.519505 
L 369.06471 56.52 
L 367.296141 56.4282 
L 367.296141 56.375547 
L 367.230638 56.376015 
L 361.597417 56.309691 
L 361.597417 56.202286 
L 361.531915 56.202726 
L 358.84631 56.112466 
L 358.84631 56.058199 
L 358.780807 56.058613 
L 356.619222 55.962947 
L 356.619222 55.908211 
L 356.55372 55.908595 
L 354.654145 55.809542 
L 354.654145 55.754377 
L 354.588643 55.75473 
L 351.575525 55.715373 
L 351.575525 55.659588 
L 351.510022 55.659924 
L 349.741453 55.61289 
L 349.741453 55.556709 
L 349.67595 55.557024 
L 348.103888 55.508109 
L 348.103888 55.451564 
L 348.038386 55.451857 
L 337.492472 55.442179 
L 337.492472 55.38346 
L 337.42697 55.383748 
L 333.365811 55.342298 
L 333.365811 55.282652 
L 333.300308 55.282921 
L 329.894175 55.236675 
L 329.894175 55.176218 
L 329.828672 55.176466 
L 328.518621 55.120647 
L 328.518621 55.059828 
L 328.453118 55.060048 
L 319.086251 55.029711 
L 319.086251 54.966652 
L 319.020748 54.966857 
L 314.894087 54.915898 
L 314.894087 54.851753 
L 314.828584 54.851933 
L 309.260866 54.86755 
L 309.260866 54.801944 
L 309.260866 54.736303 
L 309.195363 54.736457 
L 298.91146 54.693166 
L 298.91146 54.62465 
L 298.845957 54.62478 
L 282.208305 54.58669 
L 282.011798 54.513338 
L 253.387175 54.48271 
L 253.387175 54.398118 
L 253.321673 54.398203 
L 205.439296 54.368382 
L 205.439296 54.256241 
L 205.373793 54.256291 
L 202.033162 54.258887 
L 201.902157 54.144 
L 57.6 54.144 
L 57.6 54.144 
" style="fill:none;stroke:#ff1493;stroke-dasharray:4,6.6;stroke-dashoffset:0;stroke-width:4;"/>
   </g>
   <g id="line2d_16">
    <path clip-path="url(#p52941bb01f)" d="M 57.6 307.584 
L 414.72 54.144 
" style="fill:none;stroke:#000000;stroke-dasharray:7.4,3.2;stroke-dashoffset:0;stroke-width:2;"/>
   </g>
   <g id="line2d_17">
    <path clip-path="url(#p52941bb01f)" d="M 57.6 307.584 
L 414.72 54.144 
" style="fill:none;stroke:#000000;stroke-dasharray:7.4,3.2;stroke-dashoffset:0;stroke-width:2;"/>
   </g>
   <g id="patch_3">
    <path d="M 57.6 307.584 
L 57.6 41.472 
" style="fill:none;stroke:#000000;stroke-linecap:square;stroke-linejoin:miter;stroke-width:0.8;"/>
   </g>
   <g id="patch_4">
    <path d="M 414.72 307.584 
L 414.72 41.472 
" style="fill:none;stroke:#000000;stroke-linecap:square;stroke-linejoin:miter;stroke-width:0.8;"/>
   </g>
   <g id="patch_5">
    <path d="M 57.6 307.584 
L 414.72 307.584 
" style="fill:none;stroke:#000000;stroke-linecap:square;stroke-linejoin:miter;stroke-width:0.8;"/>
   </g>
   <g id="patch_6">
    <path d="M 57.6 41.472 
L 414.72 41.472 
" style="fill:none;stroke:#000000;stroke-linecap:square;stroke-linejoin:miter;stroke-width:0.8;"/>
   </g>
   <g id="text_15">
    <!-- PR Curves -->
    <g transform="translate(205.63875 35.472)scale(0.12 -0.12)">
     <defs>
      <path id="DejaVuSans-20" transform="scale(0.015625)"/>
      <path d="M 4122 4306 
L 4122 3641 
Q 3803 3938 3442 4084 
Q 3081 4231 2675 4231 
Q 1875 4231 1450 3742 
Q 1025 3253 1025 2328 
Q 1025 1406 1450 917 
Q 1875 428 2675 428 
Q 3081 428 3442 575 
Q 3803 722 4122 1019 
L 4122 359 
Q 3791 134 3420 21 
Q 3050 -91 2638 -91 
Q 1578 -91 968 557 
Q 359 1206 359 2328 
Q 359 3453 968 4101 
Q 1578 4750 2638 4750 
Q 3056 4750 3426 4639 
Q 3797 4528 4122 4306 
z
" id="DejaVuSans-43" transform="scale(0.015625)"/>
      <path d="M 544 1381 
L 544 3500 
L 1119 3500 
L 1119 1403 
Q 1119 906 1312 657 
Q 1506 409 1894 409 
Q 2359 409 2629 706 
Q 2900 1003 2900 1516 
L 2900 3500 
L 3475 3500 
L 3475 0 
L 2900 0 
L 2900 538 
Q 2691 219 2414 64 
Q 2138 -91 1772 -91 
Q 1169 -91 856 284 
Q 544 659 544 1381 
z
M 1991 3584 
L 1991 3584 
z
" id="DejaVuSans-75" transform="scale(0.015625)"/>
      <path d="M 191 3500 
L 800 3500 
L 1894 563 
L 2988 3500 
L 3597 3500 
L 2284 0 
L 1503 0 
L 191 3500 
z
" id="DejaVuSans-76" transform="scale(0.015625)"/>
     </defs>
     <use xlink:href="#DejaVuSans-50"/>
     <use x="60.302734" xlink:href="#DejaVuSans-52"/>
     <use x="129.785156" xlink:href="#DejaVuSans-20"/>
     <use x="161.572266" xlink:href="#DejaVuSans-43"/>
     <use x="231.396484" xlink:href="#DejaVuSans-75"/>
     <use x="294.775391" xlink:href="#DejaVuSans-72"/>
     <use x="335.888672" xlink:href="#DejaVuSans-76"/>
     <use x="395.068359" xlink:href="#DejaVuSans-65"/>
     <use x="456.591797" xlink:href="#DejaVuSans-73"/>
    </g>
   </g>
   <g id="legend_1">
    <g id="patch_7">
     <path d="M 64.6 302.584 
L 286.989063 302.584 
Q 288.989063 302.584 288.989063 300.584 
L 288.989063 257.549625 
Q 288.989063 255.549625 286.989063 255.549625 
L 64.6 255.549625 
Q 62.6 255.549625 62.6 257.549625 
L 62.6 300.584 
Q 62.6 302.584 64.6 302.584 
z
" style="fill:#ffffff;opacity:0.8;stroke:#cccccc;stroke-linejoin:miter;"/>
    </g>
    <g id="line2d_18">
     <path d="M 66.6 263.648062 
L 86.6 263.648062 
" style="fill:none;stroke:#f7628a;stroke-linecap:square;stroke-width:2;"/>
    </g>
    <g id="line2d_19"/>
    <g id="text_16">
     <!-- PR curve of CD4 (area = 0.99) -->
     <g transform="translate(94.6 267.148062)scale(0.1 -0.1)">
      <defs>
       <path d="M 2375 4863 
L 2375 4384 
L 1825 4384 
Q 1516 4384 1395 4259 
Q 1275 4134 1275 3809 
L 1275 3500 
L 2222 3500 
L 2222 3053 
L 1275 3053 
L 1275 0 
L 697 0 
L 697 3053 
L 147 3053 
L 147 3500 
L 697 3500 
L 697 3744 
Q 697 4328 969 4595 
Q 1241 4863 1831 4863 
L 2375 4863 
z
" id="DejaVuSans-66" transform="scale(0.015625)"/>
       <path d="M 1259 4147 
L 1259 519 
L 2022 519 
Q 2988 519 3436 956 
Q 3884 1394 3884 2338 
Q 3884 3275 3436 3711 
Q 2988 4147 2022 4147 
L 1259 4147 
z
M 628 4666 
L 1925 4666 
Q 3281 4666 3915 4102 
Q 4550 3538 4550 2338 
Q 4550 1131 3912 565 
Q 3275 0 1925 0 
L 628 0 
L 628 4666 
z
" id="DejaVuSans-44" transform="scale(0.015625)"/>
       <path d="M 1984 4856 
Q 1566 4138 1362 3434 
Q 1159 2731 1159 2009 
Q 1159 1288 1364 580 
Q 1569 -128 1984 -844 
L 1484 -844 
Q 1016 -109 783 600 
Q 550 1309 550 2009 
Q 550 2706 781 3412 
Q 1013 4119 1484 4856 
L 1984 4856 
z
" id="DejaVuSans-28" transform="scale(0.015625)"/>
       <path d="M 678 2906 
L 4684 2906 
L 4684 2381 
L 678 2381 
L 678 2906 
z
M 678 1631 
L 4684 1631 
L 4684 1100 
L 678 1100 
L 678 1631 
z
" id="DejaVuSans-3d" transform="scale(0.015625)"/>
       <path d="M 703 97 
L 703 672 
Q 941 559 1184 500 
Q 1428 441 1663 441 
Q 2288 441 2617 861 
Q 2947 1281 2994 2138 
Q 2813 1869 2534 1725 
Q 2256 1581 1919 1581 
Q 1219 1581 811 2004 
Q 403 2428 403 3163 
Q 403 3881 828 4315 
Q 1253 4750 1959 4750 
Q 2769 4750 3195 4129 
Q 3622 3509 3622 2328 
Q 3622 1225 3098 567 
Q 2575 -91 1691 -91 
Q 1453 -91 1209 -44 
Q 966 3 703 97 
z
M 1959 2075 
Q 2384 2075 2632 2365 
Q 2881 2656 2881 3163 
Q 2881 3666 2632 3958 
Q 2384 4250 1959 4250 
Q 1534 4250 1286 3958 
Q 1038 3666 1038 3163 
Q 1038 2656 1286 2365 
Q 1534 2075 1959 2075 
z
" id="DejaVuSans-39" transform="scale(0.015625)"/>
       <path d="M 513 4856 
L 1013 4856 
Q 1481 4119 1714 3412 
Q 1947 2706 1947 2009 
Q 1947 1309 1714 600 
Q 1481 -109 1013 -844 
L 513 -844 
Q 928 -128 1133 580 
Q 1338 1288 1338 2009 
Q 1338 2731 1133 3434 
Q 928 4138 513 4856 
z
" id="DejaVuSans-29" transform="scale(0.015625)"/>
      </defs>
      <use xlink:href="#DejaVuSans-50"/>
      <use x="60.302734" xlink:href="#DejaVuSans-52"/>
      <use x="129.785156" xlink:href="#DejaVuSans-20"/>
      <use x="161.572266" xlink:href="#DejaVuSans-63"/>
      <use x="216.552734" xlink:href="#DejaVuSans-75"/>
      <use x="279.931641" xlink:href="#DejaVuSans-72"/>
      <use x="321.044922" xlink:href="#DejaVuSans-76"/>
      <use x="380.224609" xlink:href="#DejaVuSans-65"/>
      <use x="441.748047" xlink:href="#DejaVuSans-20"/>
      <use x="473.535156" xlink:href="#DejaVuSans-6f"/>
      <use x="534.716797" xlink:href="#DejaVuSans-66"/>
      <use x="569.921875" xlink:href="#DejaVuSans-20"/>
      <use x="601.708984" xlink:href="#DejaVuSans-43"/>
      <use x="671.533203" xlink:href="#DejaVuSans-44"/>
      <use x="748.535156" xlink:href="#DejaVuSans-34"/>
      <use x="812.158203" xlink:href="#DejaVuSans-20"/>
      <use x="843.945312" xlink:href="#DejaVuSans-28"/>
      <use x="882.958984" xlink:href="#DejaVuSans-61"/>
      <use x="944.238281" xlink:href="#DejaVuSans-72"/>
      <use x="983.101562" xlink:href="#DejaVuSans-65"/>
      <use x="1044.625" xlink:href="#DejaVuSans-61"/>
      <use x="1105.904297" xlink:href="#DejaVuSans-20"/>
      <use x="1137.691406" xlink:href="#DejaVuSans-3d"/>
      <use x="1221.480469" xlink:href="#DejaVuSans-20"/>
      <use x="1253.267578" xlink:href="#DejaVuSans-30"/>
      <use x="1316.890625" xlink:href="#DejaVuSans-2e"/>
      <use x="1348.677734" xlink:href="#DejaVuSans-39"/>
      <use x="1412.300781" xlink:href="#DejaVuSans-39"/>
      <use x="1475.923828" xlink:href="#DejaVuSans-29"/>
     </g>
    </g>
    <g id="line2d_20">
     <path d="M 66.6 278.326188 
L 86.6 278.326188 
" style="fill:none;stroke:#f3deb0;stroke-linecap:square;stroke-width:2;"/>
    </g>
    <g id="line2d_21"/>
    <g id="text_17">
     <!-- PR curve of CD8 (area = 0.99) -->
     <g transform="translate(94.6 281.826188)scale(0.1 -0.1)">
      <use xlink:href="#DejaVuSans-50"/>
      <use x="60.302734" xlink:href="#DejaVuSans-52"/>
      <use x="129.785156" xlink:href="#DejaVuSans-20"/>
      <use x="161.572266" xlink:href="#DejaVuSans-63"/>
      <use x="216.552734" xlink:href="#DejaVuSans-75"/>
      <use x="279.931641" xlink:href="#DejaVuSans-72"/>
      <use x="321.044922" xlink:href="#DejaVuSans-76"/>
      <use x="380.224609" xlink:href="#DejaVuSans-65"/>
      <use x="441.748047" xlink:href="#DejaVuSans-20"/>
      <use x="473.535156" xlink:href="#DejaVuSans-6f"/>
      <use x="534.716797" xlink:href="#DejaVuSans-66"/>
      <use x="569.921875" xlink:href="#DejaVuSans-20"/>
      <use x="601.708984" xlink:href="#DejaVuSans-43"/>
      <use x="671.533203" xlink:href="#DejaVuSans-44"/>
      <use x="748.535156" xlink:href="#DejaVuSans-38"/>
      <use x="812.158203" xlink:href="#DejaVuSans-20"/>
      <use x="843.945312" xlink:href="#DejaVuSans-28"/>
      <use x="882.958984" xlink:href="#DejaVuSans-61"/>
      <use x="944.238281" xlink:href="#DejaVuSans-72"/>
      <use x="983.101562" xlink:href="#DejaVuSans-65"/>
      <use x="1044.625" xlink:href="#DejaVuSans-61"/>
      <use x="1105.904297" xlink:href="#DejaVuSans-20"/>
      <use x="1137.691406" xlink:href="#DejaVuSans-3d"/>
      <use x="1221.480469" xlink:href="#DejaVuSans-20"/>
      <use x="1253.267578" xlink:href="#DejaVuSans-30"/>
      <use x="1316.890625" xlink:href="#DejaVuSans-2e"/>
      <use x="1348.677734" xlink:href="#DejaVuSans-39"/>
      <use x="1412.300781" xlink:href="#DejaVuSans-39"/>
      <use x="1475.923828" xlink:href="#DejaVuSans-29"/>
     </g>
    </g>
    <g id="line2d_22">
     <path d="M 66.6 293.004312 
L 86.6 293.004312 
" style="fill:none;stroke:#ff1493;stroke-dasharray:4,6.6;stroke-dashoffset:0;stroke-width:4;"/>
    </g>
    <g id="line2d_23"/>
    <g id="text_18">
     <!-- micro-average PR curve (area = 0.99) -->
     <g transform="translate(94.6 296.504312)scale(0.1 -0.1)">
      <defs>
       <path d="M 3328 2828 
Q 3544 3216 3844 3400 
Q 4144 3584 4550 3584 
Q 5097 3584 5394 3201 
Q 5691 2819 5691 2113 
L 5691 0 
L 5113 0 
L 5113 2094 
Q 5113 2597 4934 2840 
Q 4756 3084 4391 3084 
Q 3944 3084 3684 2787 
Q 3425 2491 3425 1978 
L 3425 0 
L 2847 0 
L 2847 2094 
Q 2847 2600 2669 2842 
Q 2491 3084 2119 3084 
Q 1678 3084 1418 2786 
Q 1159 2488 1159 1978 
L 1159 0 
L 581 0 
L 581 3500 
L 1159 3500 
L 1159 2956 
Q 1356 3278 1631 3431 
Q 1906 3584 2284 3584 
Q 2666 3584 2933 3390 
Q 3200 3197 3328 2828 
z
" id="DejaVuSans-6d" transform="scale(0.015625)"/>
       <path d="M 313 2009 
L 1997 2009 
L 1997 1497 
L 313 1497 
L 313 2009 
z
" id="DejaVuSans-2d" transform="scale(0.015625)"/>
       <path d="M 2906 1791 
Q 2906 2416 2648 2759 
Q 2391 3103 1925 3103 
Q 1463 3103 1205 2759 
Q 947 2416 947 1791 
Q 947 1169 1205 825 
Q 1463 481 1925 481 
Q 2391 481 2648 825 
Q 2906 1169 2906 1791 
z
M 3481 434 
Q 3481 -459 3084 -895 
Q 2688 -1331 1869 -1331 
Q 1566 -1331 1297 -1286 
Q 1028 -1241 775 -1147 
L 775 -588 
Q 1028 -725 1275 -790 
Q 1522 -856 1778 -856 
Q 2344 -856 2625 -561 
Q 2906 -266 2906 331 
L 2906 616 
Q 2728 306 2450 153 
Q 2172 0 1784 0 
Q 1141 0 747 490 
Q 353 981 353 1791 
Q 353 2603 747 3093 
Q 1141 3584 1784 3584 
Q 2172 3584 2450 3431 
Q 2728 3278 2906 2969 
L 2906 3500 
L 3481 3500 
L 3481 434 
z
" id="DejaVuSans-67" transform="scale(0.015625)"/>
      </defs>
      <use xlink:href="#DejaVuSans-6d"/>
      <use x="97.412109" xlink:href="#DejaVuSans-69"/>
      <use x="125.195312" xlink:href="#DejaVuSans-63"/>
      <use x="180.175781" xlink:href="#DejaVuSans-72"/>
      <use x="219.039062" xlink:href="#DejaVuSans-6f"/>
      <use x="282.095703" xlink:href="#DejaVuSans-2d"/>
      <use x="318.179688" xlink:href="#DejaVuSans-61"/>
      <use x="379.458984" xlink:href="#DejaVuSans-76"/>
      <use x="438.638672" xlink:href="#DejaVuSans-65"/>
      <use x="500.162109" xlink:href="#DejaVuSans-72"/>
      <use x="541.275391" xlink:href="#DejaVuSans-61"/>
      <use x="602.554688" xlink:href="#DejaVuSans-67"/>
      <use x="666.03125" xlink:href="#DejaVuSans-65"/>
      <use x="727.554688" xlink:href="#DejaVuSans-20"/>
      <use x="759.341797" xlink:href="#DejaVuSans-50"/>
      <use x="819.644531" xlink:href="#DejaVuSans-52"/>
      <use x="889.126953" xlink:href="#DejaVuSans-20"/>
      <use x="920.914062" xlink:href="#DejaVuSans-63"/>
      <use x="975.894531" xlink:href="#DejaVuSans-75"/>
      <use x="1039.273438" xlink:href="#DejaVuSans-72"/>
      <use x="1080.386719" xlink:href="#DejaVuSans-76"/>
      <use x="1139.566406" xlink:href="#DejaVuSans-65"/>
      <use x="1201.089844" xlink:href="#DejaVuSans-20"/>
      <use x="1232.876953" xlink:href="#DejaVuSans-28"/>
      <use x="1271.890625" xlink:href="#DejaVuSans-61"/>
      <use x="1333.169922" xlink:href="#DejaVuSans-72"/>
      <use x="1372.033203" xlink:href="#DejaVuSans-65"/>
      <use x="1433.556641" xlink:href="#DejaVuSans-61"/>
      <use x="1494.835938" xlink:href="#DejaVuSans-20"/>
      <use x="1526.623047" xlink:href="#DejaVuSans-3d"/>
      <use x="1610.412109" xlink:href="#DejaVuSans-20"/>
      <use x="1642.199219" xlink:href="#DejaVuSans-30"/>
      <use x="1705.822266" xlink:href="#DejaVuSans-2e"/>
      <use x="1737.609375" xlink:href="#DejaVuSans-39"/>
      <use x="1801.232422" xlink:href="#DejaVuSans-39"/>
      <use x="1864.855469" xlink:href="#DejaVuSans-29"/>
     </g>
    </g>
   </g>
  </g>
 </g>
 <defs>
  <clipPath id="p52941bb01f">
   <rect height="266.112" width="357.12" x="57.6" y="41.472"/>
  </clipPath>
 </defs>
</svg>
