<?xml version="1.0" encoding="utf-8" standalone="no"?>
<!DOCTYPE svg PUBLIC "-//W3C//DTD SVG 1.1//EN"
  "http://www.w3.org/Graphics/SVG/1.1/DTD/svg11.dtd">
<svg height="345.6pt" version="1.1" viewBox="0 0 460.8 345.6" width="460.8pt" xmlns="http://www.w3.org/2000/svg" xmlns:xlink="http://www.w3.org/1999/xlink">
 <metadata>
  <rdf:RDF xmlns:cc="http://creativecommons.org/ns#" xmlns:dc="http://purl.org/dc/elements/1.1/" xmlns:rdf="http://www.w3.org/1999/02/22-rdf-syntax-ns#">
   <cc:Work>
    <dc:type rdf:resource="http://purl.org/dc/dcmitype/StillImage"/>
    <dc:date>2021-08-31T13:14:47.675521</dc:date>
    <dc:format>image/svg+xml</dc:format>
    <dc:creator>
     <cc:Agent>
      <dc:title>Matplotlib v3.4.2, https://matplotlib.org/</dc:title>
     </cc:Agent>
    </dc:creator>
   </cc:Work>
  </rdf:RDF>
 </metadata>
 <defs>
  <style type="text/css">*{stroke-linecap:butt;stroke-linejoin:round;}</style>
 </defs>
 <g id="figure_1">
  <g id="patch_1">
   <path d="M 0 345.6 
L 460.8 345.6 
L 460.8 0 
L 0 0 
z
" style="fill:#ffffff;"/>
  </g>
  <g id="axes_1">
   <g id="patch_2">
    <path d="M 57.6 307.584 
L 414.72 307.584 
L 414.72 41.472 
L 57.6 41.472 
z
" style="fill:#ffffff;"/>
   </g>
   <g id="matplotlib.axis_1">
    <g id="xtick_1">
     <g id="line2d_1">
      <defs>
       <path d="M 0 0 
L 0 3.5 
" id="m5545a2cf99" style="stroke:#000000;stroke-width:0.8;"/>
      </defs>
      <g>
       <use style="stroke:#000000;stroke-width:0.8;" x="57.6" xlink:href="#m5545a2cf99" y="307.584"/>
      </g>
     </g>
     <g id="text_1">
      <!-- 0.0 -->
      <g transform="translate(49.648438 322.182437)scale(0.1 -0.1)">
       <defs>
        <path d="M 2034 4250 
Q 1547 4250 1301 3770 
Q 1056 3291 1056 2328 
Q 1056 1369 1301 889 
Q 1547 409 2034 409 
Q 2525 409 2770 889 
Q 3016 1369 3016 2328 
Q 3016 3291 2770 3770 
Q 2525 4250 2034 4250 
z
M 2034 4750 
Q 2819 4750 3233 4129 
Q 3647 3509 3647 2328 
Q 3647 1150 3233 529 
Q 2819 -91 2034 -91 
Q 1250 -91 836 529 
Q 422 1150 422 2328 
Q 422 3509 836 4129 
Q 1250 4750 2034 4750 
z
" id="DejaVuSans-30" transform="scale(0.015625)"/>
        <path d="M 684 794 
L 1344 794 
L 1344 0 
L 684 0 
L 684 794 
z
" id="DejaVuSans-2e" transform="scale(0.015625)"/>
       </defs>
       <use xlink:href="#DejaVuSans-30"/>
       <use x="63.623047" xlink:href="#DejaVuSans-2e"/>
       <use x="95.410156" xlink:href="#DejaVuSans-30"/>
      </g>
     </g>
    </g>
    <g id="xtick_2">
     <g id="line2d_2">
      <g>
       <use style="stroke:#000000;stroke-width:0.8;" x="129.024" xlink:href="#m5545a2cf99" y="307.584"/>
      </g>
     </g>
     <g id="text_2">
      <!-- 0.2 -->
      <g transform="translate(121.072438 322.182437)scale(0.1 -0.1)">
       <defs>
        <path d="M 1228 531 
L 3431 531 
L 3431 0 
L 469 0 
L 469 531 
Q 828 903 1448 1529 
Q 2069 2156 2228 2338 
Q 2531 2678 2651 2914 
Q 2772 3150 2772 3378 
Q 2772 3750 2511 3984 
Q 2250 4219 1831 4219 
Q 1534 4219 1204 4116 
Q 875 4013 500 3803 
L 500 4441 
Q 881 4594 1212 4672 
Q 1544 4750 1819 4750 
Q 2544 4750 2975 4387 
Q 3406 4025 3406 3419 
Q 3406 3131 3298 2873 
Q 3191 2616 2906 2266 
Q 2828 2175 2409 1742 
Q 1991 1309 1228 531 
z
" id="DejaVuSans-32" transform="scale(0.015625)"/>
       </defs>
       <use xlink:href="#DejaVuSans-30"/>
       <use x="63.623047" xlink:href="#DejaVuSans-2e"/>
       <use x="95.410156" xlink:href="#DejaVuSans-32"/>
      </g>
     </g>
    </g>
    <g id="xtick_3">
     <g id="line2d_3">
      <g>
       <use style="stroke:#000000;stroke-width:0.8;" x="200.448" xlink:href="#m5545a2cf99" y="307.584"/>
      </g>
     </g>
     <g id="text_3">
      <!-- 0.4 -->
      <g transform="translate(192.496438 322.182437)scale(0.1 -0.1)">
       <defs>
        <path d="M 2419 4116 
L 825 1625 
L 2419 1625 
L 2419 4116 
z
M 2253 4666 
L 3047 4666 
L 3047 1625 
L 3713 1625 
L 3713 1100 
L 3047 1100 
L 3047 0 
L 2419 0 
L 2419 1100 
L 313 1100 
L 313 1709 
L 2253 4666 
z
" id="DejaVuSans-34" transform="scale(0.015625)"/>
       </defs>
       <use xlink:href="#DejaVuSans-30"/>
       <use x="63.623047" xlink:href="#DejaVuSans-2e"/>
       <use x="95.410156" xlink:href="#DejaVuSans-34"/>
      </g>
     </g>
    </g>
    <g id="xtick_4">
     <g id="line2d_4">
      <g>
       <use style="stroke:#000000;stroke-width:0.8;" x="271.872" xlink:href="#m5545a2cf99" y="307.584"/>
      </g>
     </g>
     <g id="text_4">
      <!-- 0.6 -->
      <g transform="translate(263.920438 322.182437)scale(0.1 -0.1)">
       <defs>
        <path d="M 2113 2584 
Q 1688 2584 1439 2293 
Q 1191 2003 1191 1497 
Q 1191 994 1439 701 
Q 1688 409 2113 409 
Q 2538 409 2786 701 
Q 3034 994 3034 1497 
Q 3034 2003 2786 2293 
Q 2538 2584 2113 2584 
z
M 3366 4563 
L 3366 3988 
Q 3128 4100 2886 4159 
Q 2644 4219 2406 4219 
Q 1781 4219 1451 3797 
Q 1122 3375 1075 2522 
Q 1259 2794 1537 2939 
Q 1816 3084 2150 3084 
Q 2853 3084 3261 2657 
Q 3669 2231 3669 1497 
Q 3669 778 3244 343 
Q 2819 -91 2113 -91 
Q 1303 -91 875 529 
Q 447 1150 447 2328 
Q 447 3434 972 4092 
Q 1497 4750 2381 4750 
Q 2619 4750 2861 4703 
Q 3103 4656 3366 4563 
z
" id="DejaVuSans-36" transform="scale(0.015625)"/>
       </defs>
       <use xlink:href="#DejaVuSans-30"/>
       <use x="63.623047" xlink:href="#DejaVuSans-2e"/>
       <use x="95.410156" xlink:href="#DejaVuSans-36"/>
      </g>
     </g>
    </g>
    <g id="xtick_5">
     <g id="line2d_5">
      <g>
       <use style="stroke:#000000;stroke-width:0.8;" x="343.296" xlink:href="#m5545a2cf99" y="307.584"/>
      </g>
     </g>
     <g id="text_5">
      <!-- 0.8 -->
      <g transform="translate(335.344438 322.182437)scale(0.1 -0.1)">
       <defs>
        <path d="M 2034 2216 
Q 1584 2216 1326 1975 
Q 1069 1734 1069 1313 
Q 1069 891 1326 650 
Q 1584 409 2034 409 
Q 2484 409 2743 651 
Q 3003 894 3003 1313 
Q 3003 1734 2745 1975 
Q 2488 2216 2034 2216 
z
M 1403 2484 
Q 997 2584 770 2862 
Q 544 3141 544 3541 
Q 544 4100 942 4425 
Q 1341 4750 2034 4750 
Q 2731 4750 3128 4425 
Q 3525 4100 3525 3541 
Q 3525 3141 3298 2862 
Q 3072 2584 2669 2484 
Q 3125 2378 3379 2068 
Q 3634 1759 3634 1313 
Q 3634 634 3220 271 
Q 2806 -91 2034 -91 
Q 1263 -91 848 271 
Q 434 634 434 1313 
Q 434 1759 690 2068 
Q 947 2378 1403 2484 
z
M 1172 3481 
Q 1172 3119 1398 2916 
Q 1625 2713 2034 2713 
Q 2441 2713 2670 2916 
Q 2900 3119 2900 3481 
Q 2900 3844 2670 4047 
Q 2441 4250 2034 4250 
Q 1625 4250 1398 4047 
Q 1172 3844 1172 3481 
z
" id="DejaVuSans-38" transform="scale(0.015625)"/>
       </defs>
       <use xlink:href="#DejaVuSans-30"/>
       <use x="63.623047" xlink:href="#DejaVuSans-2e"/>
       <use x="95.410156" xlink:href="#DejaVuSans-38"/>
      </g>
     </g>
    </g>
    <g id="xtick_6">
     <g id="line2d_6">
      <g>
       <use style="stroke:#000000;stroke-width:0.8;" x="414.72" xlink:href="#m5545a2cf99" y="307.584"/>
      </g>
     </g>
     <g id="text_6">
      <!-- 1.0 -->
      <g transform="translate(406.768438 322.182437)scale(0.1 -0.1)">
       <defs>
        <path d="M 794 531 
L 1825 531 
L 1825 4091 
L 703 3866 
L 703 4441 
L 1819 4666 
L 2450 4666 
L 2450 531 
L 3481 531 
L 3481 0 
L 794 0 
L 794 531 
z
" id="DejaVuSans-31" transform="scale(0.015625)"/>
       </defs>
       <use xlink:href="#DejaVuSans-31"/>
       <use x="63.623047" xlink:href="#DejaVuSans-2e"/>
       <use x="95.410156" xlink:href="#DejaVuSans-30"/>
      </g>
     </g>
    </g>
    <g id="text_7">
     <!-- False Positive Rate -->
     <g transform="translate(189.693594 335.860562)scale(0.1 -0.1)">
      <defs>
       <path d="M 628 4666 
L 3309 4666 
L 3309 4134 
L 1259 4134 
L 1259 2759 
L 3109 2759 
L 3109 2228 
L 1259 2228 
L 1259 0 
L 628 0 
L 628 4666 
z
" id="DejaVuSans-46" transform="scale(0.015625)"/>
       <path d="M 2194 1759 
Q 1497 1759 1228 1600 
Q 959 1441 959 1056 
Q 959 750 1161 570 
Q 1363 391 1709 391 
Q 2188 391 2477 730 
Q 2766 1069 2766 1631 
L 2766 1759 
L 2194 1759 
z
M 3341 1997 
L 3341 0 
L 2766 0 
L 2766 531 
Q 2569 213 2275 61 
Q 1981 -91 1556 -91 
Q 1019 -91 701 211 
Q 384 513 384 1019 
Q 384 1609 779 1909 
Q 1175 2209 1959 2209 
L 2766 2209 
L 2766 2266 
Q 2766 2663 2505 2880 
Q 2244 3097 1772 3097 
Q 1472 3097 1187 3025 
Q 903 2953 641 2809 
L 641 3341 
Q 956 3463 1253 3523 
Q 1550 3584 1831 3584 
Q 2591 3584 2966 3190 
Q 3341 2797 3341 1997 
z
" id="DejaVuSans-61" transform="scale(0.015625)"/>
       <path d="M 603 4863 
L 1178 4863 
L 1178 0 
L 603 0 
L 603 4863 
z
" id="DejaVuSans-6c" transform="scale(0.015625)"/>
       <path d="M 2834 3397 
L 2834 2853 
Q 2591 2978 2328 3040 
Q 2066 3103 1784 3103 
Q 1356 3103 1142 2972 
Q 928 2841 928 2578 
Q 928 2378 1081 2264 
Q 1234 2150 1697 2047 
L 1894 2003 
Q 2506 1872 2764 1633 
Q 3022 1394 3022 966 
Q 3022 478 2636 193 
Q 2250 -91 1575 -91 
Q 1294 -91 989 -36 
Q 684 19 347 128 
L 347 722 
Q 666 556 975 473 
Q 1284 391 1588 391 
Q 1994 391 2212 530 
Q 2431 669 2431 922 
Q 2431 1156 2273 1281 
Q 2116 1406 1581 1522 
L 1381 1569 
Q 847 1681 609 1914 
Q 372 2147 372 2553 
Q 372 3047 722 3315 
Q 1072 3584 1716 3584 
Q 2034 3584 2315 3537 
Q 2597 3491 2834 3397 
z
" id="DejaVuSans-73" transform="scale(0.015625)"/>
       <path d="M 3597 1894 
L 3597 1613 
L 953 1613 
Q 991 1019 1311 708 
Q 1631 397 2203 397 
Q 2534 397 2845 478 
Q 3156 559 3463 722 
L 3463 178 
Q 3153 47 2828 -22 
Q 2503 -91 2169 -91 
Q 1331 -91 842 396 
Q 353 884 353 1716 
Q 353 2575 817 3079 
Q 1281 3584 2069 3584 
Q 2775 3584 3186 3129 
Q 3597 2675 3597 1894 
z
M 3022 2063 
Q 3016 2534 2758 2815 
Q 2500 3097 2075 3097 
Q 1594 3097 1305 2825 
Q 1016 2553 972 2059 
L 3022 2063 
z
" id="DejaVuSans-65" transform="scale(0.015625)"/>
       <path id="DejaVuSans-20" transform="scale(0.015625)"/>
       <path d="M 1259 4147 
L 1259 2394 
L 2053 2394 
Q 2494 2394 2734 2622 
Q 2975 2850 2975 3272 
Q 2975 3691 2734 3919 
Q 2494 4147 2053 4147 
L 1259 4147 
z
M 628 4666 
L 2053 4666 
Q 2838 4666 3239 4311 
Q 3641 3956 3641 3272 
Q 3641 2581 3239 2228 
Q 2838 1875 2053 1875 
L 1259 1875 
L 1259 0 
L 628 0 
L 628 4666 
z
" id="DejaVuSans-50" transform="scale(0.015625)"/>
       <path d="M 1959 3097 
Q 1497 3097 1228 2736 
Q 959 2375 959 1747 
Q 959 1119 1226 758 
Q 1494 397 1959 397 
Q 2419 397 2687 759 
Q 2956 1122 2956 1747 
Q 2956 2369 2687 2733 
Q 2419 3097 1959 3097 
z
M 1959 3584 
Q 2709 3584 3137 3096 
Q 3566 2609 3566 1747 
Q 3566 888 3137 398 
Q 2709 -91 1959 -91 
Q 1206 -91 779 398 
Q 353 888 353 1747 
Q 353 2609 779 3096 
Q 1206 3584 1959 3584 
z
" id="DejaVuSans-6f" transform="scale(0.015625)"/>
       <path d="M 603 3500 
L 1178 3500 
L 1178 0 
L 603 0 
L 603 3500 
z
M 603 4863 
L 1178 4863 
L 1178 4134 
L 603 4134 
L 603 4863 
z
" id="DejaVuSans-69" transform="scale(0.015625)"/>
       <path d="M 1172 4494 
L 1172 3500 
L 2356 3500 
L 2356 3053 
L 1172 3053 
L 1172 1153 
Q 1172 725 1289 603 
Q 1406 481 1766 481 
L 2356 481 
L 2356 0 
L 1766 0 
Q 1100 0 847 248 
Q 594 497 594 1153 
L 594 3053 
L 172 3053 
L 172 3500 
L 594 3500 
L 594 4494 
L 1172 4494 
z
" id="DejaVuSans-74" transform="scale(0.015625)"/>
       <path d="M 191 3500 
L 800 3500 
L 1894 563 
L 2988 3500 
L 3597 3500 
L 2284 0 
L 1503 0 
L 191 3500 
z
" id="DejaVuSans-76" transform="scale(0.015625)"/>
       <path d="M 2841 2188 
Q 3044 2119 3236 1894 
Q 3428 1669 3622 1275 
L 4263 0 
L 3584 0 
L 2988 1197 
Q 2756 1666 2539 1819 
Q 2322 1972 1947 1972 
L 1259 1972 
L 1259 0 
L 628 0 
L 628 4666 
L 2053 4666 
Q 2853 4666 3247 4331 
Q 3641 3997 3641 3322 
Q 3641 2881 3436 2590 
Q 3231 2300 2841 2188 
z
M 1259 4147 
L 1259 2491 
L 2053 2491 
Q 2509 2491 2742 2702 
Q 2975 2913 2975 3322 
Q 2975 3731 2742 3939 
Q 2509 4147 2053 4147 
L 1259 4147 
z
" id="DejaVuSans-52" transform="scale(0.015625)"/>
      </defs>
      <use xlink:href="#DejaVuSans-46"/>
      <use x="48.394531" xlink:href="#DejaVuSans-61"/>
      <use x="109.673828" xlink:href="#DejaVuSans-6c"/>
      <use x="137.457031" xlink:href="#DejaVuSans-73"/>
      <use x="189.556641" xlink:href="#DejaVuSans-65"/>
      <use x="251.080078" xlink:href="#DejaVuSans-20"/>
      <use x="282.867188" xlink:href="#DejaVuSans-50"/>
      <use x="339.544922" xlink:href="#DejaVuSans-6f"/>
      <use x="400.726562" xlink:href="#DejaVuSans-73"/>
      <use x="452.826172" xlink:href="#DejaVuSans-69"/>
      <use x="480.609375" xlink:href="#DejaVuSans-74"/>
      <use x="519.818359" xlink:href="#DejaVuSans-69"/>
      <use x="547.601562" xlink:href="#DejaVuSans-76"/>
      <use x="606.78125" xlink:href="#DejaVuSans-65"/>
      <use x="668.304688" xlink:href="#DejaVuSans-20"/>
      <use x="700.091797" xlink:href="#DejaVuSans-52"/>
      <use x="767.324219" xlink:href="#DejaVuSans-61"/>
      <use x="828.603516" xlink:href="#DejaVuSans-74"/>
      <use x="867.8125" xlink:href="#DejaVuSans-65"/>
     </g>
    </g>
   </g>
   <g id="matplotlib.axis_2">
    <g id="ytick_1">
     <g id="line2d_7">
      <defs>
       <path d="M 0 0 
L -3.5 0 
" id="m1e7c57793b" style="stroke:#000000;stroke-width:0.8;"/>
      </defs>
      <g>
       <use style="stroke:#000000;stroke-width:0.8;" x="57.6" xlink:href="#m1e7c57793b" y="307.584"/>
      </g>
     </g>
     <g id="text_8">
      <!-- 0.0 -->
      <g transform="translate(34.696875 311.383219)scale(0.1 -0.1)">
       <use xlink:href="#DejaVuSans-30"/>
       <use x="63.623047" xlink:href="#DejaVuSans-2e"/>
       <use x="95.410156" xlink:href="#DejaVuSans-30"/>
      </g>
     </g>
    </g>
    <g id="ytick_2">
     <g id="line2d_8">
      <g>
       <use style="stroke:#000000;stroke-width:0.8;" x="57.6" xlink:href="#m1e7c57793b" y="256.896"/>
      </g>
     </g>
     <g id="text_9">
      <!-- 0.2 -->
      <g transform="translate(34.696875 260.695219)scale(0.1 -0.1)">
       <use xlink:href="#DejaVuSans-30"/>
       <use x="63.623047" xlink:href="#DejaVuSans-2e"/>
       <use x="95.410156" xlink:href="#DejaVuSans-32"/>
      </g>
     </g>
    </g>
    <g id="ytick_3">
     <g id="line2d_9">
      <g>
       <use style="stroke:#000000;stroke-width:0.8;" x="57.6" xlink:href="#m1e7c57793b" y="206.208"/>
      </g>
     </g>
     <g id="text_10">
      <!-- 0.4 -->
      <g transform="translate(34.696875 210.007219)scale(0.1 -0.1)">
       <use xlink:href="#DejaVuSans-30"/>
       <use x="63.623047" xlink:href="#DejaVuSans-2e"/>
       <use x="95.410156" xlink:href="#DejaVuSans-34"/>
      </g>
     </g>
    </g>
    <g id="ytick_4">
     <g id="line2d_10">
      <g>
       <use style="stroke:#000000;stroke-width:0.8;" x="57.6" xlink:href="#m1e7c57793b" y="155.52"/>
      </g>
     </g>
     <g id="text_11">
      <!-- 0.6 -->
      <g transform="translate(34.696875 159.319219)scale(0.1 -0.1)">
       <use xlink:href="#DejaVuSans-30"/>
       <use x="63.623047" xlink:href="#DejaVuSans-2e"/>
       <use x="95.410156" xlink:href="#DejaVuSans-36"/>
      </g>
     </g>
    </g>
    <g id="ytick_5">
     <g id="line2d_11">
      <g>
       <use style="stroke:#000000;stroke-width:0.8;" x="57.6" xlink:href="#m1e7c57793b" y="104.832"/>
      </g>
     </g>
     <g id="text_12">
      <!-- 0.8 -->
      <g transform="translate(34.696875 108.631219)scale(0.1 -0.1)">
       <use xlink:href="#DejaVuSans-30"/>
       <use x="63.623047" xlink:href="#DejaVuSans-2e"/>
       <use x="95.410156" xlink:href="#DejaVuSans-38"/>
      </g>
     </g>
    </g>
    <g id="ytick_6">
     <g id="line2d_12">
      <g>
       <use style="stroke:#000000;stroke-width:0.8;" x="57.6" xlink:href="#m1e7c57793b" y="54.144"/>
      </g>
     </g>
     <g id="text_13">
      <!-- 1.0 -->
      <g transform="translate(34.696875 57.943219)scale(0.1 -0.1)">
       <use xlink:href="#DejaVuSans-31"/>
       <use x="63.623047" xlink:href="#DejaVuSans-2e"/>
       <use x="95.410156" xlink:href="#DejaVuSans-30"/>
      </g>
     </g>
    </g>
    <g id="text_14">
     <!-- True Positive Rate -->
     <g transform="translate(28.617187 219.057687)rotate(-90)scale(0.1 -0.1)">
      <defs>
       <path d="M -19 4666 
L 3928 4666 
L 3928 4134 
L 2272 4134 
L 2272 0 
L 1638 0 
L 1638 4134 
L -19 4134 
L -19 4666 
z
" id="DejaVuSans-54" transform="scale(0.015625)"/>
       <path d="M 2631 2963 
Q 2534 3019 2420 3045 
Q 2306 3072 2169 3072 
Q 1681 3072 1420 2755 
Q 1159 2438 1159 1844 
L 1159 0 
L 581 0 
L 581 3500 
L 1159 3500 
L 1159 2956 
Q 1341 3275 1631 3429 
Q 1922 3584 2338 3584 
Q 2397 3584 2469 3576 
Q 2541 3569 2628 3553 
L 2631 2963 
z
" id="DejaVuSans-72" transform="scale(0.015625)"/>
       <path d="M 544 1381 
L 544 3500 
L 1119 3500 
L 1119 1403 
Q 1119 906 1312 657 
Q 1506 409 1894 409 
Q 2359 409 2629 706 
Q 2900 1003 2900 1516 
L 2900 3500 
L 3475 3500 
L 3475 0 
L 2900 0 
L 2900 538 
Q 2691 219 2414 64 
Q 2138 -91 1772 -91 
Q 1169 -91 856 284 
Q 544 659 544 1381 
z
M 1991 3584 
L 1991 3584 
z
" id="DejaVuSans-75" transform="scale(0.015625)"/>
      </defs>
      <use xlink:href="#DejaVuSans-54"/>
      <use x="46.333984" xlink:href="#DejaVuSans-72"/>
      <use x="87.447266" xlink:href="#DejaVuSans-75"/>
      <use x="150.826172" xlink:href="#DejaVuSans-65"/>
      <use x="212.349609" xlink:href="#DejaVuSans-20"/>
      <use x="244.136719" xlink:href="#DejaVuSans-50"/>
      <use x="300.814453" xlink:href="#DejaVuSans-6f"/>
      <use x="361.996094" xlink:href="#DejaVuSans-73"/>
      <use x="414.095703" xlink:href="#DejaVuSans-69"/>
      <use x="441.878906" xlink:href="#DejaVuSans-74"/>
      <use x="481.087891" xlink:href="#DejaVuSans-69"/>
      <use x="508.871094" xlink:href="#DejaVuSans-76"/>
      <use x="568.050781" xlink:href="#DejaVuSans-65"/>
      <use x="629.574219" xlink:href="#DejaVuSans-20"/>
      <use x="661.361328" xlink:href="#DejaVuSans-52"/>
      <use x="728.59375" xlink:href="#DejaVuSans-61"/>
      <use x="789.873047" xlink:href="#DejaVuSans-74"/>
      <use x="829.082031" xlink:href="#DejaVuSans-65"/>
     </g>
    </g>
   </g>
   <g id="line2d_13">
    <path clip-path="url(#p028cbb8d39)" d="M 57.6 307.584 
L 57.6 266.412655 
L 57.7536 266.412655 
L 57.7536 245.489513 
L 57.9072 245.489513 
L 57.9072 244.139632 
L 58.0608 244.139632 
L 58.0608 221.86661 
L 58.2144 221.86661 
L 58.2144 181.032735 
L 58.368 181.032735 
L 58.368 174.958274 
L 58.5216 174.958274 
L 58.5216 173.608394 
L 58.6752 173.608394 
L 58.6752 167.533933 
L 58.8288 167.533933 
L 58.8288 164.159233 
L 58.9824 164.159233 
L 58.9824 161.796943 
L 59.136 161.796943 
L 59.136 161.122003 
L 59.2896 161.122003 
L 59.2896 159.434652 
L 59.4432 159.434652 
L 59.4432 158.759712 
L 59.5968 158.759712 
L 59.5968 156.059952 
L 59.7504 156.059952 
L 59.7504 149.310551 
L 59.904 149.310551 
L 59.904 145.598381 
L 60.0576 145.598381 
L 60.0576 145.260911 
L 60.3648 145.260911 
L 60.3648 141.21127 
L 60.672 141.21127 
L 60.672 139.18645 
L 60.8256 139.18645 
L 60.8256 132.774519 
L 61.1328 132.774519 
L 61.1328 132.099579 
L 61.44 132.099579 
L 61.44 131.424639 
L 61.5936 131.424639 
L 61.5936 130.412229 
L 61.7472 130.412229 
L 61.7472 129.062349 
L 61.9008 129.062349 
L 61.9008 128.724879 
L 62.0544 128.724879 
L 62.0544 124.675238 
L 62.3616 124.675238 
L 62.3616 122.312948 
L 62.6688 122.312948 
L 62.6688 121.975478 
L 62.8224 121.975478 
L 62.8224 121.300538 
L 62.976 121.300538 
L 62.976 120.288128 
L 63.2832 120.288128 
L 63.2832 119.275718 
L 63.4368 119.275718 
L 63.4368 118.938248 
L 63.5904 118.938248 
L 63.5904 118.263308 
L 63.744 118.263308 
L 63.744 116.913427 
L 64.2048 116.913427 
L 64.2048 116.575957 
L 64.3584 116.575957 
L 64.3584 113.538727 
L 64.512 113.538727 
L 64.512 113.201257 
L 64.6656 113.201257 
L 64.6656 112.863787 
L 64.8192 112.863787 
L 64.8192 111.851377 
L 64.9728 111.851377 
L 64.9728 111.513907 
L 65.1264 111.513907 
L 65.1264 110.164027 
L 65.4336 110.164027 
L 65.4336 109.826557 
L 65.5872 109.826557 
L 65.5872 109.489087 
L 65.7408 109.489087 
L 65.7408 108.139206 
L 66.048 108.139206 
L 66.048 107.801736 
L 66.2016 107.801736 
L 66.2016 106.789326 
L 66.3552 106.789326 
L 66.3552 106.114386 
L 66.5088 106.114386 
L 66.5088 104.089566 
L 66.6624 104.089566 
L 66.6624 103.752096 
L 66.816 103.752096 
L 66.816 103.414626 
L 66.9696 103.414626 
L 66.9696 103.077156 
L 67.1232 103.077156 
L 67.1232 102.402216 
L 67.2768 102.402216 
L 67.2768 101.389806 
L 67.4304 101.389806 
L 67.4304 100.377395 
L 67.584 100.377395 
L 67.584 99.702455 
L 67.7376 99.702455 
L 67.7376 97.340165 
L 67.8912 97.340165 
L 67.8912 97.002695 
L 68.352 97.002695 
L 68.352 95.990285 
L 68.5056 95.990285 
L 68.5056 95.315345 
L 68.8128 95.315345 
L 68.8128 94.977875 
L 68.9664 94.977875 
L 68.9664 94.640405 
L 69.12 94.640405 
L 69.12 93.290525 
L 69.2736 93.290525 
L 69.2736 92.953055 
L 69.7344 92.953055 
L 69.7344 92.278115 
L 70.0416 92.278115 
L 70.0416 91.265704 
L 70.3488 91.265704 
L 70.3488 90.253294 
L 70.8096 90.253294 
L 70.8096 89.578354 
L 71.1168 89.578354 
L 71.1168 88.903414 
L 71.2704 88.903414 
L 71.2704 88.565944 
L 72.0384 88.565944 
L 72.0384 87.553534 
L 72.192 87.553534 
L 72.192 87.216064 
L 72.4992 87.216064 
L 72.4992 85.528714 
L 72.8064 85.528714 
L 72.8064 84.853774 
L 73.2672 84.853774 
L 73.2672 84.516304 
L 73.4208 84.516304 
L 73.4208 84.178834 
L 73.728 84.178834 
L 73.728 82.828953 
L 73.8816 82.828953 
L 73.8816 82.491483 
L 74.3424 82.491483 
L 74.3424 82.154013 
L 74.496 82.154013 
L 74.496 81.479073 
L 74.6496 81.479073 
L 74.6496 81.141603 
L 75.4176 81.141603 
L 75.4176 80.804133 
L 75.5712 80.804133 
L 75.5712 80.466663 
L 75.8784 80.466663 
L 75.8784 79.791723 
L 76.3392 79.791723 
L 76.3392 79.454253 
L 76.6464 79.454253 
L 76.6464 79.116783 
L 76.8 79.116783 
L 76.8 78.104373 
L 77.2608 78.104373 
L 77.2608 77.766903 
L 77.568 77.766903 
L 77.568 76.417023 
L 78.0288 76.417023 
L 78.0288 76.079553 
L 78.1824 76.079553 
L 78.1824 75.742083 
L 78.9504 75.742083 
L 78.9504 75.404613 
L 79.104 75.404613 
L 79.104 75.067142 
L 79.4112 75.067142 
L 79.4112 74.729672 
L 79.872 74.729672 
L 79.872 74.392202 
L 80.4864 74.392202 
L 80.4864 73.042322 
L 80.7936 73.042322 
L 80.7936 72.704852 
L 81.2544 72.704852 
L 81.2544 72.367382 
L 81.8688 72.367382 
L 81.8688 72.029912 
L 83.0976 72.029912 
L 83.0976 71.692442 
L 83.8656 71.692442 
L 83.8656 71.354972 
L 84.0192 71.354972 
L 84.0192 71.017502 
L 84.1728 71.017502 
L 84.1728 70.680032 
L 84.6336 70.680032 
L 84.6336 70.342562 
L 84.9408 70.342562 
L 84.9408 69.667622 
L 85.0944 69.667622 
L 85.0944 69.330152 
L 85.8624 69.330152 
L 85.8624 68.317742 
L 86.4768 68.317742 
L 86.4768 67.980272 
L 86.784 67.980272 
L 86.784 67.642802 
L 86.9376 67.642802 
L 86.9376 67.305332 
L 87.7056 67.305332 
L 87.7056 66.967862 
L 87.8592 66.967862 
L 87.8592 65.955451 
L 88.7808 65.955451 
L 88.7808 65.280511 
L 91.0848 65.280511 
L 91.0848 64.605571 
L 91.6992 64.605571 
L 91.6992 64.268101 
L 91.8528 64.268101 
L 91.8528 63.930631 
L 92.0064 63.930631 
L 92.0064 63.593161 
L 92.7744 63.593161 
L 92.7744 63.255691 
L 97.0752 63.255691 
L 97.0752 62.918221 
L 98.1504 62.918221 
L 98.1504 62.243281 
L 98.304 62.243281 
L 98.304 61.905811 
L 99.2256 61.905811 
L 99.2256 61.568341 
L 99.3792 61.568341 
L 99.3792 60.893401 
L 99.84 60.893401 
L 99.84 60.555931 
L 101.6832 60.555931 
L 101.6832 60.218461 
L 103.0656 60.218461 
L 103.0656 59.880991 
L 104.1408 59.880991 
L 104.1408 59.543521 
L 105.3696 59.543521 
L 105.3696 58.868581 
L 108.7488 58.868581 
L 108.7488 58.531111 
L 112.896 58.531111 
L 112.896 58.19364 
L 113.2032 58.19364 
L 113.2032 57.5187 
L 120.1152 57.5187 
L 120.1152 57.18123 
L 122.5728 57.18123 
L 122.5728 56.84376 
L 124.2624 56.84376 
L 124.2624 56.50629 
L 126.4128 56.50629 
L 126.4128 56.16882 
L 133.0176 56.16882 
L 133.0176 55.83135 
L 133.1712 55.83135 
L 133.1712 55.49388 
L 139.1616 55.49388 
L 139.1616 55.15641 
L 154.6752 55.15641 
L 154.6752 54.81894 
L 168.4992 54.81894 
L 168.4992 54.48147 
L 170.3424 54.48147 
L 170.3424 54.144 
L 414.72 54.144 
L 414.72 54.144 
" style="fill:none;stroke:#7d63b5;stroke-linecap:square;stroke-width:2;"/>
   </g>
   <g id="line2d_14">
    <path clip-path="url(#p028cbb8d39)" d="M 57.6 307.584 
L 57.6 177.908607 
L 57.966277 177.908607 
L 57.966277 131.104838 
L 58.332554 131.104838 
L 58.332554 130.381068 
L 58.698831 130.381068 
L 58.698831 124.590911 
L 59.065108 124.590911 
L 59.065108 120.127665 
L 59.431385 120.127665 
L 59.431385 105.411016 
L 59.797662 105.411016 
L 59.797662 99.741487 
L 60.163938 99.741487 
L 60.163938 99.017717 
L 60.530215 99.017717 
L 60.530215 97.932063 
L 60.896492 97.932063 
L 60.896492 92.986304 
L 61.262769 92.986304 
L 61.262769 92.624419 
L 61.629046 92.624419 
L 61.629046 92.383162 
L 61.995323 92.383162 
L 61.995323 89.005571 
L 62.3616 89.005571 
L 62.3616 88.884942 
L 62.727877 88.884942 
L 62.727877 87.919916 
L 63.094154 87.919916 
L 63.094154 87.437403 
L 63.460431 87.437403 
L 63.460431 86.713634 
L 63.826708 86.713634 
L 63.826708 85.748607 
L 64.192985 85.748607 
L 64.192985 84.904209 
L 64.559262 84.904209 
L 64.559262 84.662953 
L 64.925538 84.662953 
L 64.925538 84.059812 
L 65.291815 84.059812 
L 65.291815 82.491644 
L 65.658092 82.491644 
L 65.658092 82.250387 
L 66.024369 82.250387 
L 66.024369 81.647246 
L 66.390646 81.647246 
L 66.390646 81.164733 
L 66.756923 81.164733 
L 66.756923 80.320335 
L 67.1232 80.320335 
L 67.1232 80.079079 
L 67.489477 80.079079 
L 67.489477 78.269654 
L 68.222031 78.269654 
L 68.222031 78.149026 
L 68.954585 78.149026 
L 68.954585 77.545885 
L 69.320862 77.545885 
L 69.320862 77.184 
L 69.687138 77.184 
L 69.687138 77.063372 
L 70.053415 77.063372 
L 70.053415 76.701487 
L 70.419692 76.701487 
L 70.419692 76.339602 
L 70.785969 76.339602 
L 70.785969 75.374576 
L 71.152246 75.374576 
L 71.152246 74.892063 
L 71.518523 74.892063 
L 71.518523 74.771435 
L 71.8848 74.771435 
L 71.8848 74.530178 
L 72.251077 74.530178 
L 72.251077 74.288921 
L 72.617354 74.288921 
L 72.617354 73.444524 
L 73.349908 73.444524 
L 73.349908 72.96201 
L 74.082462 72.96201 
L 74.082462 72.841382 
L 74.815015 72.841382 
L 74.815015 72.600126 
L 75.547569 72.600126 
L 75.547569 72.238241 
L 75.913846 72.238241 
L 75.913846 71.755728 
L 76.280123 71.755728 
L 76.280123 71.635099 
L 76.6464 71.635099 
L 76.6464 71.514471 
L 77.012677 71.514471 
L 77.012677 70.428817 
L 77.745231 70.428817 
L 77.745231 70.18756 
L 78.111508 70.18756 
L 78.111508 69.825675 
L 78.477785 69.825675 
L 78.477785 69.343162 
L 78.844062 69.343162 
L 78.844062 68.498764 
L 79.942892 68.498764 
L 79.942892 68.016251 
L 80.309169 68.016251 
L 80.309169 67.895623 
L 80.675446 67.895623 
L 80.675446 67.533738 
L 81.408 67.533738 
L 81.408 67.41311 
L 81.774277 67.41311 
L 81.774277 67.292482 
L 82.873108 67.292482 
L 82.873108 67.051225 
L 83.971938 67.051225 
L 83.971938 66.68934 
L 84.338215 66.68934 
L 84.338215 66.448084 
L 84.704492 66.448084 
L 84.704492 66.327455 
L 86.1696 66.327455 
L 86.1696 66.086199 
L 86.902154 66.086199 
L 86.902154 65.603686 
L 87.268431 65.603686 
L 87.268431 65.362429 
L 87.634708 65.362429 
L 87.634708 65.241801 
L 88.000985 65.241801 
L 88.000985 65.000545 
L 88.367262 65.000545 
L 88.367262 64.879916 
L 88.733538 64.879916 
L 88.733538 64.63866 
L 89.099815 64.63866 
L 89.099815 64.276775 
L 89.466092 64.276775 
L 89.466092 64.035518 
L 89.832369 64.035518 
L 89.832369 63.91489 
L 90.564923 63.91489 
L 90.564923 63.794262 
L 91.297477 63.794262 
L 91.297477 63.311749 
L 91.663754 63.311749 
L 91.663754 63.19112 
L 92.396308 63.19112 
L 92.396308 63.070492 
L 92.762585 63.070492 
L 92.762585 62.949864 
L 93.128862 62.949864 
L 93.128862 62.829236 
L 93.495138 62.829236 
L 93.495138 62.587979 
L 96.059077 62.587979 
L 96.059077 62.346723 
L 96.425354 62.346723 
L 96.425354 61.743581 
L 97.157908 61.743581 
L 97.157908 61.622953 
L 98.256738 61.622953 
L 98.256738 61.502325 
L 98.623015 61.502325 
L 98.623015 61.381696 
L 101.186954 61.381696 
L 101.186954 61.14044 
L 101.919508 61.14044 
L 101.919508 60.899183 
L 102.285785 60.899183 
L 102.285785 60.778555 
L 103.018338 60.778555 
L 103.018338 60.657927 
L 103.750892 60.657927 
L 103.750892 60.537298 
L 104.117169 60.537298 
L 104.117169 60.41667 
L 107.779938 60.41667 
L 107.779938 60.296042 
L 108.146215 60.296042 
L 108.146215 60.175414 
L 108.512492 60.175414 
L 108.512492 59.813529 
L 108.878769 59.813529 
L 108.878769 59.692901 
L 111.076431 59.692901 
L 111.076431 59.572272 
L 113.274092 59.572272 
L 113.274092 59.451644 
L 114.7392 59.451644 
L 114.7392 59.210387 
L 116.204308 59.210387 
L 116.204308 59.089759 
L 116.570585 59.089759 
L 116.570585 58.969131 
L 119.134523 58.969131 
L 119.134523 58.848503 
L 119.867077 58.848503 
L 119.867077 58.486618 
L 120.233354 58.486618 
L 120.233354 58.36599 
L 122.431015 58.36599 
L 122.431015 58.245361 
L 122.797292 58.245361 
L 122.797292 58.124733 
L 123.163569 58.124733 
L 123.163569 58.004105 
L 123.529846 58.004105 
L 123.529846 57.883476 
L 126.093785 57.883476 
L 126.093785 57.64222 
L 126.826338 57.64222 
L 126.826338 57.521592 
L 131.954215 57.521592 
L 131.954215 57.400963 
L 132.320492 57.400963 
L 132.320492 57.280335 
L 132.686769 57.280335 
L 132.686769 57.159707 
L 135.983262 57.159707 
L 135.983262 57.039079 
L 136.715815 57.039079 
L 136.715815 56.91845 
L 137.448369 56.91845 
L 137.448369 56.797822 
L 139.646031 56.797822 
L 139.646031 56.677194 
L 140.744862 56.677194 
L 140.744862 56.556565 
L 141.843692 56.556565 
L 141.843692 56.435937 
L 142.576246 56.435937 
L 142.576246 56.194681 
L 143.3088 56.194681 
L 143.3088 56.074052 
L 144.773908 56.074052 
L 144.773908 55.953424 
L 152.832 55.953424 
L 152.832 55.832796 
L 155.029662 55.832796 
L 155.029662 55.712168 
L 155.762215 55.712168 
L 155.762215 55.350283 
L 163.820308 55.350283 
L 163.820308 55.229654 
L 164.186585 55.229654 
L 164.186585 55.109026 
L 169.680738 55.109026 
L 169.680738 54.988398 
L 174.808615 54.988398 
L 174.808615 54.86777 
L 175.541169 54.86777 
L 175.541169 54.747141 
L 177.738831 54.747141 
L 177.738831 54.626513 
L 191.291077 54.626513 
L 191.291077 54.385257 
L 281.3952 54.385257 
L 281.3952 54.264628 
L 283.592862 54.264628 
L 283.592862 54.144 
L 414.72 54.144 
L 414.72 54.144 
" style="fill:none;stroke:#333c1a;stroke-linecap:square;stroke-width:2;"/>
   </g>
   <g id="line2d_15">
    <path clip-path="url(#p028cbb8d39)" d="M 57.6 307.584 
L 57.6 306.452571 
L 57.6 200.098286 
L 57.725217 200.098286 
L 57.725217 191.046857 
L 57.850435 191.046857 
L 57.850435 163.892571 
L 57.975652 163.892571 
L 57.975652 157.104 
L 58.10087 157.104 
L 58.10087 153.709714 
L 58.351304 153.709714 
L 58.351304 140.132571 
L 58.476522 140.132571 
L 58.476522 135.606857 
L 58.601739 135.606857 
L 58.601739 134.475429 
L 58.726957 134.475429 
L 58.726957 132.212571 
L 58.977391 132.212571 
L 58.977391 129.949714 
L 59.102609 129.949714 
L 59.102609 127.686857 
L 59.353043 127.686857 
L 59.353043 126.555429 
L 59.603478 126.555429 
L 59.603478 125.424 
L 59.728696 125.424 
L 59.728696 120.898286 
L 59.853913 120.898286 
L 59.853913 118.635429 
L 59.97913 118.635429 
L 59.97913 116.372571 
L 60.104348 116.372571 
L 60.104348 115.241143 
L 60.354783 115.241143 
L 60.354783 112.978286 
L 60.605217 112.978286 
L 60.605217 111.846857 
L 60.730435 111.846857 
L 60.730435 110.715429 
L 61.106087 110.715429 
L 61.106087 109.584 
L 61.231304 109.584 
L 61.231304 108.452571 
L 61.356522 108.452571 
L 61.356522 102.795429 
L 61.732174 102.795429 
L 61.732174 101.664 
L 62.233043 101.664 
L 62.233043 100.532571 
L 62.608696 100.532571 
L 62.608696 99.401143 
L 62.733913 99.401143 
L 62.733913 98.269714 
L 63.234783 98.269714 
L 63.234783 97.138286 
L 63.36 97.138286 
L 63.36 94.875429 
L 63.735652 94.875429 
L 63.735652 93.744 
L 64.236522 93.744 
L 64.236522 92.612571 
L 64.612174 92.612571 
L 64.612174 89.218286 
L 64.987826 89.218286 
L 64.987826 86.955429 
L 65.864348 86.955429 
L 65.864348 85.824 
L 66.114783 85.824 
L 66.114783 84.692571 
L 66.24 84.692571 
L 66.24 82.429714 
L 66.991304 82.429714 
L 66.991304 81.298286 
L 67.617391 81.298286 
L 67.617391 80.166857 
L 68.61913 80.166857 
L 68.61913 79.035429 
L 68.744348 79.035429 
L 68.744348 77.904 
L 70.121739 77.904 
L 70.121739 76.772571 
L 70.372174 76.772571 
L 70.372174 75.641143 
L 71.373913 75.641143 
L 71.373913 74.509714 
L 71.624348 74.509714 
L 71.624348 73.378286 
L 71.874783 73.378286 
L 71.874783 72.246857 
L 72.250435 72.246857 
L 72.250435 71.115429 
L 72.626087 71.115429 
L 72.626087 69.984 
L 72.751304 69.984 
L 72.751304 68.852571 
L 73.377391 68.852571 
L 73.377391 67.721143 
L 73.502609 67.721143 
L 73.502609 66.589714 
L 80.64 66.589714 
L 80.64 65.458286 
L 81.14087 65.458286 
L 81.14087 64.326857 
L 83.895652 64.326857 
L 83.895652 63.195429 
L 93.913043 63.195429 
L 93.913043 62.064 
L 101.926957 62.064 
L 101.926957 60.932571 
L 105.433043 60.932571 
L 105.433043 59.801143 
L 109.064348 59.801143 
L 109.064348 58.669714 
L 113.822609 58.669714 
L 113.822609 57.538286 
L 158.525217 57.538286 
L 158.525217 56.406857 
L 202.852174 56.406857 
L 202.852174 55.275429 
L 236.16 55.275429 
L 236.16 54.144 
L 414.72 54.144 
" style="fill:none;stroke:#79931d;stroke-linecap:square;stroke-width:2;"/>
   </g>
   <g id="line2d_16">
    <path clip-path="url(#p028cbb8d39)" d="M 57.6 307.584 
L 414.72 54.144 
" style="fill:none;stroke:#000000;stroke-dasharray:7.4,3.2;stroke-dashoffset:0;stroke-width:2;"/>
   </g>
   <g id="patch_3">
    <path d="M 57.6 307.584 
L 57.6 41.472 
" style="fill:none;stroke:#000000;stroke-linecap:square;stroke-linejoin:miter;stroke-width:0.8;"/>
   </g>
   <g id="patch_4">
    <path d="M 414.72 307.584 
L 414.72 41.472 
" style="fill:none;stroke:#000000;stroke-linecap:square;stroke-linejoin:miter;stroke-width:0.8;"/>
   </g>
   <g id="patch_5">
    <path d="M 57.6 307.584 
L 414.72 307.584 
" style="fill:none;stroke:#000000;stroke-linecap:square;stroke-linejoin:miter;stroke-width:0.8;"/>
   </g>
   <g id="patch_6">
    <path d="M 57.6 41.472 
L 414.72 41.472 
" style="fill:none;stroke:#000000;stroke-linecap:square;stroke-linejoin:miter;stroke-width:0.8;"/>
   </g>
   <g id="text_15">
    <!-- Class ROC Curves -->
    <g transform="translate(182.652187 35.472)scale(0.12 -0.12)">
     <defs>
      <path d="M 4122 4306 
L 4122 3641 
Q 3803 3938 3442 4084 
Q 3081 4231 2675 4231 
Q 1875 4231 1450 3742 
Q 1025 3253 1025 2328 
Q 1025 1406 1450 917 
Q 1875 428 2675 428 
Q 3081 428 3442 575 
Q 3803 722 4122 1019 
L 4122 359 
Q 3791 134 3420 21 
Q 3050 -91 2638 -91 
Q 1578 -91 968 557 
Q 359 1206 359 2328 
Q 359 3453 968 4101 
Q 1578 4750 2638 4750 
Q 3056 4750 3426 4639 
Q 3797 4528 4122 4306 
z
" id="DejaVuSans-43" transform="scale(0.015625)"/>
      <path d="M 2522 4238 
Q 1834 4238 1429 3725 
Q 1025 3213 1025 2328 
Q 1025 1447 1429 934 
Q 1834 422 2522 422 
Q 3209 422 3611 934 
Q 4013 1447 4013 2328 
Q 4013 3213 3611 3725 
Q 3209 4238 2522 4238 
z
M 2522 4750 
Q 3503 4750 4090 4092 
Q 4678 3434 4678 2328 
Q 4678 1225 4090 567 
Q 3503 -91 2522 -91 
Q 1538 -91 948 565 
Q 359 1222 359 2328 
Q 359 3434 948 4092 
Q 1538 4750 2522 4750 
z
" id="DejaVuSans-4f" transform="scale(0.015625)"/>
     </defs>
     <use xlink:href="#DejaVuSans-43"/>
     <use x="69.824219" xlink:href="#DejaVuSans-6c"/>
     <use x="97.607422" xlink:href="#DejaVuSans-61"/>
     <use x="158.886719" xlink:href="#DejaVuSans-73"/>
     <use x="210.986328" xlink:href="#DejaVuSans-73"/>
     <use x="263.085938" xlink:href="#DejaVuSans-20"/>
     <use x="294.873047" xlink:href="#DejaVuSans-52"/>
     <use x="364.355469" xlink:href="#DejaVuSans-4f"/>
     <use x="443.066406" xlink:href="#DejaVuSans-43"/>
     <use x="512.890625" xlink:href="#DejaVuSans-20"/>
     <use x="544.677734" xlink:href="#DejaVuSans-43"/>
     <use x="614.501953" xlink:href="#DejaVuSans-75"/>
     <use x="677.880859" xlink:href="#DejaVuSans-72"/>
     <use x="718.994141" xlink:href="#DejaVuSans-76"/>
     <use x="778.173828" xlink:href="#DejaVuSans-65"/>
     <use x="839.697266" xlink:href="#DejaVuSans-73"/>
    </g>
   </g>
   <g id="legend_1">
    <g id="patch_7">
     <path d="M 129.21375 302.584 
L 407.72 302.584 
Q 409.72 302.584 409.72 300.584 
L 409.72 257.549625 
Q 409.72 255.549625 407.72 255.549625 
L 129.21375 255.549625 
Q 127.21375 255.549625 127.21375 257.549625 
L 127.21375 300.584 
Q 127.21375 302.584 129.21375 302.584 
z
" style="fill:#ffffff;opacity:0.8;stroke:#cccccc;stroke-linejoin:miter;"/>
    </g>
    <g id="line2d_17">
     <path d="M 131.21375 263.648062 
L 151.21375 263.648062 
" style="fill:none;stroke:#7d63b5;stroke-linecap:square;stroke-width:2;"/>
    </g>
    <g id="line2d_18"/>
    <g id="text_16">
     <!-- ROC curve of Effector Memory CD4 (area = 0.98) -->
     <g transform="translate(159.21375 267.148062)scale(0.1 -0.1)">
      <defs>
       <path d="M 3122 3366 
L 3122 2828 
Q 2878 2963 2633 3030 
Q 2388 3097 2138 3097 
Q 1578 3097 1268 2742 
Q 959 2388 959 1747 
Q 959 1106 1268 751 
Q 1578 397 2138 397 
Q 2388 397 2633 464 
Q 2878 531 3122 666 
L 3122 134 
Q 2881 22 2623 -34 
Q 2366 -91 2075 -91 
Q 1284 -91 818 406 
Q 353 903 353 1747 
Q 353 2603 823 3093 
Q 1294 3584 2113 3584 
Q 2378 3584 2631 3529 
Q 2884 3475 3122 3366 
z
" id="DejaVuSans-63" transform="scale(0.015625)"/>
       <path d="M 2375 4863 
L 2375 4384 
L 1825 4384 
Q 1516 4384 1395 4259 
Q 1275 4134 1275 3809 
L 1275 3500 
L 2222 3500 
L 2222 3053 
L 1275 3053 
L 1275 0 
L 697 0 
L 697 3053 
L 147 3053 
L 147 3500 
L 697 3500 
L 697 3744 
Q 697 4328 969 4595 
Q 1241 4863 1831 4863 
L 2375 4863 
z
" id="DejaVuSans-66" transform="scale(0.015625)"/>
       <path d="M 628 4666 
L 3578 4666 
L 3578 4134 
L 1259 4134 
L 1259 2753 
L 3481 2753 
L 3481 2222 
L 1259 2222 
L 1259 531 
L 3634 531 
L 3634 0 
L 628 0 
L 628 4666 
z
" id="DejaVuSans-45" transform="scale(0.015625)"/>
       <path d="M 628 4666 
L 1569 4666 
L 2759 1491 
L 3956 4666 
L 4897 4666 
L 4897 0 
L 4281 0 
L 4281 4097 
L 3078 897 
L 2444 897 
L 1241 4097 
L 1241 0 
L 628 0 
L 628 4666 
z
" id="DejaVuSans-4d" transform="scale(0.015625)"/>
       <path d="M 3328 2828 
Q 3544 3216 3844 3400 
Q 4144 3584 4550 3584 
Q 5097 3584 5394 3201 
Q 5691 2819 5691 2113 
L 5691 0 
L 5113 0 
L 5113 2094 
Q 5113 2597 4934 2840 
Q 4756 3084 4391 3084 
Q 3944 3084 3684 2787 
Q 3425 2491 3425 1978 
L 3425 0 
L 2847 0 
L 2847 2094 
Q 2847 2600 2669 2842 
Q 2491 3084 2119 3084 
Q 1678 3084 1418 2786 
Q 1159 2488 1159 1978 
L 1159 0 
L 581 0 
L 581 3500 
L 1159 3500 
L 1159 2956 
Q 1356 3278 1631 3431 
Q 1906 3584 2284 3584 
Q 2666 3584 2933 3390 
Q 3200 3197 3328 2828 
z
" id="DejaVuSans-6d" transform="scale(0.015625)"/>
       <path d="M 2059 -325 
Q 1816 -950 1584 -1140 
Q 1353 -1331 966 -1331 
L 506 -1331 
L 506 -850 
L 844 -850 
Q 1081 -850 1212 -737 
Q 1344 -625 1503 -206 
L 1606 56 
L 191 3500 
L 800 3500 
L 1894 763 
L 2988 3500 
L 3597 3500 
L 2059 -325 
z
" id="DejaVuSans-79" transform="scale(0.015625)"/>
       <path d="M 1259 4147 
L 1259 519 
L 2022 519 
Q 2988 519 3436 956 
Q 3884 1394 3884 2338 
Q 3884 3275 3436 3711 
Q 2988 4147 2022 4147 
L 1259 4147 
z
M 628 4666 
L 1925 4666 
Q 3281 4666 3915 4102 
Q 4550 3538 4550 2338 
Q 4550 1131 3912 565 
Q 3275 0 1925 0 
L 628 0 
L 628 4666 
z
" id="DejaVuSans-44" transform="scale(0.015625)"/>
       <path d="M 1984 4856 
Q 1566 4138 1362 3434 
Q 1159 2731 1159 2009 
Q 1159 1288 1364 580 
Q 1569 -128 1984 -844 
L 1484 -844 
Q 1016 -109 783 600 
Q 550 1309 550 2009 
Q 550 2706 781 3412 
Q 1013 4119 1484 4856 
L 1984 4856 
z
" id="DejaVuSans-28" transform="scale(0.015625)"/>
       <path d="M 678 2906 
L 4684 2906 
L 4684 2381 
L 678 2381 
L 678 2906 
z
M 678 1631 
L 4684 1631 
L 4684 1100 
L 678 1100 
L 678 1631 
z
" id="DejaVuSans-3d" transform="scale(0.015625)"/>
       <path d="M 703 97 
L 703 672 
Q 941 559 1184 500 
Q 1428 441 1663 441 
Q 2288 441 2617 861 
Q 2947 1281 2994 2138 
Q 2813 1869 2534 1725 
Q 2256 1581 1919 1581 
Q 1219 1581 811 2004 
Q 403 2428 403 3163 
Q 403 3881 828 4315 
Q 1253 4750 1959 4750 
Q 2769 4750 3195 4129 
Q 3622 3509 3622 2328 
Q 3622 1225 3098 567 
Q 2575 -91 1691 -91 
Q 1453 -91 1209 -44 
Q 966 3 703 97 
z
M 1959 2075 
Q 2384 2075 2632 2365 
Q 2881 2656 2881 3163 
Q 2881 3666 2632 3958 
Q 2384 4250 1959 4250 
Q 1534 4250 1286 3958 
Q 1038 3666 1038 3163 
Q 1038 2656 1286 2365 
Q 1534 2075 1959 2075 
z
" id="DejaVuSans-39" transform="scale(0.015625)"/>
       <path d="M 513 4856 
L 1013 4856 
Q 1481 4119 1714 3412 
Q 1947 2706 1947 2009 
Q 1947 1309 1714 600 
Q 1481 -109 1013 -844 
L 513 -844 
Q 928 -128 1133 580 
Q 1338 1288 1338 2009 
Q 1338 2731 1133 3434 
Q 928 4138 513 4856 
z
" id="DejaVuSans-29" transform="scale(0.015625)"/>
      </defs>
      <use xlink:href="#DejaVuSans-52"/>
      <use x="69.482422" xlink:href="#DejaVuSans-4f"/>
      <use x="148.193359" xlink:href="#DejaVuSans-43"/>
      <use x="218.017578" xlink:href="#DejaVuSans-20"/>
      <use x="249.804688" xlink:href="#DejaVuSans-63"/>
      <use x="304.785156" xlink:href="#DejaVuSans-75"/>
      <use x="368.164062" xlink:href="#DejaVuSans-72"/>
      <use x="409.277344" xlink:href="#DejaVuSans-76"/>
      <use x="468.457031" xlink:href="#DejaVuSans-65"/>
      <use x="529.980469" xlink:href="#DejaVuSans-20"/>
      <use x="561.767578" xlink:href="#DejaVuSans-6f"/>
      <use x="622.949219" xlink:href="#DejaVuSans-66"/>
      <use x="658.154297" xlink:href="#DejaVuSans-20"/>
      <use x="689.941406" xlink:href="#DejaVuSans-45"/>
      <use x="753.125" xlink:href="#DejaVuSans-66"/>
      <use x="788.330078" xlink:href="#DejaVuSans-66"/>
      <use x="823.535156" xlink:href="#DejaVuSans-65"/>
      <use x="885.058594" xlink:href="#DejaVuSans-63"/>
      <use x="940.039062" xlink:href="#DejaVuSans-74"/>
      <use x="979.248047" xlink:href="#DejaVuSans-6f"/>
      <use x="1040.429688" xlink:href="#DejaVuSans-72"/>
      <use x="1081.542969" xlink:href="#DejaVuSans-20"/>
      <use x="1113.330078" xlink:href="#DejaVuSans-4d"/>
      <use x="1199.609375" xlink:href="#DejaVuSans-65"/>
      <use x="1261.132812" xlink:href="#DejaVuSans-6d"/>
      <use x="1358.544922" xlink:href="#DejaVuSans-6f"/>
      <use x="1419.726562" xlink:href="#DejaVuSans-72"/>
      <use x="1460.839844" xlink:href="#DejaVuSans-79"/>
      <use x="1520.019531" xlink:href="#DejaVuSans-20"/>
      <use x="1551.806641" xlink:href="#DejaVuSans-43"/>
      <use x="1621.630859" xlink:href="#DejaVuSans-44"/>
      <use x="1698.632812" xlink:href="#DejaVuSans-34"/>
      <use x="1762.255859" xlink:href="#DejaVuSans-20"/>
      <use x="1794.042969" xlink:href="#DejaVuSans-28"/>
      <use x="1833.056641" xlink:href="#DejaVuSans-61"/>
      <use x="1894.335938" xlink:href="#DejaVuSans-72"/>
      <use x="1933.199219" xlink:href="#DejaVuSans-65"/>
      <use x="1994.722656" xlink:href="#DejaVuSans-61"/>
      <use x="2056.001953" xlink:href="#DejaVuSans-20"/>
      <use x="2087.789062" xlink:href="#DejaVuSans-3d"/>
      <use x="2171.578125" xlink:href="#DejaVuSans-20"/>
      <use x="2203.365234" xlink:href="#DejaVuSans-30"/>
      <use x="2266.988281" xlink:href="#DejaVuSans-2e"/>
      <use x="2298.775391" xlink:href="#DejaVuSans-39"/>
      <use x="2362.398438" xlink:href="#DejaVuSans-38"/>
      <use x="2426.021484" xlink:href="#DejaVuSans-29"/>
     </g>
    </g>
    <g id="line2d_19">
     <path d="M 131.21375 278.326188 
L 151.21375 278.326188 
" style="fill:none;stroke:#333c1a;stroke-linecap:square;stroke-width:2;"/>
    </g>
    <g id="line2d_20"/>
    <g id="text_17">
     <!-- ROC curve of Naive/Central CD4 (area = 0.99) -->
     <g transform="translate(159.21375 281.826188)scale(0.1 -0.1)">
      <defs>
       <path d="M 628 4666 
L 1478 4666 
L 3547 763 
L 3547 4666 
L 4159 4666 
L 4159 0 
L 3309 0 
L 1241 3903 
L 1241 0 
L 628 0 
L 628 4666 
z
" id="DejaVuSans-4e" transform="scale(0.015625)"/>
       <path d="M 1625 4666 
L 2156 4666 
L 531 -594 
L 0 -594 
L 1625 4666 
z
" id="DejaVuSans-2f" transform="scale(0.015625)"/>
       <path d="M 3513 2113 
L 3513 0 
L 2938 0 
L 2938 2094 
Q 2938 2591 2744 2837 
Q 2550 3084 2163 3084 
Q 1697 3084 1428 2787 
Q 1159 2491 1159 1978 
L 1159 0 
L 581 0 
L 581 3500 
L 1159 3500 
L 1159 2956 
Q 1366 3272 1645 3428 
Q 1925 3584 2291 3584 
Q 2894 3584 3203 3211 
Q 3513 2838 3513 2113 
z
" id="DejaVuSans-6e" transform="scale(0.015625)"/>
      </defs>
      <use xlink:href="#DejaVuSans-52"/>
      <use x="69.482422" xlink:href="#DejaVuSans-4f"/>
      <use x="148.193359" xlink:href="#DejaVuSans-43"/>
      <use x="218.017578" xlink:href="#DejaVuSans-20"/>
      <use x="249.804688" xlink:href="#DejaVuSans-63"/>
      <use x="304.785156" xlink:href="#DejaVuSans-75"/>
      <use x="368.164062" xlink:href="#DejaVuSans-72"/>
      <use x="409.277344" xlink:href="#DejaVuSans-76"/>
      <use x="468.457031" xlink:href="#DejaVuSans-65"/>
      <use x="529.980469" xlink:href="#DejaVuSans-20"/>
      <use x="561.767578" xlink:href="#DejaVuSans-6f"/>
      <use x="622.949219" xlink:href="#DejaVuSans-66"/>
      <use x="658.154297" xlink:href="#DejaVuSans-20"/>
      <use x="689.941406" xlink:href="#DejaVuSans-4e"/>
      <use x="764.746094" xlink:href="#DejaVuSans-61"/>
      <use x="826.025391" xlink:href="#DejaVuSans-69"/>
      <use x="853.808594" xlink:href="#DejaVuSans-76"/>
      <use x="912.988281" xlink:href="#DejaVuSans-65"/>
      <use x="974.511719" xlink:href="#DejaVuSans-2f"/>
      <use x="1008.203125" xlink:href="#DejaVuSans-43"/>
      <use x="1078.027344" xlink:href="#DejaVuSans-65"/>
      <use x="1139.550781" xlink:href="#DejaVuSans-6e"/>
      <use x="1202.929688" xlink:href="#DejaVuSans-74"/>
      <use x="1242.138672" xlink:href="#DejaVuSans-72"/>
      <use x="1283.251953" xlink:href="#DejaVuSans-61"/>
      <use x="1344.53125" xlink:href="#DejaVuSans-6c"/>
      <use x="1372.314453" xlink:href="#DejaVuSans-20"/>
      <use x="1404.101562" xlink:href="#DejaVuSans-43"/>
      <use x="1473.925781" xlink:href="#DejaVuSans-44"/>
      <use x="1550.927734" xlink:href="#DejaVuSans-34"/>
      <use x="1614.550781" xlink:href="#DejaVuSans-20"/>
      <use x="1646.337891" xlink:href="#DejaVuSans-28"/>
      <use x="1685.351562" xlink:href="#DejaVuSans-61"/>
      <use x="1746.630859" xlink:href="#DejaVuSans-72"/>
      <use x="1785.494141" xlink:href="#DejaVuSans-65"/>
      <use x="1847.017578" xlink:href="#DejaVuSans-61"/>
      <use x="1908.296875" xlink:href="#DejaVuSans-20"/>
      <use x="1940.083984" xlink:href="#DejaVuSans-3d"/>
      <use x="2023.873047" xlink:href="#DejaVuSans-20"/>
      <use x="2055.660156" xlink:href="#DejaVuSans-30"/>
      <use x="2119.283203" xlink:href="#DejaVuSans-2e"/>
      <use x="2151.070312" xlink:href="#DejaVuSans-39"/>
      <use x="2214.693359" xlink:href="#DejaVuSans-39"/>
      <use x="2278.316406" xlink:href="#DejaVuSans-29"/>
     </g>
    </g>
    <g id="line2d_21">
     <path d="M 131.21375 293.004312 
L 151.21375 293.004312 
" style="fill:none;stroke:#79931d;stroke-linecap:square;stroke-width:2;"/>
    </g>
    <g id="line2d_22"/>
    <g id="text_18">
     <!-- ROC curve of T-reg CD4 (area = 0.99) -->
     <g transform="translate(159.21375 296.504312)scale(0.1 -0.1)">
      <defs>
       <path d="M 313 2009 
L 1997 2009 
L 1997 1497 
L 313 1497 
L 313 2009 
z
" id="DejaVuSans-2d" transform="scale(0.015625)"/>
       <path d="M 2906 1791 
Q 2906 2416 2648 2759 
Q 2391 3103 1925 3103 
Q 1463 3103 1205 2759 
Q 947 2416 947 1791 
Q 947 1169 1205 825 
Q 1463 481 1925 481 
Q 2391 481 2648 825 
Q 2906 1169 2906 1791 
z
M 3481 434 
Q 3481 -459 3084 -895 
Q 2688 -1331 1869 -1331 
Q 1566 -1331 1297 -1286 
Q 1028 -1241 775 -1147 
L 775 -588 
Q 1028 -725 1275 -790 
Q 1522 -856 1778 -856 
Q 2344 -856 2625 -561 
Q 2906 -266 2906 331 
L 2906 616 
Q 2728 306 2450 153 
Q 2172 0 1784 0 
Q 1141 0 747 490 
Q 353 981 353 1791 
Q 353 2603 747 3093 
Q 1141 3584 1784 3584 
Q 2172 3584 2450 3431 
Q 2728 3278 2906 2969 
L 2906 3500 
L 3481 3500 
L 3481 434 
z
" id="DejaVuSans-67" transform="scale(0.015625)"/>
      </defs>
      <use xlink:href="#DejaVuSans-52"/>
      <use x="69.482422" xlink:href="#DejaVuSans-4f"/>
      <use x="148.193359" xlink:href="#DejaVuSans-43"/>
      <use x="218.017578" xlink:href="#DejaVuSans-20"/>
      <use x="249.804688" xlink:href="#DejaVuSans-63"/>
      <use x="304.785156" xlink:href="#DejaVuSans-75"/>
      <use x="368.164062" xlink:href="#DejaVuSans-72"/>
      <use x="409.277344" xlink:href="#DejaVuSans-76"/>
      <use x="468.457031" xlink:href="#DejaVuSans-65"/>
      <use x="529.980469" xlink:href="#DejaVuSans-20"/>
      <use x="561.767578" xlink:href="#DejaVuSans-6f"/>
      <use x="622.949219" xlink:href="#DejaVuSans-66"/>
      <use x="658.154297" xlink:href="#DejaVuSans-20"/>
      <use x="689.941406" xlink:href="#DejaVuSans-54"/>
      <use x="741.900391" xlink:href="#DejaVuSans-2d"/>
      <use x="777.984375" xlink:href="#DejaVuSans-72"/>
      <use x="816.847656" xlink:href="#DejaVuSans-65"/>
      <use x="878.371094" xlink:href="#DejaVuSans-67"/>
      <use x="941.847656" xlink:href="#DejaVuSans-20"/>
      <use x="973.634766" xlink:href="#DejaVuSans-43"/>
      <use x="1043.458984" xlink:href="#DejaVuSans-44"/>
      <use x="1120.460938" xlink:href="#DejaVuSans-34"/>
      <use x="1184.083984" xlink:href="#DejaVuSans-20"/>
      <use x="1215.871094" xlink:href="#DejaVuSans-28"/>
      <use x="1254.884766" xlink:href="#DejaVuSans-61"/>
      <use x="1316.164062" xlink:href="#DejaVuSans-72"/>
      <use x="1355.027344" xlink:href="#DejaVuSans-65"/>
      <use x="1416.550781" xlink:href="#DejaVuSans-61"/>
      <use x="1477.830078" xlink:href="#DejaVuSans-20"/>
      <use x="1509.617188" xlink:href="#DejaVuSans-3d"/>
      <use x="1593.40625" xlink:href="#DejaVuSans-20"/>
      <use x="1625.193359" xlink:href="#DejaVuSans-30"/>
      <use x="1688.816406" xlink:href="#DejaVuSans-2e"/>
      <use x="1720.603516" xlink:href="#DejaVuSans-39"/>
      <use x="1784.226562" xlink:href="#DejaVuSans-39"/>
      <use x="1847.849609" xlink:href="#DejaVuSans-29"/>
     </g>
    </g>
   </g>
  </g>
 </g>
 <defs>
  <clipPath id="p028cbb8d39">
   <rect height="266.112" width="357.12" x="57.6" y="41.472"/>
  </clipPath>
 </defs>
</svg>
