<?xml version="1.0" encoding="utf-8" standalone="no"?>
<!DOCTYPE svg PUBLIC "-//W3C//DTD SVG 1.1//EN"
  "http://www.w3.org/Graphics/SVG/1.1/DTD/svg11.dtd">
<svg height="345.6pt" version="1.1" viewBox="0 0 460.8 345.6" width="460.8pt" xmlns="http://www.w3.org/2000/svg" xmlns:xlink="http://www.w3.org/1999/xlink">
 <metadata>
  <rdf:RDF xmlns:cc="http://creativecommons.org/ns#" xmlns:dc="http://purl.org/dc/elements/1.1/" xmlns:rdf="http://www.w3.org/1999/02/22-rdf-syntax-ns#">
   <cc:Work>
    <dc:type rdf:resource="http://purl.org/dc/dcmitype/StillImage"/>
    <dc:date>2021-08-31T13:14:49.021445</dc:date>
    <dc:format>image/svg+xml</dc:format>
    <dc:creator>
     <cc:Agent>
      <dc:title>Matplotlib v3.4.2, https://matplotlib.org/</dc:title>
     </cc:Agent>
    </dc:creator>
   </cc:Work>
  </rdf:RDF>
 </metadata>
 <defs>
  <style type="text/css">*{stroke-linecap:butt;stroke-linejoin:round;}</style>
 </defs>
 <g id="figure_1">
  <g id="patch_1">
   <path d="M 0 345.6 
L 460.8 345.6 
L 460.8 0 
L 0 0 
z
" style="fill:#ffffff;"/>
  </g>
  <g id="axes_1">
   <g id="patch_2">
    <path d="M 57.6 307.584 
L 414.72 307.584 
L 414.72 41.472 
L 57.6 41.472 
z
" style="fill:#ffffff;"/>
   </g>
   <g id="matplotlib.axis_1">
    <g id="xtick_1">
     <g id="line2d_1">
      <defs>
       <path d="M 0 0 
L 0 3.5 
" id="md53038395f" style="stroke:#000000;stroke-width:0.8;"/>
      </defs>
      <g>
       <use style="stroke:#000000;stroke-width:0.8;" x="57.6" xlink:href="#md53038395f" y="307.584"/>
      </g>
     </g>
     <g id="text_1">
      <!-- 0.0 -->
      <g transform="translate(49.648438 322.182437)scale(0.1 -0.1)">
       <defs>
        <path d="M 2034 4250 
Q 1547 4250 1301 3770 
Q 1056 3291 1056 2328 
Q 1056 1369 1301 889 
Q 1547 409 2034 409 
Q 2525 409 2770 889 
Q 3016 1369 3016 2328 
Q 3016 3291 2770 3770 
Q 2525 4250 2034 4250 
z
M 2034 4750 
Q 2819 4750 3233 4129 
Q 3647 3509 3647 2328 
Q 3647 1150 3233 529 
Q 2819 -91 2034 -91 
Q 1250 -91 836 529 
Q 422 1150 422 2328 
Q 422 3509 836 4129 
Q 1250 4750 2034 4750 
z
" id="DejaVuSans-30" transform="scale(0.015625)"/>
        <path d="M 684 794 
L 1344 794 
L 1344 0 
L 684 0 
L 684 794 
z
" id="DejaVuSans-2e" transform="scale(0.015625)"/>
       </defs>
       <use xlink:href="#DejaVuSans-30"/>
       <use x="63.623047" xlink:href="#DejaVuSans-2e"/>
       <use x="95.410156" xlink:href="#DejaVuSans-30"/>
      </g>
     </g>
    </g>
    <g id="xtick_2">
     <g id="line2d_2">
      <g>
       <use style="stroke:#000000;stroke-width:0.8;" x="129.024" xlink:href="#md53038395f" y="307.584"/>
      </g>
     </g>
     <g id="text_2">
      <!-- 0.2 -->
      <g transform="translate(121.072438 322.182437)scale(0.1 -0.1)">
       <defs>
        <path d="M 1228 531 
L 3431 531 
L 3431 0 
L 469 0 
L 469 531 
Q 828 903 1448 1529 
Q 2069 2156 2228 2338 
Q 2531 2678 2651 2914 
Q 2772 3150 2772 3378 
Q 2772 3750 2511 3984 
Q 2250 4219 1831 4219 
Q 1534 4219 1204 4116 
Q 875 4013 500 3803 
L 500 4441 
Q 881 4594 1212 4672 
Q 1544 4750 1819 4750 
Q 2544 4750 2975 4387 
Q 3406 4025 3406 3419 
Q 3406 3131 3298 2873 
Q 3191 2616 2906 2266 
Q 2828 2175 2409 1742 
Q 1991 1309 1228 531 
z
" id="DejaVuSans-32" transform="scale(0.015625)"/>
       </defs>
       <use xlink:href="#DejaVuSans-30"/>
       <use x="63.623047" xlink:href="#DejaVuSans-2e"/>
       <use x="95.410156" xlink:href="#DejaVuSans-32"/>
      </g>
     </g>
    </g>
    <g id="xtick_3">
     <g id="line2d_3">
      <g>
       <use style="stroke:#000000;stroke-width:0.8;" x="200.448" xlink:href="#md53038395f" y="307.584"/>
      </g>
     </g>
     <g id="text_3">
      <!-- 0.4 -->
      <g transform="translate(192.496438 322.182437)scale(0.1 -0.1)">
       <defs>
        <path d="M 2419 4116 
L 825 1625 
L 2419 1625 
L 2419 4116 
z
M 2253 4666 
L 3047 4666 
L 3047 1625 
L 3713 1625 
L 3713 1100 
L 3047 1100 
L 3047 0 
L 2419 0 
L 2419 1100 
L 313 1100 
L 313 1709 
L 2253 4666 
z
" id="DejaVuSans-34" transform="scale(0.015625)"/>
       </defs>
       <use xlink:href="#DejaVuSans-30"/>
       <use x="63.623047" xlink:href="#DejaVuSans-2e"/>
       <use x="95.410156" xlink:href="#DejaVuSans-34"/>
      </g>
     </g>
    </g>
    <g id="xtick_4">
     <g id="line2d_4">
      <g>
       <use style="stroke:#000000;stroke-width:0.8;" x="271.872" xlink:href="#md53038395f" y="307.584"/>
      </g>
     </g>
     <g id="text_4">
      <!-- 0.6 -->
      <g transform="translate(263.920438 322.182437)scale(0.1 -0.1)">
       <defs>
        <path d="M 2113 2584 
Q 1688 2584 1439 2293 
Q 1191 2003 1191 1497 
Q 1191 994 1439 701 
Q 1688 409 2113 409 
Q 2538 409 2786 701 
Q 3034 994 3034 1497 
Q 3034 2003 2786 2293 
Q 2538 2584 2113 2584 
z
M 3366 4563 
L 3366 3988 
Q 3128 4100 2886 4159 
Q 2644 4219 2406 4219 
Q 1781 4219 1451 3797 
Q 1122 3375 1075 2522 
Q 1259 2794 1537 2939 
Q 1816 3084 2150 3084 
Q 2853 3084 3261 2657 
Q 3669 2231 3669 1497 
Q 3669 778 3244 343 
Q 2819 -91 2113 -91 
Q 1303 -91 875 529 
Q 447 1150 447 2328 
Q 447 3434 972 4092 
Q 1497 4750 2381 4750 
Q 2619 4750 2861 4703 
Q 3103 4656 3366 4563 
z
" id="DejaVuSans-36" transform="scale(0.015625)"/>
       </defs>
       <use xlink:href="#DejaVuSans-30"/>
       <use x="63.623047" xlink:href="#DejaVuSans-2e"/>
       <use x="95.410156" xlink:href="#DejaVuSans-36"/>
      </g>
     </g>
    </g>
    <g id="xtick_5">
     <g id="line2d_5">
      <g>
       <use style="stroke:#000000;stroke-width:0.8;" x="343.296" xlink:href="#md53038395f" y="307.584"/>
      </g>
     </g>
     <g id="text_5">
      <!-- 0.8 -->
      <g transform="translate(335.344438 322.182437)scale(0.1 -0.1)">
       <defs>
        <path d="M 2034 2216 
Q 1584 2216 1326 1975 
Q 1069 1734 1069 1313 
Q 1069 891 1326 650 
Q 1584 409 2034 409 
Q 2484 409 2743 651 
Q 3003 894 3003 1313 
Q 3003 1734 2745 1975 
Q 2488 2216 2034 2216 
z
M 1403 2484 
Q 997 2584 770 2862 
Q 544 3141 544 3541 
Q 544 4100 942 4425 
Q 1341 4750 2034 4750 
Q 2731 4750 3128 4425 
Q 3525 4100 3525 3541 
Q 3525 3141 3298 2862 
Q 3072 2584 2669 2484 
Q 3125 2378 3379 2068 
Q 3634 1759 3634 1313 
Q 3634 634 3220 271 
Q 2806 -91 2034 -91 
Q 1263 -91 848 271 
Q 434 634 434 1313 
Q 434 1759 690 2068 
Q 947 2378 1403 2484 
z
M 1172 3481 
Q 1172 3119 1398 2916 
Q 1625 2713 2034 2713 
Q 2441 2713 2670 2916 
Q 2900 3119 2900 3481 
Q 2900 3844 2670 4047 
Q 2441 4250 2034 4250 
Q 1625 4250 1398 4047 
Q 1172 3844 1172 3481 
z
" id="DejaVuSans-38" transform="scale(0.015625)"/>
       </defs>
       <use xlink:href="#DejaVuSans-30"/>
       <use x="63.623047" xlink:href="#DejaVuSans-2e"/>
       <use x="95.410156" xlink:href="#DejaVuSans-38"/>
      </g>
     </g>
    </g>
    <g id="xtick_6">
     <g id="line2d_6">
      <g>
       <use style="stroke:#000000;stroke-width:0.8;" x="414.72" xlink:href="#md53038395f" y="307.584"/>
      </g>
     </g>
     <g id="text_6">
      <!-- 1.0 -->
      <g transform="translate(406.768438 322.182437)scale(0.1 -0.1)">
       <defs>
        <path d="M 794 531 
L 1825 531 
L 1825 4091 
L 703 3866 
L 703 4441 
L 1819 4666 
L 2450 4666 
L 2450 531 
L 3481 531 
L 3481 0 
L 794 0 
L 794 531 
z
" id="DejaVuSans-31" transform="scale(0.015625)"/>
       </defs>
       <use xlink:href="#DejaVuSans-31"/>
       <use x="63.623047" xlink:href="#DejaVuSans-2e"/>
       <use x="95.410156" xlink:href="#DejaVuSans-30"/>
      </g>
     </g>
    </g>
    <g id="text_7">
     <!-- Recall -->
     <g transform="translate(221.242812 335.860562)scale(0.1 -0.1)">
      <defs>
       <path d="M 2841 2188 
Q 3044 2119 3236 1894 
Q 3428 1669 3622 1275 
L 4263 0 
L 3584 0 
L 2988 1197 
Q 2756 1666 2539 1819 
Q 2322 1972 1947 1972 
L 1259 1972 
L 1259 0 
L 628 0 
L 628 4666 
L 2053 4666 
Q 2853 4666 3247 4331 
Q 3641 3997 3641 3322 
Q 3641 2881 3436 2590 
Q 3231 2300 2841 2188 
z
M 1259 4147 
L 1259 2491 
L 2053 2491 
Q 2509 2491 2742 2702 
Q 2975 2913 2975 3322 
Q 2975 3731 2742 3939 
Q 2509 4147 2053 4147 
L 1259 4147 
z
" id="DejaVuSans-52" transform="scale(0.015625)"/>
       <path d="M 3597 1894 
L 3597 1613 
L 953 1613 
Q 991 1019 1311 708 
Q 1631 397 2203 397 
Q 2534 397 2845 478 
Q 3156 559 3463 722 
L 3463 178 
Q 3153 47 2828 -22 
Q 2503 -91 2169 -91 
Q 1331 -91 842 396 
Q 353 884 353 1716 
Q 353 2575 817 3079 
Q 1281 3584 2069 3584 
Q 2775 3584 3186 3129 
Q 3597 2675 3597 1894 
z
M 3022 2063 
Q 3016 2534 2758 2815 
Q 2500 3097 2075 3097 
Q 1594 3097 1305 2825 
Q 1016 2553 972 2059 
L 3022 2063 
z
" id="DejaVuSans-65" transform="scale(0.015625)"/>
       <path d="M 3122 3366 
L 3122 2828 
Q 2878 2963 2633 3030 
Q 2388 3097 2138 3097 
Q 1578 3097 1268 2742 
Q 959 2388 959 1747 
Q 959 1106 1268 751 
Q 1578 397 2138 397 
Q 2388 397 2633 464 
Q 2878 531 3122 666 
L 3122 134 
Q 2881 22 2623 -34 
Q 2366 -91 2075 -91 
Q 1284 -91 818 406 
Q 353 903 353 1747 
Q 353 2603 823 3093 
Q 1294 3584 2113 3584 
Q 2378 3584 2631 3529 
Q 2884 3475 3122 3366 
z
" id="DejaVuSans-63" transform="scale(0.015625)"/>
       <path d="M 2194 1759 
Q 1497 1759 1228 1600 
Q 959 1441 959 1056 
Q 959 750 1161 570 
Q 1363 391 1709 391 
Q 2188 391 2477 730 
Q 2766 1069 2766 1631 
L 2766 1759 
L 2194 1759 
z
M 3341 1997 
L 3341 0 
L 2766 0 
L 2766 531 
Q 2569 213 2275 61 
Q 1981 -91 1556 -91 
Q 1019 -91 701 211 
Q 384 513 384 1019 
Q 384 1609 779 1909 
Q 1175 2209 1959 2209 
L 2766 2209 
L 2766 2266 
Q 2766 2663 2505 2880 
Q 2244 3097 1772 3097 
Q 1472 3097 1187 3025 
Q 903 2953 641 2809 
L 641 3341 
Q 956 3463 1253 3523 
Q 1550 3584 1831 3584 
Q 2591 3584 2966 3190 
Q 3341 2797 3341 1997 
z
" id="DejaVuSans-61" transform="scale(0.015625)"/>
       <path d="M 603 4863 
L 1178 4863 
L 1178 0 
L 603 0 
L 603 4863 
z
" id="DejaVuSans-6c" transform="scale(0.015625)"/>
      </defs>
      <use xlink:href="#DejaVuSans-52"/>
      <use x="64.982422" xlink:href="#DejaVuSans-65"/>
      <use x="126.505859" xlink:href="#DejaVuSans-63"/>
      <use x="181.486328" xlink:href="#DejaVuSans-61"/>
      <use x="242.765625" xlink:href="#DejaVuSans-6c"/>
      <use x="270.548828" xlink:href="#DejaVuSans-6c"/>
     </g>
    </g>
   </g>
   <g id="matplotlib.axis_2">
    <g id="ytick_1">
     <g id="line2d_7">
      <defs>
       <path d="M 0 0 
L -3.5 0 
" id="m4d83d9bf19" style="stroke:#000000;stroke-width:0.8;"/>
      </defs>
      <g>
       <use style="stroke:#000000;stroke-width:0.8;" x="57.6" xlink:href="#m4d83d9bf19" y="307.584"/>
      </g>
     </g>
     <g id="text_8">
      <!-- 0.0 -->
      <g transform="translate(34.696875 311.383219)scale(0.1 -0.1)">
       <use xlink:href="#DejaVuSans-30"/>
       <use x="63.623047" xlink:href="#DejaVuSans-2e"/>
       <use x="95.410156" xlink:href="#DejaVuSans-30"/>
      </g>
     </g>
    </g>
    <g id="ytick_2">
     <g id="line2d_8">
      <g>
       <use style="stroke:#000000;stroke-width:0.8;" x="57.6" xlink:href="#m4d83d9bf19" y="256.896"/>
      </g>
     </g>
     <g id="text_9">
      <!-- 0.2 -->
      <g transform="translate(34.696875 260.695219)scale(0.1 -0.1)">
       <use xlink:href="#DejaVuSans-30"/>
       <use x="63.623047" xlink:href="#DejaVuSans-2e"/>
       <use x="95.410156" xlink:href="#DejaVuSans-32"/>
      </g>
     </g>
    </g>
    <g id="ytick_3">
     <g id="line2d_9">
      <g>
       <use style="stroke:#000000;stroke-width:0.8;" x="57.6" xlink:href="#m4d83d9bf19" y="206.208"/>
      </g>
     </g>
     <g id="text_10">
      <!-- 0.4 -->
      <g transform="translate(34.696875 210.007219)scale(0.1 -0.1)">
       <use xlink:href="#DejaVuSans-30"/>
       <use x="63.623047" xlink:href="#DejaVuSans-2e"/>
       <use x="95.410156" xlink:href="#DejaVuSans-34"/>
      </g>
     </g>
    </g>
    <g id="ytick_4">
     <g id="line2d_10">
      <g>
       <use style="stroke:#000000;stroke-width:0.8;" x="57.6" xlink:href="#m4d83d9bf19" y="155.52"/>
      </g>
     </g>
     <g id="text_11">
      <!-- 0.6 -->
      <g transform="translate(34.696875 159.319219)scale(0.1 -0.1)">
       <use xlink:href="#DejaVuSans-30"/>
       <use x="63.623047" xlink:href="#DejaVuSans-2e"/>
       <use x="95.410156" xlink:href="#DejaVuSans-36"/>
      </g>
     </g>
    </g>
    <g id="ytick_5">
     <g id="line2d_11">
      <g>
       <use style="stroke:#000000;stroke-width:0.8;" x="57.6" xlink:href="#m4d83d9bf19" y="104.832"/>
      </g>
     </g>
     <g id="text_12">
      <!-- 0.8 -->
      <g transform="translate(34.696875 108.631219)scale(0.1 -0.1)">
       <use xlink:href="#DejaVuSans-30"/>
       <use x="63.623047" xlink:href="#DejaVuSans-2e"/>
       <use x="95.410156" xlink:href="#DejaVuSans-38"/>
      </g>
     </g>
    </g>
    <g id="ytick_6">
     <g id="line2d_12">
      <g>
       <use style="stroke:#000000;stroke-width:0.8;" x="57.6" xlink:href="#m4d83d9bf19" y="54.144"/>
      </g>
     </g>
     <g id="text_13">
      <!-- 1.0 -->
      <g transform="translate(34.696875 57.943219)scale(0.1 -0.1)">
       <use xlink:href="#DejaVuSans-31"/>
       <use x="63.623047" xlink:href="#DejaVuSans-2e"/>
       <use x="95.410156" xlink:href="#DejaVuSans-30"/>
      </g>
     </g>
    </g>
    <g id="text_14">
     <!-- Precision -->
     <g transform="translate(28.617187 196.835031)rotate(-90)scale(0.1 -0.1)">
      <defs>
       <path d="M 1259 4147 
L 1259 2394 
L 2053 2394 
Q 2494 2394 2734 2622 
Q 2975 2850 2975 3272 
Q 2975 3691 2734 3919 
Q 2494 4147 2053 4147 
L 1259 4147 
z
M 628 4666 
L 2053 4666 
Q 2838 4666 3239 4311 
Q 3641 3956 3641 3272 
Q 3641 2581 3239 2228 
Q 2838 1875 2053 1875 
L 1259 1875 
L 1259 0 
L 628 0 
L 628 4666 
z
" id="DejaVuSans-50" transform="scale(0.015625)"/>
       <path d="M 2631 2963 
Q 2534 3019 2420 3045 
Q 2306 3072 2169 3072 
Q 1681 3072 1420 2755 
Q 1159 2438 1159 1844 
L 1159 0 
L 581 0 
L 581 3500 
L 1159 3500 
L 1159 2956 
Q 1341 3275 1631 3429 
Q 1922 3584 2338 3584 
Q 2397 3584 2469 3576 
Q 2541 3569 2628 3553 
L 2631 2963 
z
" id="DejaVuSans-72" transform="scale(0.015625)"/>
       <path d="M 603 3500 
L 1178 3500 
L 1178 0 
L 603 0 
L 603 3500 
z
M 603 4863 
L 1178 4863 
L 1178 4134 
L 603 4134 
L 603 4863 
z
" id="DejaVuSans-69" transform="scale(0.015625)"/>
       <path d="M 2834 3397 
L 2834 2853 
Q 2591 2978 2328 3040 
Q 2066 3103 1784 3103 
Q 1356 3103 1142 2972 
Q 928 2841 928 2578 
Q 928 2378 1081 2264 
Q 1234 2150 1697 2047 
L 1894 2003 
Q 2506 1872 2764 1633 
Q 3022 1394 3022 966 
Q 3022 478 2636 193 
Q 2250 -91 1575 -91 
Q 1294 -91 989 -36 
Q 684 19 347 128 
L 347 722 
Q 666 556 975 473 
Q 1284 391 1588 391 
Q 1994 391 2212 530 
Q 2431 669 2431 922 
Q 2431 1156 2273 1281 
Q 2116 1406 1581 1522 
L 1381 1569 
Q 847 1681 609 1914 
Q 372 2147 372 2553 
Q 372 3047 722 3315 
Q 1072 3584 1716 3584 
Q 2034 3584 2315 3537 
Q 2597 3491 2834 3397 
z
" id="DejaVuSans-73" transform="scale(0.015625)"/>
       <path d="M 1959 3097 
Q 1497 3097 1228 2736 
Q 959 2375 959 1747 
Q 959 1119 1226 758 
Q 1494 397 1959 397 
Q 2419 397 2687 759 
Q 2956 1122 2956 1747 
Q 2956 2369 2687 2733 
Q 2419 3097 1959 3097 
z
M 1959 3584 
Q 2709 3584 3137 3096 
Q 3566 2609 3566 1747 
Q 3566 888 3137 398 
Q 2709 -91 1959 -91 
Q 1206 -91 779 398 
Q 353 888 353 1747 
Q 353 2609 779 3096 
Q 1206 3584 1959 3584 
z
" id="DejaVuSans-6f" transform="scale(0.015625)"/>
       <path d="M 3513 2113 
L 3513 0 
L 2938 0 
L 2938 2094 
Q 2938 2591 2744 2837 
Q 2550 3084 2163 3084 
Q 1697 3084 1428 2787 
Q 1159 2491 1159 1978 
L 1159 0 
L 581 0 
L 581 3500 
L 1159 3500 
L 1159 2956 
Q 1366 3272 1645 3428 
Q 1925 3584 2291 3584 
Q 2894 3584 3203 3211 
Q 3513 2838 3513 2113 
z
" id="DejaVuSans-6e" transform="scale(0.015625)"/>
      </defs>
      <use xlink:href="#DejaVuSans-50"/>
      <use x="58.552734" xlink:href="#DejaVuSans-72"/>
      <use x="97.416016" xlink:href="#DejaVuSans-65"/>
      <use x="158.939453" xlink:href="#DejaVuSans-63"/>
      <use x="213.919922" xlink:href="#DejaVuSans-69"/>
      <use x="241.703125" xlink:href="#DejaVuSans-73"/>
      <use x="293.802734" xlink:href="#DejaVuSans-69"/>
      <use x="321.585938" xlink:href="#DejaVuSans-6f"/>
      <use x="382.767578" xlink:href="#DejaVuSans-6e"/>
     </g>
    </g>
   </g>
   <g id="line2d_13">
    <path clip-path="url(#pc80f08607e)" d="M 414.72 179.413333 
L 414.244474 179.497747 
L 414.244474 179.411377 
L 414.244474 178.453565 
L 413.768948 178.538072 
L 413.768948 178.450286 
L 413.768948 170.128127 
L 413.293422 170.212174 
L 413.293422 170.112557 
L 413.293422 159.364203 
L 412.817896 159.446535 
L 412.817896 154.783613 
L 412.34237 154.864905 
L 412.34237 154.741445 
L 411.866844 154.822835 
L 411.866844 149.316775 
L 411.391318 149.396617 
L 411.391318 147.516632 
L 410.915792 147.595963 
L 410.915792 146.086642 
L 410.440266 146.165562 
L 410.440266 143.917786 
L 409.96474 143.995986 
L 409.96474 137.321951 
L 409.013688 137.473046 
L 409.013688 137.163472 
L 408.538162 137.239082 
L 408.538162 132.944672 
L 408.062636 133.018318 
L 408.062636 129.353771 
L 407.111585 129.497576 
L 407.111585 128.12504 
L 406.636059 128.196382 
L 406.636059 126.977243 
L 406.160533 127.048023 
L 406.160533 125.455059 
L 405.685007 125.52504 
L 405.685007 123.355519 
L 405.209481 123.424318 
L 405.209481 122.873492 
L 404.258429 123.010813 
L 404.258429 122.82624 
L 403.782903 122.894991 
L 403.782903 121.779045 
L 403.307377 121.847226 
L 403.307377 121.659802 
L 402.356325 121.796336 
L 402.356325 120.471984 
L 401.880799 120.539596 
L 401.880799 115.044063 
L 401.405273 115.108034 
L 401.405273 114.091793 
L 400.929747 114.155163 
L 400.929747 113.950476 
L 400.454221 114.013831 
L 400.454221 113.80856 
L 399.978695 113.871898 
L 399.978695 113.045834 
L 399.027643 113.171692 
L 399.027643 110.005368 
L 398.076591 110.126938 
L 398.076591 108.829301 
L 396.650013 109.009582 
L 396.650013 108.791129 
L 396.174487 108.851313 
L 396.174487 107.75091 
L 395.698961 107.810341 
L 395.698961 107.588617 
L 395.223435 107.648 
L 395.223435 107.202708 
L 394.747909 107.26186 
L 394.747909 106.36456 
L 393.321332 106.540584 
L 393.321332 105.404746 
L 392.845806 105.462733 
L 392.845806 105.23383 
L 391.894754 105.349812 
L 391.894754 104.889666 
L 391.419228 104.947462 
L 391.419228 104.252709 
L 390.943702 104.310041 
L 390.943702 104.077196 
L 390.468176 104.134459 
L 390.468176 103.900877 
L 389.99265 103.958069 
L 389.99265 102.78104 
L 389.517124 102.837333 
L 389.517124 100.923813 
L 389.041598 100.978526 
L 389.041598 100.007408 
L 388.566072 100.061365 
L 388.566072 99.326338 
L 388.090546 99.379745 
L 388.090546 98.88637 
L 386.188442 99.099429 
L 386.188442 98.101895 
L 385.712916 98.154539 
L 385.712916 97.399385 
L 385.23739 97.451437 
L 385.23739 96.944483 
L 384.761864 96.996174 
L 384.761864 96.741533 
L 384.286338 96.793104 
L 384.286338 95.509359 
L 383.810812 95.559805 
L 383.810812 95.300923 
L 383.335286 95.351237 
L 383.335286 94.570012 
L 381.433182 94.769401 
L 381.433182 94.243283 
L 380.957656 94.292911 
L 380.957656 93.498037 
L 379.531079 93.645247 
L 379.531079 93.378157 
L 379.055553 93.4272 
L 379.055553 92.890466 
L 378.580027 92.939082 
L 378.580027 92.128081 
L 377.628975 92.224 
L 377.628975 91.678785 
L 377.153449 91.726357 
L 377.153449 91.452426 
L 376.677923 91.499832 
L 376.677923 90.11822 
L 376.202397 90.164282 
L 376.202397 89.885538 
L 375.251345 89.977419 
L 375.251345 89.697359 
L 374.775819 89.743175 
L 374.775819 88.897739 
L 374.300293 88.942756 
L 374.300293 88.659175 
L 372.398189 88.839176 
L 372.398189 88.267294 
L 371.922663 88.311958 
L 371.922663 88.024577 
L 371.447137 88.069039 
L 371.447137 87.201391 
L 370.496085 87.288729 
L 370.496085 86.705166 
L 368.118455 86.92224 
L 368.118455 86.332235 
L 367.642929 86.375325 
L 367.642929 86.078799 
L 366.216352 86.207742 
L 366.216352 84.707902 
L 365.740826 84.749373 
L 365.740826 84.446609 
L 364.789774 84.529177 
L 364.789774 83.919738 
L 363.838722 84.001315 
L 363.838722 83.078691 
L 362.412144 83.198586 
L 362.412144 82.577019 
L 360.985566 82.695655 
L 360.985566 82.068351 
L 360.034514 82.146462 
L 360.034514 81.196584 
L 359.558988 81.234633 
L 359.558988 80.915831 
L 357.656884 81.067513 
L 357.656884 80.746213 
L 357.181358 80.784 
L 357.181358 80.461383 
L 356.705832 80.498872 
L 356.705832 79.850057 
L 355.75478 79.923713 
L 355.75478 79.597085 
L 354.328202 79.707112 
L 354.328202 78.717777 
L 353.852676 78.753391 
L 353.852676 78.421271 
L 350.523995 78.670452 
L 350.523995 78.334308 
L 349.572943 78.405561 
L 349.572943 78.06754 
L 348.146365 78.173867 
L 348.146365 77.833496 
L 346.719787 77.93941 
L 346.719787 77.596657 
L 345.768735 77.666874 
L 345.768735 77.322171 
L 345.293209 77.356973 
L 345.293209 77.010767 
L 344.817683 77.045205 
L 344.817683 76.697484 
L 344.342157 76.731553 
L 344.342157 76.382306 
L 341.489001 76.586015 
L 341.489001 76.232807 
L 340.537949 76.300564 
L 340.537949 75.94529 
L 339.111372 76.046222 
L 339.111372 75.688359 
L 338.635846 75.721709 
L 338.635846 75.00164 
L 336.733742 75.132 
L 336.733742 74.768225 
L 336.258216 74.800552 
L 336.258216 74.435115 
L 335.78269 74.467019 
L 335.78269 73.731634 
L 333.880586 73.856 
L 333.880586 73.484413 
L 333.40506 73.51521 
L 333.40506 73.141895 
L 331.978482 73.233231 
L 331.978482 72.857066 
L 331.502956 72.887151 
L 331.502956 72.509217 
L 331.02743 72.538839 
L 331.02743 72.159121 
L 326.747696 72.424918 
L 326.747696 72.038778 
L 326.27217 72.068211 
L 326.27217 70.900364 
L 324.370067 71.011887 
L 324.370067 70.6176 
L 323.419015 70.672696 
L 323.419015 70.275859 
L 322.943489 70.302926 
L 322.943489 69.904134 
L 321.516911 69.984 
L 321.516911 69.178576 
L 320.090333 69.255414 
L 320.090333 68.84871 
L 319.139281 68.899068 
L 319.139281 68.48966 
L 318.663755 68.514309 
L 318.663755 67.689931 
L 315.335073 67.855414 
L 315.335073 67.015734 
L 309.628762 67.29205 
L 309.628762 66.861419 
L 309.153236 66.884251 
L 309.153236 66.451338 
L 307.251132 66.540522 
L 307.251132 66.103056 
L 305.824554 66.168526 
L 305.824554 65.727181 
L 304.873502 65.769688 
L 304.873502 64.879028 
L 303.92245 64.918713 
L 303.92245 64.018286 
L 294.887457 64.379077 
L 294.887457 63.910474 
L 292.034301 64.024702 
L 292.034301 63.071436 
L 286.327989 63.286124 
L 286.327989 62.303034 
L 285.852463 62.319484 
L 285.852463 61.824 
L 280.621678 61.998545 
L 280.621678 61.490087 
L 271.111158 61.807413 
L 271.111158 61.275429 
L 267.306951 61.401093 
L 267.306951 60.857642 
L 266.355899 60.887415 
L 266.355899 60.3392 
L 263.978269 60.408809 
L 263.978269 59.852108 
L 263.027217 59.877937 
L 263.027217 59.316245 
L 259.698535 59.399668 
L 259.698535 58.826494 
L 254.943276 58.937191 
L 254.943276 58.347981 
L 246.383808 58.535287 
L 246.383808 57.9173 
L 244.481704 57.955128 
L 244.481704 57.32792 
L 235.922237 57.478737 
L 235.922237 56.818828 
L 202.635419 57.424777 
L 178.383595 58.073302 
L 178.383595 57.102444 
L 156.984927 57.730415 
L 146.998881 58.124733 
L 146.998881 56.811789 
L 145.096778 56.869161 
L 145.096778 55.513946 
L 123.222583 55.967309 
L 115.614168 56.204488 
L 115.614168 54.144 
L 57.6 54.144 
L 57.6 54.144 
" style="fill:none;stroke:#73e5a1;stroke-linecap:square;stroke-width:2;"/>
   </g>
   <g id="line2d_14">
    <path clip-path="url(#pc80f08607e)" d="M 414.72 111.676185 
L 414.550024 111.69736 
L 414.550024 111.625237 
L 414.550024 111.263823 
L 414.380048 111.2849 
L 414.380048 111.212439 
L 414.380048 91.686857 
L 414.040095 91.717355 
L 414.040095 91.62964 
L 414.040095 88.42372 
L 413.870119 88.437861 
L 413.870119 88.347417 
L 413.870119 87.894074 
L 413.700143 87.908038 
L 413.700143 87.817113 
L 413.700143 87.726112 
L 413.530167 87.740023 
L 413.530167 87.648915 
L 413.530167 86.4576 
L 413.36019 86.47107 
L 413.36019 86.378862 
L 413.36019 85.079839 
L 413.020238 85.012375 
L 413.020238 82.936675 
L 412.510309 82.973338 
L 412.510309 82.877962 
L 412.510309 82.782505 
L 412.340333 82.794676 
L 412.340333 82.699102 
L 412.340333 82.220012 
L 412.170357 82.23198 
L 412.170357 82.135881 
L 412.170357 80.098699 
L 412.000381 80.109872 
L 412.000381 80.011907 
L 412.000381 79.717506 
L 411.830405 79.728538 
L 411.830405 79.630198 
L 411.830405 79.531772 
L 411.490452 79.553715 
L 411.490452 79.455128 
L 411.490452 79.356457 
L 411.320476 79.367367 
L 411.320476 79.268571 
L 411.320476 79.070724 
L 411.1505 79.081529 
L 411.1505 78.982439 
L 411.1505 78.784 
L 410.980524 78.794699 
L 410.980524 78.695312 
L 410.980524 78.197078 
L 410.810547 78.207554 
L 410.810547 78.107608 
L 410.810547 78.007575 
L 410.640571 78.017982 
L 410.640571 77.917822 
L 410.640571 77.817575 
L 410.470595 77.827913 
L 410.470595 77.727539 
L 410.470595 76.921378 
L 410.130643 76.840119 
L 410.130643 76.738783 
L 409.960666 76.74871 
L 409.960666 76.647244 
L 409.960666 75.320021 
L 409.79069 75.329387 
L 409.79069 75.226619 
L 409.79069 75.123761 
L 409.450738 75.142352 
L 409.450738 75.039319 
L 409.450738 74.4192 
L 409.110785 74.333479 
L 409.110785 74.229628 
L 408.770833 74.143501 
L 408.770833 73.517375 
L 408.090928 73.447226 
L 408.090928 73.237238 
L 407.920952 73.245803 
L 407.920952 73.140625 
L 407.920952 72.507564 
L 407.581 72.418178 
L 407.581 71.993499 
L 407.241047 72.00963 
L 407.241047 71.903132 
L 407.241047 71.583058 
L 407.071071 71.590957 
L 407.071071 71.484027 
L 407.071071 70.947924 
L 406.901095 70.955558 
L 406.901095 70.848 
L 406.901095 70.308738 
L 406.22119 70.229918 
L 406.22119 70.121487 
L 405.881238 70.027477 
L 405.881238 68.935765 
L 405.541285 68.839555 
L 405.541285 68.619615 
L 405.371309 68.626286 
L 405.371309 68.516116 
L 405.371309 68.405845 
L 404.86138 68.315091 
L 404.86138 68.09375 
L 404.521428 68.106667 
L 404.521428 67.995746 
L 404.521428 67.328059 
L 404.351452 67.334186 
L 404.351452 67.222494 
L 404.181475 67.228577 
L 404.181475 66.892728 
L 404.011499 66.898669 
L 404.011499 66.674149 
L 403.161618 66.703439 
L 403.161618 66.590773 
L 402.821666 66.602427 
L 402.821666 65.810097 
L 402.481713 65.821066 
L 402.481713 65.707349 
L 402.311737 65.712791 
L 402.311737 65.598915 
L 402.141761 65.604311 
L 402.141761 65.490277 
L 401.971785 65.495627 
L 401.971785 65.267134 
L 401.801809 65.272385 
L 401.801809 65.157925 
L 401.121904 65.178775 
L 401.121904 64.949116 
L 400.951928 64.954237 
L 400.951928 64.724038 
L 400.781951 64.729059 
L 400.781951 64.613744 
L 400.441999 64.623696 
L 400.441999 64.508165 
L 399.93207 64.522971 
L 399.93207 64.407173 
L 399.592118 64.416961 
L 399.592118 64.300947 
L 399.422142 64.305795 
L 399.422142 64.189616 
L 399.082189 64.19922 
L 399.082189 64.082824 
L 398.912213 64.087579 
L 398.912213 63.971018 
L 398.572261 63.980435 
L 398.572261 63.863655 
L 397.892356 63.882329 
L 397.892356 63.648 
L 397.552404 63.657147 
L 397.552404 63.1867 
L 397.382427 63.191062 
L 397.382427 63.073112 
L 397.042475 63.081739 
L 397.042475 62.963565 
L 396.532546 62.976372 
L 396.532546 62.620665 
L 396.192594 62.628891 
L 396.192594 62.271813 
L 396.022618 62.275765 
L 396.022618 62.156451 
L 395.852642 62.16035 
L 395.852642 61.921263 
L 395.342713 61.932644 
L 395.342713 61.812755 
L 395.172737 61.8165 
L 395.172737 61.696438 
L 394.492832 61.711225 
L 394.492832 61.349647 
L 393.302999 61.374457 
L 393.302999 61.253291 
L 392.623094 61.267314 
L 392.623094 61.145796 
L 392.113165 61.156174 
L 392.113165 61.034361 
L 391.773213 61.04118 
L 391.773213 60.796957 
L 390.243427 60.826746 
L 390.243427 60.70392 
L 390.073451 60.707187 
L 390.073451 60.584179 
L 389.903475 60.58739 
L 389.903475 60.4642 
L 389.22357 60.476834 
L 389.22357 60.35328 
L 388.713641 60.362608 
L 388.713641 60.114767 
L 388.373689 60.120759 
L 388.373689 59.872177 
L 388.203713 59.875055 
L 388.203713 59.625851 
L 387.523808 59.636903 
L 387.523808 59.386704 
L 386.333974 59.405286 
L 386.333974 59.279562 
L 385.994022 59.284771 
L 385.994022 59.158795 
L 385.654069 59.163888 
L 385.654069 59.037659 
L 385.484093 59.040146 
L 385.484093 58.913725 
L 384.804188 58.92345 
L 384.804188 58.796647 
L 383.444379 58.815705 
L 383.444379 58.688262 
L 382.93445 58.695257 
L 382.93445 58.567491 
L 382.424522 58.574314 
L 382.424522 58.446222 
L 382.254545 58.448436 
L 382.254545 58.320148 
L 381.744617 58.32661 
L 381.744617 58.197994 
L 380.894736 58.20848 
L 380.894736 57.950194 
L 380.72476 57.952166 
L 380.72476 57.693212 
L 378.175117 57.721041 
L 378.175117 57.59036 
L 377.835164 57.593969 
L 377.835164 57.463015 
L 376.645331 57.47523 
L 376.645331 57.343663 
L 375.965426 57.35041 
L 375.965426 57.21843 
L 375.115545 57.226559 
L 375.115545 57.094095 
L 374.775593 57.09722 
L 374.775593 56.964477 
L 372.565902 56.984043 
L 372.565902 56.850247 
L 371.716021 56.85749 
L 371.716021 56.723197 
L 371.376069 56.725962 
L 371.376069 56.591382 
L 370.186235 56.600607 
L 370.186235 56.465379 
L 368.826426 56.475429 
L 368.826426 56.339474 
L 367.806568 56.346629 
L 367.806568 56.210087 
L 367.126663 56.214588 
L 367.126663 56.077602 
L 365.766854 56.086069 
L 365.766854 55.948337 
L 365.596878 55.949326 
L 365.596878 55.811368 
L 360.837544 55.837363 
L 360.837544 55.697114 
L 360.497592 55.698847 
L 360.497592 55.558286 
L 359.987663 55.560657 
L 359.987663 55.419705 
L 353.018639 55.449644 
L 353.018639 55.305237 
L 351.488853 55.311254 
L 351.488853 55.165935 
L 350.468996 55.16948 
L 350.468996 55.023491 
L 342.480114 55.048067 
L 342.480114 54.897837 
L 321.743018 54.956829 
L 321.743018 54.79468 
L 315.453898 54.810509 
L 315.453898 54.644211 
L 307.29504 54.660522 
L 307.29504 54.488582 
L 306.275183 54.489993 
L 306.275183 54.317115 
L 240.324417 54.379539 
L 240.324417 54.144 
L 57.6 54.144 
L 57.6 54.144 
" style="fill:none;stroke:#8ad496;stroke-linecap:square;stroke-width:2;"/>
   </g>
   <g id="line2d_15">
    <path clip-path="url(#pc80f08607e)" d="M 414.72 273.1776 
L 413.125714 273.310428 
L 413.125714 273.20619 
L 413.125714 266.718403 
L 411.531429 266.87222 
L 411.531429 266.783652 
L 411.531429 252.852794 
L 409.937143 253.046278 
L 409.937143 252.939863 
L 409.937143 223.986627 
L 408.342857 224.240502 
L 408.342857 219.221401 
L 406.748571 219.483429 
L 406.748571 215.232319 
L 405.154286 215.5008 
L 405.154286 210.993231 
L 403.56 211.267923 
L 403.56 199.10968 
L 401.965714 199.396174 
L 401.965714 179.079211 
L 400.371429 179.373176 
L 400.371429 172.374074 
L 398.777143 172.668179 
L 398.777143 171.312241 
L 397.182857 171.607375 
L 397.182857 148.811294 
L 395.588571 149.090549 
L 395.588571 148.621633 
L 393.994286 148.901982 
L 393.994286 146.512193 
L 392.4 146.791251 
L 392.4 146.304 
L 390.805714 146.584122 
L 390.805714 145.102528 
L 389.211429 145.3824 
L 389.211429 143.871205 
L 387.617143 144.150729 
L 387.617143 143.126069 
L 386.022857 143.405887 
L 386.022857 142.366785 
L 384.428571 142.646857 
L 384.428571 138.348821 
L 382.834286 138.624 
L 382.834286 137.512421 
L 381.24 137.787564 
L 381.24 131.391123 
L 379.645714 131.656577 
L 379.645714 131.049931 
L 378.051429 131.316042 
L 378.051429 126.297737 
L 376.457143 126.555429 
L 376.457143 123.264 
L 374.862857 123.516263 
L 374.862857 119.395343 
L 371.674286 119.885955 
L 371.674286 119.17766 
L 370.08 119.424 
L 370.08 117.987664 
L 368.485714 118.232276 
L 368.485714 113.013921 
L 365.297143 113.481143 
L 365.297143 111.142554 
L 360.514286 111.837659 
L 360.514286 109.421037 
L 358.92 109.649455 
L 358.92 106.322824 
L 357.325714 106.542987 
L 357.325714 103.965538 
L 354.137143 104.395034 
L 354.137143 103.515429 
L 352.542857 103.730087 
L 352.542857 100.122053 
L 350.948571 100.3264 
L 350.948571 99.401143 
L 349.354286 99.60409 
L 349.354286 96.768 
L 347.76 96.96263 
L 347.76 93.044093 
L 346.165714 93.225869 
L 346.165714 90.178123 
L 338.194286 91.052738 
L 338.194286 89.996488 
L 336.6 90.172235 
L 336.6 89.101241 
L 335.005714 89.274297 
L 335.005714 85.983196 
L 333.411429 86.144 
L 333.411429 85.019939 
L 331.817143 85.177469 
L 331.817143 82.884619 
L 328.628571 83.184 
L 328.628571 80.821895 
L 327.034286 80.963048 
L 327.034286 79.757617 
L 323.845714 80.033032 
L 323.845714 78.803027 
L 320.657143 79.072525 
L 320.657143 77.816967 
L 314.28 78.348944 
L 314.28 77.053831 
L 312.685714 77.184 
L 312.685714 74.535724 
L 311.091429 74.653595 
L 311.091429 71.929263 
L 307.902857 72.13974 
L 307.902857 70.738286 
L 304.714286 70.938217 
L 304.714286 68.052293 
L 301.525714 68.224 
L 301.525714 66.737292 
L 299.931429 66.816 
L 299.931429 65.301736 
L 293.554286 65.589677 
L 293.554286 64.018286 
L 274.422857 64.852732 
L 274.422857 61.385143 
L 269.64 61.543708 
L 269.64 59.734588 
L 260.074286 59.992615 
L 260.074286 58.073302 
L 228.188571 58.794275 
L 221.811429 58.971429 
L 221.811429 56.580923 
L 209.057143 56.784 
L 209.057143 54.144 
L 57.6 54.144 
L 57.6 54.144 
" style="fill:none;stroke:#7cdccb;stroke-linecap:square;stroke-width:2;"/>
   </g>
   <g id="line2d_16">
    <path clip-path="url(#pc80f08607e)" d="M 414.72 203.292169 
L 414.603901 203.312124 
L 414.603901 203.200394 
L 414.603901 194.686999 
L 414.487802 194.707361 
L 414.487802 194.609151 
L 414.487802 178.960166 
L 414.371704 178.980777 
L 414.371704 178.874511 
L 414.371704 153.300894 
L 414.255605 153.320541 
L 414.255605 153.22879 
L 414.255605 150.835927 
L 414.139506 150.855398 
L 414.139506 150.760659 
L 414.139506 150.157981 
L 414.023407 150.177405 
L 414.023407 150.081814 
L 414.023407 149.377249 
L 413.907308 149.396617 
L 413.907308 149.300044 
L 413.907308 147.607167 
L 413.791209 147.626395 
L 413.791209 147.527615 
L 413.791209 145.017845 
L 413.675111 145.036848 
L 413.675111 144.93481 
L 413.675111 142.024792 
L 413.559012 142.043514 
L 413.559012 141.937647 
L 413.559012 141.228393 
L 413.442913 141.247041 
L 413.442913 141.140117 
L 413.442913 136.897645 
L 413.326814 136.915833 
L 413.326814 136.840781 
L 413.326814 133.783606 
L 413.210715 133.801435 
L 413.210715 133.723592 
L 413.210715 125.35707 
L 412.978518 125.390519 
L 412.978518 125.304902 
L 412.978518 122.256757 
L 412.862419 122.273032 
L 412.862419 122.18443 
L 412.862419 121.695601 
L 412.74632 121.711797 
L 412.74632 121.622628 
L 412.74632 120.951126 
L 412.514122 120.893378 
L 412.514122 117.363995 
L 412.398023 117.379521 
L 412.398023 117.286054 
L 412.398023 115.825486 
L 412.281925 115.840761 
L 412.281925 115.745744 
L 412.281925 114.453743 
L 412.165826 114.46879 
L 412.165826 114.372377 
L 412.165826 113.061316 
L 412.049727 113.076127 
L 412.049727 112.978286 
L 412.049727 110.750543 
L 411.817529 110.679126 
L 411.817529 110.075586 
L 411.70143 110.089876 
L 411.70143 109.988908 
L 411.70143 109.177429 
L 411.585332 109.191558 
L 411.585332 109.089636 
L 411.585332 108.83437 
L 411.353134 108.862518 
L 411.353134 108.760189 
L 411.353134 108.503907 
L 411.237035 108.517925 
L 411.237035 108.415207 
L 411.237035 108.15795 
L 411.120936 108.171907 
L 411.120936 108.068798 
L 411.120936 107.188051 
L 411.004837 107.201829 
L 411.004837 107.09768 
L 411.004837 106.993423 
L 410.888739 107.007168 
L 410.888739 106.902782 
L 410.888739 106.221619 
L 410.77264 106.23522 
L 410.77264 106.129994 
L 410.77264 105.549283 
L 410.424343 105.483722 
L 410.424343 105.111823 
L 410.308244 105.125225 
L 410.308244 105.018696 
L 410.308244 104.323514 
L 410.192146 104.336765 
L 410.192146 104.229369 
L 410.192146 103.744678 
L 409.959948 103.770963 
L 409.959948 103.662897 
L 409.959948 103.229484 
L 409.843849 103.242528 
L 409.843849 103.133864 
L 409.843849 102.588809 
L 409.611651 102.614654 
L 409.611651 102.505249 
L 409.611651 102.066461 
L 409.495553 102.079281 
L 409.495553 101.969268 
L 409.495553 101.804027 
L 409.379454 101.816797 
L 409.379454 101.706466 
L 409.379454 100.819541 
L 409.263355 100.832112 
L 409.263355 100.720686 
L 409.263355 100.105686 
L 409.147256 100.118112 
L 409.147256 100.06201 
L 409.147256 100.005877 
L 408.915059 100.030701 
L 408.915059 99.974514 
L 408.915059 99.693124 
L 408.79896 99.705475 
L 408.79896 99.649094 
L 408.79896 99.536239 
L 408.682861 99.54856 
L 408.682861 99.492075 
L 408.682861 97.725687 
L 408.450663 97.749567 
L 408.450663 97.692062 
L 408.450663 97.404066 
L 408.218466 97.370103 
L 408.218466 97.196754 
L 408.102367 97.208592 
L 408.102367 97.150733 
L 408.102367 96.976964 
L 407.75407 97.012364 
L 407.75407 96.954339 
L 407.75407 96.72192 
L 407.521873 96.687214 
L 407.521873 96.570696 
L 407.289675 96.535816 
L 407.289675 95.950709 
L 407.173576 95.962303 
L 407.173576 95.903601 
L 407.173576 95.668465 
L 406.941378 95.691541 
L 406.941378 95.632649 
L 406.941378 93.550612 
L 406.709181 93.572745 
L 406.709181 93.512629 
L 406.709181 93.45248 
L 406.593082 93.463528 
L 406.593082 93.403331 
L 406.593082 93.041437 
L 406.476983 93.052394 
L 406.476983 92.991946 
L 406.476983 92.324757 
L 406.360884 92.335552 
L 406.360884 92.274679 
L 406.360884 92.152829 
L 406.244785 92.163587 
L 406.244785 92.102596 
L 406.244785 91.613421 
L 406.128687 91.624057 
L 406.128687 91.562739 
L 406.128687 91.501387 
L 406.012588 91.512 
L 406.012588 91.450598 
L 406.012588 91.266184 
L 405.664291 91.236301 
L 405.664291 91.174681 
L 405.432094 91.134103 
L 405.432094 91.072383 
L 405.315995 91.082916 
L 405.315995 91.021147 
L 405.315995 90.835628 
L 405.199896 90.846108 
L 405.199896 90.784183 
L 405.199896 90.660226 
L 404.967698 90.681117 
L 404.967698 90.619056 
L 404.967698 90.370457 
L 404.851599 90.380837 
L 404.851599 90.318583 
L 404.851599 89.75669 
L 404.735501 89.766926 
L 404.735501 89.704299 
L 404.735501 89.641636 
L 404.619402 89.651848 
L 404.619402 89.589134 
L 404.619402 89.086117 
L 404.155007 89.063376 
L 404.155007 88.810605 
L 403.922809 88.767352 
L 403.922809 88.323118 
L 403.690611 88.279315 
L 403.690611 87.704885 
L 403.458414 87.724431 
L 403.458414 87.660388 
L 403.458414 87.596308 
L 403.226216 87.551664 
L 403.226216 87.487477 
L 402.994018 87.442686 
L 402.994018 87.05636 
L 402.645722 87.020697 
L 402.645722 86.762047 
L 402.413524 86.781184 
L 402.413524 86.716394 
L 402.413524 86.326857 
L 402.297425 86.33632 
L 402.297425 86.271247 
L 402.297425 86.010572 
L 402.065228 85.964053 
L 402.065228 85.833342 
L 401.949129 85.84269 
L 401.949129 85.777261 
L 401.949129 85.515155 
L 401.83303 85.524426 
L 401.83303 85.458786 
L 401.83303 85.393107 
L 401.716931 85.40235 
L 401.716931 85.336615 
L 401.716931 85.270842 
L 401.600832 85.280057 
L 401.600832 85.214228 
L 401.600832 84.950522 
L 401.368635 84.9688 
L 401.368635 84.902742 
L 401.368635 84.836645 
L 401.136437 84.788706 
L 401.136437 84.656247 
L 401.020338 84.66532 
L 401.020338 84.599015 
L 401.020338 84.399862 
L 400.78814 84.35139 
L 400.78814 84.284852 
L 400.439844 84.311828 
L 400.439844 84.2452 
L 400.439844 84.111823 
L 400.323745 84.120774 
L 400.323745 84.054009 
L 400.323745 83.518447 
L 400.207646 83.527247 
L 400.207646 83.460104 
L 400.207646 83.392921 
L 400.091547 83.401691 
L 400.091547 83.33445 
L 400.091547 83.199846 
L 399.743251 83.158615 
L 399.743251 83.023663 
L 399.627152 83.032349 
L 399.627152 82.964794 
L 399.627152 82.08287 
L 399.394954 82.099757 
L 399.394954 82.031594 
L 399.394954 81.963389 
L 399.278856 81.971804 
L 399.278856 81.90354 
L 399.278856 81.835235 
L 399.162757 81.843619 
L 399.162757 81.775254 
L 399.162757 81.6384 
L 399.046658 81.646734 
L 399.046658 81.578227 
L 399.046658 81.509678 
L 398.81446 81.526288 
L 398.81446 81.457661 
L 398.81446 81.25153 
L 398.698362 81.259769 
L 398.698362 81.190957 
L 398.698362 80.984268 
L 398.350065 80.939759 
L 398.350065 80.870681 
L 398.233966 80.878829 
L 398.233966 80.809691 
L 398.233966 80.671287 
L 398.117867 80.679385 
L 398.117867 80.610101 
L 398.117867 80.401995 
L 398.001769 80.410023 
L 398.001769 80.34055 
L 398.001769 80.271036 
L 397.88567 80.279031 
L 397.88567 80.209455 
L 397.88567 80.070175 
L 397.769571 80.078118 
L 397.769571 80.008395 
L 397.769571 79.868821 
L 397.421274 79.8226 
L 397.421274 79.472413 
L 397.305176 79.480204 
L 397.305176 79.410018 
L 397.305176 79.339789 
L 397.189077 79.347547 
L 397.189077 79.277255 
L 397.189077 79.136542 
L 397.072978 79.144247 
L 397.072978 79.073806 
L 397.072978 78.791607 
L 396.956879 78.799219 
L 396.956879 78.728541 
L 396.956879 78.445392 
L 396.492484 78.40452 
L 396.492484 77.977743 
L 396.028088 78.007369 
L 396.028088 77.936005 
L 396.028088 77.864597 
L 395.795891 77.807866 
L 395.795891 77.664747 
L 395.447594 77.615057 
L 395.447594 77.543326 
L 395.215397 77.557933 
L 395.215397 77.486117 
L 395.215397 77.342351 
L 394.8671 77.292101 
L 394.8671 77.220045 
L 394.402705 77.248962 
L 394.402705 77.17678 
L 394.402705 76.887596 
L 394.286606 76.894734 
L 394.286606 76.822305 
L 394.286606 76.604742 
L 394.170507 76.611803 
L 394.170507 76.53917 
L 394.170507 76.320997 
L 393.938309 76.26211 
L 393.938309 75.897133 
L 393.706112 75.910871 
L 393.706112 75.837696 
L 393.706112 75.764474 
L 393.473914 75.704835 
L 393.473914 75.411131 
L 393.125618 75.357748 
L 393.125618 75.284095 
L 393.009519 75.290802 
L 393.009519 75.217082 
L 393.009519 75.143314 
L 392.661222 75.089455 
L 392.661222 74.496734 
L 392.312926 74.441843 
L 392.312926 74.143898 
L 391.964629 74.088415 
L 391.964629 73.864115 
L 391.732432 73.801846 
L 391.732432 73.576839 
L 391.616333 73.583076 
L 391.616333 73.507955 
L 391.616333 73.282303 
L 390.803641 73.249979 
L 390.803641 73.174461 
L 390.687542 73.180596 
L 390.687542 73.105006 
L 390.687542 73.029368 
L 390.455345 72.965828 
L 390.455345 72.814216 
L 389.990949 72.762408 
L 389.990949 72.610321 
L 389.526554 72.558064 
L 389.526554 72.329143 
L 389.294356 72.340959 
L 389.294356 72.264507 
L 389.294356 72.111454 
L 388.829961 72.058163 
L 388.829961 71.827782 
L 388.597763 71.839321 
L 388.597763 71.762381 
L 388.597763 71.60835 
L 388.249467 71.548317 
L 388.249467 71.471105 
L 387.785072 71.416451 
L 387.785072 71.339044 
L 387.436775 71.27844 
L 387.436775 70.812201 
L 387.088479 70.750704 
L 387.088479 70.672696 
L 386.624083 70.694501 
L 386.624083 70.616346 
L 386.624083 70.45988 
L 386.275787 70.397673 
L 386.275787 70.319238 
L 386.043589 70.251408 
L 386.043589 70.094182 
L 385.92749 70.099467 
L 385.92749 70.020752 
L 385.92749 69.941984 
L 385.114798 69.899745 
L 385.114798 69.662456 
L 384.302107 69.619315 
L 384.302107 69.539888 
L 383.95381 69.475765 
L 383.95381 69.396156 
L 383.837711 69.401258 
L 383.837711 69.321571 
L 383.837711 69.241831 
L 383.489415 69.177137 
L 383.489415 69.017239 
L 383.02502 69.037217 
L 383.02502 68.957087 
L 383.02502 68.876903 
L 382.444525 68.821333 
L 382.444525 68.660442 
L 382.096229 68.594526 
L 382.096229 68.271568 
L 381.283537 68.224 
L 381.283537 68.142889 
L 381.051339 68.152383 
L 381.051339 68.071164 
L 381.051339 67.989891 
L 380.819142 67.917913 
L 380.819142 67.836477 
L 380.586944 67.764245 
L 380.586944 67.600991 
L 380.238648 67.532957 
L 380.238648 67.451112 
L 379.542055 67.396331 
L 379.542055 67.314215 
L 379.193758 67.245486 
L 379.193758 67.163178 
L 378.845462 67.176568 
L 378.845462 67.094123 
L 378.845462 66.929065 
L 377.800572 66.885818 
L 377.800572 66.636906 
L 377.568375 66.645525 
L 377.568375 66.562385 
L 377.568375 66.479188 
L 377.452276 66.483448 
L 377.452276 66.400166 
L 377.452276 66.23343 
L 377.103979 66.162442 
L 377.103979 65.995195 
L 376.639584 65.927817 
L 376.639584 65.76 
L 376.291287 65.688033 
L 376.291287 65.603896 
L 374.782003 65.571389 
L 374.782003 65.486769 
L 374.549805 65.494707 
L 374.549805 65.409971 
L 374.549805 65.240322 
L 373.621014 65.186361 
L 373.621014 64.930578 
L 373.504915 64.934373 
L 373.504915 64.848963 
L 373.504915 64.763493 
L 371.995631 64.72642 
L 371.995631 64.640453 
L 371.879532 64.64417 
L 371.879532 64.558113 
L 371.879532 64.471994 
L 371.531235 64.482985 
L 371.531235 64.396718 
L 371.531235 64.224 
L 370.718544 64.162462 
L 370.718544 63.988961 
L 369.673654 63.933528 
L 369.673654 63.846354 
L 369.325358 63.856779 
L 369.325358 63.769453 
L 369.325358 63.594613 
L 369.09316 63.513821 
L 369.09316 63.426183 
L 367.351678 63.38829 
L 367.351678 63.300069 
L 367.003381 63.221627 
L 367.003381 63.044681 
L 366.887282 63.047904 
L 366.887282 62.959304 
L 366.887282 62.87064 
L 366.306788 62.7976 
L 366.306788 62.619638 
L 365.958492 62.628891 
L 365.958492 62.539719 
L 365.958492 62.450482 
L 365.029701 62.385198 
L 365.029701 62.295579 
L 364.913602 62.298559 
L 364.913602 62.208843 
L 364.913602 62.029212 
L 364.333108 62.04367 
L 364.333108 61.953596 
L 364.333108 61.863457 
L 363.17212 61.801362 
L 363.17212 61.620106 
L 362.823823 61.53756 
L 362.823823 61.355707 
L 362.591625 61.361041 
L 362.591625 61.269949 
L 362.591625 61.178789 
L 361.546736 61.110776 
L 361.546736 61.019184 
L 360.385748 60.952836 
L 360.385748 60.860775 
L 358.17987 60.815982 
L 358.17987 60.723142 
L 357.599376 60.642462 
L 357.599376 60.549311 
L 356.322289 60.482401 
L 356.322289 60.29499 
L 355.973992 60.301995 
L 355.973992 60.208079 
L 355.973992 60.020032 
L 355.393498 59.936914 
L 355.393498 59.748087 
L 354.348609 59.767382 
L 354.348609 59.672542 
L 354.348609 59.577629 
L 353.884213 59.490835 
L 353.884213 59.395635 
L 351.446138 59.342266 
L 351.446138 59.24616 
L 349.704655 59.179232 
L 349.704655 59.082426 
L 348.891964 58.998793 
L 348.891964 58.901575 
L 348.079272 58.81708 
L 348.079272 58.719447 
L 346.686086 58.741098 
L 346.686086 58.642935 
L 346.686086 58.544695 
L 345.989493 58.555139 
L 345.989493 58.456592 
L 345.989493 58.357967 
L 345.408999 58.267429 
L 345.408999 58.069401 
L 341.809935 58.017982 
L 341.809935 57.817043 
L 339.952354 57.739622 
L 339.952354 57.638307 
L 336.817685 57.574484 
L 336.817685 57.471895 
L 335.772796 57.381182 
L 335.772796 57.278048 
L 334.37961 57.189901 
L 334.37961 57.08609 
L 333.683017 56.989272 
L 333.683017 56.885032 
L 331.941534 56.797266 
L 331.941534 56.692203 
L 330.548349 56.5994 
L 330.548349 56.493633 
L 326.368791 56.422356 
L 326.368791 56.314792 
L 324.975605 56.217798 
L 324.975605 56.109498 
L 321.260442 56.027077 
L 321.260442 55.917083 
L 315.803797 55.954286 
L 315.803797 55.841901 
L 314.875007 55.847989 
L 314.875007 55.735103 
L 312.901326 55.747326 
L 312.901326 55.633476 
L 311.972536 55.638882 
L 311.972536 55.524517 
L 309.53446 55.537804 
L 309.53446 55.422239 
L 302.104135 55.460882 
L 302.104135 55.341732 
L 301.755839 55.343432 
L 301.755839 55.224 
L 278.187776 55.338845 
L 278.187776 55.206642 
L 274.588713 55.224192 
L 274.588713 55.089672 
L 271.454044 55.103481 
L 271.454044 54.966857 
L 264.023719 54.996377 
L 264.023719 54.854712 
L 262.862731 54.858721 
L 262.862731 54.716099 
L 243.706424 54.77484 
L 243.706424 54.617425 
L 240.687854 54.625215 
L 240.687854 54.465013 
L 203.768427 54.545967 
L 203.768427 54.345143 
L 190.765358 54.364767 
L 190.765358 54.144 
L 57.6 54.144 
L 57.6 54.144 
" style="fill:none;stroke:#ff1493;stroke-dasharray:4,6.6;stroke-dashoffset:0;stroke-width:4;"/>
   </g>
   <g id="line2d_17">
    <path clip-path="url(#pc80f08607e)" d="M 57.6 307.584 
L 414.72 54.144 
" style="fill:none;stroke:#000000;stroke-dasharray:7.4,3.2;stroke-dashoffset:0;stroke-width:2;"/>
   </g>
   <g id="line2d_18">
    <path clip-path="url(#pc80f08607e)" d="M 57.6 307.584 
L 414.72 54.144 
" style="fill:none;stroke:#000000;stroke-dasharray:7.4,3.2;stroke-dashoffset:0;stroke-width:2;"/>
   </g>
   <g id="patch_3">
    <path d="M 57.6 307.584 
L 57.6 41.472 
" style="fill:none;stroke:#000000;stroke-linecap:square;stroke-linejoin:miter;stroke-width:0.8;"/>
   </g>
   <g id="patch_4">
    <path d="M 414.72 307.584 
L 414.72 41.472 
" style="fill:none;stroke:#000000;stroke-linecap:square;stroke-linejoin:miter;stroke-width:0.8;"/>
   </g>
   <g id="patch_5">
    <path d="M 57.6 307.584 
L 414.72 307.584 
" style="fill:none;stroke:#000000;stroke-linecap:square;stroke-linejoin:miter;stroke-width:0.8;"/>
   </g>
   <g id="patch_6">
    <path d="M 57.6 41.472 
L 414.72 41.472 
" style="fill:none;stroke:#000000;stroke-linecap:square;stroke-linejoin:miter;stroke-width:0.8;"/>
   </g>
   <g id="text_15">
    <!-- PR Curves -->
    <g transform="translate(205.63875 35.472)scale(0.12 -0.12)">
     <defs>
      <path id="DejaVuSans-20" transform="scale(0.015625)"/>
      <path d="M 4122 4306 
L 4122 3641 
Q 3803 3938 3442 4084 
Q 3081 4231 2675 4231 
Q 1875 4231 1450 3742 
Q 1025 3253 1025 2328 
Q 1025 1406 1450 917 
Q 1875 428 2675 428 
Q 3081 428 3442 575 
Q 3803 722 4122 1019 
L 4122 359 
Q 3791 134 3420 21 
Q 3050 -91 2638 -91 
Q 1578 -91 968 557 
Q 359 1206 359 2328 
Q 359 3453 968 4101 
Q 1578 4750 2638 4750 
Q 3056 4750 3426 4639 
Q 3797 4528 4122 4306 
z
" id="DejaVuSans-43" transform="scale(0.015625)"/>
      <path d="M 544 1381 
L 544 3500 
L 1119 3500 
L 1119 1403 
Q 1119 906 1312 657 
Q 1506 409 1894 409 
Q 2359 409 2629 706 
Q 2900 1003 2900 1516 
L 2900 3500 
L 3475 3500 
L 3475 0 
L 2900 0 
L 2900 538 
Q 2691 219 2414 64 
Q 2138 -91 1772 -91 
Q 1169 -91 856 284 
Q 544 659 544 1381 
z
M 1991 3584 
L 1991 3584 
z
" id="DejaVuSans-75" transform="scale(0.015625)"/>
      <path d="M 191 3500 
L 800 3500 
L 1894 563 
L 2988 3500 
L 3597 3500 
L 2284 0 
L 1503 0 
L 191 3500 
z
" id="DejaVuSans-76" transform="scale(0.015625)"/>
     </defs>
     <use xlink:href="#DejaVuSans-50"/>
     <use x="60.302734" xlink:href="#DejaVuSans-52"/>
     <use x="129.785156" xlink:href="#DejaVuSans-20"/>
     <use x="161.572266" xlink:href="#DejaVuSans-43"/>
     <use x="231.396484" xlink:href="#DejaVuSans-75"/>
     <use x="294.775391" xlink:href="#DejaVuSans-72"/>
     <use x="335.888672" xlink:href="#DejaVuSans-76"/>
     <use x="395.068359" xlink:href="#DejaVuSans-65"/>
     <use x="456.591797" xlink:href="#DejaVuSans-73"/>
    </g>
   </g>
   <g id="legend_1">
    <g id="patch_7">
     <path d="M 64.6 302.584 
L 334.28125 302.584 
Q 336.28125 302.584 336.28125 300.584 
L 336.28125 242.8715 
Q 336.28125 240.8715 334.28125 240.8715 
L 64.6 240.8715 
Q 62.6 240.8715 62.6 242.8715 
L 62.6 300.584 
Q 62.6 302.584 64.6 302.584 
z
" style="fill:#ffffff;opacity:0.8;stroke:#cccccc;stroke-linejoin:miter;"/>
    </g>
    <g id="line2d_19">
     <path d="M 66.6 248.969937 
L 86.6 248.969937 
" style="fill:none;stroke:#73e5a1;stroke-linecap:square;stroke-width:2;"/>
    </g>
    <g id="line2d_20"/>
    <g id="text_16">
     <!-- PR curve of Effector Memory CD4 (area = 0.95) -->
     <g transform="translate(94.6 252.469937)scale(0.1 -0.1)">
      <defs>
       <path d="M 2375 4863 
L 2375 4384 
L 1825 4384 
Q 1516 4384 1395 4259 
Q 1275 4134 1275 3809 
L 1275 3500 
L 2222 3500 
L 2222 3053 
L 1275 3053 
L 1275 0 
L 697 0 
L 697 3053 
L 147 3053 
L 147 3500 
L 697 3500 
L 697 3744 
Q 697 4328 969 4595 
Q 1241 4863 1831 4863 
L 2375 4863 
z
" id="DejaVuSans-66" transform="scale(0.015625)"/>
       <path d="M 628 4666 
L 3578 4666 
L 3578 4134 
L 1259 4134 
L 1259 2753 
L 3481 2753 
L 3481 2222 
L 1259 2222 
L 1259 531 
L 3634 531 
L 3634 0 
L 628 0 
L 628 4666 
z
" id="DejaVuSans-45" transform="scale(0.015625)"/>
       <path d="M 1172 4494 
L 1172 3500 
L 2356 3500 
L 2356 3053 
L 1172 3053 
L 1172 1153 
Q 1172 725 1289 603 
Q 1406 481 1766 481 
L 2356 481 
L 2356 0 
L 1766 0 
Q 1100 0 847 248 
Q 594 497 594 1153 
L 594 3053 
L 172 3053 
L 172 3500 
L 594 3500 
L 594 4494 
L 1172 4494 
z
" id="DejaVuSans-74" transform="scale(0.015625)"/>
       <path d="M 628 4666 
L 1569 4666 
L 2759 1491 
L 3956 4666 
L 4897 4666 
L 4897 0 
L 4281 0 
L 4281 4097 
L 3078 897 
L 2444 897 
L 1241 4097 
L 1241 0 
L 628 0 
L 628 4666 
z
" id="DejaVuSans-4d" transform="scale(0.015625)"/>
       <path d="M 3328 2828 
Q 3544 3216 3844 3400 
Q 4144 3584 4550 3584 
Q 5097 3584 5394 3201 
Q 5691 2819 5691 2113 
L 5691 0 
L 5113 0 
L 5113 2094 
Q 5113 2597 4934 2840 
Q 4756 3084 4391 3084 
Q 3944 3084 3684 2787 
Q 3425 2491 3425 1978 
L 3425 0 
L 2847 0 
L 2847 2094 
Q 2847 2600 2669 2842 
Q 2491 3084 2119 3084 
Q 1678 3084 1418 2786 
Q 1159 2488 1159 1978 
L 1159 0 
L 581 0 
L 581 3500 
L 1159 3500 
L 1159 2956 
Q 1356 3278 1631 3431 
Q 1906 3584 2284 3584 
Q 2666 3584 2933 3390 
Q 3200 3197 3328 2828 
z
" id="DejaVuSans-6d" transform="scale(0.015625)"/>
       <path d="M 2059 -325 
Q 1816 -950 1584 -1140 
Q 1353 -1331 966 -1331 
L 506 -1331 
L 506 -850 
L 844 -850 
Q 1081 -850 1212 -737 
Q 1344 -625 1503 -206 
L 1606 56 
L 191 3500 
L 800 3500 
L 1894 763 
L 2988 3500 
L 3597 3500 
L 2059 -325 
z
" id="DejaVuSans-79" transform="scale(0.015625)"/>
       <path d="M 1259 4147 
L 1259 519 
L 2022 519 
Q 2988 519 3436 956 
Q 3884 1394 3884 2338 
Q 3884 3275 3436 3711 
Q 2988 4147 2022 4147 
L 1259 4147 
z
M 628 4666 
L 1925 4666 
Q 3281 4666 3915 4102 
Q 4550 3538 4550 2338 
Q 4550 1131 3912 565 
Q 3275 0 1925 0 
L 628 0 
L 628 4666 
z
" id="DejaVuSans-44" transform="scale(0.015625)"/>
       <path d="M 1984 4856 
Q 1566 4138 1362 3434 
Q 1159 2731 1159 2009 
Q 1159 1288 1364 580 
Q 1569 -128 1984 -844 
L 1484 -844 
Q 1016 -109 783 600 
Q 550 1309 550 2009 
Q 550 2706 781 3412 
Q 1013 4119 1484 4856 
L 1984 4856 
z
" id="DejaVuSans-28" transform="scale(0.015625)"/>
       <path d="M 678 2906 
L 4684 2906 
L 4684 2381 
L 678 2381 
L 678 2906 
z
M 678 1631 
L 4684 1631 
L 4684 1100 
L 678 1100 
L 678 1631 
z
" id="DejaVuSans-3d" transform="scale(0.015625)"/>
       <path d="M 703 97 
L 703 672 
Q 941 559 1184 500 
Q 1428 441 1663 441 
Q 2288 441 2617 861 
Q 2947 1281 2994 2138 
Q 2813 1869 2534 1725 
Q 2256 1581 1919 1581 
Q 1219 1581 811 2004 
Q 403 2428 403 3163 
Q 403 3881 828 4315 
Q 1253 4750 1959 4750 
Q 2769 4750 3195 4129 
Q 3622 3509 3622 2328 
Q 3622 1225 3098 567 
Q 2575 -91 1691 -91 
Q 1453 -91 1209 -44 
Q 966 3 703 97 
z
M 1959 2075 
Q 2384 2075 2632 2365 
Q 2881 2656 2881 3163 
Q 2881 3666 2632 3958 
Q 2384 4250 1959 4250 
Q 1534 4250 1286 3958 
Q 1038 3666 1038 3163 
Q 1038 2656 1286 2365 
Q 1534 2075 1959 2075 
z
" id="DejaVuSans-39" transform="scale(0.015625)"/>
       <path d="M 691 4666 
L 3169 4666 
L 3169 4134 
L 1269 4134 
L 1269 2991 
Q 1406 3038 1543 3061 
Q 1681 3084 1819 3084 
Q 2600 3084 3056 2656 
Q 3513 2228 3513 1497 
Q 3513 744 3044 326 
Q 2575 -91 1722 -91 
Q 1428 -91 1123 -41 
Q 819 9 494 109 
L 494 744 
Q 775 591 1075 516 
Q 1375 441 1709 441 
Q 2250 441 2565 725 
Q 2881 1009 2881 1497 
Q 2881 1984 2565 2268 
Q 2250 2553 1709 2553 
Q 1456 2553 1204 2497 
Q 953 2441 691 2322 
L 691 4666 
z
" id="DejaVuSans-35" transform="scale(0.015625)"/>
       <path d="M 513 4856 
L 1013 4856 
Q 1481 4119 1714 3412 
Q 1947 2706 1947 2009 
Q 1947 1309 1714 600 
Q 1481 -109 1013 -844 
L 513 -844 
Q 928 -128 1133 580 
Q 1338 1288 1338 2009 
Q 1338 2731 1133 3434 
Q 928 4138 513 4856 
z
" id="DejaVuSans-29" transform="scale(0.015625)"/>
      </defs>
      <use xlink:href="#DejaVuSans-50"/>
      <use x="60.302734" xlink:href="#DejaVuSans-52"/>
      <use x="129.785156" xlink:href="#DejaVuSans-20"/>
      <use x="161.572266" xlink:href="#DejaVuSans-63"/>
      <use x="216.552734" xlink:href="#DejaVuSans-75"/>
      <use x="279.931641" xlink:href="#DejaVuSans-72"/>
      <use x="321.044922" xlink:href="#DejaVuSans-76"/>
      <use x="380.224609" xlink:href="#DejaVuSans-65"/>
      <use x="441.748047" xlink:href="#DejaVuSans-20"/>
      <use x="473.535156" xlink:href="#DejaVuSans-6f"/>
      <use x="534.716797" xlink:href="#DejaVuSans-66"/>
      <use x="569.921875" xlink:href="#DejaVuSans-20"/>
      <use x="601.708984" xlink:href="#DejaVuSans-45"/>
      <use x="664.892578" xlink:href="#DejaVuSans-66"/>
      <use x="700.097656" xlink:href="#DejaVuSans-66"/>
      <use x="735.302734" xlink:href="#DejaVuSans-65"/>
      <use x="796.826172" xlink:href="#DejaVuSans-63"/>
      <use x="851.806641" xlink:href="#DejaVuSans-74"/>
      <use x="891.015625" xlink:href="#DejaVuSans-6f"/>
      <use x="952.197266" xlink:href="#DejaVuSans-72"/>
      <use x="993.310547" xlink:href="#DejaVuSans-20"/>
      <use x="1025.097656" xlink:href="#DejaVuSans-4d"/>
      <use x="1111.376953" xlink:href="#DejaVuSans-65"/>
      <use x="1172.900391" xlink:href="#DejaVuSans-6d"/>
      <use x="1270.3125" xlink:href="#DejaVuSans-6f"/>
      <use x="1331.494141" xlink:href="#DejaVuSans-72"/>
      <use x="1372.607422" xlink:href="#DejaVuSans-79"/>
      <use x="1431.787109" xlink:href="#DejaVuSans-20"/>
      <use x="1463.574219" xlink:href="#DejaVuSans-43"/>
      <use x="1533.398438" xlink:href="#DejaVuSans-44"/>
      <use x="1610.400391" xlink:href="#DejaVuSans-34"/>
      <use x="1674.023438" xlink:href="#DejaVuSans-20"/>
      <use x="1705.810547" xlink:href="#DejaVuSans-28"/>
      <use x="1744.824219" xlink:href="#DejaVuSans-61"/>
      <use x="1806.103516" xlink:href="#DejaVuSans-72"/>
      <use x="1844.966797" xlink:href="#DejaVuSans-65"/>
      <use x="1906.490234" xlink:href="#DejaVuSans-61"/>
      <use x="1967.769531" xlink:href="#DejaVuSans-20"/>
      <use x="1999.556641" xlink:href="#DejaVuSans-3d"/>
      <use x="2083.345703" xlink:href="#DejaVuSans-20"/>
      <use x="2115.132812" xlink:href="#DejaVuSans-30"/>
      <use x="2178.755859" xlink:href="#DejaVuSans-2e"/>
      <use x="2210.542969" xlink:href="#DejaVuSans-39"/>
      <use x="2274.166016" xlink:href="#DejaVuSans-35"/>
      <use x="2337.789062" xlink:href="#DejaVuSans-29"/>
     </g>
    </g>
    <g id="line2d_21">
     <path d="M 66.6 263.648062 
L 86.6 263.648062 
" style="fill:none;stroke:#8ad496;stroke-linecap:square;stroke-width:2;"/>
    </g>
    <g id="line2d_22"/>
    <g id="text_17">
     <!-- PR curve of Naive/Central CD4 (area = 0.99) -->
     <g transform="translate(94.6 267.148062)scale(0.1 -0.1)">
      <defs>
       <path d="M 628 4666 
L 1478 4666 
L 3547 763 
L 3547 4666 
L 4159 4666 
L 4159 0 
L 3309 0 
L 1241 3903 
L 1241 0 
L 628 0 
L 628 4666 
z
" id="DejaVuSans-4e" transform="scale(0.015625)"/>
       <path d="M 1625 4666 
L 2156 4666 
L 531 -594 
L 0 -594 
L 1625 4666 
z
" id="DejaVuSans-2f" transform="scale(0.015625)"/>
      </defs>
      <use xlink:href="#DejaVuSans-50"/>
      <use x="60.302734" xlink:href="#DejaVuSans-52"/>
      <use x="129.785156" xlink:href="#DejaVuSans-20"/>
      <use x="161.572266" xlink:href="#DejaVuSans-63"/>
      <use x="216.552734" xlink:href="#DejaVuSans-75"/>
      <use x="279.931641" xlink:href="#DejaVuSans-72"/>
      <use x="321.044922" xlink:href="#DejaVuSans-76"/>
      <use x="380.224609" xlink:href="#DejaVuSans-65"/>
      <use x="441.748047" xlink:href="#DejaVuSans-20"/>
      <use x="473.535156" xlink:href="#DejaVuSans-6f"/>
      <use x="534.716797" xlink:href="#DejaVuSans-66"/>
      <use x="569.921875" xlink:href="#DejaVuSans-20"/>
      <use x="601.708984" xlink:href="#DejaVuSans-4e"/>
      <use x="676.513672" xlink:href="#DejaVuSans-61"/>
      <use x="737.792969" xlink:href="#DejaVuSans-69"/>
      <use x="765.576172" xlink:href="#DejaVuSans-76"/>
      <use x="824.755859" xlink:href="#DejaVuSans-65"/>
      <use x="886.279297" xlink:href="#DejaVuSans-2f"/>
      <use x="919.970703" xlink:href="#DejaVuSans-43"/>
      <use x="989.794922" xlink:href="#DejaVuSans-65"/>
      <use x="1051.318359" xlink:href="#DejaVuSans-6e"/>
      <use x="1114.697266" xlink:href="#DejaVuSans-74"/>
      <use x="1153.90625" xlink:href="#DejaVuSans-72"/>
      <use x="1195.019531" xlink:href="#DejaVuSans-61"/>
      <use x="1256.298828" xlink:href="#DejaVuSans-6c"/>
      <use x="1284.082031" xlink:href="#DejaVuSans-20"/>
      <use x="1315.869141" xlink:href="#DejaVuSans-43"/>
      <use x="1385.693359" xlink:href="#DejaVuSans-44"/>
      <use x="1462.695312" xlink:href="#DejaVuSans-34"/>
      <use x="1526.318359" xlink:href="#DejaVuSans-20"/>
      <use x="1558.105469" xlink:href="#DejaVuSans-28"/>
      <use x="1597.119141" xlink:href="#DejaVuSans-61"/>
      <use x="1658.398438" xlink:href="#DejaVuSans-72"/>
      <use x="1697.261719" xlink:href="#DejaVuSans-65"/>
      <use x="1758.785156" xlink:href="#DejaVuSans-61"/>
      <use x="1820.064453" xlink:href="#DejaVuSans-20"/>
      <use x="1851.851562" xlink:href="#DejaVuSans-3d"/>
      <use x="1935.640625" xlink:href="#DejaVuSans-20"/>
      <use x="1967.427734" xlink:href="#DejaVuSans-30"/>
      <use x="2031.050781" xlink:href="#DejaVuSans-2e"/>
      <use x="2062.837891" xlink:href="#DejaVuSans-39"/>
      <use x="2126.460938" xlink:href="#DejaVuSans-39"/>
      <use x="2190.083984" xlink:href="#DejaVuSans-29"/>
     </g>
    </g>
    <g id="line2d_23">
     <path d="M 66.6 278.326187 
L 86.6 278.326187 
" style="fill:none;stroke:#7cdccb;stroke-linecap:square;stroke-width:2;"/>
    </g>
    <g id="line2d_24"/>
    <g id="text_18">
     <!-- PR curve of T-reg CD4 (area = 0.91) -->
     <g transform="translate(94.6 281.826187)scale(0.1 -0.1)">
      <defs>
       <path d="M -19 4666 
L 3928 4666 
L 3928 4134 
L 2272 4134 
L 2272 0 
L 1638 0 
L 1638 4134 
L -19 4134 
L -19 4666 
z
" id="DejaVuSans-54" transform="scale(0.015625)"/>
       <path d="M 313 2009 
L 1997 2009 
L 1997 1497 
L 313 1497 
L 313 2009 
z
" id="DejaVuSans-2d" transform="scale(0.015625)"/>
       <path d="M 2906 1791 
Q 2906 2416 2648 2759 
Q 2391 3103 1925 3103 
Q 1463 3103 1205 2759 
Q 947 2416 947 1791 
Q 947 1169 1205 825 
Q 1463 481 1925 481 
Q 2391 481 2648 825 
Q 2906 1169 2906 1791 
z
M 3481 434 
Q 3481 -459 3084 -895 
Q 2688 -1331 1869 -1331 
Q 1566 -1331 1297 -1286 
Q 1028 -1241 775 -1147 
L 775 -588 
Q 1028 -725 1275 -790 
Q 1522 -856 1778 -856 
Q 2344 -856 2625 -561 
Q 2906 -266 2906 331 
L 2906 616 
Q 2728 306 2450 153 
Q 2172 0 1784 0 
Q 1141 0 747 490 
Q 353 981 353 1791 
Q 353 2603 747 3093 
Q 1141 3584 1784 3584 
Q 2172 3584 2450 3431 
Q 2728 3278 2906 2969 
L 2906 3500 
L 3481 3500 
L 3481 434 
z
" id="DejaVuSans-67" transform="scale(0.015625)"/>
      </defs>
      <use xlink:href="#DejaVuSans-50"/>
      <use x="60.302734" xlink:href="#DejaVuSans-52"/>
      <use x="129.785156" xlink:href="#DejaVuSans-20"/>
      <use x="161.572266" xlink:href="#DejaVuSans-63"/>
      <use x="216.552734" xlink:href="#DejaVuSans-75"/>
      <use x="279.931641" xlink:href="#DejaVuSans-72"/>
      <use x="321.044922" xlink:href="#DejaVuSans-76"/>
      <use x="380.224609" xlink:href="#DejaVuSans-65"/>
      <use x="441.748047" xlink:href="#DejaVuSans-20"/>
      <use x="473.535156" xlink:href="#DejaVuSans-6f"/>
      <use x="534.716797" xlink:href="#DejaVuSans-66"/>
      <use x="569.921875" xlink:href="#DejaVuSans-20"/>
      <use x="601.708984" xlink:href="#DejaVuSans-54"/>
      <use x="653.667969" xlink:href="#DejaVuSans-2d"/>
      <use x="689.751953" xlink:href="#DejaVuSans-72"/>
      <use x="728.615234" xlink:href="#DejaVuSans-65"/>
      <use x="790.138672" xlink:href="#DejaVuSans-67"/>
      <use x="853.615234" xlink:href="#DejaVuSans-20"/>
      <use x="885.402344" xlink:href="#DejaVuSans-43"/>
      <use x="955.226562" xlink:href="#DejaVuSans-44"/>
      <use x="1032.228516" xlink:href="#DejaVuSans-34"/>
      <use x="1095.851562" xlink:href="#DejaVuSans-20"/>
      <use x="1127.638672" xlink:href="#DejaVuSans-28"/>
      <use x="1166.652344" xlink:href="#DejaVuSans-61"/>
      <use x="1227.931641" xlink:href="#DejaVuSans-72"/>
      <use x="1266.794922" xlink:href="#DejaVuSans-65"/>
      <use x="1328.318359" xlink:href="#DejaVuSans-61"/>
      <use x="1389.597656" xlink:href="#DejaVuSans-20"/>
      <use x="1421.384766" xlink:href="#DejaVuSans-3d"/>
      <use x="1505.173828" xlink:href="#DejaVuSans-20"/>
      <use x="1536.960938" xlink:href="#DejaVuSans-30"/>
      <use x="1600.583984" xlink:href="#DejaVuSans-2e"/>
      <use x="1632.371094" xlink:href="#DejaVuSans-39"/>
      <use x="1695.994141" xlink:href="#DejaVuSans-31"/>
      <use x="1759.617188" xlink:href="#DejaVuSans-29"/>
     </g>
    </g>
    <g id="line2d_25">
     <path d="M 66.6 293.004312 
L 86.6 293.004312 
" style="fill:none;stroke:#ff1493;stroke-dasharray:4,6.6;stroke-dashoffset:0;stroke-width:4;"/>
    </g>
    <g id="line2d_26"/>
    <g id="text_19">
     <!-- micro-average PR curve (area = 0.98) -->
     <g transform="translate(94.6 296.504312)scale(0.1 -0.1)">
      <use xlink:href="#DejaVuSans-6d"/>
      <use x="97.412109" xlink:href="#DejaVuSans-69"/>
      <use x="125.195312" xlink:href="#DejaVuSans-63"/>
      <use x="180.175781" xlink:href="#DejaVuSans-72"/>
      <use x="219.039062" xlink:href="#DejaVuSans-6f"/>
      <use x="282.095703" xlink:href="#DejaVuSans-2d"/>
      <use x="318.179688" xlink:href="#DejaVuSans-61"/>
      <use x="379.458984" xlink:href="#DejaVuSans-76"/>
      <use x="438.638672" xlink:href="#DejaVuSans-65"/>
      <use x="500.162109" xlink:href="#DejaVuSans-72"/>
      <use x="541.275391" xlink:href="#DejaVuSans-61"/>
      <use x="602.554688" xlink:href="#DejaVuSans-67"/>
      <use x="666.03125" xlink:href="#DejaVuSans-65"/>
      <use x="727.554688" xlink:href="#DejaVuSans-20"/>
      <use x="759.341797" xlink:href="#DejaVuSans-50"/>
      <use x="819.644531" xlink:href="#DejaVuSans-52"/>
      <use x="889.126953" xlink:href="#DejaVuSans-20"/>
      <use x="920.914062" xlink:href="#DejaVuSans-63"/>
      <use x="975.894531" xlink:href="#DejaVuSans-75"/>
      <use x="1039.273438" xlink:href="#DejaVuSans-72"/>
      <use x="1080.386719" xlink:href="#DejaVuSans-76"/>
      <use x="1139.566406" xlink:href="#DejaVuSans-65"/>
      <use x="1201.089844" xlink:href="#DejaVuSans-20"/>
      <use x="1232.876953" xlink:href="#DejaVuSans-28"/>
      <use x="1271.890625" xlink:href="#DejaVuSans-61"/>
      <use x="1333.169922" xlink:href="#DejaVuSans-72"/>
      <use x="1372.033203" xlink:href="#DejaVuSans-65"/>
      <use x="1433.556641" xlink:href="#DejaVuSans-61"/>
      <use x="1494.835938" xlink:href="#DejaVuSans-20"/>
      <use x="1526.623047" xlink:href="#DejaVuSans-3d"/>
      <use x="1610.412109" xlink:href="#DejaVuSans-20"/>
      <use x="1642.199219" xlink:href="#DejaVuSans-30"/>
      <use x="1705.822266" xlink:href="#DejaVuSans-2e"/>
      <use x="1737.609375" xlink:href="#DejaVuSans-39"/>
      <use x="1801.232422" xlink:href="#DejaVuSans-38"/>
      <use x="1864.855469" xlink:href="#DejaVuSans-29"/>
     </g>
    </g>
   </g>
  </g>
 </g>
 <defs>
  <clipPath id="pc80f08607e">
   <rect height="266.112" width="357.12" x="57.6" y="41.472"/>
  </clipPath>
 </defs>
</svg>
