<?xml version="1.0" encoding="utf-8" standalone="no"?>
<!DOCTYPE svg PUBLIC "-//W3C//DTD SVG 1.1//EN"
  "http://www.w3.org/Graphics/SVG/1.1/DTD/svg11.dtd">
<svg height="345.6pt" version="1.1" viewBox="0 0 460.8 345.6" width="460.8pt" xmlns="http://www.w3.org/2000/svg" xmlns:xlink="http://www.w3.org/1999/xlink">
 <metadata>
  <rdf:RDF xmlns:cc="http://creativecommons.org/ns#" xmlns:dc="http://purl.org/dc/elements/1.1/" xmlns:rdf="http://www.w3.org/1999/02/22-rdf-syntax-ns#">
   <cc:Work>
    <dc:type rdf:resource="http://purl.org/dc/dcmitype/StillImage"/>
    <dc:date>2021-08-31T11:42:06.298270</dc:date>
    <dc:format>image/svg+xml</dc:format>
    <dc:creator>
     <cc:Agent>
      <dc:title>Matplotlib v3.4.2, https://matplotlib.org/</dc:title>
     </cc:Agent>
    </dc:creator>
   </cc:Work>
  </rdf:RDF>
 </metadata>
 <defs>
  <style type="text/css">*{stroke-linecap:butt;stroke-linejoin:round;}</style>
 </defs>
 <g id="figure_1">
  <g id="patch_1">
   <path d="M 0 345.6 
L 460.8 345.6 
L 460.8 0 
L 0 0 
z
" style="fill:#ffffff;"/>
  </g>
  <g id="axes_1">
   <g id="patch_2">
    <path d="M 57.6 307.584 
L 414.72 307.584 
L 414.72 41.472 
L 57.6 41.472 
z
" style="fill:#ffffff;"/>
   </g>
   <g id="matplotlib.axis_1">
    <g id="xtick_1">
     <g id="line2d_1">
      <defs>
       <path d="M 0 0 
L 0 3.5 
" id="m39e2dc2750" style="stroke:#000000;stroke-width:0.8;"/>
      </defs>
      <g>
       <use style="stroke:#000000;stroke-width:0.8;" x="57.6" xlink:href="#m39e2dc2750" y="307.584"/>
      </g>
     </g>
     <g id="text_1">
      <!-- 0.0 -->
      <g transform="translate(49.648438 322.182437)scale(0.1 -0.1)">
       <defs>
        <path d="M 2034 4250 
Q 1547 4250 1301 3770 
Q 1056 3291 1056 2328 
Q 1056 1369 1301 889 
Q 1547 409 2034 409 
Q 2525 409 2770 889 
Q 3016 1369 3016 2328 
Q 3016 3291 2770 3770 
Q 2525 4250 2034 4250 
z
M 2034 4750 
Q 2819 4750 3233 4129 
Q 3647 3509 3647 2328 
Q 3647 1150 3233 529 
Q 2819 -91 2034 -91 
Q 1250 -91 836 529 
Q 422 1150 422 2328 
Q 422 3509 836 4129 
Q 1250 4750 2034 4750 
z
" id="DejaVuSans-30" transform="scale(0.015625)"/>
        <path d="M 684 794 
L 1344 794 
L 1344 0 
L 684 0 
L 684 794 
z
" id="DejaVuSans-2e" transform="scale(0.015625)"/>
       </defs>
       <use xlink:href="#DejaVuSans-30"/>
       <use x="63.623047" xlink:href="#DejaVuSans-2e"/>
       <use x="95.410156" xlink:href="#DejaVuSans-30"/>
      </g>
     </g>
    </g>
    <g id="xtick_2">
     <g id="line2d_2">
      <g>
       <use style="stroke:#000000;stroke-width:0.8;" x="129.024" xlink:href="#m39e2dc2750" y="307.584"/>
      </g>
     </g>
     <g id="text_2">
      <!-- 0.2 -->
      <g transform="translate(121.072438 322.182437)scale(0.1 -0.1)">
       <defs>
        <path d="M 1228 531 
L 3431 531 
L 3431 0 
L 469 0 
L 469 531 
Q 828 903 1448 1529 
Q 2069 2156 2228 2338 
Q 2531 2678 2651 2914 
Q 2772 3150 2772 3378 
Q 2772 3750 2511 3984 
Q 2250 4219 1831 4219 
Q 1534 4219 1204 4116 
Q 875 4013 500 3803 
L 500 4441 
Q 881 4594 1212 4672 
Q 1544 4750 1819 4750 
Q 2544 4750 2975 4387 
Q 3406 4025 3406 3419 
Q 3406 3131 3298 2873 
Q 3191 2616 2906 2266 
Q 2828 2175 2409 1742 
Q 1991 1309 1228 531 
z
" id="DejaVuSans-32" transform="scale(0.015625)"/>
       </defs>
       <use xlink:href="#DejaVuSans-30"/>
       <use x="63.623047" xlink:href="#DejaVuSans-2e"/>
       <use x="95.410156" xlink:href="#DejaVuSans-32"/>
      </g>
     </g>
    </g>
    <g id="xtick_3">
     <g id="line2d_3">
      <g>
       <use style="stroke:#000000;stroke-width:0.8;" x="200.448" xlink:href="#m39e2dc2750" y="307.584"/>
      </g>
     </g>
     <g id="text_3">
      <!-- 0.4 -->
      <g transform="translate(192.496438 322.182437)scale(0.1 -0.1)">
       <defs>
        <path d="M 2419 4116 
L 825 1625 
L 2419 1625 
L 2419 4116 
z
M 2253 4666 
L 3047 4666 
L 3047 1625 
L 3713 1625 
L 3713 1100 
L 3047 1100 
L 3047 0 
L 2419 0 
L 2419 1100 
L 313 1100 
L 313 1709 
L 2253 4666 
z
" id="DejaVuSans-34" transform="scale(0.015625)"/>
       </defs>
       <use xlink:href="#DejaVuSans-30"/>
       <use x="63.623047" xlink:href="#DejaVuSans-2e"/>
       <use x="95.410156" xlink:href="#DejaVuSans-34"/>
      </g>
     </g>
    </g>
    <g id="xtick_4">
     <g id="line2d_4">
      <g>
       <use style="stroke:#000000;stroke-width:0.8;" x="271.872" xlink:href="#m39e2dc2750" y="307.584"/>
      </g>
     </g>
     <g id="text_4">
      <!-- 0.6 -->
      <g transform="translate(263.920438 322.182437)scale(0.1 -0.1)">
       <defs>
        <path d="M 2113 2584 
Q 1688 2584 1439 2293 
Q 1191 2003 1191 1497 
Q 1191 994 1439 701 
Q 1688 409 2113 409 
Q 2538 409 2786 701 
Q 3034 994 3034 1497 
Q 3034 2003 2786 2293 
Q 2538 2584 2113 2584 
z
M 3366 4563 
L 3366 3988 
Q 3128 4100 2886 4159 
Q 2644 4219 2406 4219 
Q 1781 4219 1451 3797 
Q 1122 3375 1075 2522 
Q 1259 2794 1537 2939 
Q 1816 3084 2150 3084 
Q 2853 3084 3261 2657 
Q 3669 2231 3669 1497 
Q 3669 778 3244 343 
Q 2819 -91 2113 -91 
Q 1303 -91 875 529 
Q 447 1150 447 2328 
Q 447 3434 972 4092 
Q 1497 4750 2381 4750 
Q 2619 4750 2861 4703 
Q 3103 4656 3366 4563 
z
" id="DejaVuSans-36" transform="scale(0.015625)"/>
       </defs>
       <use xlink:href="#DejaVuSans-30"/>
       <use x="63.623047" xlink:href="#DejaVuSans-2e"/>
       <use x="95.410156" xlink:href="#DejaVuSans-36"/>
      </g>
     </g>
    </g>
    <g id="xtick_5">
     <g id="line2d_5">
      <g>
       <use style="stroke:#000000;stroke-width:0.8;" x="343.296" xlink:href="#m39e2dc2750" y="307.584"/>
      </g>
     </g>
     <g id="text_5">
      <!-- 0.8 -->
      <g transform="translate(335.344438 322.182437)scale(0.1 -0.1)">
       <defs>
        <path d="M 2034 2216 
Q 1584 2216 1326 1975 
Q 1069 1734 1069 1313 
Q 1069 891 1326 650 
Q 1584 409 2034 409 
Q 2484 409 2743 651 
Q 3003 894 3003 1313 
Q 3003 1734 2745 1975 
Q 2488 2216 2034 2216 
z
M 1403 2484 
Q 997 2584 770 2862 
Q 544 3141 544 3541 
Q 544 4100 942 4425 
Q 1341 4750 2034 4750 
Q 2731 4750 3128 4425 
Q 3525 4100 3525 3541 
Q 3525 3141 3298 2862 
Q 3072 2584 2669 2484 
Q 3125 2378 3379 2068 
Q 3634 1759 3634 1313 
Q 3634 634 3220 271 
Q 2806 -91 2034 -91 
Q 1263 -91 848 271 
Q 434 634 434 1313 
Q 434 1759 690 2068 
Q 947 2378 1403 2484 
z
M 1172 3481 
Q 1172 3119 1398 2916 
Q 1625 2713 2034 2713 
Q 2441 2713 2670 2916 
Q 2900 3119 2900 3481 
Q 2900 3844 2670 4047 
Q 2441 4250 2034 4250 
Q 1625 4250 1398 4047 
Q 1172 3844 1172 3481 
z
" id="DejaVuSans-38" transform="scale(0.015625)"/>
       </defs>
       <use xlink:href="#DejaVuSans-30"/>
       <use x="63.623047" xlink:href="#DejaVuSans-2e"/>
       <use x="95.410156" xlink:href="#DejaVuSans-38"/>
      </g>
     </g>
    </g>
    <g id="xtick_6">
     <g id="line2d_6">
      <g>
       <use style="stroke:#000000;stroke-width:0.8;" x="414.72" xlink:href="#m39e2dc2750" y="307.584"/>
      </g>
     </g>
     <g id="text_6">
      <!-- 1.0 -->
      <g transform="translate(406.768438 322.182437)scale(0.1 -0.1)">
       <defs>
        <path d="M 794 531 
L 1825 531 
L 1825 4091 
L 703 3866 
L 703 4441 
L 1819 4666 
L 2450 4666 
L 2450 531 
L 3481 531 
L 3481 0 
L 794 0 
L 794 531 
z
" id="DejaVuSans-31" transform="scale(0.015625)"/>
       </defs>
       <use xlink:href="#DejaVuSans-31"/>
       <use x="63.623047" xlink:href="#DejaVuSans-2e"/>
       <use x="95.410156" xlink:href="#DejaVuSans-30"/>
      </g>
     </g>
    </g>
    <g id="text_7">
     <!-- Recall -->
     <g transform="translate(221.242812 335.860562)scale(0.1 -0.1)">
      <defs>
       <path d="M 2841 2188 
Q 3044 2119 3236 1894 
Q 3428 1669 3622 1275 
L 4263 0 
L 3584 0 
L 2988 1197 
Q 2756 1666 2539 1819 
Q 2322 1972 1947 1972 
L 1259 1972 
L 1259 0 
L 628 0 
L 628 4666 
L 2053 4666 
Q 2853 4666 3247 4331 
Q 3641 3997 3641 3322 
Q 3641 2881 3436 2590 
Q 3231 2300 2841 2188 
z
M 1259 4147 
L 1259 2491 
L 2053 2491 
Q 2509 2491 2742 2702 
Q 2975 2913 2975 3322 
Q 2975 3731 2742 3939 
Q 2509 4147 2053 4147 
L 1259 4147 
z
" id="DejaVuSans-52" transform="scale(0.015625)"/>
       <path d="M 3597 1894 
L 3597 1613 
L 953 1613 
Q 991 1019 1311 708 
Q 1631 397 2203 397 
Q 2534 397 2845 478 
Q 3156 559 3463 722 
L 3463 178 
Q 3153 47 2828 -22 
Q 2503 -91 2169 -91 
Q 1331 -91 842 396 
Q 353 884 353 1716 
Q 353 2575 817 3079 
Q 1281 3584 2069 3584 
Q 2775 3584 3186 3129 
Q 3597 2675 3597 1894 
z
M 3022 2063 
Q 3016 2534 2758 2815 
Q 2500 3097 2075 3097 
Q 1594 3097 1305 2825 
Q 1016 2553 972 2059 
L 3022 2063 
z
" id="DejaVuSans-65" transform="scale(0.015625)"/>
       <path d="M 3122 3366 
L 3122 2828 
Q 2878 2963 2633 3030 
Q 2388 3097 2138 3097 
Q 1578 3097 1268 2742 
Q 959 2388 959 1747 
Q 959 1106 1268 751 
Q 1578 397 2138 397 
Q 2388 397 2633 464 
Q 2878 531 3122 666 
L 3122 134 
Q 2881 22 2623 -34 
Q 2366 -91 2075 -91 
Q 1284 -91 818 406 
Q 353 903 353 1747 
Q 353 2603 823 3093 
Q 1294 3584 2113 3584 
Q 2378 3584 2631 3529 
Q 2884 3475 3122 3366 
z
" id="DejaVuSans-63" transform="scale(0.015625)"/>
       <path d="M 2194 1759 
Q 1497 1759 1228 1600 
Q 959 1441 959 1056 
Q 959 750 1161 570 
Q 1363 391 1709 391 
Q 2188 391 2477 730 
Q 2766 1069 2766 1631 
L 2766 1759 
L 2194 1759 
z
M 3341 1997 
L 3341 0 
L 2766 0 
L 2766 531 
Q 2569 213 2275 61 
Q 1981 -91 1556 -91 
Q 1019 -91 701 211 
Q 384 513 384 1019 
Q 384 1609 779 1909 
Q 1175 2209 1959 2209 
L 2766 2209 
L 2766 2266 
Q 2766 2663 2505 2880 
Q 2244 3097 1772 3097 
Q 1472 3097 1187 3025 
Q 903 2953 641 2809 
L 641 3341 
Q 956 3463 1253 3523 
Q 1550 3584 1831 3584 
Q 2591 3584 2966 3190 
Q 3341 2797 3341 1997 
z
" id="DejaVuSans-61" transform="scale(0.015625)"/>
       <path d="M 603 4863 
L 1178 4863 
L 1178 0 
L 603 0 
L 603 4863 
z
" id="DejaVuSans-6c" transform="scale(0.015625)"/>
      </defs>
      <use xlink:href="#DejaVuSans-52"/>
      <use x="64.982422" xlink:href="#DejaVuSans-65"/>
      <use x="126.505859" xlink:href="#DejaVuSans-63"/>
      <use x="181.486328" xlink:href="#DejaVuSans-61"/>
      <use x="242.765625" xlink:href="#DejaVuSans-6c"/>
      <use x="270.548828" xlink:href="#DejaVuSans-6c"/>
     </g>
    </g>
   </g>
   <g id="matplotlib.axis_2">
    <g id="ytick_1">
     <g id="line2d_7">
      <defs>
       <path d="M 0 0 
L -3.5 0 
" id="m3b49d5795d" style="stroke:#000000;stroke-width:0.8;"/>
      </defs>
      <g>
       <use style="stroke:#000000;stroke-width:0.8;" x="57.6" xlink:href="#m3b49d5795d" y="307.584"/>
      </g>
     </g>
     <g id="text_8">
      <!-- 0.0 -->
      <g transform="translate(34.696875 311.383219)scale(0.1 -0.1)">
       <use xlink:href="#DejaVuSans-30"/>
       <use x="63.623047" xlink:href="#DejaVuSans-2e"/>
       <use x="95.410156" xlink:href="#DejaVuSans-30"/>
      </g>
     </g>
    </g>
    <g id="ytick_2">
     <g id="line2d_8">
      <g>
       <use style="stroke:#000000;stroke-width:0.8;" x="57.6" xlink:href="#m3b49d5795d" y="256.896"/>
      </g>
     </g>
     <g id="text_9">
      <!-- 0.2 -->
      <g transform="translate(34.696875 260.695219)scale(0.1 -0.1)">
       <use xlink:href="#DejaVuSans-30"/>
       <use x="63.623047" xlink:href="#DejaVuSans-2e"/>
       <use x="95.410156" xlink:href="#DejaVuSans-32"/>
      </g>
     </g>
    </g>
    <g id="ytick_3">
     <g id="line2d_9">
      <g>
       <use style="stroke:#000000;stroke-width:0.8;" x="57.6" xlink:href="#m3b49d5795d" y="206.208"/>
      </g>
     </g>
     <g id="text_10">
      <!-- 0.4 -->
      <g transform="translate(34.696875 210.007219)scale(0.1 -0.1)">
       <use xlink:href="#DejaVuSans-30"/>
       <use x="63.623047" xlink:href="#DejaVuSans-2e"/>
       <use x="95.410156" xlink:href="#DejaVuSans-34"/>
      </g>
     </g>
    </g>
    <g id="ytick_4">
     <g id="line2d_10">
      <g>
       <use style="stroke:#000000;stroke-width:0.8;" x="57.6" xlink:href="#m3b49d5795d" y="155.52"/>
      </g>
     </g>
     <g id="text_11">
      <!-- 0.6 -->
      <g transform="translate(34.696875 159.319219)scale(0.1 -0.1)">
       <use xlink:href="#DejaVuSans-30"/>
       <use x="63.623047" xlink:href="#DejaVuSans-2e"/>
       <use x="95.410156" xlink:href="#DejaVuSans-36"/>
      </g>
     </g>
    </g>
    <g id="ytick_5">
     <g id="line2d_11">
      <g>
       <use style="stroke:#000000;stroke-width:0.8;" x="57.6" xlink:href="#m3b49d5795d" y="104.832"/>
      </g>
     </g>
     <g id="text_12">
      <!-- 0.8 -->
      <g transform="translate(34.696875 108.631219)scale(0.1 -0.1)">
       <use xlink:href="#DejaVuSans-30"/>
       <use x="63.623047" xlink:href="#DejaVuSans-2e"/>
       <use x="95.410156" xlink:href="#DejaVuSans-38"/>
      </g>
     </g>
    </g>
    <g id="ytick_6">
     <g id="line2d_12">
      <g>
       <use style="stroke:#000000;stroke-width:0.8;" x="57.6" xlink:href="#m3b49d5795d" y="54.144"/>
      </g>
     </g>
     <g id="text_13">
      <!-- 1.0 -->
      <g transform="translate(34.696875 57.943219)scale(0.1 -0.1)">
       <use xlink:href="#DejaVuSans-31"/>
       <use x="63.623047" xlink:href="#DejaVuSans-2e"/>
       <use x="95.410156" xlink:href="#DejaVuSans-30"/>
      </g>
     </g>
    </g>
    <g id="text_14">
     <!-- Precision -->
     <g transform="translate(28.617187 196.835031)rotate(-90)scale(0.1 -0.1)">
      <defs>
       <path d="M 1259 4147 
L 1259 2394 
L 2053 2394 
Q 2494 2394 2734 2622 
Q 2975 2850 2975 3272 
Q 2975 3691 2734 3919 
Q 2494 4147 2053 4147 
L 1259 4147 
z
M 628 4666 
L 2053 4666 
Q 2838 4666 3239 4311 
Q 3641 3956 3641 3272 
Q 3641 2581 3239 2228 
Q 2838 1875 2053 1875 
L 1259 1875 
L 1259 0 
L 628 0 
L 628 4666 
z
" id="DejaVuSans-50" transform="scale(0.015625)"/>
       <path d="M 2631 2963 
Q 2534 3019 2420 3045 
Q 2306 3072 2169 3072 
Q 1681 3072 1420 2755 
Q 1159 2438 1159 1844 
L 1159 0 
L 581 0 
L 581 3500 
L 1159 3500 
L 1159 2956 
Q 1341 3275 1631 3429 
Q 1922 3584 2338 3584 
Q 2397 3584 2469 3576 
Q 2541 3569 2628 3553 
L 2631 2963 
z
" id="DejaVuSans-72" transform="scale(0.015625)"/>
       <path d="M 603 3500 
L 1178 3500 
L 1178 0 
L 603 0 
L 603 3500 
z
M 603 4863 
L 1178 4863 
L 1178 4134 
L 603 4134 
L 603 4863 
z
" id="DejaVuSans-69" transform="scale(0.015625)"/>
       <path d="M 2834 3397 
L 2834 2853 
Q 2591 2978 2328 3040 
Q 2066 3103 1784 3103 
Q 1356 3103 1142 2972 
Q 928 2841 928 2578 
Q 928 2378 1081 2264 
Q 1234 2150 1697 2047 
L 1894 2003 
Q 2506 1872 2764 1633 
Q 3022 1394 3022 966 
Q 3022 478 2636 193 
Q 2250 -91 1575 -91 
Q 1294 -91 989 -36 
Q 684 19 347 128 
L 347 722 
Q 666 556 975 473 
Q 1284 391 1588 391 
Q 1994 391 2212 530 
Q 2431 669 2431 922 
Q 2431 1156 2273 1281 
Q 2116 1406 1581 1522 
L 1381 1569 
Q 847 1681 609 1914 
Q 372 2147 372 2553 
Q 372 3047 722 3315 
Q 1072 3584 1716 3584 
Q 2034 3584 2315 3537 
Q 2597 3491 2834 3397 
z
" id="DejaVuSans-73" transform="scale(0.015625)"/>
       <path d="M 1959 3097 
Q 1497 3097 1228 2736 
Q 959 2375 959 1747 
Q 959 1119 1226 758 
Q 1494 397 1959 397 
Q 2419 397 2687 759 
Q 2956 1122 2956 1747 
Q 2956 2369 2687 2733 
Q 2419 3097 1959 3097 
z
M 1959 3584 
Q 2709 3584 3137 3096 
Q 3566 2609 3566 1747 
Q 3566 888 3137 398 
Q 2709 -91 1959 -91 
Q 1206 -91 779 398 
Q 353 888 353 1747 
Q 353 2609 779 3096 
Q 1206 3584 1959 3584 
z
" id="DejaVuSans-6f" transform="scale(0.015625)"/>
       <path d="M 3513 2113 
L 3513 0 
L 2938 0 
L 2938 2094 
Q 2938 2591 2744 2837 
Q 2550 3084 2163 3084 
Q 1697 3084 1428 2787 
Q 1159 2491 1159 1978 
L 1159 0 
L 581 0 
L 581 3500 
L 1159 3500 
L 1159 2956 
Q 1366 3272 1645 3428 
Q 1925 3584 2291 3584 
Q 2894 3584 3203 3211 
Q 3513 2838 3513 2113 
z
" id="DejaVuSans-6e" transform="scale(0.015625)"/>
      </defs>
      <use xlink:href="#DejaVuSans-50"/>
      <use x="58.552734" xlink:href="#DejaVuSans-72"/>
      <use x="97.416016" xlink:href="#DejaVuSans-65"/>
      <use x="158.939453" xlink:href="#DejaVuSans-63"/>
      <use x="213.919922" xlink:href="#DejaVuSans-69"/>
      <use x="241.703125" xlink:href="#DejaVuSans-73"/>
      <use x="293.802734" xlink:href="#DejaVuSans-69"/>
      <use x="321.585938" xlink:href="#DejaVuSans-6f"/>
      <use x="382.767578" xlink:href="#DejaVuSans-6e"/>
     </g>
    </g>
   </g>
   <g id="line2d_13">
    <path clip-path="url(#p80c73e3f1d)" d="M 414.72 110.932978 
L 414.603863 110.947311 
L 414.603863 110.848 
L 414.603863 107.974838 
L 414.487727 107.988634 
L 414.487727 107.886277 
L 414.487727 97.772276 
L 414.37159 97.784032 
L 414.37159 97.727482 
L 414.37159 96.189029 
L 414.255454 96.200448 
L 414.255454 96.143022 
L 414.255454 87.285602 
L 414.139317 87.294985 
L 414.139317 87.232598 
L 414.139317 86.606778 
L 414.02318 86.616 
L 414.02318 86.553207 
L 414.02318 85.035399 
L 413.907044 85.04424 
L 413.907044 84.98053 
L 413.907044 83.956183 
L 413.790907 83.964759 
L 413.790907 83.900409 
L 413.790907 79.903719 
L 413.674771 79.911266 
L 413.674771 79.844539 
L 413.674771 74.516501 
L 413.558634 74.522614 
L 413.558634 74.452667 
L 413.558634 73.04487 
L 413.326361 72.985414 
L 413.326361 71.845549 
L 413.210224 71.850926 
L 413.210224 71.779296 
L 413.210224 69.60998 
L 413.094088 69.614724 
L 413.094088 69.541705 
L 413.094088 68.293488 
L 412.977951 68.297854 
L 412.977951 68.224 
L 412.977951 68.002165 
L 412.745678 68.010733 
L 412.745678 67.936653 
L 412.745678 67.714139 
L 412.513405 67.722544 
L 412.513405 67.648238 
L 412.513405 66.52809 
L 412.164995 66.464548 
L 412.164995 65.710815 
L 412.048859 65.714432 
L 412.048859 65.638776 
L 412.048859 65.563074 
L 411.700449 65.497985 
L 411.700449 65.194238 
L 411.584312 65.197706 
L 411.584312 65.121627 
L 411.584312 64.816835 
L 411.468176 64.82019 
L 411.468176 64.743849 
L 411.468176 64.66746 
L 411.352039 64.670772 
L 411.352039 64.594312 
L 411.352039 64.517804 
L 411.119766 64.52434 
L 411.119766 64.447738 
L 411.119766 63.987107 
L 410.887493 63.916339 
L 410.887493 63.839302 
L 410.771356 63.842368 
L 410.771356 63.765259 
L 410.771356 63.533639 
L 410.539083 63.462238 
L 410.539083 63.384837 
L 410.422946 63.387768 
L 410.422946 63.310294 
L 410.422946 63.232772 
L 410.30681 63.235657 
L 410.30681 63.158062 
L 410.30681 62.847186 
L 410.190673 62.849954 
L 410.190673 62.772088 
L 410.190673 62.616206 
L 409.9584 62.543541 
L 409.9584 62.465428 
L 409.60999 62.395159 
L 409.60999 61.846111 
L 409.26158 61.774801 
L 409.26158 61.53837 
L 408.913171 61.545489 
L 408.913171 61.466504 
L 408.913171 61.229244 
L 408.797034 61.231522 
L 408.797034 61.152309 
L 408.797034 61.073045 
L 408.332488 61.081971 
L 408.332488 61.002557 
L 408.332488 60.923091 
L 408.216351 60.925277 
L 408.216351 60.845735 
L 408.216351 60.686498 
L 407.984078 60.690723 
L 407.984078 60.610977 
L 407.984078 60.37143 
L 407.403395 60.301434 
L 407.403395 60.221304 
L 406.590439 60.15476 
L 406.590439 59.913366 
L 406.242029 59.919 
L 406.242029 59.838354 
L 406.242029 59.676903 
L 405.89362 59.601436 
L 405.89362 59.520501 
L 405.661346 59.442974 
L 405.661346 59.361882 
L 405.312937 59.28578 
L 405.312937 59.041792 
L 405.080663 59.045003 
L 405.080663 58.963515 
L 405.080663 58.800378 
L 404.84839 58.803435 
L 404.84839 58.721734 
L 404.84839 58.55817 
L 404.035434 58.4863 
L 404.035434 58.404198 
L 403.687024 58.408414 
L 403.687024 58.326178 
L 403.687024 58.243888 
L 402.990205 58.16952 
L 402.990205 58.086959 
L 401.712702 58.018457 
L 401.712702 57.935489 
L 401.480429 57.938012 
L 401.480429 57.854935 
L 401.480429 57.771803 
L 400.4352 57.699271 
L 400.4352 57.532235 
L 399.73838 57.539044 
L 399.73838 57.455276 
L 399.73838 57.371453 
L 399.622244 57.372535 
L 399.622244 57.288628 
L 399.622244 57.036568 
L 398.925424 56.958105 
L 398.925424 56.873748 
L 398.460878 56.792901 
L 398.460878 56.708317 
L 397.647922 56.629546 
L 397.647922 56.54465 
L 395.441327 56.474681 
L 395.441327 56.389124 
L 395.209054 56.390655 
L 395.209054 56.304982 
L 395.209054 56.219251 
L 394.279961 56.138908 
L 394.279961 56.052826 
L 392.421776 55.976727 
L 392.421776 55.890056 
L 389.634498 55.817162 
L 389.634498 55.729652 
L 388.124722 55.648883 
L 388.124722 55.560855 
L 383.595395 55.49113 
L 383.595395 55.401767 
L 378.949932 55.329151 
L 378.949932 55.238379 
L 373.259239 55.165561 
L 373.259239 55.073032 
L 365.361951 55.001826 
L 365.361951 54.906799 
L 351.890107 54.842182 
L 351.890107 54.742677 
L 337.953717 54.667853 
L 337.953717 54.563256 
L 319.952546 54.480127 
L 319.952546 54.368184 
L 307.874341 54.378993 
L 307.874341 54.261551 
L 173.968859 54.396682 
L 173.968859 54.144 
L 57.6 54.144 
L 57.6 54.144 
" style="fill:none;stroke:#9d7c2a;stroke-linecap:square;stroke-width:2;"/>
   </g>
   <g id="line2d_14">
    <path clip-path="url(#p80c73e3f1d)" d="M 414.72 175.479132 
L 414.561772 175.50716 
L 414.561772 175.415567 
L 414.561772 127.55861 
L 414.403545 127.581732 
L 414.403545 127.525021 
L 414.403545 121.485921 
L 414.245317 121.507857 
L 414.245317 121.447226 
L 414.245317 114.527643 
L 414.087089 114.548057 
L 414.087089 114.482776 
L 414.087089 111.633307 
L 413.928861 111.653042 
L 413.928861 111.585758 
L 413.928861 105.906657 
L 413.770634 105.924954 
L 413.770634 105.853646 
L 413.770634 103.252539 
L 413.612406 103.270134 
L 413.612406 103.196903 
L 413.612406 100.224 
L 413.454178 100.240762 
L 413.454178 100.16531 
L 413.454178 94.425227 
L 413.29595 94.440296 
L 413.29595 94.360527 
L 413.29595 93.639907 
L 413.137723 93.654744 
L 413.137723 93.574349 
L 413.137723 88.889806 
L 412.979495 88.903155 
L 412.979495 88.819111 
L 412.979495 85.23 
L 412.821267 85.242148 
L 412.821267 85.155228 
L 412.821267 84.719605 
L 412.663039 84.731586 
L 412.663039 84.644227 
L 412.663039 83.590554 
L 412.504812 83.602156 
L 412.504812 83.51387 
L 412.504812 81.193749 
L 412.346584 81.204526 
L 412.346584 81.114299 
L 412.346584 77.724583 
L 412.030128 77.650586 
L 412.030128 76.809366 
L 411.871901 76.818583 
L 411.871901 76.7247 
L 411.871901 76.442591 
L 411.713673 76.451677 
L 411.713673 76.357453 
L 411.713673 74.55248 
L 411.555445 74.560868 
L 411.555445 74.465053 
L 411.555445 74.177133 
L 411.397218 74.185384 
L 411.397218 74.089216 
L 411.397218 73.800238 
L 411.23899 73.80835 
L 411.23899 73.711828 
L 411.23899 72.644805 
L 411.080762 72.652481 
L 411.080762 72.554959 
L 411.080762 72.261905 
L 410.922534 72.269439 
L 410.922534 72.171554 
L 410.922534 71.877411 
L 410.606079 71.892195 
L 410.606079 71.793908 
L 410.606079 71.695539 
L 410.447851 71.702865 
L 410.447851 71.604376 
L 410.447851 71.01171 
L 410.289623 71.018774 
L 410.289623 70.919668 
L 410.289623 69.824 
L 409.973168 69.737021 
L 409.973168 69.134114 
L 409.81494 69.14045 
L 409.81494 69.039628 
L 409.81494 68.837728 
L 409.498485 68.749017 
L 409.498485 68.546443 
L 409.340257 68.552553 
L 409.340257 68.451097 
L 409.340257 68.14621 
L 408.390891 68.079959 
L 408.390891 67.465846 
L 408.074435 67.477242 
L 408.074435 67.374501 
L 408.074435 67.168754 
L 407.916207 67.174334 
L 407.916207 67.071287 
L 407.916207 66.554722 
L 407.599752 66.565393 
L 407.599752 66.461729 
L 407.599752 66.357976 
L 407.441524 66.363234 
L 407.441524 66.259349 
L 407.441524 65.947157 
L 407.283296 65.952248 
L 407.283296 65.847962 
L 407.283296 65.220348 
L 407.125069 65.225143 
L 407.125069 65.12018 
L 407.125069 65.015127 
L 406.966841 65.019839 
L 406.966841 64.91465 
L 406.966841 64.598538 
L 406.650385 64.607625 
L 406.650385 64.501983 
L 406.650385 64.290423 
L 406.492158 64.29484 
L 406.492158 64.188878 
L 406.492158 63.764105 
L 406.33393 63.768304 
L 406.33393 63.661834 
L 406.33393 63.555271 
L 405.859247 63.567622 
L 405.859247 63.460832 
L 405.859247 63.353947 
L 405.384564 63.36606 
L 405.384564 63.258947 
L 405.384564 63.15174 
L 404.90988 63.163613 
L 404.90988 63.056176 
L 404.90988 62.948644 
L 404.593425 62.848676 
L 404.593425 62.740863 
L 404.276969 62.640445 
L 404.276969 62.424159 
L 403.644058 62.330336 
L 403.644058 62.004346 
L 403.169375 62.014807 
L 403.169375 61.905811 
L 403.169375 61.687527 
L 403.011148 61.69088 
L 403.011148 61.581546 
L 403.011148 61.252958 
L 402.85292 61.256125 
L 402.85292 61.146353 
L 402.85292 60.81645 
L 402.061781 60.720966 
L 402.061781 60.499862 
L 401.270642 60.403183 
L 401.270642 59.958413 
L 400.954187 59.963649 
L 400.954187 59.852108 
L 400.321276 59.862412 
L 400.321276 59.526594 
L 399.846593 59.5339 
L 399.846593 59.309217 
L 399.688365 59.311558 
L 399.688365 59.199014 
L 398.580771 59.215105 
L 398.580771 59.102107 
L 398.422543 59.104364 
L 398.422543 58.877959 
L 398.264315 58.880117 
L 398.264315 58.766709 
L 398.106088 58.768818 
L 398.106088 58.655255 
L 397.631405 58.661441 
L 397.631405 58.547621 
L 396.840266 58.557712 
L 396.840266 58.443532 
L 396.52381 58.447479 
L 396.52381 58.333091 
L 396.365583 58.335015 
L 396.365583 58.220471 
L 396.207355 58.222345 
L 396.207355 58.107643 
L 395.574444 58.114949 
L 395.574444 57.999934 
L 395.416216 58.001712 
L 395.416216 57.886538 
L 395.257988 57.888266 
L 395.257988 57.772933 
L 394.150394 57.784704 
L 394.150394 57.55298 
L 393.833939 57.556145 
L 393.833939 57.440015 
L 393.517483 57.443079 
L 393.517483 57.326735 
L 392.726345 57.334154 
L 392.726345 57.217433 
L 392.093434 57.223178 
L 392.093434 56.988977 
L 391.935206 56.990308 
L 391.935206 56.872989 
L 391.618751 56.875546 
L 391.618751 56.758008 
L 390.036473 56.770321 
L 390.036473 56.533816 
L 389.878245 56.534943 
L 389.878245 56.416468 
L 387.346602 56.433757 
L 387.346602 56.194681 
L 386.713691 56.198592 
L 386.713691 55.958606 
L 386.08078 55.962077 
L 386.08078 55.841684 
L 383.232681 55.856432 
L 383.232681 55.734884 
L 378.327621 55.759059 
L 378.327621 55.635555 
L 375.795977 55.647351 
L 375.795977 55.522754 
L 375.637749 55.523436 
L 375.637749 55.398653 
L 372.314967 55.411834 
L 372.314967 55.285622 
L 359.814976 55.332619 
L 359.814976 55.201101 
L 350.004856 55.236414 
L 350.004856 55.100377 
L 347.314984 55.109223 
L 347.314984 54.971784 
L 343.359291 54.983205 
L 343.359291 54.843724 
L 341.618786 54.848 
L 341.618786 54.707513 
L 318.042853 54.7584 
L 318.042853 54.605079 
L 313.612477 54.613044 
L 313.612477 54.456889 
L 283.549207 54.498462 
L 283.549207 54.321355 
L 274.21377 54.328993 
L 274.21377 54.144 
L 57.6 54.144 
L 57.6 54.144 
" style="fill:none;stroke:#65ea89;stroke-linecap:square;stroke-width:2;"/>
   </g>
   <g id="line2d_15">
    <path clip-path="url(#p80c73e3f1d)" d="M 414.72 149.476819 
L 414.653023 149.487974 
L 414.653023 149.376899 
L 414.586047 142.908247 
L 414.51907 142.919069 
L 414.51907 142.818627 
L 414.452093 123.138116 
L 414.385116 123.147541 
L 414.385116 123.046701 
L 414.31814 103.251357 
L 414.251163 103.258792 
L 414.251163 103.165945 
L 414.184186 101.077333 
L 414.117209 101.084517 
L 414.117209 100.989648 
L 414.050233 98.563749 
L 413.983256 98.570634 
L 413.983256 98.473403 
L 413.916279 96.284705 
L 413.849302 96.29131 
L 413.849302 96.19191 
L 413.782326 91.314116 
L 413.715349 91.320081 
L 413.715349 91.215908 
L 413.648372 87.798186 
L 413.581395 87.803677 
L 413.581395 87.696047 
L 413.514419 85.269678 
L 413.447442 85.274817 
L 413.447442 85.164654 
L 413.380465 79.20855 
L 413.313488 79.212802 
L 413.313488 79.135283 
L 413.246512 78.789984 
L 413.179535 78.794175 
L 413.179535 78.716342 
L 413.112558 76.75704 
L 413.045581 76.760921 
L 413.045581 76.681669 
L 412.978605 76.367934 
L 412.911628 76.371756 
L 412.911628 76.292206 
L 412.844651 74.450847 
L 412.777674 74.454369 
L 412.777674 74.373464 
L 412.710698 73.971538 
L 412.643721 73.974986 
L 412.643721 73.893716 
L 412.576744 71.846548 
L 412.509767 71.849656 
L 412.509767 71.766869 
L 412.509767 71.559649 
L 412.442791 71.56271 
L 412.375814 71.565772 
L 412.375814 71.482755 
L 412.308837 70.191315 
L 412.174884 70.112963 
L 412.107907 69.779015 
L 412.04093 69.781787 
L 412.04093 69.69743 
L 412.04093 69.655229 
L 411.973953 69.657982 
L 411.84 69.663489 
L 411.84 69.579 
L 411.773023 69.285508 
L 411.63907 69.290894 
L 411.63907 69.206093 
L 411.572093 68.143457 
L 411.505116 68.14596 
L 411.505116 68.060308 
L 411.43814 67.848365 
L 411.237209 67.812776 
L 411.237209 67.769806 
L 411.170233 67.12574 
L 411.103256 67.128073 
L 411.103256 67.041594 
L 411.103256 66.955052 
L 411.036279 66.957357 
L 410.835349 66.920954 
L 410.835349 66.877614 
L 410.768372 66.749774 
L 410.701395 66.752046 
L 410.701395 66.665197 
L 410.634419 66.362938 
L 410.433488 66.28237 
L 410.433488 66.238751 
L 410.366512 66.240937 
L 410.299535 66.243125 
L 410.299535 66.155809 
L 410.299535 66.112127 
L 410.232558 66.114293 
L 410.098605 66.118627 
L 410.098605 66.031171 
L 410.098605 65.768423 
L 410.031628 65.770531 
L 409.897674 65.686994 
L 409.897674 65.643093 
L 409.830698 65.64518 
L 409.763721 65.647268 
L 409.763721 65.559387 
L 409.763721 65.29536 
L 409.696744 65.297388 
L 409.629767 65.299417 
L 409.629767 65.211249 
L 409.562791 64.904117 
L 409.495814 64.906078 
L 409.495814 64.81759 
L 409.428837 64.730968 
L 409.294884 64.734832 
L 409.294884 64.646169 
L 409.227907 64.292722 
L 409.16093 64.294578 
L 409.16093 64.205559 
L 409.093953 63.984527 
L 408.96 63.988133 
L 408.96 63.898839 
L 408.893023 63.766539 
L 408.692093 63.682315 
L 408.625116 63.190432 
L 408.424186 63.15043 
L 408.424186 63.105414 
L 408.357209 62.926806 
L 408.022326 62.844598 
L 408.022326 62.754222 
L 407.955349 62.755812 
L 407.620465 62.673231 
L 407.553488 62.538848 
L 407.352558 62.498133 
L 407.352558 62.452739 
L 407.285581 62.317968 
L 407.084651 62.322516 
L 407.084651 62.23151 
L 407.084651 62.140437 
L 407.017674 62.141921 
L 406.883721 62.099305 
L 406.883721 62.053701 
L 406.816744 61.735412 
L 406.615814 61.739652 
L 406.615814 61.648089 
L 406.548837 61.374341 
L 406.48186 61.37569 
L 406.48186 61.283821 
L 406.48186 61.237861 
L 406.414884 61.239185 
L 406.213953 61.197149 
L 406.213953 61.151121 
L 406.213953 61.012935 
L 406.146977 61.014219 
L 405.946047 61.018074 
L 405.946047 60.925796 
L 405.946047 60.83345 
L 405.87907 60.834702 
L 405.343256 60.752171 
L 405.276279 60.382377 
L 405.008372 60.387069 
L 405.008372 60.294068 
L 405.008372 60.200997 
L 404.941395 60.202137 
L 404.673488 60.113474 
L 404.673488 60.020177 
L 404.606512 60.021285 
L 403.936744 59.93883 
L 403.869767 59.752564 
L 403.333953 59.71411 
L 403.333953 59.667138 
L 403.333953 59.620149 
L 403.266977 59.621187 
L 403.066047 59.624303 
L 403.066047 59.530201 
L 403.066047 59.483123 
L 402.99907 59.484137 
L 402.731163 59.393897 
L 402.731163 59.299529 
L 402.664186 59.300509 
L 402.530233 59.255233 
L 402.530233 59.207977 
L 402.530233 59.160703 
L 402.463256 59.161658 
L 402.396279 59.162614 
L 402.396279 59.067977 
L 402.396279 58.973268 
L 402.329302 58.974189 
L 402.128372 58.8821 
L 402.128372 58.739686 
L 402.061395 58.740564 
L 401.793488 58.696524 
L 401.793488 58.648954 
L 401.726512 58.554602 
L 400.989767 58.516168 
L 400.989767 58.468417 
L 400.989767 58.420648 
L 400.922791 58.421468 
L 400.52093 58.330677 
L 400.453953 58.187737 
L 399.382326 58.104 
L 399.315349 57.960278 
L 398.511628 57.872502 
L 398.511628 57.775789 
L 398.444651 57.776493 
L 397.908837 57.685176 
L 397.908837 57.636671 
L 397.84186 57.637349 
L 397.23907 57.54621 
L 397.23907 57.400188 
L 397.172093 57.400822 
L 396.971163 57.305208 
L 396.971163 57.207615 
L 396.904186 57.208212 
L 396.234419 57.116322 
L 396.234419 57.067355 
L 396.167442 57.067926 
L 395.966512 57.020618 
L 395.966512 56.971575 
L 395.899535 56.824854 
L 394.56 56.736737 
L 394.493023 56.58908 
L 392.751628 56.502282 
L 392.751628 56.452562 
L 392.684651 56.45302 
L 391.88093 56.358769 
L 391.88093 56.308863 
L 391.813953 56.309293 
L 391.613023 56.310584 
L 391.613023 56.210635 
L 391.613023 56.16063 
L 391.546047 56.161031 
L 390.876279 56.064766 
L 390.876279 56.014592 
L 390.809302 56.014966 
L 388.532093 55.926637 
L 388.532093 55.825448 
L 388.465116 55.825786 
L 384.580465 55.743153 
L 384.580465 55.691883 
L 384.513488 55.692198 
L 383.508837 55.594004 
L 383.508837 55.542504 
L 383.44186 55.54279 
L 379.892093 55.453903 
L 379.892093 55.401767 
L 379.825116 55.402027 
L 376.141395 55.310949 
L 376.141395 55.258139 
L 376.074419 55.258372 
L 364.889302 55.189227 
L 364.889302 55.13443 
L 364.822326 55.134645 
L 360.20093 55.094051 
L 360.20093 55.038363 
L 360.133953 55.03856 
L 353.503256 55.001568 
L 353.503256 54.944578 
L 353.436279 54.944758 
L 343.657674 54.913076 
L 343.657674 54.854082 
L 343.590698 54.854248 
L 338.969302 54.80588 
L 338.969302 54.745852 
L 338.902326 54.745995 
L 333.67814 54.696157 
L 333.67814 54.634925 
L 333.611163 54.635044 
L 328.989767 54.581073 
L 328.989767 54.518726 
L 328.922791 54.518819 
L 281.235349 54.522947 
L 281.235349 54.447249 
L 281.168372 54.447339 
L 222.295814 54.452822 
L 222.295814 54.349965 
L 222.228837 54.350049 
L 207.895814 54.256891 
L 199.389767 54.26366 
L 199.389767 54.144 
L 199.322791 54.144 
L 57.6 54.144 
L 57.6 54.144 
" style="fill:none;stroke:#ff1493;stroke-dasharray:4,6.6;stroke-dashoffset:0;stroke-width:4;"/>
   </g>
   <g id="line2d_16">
    <path clip-path="url(#p80c73e3f1d)" d="M 57.6 307.584 
L 414.72 54.144 
" style="fill:none;stroke:#000000;stroke-dasharray:7.4,3.2;stroke-dashoffset:0;stroke-width:2;"/>
   </g>
   <g id="line2d_17">
    <path clip-path="url(#p80c73e3f1d)" d="M 57.6 307.584 
L 414.72 54.144 
" style="fill:none;stroke:#000000;stroke-dasharray:7.4,3.2;stroke-dashoffset:0;stroke-width:2;"/>
   </g>
   <g id="patch_3">
    <path d="M 57.6 307.584 
L 57.6 41.472 
" style="fill:none;stroke:#000000;stroke-linecap:square;stroke-linejoin:miter;stroke-width:0.8;"/>
   </g>
   <g id="patch_4">
    <path d="M 414.72 307.584 
L 414.72 41.472 
" style="fill:none;stroke:#000000;stroke-linecap:square;stroke-linejoin:miter;stroke-width:0.8;"/>
   </g>
   <g id="patch_5">
    <path d="M 57.6 307.584 
L 414.72 307.584 
" style="fill:none;stroke:#000000;stroke-linecap:square;stroke-linejoin:miter;stroke-width:0.8;"/>
   </g>
   <g id="patch_6">
    <path d="M 57.6 41.472 
L 414.72 41.472 
" style="fill:none;stroke:#000000;stroke-linecap:square;stroke-linejoin:miter;stroke-width:0.8;"/>
   </g>
   <g id="text_15">
    <!-- PR Curves -->
    <g transform="translate(205.63875 35.472)scale(0.12 -0.12)">
     <defs>
      <path id="DejaVuSans-20" transform="scale(0.015625)"/>
      <path d="M 4122 4306 
L 4122 3641 
Q 3803 3938 3442 4084 
Q 3081 4231 2675 4231 
Q 1875 4231 1450 3742 
Q 1025 3253 1025 2328 
Q 1025 1406 1450 917 
Q 1875 428 2675 428 
Q 3081 428 3442 575 
Q 3803 722 4122 1019 
L 4122 359 
Q 3791 134 3420 21 
Q 3050 -91 2638 -91 
Q 1578 -91 968 557 
Q 359 1206 359 2328 
Q 359 3453 968 4101 
Q 1578 4750 2638 4750 
Q 3056 4750 3426 4639 
Q 3797 4528 4122 4306 
z
" id="DejaVuSans-43" transform="scale(0.015625)"/>
      <path d="M 544 1381 
L 544 3500 
L 1119 3500 
L 1119 1403 
Q 1119 906 1312 657 
Q 1506 409 1894 409 
Q 2359 409 2629 706 
Q 2900 1003 2900 1516 
L 2900 3500 
L 3475 3500 
L 3475 0 
L 2900 0 
L 2900 538 
Q 2691 219 2414 64 
Q 2138 -91 1772 -91 
Q 1169 -91 856 284 
Q 544 659 544 1381 
z
M 1991 3584 
L 1991 3584 
z
" id="DejaVuSans-75" transform="scale(0.015625)"/>
      <path d="M 191 3500 
L 800 3500 
L 1894 563 
L 2988 3500 
L 3597 3500 
L 2284 0 
L 1503 0 
L 191 3500 
z
" id="DejaVuSans-76" transform="scale(0.015625)"/>
     </defs>
     <use xlink:href="#DejaVuSans-50"/>
     <use x="60.302734" xlink:href="#DejaVuSans-52"/>
     <use x="129.785156" xlink:href="#DejaVuSans-20"/>
     <use x="161.572266" xlink:href="#DejaVuSans-43"/>
     <use x="231.396484" xlink:href="#DejaVuSans-75"/>
     <use x="294.775391" xlink:href="#DejaVuSans-72"/>
     <use x="335.888672" xlink:href="#DejaVuSans-76"/>
     <use x="395.068359" xlink:href="#DejaVuSans-65"/>
     <use x="456.591797" xlink:href="#DejaVuSans-73"/>
    </g>
   </g>
   <g id="legend_1">
    <g id="patch_7">
     <path d="M 64.6 302.584 
L 286.989063 302.584 
Q 288.989063 302.584 288.989063 300.584 
L 288.989063 257.549625 
Q 288.989063 255.549625 286.989063 255.549625 
L 64.6 255.549625 
Q 62.6 255.549625 62.6 257.549625 
L 62.6 300.584 
Q 62.6 302.584 64.6 302.584 
z
" style="fill:#ffffff;opacity:0.8;stroke:#cccccc;stroke-linejoin:miter;"/>
    </g>
    <g id="line2d_18">
     <path d="M 66.6 263.648062 
L 86.6 263.648062 
" style="fill:none;stroke:#9d7c2a;stroke-linecap:square;stroke-width:2;"/>
    </g>
    <g id="line2d_19"/>
    <g id="text_16">
     <!-- PR curve of CD4 (area = 1.00) -->
     <g transform="translate(94.6 267.148062)scale(0.1 -0.1)">
      <defs>
       <path d="M 2375 4863 
L 2375 4384 
L 1825 4384 
Q 1516 4384 1395 4259 
Q 1275 4134 1275 3809 
L 1275 3500 
L 2222 3500 
L 2222 3053 
L 1275 3053 
L 1275 0 
L 697 0 
L 697 3053 
L 147 3053 
L 147 3500 
L 697 3500 
L 697 3744 
Q 697 4328 969 4595 
Q 1241 4863 1831 4863 
L 2375 4863 
z
" id="DejaVuSans-66" transform="scale(0.015625)"/>
       <path d="M 1259 4147 
L 1259 519 
L 2022 519 
Q 2988 519 3436 956 
Q 3884 1394 3884 2338 
Q 3884 3275 3436 3711 
Q 2988 4147 2022 4147 
L 1259 4147 
z
M 628 4666 
L 1925 4666 
Q 3281 4666 3915 4102 
Q 4550 3538 4550 2338 
Q 4550 1131 3912 565 
Q 3275 0 1925 0 
L 628 0 
L 628 4666 
z
" id="DejaVuSans-44" transform="scale(0.015625)"/>
       <path d="M 1984 4856 
Q 1566 4138 1362 3434 
Q 1159 2731 1159 2009 
Q 1159 1288 1364 580 
Q 1569 -128 1984 -844 
L 1484 -844 
Q 1016 -109 783 600 
Q 550 1309 550 2009 
Q 550 2706 781 3412 
Q 1013 4119 1484 4856 
L 1984 4856 
z
" id="DejaVuSans-28" transform="scale(0.015625)"/>
       <path d="M 678 2906 
L 4684 2906 
L 4684 2381 
L 678 2381 
L 678 2906 
z
M 678 1631 
L 4684 1631 
L 4684 1100 
L 678 1100 
L 678 1631 
z
" id="DejaVuSans-3d" transform="scale(0.015625)"/>
       <path d="M 513 4856 
L 1013 4856 
Q 1481 4119 1714 3412 
Q 1947 2706 1947 2009 
Q 1947 1309 1714 600 
Q 1481 -109 1013 -844 
L 513 -844 
Q 928 -128 1133 580 
Q 1338 1288 1338 2009 
Q 1338 2731 1133 3434 
Q 928 4138 513 4856 
z
" id="DejaVuSans-29" transform="scale(0.015625)"/>
      </defs>
      <use xlink:href="#DejaVuSans-50"/>
      <use x="60.302734" xlink:href="#DejaVuSans-52"/>
      <use x="129.785156" xlink:href="#DejaVuSans-20"/>
      <use x="161.572266" xlink:href="#DejaVuSans-63"/>
      <use x="216.552734" xlink:href="#DejaVuSans-75"/>
      <use x="279.931641" xlink:href="#DejaVuSans-72"/>
      <use x="321.044922" xlink:href="#DejaVuSans-76"/>
      <use x="380.224609" xlink:href="#DejaVuSans-65"/>
      <use x="441.748047" xlink:href="#DejaVuSans-20"/>
      <use x="473.535156" xlink:href="#DejaVuSans-6f"/>
      <use x="534.716797" xlink:href="#DejaVuSans-66"/>
      <use x="569.921875" xlink:href="#DejaVuSans-20"/>
      <use x="601.708984" xlink:href="#DejaVuSans-43"/>
      <use x="671.533203" xlink:href="#DejaVuSans-44"/>
      <use x="748.535156" xlink:href="#DejaVuSans-34"/>
      <use x="812.158203" xlink:href="#DejaVuSans-20"/>
      <use x="843.945312" xlink:href="#DejaVuSans-28"/>
      <use x="882.958984" xlink:href="#DejaVuSans-61"/>
      <use x="944.238281" xlink:href="#DejaVuSans-72"/>
      <use x="983.101562" xlink:href="#DejaVuSans-65"/>
      <use x="1044.625" xlink:href="#DejaVuSans-61"/>
      <use x="1105.904297" xlink:href="#DejaVuSans-20"/>
      <use x="1137.691406" xlink:href="#DejaVuSans-3d"/>
      <use x="1221.480469" xlink:href="#DejaVuSans-20"/>
      <use x="1253.267578" xlink:href="#DejaVuSans-31"/>
      <use x="1316.890625" xlink:href="#DejaVuSans-2e"/>
      <use x="1348.677734" xlink:href="#DejaVuSans-30"/>
      <use x="1412.300781" xlink:href="#DejaVuSans-30"/>
      <use x="1475.923828" xlink:href="#DejaVuSans-29"/>
     </g>
    </g>
    <g id="line2d_20">
     <path d="M 66.6 278.326188 
L 86.6 278.326188 
" style="fill:none;stroke:#65ea89;stroke-linecap:square;stroke-width:2;"/>
    </g>
    <g id="line2d_21"/>
    <g id="text_17">
     <!-- PR curve of CD8 (area = 1.00) -->
     <g transform="translate(94.6 281.826188)scale(0.1 -0.1)">
      <use xlink:href="#DejaVuSans-50"/>
      <use x="60.302734" xlink:href="#DejaVuSans-52"/>
      <use x="129.785156" xlink:href="#DejaVuSans-20"/>
      <use x="161.572266" xlink:href="#DejaVuSans-63"/>
      <use x="216.552734" xlink:href="#DejaVuSans-75"/>
      <use x="279.931641" xlink:href="#DejaVuSans-72"/>
      <use x="321.044922" xlink:href="#DejaVuSans-76"/>
      <use x="380.224609" xlink:href="#DejaVuSans-65"/>
      <use x="441.748047" xlink:href="#DejaVuSans-20"/>
      <use x="473.535156" xlink:href="#DejaVuSans-6f"/>
      <use x="534.716797" xlink:href="#DejaVuSans-66"/>
      <use x="569.921875" xlink:href="#DejaVuSans-20"/>
      <use x="601.708984" xlink:href="#DejaVuSans-43"/>
      <use x="671.533203" xlink:href="#DejaVuSans-44"/>
      <use x="748.535156" xlink:href="#DejaVuSans-38"/>
      <use x="812.158203" xlink:href="#DejaVuSans-20"/>
      <use x="843.945312" xlink:href="#DejaVuSans-28"/>
      <use x="882.958984" xlink:href="#DejaVuSans-61"/>
      <use x="944.238281" xlink:href="#DejaVuSans-72"/>
      <use x="983.101562" xlink:href="#DejaVuSans-65"/>
      <use x="1044.625" xlink:href="#DejaVuSans-61"/>
      <use x="1105.904297" xlink:href="#DejaVuSans-20"/>
      <use x="1137.691406" xlink:href="#DejaVuSans-3d"/>
      <use x="1221.480469" xlink:href="#DejaVuSans-20"/>
      <use x="1253.267578" xlink:href="#DejaVuSans-31"/>
      <use x="1316.890625" xlink:href="#DejaVuSans-2e"/>
      <use x="1348.677734" xlink:href="#DejaVuSans-30"/>
      <use x="1412.300781" xlink:href="#DejaVuSans-30"/>
      <use x="1475.923828" xlink:href="#DejaVuSans-29"/>
     </g>
    </g>
    <g id="line2d_22">
     <path d="M 66.6 293.004312 
L 86.6 293.004312 
" style="fill:none;stroke:#ff1493;stroke-dasharray:4,6.6;stroke-dashoffset:0;stroke-width:4;"/>
    </g>
    <g id="line2d_23"/>
    <g id="text_18">
     <!-- micro-average PR curve (area = 1.00) -->
     <g transform="translate(94.6 296.504312)scale(0.1 -0.1)">
      <defs>
       <path d="M 3328 2828 
Q 3544 3216 3844 3400 
Q 4144 3584 4550 3584 
Q 5097 3584 5394 3201 
Q 5691 2819 5691 2113 
L 5691 0 
L 5113 0 
L 5113 2094 
Q 5113 2597 4934 2840 
Q 4756 3084 4391 3084 
Q 3944 3084 3684 2787 
Q 3425 2491 3425 1978 
L 3425 0 
L 2847 0 
L 2847 2094 
Q 2847 2600 2669 2842 
Q 2491 3084 2119 3084 
Q 1678 3084 1418 2786 
Q 1159 2488 1159 1978 
L 1159 0 
L 581 0 
L 581 3500 
L 1159 3500 
L 1159 2956 
Q 1356 3278 1631 3431 
Q 1906 3584 2284 3584 
Q 2666 3584 2933 3390 
Q 3200 3197 3328 2828 
z
" id="DejaVuSans-6d" transform="scale(0.015625)"/>
       <path d="M 313 2009 
L 1997 2009 
L 1997 1497 
L 313 1497 
L 313 2009 
z
" id="DejaVuSans-2d" transform="scale(0.015625)"/>
       <path d="M 2906 1791 
Q 2906 2416 2648 2759 
Q 2391 3103 1925 3103 
Q 1463 3103 1205 2759 
Q 947 2416 947 1791 
Q 947 1169 1205 825 
Q 1463 481 1925 481 
Q 2391 481 2648 825 
Q 2906 1169 2906 1791 
z
M 3481 434 
Q 3481 -459 3084 -895 
Q 2688 -1331 1869 -1331 
Q 1566 -1331 1297 -1286 
Q 1028 -1241 775 -1147 
L 775 -588 
Q 1028 -725 1275 -790 
Q 1522 -856 1778 -856 
Q 2344 -856 2625 -561 
Q 2906 -266 2906 331 
L 2906 616 
Q 2728 306 2450 153 
Q 2172 0 1784 0 
Q 1141 0 747 490 
Q 353 981 353 1791 
Q 353 2603 747 3093 
Q 1141 3584 1784 3584 
Q 2172 3584 2450 3431 
Q 2728 3278 2906 2969 
L 2906 3500 
L 3481 3500 
L 3481 434 
z
" id="DejaVuSans-67" transform="scale(0.015625)"/>
      </defs>
      <use xlink:href="#DejaVuSans-6d"/>
      <use x="97.412109" xlink:href="#DejaVuSans-69"/>
      <use x="125.195312" xlink:href="#DejaVuSans-63"/>
      <use x="180.175781" xlink:href="#DejaVuSans-72"/>
      <use x="219.039062" xlink:href="#DejaVuSans-6f"/>
      <use x="282.095703" xlink:href="#DejaVuSans-2d"/>
      <use x="318.179688" xlink:href="#DejaVuSans-61"/>
      <use x="379.458984" xlink:href="#DejaVuSans-76"/>
      <use x="438.638672" xlink:href="#DejaVuSans-65"/>
      <use x="500.162109" xlink:href="#DejaVuSans-72"/>
      <use x="541.275391" xlink:href="#DejaVuSans-61"/>
      <use x="602.554688" xlink:href="#DejaVuSans-67"/>
      <use x="666.03125" xlink:href="#DejaVuSans-65"/>
      <use x="727.554688" xlink:href="#DejaVuSans-20"/>
      <use x="759.341797" xlink:href="#DejaVuSans-50"/>
      <use x="819.644531" xlink:href="#DejaVuSans-52"/>
      <use x="889.126953" xlink:href="#DejaVuSans-20"/>
      <use x="920.914062" xlink:href="#DejaVuSans-63"/>
      <use x="975.894531" xlink:href="#DejaVuSans-75"/>
      <use x="1039.273438" xlink:href="#DejaVuSans-72"/>
      <use x="1080.386719" xlink:href="#DejaVuSans-76"/>
      <use x="1139.566406" xlink:href="#DejaVuSans-65"/>
      <use x="1201.089844" xlink:href="#DejaVuSans-20"/>
      <use x="1232.876953" xlink:href="#DejaVuSans-28"/>
      <use x="1271.890625" xlink:href="#DejaVuSans-61"/>
      <use x="1333.169922" xlink:href="#DejaVuSans-72"/>
      <use x="1372.033203" xlink:href="#DejaVuSans-65"/>
      <use x="1433.556641" xlink:href="#DejaVuSans-61"/>
      <use x="1494.835938" xlink:href="#DejaVuSans-20"/>
      <use x="1526.623047" xlink:href="#DejaVuSans-3d"/>
      <use x="1610.412109" xlink:href="#DejaVuSans-20"/>
      <use x="1642.199219" xlink:href="#DejaVuSans-31"/>
      <use x="1705.822266" xlink:href="#DejaVuSans-2e"/>
      <use x="1737.609375" xlink:href="#DejaVuSans-30"/>
      <use x="1801.232422" xlink:href="#DejaVuSans-30"/>
      <use x="1864.855469" xlink:href="#DejaVuSans-29"/>
     </g>
    </g>
   </g>
  </g>
 </g>
 <defs>
  <clipPath id="p80c73e3f1d">
   <rect height="266.112" width="357.12" x="57.6" y="41.472"/>
  </clipPath>
 </defs>
</svg>
