<?xml version="1.0" encoding="utf-8" standalone="no"?>
<!DOCTYPE svg PUBLIC "-//W3C//DTD SVG 1.1//EN"
  "http://www.w3.org/Graphics/SVG/1.1/DTD/svg11.dtd">
<svg height="345.6pt" version="1.1" viewBox="0 0 460.8 345.6" width="460.8pt" xmlns="http://www.w3.org/2000/svg" xmlns:xlink="http://www.w3.org/1999/xlink">
 <metadata>
  <rdf:RDF xmlns:cc="http://creativecommons.org/ns#" xmlns:dc="http://purl.org/dc/elements/1.1/" xmlns:rdf="http://www.w3.org/1999/02/22-rdf-syntax-ns#">
   <cc:Work>
    <dc:type rdf:resource="http://purl.org/dc/dcmitype/StillImage"/>
    <dc:date>2021-08-31T11:42:03.556155</dc:date>
    <dc:format>image/svg+xml</dc:format>
    <dc:creator>
     <cc:Agent>
      <dc:title>Matplotlib v3.4.2, https://matplotlib.org/</dc:title>
     </cc:Agent>
    </dc:creator>
   </cc:Work>
  </rdf:RDF>
 </metadata>
 <defs>
  <style type="text/css">*{stroke-linecap:butt;stroke-linejoin:round;}</style>
 </defs>
 <g id="figure_1">
  <g id="patch_1">
   <path d="M 0 345.6 
L 460.8 345.6 
L 460.8 0 
L 0 0 
z
" style="fill:#ffffff;"/>
  </g>
  <g id="axes_1">
   <g id="patch_2">
    <path d="M 57.6 307.584 
L 414.72 307.584 
L 414.72 41.472 
L 57.6 41.472 
z
" style="fill:#ffffff;"/>
   </g>
   <g id="matplotlib.axis_1">
    <g id="xtick_1">
     <g id="line2d_1">
      <defs>
       <path d="M 0 0 
L 0 3.5 
" id="mdb709cce65" style="stroke:#000000;stroke-width:0.8;"/>
      </defs>
      <g>
       <use style="stroke:#000000;stroke-width:0.8;" x="57.6" xlink:href="#mdb709cce65" y="307.584"/>
      </g>
     </g>
     <g id="text_1">
      <!-- 0.0 -->
      <g transform="translate(49.648438 322.182437)scale(0.1 -0.1)">
       <defs>
        <path d="M 2034 4250 
Q 1547 4250 1301 3770 
Q 1056 3291 1056 2328 
Q 1056 1369 1301 889 
Q 1547 409 2034 409 
Q 2525 409 2770 889 
Q 3016 1369 3016 2328 
Q 3016 3291 2770 3770 
Q 2525 4250 2034 4250 
z
M 2034 4750 
Q 2819 4750 3233 4129 
Q 3647 3509 3647 2328 
Q 3647 1150 3233 529 
Q 2819 -91 2034 -91 
Q 1250 -91 836 529 
Q 422 1150 422 2328 
Q 422 3509 836 4129 
Q 1250 4750 2034 4750 
z
" id="DejaVuSans-30" transform="scale(0.015625)"/>
        <path d="M 684 794 
L 1344 794 
L 1344 0 
L 684 0 
L 684 794 
z
" id="DejaVuSans-2e" transform="scale(0.015625)"/>
       </defs>
       <use xlink:href="#DejaVuSans-30"/>
       <use x="63.623047" xlink:href="#DejaVuSans-2e"/>
       <use x="95.410156" xlink:href="#DejaVuSans-30"/>
      </g>
     </g>
    </g>
    <g id="xtick_2">
     <g id="line2d_2">
      <g>
       <use style="stroke:#000000;stroke-width:0.8;" x="129.024" xlink:href="#mdb709cce65" y="307.584"/>
      </g>
     </g>
     <g id="text_2">
      <!-- 0.2 -->
      <g transform="translate(121.072438 322.182437)scale(0.1 -0.1)">
       <defs>
        <path d="M 1228 531 
L 3431 531 
L 3431 0 
L 469 0 
L 469 531 
Q 828 903 1448 1529 
Q 2069 2156 2228 2338 
Q 2531 2678 2651 2914 
Q 2772 3150 2772 3378 
Q 2772 3750 2511 3984 
Q 2250 4219 1831 4219 
Q 1534 4219 1204 4116 
Q 875 4013 500 3803 
L 500 4441 
Q 881 4594 1212 4672 
Q 1544 4750 1819 4750 
Q 2544 4750 2975 4387 
Q 3406 4025 3406 3419 
Q 3406 3131 3298 2873 
Q 3191 2616 2906 2266 
Q 2828 2175 2409 1742 
Q 1991 1309 1228 531 
z
" id="DejaVuSans-32" transform="scale(0.015625)"/>
       </defs>
       <use xlink:href="#DejaVuSans-30"/>
       <use x="63.623047" xlink:href="#DejaVuSans-2e"/>
       <use x="95.410156" xlink:href="#DejaVuSans-32"/>
      </g>
     </g>
    </g>
    <g id="xtick_3">
     <g id="line2d_3">
      <g>
       <use style="stroke:#000000;stroke-width:0.8;" x="200.448" xlink:href="#mdb709cce65" y="307.584"/>
      </g>
     </g>
     <g id="text_3">
      <!-- 0.4 -->
      <g transform="translate(192.496438 322.182437)scale(0.1 -0.1)">
       <defs>
        <path d="M 2419 4116 
L 825 1625 
L 2419 1625 
L 2419 4116 
z
M 2253 4666 
L 3047 4666 
L 3047 1625 
L 3713 1625 
L 3713 1100 
L 3047 1100 
L 3047 0 
L 2419 0 
L 2419 1100 
L 313 1100 
L 313 1709 
L 2253 4666 
z
" id="DejaVuSans-34" transform="scale(0.015625)"/>
       </defs>
       <use xlink:href="#DejaVuSans-30"/>
       <use x="63.623047" xlink:href="#DejaVuSans-2e"/>
       <use x="95.410156" xlink:href="#DejaVuSans-34"/>
      </g>
     </g>
    </g>
    <g id="xtick_4">
     <g id="line2d_4">
      <g>
       <use style="stroke:#000000;stroke-width:0.8;" x="271.872" xlink:href="#mdb709cce65" y="307.584"/>
      </g>
     </g>
     <g id="text_4">
      <!-- 0.6 -->
      <g transform="translate(263.920438 322.182437)scale(0.1 -0.1)">
       <defs>
        <path d="M 2113 2584 
Q 1688 2584 1439 2293 
Q 1191 2003 1191 1497 
Q 1191 994 1439 701 
Q 1688 409 2113 409 
Q 2538 409 2786 701 
Q 3034 994 3034 1497 
Q 3034 2003 2786 2293 
Q 2538 2584 2113 2584 
z
M 3366 4563 
L 3366 3988 
Q 3128 4100 2886 4159 
Q 2644 4219 2406 4219 
Q 1781 4219 1451 3797 
Q 1122 3375 1075 2522 
Q 1259 2794 1537 2939 
Q 1816 3084 2150 3084 
Q 2853 3084 3261 2657 
Q 3669 2231 3669 1497 
Q 3669 778 3244 343 
Q 2819 -91 2113 -91 
Q 1303 -91 875 529 
Q 447 1150 447 2328 
Q 447 3434 972 4092 
Q 1497 4750 2381 4750 
Q 2619 4750 2861 4703 
Q 3103 4656 3366 4563 
z
" id="DejaVuSans-36" transform="scale(0.015625)"/>
       </defs>
       <use xlink:href="#DejaVuSans-30"/>
       <use x="63.623047" xlink:href="#DejaVuSans-2e"/>
       <use x="95.410156" xlink:href="#DejaVuSans-36"/>
      </g>
     </g>
    </g>
    <g id="xtick_5">
     <g id="line2d_5">
      <g>
       <use style="stroke:#000000;stroke-width:0.8;" x="343.296" xlink:href="#mdb709cce65" y="307.584"/>
      </g>
     </g>
     <g id="text_5">
      <!-- 0.8 -->
      <g transform="translate(335.344438 322.182437)scale(0.1 -0.1)">
       <defs>
        <path d="M 2034 2216 
Q 1584 2216 1326 1975 
Q 1069 1734 1069 1313 
Q 1069 891 1326 650 
Q 1584 409 2034 409 
Q 2484 409 2743 651 
Q 3003 894 3003 1313 
Q 3003 1734 2745 1975 
Q 2488 2216 2034 2216 
z
M 1403 2484 
Q 997 2584 770 2862 
Q 544 3141 544 3541 
Q 544 4100 942 4425 
Q 1341 4750 2034 4750 
Q 2731 4750 3128 4425 
Q 3525 4100 3525 3541 
Q 3525 3141 3298 2862 
Q 3072 2584 2669 2484 
Q 3125 2378 3379 2068 
Q 3634 1759 3634 1313 
Q 3634 634 3220 271 
Q 2806 -91 2034 -91 
Q 1263 -91 848 271 
Q 434 634 434 1313 
Q 434 1759 690 2068 
Q 947 2378 1403 2484 
z
M 1172 3481 
Q 1172 3119 1398 2916 
Q 1625 2713 2034 2713 
Q 2441 2713 2670 2916 
Q 2900 3119 2900 3481 
Q 2900 3844 2670 4047 
Q 2441 4250 2034 4250 
Q 1625 4250 1398 4047 
Q 1172 3844 1172 3481 
z
" id="DejaVuSans-38" transform="scale(0.015625)"/>
       </defs>
       <use xlink:href="#DejaVuSans-30"/>
       <use x="63.623047" xlink:href="#DejaVuSans-2e"/>
       <use x="95.410156" xlink:href="#DejaVuSans-38"/>
      </g>
     </g>
    </g>
    <g id="xtick_6">
     <g id="line2d_6">
      <g>
       <use style="stroke:#000000;stroke-width:0.8;" x="414.72" xlink:href="#mdb709cce65" y="307.584"/>
      </g>
     </g>
     <g id="text_6">
      <!-- 1.0 -->
      <g transform="translate(406.768438 322.182437)scale(0.1 -0.1)">
       <defs>
        <path d="M 794 531 
L 1825 531 
L 1825 4091 
L 703 3866 
L 703 4441 
L 1819 4666 
L 2450 4666 
L 2450 531 
L 3481 531 
L 3481 0 
L 794 0 
L 794 531 
z
" id="DejaVuSans-31" transform="scale(0.015625)"/>
       </defs>
       <use xlink:href="#DejaVuSans-31"/>
       <use x="63.623047" xlink:href="#DejaVuSans-2e"/>
       <use x="95.410156" xlink:href="#DejaVuSans-30"/>
      </g>
     </g>
    </g>
    <g id="text_7">
     <!-- False Positive Rate -->
     <g transform="translate(189.693594 335.860562)scale(0.1 -0.1)">
      <defs>
       <path d="M 628 4666 
L 3309 4666 
L 3309 4134 
L 1259 4134 
L 1259 2759 
L 3109 2759 
L 3109 2228 
L 1259 2228 
L 1259 0 
L 628 0 
L 628 4666 
z
" id="DejaVuSans-46" transform="scale(0.015625)"/>
       <path d="M 2194 1759 
Q 1497 1759 1228 1600 
Q 959 1441 959 1056 
Q 959 750 1161 570 
Q 1363 391 1709 391 
Q 2188 391 2477 730 
Q 2766 1069 2766 1631 
L 2766 1759 
L 2194 1759 
z
M 3341 1997 
L 3341 0 
L 2766 0 
L 2766 531 
Q 2569 213 2275 61 
Q 1981 -91 1556 -91 
Q 1019 -91 701 211 
Q 384 513 384 1019 
Q 384 1609 779 1909 
Q 1175 2209 1959 2209 
L 2766 2209 
L 2766 2266 
Q 2766 2663 2505 2880 
Q 2244 3097 1772 3097 
Q 1472 3097 1187 3025 
Q 903 2953 641 2809 
L 641 3341 
Q 956 3463 1253 3523 
Q 1550 3584 1831 3584 
Q 2591 3584 2966 3190 
Q 3341 2797 3341 1997 
z
" id="DejaVuSans-61" transform="scale(0.015625)"/>
       <path d="M 603 4863 
L 1178 4863 
L 1178 0 
L 603 0 
L 603 4863 
z
" id="DejaVuSans-6c" transform="scale(0.015625)"/>
       <path d="M 2834 3397 
L 2834 2853 
Q 2591 2978 2328 3040 
Q 2066 3103 1784 3103 
Q 1356 3103 1142 2972 
Q 928 2841 928 2578 
Q 928 2378 1081 2264 
Q 1234 2150 1697 2047 
L 1894 2003 
Q 2506 1872 2764 1633 
Q 3022 1394 3022 966 
Q 3022 478 2636 193 
Q 2250 -91 1575 -91 
Q 1294 -91 989 -36 
Q 684 19 347 128 
L 347 722 
Q 666 556 975 473 
Q 1284 391 1588 391 
Q 1994 391 2212 530 
Q 2431 669 2431 922 
Q 2431 1156 2273 1281 
Q 2116 1406 1581 1522 
L 1381 1569 
Q 847 1681 609 1914 
Q 372 2147 372 2553 
Q 372 3047 722 3315 
Q 1072 3584 1716 3584 
Q 2034 3584 2315 3537 
Q 2597 3491 2834 3397 
z
" id="DejaVuSans-73" transform="scale(0.015625)"/>
       <path d="M 3597 1894 
L 3597 1613 
L 953 1613 
Q 991 1019 1311 708 
Q 1631 397 2203 397 
Q 2534 397 2845 478 
Q 3156 559 3463 722 
L 3463 178 
Q 3153 47 2828 -22 
Q 2503 -91 2169 -91 
Q 1331 -91 842 396 
Q 353 884 353 1716 
Q 353 2575 817 3079 
Q 1281 3584 2069 3584 
Q 2775 3584 3186 3129 
Q 3597 2675 3597 1894 
z
M 3022 2063 
Q 3016 2534 2758 2815 
Q 2500 3097 2075 3097 
Q 1594 3097 1305 2825 
Q 1016 2553 972 2059 
L 3022 2063 
z
" id="DejaVuSans-65" transform="scale(0.015625)"/>
       <path id="DejaVuSans-20" transform="scale(0.015625)"/>
       <path d="M 1259 4147 
L 1259 2394 
L 2053 2394 
Q 2494 2394 2734 2622 
Q 2975 2850 2975 3272 
Q 2975 3691 2734 3919 
Q 2494 4147 2053 4147 
L 1259 4147 
z
M 628 4666 
L 2053 4666 
Q 2838 4666 3239 4311 
Q 3641 3956 3641 3272 
Q 3641 2581 3239 2228 
Q 2838 1875 2053 1875 
L 1259 1875 
L 1259 0 
L 628 0 
L 628 4666 
z
" id="DejaVuSans-50" transform="scale(0.015625)"/>
       <path d="M 1959 3097 
Q 1497 3097 1228 2736 
Q 959 2375 959 1747 
Q 959 1119 1226 758 
Q 1494 397 1959 397 
Q 2419 397 2687 759 
Q 2956 1122 2956 1747 
Q 2956 2369 2687 2733 
Q 2419 3097 1959 3097 
z
M 1959 3584 
Q 2709 3584 3137 3096 
Q 3566 2609 3566 1747 
Q 3566 888 3137 398 
Q 2709 -91 1959 -91 
Q 1206 -91 779 398 
Q 353 888 353 1747 
Q 353 2609 779 3096 
Q 1206 3584 1959 3584 
z
" id="DejaVuSans-6f" transform="scale(0.015625)"/>
       <path d="M 603 3500 
L 1178 3500 
L 1178 0 
L 603 0 
L 603 3500 
z
M 603 4863 
L 1178 4863 
L 1178 4134 
L 603 4134 
L 603 4863 
z
" id="DejaVuSans-69" transform="scale(0.015625)"/>
       <path d="M 1172 4494 
L 1172 3500 
L 2356 3500 
L 2356 3053 
L 1172 3053 
L 1172 1153 
Q 1172 725 1289 603 
Q 1406 481 1766 481 
L 2356 481 
L 2356 0 
L 1766 0 
Q 1100 0 847 248 
Q 594 497 594 1153 
L 594 3053 
L 172 3053 
L 172 3500 
L 594 3500 
L 594 4494 
L 1172 4494 
z
" id="DejaVuSans-74" transform="scale(0.015625)"/>
       <path d="M 191 3500 
L 800 3500 
L 1894 563 
L 2988 3500 
L 3597 3500 
L 2284 0 
L 1503 0 
L 191 3500 
z
" id="DejaVuSans-76" transform="scale(0.015625)"/>
       <path d="M 2841 2188 
Q 3044 2119 3236 1894 
Q 3428 1669 3622 1275 
L 4263 0 
L 3584 0 
L 2988 1197 
Q 2756 1666 2539 1819 
Q 2322 1972 1947 1972 
L 1259 1972 
L 1259 0 
L 628 0 
L 628 4666 
L 2053 4666 
Q 2853 4666 3247 4331 
Q 3641 3997 3641 3322 
Q 3641 2881 3436 2590 
Q 3231 2300 2841 2188 
z
M 1259 4147 
L 1259 2491 
L 2053 2491 
Q 2509 2491 2742 2702 
Q 2975 2913 2975 3322 
Q 2975 3731 2742 3939 
Q 2509 4147 2053 4147 
L 1259 4147 
z
" id="DejaVuSans-52" transform="scale(0.015625)"/>
      </defs>
      <use xlink:href="#DejaVuSans-46"/>
      <use x="48.394531" xlink:href="#DejaVuSans-61"/>
      <use x="109.673828" xlink:href="#DejaVuSans-6c"/>
      <use x="137.457031" xlink:href="#DejaVuSans-73"/>
      <use x="189.556641" xlink:href="#DejaVuSans-65"/>
      <use x="251.080078" xlink:href="#DejaVuSans-20"/>
      <use x="282.867188" xlink:href="#DejaVuSans-50"/>
      <use x="339.544922" xlink:href="#DejaVuSans-6f"/>
      <use x="400.726562" xlink:href="#DejaVuSans-73"/>
      <use x="452.826172" xlink:href="#DejaVuSans-69"/>
      <use x="480.609375" xlink:href="#DejaVuSans-74"/>
      <use x="519.818359" xlink:href="#DejaVuSans-69"/>
      <use x="547.601562" xlink:href="#DejaVuSans-76"/>
      <use x="606.78125" xlink:href="#DejaVuSans-65"/>
      <use x="668.304688" xlink:href="#DejaVuSans-20"/>
      <use x="700.091797" xlink:href="#DejaVuSans-52"/>
      <use x="767.324219" xlink:href="#DejaVuSans-61"/>
      <use x="828.603516" xlink:href="#DejaVuSans-74"/>
      <use x="867.8125" xlink:href="#DejaVuSans-65"/>
     </g>
    </g>
   </g>
   <g id="matplotlib.axis_2">
    <g id="ytick_1">
     <g id="line2d_7">
      <defs>
       <path d="M 0 0 
L -3.5 0 
" id="m342252d031" style="stroke:#000000;stroke-width:0.8;"/>
      </defs>
      <g>
       <use style="stroke:#000000;stroke-width:0.8;" x="57.6" xlink:href="#m342252d031" y="307.584"/>
      </g>
     </g>
     <g id="text_8">
      <!-- 0.0 -->
      <g transform="translate(34.696875 311.383219)scale(0.1 -0.1)">
       <use xlink:href="#DejaVuSans-30"/>
       <use x="63.623047" xlink:href="#DejaVuSans-2e"/>
       <use x="95.410156" xlink:href="#DejaVuSans-30"/>
      </g>
     </g>
    </g>
    <g id="ytick_2">
     <g id="line2d_8">
      <g>
       <use style="stroke:#000000;stroke-width:0.8;" x="57.6" xlink:href="#m342252d031" y="256.896"/>
      </g>
     </g>
     <g id="text_9">
      <!-- 0.2 -->
      <g transform="translate(34.696875 260.695219)scale(0.1 -0.1)">
       <use xlink:href="#DejaVuSans-30"/>
       <use x="63.623047" xlink:href="#DejaVuSans-2e"/>
       <use x="95.410156" xlink:href="#DejaVuSans-32"/>
      </g>
     </g>
    </g>
    <g id="ytick_3">
     <g id="line2d_9">
      <g>
       <use style="stroke:#000000;stroke-width:0.8;" x="57.6" xlink:href="#m342252d031" y="206.208"/>
      </g>
     </g>
     <g id="text_10">
      <!-- 0.4 -->
      <g transform="translate(34.696875 210.007219)scale(0.1 -0.1)">
       <use xlink:href="#DejaVuSans-30"/>
       <use x="63.623047" xlink:href="#DejaVuSans-2e"/>
       <use x="95.410156" xlink:href="#DejaVuSans-34"/>
      </g>
     </g>
    </g>
    <g id="ytick_4">
     <g id="line2d_10">
      <g>
       <use style="stroke:#000000;stroke-width:0.8;" x="57.6" xlink:href="#m342252d031" y="155.52"/>
      </g>
     </g>
     <g id="text_11">
      <!-- 0.6 -->
      <g transform="translate(34.696875 159.319219)scale(0.1 -0.1)">
       <use xlink:href="#DejaVuSans-30"/>
       <use x="63.623047" xlink:href="#DejaVuSans-2e"/>
       <use x="95.410156" xlink:href="#DejaVuSans-36"/>
      </g>
     </g>
    </g>
    <g id="ytick_5">
     <g id="line2d_11">
      <g>
       <use style="stroke:#000000;stroke-width:0.8;" x="57.6" xlink:href="#m342252d031" y="104.832"/>
      </g>
     </g>
     <g id="text_12">
      <!-- 0.8 -->
      <g transform="translate(34.696875 108.631219)scale(0.1 -0.1)">
       <use xlink:href="#DejaVuSans-30"/>
       <use x="63.623047" xlink:href="#DejaVuSans-2e"/>
       <use x="95.410156" xlink:href="#DejaVuSans-38"/>
      </g>
     </g>
    </g>
    <g id="ytick_6">
     <g id="line2d_12">
      <g>
       <use style="stroke:#000000;stroke-width:0.8;" x="57.6" xlink:href="#m342252d031" y="54.144"/>
      </g>
     </g>
     <g id="text_13">
      <!-- 1.0 -->
      <g transform="translate(34.696875 57.943219)scale(0.1 -0.1)">
       <use xlink:href="#DejaVuSans-31"/>
       <use x="63.623047" xlink:href="#DejaVuSans-2e"/>
       <use x="95.410156" xlink:href="#DejaVuSans-30"/>
      </g>
     </g>
    </g>
    <g id="text_14">
     <!-- True Positive Rate -->
     <g transform="translate(28.617187 219.057687)rotate(-90)scale(0.1 -0.1)">
      <defs>
       <path d="M -19 4666 
L 3928 4666 
L 3928 4134 
L 2272 4134 
L 2272 0 
L 1638 0 
L 1638 4134 
L -19 4134 
L -19 4666 
z
" id="DejaVuSans-54" transform="scale(0.015625)"/>
       <path d="M 2631 2963 
Q 2534 3019 2420 3045 
Q 2306 3072 2169 3072 
Q 1681 3072 1420 2755 
Q 1159 2438 1159 1844 
L 1159 0 
L 581 0 
L 581 3500 
L 1159 3500 
L 1159 2956 
Q 1341 3275 1631 3429 
Q 1922 3584 2338 3584 
Q 2397 3584 2469 3576 
Q 2541 3569 2628 3553 
L 2631 2963 
z
" id="DejaVuSans-72" transform="scale(0.015625)"/>
       <path d="M 544 1381 
L 544 3500 
L 1119 3500 
L 1119 1403 
Q 1119 906 1312 657 
Q 1506 409 1894 409 
Q 2359 409 2629 706 
Q 2900 1003 2900 1516 
L 2900 3500 
L 3475 3500 
L 3475 0 
L 2900 0 
L 2900 538 
Q 2691 219 2414 64 
Q 2138 -91 1772 -91 
Q 1169 -91 856 284 
Q 544 659 544 1381 
z
M 1991 3584 
L 1991 3584 
z
" id="DejaVuSans-75" transform="scale(0.015625)"/>
      </defs>
      <use xlink:href="#DejaVuSans-54"/>
      <use x="46.333984" xlink:href="#DejaVuSans-72"/>
      <use x="87.447266" xlink:href="#DejaVuSans-75"/>
      <use x="150.826172" xlink:href="#DejaVuSans-65"/>
      <use x="212.349609" xlink:href="#DejaVuSans-20"/>
      <use x="244.136719" xlink:href="#DejaVuSans-50"/>
      <use x="300.814453" xlink:href="#DejaVuSans-6f"/>
      <use x="361.996094" xlink:href="#DejaVuSans-73"/>
      <use x="414.095703" xlink:href="#DejaVuSans-69"/>
      <use x="441.878906" xlink:href="#DejaVuSans-74"/>
      <use x="481.087891" xlink:href="#DejaVuSans-69"/>
      <use x="508.871094" xlink:href="#DejaVuSans-76"/>
      <use x="568.050781" xlink:href="#DejaVuSans-65"/>
      <use x="629.574219" xlink:href="#DejaVuSans-20"/>
      <use x="661.361328" xlink:href="#DejaVuSans-52"/>
      <use x="728.59375" xlink:href="#DejaVuSans-61"/>
      <use x="789.873047" xlink:href="#DejaVuSans-74"/>
      <use x="829.082031" xlink:href="#DejaVuSans-65"/>
     </g>
    </g>
   </g>
   <g id="line2d_13">
    <path clip-path="url(#pf4574d80e5)" d="M 57.6 307.584 
L 57.6 224.999649 
L 57.758228 224.999649 
L 57.758228 129.969951 
L 57.916455 129.969951 
L 57.916455 121.398322 
L 58.074683 121.398322 
L 58.074683 112.249756 
L 58.232911 112.249756 
L 58.232911 108.623298 
L 58.391139 108.623298 
L 58.391139 101.782478 
L 58.549366 101.782478 
L 58.549366 98.732956 
L 58.707594 98.732956 
L 58.707594 95.353756 
L 58.865822 95.353756 
L 58.865822 89.172293 
L 59.02405 89.172293 
L 59.02405 88.348098 
L 59.182277 88.348098 
L 59.182277 83.567766 
L 59.340505 83.567766 
L 59.340505 80.023727 
L 59.498733 80.023727 
L 59.498733 79.52921 
L 59.656961 79.52921 
L 59.656961 78.457756 
L 59.815188 78.457756 
L 59.815188 76.232429 
L 59.973416 76.232429 
L 59.973416 73.100488 
L 60.289872 73.018068 
L 60.289872 72.276293 
L 60.448099 72.276293 
L 60.448099 71.946615 
L 60.606327 71.946615 
L 60.606327 70.298224 
L 60.764555 70.298224 
L 60.764555 69.968546 
L 60.922782 69.968546 
L 60.922782 69.638868 
L 61.08101 69.638868 
L 61.08101 68.649834 
L 61.239238 68.649834 
L 61.239238 68.320156 
L 61.397466 68.320156 
L 61.397466 67.990478 
L 61.713921 67.990478 
L 61.713921 67.825639 
L 61.872149 67.825639 
L 61.872149 67.248702 
L 62.030377 67.248702 
L 62.030377 66.259668 
L 62.346832 66.177249 
L 62.346832 65.682732 
L 62.50506 65.682732 
L 62.50506 65.435473 
L 62.821515 65.353054 
L 62.821515 65.188215 
L 62.979743 65.188215 
L 62.979743 64.858537 
L 63.929109 64.776117 
L 63.929109 64.2816 
L 64.245565 64.2816 
L 64.245565 64.034341 
L 64.403793 64.034341 
L 64.403793 63.539824 
L 64.720248 63.539824 
L 64.720248 63.374985 
L 64.878476 63.374985 
L 64.878476 63.045307 
L 65.036704 63.045307 
L 65.036704 62.468371 
L 65.194931 62.468371 
L 65.194931 62.303532 
L 65.353159 62.303532 
L 65.353159 61.973854 
L 65.669615 61.973854 
L 65.669615 61.726595 
L 65.827842 61.726595 
L 65.827842 61.314498 
L 65.98607 61.314498 
L 65.98607 61.149659 
L 66.460753 61.149659 
L 66.460753 60.98482 
L 66.935436 60.98482 
L 66.935436 60.81998 
L 67.41012 60.81998 
L 67.41012 60.655141 
L 67.726575 60.572722 
L 67.726575 60.490302 
L 68.043031 60.407883 
L 68.043031 60.243044 
L 68.675942 60.160624 
L 68.675942 59.913366 
L 69.150625 59.913366 
L 69.150625 59.666107 
L 69.308852 59.666107 
L 69.308852 59.336429 
L 69.46708 59.336429 
L 69.46708 59.006751 
L 70.258219 58.924332 
L 70.258219 58.759493 
L 71.049358 58.677073 
L 71.049358 58.347395 
L 71.998724 58.264976 
L 71.998724 58.017717 
L 72.473407 58.017717 
L 72.473407 57.852878 
L 73.739229 57.770459 
L 73.739229 57.688039 
L 73.897457 57.688039 
L 73.897457 57.5232 
L 74.213912 57.44078 
L 74.213912 57.358361 
L 75.479734 57.275941 
L 75.479734 57.193522 
L 75.954417 57.111102 
L 75.954417 57.028683 
L 76.745556 56.946263 
L 76.745556 56.863844 
L 77.062012 56.781424 
L 77.062012 56.699005 
L 78.169606 56.699005 
L 78.169606 56.534166 
L 78.802517 56.451746 
L 78.802517 56.369327 
L 80.226566 56.286907 
L 80.226566 56.122068 
L 80.701249 56.039649 
L 80.701249 55.957229 
L 82.283527 55.957229 
L 82.283527 55.79239 
L 84.973398 55.709971 
L 84.973398 55.545132 
L 85.606309 55.545132 
L 85.606309 55.380293 
L 89.087319 55.297873 
L 89.087319 55.215454 
L 96.524023 55.133034 
L 96.524023 55.050615 
L 100.005033 54.968195 
L 100.005033 54.885776 
L 122.315144 54.803356 
L 122.315144 54.720937 
L 128.960709 54.638517 
L 128.960709 54.556098 
L 154.277147 54.473678 
L 154.277147 54.391259 
L 188.770793 54.308839 
L 188.770793 54.22642 
L 414.72 54.144 
L 414.72 54.144 
" style="fill:none;stroke:#e75a1b;stroke-linecap:square;stroke-width:2;"/>
   </g>
   <g id="line2d_14">
    <path clip-path="url(#pf4574d80e5)" d="M 57.6 307.584 
L 57.6 153.858098 
L 57.716137 153.858098 
L 57.716137 147.23295 
L 57.832273 147.23295 
L 57.832273 125.897726 
L 57.94841 125.897726 
L 57.94841 122.753588 
L 58.064546 122.753588 
L 58.064546 106.022281 
L 58.180683 106.022281 
L 58.180683 104.787084 
L 58.29682 104.787084 
L 58.29682 101.979817 
L 58.412956 101.979817 
L 58.412956 100.070876 
L 58.529093 100.070876 
L 58.529093 93.108856 
L 58.645229 93.108856 
L 58.645229 84.237895 
L 58.761366 84.237895 
L 58.761366 81.879791 
L 58.877502 81.879791 
L 58.877502 81.7675 
L 58.993639 81.7675 
L 58.993639 79.97085 
L 59.109776 79.97085 
L 59.109776 76.48984 
L 59.225912 76.48984 
L 59.225912 74.468608 
L 59.342049 74.468608 
L 59.342049 74.019445 
L 59.574322 74.019445 
L 59.574322 73.570283 
L 59.806595 73.570283 
L 59.806595 71.773632 
L 59.922732 71.773632 
L 59.922732 71.661342 
L 60.155005 71.661342 
L 60.155005 70.538435 
L 60.271141 70.538435 
L 60.271141 70.313854 
L 60.387278 70.313854 
L 60.387278 70.201563 
L 60.619551 70.201563 
L 60.619551 69.752401 
L 60.735688 69.752401 
L 60.735688 69.190947 
L 60.851824 69.190947 
L 60.851824 68.966366 
L 60.967961 68.966366 
L 60.967961 68.741785 
L 61.200234 68.741785 
L 61.200234 67.95575 
L 61.316371 67.95575 
L 61.316371 67.843459 
L 61.432507 67.843459 
L 61.432507 67.731169 
L 61.548644 67.731169 
L 61.548644 67.282006 
L 61.66478 67.282006 
L 61.66478 67.169716 
L 61.780917 67.169716 
L 61.780917 67.057425 
L 61.897054 67.057425 
L 61.897054 66.832844 
L 62.01319 66.832844 
L 62.01319 66.27139 
L 62.129327 66.27139 
L 62.129327 65.934518 
L 62.245463 65.934518 
L 62.245463 65.822228 
L 62.3616 65.822228 
L 62.3616 65.709937 
L 62.593873 65.709937 
L 62.593873 65.597646 
L 62.71001 65.597646 
L 62.71001 64.811612 
L 62.826146 64.811612 
L 62.826146 64.699321 
L 63.05842 64.699321 
L 63.05842 64.362449 
L 63.406829 64.362449 
L 63.406829 63.913287 
L 63.522966 63.913287 
L 63.522966 63.688705 
L 63.987512 63.688705 
L 63.987512 63.464124 
L 64.103649 63.464124 
L 64.103649 63.127252 
L 64.335922 63.127252 
L 64.335922 62.678089 
L 64.452059 62.678089 
L 64.452059 62.565799 
L 64.916605 62.565799 
L 64.916605 62.453508 
L 65.381151 62.453508 
L 65.381151 62.341218 
L 65.729561 62.341218 
L 65.729561 62.004346 
L 66.077971 62.004346 
L 66.077971 61.667474 
L 66.194107 61.667474 
L 66.194107 61.555183 
L 66.42638 61.555183 
L 66.42638 61.442892 
L 66.542517 61.442892 
L 66.542517 61.330602 
L 66.658654 61.330602 
L 66.658654 61.218311 
L 66.77479 61.218311 
L 66.77479 61.10602 
L 67.007063 61.10602 
L 67.007063 60.769148 
L 67.239337 60.769148 
L 67.239337 60.432276 
L 67.47161 60.432276 
L 67.47161 60.095405 
L 67.703883 60.095405 
L 67.703883 59.983114 
L 68.284566 59.983114 
L 68.284566 59.870823 
L 68.632976 59.870823 
L 68.632976 59.646242 
L 69.097522 59.646242 
L 69.097522 59.533951 
L 69.329795 59.533951 
L 69.329795 59.421661 
L 70.142751 59.421661 
L 70.142751 59.30937 
L 70.607298 59.30937 
L 70.607298 59.197079 
L 70.839571 59.197079 
L 70.839571 58.972498 
L 71.53639 58.972498 
L 71.53639 58.860207 
L 71.8848 58.860207 
L 71.8848 58.635626 
L 72.58162 58.635626 
L 72.58162 58.411045 
L 72.697756 58.411045 
L 72.697756 57.961882 
L 73.162302 57.961882 
L 73.162302 57.849591 
L 73.394576 57.849591 
L 73.394576 57.737301 
L 73.510712 57.737301 
L 73.510712 57.62501 
L 73.859122 57.62501 
L 73.859122 57.51272 
L 74.555941 57.51272 
L 74.555941 57.400429 
L 74.672078 57.400429 
L 74.672078 57.288138 
L 76.065717 57.288138 
L 76.065717 57.175848 
L 76.878673 57.175848 
L 76.878673 57.063557 
L 77.110946 57.063557 
L 77.110946 56.838976 
L 77.575493 56.838976 
L 77.575493 56.726685 
L 78.040039 56.726685 
L 78.040039 56.614394 
L 79.433678 56.614394 
L 79.433678 56.502104 
L 79.898224 56.502104 
L 79.898224 56.389813 
L 80.362771 56.389813 
L 80.362771 56.277522 
L 82.685502 56.277522 
L 82.685502 56.165232 
L 83.150049 56.165232 
L 83.150049 56.052941 
L 84.195278 56.052941 
L 84.195278 55.94065 
L 84.311415 55.94065 
L 84.311415 55.82836 
L 88.724605 55.82836 
L 88.724605 55.716069 
L 91.860293 55.716069 
L 91.860293 55.603778 
L 93.370068 55.603778 
L 93.370068 55.491488 
L 94.066888 55.491488 
L 94.066888 55.379197 
L 99.060761 55.379197 
L 99.060761 55.266907 
L 105.796683 55.266907 
L 105.796683 55.154616 
L 106.958049 55.154616 
L 106.958049 55.042325 
L 115.668293 55.042325 
L 115.668293 54.930035 
L 120.429893 54.930035 
L 120.429893 54.817744 
L 124.726946 54.817744 
L 124.726946 54.705453 
L 134.366283 54.705453 
L 134.366283 54.593163 
L 139.476293 54.593163 
L 139.476293 54.480872 
L 152.367454 54.480872 
L 152.367454 54.368581 
L 164.445659 54.368581 
L 164.445659 54.256291 
L 298.351141 54.256291 
L 298.351141 54.144 
L 414.72 54.144 
L 414.72 54.144 
" style="fill:none;stroke:#06b39e;stroke-linecap:square;stroke-width:2;"/>
   </g>
   <g id="line2d_15">
    <path clip-path="url(#pf4574d80e5)" d="M 57.6 307.584 
L 414.72 54.144 
" style="fill:none;stroke:#000000;stroke-dasharray:7.4,3.2;stroke-dashoffset:0;stroke-width:2;"/>
   </g>
   <g id="patch_3">
    <path d="M 57.6 307.584 
L 57.6 41.472 
" style="fill:none;stroke:#000000;stroke-linecap:square;stroke-linejoin:miter;stroke-width:0.8;"/>
   </g>
   <g id="patch_4">
    <path d="M 414.72 307.584 
L 414.72 41.472 
" style="fill:none;stroke:#000000;stroke-linecap:square;stroke-linejoin:miter;stroke-width:0.8;"/>
   </g>
   <g id="patch_5">
    <path d="M 57.6 307.584 
L 414.72 307.584 
" style="fill:none;stroke:#000000;stroke-linecap:square;stroke-linejoin:miter;stroke-width:0.8;"/>
   </g>
   <g id="patch_6">
    <path d="M 57.6 41.472 
L 414.72 41.472 
" style="fill:none;stroke:#000000;stroke-linecap:square;stroke-linejoin:miter;stroke-width:0.8;"/>
   </g>
   <g id="text_15">
    <!-- Class ROC Curves -->
    <g transform="translate(182.652187 35.472)scale(0.12 -0.12)">
     <defs>
      <path d="M 4122 4306 
L 4122 3641 
Q 3803 3938 3442 4084 
Q 3081 4231 2675 4231 
Q 1875 4231 1450 3742 
Q 1025 3253 1025 2328 
Q 1025 1406 1450 917 
Q 1875 428 2675 428 
Q 3081 428 3442 575 
Q 3803 722 4122 1019 
L 4122 359 
Q 3791 134 3420 21 
Q 3050 -91 2638 -91 
Q 1578 -91 968 557 
Q 359 1206 359 2328 
Q 359 3453 968 4101 
Q 1578 4750 2638 4750 
Q 3056 4750 3426 4639 
Q 3797 4528 4122 4306 
z
" id="DejaVuSans-43" transform="scale(0.015625)"/>
      <path d="M 2522 4238 
Q 1834 4238 1429 3725 
Q 1025 3213 1025 2328 
Q 1025 1447 1429 934 
Q 1834 422 2522 422 
Q 3209 422 3611 934 
Q 4013 1447 4013 2328 
Q 4013 3213 3611 3725 
Q 3209 4238 2522 4238 
z
M 2522 4750 
Q 3503 4750 4090 4092 
Q 4678 3434 4678 2328 
Q 4678 1225 4090 567 
Q 3503 -91 2522 -91 
Q 1538 -91 948 565 
Q 359 1222 359 2328 
Q 359 3434 948 4092 
Q 1538 4750 2522 4750 
z
" id="DejaVuSans-4f" transform="scale(0.015625)"/>
     </defs>
     <use xlink:href="#DejaVuSans-43"/>
     <use x="69.824219" xlink:href="#DejaVuSans-6c"/>
     <use x="97.607422" xlink:href="#DejaVuSans-61"/>
     <use x="158.886719" xlink:href="#DejaVuSans-73"/>
     <use x="210.986328" xlink:href="#DejaVuSans-73"/>
     <use x="263.085938" xlink:href="#DejaVuSans-20"/>
     <use x="294.873047" xlink:href="#DejaVuSans-52"/>
     <use x="364.355469" xlink:href="#DejaVuSans-4f"/>
     <use x="443.066406" xlink:href="#DejaVuSans-43"/>
     <use x="512.890625" xlink:href="#DejaVuSans-20"/>
     <use x="544.677734" xlink:href="#DejaVuSans-43"/>
     <use x="614.501953" xlink:href="#DejaVuSans-75"/>
     <use x="677.880859" xlink:href="#DejaVuSans-72"/>
     <use x="718.994141" xlink:href="#DejaVuSans-76"/>
     <use x="778.173828" xlink:href="#DejaVuSans-65"/>
     <use x="839.697266" xlink:href="#DejaVuSans-73"/>
    </g>
   </g>
   <g id="legend_1">
    <g id="patch_7">
     <path d="M 215.40125 302.584 
L 407.72 302.584 
Q 409.72 302.584 409.72 300.584 
L 409.72 272.22775 
Q 409.72 270.22775 407.72 270.22775 
L 215.40125 270.22775 
Q 213.40125 270.22775 213.40125 272.22775 
L 213.40125 300.584 
Q 213.40125 302.584 215.40125 302.584 
z
" style="fill:#ffffff;opacity:0.8;stroke:#cccccc;stroke-linejoin:miter;"/>
    </g>
    <g id="line2d_16">
     <path d="M 217.40125 278.326187 
L 237.40125 278.326187 
" style="fill:none;stroke:#e75a1b;stroke-linecap:square;stroke-width:2;"/>
    </g>
    <g id="line2d_17"/>
    <g id="text_16">
     <!-- ROC curve of CD4 (area = 1.00) -->
     <g transform="translate(245.40125 281.826187)scale(0.1 -0.1)">
      <defs>
       <path d="M 3122 3366 
L 3122 2828 
Q 2878 2963 2633 3030 
Q 2388 3097 2138 3097 
Q 1578 3097 1268 2742 
Q 959 2388 959 1747 
Q 959 1106 1268 751 
Q 1578 397 2138 397 
Q 2388 397 2633 464 
Q 2878 531 3122 666 
L 3122 134 
Q 2881 22 2623 -34 
Q 2366 -91 2075 -91 
Q 1284 -91 818 406 
Q 353 903 353 1747 
Q 353 2603 823 3093 
Q 1294 3584 2113 3584 
Q 2378 3584 2631 3529 
Q 2884 3475 3122 3366 
z
" id="DejaVuSans-63" transform="scale(0.015625)"/>
       <path d="M 2375 4863 
L 2375 4384 
L 1825 4384 
Q 1516 4384 1395 4259 
Q 1275 4134 1275 3809 
L 1275 3500 
L 2222 3500 
L 2222 3053 
L 1275 3053 
L 1275 0 
L 697 0 
L 697 3053 
L 147 3053 
L 147 3500 
L 697 3500 
L 697 3744 
Q 697 4328 969 4595 
Q 1241 4863 1831 4863 
L 2375 4863 
z
" id="DejaVuSans-66" transform="scale(0.015625)"/>
       <path d="M 1259 4147 
L 1259 519 
L 2022 519 
Q 2988 519 3436 956 
Q 3884 1394 3884 2338 
Q 3884 3275 3436 3711 
Q 2988 4147 2022 4147 
L 1259 4147 
z
M 628 4666 
L 1925 4666 
Q 3281 4666 3915 4102 
Q 4550 3538 4550 2338 
Q 4550 1131 3912 565 
Q 3275 0 1925 0 
L 628 0 
L 628 4666 
z
" id="DejaVuSans-44" transform="scale(0.015625)"/>
       <path d="M 1984 4856 
Q 1566 4138 1362 3434 
Q 1159 2731 1159 2009 
Q 1159 1288 1364 580 
Q 1569 -128 1984 -844 
L 1484 -844 
Q 1016 -109 783 600 
Q 550 1309 550 2009 
Q 550 2706 781 3412 
Q 1013 4119 1484 4856 
L 1984 4856 
z
" id="DejaVuSans-28" transform="scale(0.015625)"/>
       <path d="M 678 2906 
L 4684 2906 
L 4684 2381 
L 678 2381 
L 678 2906 
z
M 678 1631 
L 4684 1631 
L 4684 1100 
L 678 1100 
L 678 1631 
z
" id="DejaVuSans-3d" transform="scale(0.015625)"/>
       <path d="M 513 4856 
L 1013 4856 
Q 1481 4119 1714 3412 
Q 1947 2706 1947 2009 
Q 1947 1309 1714 600 
Q 1481 -109 1013 -844 
L 513 -844 
Q 928 -128 1133 580 
Q 1338 1288 1338 2009 
Q 1338 2731 1133 3434 
Q 928 4138 513 4856 
z
" id="DejaVuSans-29" transform="scale(0.015625)"/>
      </defs>
      <use xlink:href="#DejaVuSans-52"/>
      <use x="69.482422" xlink:href="#DejaVuSans-4f"/>
      <use x="148.193359" xlink:href="#DejaVuSans-43"/>
      <use x="218.017578" xlink:href="#DejaVuSans-20"/>
      <use x="249.804688" xlink:href="#DejaVuSans-63"/>
      <use x="304.785156" xlink:href="#DejaVuSans-75"/>
      <use x="368.164062" xlink:href="#DejaVuSans-72"/>
      <use x="409.277344" xlink:href="#DejaVuSans-76"/>
      <use x="468.457031" xlink:href="#DejaVuSans-65"/>
      <use x="529.980469" xlink:href="#DejaVuSans-20"/>
      <use x="561.767578" xlink:href="#DejaVuSans-6f"/>
      <use x="622.949219" xlink:href="#DejaVuSans-66"/>
      <use x="658.154297" xlink:href="#DejaVuSans-20"/>
      <use x="689.941406" xlink:href="#DejaVuSans-43"/>
      <use x="759.765625" xlink:href="#DejaVuSans-44"/>
      <use x="836.767578" xlink:href="#DejaVuSans-34"/>
      <use x="900.390625" xlink:href="#DejaVuSans-20"/>
      <use x="932.177734" xlink:href="#DejaVuSans-28"/>
      <use x="971.191406" xlink:href="#DejaVuSans-61"/>
      <use x="1032.470703" xlink:href="#DejaVuSans-72"/>
      <use x="1071.333984" xlink:href="#DejaVuSans-65"/>
      <use x="1132.857422" xlink:href="#DejaVuSans-61"/>
      <use x="1194.136719" xlink:href="#DejaVuSans-20"/>
      <use x="1225.923828" xlink:href="#DejaVuSans-3d"/>
      <use x="1309.712891" xlink:href="#DejaVuSans-20"/>
      <use x="1341.5" xlink:href="#DejaVuSans-31"/>
      <use x="1405.123047" xlink:href="#DejaVuSans-2e"/>
      <use x="1436.910156" xlink:href="#DejaVuSans-30"/>
      <use x="1500.533203" xlink:href="#DejaVuSans-30"/>
      <use x="1564.15625" xlink:href="#DejaVuSans-29"/>
     </g>
    </g>
    <g id="line2d_18">
     <path d="M 217.40125 293.004312 
L 237.40125 293.004312 
" style="fill:none;stroke:#06b39e;stroke-linecap:square;stroke-width:2;"/>
    </g>
    <g id="line2d_19"/>
    <g id="text_17">
     <!-- ROC curve of CD8 (area = 1.00) -->
     <g transform="translate(245.40125 296.504312)scale(0.1 -0.1)">
      <use xlink:href="#DejaVuSans-52"/>
      <use x="69.482422" xlink:href="#DejaVuSans-4f"/>
      <use x="148.193359" xlink:href="#DejaVuSans-43"/>
      <use x="218.017578" xlink:href="#DejaVuSans-20"/>
      <use x="249.804688" xlink:href="#DejaVuSans-63"/>
      <use x="304.785156" xlink:href="#DejaVuSans-75"/>
      <use x="368.164062" xlink:href="#DejaVuSans-72"/>
      <use x="409.277344" xlink:href="#DejaVuSans-76"/>
      <use x="468.457031" xlink:href="#DejaVuSans-65"/>
      <use x="529.980469" xlink:href="#DejaVuSans-20"/>
      <use x="561.767578" xlink:href="#DejaVuSans-6f"/>
      <use x="622.949219" xlink:href="#DejaVuSans-66"/>
      <use x="658.154297" xlink:href="#DejaVuSans-20"/>
      <use x="689.941406" xlink:href="#DejaVuSans-43"/>
      <use x="759.765625" xlink:href="#DejaVuSans-44"/>
      <use x="836.767578" xlink:href="#DejaVuSans-38"/>
      <use x="900.390625" xlink:href="#DejaVuSans-20"/>
      <use x="932.177734" xlink:href="#DejaVuSans-28"/>
      <use x="971.191406" xlink:href="#DejaVuSans-61"/>
      <use x="1032.470703" xlink:href="#DejaVuSans-72"/>
      <use x="1071.333984" xlink:href="#DejaVuSans-65"/>
      <use x="1132.857422" xlink:href="#DejaVuSans-61"/>
      <use x="1194.136719" xlink:href="#DejaVuSans-20"/>
      <use x="1225.923828" xlink:href="#DejaVuSans-3d"/>
      <use x="1309.712891" xlink:href="#DejaVuSans-20"/>
      <use x="1341.5" xlink:href="#DejaVuSans-31"/>
      <use x="1405.123047" xlink:href="#DejaVuSans-2e"/>
      <use x="1436.910156" xlink:href="#DejaVuSans-30"/>
      <use x="1500.533203" xlink:href="#DejaVuSans-30"/>
      <use x="1564.15625" xlink:href="#DejaVuSans-29"/>
     </g>
    </g>
   </g>
  </g>
 </g>
 <defs>
  <clipPath id="pf4574d80e5">
   <rect height="266.112" width="357.12" x="57.6" y="41.472"/>
  </clipPath>
 </defs>
</svg>
