<?xml version="1.0" encoding="utf-8" standalone="no"?>
<!DOCTYPE svg PUBLIC "-//W3C//DTD SVG 1.1//EN"
  "http://www.w3.org/Graphics/SVG/1.1/DTD/svg11.dtd">
<svg height="345.6pt" version="1.1" viewBox="0 0 460.8 345.6" width="460.8pt" xmlns="http://www.w3.org/2000/svg" xmlns:xlink="http://www.w3.org/1999/xlink">
 <metadata>
  <rdf:RDF xmlns:cc="http://creativecommons.org/ns#" xmlns:dc="http://purl.org/dc/elements/1.1/" xmlns:rdf="http://www.w3.org/1999/02/22-rdf-syntax-ns#">
   <cc:Work>
    <dc:type rdf:resource="http://purl.org/dc/dcmitype/StillImage"/>
    <dc:date>2021-08-12T10:09:54.715492</dc:date>
    <dc:format>image/svg+xml</dc:format>
    <dc:creator>
     <cc:Agent>
      <dc:title>Matplotlib v3.4.2, https://matplotlib.org/</dc:title>
     </cc:Agent>
    </dc:creator>
   </cc:Work>
  </rdf:RDF>
 </metadata>
 <defs>
  <style type="text/css">*{stroke-linecap:butt;stroke-linejoin:round;}</style>
 </defs>
 <g id="figure_1">
  <g id="patch_1">
   <path d="M 0 345.6 
L 460.8 345.6 
L 460.8 0 
L 0 0 
z
" style="fill:#ffffff;"/>
  </g>
  <g id="axes_1">
   <g id="patch_2">
    <path d="M 57.6 307.584 
L 414.72 307.584 
L 414.72 41.472 
L 57.6 41.472 
z
" style="fill:#ffffff;"/>
   </g>
   <g id="matplotlib.axis_1">
    <g id="xtick_1">
     <g id="line2d_1">
      <defs>
       <path d="M 0 0 
L 0 3.5 
" id="m331dadfd8e" style="stroke:#000000;stroke-width:0.8;"/>
      </defs>
      <g>
       <use style="stroke:#000000;stroke-width:0.8;" x="57.6" xlink:href="#m331dadfd8e" y="307.584"/>
      </g>
     </g>
     <g id="text_1">
      <!-- 0.0 -->
      <g transform="translate(49.648438 322.182437)scale(0.1 -0.1)">
       <defs>
        <path d="M 2034 4250 
Q 1547 4250 1301 3770 
Q 1056 3291 1056 2328 
Q 1056 1369 1301 889 
Q 1547 409 2034 409 
Q 2525 409 2770 889 
Q 3016 1369 3016 2328 
Q 3016 3291 2770 3770 
Q 2525 4250 2034 4250 
z
M 2034 4750 
Q 2819 4750 3233 4129 
Q 3647 3509 3647 2328 
Q 3647 1150 3233 529 
Q 2819 -91 2034 -91 
Q 1250 -91 836 529 
Q 422 1150 422 2328 
Q 422 3509 836 4129 
Q 1250 4750 2034 4750 
z
" id="DejaVuSans-30" transform="scale(0.015625)"/>
        <path d="M 684 794 
L 1344 794 
L 1344 0 
L 684 0 
L 684 794 
z
" id="DejaVuSans-2e" transform="scale(0.015625)"/>
       </defs>
       <use xlink:href="#DejaVuSans-30"/>
       <use x="63.623047" xlink:href="#DejaVuSans-2e"/>
       <use x="95.410156" xlink:href="#DejaVuSans-30"/>
      </g>
     </g>
    </g>
    <g id="xtick_2">
     <g id="line2d_2">
      <g>
       <use style="stroke:#000000;stroke-width:0.8;" x="129.024" xlink:href="#m331dadfd8e" y="307.584"/>
      </g>
     </g>
     <g id="text_2">
      <!-- 0.2 -->
      <g transform="translate(121.072438 322.182437)scale(0.1 -0.1)">
       <defs>
        <path d="M 1228 531 
L 3431 531 
L 3431 0 
L 469 0 
L 469 531 
Q 828 903 1448 1529 
Q 2069 2156 2228 2338 
Q 2531 2678 2651 2914 
Q 2772 3150 2772 3378 
Q 2772 3750 2511 3984 
Q 2250 4219 1831 4219 
Q 1534 4219 1204 4116 
Q 875 4013 500 3803 
L 500 4441 
Q 881 4594 1212 4672 
Q 1544 4750 1819 4750 
Q 2544 4750 2975 4387 
Q 3406 4025 3406 3419 
Q 3406 3131 3298 2873 
Q 3191 2616 2906 2266 
Q 2828 2175 2409 1742 
Q 1991 1309 1228 531 
z
" id="DejaVuSans-32" transform="scale(0.015625)"/>
       </defs>
       <use xlink:href="#DejaVuSans-30"/>
       <use x="63.623047" xlink:href="#DejaVuSans-2e"/>
       <use x="95.410156" xlink:href="#DejaVuSans-32"/>
      </g>
     </g>
    </g>
    <g id="xtick_3">
     <g id="line2d_3">
      <g>
       <use style="stroke:#000000;stroke-width:0.8;" x="200.448" xlink:href="#m331dadfd8e" y="307.584"/>
      </g>
     </g>
     <g id="text_3">
      <!-- 0.4 -->
      <g transform="translate(192.496438 322.182437)scale(0.1 -0.1)">
       <defs>
        <path d="M 2419 4116 
L 825 1625 
L 2419 1625 
L 2419 4116 
z
M 2253 4666 
L 3047 4666 
L 3047 1625 
L 3713 1625 
L 3713 1100 
L 3047 1100 
L 3047 0 
L 2419 0 
L 2419 1100 
L 313 1100 
L 313 1709 
L 2253 4666 
z
" id="DejaVuSans-34" transform="scale(0.015625)"/>
       </defs>
       <use xlink:href="#DejaVuSans-30"/>
       <use x="63.623047" xlink:href="#DejaVuSans-2e"/>
       <use x="95.410156" xlink:href="#DejaVuSans-34"/>
      </g>
     </g>
    </g>
    <g id="xtick_4">
     <g id="line2d_4">
      <g>
       <use style="stroke:#000000;stroke-width:0.8;" x="271.872" xlink:href="#m331dadfd8e" y="307.584"/>
      </g>
     </g>
     <g id="text_4">
      <!-- 0.6 -->
      <g transform="translate(263.920438 322.182437)scale(0.1 -0.1)">
       <defs>
        <path d="M 2113 2584 
Q 1688 2584 1439 2293 
Q 1191 2003 1191 1497 
Q 1191 994 1439 701 
Q 1688 409 2113 409 
Q 2538 409 2786 701 
Q 3034 994 3034 1497 
Q 3034 2003 2786 2293 
Q 2538 2584 2113 2584 
z
M 3366 4563 
L 3366 3988 
Q 3128 4100 2886 4159 
Q 2644 4219 2406 4219 
Q 1781 4219 1451 3797 
Q 1122 3375 1075 2522 
Q 1259 2794 1537 2939 
Q 1816 3084 2150 3084 
Q 2853 3084 3261 2657 
Q 3669 2231 3669 1497 
Q 3669 778 3244 343 
Q 2819 -91 2113 -91 
Q 1303 -91 875 529 
Q 447 1150 447 2328 
Q 447 3434 972 4092 
Q 1497 4750 2381 4750 
Q 2619 4750 2861 4703 
Q 3103 4656 3366 4563 
z
" id="DejaVuSans-36" transform="scale(0.015625)"/>
       </defs>
       <use xlink:href="#DejaVuSans-30"/>
       <use x="63.623047" xlink:href="#DejaVuSans-2e"/>
       <use x="95.410156" xlink:href="#DejaVuSans-36"/>
      </g>
     </g>
    </g>
    <g id="xtick_5">
     <g id="line2d_5">
      <g>
       <use style="stroke:#000000;stroke-width:0.8;" x="343.296" xlink:href="#m331dadfd8e" y="307.584"/>
      </g>
     </g>
     <g id="text_5">
      <!-- 0.8 -->
      <g transform="translate(335.344438 322.182437)scale(0.1 -0.1)">
       <defs>
        <path d="M 2034 2216 
Q 1584 2216 1326 1975 
Q 1069 1734 1069 1313 
Q 1069 891 1326 650 
Q 1584 409 2034 409 
Q 2484 409 2743 651 
Q 3003 894 3003 1313 
Q 3003 1734 2745 1975 
Q 2488 2216 2034 2216 
z
M 1403 2484 
Q 997 2584 770 2862 
Q 544 3141 544 3541 
Q 544 4100 942 4425 
Q 1341 4750 2034 4750 
Q 2731 4750 3128 4425 
Q 3525 4100 3525 3541 
Q 3525 3141 3298 2862 
Q 3072 2584 2669 2484 
Q 3125 2378 3379 2068 
Q 3634 1759 3634 1313 
Q 3634 634 3220 271 
Q 2806 -91 2034 -91 
Q 1263 -91 848 271 
Q 434 634 434 1313 
Q 434 1759 690 2068 
Q 947 2378 1403 2484 
z
M 1172 3481 
Q 1172 3119 1398 2916 
Q 1625 2713 2034 2713 
Q 2441 2713 2670 2916 
Q 2900 3119 2900 3481 
Q 2900 3844 2670 4047 
Q 2441 4250 2034 4250 
Q 1625 4250 1398 4047 
Q 1172 3844 1172 3481 
z
" id="DejaVuSans-38" transform="scale(0.015625)"/>
       </defs>
       <use xlink:href="#DejaVuSans-30"/>
       <use x="63.623047" xlink:href="#DejaVuSans-2e"/>
       <use x="95.410156" xlink:href="#DejaVuSans-38"/>
      </g>
     </g>
    </g>
    <g id="xtick_6">
     <g id="line2d_6">
      <g>
       <use style="stroke:#000000;stroke-width:0.8;" x="414.72" xlink:href="#m331dadfd8e" y="307.584"/>
      </g>
     </g>
     <g id="text_6">
      <!-- 1.0 -->
      <g transform="translate(406.768438 322.182437)scale(0.1 -0.1)">
       <defs>
        <path d="M 794 531 
L 1825 531 
L 1825 4091 
L 703 3866 
L 703 4441 
L 1819 4666 
L 2450 4666 
L 2450 531 
L 3481 531 
L 3481 0 
L 794 0 
L 794 531 
z
" id="DejaVuSans-31" transform="scale(0.015625)"/>
       </defs>
       <use xlink:href="#DejaVuSans-31"/>
       <use x="63.623047" xlink:href="#DejaVuSans-2e"/>
       <use x="95.410156" xlink:href="#DejaVuSans-30"/>
      </g>
     </g>
    </g>
    <g id="text_7">
     <!-- False Positive Rate -->
     <g transform="translate(189.693594 335.860562)scale(0.1 -0.1)">
      <defs>
       <path d="M 628 4666 
L 3309 4666 
L 3309 4134 
L 1259 4134 
L 1259 2759 
L 3109 2759 
L 3109 2228 
L 1259 2228 
L 1259 0 
L 628 0 
L 628 4666 
z
" id="DejaVuSans-46" transform="scale(0.015625)"/>
       <path d="M 2194 1759 
Q 1497 1759 1228 1600 
Q 959 1441 959 1056 
Q 959 750 1161 570 
Q 1363 391 1709 391 
Q 2188 391 2477 730 
Q 2766 1069 2766 1631 
L 2766 1759 
L 2194 1759 
z
M 3341 1997 
L 3341 0 
L 2766 0 
L 2766 531 
Q 2569 213 2275 61 
Q 1981 -91 1556 -91 
Q 1019 -91 701 211 
Q 384 513 384 1019 
Q 384 1609 779 1909 
Q 1175 2209 1959 2209 
L 2766 2209 
L 2766 2266 
Q 2766 2663 2505 2880 
Q 2244 3097 1772 3097 
Q 1472 3097 1187 3025 
Q 903 2953 641 2809 
L 641 3341 
Q 956 3463 1253 3523 
Q 1550 3584 1831 3584 
Q 2591 3584 2966 3190 
Q 3341 2797 3341 1997 
z
" id="DejaVuSans-61" transform="scale(0.015625)"/>
       <path d="M 603 4863 
L 1178 4863 
L 1178 0 
L 603 0 
L 603 4863 
z
" id="DejaVuSans-6c" transform="scale(0.015625)"/>
       <path d="M 2834 3397 
L 2834 2853 
Q 2591 2978 2328 3040 
Q 2066 3103 1784 3103 
Q 1356 3103 1142 2972 
Q 928 2841 928 2578 
Q 928 2378 1081 2264 
Q 1234 2150 1697 2047 
L 1894 2003 
Q 2506 1872 2764 1633 
Q 3022 1394 3022 966 
Q 3022 478 2636 193 
Q 2250 -91 1575 -91 
Q 1294 -91 989 -36 
Q 684 19 347 128 
L 347 722 
Q 666 556 975 473 
Q 1284 391 1588 391 
Q 1994 391 2212 530 
Q 2431 669 2431 922 
Q 2431 1156 2273 1281 
Q 2116 1406 1581 1522 
L 1381 1569 
Q 847 1681 609 1914 
Q 372 2147 372 2553 
Q 372 3047 722 3315 
Q 1072 3584 1716 3584 
Q 2034 3584 2315 3537 
Q 2597 3491 2834 3397 
z
" id="DejaVuSans-73" transform="scale(0.015625)"/>
       <path d="M 3597 1894 
L 3597 1613 
L 953 1613 
Q 991 1019 1311 708 
Q 1631 397 2203 397 
Q 2534 397 2845 478 
Q 3156 559 3463 722 
L 3463 178 
Q 3153 47 2828 -22 
Q 2503 -91 2169 -91 
Q 1331 -91 842 396 
Q 353 884 353 1716 
Q 353 2575 817 3079 
Q 1281 3584 2069 3584 
Q 2775 3584 3186 3129 
Q 3597 2675 3597 1894 
z
M 3022 2063 
Q 3016 2534 2758 2815 
Q 2500 3097 2075 3097 
Q 1594 3097 1305 2825 
Q 1016 2553 972 2059 
L 3022 2063 
z
" id="DejaVuSans-65" transform="scale(0.015625)"/>
       <path id="DejaVuSans-20" transform="scale(0.015625)"/>
       <path d="M 1259 4147 
L 1259 2394 
L 2053 2394 
Q 2494 2394 2734 2622 
Q 2975 2850 2975 3272 
Q 2975 3691 2734 3919 
Q 2494 4147 2053 4147 
L 1259 4147 
z
M 628 4666 
L 2053 4666 
Q 2838 4666 3239 4311 
Q 3641 3956 3641 3272 
Q 3641 2581 3239 2228 
Q 2838 1875 2053 1875 
L 1259 1875 
L 1259 0 
L 628 0 
L 628 4666 
z
" id="DejaVuSans-50" transform="scale(0.015625)"/>
       <path d="M 1959 3097 
Q 1497 3097 1228 2736 
Q 959 2375 959 1747 
Q 959 1119 1226 758 
Q 1494 397 1959 397 
Q 2419 397 2687 759 
Q 2956 1122 2956 1747 
Q 2956 2369 2687 2733 
Q 2419 3097 1959 3097 
z
M 1959 3584 
Q 2709 3584 3137 3096 
Q 3566 2609 3566 1747 
Q 3566 888 3137 398 
Q 2709 -91 1959 -91 
Q 1206 -91 779 398 
Q 353 888 353 1747 
Q 353 2609 779 3096 
Q 1206 3584 1959 3584 
z
" id="DejaVuSans-6f" transform="scale(0.015625)"/>
       <path d="M 603 3500 
L 1178 3500 
L 1178 0 
L 603 0 
L 603 3500 
z
M 603 4863 
L 1178 4863 
L 1178 4134 
L 603 4134 
L 603 4863 
z
" id="DejaVuSans-69" transform="scale(0.015625)"/>
       <path d="M 1172 4494 
L 1172 3500 
L 2356 3500 
L 2356 3053 
L 1172 3053 
L 1172 1153 
Q 1172 725 1289 603 
Q 1406 481 1766 481 
L 2356 481 
L 2356 0 
L 1766 0 
Q 1100 0 847 248 
Q 594 497 594 1153 
L 594 3053 
L 172 3053 
L 172 3500 
L 594 3500 
L 594 4494 
L 1172 4494 
z
" id="DejaVuSans-74" transform="scale(0.015625)"/>
       <path d="M 191 3500 
L 800 3500 
L 1894 563 
L 2988 3500 
L 3597 3500 
L 2284 0 
L 1503 0 
L 191 3500 
z
" id="DejaVuSans-76" transform="scale(0.015625)"/>
       <path d="M 2841 2188 
Q 3044 2119 3236 1894 
Q 3428 1669 3622 1275 
L 4263 0 
L 3584 0 
L 2988 1197 
Q 2756 1666 2539 1819 
Q 2322 1972 1947 1972 
L 1259 1972 
L 1259 0 
L 628 0 
L 628 4666 
L 2053 4666 
Q 2853 4666 3247 4331 
Q 3641 3997 3641 3322 
Q 3641 2881 3436 2590 
Q 3231 2300 2841 2188 
z
M 1259 4147 
L 1259 2491 
L 2053 2491 
Q 2509 2491 2742 2702 
Q 2975 2913 2975 3322 
Q 2975 3731 2742 3939 
Q 2509 4147 2053 4147 
L 1259 4147 
z
" id="DejaVuSans-52" transform="scale(0.015625)"/>
      </defs>
      <use xlink:href="#DejaVuSans-46"/>
      <use x="48.394531" xlink:href="#DejaVuSans-61"/>
      <use x="109.673828" xlink:href="#DejaVuSans-6c"/>
      <use x="137.457031" xlink:href="#DejaVuSans-73"/>
      <use x="189.556641" xlink:href="#DejaVuSans-65"/>
      <use x="251.080078" xlink:href="#DejaVuSans-20"/>
      <use x="282.867188" xlink:href="#DejaVuSans-50"/>
      <use x="339.544922" xlink:href="#DejaVuSans-6f"/>
      <use x="400.726562" xlink:href="#DejaVuSans-73"/>
      <use x="452.826172" xlink:href="#DejaVuSans-69"/>
      <use x="480.609375" xlink:href="#DejaVuSans-74"/>
      <use x="519.818359" xlink:href="#DejaVuSans-69"/>
      <use x="547.601562" xlink:href="#DejaVuSans-76"/>
      <use x="606.78125" xlink:href="#DejaVuSans-65"/>
      <use x="668.304688" xlink:href="#DejaVuSans-20"/>
      <use x="700.091797" xlink:href="#DejaVuSans-52"/>
      <use x="767.324219" xlink:href="#DejaVuSans-61"/>
      <use x="828.603516" xlink:href="#DejaVuSans-74"/>
      <use x="867.8125" xlink:href="#DejaVuSans-65"/>
     </g>
    </g>
   </g>
   <g id="matplotlib.axis_2">
    <g id="ytick_1">
     <g id="line2d_7">
      <defs>
       <path d="M 0 0 
L -3.5 0 
" id="m7eb668d6d5" style="stroke:#000000;stroke-width:0.8;"/>
      </defs>
      <g>
       <use style="stroke:#000000;stroke-width:0.8;" x="57.6" xlink:href="#m7eb668d6d5" y="307.584"/>
      </g>
     </g>
     <g id="text_8">
      <!-- 0.0 -->
      <g transform="translate(34.696875 311.383219)scale(0.1 -0.1)">
       <use xlink:href="#DejaVuSans-30"/>
       <use x="63.623047" xlink:href="#DejaVuSans-2e"/>
       <use x="95.410156" xlink:href="#DejaVuSans-30"/>
      </g>
     </g>
    </g>
    <g id="ytick_2">
     <g id="line2d_8">
      <g>
       <use style="stroke:#000000;stroke-width:0.8;" x="57.6" xlink:href="#m7eb668d6d5" y="256.896"/>
      </g>
     </g>
     <g id="text_9">
      <!-- 0.2 -->
      <g transform="translate(34.696875 260.695219)scale(0.1 -0.1)">
       <use xlink:href="#DejaVuSans-30"/>
       <use x="63.623047" xlink:href="#DejaVuSans-2e"/>
       <use x="95.410156" xlink:href="#DejaVuSans-32"/>
      </g>
     </g>
    </g>
    <g id="ytick_3">
     <g id="line2d_9">
      <g>
       <use style="stroke:#000000;stroke-width:0.8;" x="57.6" xlink:href="#m7eb668d6d5" y="206.208"/>
      </g>
     </g>
     <g id="text_10">
      <!-- 0.4 -->
      <g transform="translate(34.696875 210.007219)scale(0.1 -0.1)">
       <use xlink:href="#DejaVuSans-30"/>
       <use x="63.623047" xlink:href="#DejaVuSans-2e"/>
       <use x="95.410156" xlink:href="#DejaVuSans-34"/>
      </g>
     </g>
    </g>
    <g id="ytick_4">
     <g id="line2d_10">
      <g>
       <use style="stroke:#000000;stroke-width:0.8;" x="57.6" xlink:href="#m7eb668d6d5" y="155.52"/>
      </g>
     </g>
     <g id="text_11">
      <!-- 0.6 -->
      <g transform="translate(34.696875 159.319219)scale(0.1 -0.1)">
       <use xlink:href="#DejaVuSans-30"/>
       <use x="63.623047" xlink:href="#DejaVuSans-2e"/>
       <use x="95.410156" xlink:href="#DejaVuSans-36"/>
      </g>
     </g>
    </g>
    <g id="ytick_5">
     <g id="line2d_11">
      <g>
       <use style="stroke:#000000;stroke-width:0.8;" x="57.6" xlink:href="#m7eb668d6d5" y="104.832"/>
      </g>
     </g>
     <g id="text_12">
      <!-- 0.8 -->
      <g transform="translate(34.696875 108.631219)scale(0.1 -0.1)">
       <use xlink:href="#DejaVuSans-30"/>
       <use x="63.623047" xlink:href="#DejaVuSans-2e"/>
       <use x="95.410156" xlink:href="#DejaVuSans-38"/>
      </g>
     </g>
    </g>
    <g id="ytick_6">
     <g id="line2d_12">
      <g>
       <use style="stroke:#000000;stroke-width:0.8;" x="57.6" xlink:href="#m7eb668d6d5" y="54.144"/>
      </g>
     </g>
     <g id="text_13">
      <!-- 1.0 -->
      <g transform="translate(34.696875 57.943219)scale(0.1 -0.1)">
       <use xlink:href="#DejaVuSans-31"/>
       <use x="63.623047" xlink:href="#DejaVuSans-2e"/>
       <use x="95.410156" xlink:href="#DejaVuSans-30"/>
      </g>
     </g>
    </g>
    <g id="text_14">
     <!-- True Positive Rate -->
     <g transform="translate(28.617187 219.057687)rotate(-90)scale(0.1 -0.1)">
      <defs>
       <path d="M -19 4666 
L 3928 4666 
L 3928 4134 
L 2272 4134 
L 2272 0 
L 1638 0 
L 1638 4134 
L -19 4134 
L -19 4666 
z
" id="DejaVuSans-54" transform="scale(0.015625)"/>
       <path d="M 2631 2963 
Q 2534 3019 2420 3045 
Q 2306 3072 2169 3072 
Q 1681 3072 1420 2755 
Q 1159 2438 1159 1844 
L 1159 0 
L 581 0 
L 581 3500 
L 1159 3500 
L 1159 2956 
Q 1341 3275 1631 3429 
Q 1922 3584 2338 3584 
Q 2397 3584 2469 3576 
Q 2541 3569 2628 3553 
L 2631 2963 
z
" id="DejaVuSans-72" transform="scale(0.015625)"/>
       <path d="M 544 1381 
L 544 3500 
L 1119 3500 
L 1119 1403 
Q 1119 906 1312 657 
Q 1506 409 1894 409 
Q 2359 409 2629 706 
Q 2900 1003 2900 1516 
L 2900 3500 
L 3475 3500 
L 3475 0 
L 2900 0 
L 2900 538 
Q 2691 219 2414 64 
Q 2138 -91 1772 -91 
Q 1169 -91 856 284 
Q 544 659 544 1381 
z
M 1991 3584 
L 1991 3584 
z
" id="DejaVuSans-75" transform="scale(0.015625)"/>
      </defs>
      <use xlink:href="#DejaVuSans-54"/>
      <use x="46.333984" xlink:href="#DejaVuSans-72"/>
      <use x="87.447266" xlink:href="#DejaVuSans-75"/>
      <use x="150.826172" xlink:href="#DejaVuSans-65"/>
      <use x="212.349609" xlink:href="#DejaVuSans-20"/>
      <use x="244.136719" xlink:href="#DejaVuSans-50"/>
      <use x="300.814453" xlink:href="#DejaVuSans-6f"/>
      <use x="361.996094" xlink:href="#DejaVuSans-73"/>
      <use x="414.095703" xlink:href="#DejaVuSans-69"/>
      <use x="441.878906" xlink:href="#DejaVuSans-74"/>
      <use x="481.087891" xlink:href="#DejaVuSans-69"/>
      <use x="508.871094" xlink:href="#DejaVuSans-76"/>
      <use x="568.050781" xlink:href="#DejaVuSans-65"/>
      <use x="629.574219" xlink:href="#DejaVuSans-20"/>
      <use x="661.361328" xlink:href="#DejaVuSans-52"/>
      <use x="728.59375" xlink:href="#DejaVuSans-61"/>
      <use x="789.873047" xlink:href="#DejaVuSans-74"/>
      <use x="829.082031" xlink:href="#DejaVuSans-65"/>
     </g>
    </g>
   </g>
   <g id="line2d_13">
    <path clip-path="url(#p6cd462d745)" d="M 57.6 307.584 
L 57.6 307.288615 
L 57.6 260.913231 
L 57.6 260.322462 
L 57.6 179.387077 
L 57.855268 179.387077 
L 57.855268 141.873231 
L 58.110536 141.873231 
L 58.110536 98.451692 
L 58.365804 98.451692 
L 58.365804 92.544 
L 58.621072 92.544 
L 58.621072 89.294769 
L 58.87634 89.294769 
L 58.87634 87.817846 
L 59.131608 87.817846 
L 59.131608 87.522462 
L 59.386876 87.522462 
L 59.386876 86.340923 
L 59.642144 86.340923 
L 59.642144 83.387077 
L 59.897412 83.387077 
L 59.897412 82.500923 
L 60.15268 82.500923 
L 60.15268 79.842462 
L 60.663217 79.842462 
L 60.663217 74.820923 
L 61.173753 74.820923 
L 61.173753 74.525538 
L 61.684289 74.525538 
L 61.684289 73.639385 
L 61.939557 73.639385 
L 61.939557 73.344 
L 62.194825 73.344 
L 62.194825 73.048615 
L 62.450093 73.048615 
L 62.450093 71.867077 
L 62.705361 71.867077 
L 62.705361 71.276308 
L 63.215897 71.276308 
L 63.215897 70.685538 
L 63.726433 70.685538 
L 63.726433 70.094769 
L 63.981701 70.094769 
L 63.981701 69.208615 
L 64.236969 69.208615 
L 64.236969 68.913231 
L 64.747505 68.913231 
L 64.747505 68.617846 
L 65.002773 68.617846 
L 65.002773 68.322462 
L 65.258041 68.322462 
L 65.258041 66.550154 
L 65.768578 66.550154 
L 65.768578 65.368615 
L 66.78965 65.368615 
L 66.78965 65.073231 
L 67.555454 65.073231 
L 67.555454 64.482462 
L 67.810722 64.482462 
L 67.810722 64.187077 
L 68.831794 64.187077 
L 68.831794 63.891692 
L 69.087062 63.891692 
L 69.087062 63.596308 
L 69.597598 63.596308 
L 69.597598 63.300923 
L 69.852866 63.300923 
L 69.852866 63.005538 
L 71.384475 63.005538 
L 71.384475 61.528615 
L 71.639743 61.528615 
L 71.639743 60.937846 
L 72.405547 60.937846 
L 72.405547 60.051692 
L 72.660815 60.051692 
L 72.660815 59.756308 
L 73.681887 59.756308 
L 73.681887 59.460923 
L 76.745104 59.460923 
L 76.745104 58.870154 
L 77.25564 58.870154 
L 77.25564 58.574769 
L 77.510908 58.574769 
L 77.510908 58.279385 
L 79.297784 58.279385 
L 79.297784 57.984 
L 81.850465 57.984 
L 81.850465 57.688615 
L 82.105733 57.688615 
L 82.105733 57.393231 
L 84.403145 57.393231 
L 84.403145 57.097846 
L 85.168949 57.097846 
L 85.168949 56.802462 
L 87.211094 56.802462 
L 87.211094 56.507077 
L 90.019042 56.507077 
L 90.019042 55.916308 
L 106.356197 55.916308 
L 106.356197 55.620923 
L 111.461558 55.620923 
L 111.461558 55.325538 
L 119.1196 55.325538 
L 119.1196 55.030154 
L 120.906476 55.030154 
L 120.906476 54.734769 
L 131.117198 54.734769 
L 131.117198 54.439385 
L 195.189478 54.439385 
L 195.189478 54.144 
L 414.72 54.144 
" style="fill:none;stroke:#bcafa3;stroke-linecap:square;stroke-width:2;"/>
   </g>
   <g id="line2d_14">
    <path clip-path="url(#p6cd462d745)" d="M 57.6 307.584 
L 57.6 307.229042 
L 57.6 207.130891 
L 57.6 206.420975 
L 57.6 196.482151 
L 57.6 195.772235 
L 57.6 180.864 
L 57.6 180.154084 
L 57.6 151.047529 
L 57.831445 151.047529 
L 57.831445 132.589714 
L 57.831445 131.879798 
L 57.831445 89.994756 
L 58.06289 89.994756 
L 58.06289 88.929882 
L 58.294336 88.929882 
L 58.294336 83.605513 
L 58.525781 83.605513 
L 58.525781 78.991059 
L 58.757226 78.991059 
L 58.757226 78.636101 
L 58.988671 78.636101 
L 58.988671 69.407193 
L 59.220117 69.407193 
L 59.220117 68.342319 
L 59.451562 68.342319 
L 59.451562 66.922487 
L 59.683007 66.922487 
L 59.683007 64.792739 
L 59.914452 64.792739 
L 59.914452 64.437782 
L 60.145898 64.437782 
L 60.145898 63.01795 
L 60.377343 63.01795 
L 60.377343 62.662992 
L 60.840233 62.662992 
L 60.840233 61.953076 
L 61.071679 61.953076 
L 61.071679 61.24316 
L 61.303124 61.24316 
L 61.303124 60.888202 
L 61.534569 60.888202 
L 61.534569 59.46837 
L 62.228905 59.46837 
L 62.228905 59.113412 
L 62.92324 59.113412 
L 62.92324 58.758454 
L 63.386131 58.758454 
L 63.386131 57.69358 
L 64.080467 57.69358 
L 64.080467 56.983664 
L 64.311912 56.983664 
L 64.311912 56.628706 
L 66.626364 56.628706 
L 66.626364 56.273748 
L 66.857809 56.273748 
L 66.857809 55.91879 
L 69.635152 55.91879 
L 69.635152 55.563832 
L 69.866598 55.563832 
L 69.866598 55.208874 
L 72.18105 55.208874 
L 72.18105 54.853916 
L 76.347064 54.853916 
L 76.347064 54.498958 
L 93.474012 54.498958 
L 93.474012 54.144 
L 414.72 54.144 
" style="fill:none;stroke:#561348;stroke-linecap:square;stroke-width:2;"/>
   </g>
   <g id="line2d_15">
    <path clip-path="url(#p6cd462d745)" d="M 57.6 307.584 
L 57.6 307.214015 
L 57.6 305.364088 
L 57.6 304.624117 
L 57.6 302.77419 
L 57.6 302.034219 
L 57.6 298.70435 
L 57.6 297.96438 
L 57.6 275.39527 
L 57.6 274.655299 
L 57.6 267.995562 
L 57.6 267.255591 
L 57.6 259.855883 
L 57.6 259.115912 
L 57.6 252.456175 
L 57.6 251.716204 
L 57.6 203.618102 
L 57.6 202.878131 
L 57.6 85.592759 
L 57.827176 85.592759 
L 57.827176 81.152934 
L 58.054351 81.152934 
L 58.054351 77.823066 
L 58.281527 77.823066 
L 58.281527 77.083095 
L 58.508702 77.083095 
L 58.508702 73.753226 
L 58.735878 73.753226 
L 58.735878 71.533314 
L 58.963053 71.533314 
L 58.963053 67.093489 
L 59.190229 67.093489 
L 59.190229 66.353518 
L 59.871756 66.353518 
L 59.871756 65.983533 
L 60.553282 65.983533 
L 60.553282 65.613547 
L 61.007634 65.613547 
L 61.007634 64.503591 
L 61.461985 64.503591 
L 61.461985 63.76362 
L 61.68916 63.76362 
L 61.68916 62.283679 
L 61.916336 62.283679 
L 61.916336 61.543708 
L 62.370687 61.543708 
L 62.370687 61.173723 
L 62.597863 61.173723 
L 62.597863 60.433752 
L 63.052214 60.433752 
L 63.052214 60.063766 
L 64.188092 60.063766 
L 64.188092 59.693781 
L 64.415267 59.693781 
L 64.415267 58.95381 
L 64.869618 58.95381 
L 64.869618 58.583825 
L 65.323969 58.583825 
L 65.323969 57.843854 
L 66.232672 57.843854 
L 66.232672 57.103883 
L 67.141374 57.103883 
L 67.141374 56.733898 
L 68.050076 56.733898 
L 68.050076 56.363912 
L 70.321832 56.363912 
L 70.321832 55.993927 
L 70.776183 55.993927 
L 70.776183 55.623942 
L 71.45771 55.623942 
L 71.45771 55.253956 
L 71.912061 55.253956 
L 71.912061 54.883971 
L 72.593588 54.883971 
L 72.593588 54.513985 
L 123.25374 54.513985 
L 123.25374 54.144 
L 414.72 54.144 
" style="fill:none;stroke:#ca8752;stroke-linecap:square;stroke-width:2;"/>
   </g>
   <g id="line2d_16">
    <path clip-path="url(#p6cd462d745)" d="M 57.6 307.584 
L 57.679114 152.622901 
L 57.758228 152.622901 
L 57.837342 108.941838 
L 57.916455 108.941838 
L 57.995569 101.081492 
L 58.074683 101.081492 
L 58.153797 94.231763 
L 58.232911 94.231763 
L 58.312025 85.360801 
L 58.391139 85.360801 
L 58.470253 81.430628 
L 58.549366 81.430628 
L 58.62848 81.206047 
L 58.786708 81.206047 
L 58.865822 78.623362 
L 58.944936 78.623362 
L 59.02405 77.949618 
L 59.103163 77.949618 
L 59.182277 75.479224 
L 59.419619 75.479224 
L 59.498733 73.794864 
L 59.577847 73.794864 
L 59.577847 71.885923 
L 59.736074 71.885923 
L 59.815188 71.32447 
L 59.894302 71.32447 
L 59.973416 70.426144 
L 60.05253 70.426144 
L 60.131644 69.976982 
L 60.289872 69.976982 
L 60.368985 69.190947 
L 60.527213 69.190947 
L 60.527213 68.517203 
L 60.685441 68.517203 
L 60.685441 68.180331 
L 60.843669 68.180331 
L 60.922782 67.057425 
L 61.001896 67.057425 
L 61.001896 66.832844 
L 61.160124 66.832844 
L 61.239238 66.608262 
L 61.318352 66.608262 
L 61.397466 66.046809 
L 61.47658 66.046809 
L 61.555693 65.709937 
L 61.634807 65.709937 
L 61.634807 65.148484 
L 61.951263 65.148484 
L 61.951263 64.923903 
L 62.10949 64.923903 
L 62.188604 64.587031 
L 62.346832 64.587031 
L 62.346832 64.47474 
L 62.50506 64.47474 
L 62.50506 64.362449 
L 62.663288 64.362449 
L 62.663288 64.025577 
L 62.821515 64.025577 
L 62.821515 63.688705 
L 63.058857 63.688705 
L 63.137971 63.351833 
L 63.217085 63.351833 
L 63.296198 63.014961 
L 63.375312 63.014961 
L 63.454426 62.79038 
L 63.612654 62.79038 
L 63.691768 62.453508 
L 63.929109 62.453508 
L 64.008223 62.228927 
L 64.166451 62.228927 
L 64.166451 62.116636 
L 64.324679 62.116636 
L 64.403793 61.667474 
L 64.799362 61.667474 
L 64.878476 61.442892 
L 64.95759 61.442892 
L 65.036704 60.769148 
L 65.115817 60.769148 
L 65.194931 60.432276 
L 65.274045 60.432276 
L 65.274045 60.207695 
L 65.669615 60.207695 
L 65.748728 59.870823 
L 65.98607 59.870823 
L 65.98607 59.758533 
L 66.144298 59.758533 
L 66.144298 59.646242 
L 66.381639 59.646242 
L 66.381639 59.533951 
L 66.618981 59.533951 
L 66.618981 59.197079 
L 67.01455 59.197079 
L 67.01455 59.084789 
L 67.41012 59.084789 
L 67.41012 58.860207 
L 67.726575 58.860207 
L 67.726575 58.747917 
L 68.122144 58.747917 
L 68.201258 58.523335 
L 68.596828 58.523335 
L 68.596828 58.298754 
L 68.834169 58.298754 
L 68.913283 57.737301 
L 69.625308 57.737301 
L 69.625308 57.62501 
L 69.86265 57.62501 
L 69.86265 57.400429 
L 70.258219 57.400429 
L 70.258219 57.288138 
L 70.49556 57.288138 
L 70.49556 57.175848 
L 70.970244 57.175848 
L 70.970244 57.063557 
L 71.524041 57.063557 
L 71.524041 56.951266 
L 71.682268 56.951266 
L 71.682268 56.838976 
L 72.868977 56.838976 
L 72.868977 56.726685 
L 73.027204 56.726685 
L 73.027204 56.614394 
L 73.185432 56.614394 
L 73.185432 56.502104 
L 73.818343 56.502104 
L 73.818343 56.389813 
L 74.37214 56.389813 
L 74.37214 56.277522 
L 74.925937 56.277522 
L 74.925937 56.165232 
L 75.321506 56.165232 
L 75.321506 56.052941 
L 76.349987 56.052941 
L 76.349987 55.94065 
L 76.666442 55.94065 
L 76.666442 55.491488 
L 77.774036 55.491488 
L 77.774036 55.379197 
L 79.118972 55.379197 
L 79.118972 55.266907 
L 79.356314 55.266907 
L 79.356314 55.154616 
L 84.656943 55.154616 
L 84.656943 55.042325 
L 87.346814 55.042325 
L 87.346814 54.930035 
L 90.748711 54.930035 
L 90.748711 54.817744 
L 95.891112 54.817744 
L 95.891112 54.705453 
L 97.07782 54.705453 
L 97.07782 54.593163 
L 103.565157 54.593163 
L 103.565157 54.480872 
L 111.160089 54.480872 
L 111.160089 54.368581 
L 133.628427 54.368581 
L 133.628427 54.256291 
L 151.429047 54.256291 
L 151.429047 54.144 
L 414.72 54.144 
L 414.72 54.144 
" style="fill:none;stroke:#ff1493;stroke-dasharray:4,6.6;stroke-dashoffset:0;stroke-width:4;"/>
   </g>
   <g id="line2d_17">
    <path clip-path="url(#p6cd462d745)" d="M 57.6 138.675788 
L 57.827176 137.195847 
L 57.831445 116.844923 
L 57.855268 104.340307 
L 58.054351 103.230351 
L 58.06289 102.875393 
L 58.110536 88.401547 
L 58.281527 88.15489 
L 58.294336 86.3801 
L 58.365804 84.410869 
L 58.508702 83.300913 
L 58.525781 81.762762 
L 58.621072 80.679685 
L 58.735878 79.939714 
L 58.757226 79.821395 
L 58.87634 79.329087 
L 58.963053 77.849145 
L 58.988671 74.772843 
L 59.131608 74.674381 
L 59.190229 74.427724 
L 59.220117 74.072766 
L 59.386876 73.67892 
L 59.451562 73.205643 
L 59.642144 72.221028 
L 59.683007 71.511112 
L 59.871756 71.387783 
L 59.897412 71.092398 
L 59.914452 70.974079 
L 60.145898 70.500802 
L 60.15268 69.614648 
L 60.377343 69.496329 
L 60.553282 69.373 
L 60.663217 67.699154 
L 60.840233 67.462515 
L 61.007634 67.09253 
L 61.071679 66.855891 
L 61.173753 66.75743 
L 61.303124 66.63911 
L 61.461985 66.392454 
L 61.534569 65.919176 
L 61.684289 65.623792 
L 61.68916 65.130478 
L 61.916336 64.883821 
L 61.939557 64.785359 
L 62.194825 64.686898 
L 62.228905 64.568578 
L 62.370687 64.44525 
L 62.450093 64.051404 
L 62.597863 63.804747 
L 62.705361 63.607824 
L 62.92324 63.489504 
L 63.052214 63.366176 
L 63.215897 63.169253 
L 63.386131 62.814295 
L 63.726433 62.617372 
L 63.981701 62.321987 
L 64.080467 62.085349 
L 64.188092 61.96202 
L 64.236969 61.863559 
L 64.311912 61.745239 
L 64.415267 61.498582 
L 64.747505 61.400121 
L 64.869618 61.276792 
L 65.002773 61.178331 
L 65.258041 60.587562 
L 65.323969 60.340905 
L 65.768578 59.947058 
L 66.232672 59.700401 
L 66.626364 59.582082 
L 66.78965 59.483621 
L 66.857809 59.365301 
L 67.141374 59.241973 
L 67.555454 59.04505 
L 67.810722 58.946588 
L 68.050076 58.82326 
L 68.831794 58.724798 
L 69.087062 58.626337 
L 69.597598 58.527875 
L 69.635152 58.409556 
L 69.852866 58.311094 
L 69.866598 58.192775 
L 70.321832 58.069446 
L 70.776183 57.946118 
L 71.384475 57.45381 
L 71.45771 57.330482 
L 71.639743 57.133559 
L 71.912061 57.01023 
L 72.18105 56.891911 
L 72.405547 56.596526 
L 72.593588 56.473198 
L 72.660815 56.374736 
L 73.681887 56.276275 
L 76.347064 56.157955 
L 76.745104 55.961032 
L 77.25564 55.862571 
L 77.510908 55.764109 
L 79.297784 55.665648 
L 81.850465 55.567186 
L 82.105733 55.468725 
L 84.403145 55.370263 
L 85.168949 55.271802 
L 87.211094 55.17334 
L 90.019042 54.976417 
L 93.474012 54.858098 
L 106.356197 54.759636 
L 111.461558 54.661175 
L 119.1196 54.562713 
L 120.906476 54.464252 
L 123.25374 54.340923 
L 131.117198 54.242462 
L 195.189478 54.144 
L 414.72 54.144 
" style="fill:none;stroke:#000080;stroke-dasharray:4,6.6;stroke-dashoffset:0;stroke-width:4;"/>
   </g>
   <g id="line2d_18">
    <path clip-path="url(#p6cd462d745)" d="M 57.6 307.584 
L 414.72 54.144 
" style="fill:none;stroke:#000000;stroke-dasharray:7.4,3.2;stroke-dashoffset:0;stroke-width:2;"/>
   </g>
   <g id="patch_3">
    <path d="M 57.6 307.584 
L 57.6 41.472 
" style="fill:none;stroke:#000000;stroke-linecap:square;stroke-linejoin:miter;stroke-width:0.8;"/>
   </g>
   <g id="patch_4">
    <path d="M 414.72 307.584 
L 414.72 41.472 
" style="fill:none;stroke:#000000;stroke-linecap:square;stroke-linejoin:miter;stroke-width:0.8;"/>
   </g>
   <g id="patch_5">
    <path d="M 57.6 307.584 
L 414.72 307.584 
" style="fill:none;stroke:#000000;stroke-linecap:square;stroke-linejoin:miter;stroke-width:0.8;"/>
   </g>
   <g id="patch_6">
    <path d="M 57.6 41.472 
L 414.72 41.472 
" style="fill:none;stroke:#000000;stroke-linecap:square;stroke-linejoin:miter;stroke-width:0.8;"/>
   </g>
   <g id="text_15">
    <!-- All ROC Curves -->
    <g transform="translate(190.99875 35.472)scale(0.12 -0.12)">
     <defs>
      <path d="M 2188 4044 
L 1331 1722 
L 3047 1722 
L 2188 4044 
z
M 1831 4666 
L 2547 4666 
L 4325 0 
L 3669 0 
L 3244 1197 
L 1141 1197 
L 716 0 
L 50 0 
L 1831 4666 
z
" id="DejaVuSans-41" transform="scale(0.015625)"/>
      <path d="M 2522 4238 
Q 1834 4238 1429 3725 
Q 1025 3213 1025 2328 
Q 1025 1447 1429 934 
Q 1834 422 2522 422 
Q 3209 422 3611 934 
Q 4013 1447 4013 2328 
Q 4013 3213 3611 3725 
Q 3209 4238 2522 4238 
z
M 2522 4750 
Q 3503 4750 4090 4092 
Q 4678 3434 4678 2328 
Q 4678 1225 4090 567 
Q 3503 -91 2522 -91 
Q 1538 -91 948 565 
Q 359 1222 359 2328 
Q 359 3434 948 4092 
Q 1538 4750 2522 4750 
z
" id="DejaVuSans-4f" transform="scale(0.015625)"/>
      <path d="M 4122 4306 
L 4122 3641 
Q 3803 3938 3442 4084 
Q 3081 4231 2675 4231 
Q 1875 4231 1450 3742 
Q 1025 3253 1025 2328 
Q 1025 1406 1450 917 
Q 1875 428 2675 428 
Q 3081 428 3442 575 
Q 3803 722 4122 1019 
L 4122 359 
Q 3791 134 3420 21 
Q 3050 -91 2638 -91 
Q 1578 -91 968 557 
Q 359 1206 359 2328 
Q 359 3453 968 4101 
Q 1578 4750 2638 4750 
Q 3056 4750 3426 4639 
Q 3797 4528 4122 4306 
z
" id="DejaVuSans-43" transform="scale(0.015625)"/>
     </defs>
     <use xlink:href="#DejaVuSans-41"/>
     <use x="68.408203" xlink:href="#DejaVuSans-6c"/>
     <use x="96.191406" xlink:href="#DejaVuSans-6c"/>
     <use x="123.974609" xlink:href="#DejaVuSans-20"/>
     <use x="155.761719" xlink:href="#DejaVuSans-52"/>
     <use x="225.244141" xlink:href="#DejaVuSans-4f"/>
     <use x="303.955078" xlink:href="#DejaVuSans-43"/>
     <use x="373.779297" xlink:href="#DejaVuSans-20"/>
     <use x="405.566406" xlink:href="#DejaVuSans-43"/>
     <use x="475.390625" xlink:href="#DejaVuSans-75"/>
     <use x="538.769531" xlink:href="#DejaVuSans-72"/>
     <use x="579.882812" xlink:href="#DejaVuSans-76"/>
     <use x="639.0625" xlink:href="#DejaVuSans-65"/>
     <use x="700.585938" xlink:href="#DejaVuSans-73"/>
    </g>
   </g>
   <g id="legend_1">
    <g id="patch_7">
     <path d="M 129.21375 302.584 
L 407.72 302.584 
Q 409.72 302.584 409.72 300.584 
L 409.72 228.193375 
Q 409.72 226.193375 407.72 226.193375 
L 129.21375 226.193375 
Q 127.21375 226.193375 127.21375 228.193375 
L 127.21375 300.584 
Q 127.21375 302.584 129.21375 302.584 
z
" style="fill:#ffffff;opacity:0.8;stroke:#cccccc;stroke-linejoin:miter;"/>
    </g>
    <g id="line2d_19">
     <path d="M 131.21375 234.291812 
L 151.21375 234.291812 
" style="fill:none;stroke:#bcafa3;stroke-linecap:square;stroke-width:2;"/>
    </g>
    <g id="line2d_20"/>
    <g id="text_16">
     <!-- ROC curve of Effector Memory CD8 (area = 1.00) -->
     <g transform="translate(159.21375 237.791812)scale(0.1 -0.1)">
      <defs>
       <path d="M 3122 3366 
L 3122 2828 
Q 2878 2963 2633 3030 
Q 2388 3097 2138 3097 
Q 1578 3097 1268 2742 
Q 959 2388 959 1747 
Q 959 1106 1268 751 
Q 1578 397 2138 397 
Q 2388 397 2633 464 
Q 2878 531 3122 666 
L 3122 134 
Q 2881 22 2623 -34 
Q 2366 -91 2075 -91 
Q 1284 -91 818 406 
Q 353 903 353 1747 
Q 353 2603 823 3093 
Q 1294 3584 2113 3584 
Q 2378 3584 2631 3529 
Q 2884 3475 3122 3366 
z
" id="DejaVuSans-63" transform="scale(0.015625)"/>
       <path d="M 2375 4863 
L 2375 4384 
L 1825 4384 
Q 1516 4384 1395 4259 
Q 1275 4134 1275 3809 
L 1275 3500 
L 2222 3500 
L 2222 3053 
L 1275 3053 
L 1275 0 
L 697 0 
L 697 3053 
L 147 3053 
L 147 3500 
L 697 3500 
L 697 3744 
Q 697 4328 969 4595 
Q 1241 4863 1831 4863 
L 2375 4863 
z
" id="DejaVuSans-66" transform="scale(0.015625)"/>
       <path d="M 628 4666 
L 3578 4666 
L 3578 4134 
L 1259 4134 
L 1259 2753 
L 3481 2753 
L 3481 2222 
L 1259 2222 
L 1259 531 
L 3634 531 
L 3634 0 
L 628 0 
L 628 4666 
z
" id="DejaVuSans-45" transform="scale(0.015625)"/>
       <path d="M 628 4666 
L 1569 4666 
L 2759 1491 
L 3956 4666 
L 4897 4666 
L 4897 0 
L 4281 0 
L 4281 4097 
L 3078 897 
L 2444 897 
L 1241 4097 
L 1241 0 
L 628 0 
L 628 4666 
z
" id="DejaVuSans-4d" transform="scale(0.015625)"/>
       <path d="M 3328 2828 
Q 3544 3216 3844 3400 
Q 4144 3584 4550 3584 
Q 5097 3584 5394 3201 
Q 5691 2819 5691 2113 
L 5691 0 
L 5113 0 
L 5113 2094 
Q 5113 2597 4934 2840 
Q 4756 3084 4391 3084 
Q 3944 3084 3684 2787 
Q 3425 2491 3425 1978 
L 3425 0 
L 2847 0 
L 2847 2094 
Q 2847 2600 2669 2842 
Q 2491 3084 2119 3084 
Q 1678 3084 1418 2786 
Q 1159 2488 1159 1978 
L 1159 0 
L 581 0 
L 581 3500 
L 1159 3500 
L 1159 2956 
Q 1356 3278 1631 3431 
Q 1906 3584 2284 3584 
Q 2666 3584 2933 3390 
Q 3200 3197 3328 2828 
z
" id="DejaVuSans-6d" transform="scale(0.015625)"/>
       <path d="M 2059 -325 
Q 1816 -950 1584 -1140 
Q 1353 -1331 966 -1331 
L 506 -1331 
L 506 -850 
L 844 -850 
Q 1081 -850 1212 -737 
Q 1344 -625 1503 -206 
L 1606 56 
L 191 3500 
L 800 3500 
L 1894 763 
L 2988 3500 
L 3597 3500 
L 2059 -325 
z
" id="DejaVuSans-79" transform="scale(0.015625)"/>
       <path d="M 1259 4147 
L 1259 519 
L 2022 519 
Q 2988 519 3436 956 
Q 3884 1394 3884 2338 
Q 3884 3275 3436 3711 
Q 2988 4147 2022 4147 
L 1259 4147 
z
M 628 4666 
L 1925 4666 
Q 3281 4666 3915 4102 
Q 4550 3538 4550 2338 
Q 4550 1131 3912 565 
Q 3275 0 1925 0 
L 628 0 
L 628 4666 
z
" id="DejaVuSans-44" transform="scale(0.015625)"/>
       <path d="M 1984 4856 
Q 1566 4138 1362 3434 
Q 1159 2731 1159 2009 
Q 1159 1288 1364 580 
Q 1569 -128 1984 -844 
L 1484 -844 
Q 1016 -109 783 600 
Q 550 1309 550 2009 
Q 550 2706 781 3412 
Q 1013 4119 1484 4856 
L 1984 4856 
z
" id="DejaVuSans-28" transform="scale(0.015625)"/>
       <path d="M 678 2906 
L 4684 2906 
L 4684 2381 
L 678 2381 
L 678 2906 
z
M 678 1631 
L 4684 1631 
L 4684 1100 
L 678 1100 
L 678 1631 
z
" id="DejaVuSans-3d" transform="scale(0.015625)"/>
       <path d="M 513 4856 
L 1013 4856 
Q 1481 4119 1714 3412 
Q 1947 2706 1947 2009 
Q 1947 1309 1714 600 
Q 1481 -109 1013 -844 
L 513 -844 
Q 928 -128 1133 580 
Q 1338 1288 1338 2009 
Q 1338 2731 1133 3434 
Q 928 4138 513 4856 
z
" id="DejaVuSans-29" transform="scale(0.015625)"/>
      </defs>
      <use xlink:href="#DejaVuSans-52"/>
      <use x="69.482422" xlink:href="#DejaVuSans-4f"/>
      <use x="148.193359" xlink:href="#DejaVuSans-43"/>
      <use x="218.017578" xlink:href="#DejaVuSans-20"/>
      <use x="249.804688" xlink:href="#DejaVuSans-63"/>
      <use x="304.785156" xlink:href="#DejaVuSans-75"/>
      <use x="368.164062" xlink:href="#DejaVuSans-72"/>
      <use x="409.277344" xlink:href="#DejaVuSans-76"/>
      <use x="468.457031" xlink:href="#DejaVuSans-65"/>
      <use x="529.980469" xlink:href="#DejaVuSans-20"/>
      <use x="561.767578" xlink:href="#DejaVuSans-6f"/>
      <use x="622.949219" xlink:href="#DejaVuSans-66"/>
      <use x="658.154297" xlink:href="#DejaVuSans-20"/>
      <use x="689.941406" xlink:href="#DejaVuSans-45"/>
      <use x="753.125" xlink:href="#DejaVuSans-66"/>
      <use x="788.330078" xlink:href="#DejaVuSans-66"/>
      <use x="823.535156" xlink:href="#DejaVuSans-65"/>
      <use x="885.058594" xlink:href="#DejaVuSans-63"/>
      <use x="940.039062" xlink:href="#DejaVuSans-74"/>
      <use x="979.248047" xlink:href="#DejaVuSans-6f"/>
      <use x="1040.429688" xlink:href="#DejaVuSans-72"/>
      <use x="1081.542969" xlink:href="#DejaVuSans-20"/>
      <use x="1113.330078" xlink:href="#DejaVuSans-4d"/>
      <use x="1199.609375" xlink:href="#DejaVuSans-65"/>
      <use x="1261.132812" xlink:href="#DejaVuSans-6d"/>
      <use x="1358.544922" xlink:href="#DejaVuSans-6f"/>
      <use x="1419.726562" xlink:href="#DejaVuSans-72"/>
      <use x="1460.839844" xlink:href="#DejaVuSans-79"/>
      <use x="1520.019531" xlink:href="#DejaVuSans-20"/>
      <use x="1551.806641" xlink:href="#DejaVuSans-43"/>
      <use x="1621.630859" xlink:href="#DejaVuSans-44"/>
      <use x="1698.632812" xlink:href="#DejaVuSans-38"/>
      <use x="1762.255859" xlink:href="#DejaVuSans-20"/>
      <use x="1794.042969" xlink:href="#DejaVuSans-28"/>
      <use x="1833.056641" xlink:href="#DejaVuSans-61"/>
      <use x="1894.335938" xlink:href="#DejaVuSans-72"/>
      <use x="1933.199219" xlink:href="#DejaVuSans-65"/>
      <use x="1994.722656" xlink:href="#DejaVuSans-61"/>
      <use x="2056.001953" xlink:href="#DejaVuSans-20"/>
      <use x="2087.789062" xlink:href="#DejaVuSans-3d"/>
      <use x="2171.578125" xlink:href="#DejaVuSans-20"/>
      <use x="2203.365234" xlink:href="#DejaVuSans-31"/>
      <use x="2266.988281" xlink:href="#DejaVuSans-2e"/>
      <use x="2298.775391" xlink:href="#DejaVuSans-30"/>
      <use x="2362.398438" xlink:href="#DejaVuSans-30"/>
      <use x="2426.021484" xlink:href="#DejaVuSans-29"/>
     </g>
    </g>
    <g id="line2d_21">
     <path d="M 131.21375 248.969937 
L 151.21375 248.969937 
" style="fill:none;stroke:#561348;stroke-linecap:square;stroke-width:2;"/>
    </g>
    <g id="line2d_22"/>
    <g id="text_17">
     <!-- ROC curve of Naive CD8 (area = 1.00) -->
     <g transform="translate(159.21375 252.469937)scale(0.1 -0.1)">
      <defs>
       <path d="M 628 4666 
L 1478 4666 
L 3547 763 
L 3547 4666 
L 4159 4666 
L 4159 0 
L 3309 0 
L 1241 3903 
L 1241 0 
L 628 0 
L 628 4666 
z
" id="DejaVuSans-4e" transform="scale(0.015625)"/>
      </defs>
      <use xlink:href="#DejaVuSans-52"/>
      <use x="69.482422" xlink:href="#DejaVuSans-4f"/>
      <use x="148.193359" xlink:href="#DejaVuSans-43"/>
      <use x="218.017578" xlink:href="#DejaVuSans-20"/>
      <use x="249.804688" xlink:href="#DejaVuSans-63"/>
      <use x="304.785156" xlink:href="#DejaVuSans-75"/>
      <use x="368.164062" xlink:href="#DejaVuSans-72"/>
      <use x="409.277344" xlink:href="#DejaVuSans-76"/>
      <use x="468.457031" xlink:href="#DejaVuSans-65"/>
      <use x="529.980469" xlink:href="#DejaVuSans-20"/>
      <use x="561.767578" xlink:href="#DejaVuSans-6f"/>
      <use x="622.949219" xlink:href="#DejaVuSans-66"/>
      <use x="658.154297" xlink:href="#DejaVuSans-20"/>
      <use x="689.941406" xlink:href="#DejaVuSans-4e"/>
      <use x="764.746094" xlink:href="#DejaVuSans-61"/>
      <use x="826.025391" xlink:href="#DejaVuSans-69"/>
      <use x="853.808594" xlink:href="#DejaVuSans-76"/>
      <use x="912.988281" xlink:href="#DejaVuSans-65"/>
      <use x="974.511719" xlink:href="#DejaVuSans-20"/>
      <use x="1006.298828" xlink:href="#DejaVuSans-43"/>
      <use x="1076.123047" xlink:href="#DejaVuSans-44"/>
      <use x="1153.125" xlink:href="#DejaVuSans-38"/>
      <use x="1216.748047" xlink:href="#DejaVuSans-20"/>
      <use x="1248.535156" xlink:href="#DejaVuSans-28"/>
      <use x="1287.548828" xlink:href="#DejaVuSans-61"/>
      <use x="1348.828125" xlink:href="#DejaVuSans-72"/>
      <use x="1387.691406" xlink:href="#DejaVuSans-65"/>
      <use x="1449.214844" xlink:href="#DejaVuSans-61"/>
      <use x="1510.494141" xlink:href="#DejaVuSans-20"/>
      <use x="1542.28125" xlink:href="#DejaVuSans-3d"/>
      <use x="1626.070312" xlink:href="#DejaVuSans-20"/>
      <use x="1657.857422" xlink:href="#DejaVuSans-31"/>
      <use x="1721.480469" xlink:href="#DejaVuSans-2e"/>
      <use x="1753.267578" xlink:href="#DejaVuSans-30"/>
      <use x="1816.890625" xlink:href="#DejaVuSans-30"/>
      <use x="1880.513672" xlink:href="#DejaVuSans-29"/>
     </g>
    </g>
    <g id="line2d_23">
     <path d="M 131.21375 263.648062 
L 151.21375 263.648062 
" style="fill:none;stroke:#ca8752;stroke-linecap:square;stroke-width:2;"/>
    </g>
    <g id="line2d_24"/>
    <g id="text_18">
     <!-- ROC curve of Temra CD8 (area = 1.00) -->
     <g transform="translate(159.21375 267.148062)scale(0.1 -0.1)">
      <use xlink:href="#DejaVuSans-52"/>
      <use x="69.482422" xlink:href="#DejaVuSans-4f"/>
      <use x="148.193359" xlink:href="#DejaVuSans-43"/>
      <use x="218.017578" xlink:href="#DejaVuSans-20"/>
      <use x="249.804688" xlink:href="#DejaVuSans-63"/>
      <use x="304.785156" xlink:href="#DejaVuSans-75"/>
      <use x="368.164062" xlink:href="#DejaVuSans-72"/>
      <use x="409.277344" xlink:href="#DejaVuSans-76"/>
      <use x="468.457031" xlink:href="#DejaVuSans-65"/>
      <use x="529.980469" xlink:href="#DejaVuSans-20"/>
      <use x="561.767578" xlink:href="#DejaVuSans-6f"/>
      <use x="622.949219" xlink:href="#DejaVuSans-66"/>
      <use x="658.154297" xlink:href="#DejaVuSans-20"/>
      <use x="689.941406" xlink:href="#DejaVuSans-54"/>
      <use x="734.025391" xlink:href="#DejaVuSans-65"/>
      <use x="795.548828" xlink:href="#DejaVuSans-6d"/>
      <use x="892.960938" xlink:href="#DejaVuSans-72"/>
      <use x="934.074219" xlink:href="#DejaVuSans-61"/>
      <use x="995.353516" xlink:href="#DejaVuSans-20"/>
      <use x="1027.140625" xlink:href="#DejaVuSans-43"/>
      <use x="1096.964844" xlink:href="#DejaVuSans-44"/>
      <use x="1173.966797" xlink:href="#DejaVuSans-38"/>
      <use x="1237.589844" xlink:href="#DejaVuSans-20"/>
      <use x="1269.376953" xlink:href="#DejaVuSans-28"/>
      <use x="1308.390625" xlink:href="#DejaVuSans-61"/>
      <use x="1369.669922" xlink:href="#DejaVuSans-72"/>
      <use x="1408.533203" xlink:href="#DejaVuSans-65"/>
      <use x="1470.056641" xlink:href="#DejaVuSans-61"/>
      <use x="1531.335938" xlink:href="#DejaVuSans-20"/>
      <use x="1563.123047" xlink:href="#DejaVuSans-3d"/>
      <use x="1646.912109" xlink:href="#DejaVuSans-20"/>
      <use x="1678.699219" xlink:href="#DejaVuSans-31"/>
      <use x="1742.322266" xlink:href="#DejaVuSans-2e"/>
      <use x="1774.109375" xlink:href="#DejaVuSans-30"/>
      <use x="1837.732422" xlink:href="#DejaVuSans-30"/>
      <use x="1901.355469" xlink:href="#DejaVuSans-29"/>
     </g>
    </g>
    <g id="line2d_25">
     <path d="M 131.21375 278.326188 
L 151.21375 278.326188 
" style="fill:none;stroke:#ff1493;stroke-dasharray:4,6.6;stroke-dashoffset:0;stroke-width:4;"/>
    </g>
    <g id="line2d_26"/>
    <g id="text_19">
     <!-- micro-average ROC curve (area = 1.00) -->
     <g transform="translate(159.21375 281.826188)scale(0.1 -0.1)">
      <defs>
       <path d="M 313 2009 
L 1997 2009 
L 1997 1497 
L 313 1497 
L 313 2009 
z
" id="DejaVuSans-2d" transform="scale(0.015625)"/>
       <path d="M 2906 1791 
Q 2906 2416 2648 2759 
Q 2391 3103 1925 3103 
Q 1463 3103 1205 2759 
Q 947 2416 947 1791 
Q 947 1169 1205 825 
Q 1463 481 1925 481 
Q 2391 481 2648 825 
Q 2906 1169 2906 1791 
z
M 3481 434 
Q 3481 -459 3084 -895 
Q 2688 -1331 1869 -1331 
Q 1566 -1331 1297 -1286 
Q 1028 -1241 775 -1147 
L 775 -588 
Q 1028 -725 1275 -790 
Q 1522 -856 1778 -856 
Q 2344 -856 2625 -561 
Q 2906 -266 2906 331 
L 2906 616 
Q 2728 306 2450 153 
Q 2172 0 1784 0 
Q 1141 0 747 490 
Q 353 981 353 1791 
Q 353 2603 747 3093 
Q 1141 3584 1784 3584 
Q 2172 3584 2450 3431 
Q 2728 3278 2906 2969 
L 2906 3500 
L 3481 3500 
L 3481 434 
z
" id="DejaVuSans-67" transform="scale(0.015625)"/>
      </defs>
      <use xlink:href="#DejaVuSans-6d"/>
      <use x="97.412109" xlink:href="#DejaVuSans-69"/>
      <use x="125.195312" xlink:href="#DejaVuSans-63"/>
      <use x="180.175781" xlink:href="#DejaVuSans-72"/>
      <use x="219.039062" xlink:href="#DejaVuSans-6f"/>
      <use x="282.095703" xlink:href="#DejaVuSans-2d"/>
      <use x="318.179688" xlink:href="#DejaVuSans-61"/>
      <use x="379.458984" xlink:href="#DejaVuSans-76"/>
      <use x="438.638672" xlink:href="#DejaVuSans-65"/>
      <use x="500.162109" xlink:href="#DejaVuSans-72"/>
      <use x="541.275391" xlink:href="#DejaVuSans-61"/>
      <use x="602.554688" xlink:href="#DejaVuSans-67"/>
      <use x="666.03125" xlink:href="#DejaVuSans-65"/>
      <use x="727.554688" xlink:href="#DejaVuSans-20"/>
      <use x="759.341797" xlink:href="#DejaVuSans-52"/>
      <use x="828.824219" xlink:href="#DejaVuSans-4f"/>
      <use x="907.535156" xlink:href="#DejaVuSans-43"/>
      <use x="977.359375" xlink:href="#DejaVuSans-20"/>
      <use x="1009.146484" xlink:href="#DejaVuSans-63"/>
      <use x="1064.126953" xlink:href="#DejaVuSans-75"/>
      <use x="1127.505859" xlink:href="#DejaVuSans-72"/>
      <use x="1168.619141" xlink:href="#DejaVuSans-76"/>
      <use x="1227.798828" xlink:href="#DejaVuSans-65"/>
      <use x="1289.322266" xlink:href="#DejaVuSans-20"/>
      <use x="1321.109375" xlink:href="#DejaVuSans-28"/>
      <use x="1360.123047" xlink:href="#DejaVuSans-61"/>
      <use x="1421.402344" xlink:href="#DejaVuSans-72"/>
      <use x="1460.265625" xlink:href="#DejaVuSans-65"/>
      <use x="1521.789062" xlink:href="#DejaVuSans-61"/>
      <use x="1583.068359" xlink:href="#DejaVuSans-20"/>
      <use x="1614.855469" xlink:href="#DejaVuSans-3d"/>
      <use x="1698.644531" xlink:href="#DejaVuSans-20"/>
      <use x="1730.431641" xlink:href="#DejaVuSans-31"/>
      <use x="1794.054688" xlink:href="#DejaVuSans-2e"/>
      <use x="1825.841797" xlink:href="#DejaVuSans-30"/>
      <use x="1889.464844" xlink:href="#DejaVuSans-30"/>
      <use x="1953.087891" xlink:href="#DejaVuSans-29"/>
     </g>
    </g>
    <g id="line2d_27">
     <path d="M 131.21375 293.004312 
L 151.21375 293.004312 
" style="fill:none;stroke:#000080;stroke-dasharray:4,6.6;stroke-dashoffset:0;stroke-width:4;"/>
    </g>
    <g id="line2d_28"/>
    <g id="text_20">
     <!-- macro-average ROC curve (area = 1.00) -->
     <g transform="translate(159.21375 296.504312)scale(0.1 -0.1)">
      <use xlink:href="#DejaVuSans-6d"/>
      <use x="97.412109" xlink:href="#DejaVuSans-61"/>
      <use x="158.691406" xlink:href="#DejaVuSans-63"/>
      <use x="213.671875" xlink:href="#DejaVuSans-72"/>
      <use x="252.535156" xlink:href="#DejaVuSans-6f"/>
      <use x="315.591797" xlink:href="#DejaVuSans-2d"/>
      <use x="351.675781" xlink:href="#DejaVuSans-61"/>
      <use x="412.955078" xlink:href="#DejaVuSans-76"/>
      <use x="472.134766" xlink:href="#DejaVuSans-65"/>
      <use x="533.658203" xlink:href="#DejaVuSans-72"/>
      <use x="574.771484" xlink:href="#DejaVuSans-61"/>
      <use x="636.050781" xlink:href="#DejaVuSans-67"/>
      <use x="699.527344" xlink:href="#DejaVuSans-65"/>
      <use x="761.050781" xlink:href="#DejaVuSans-20"/>
      <use x="792.837891" xlink:href="#DejaVuSans-52"/>
      <use x="862.320312" xlink:href="#DejaVuSans-4f"/>
      <use x="941.03125" xlink:href="#DejaVuSans-43"/>
      <use x="1010.855469" xlink:href="#DejaVuSans-20"/>
      <use x="1042.642578" xlink:href="#DejaVuSans-63"/>
      <use x="1097.623047" xlink:href="#DejaVuSans-75"/>
      <use x="1161.001953" xlink:href="#DejaVuSans-72"/>
      <use x="1202.115234" xlink:href="#DejaVuSans-76"/>
      <use x="1261.294922" xlink:href="#DejaVuSans-65"/>
      <use x="1322.818359" xlink:href="#DejaVuSans-20"/>
      <use x="1354.605469" xlink:href="#DejaVuSans-28"/>
      <use x="1393.619141" xlink:href="#DejaVuSans-61"/>
      <use x="1454.898438" xlink:href="#DejaVuSans-72"/>
      <use x="1493.761719" xlink:href="#DejaVuSans-65"/>
      <use x="1555.285156" xlink:href="#DejaVuSans-61"/>
      <use x="1616.564453" xlink:href="#DejaVuSans-20"/>
      <use x="1648.351562" xlink:href="#DejaVuSans-3d"/>
      <use x="1732.140625" xlink:href="#DejaVuSans-20"/>
      <use x="1763.927734" xlink:href="#DejaVuSans-31"/>
      <use x="1827.550781" xlink:href="#DejaVuSans-2e"/>
      <use x="1859.337891" xlink:href="#DejaVuSans-30"/>
      <use x="1922.960938" xlink:href="#DejaVuSans-30"/>
      <use x="1986.583984" xlink:href="#DejaVuSans-29"/>
     </g>
    </g>
   </g>
  </g>
 </g>
 <defs>
  <clipPath id="p6cd462d745">
   <rect height="266.112" width="357.12" x="57.6" y="41.472"/>
  </clipPath>
 </defs>
</svg>
