<?xml version="1.0" encoding="utf-8" standalone="no"?>
<!DOCTYPE svg PUBLIC "-//W3C//DTD SVG 1.1//EN"
  "http://www.w3.org/Graphics/SVG/1.1/DTD/svg11.dtd">
<svg height="345.6pt" version="1.1" viewBox="0 0 460.8 345.6" width="460.8pt" xmlns="http://www.w3.org/2000/svg" xmlns:xlink="http://www.w3.org/1999/xlink">
 <metadata>
  <rdf:RDF xmlns:cc="http://creativecommons.org/ns#" xmlns:dc="http://purl.org/dc/elements/1.1/" xmlns:rdf="http://www.w3.org/1999/02/22-rdf-syntax-ns#">
   <cc:Work>
    <dc:type rdf:resource="http://purl.org/dc/dcmitype/StillImage"/>
    <dc:date>2021-08-12T09:04:00.206157</dc:date>
    <dc:format>image/svg+xml</dc:format>
    <dc:creator>
     <cc:Agent>
      <dc:title>Matplotlib v3.4.2, https://matplotlib.org/</dc:title>
     </cc:Agent>
    </dc:creator>
   </cc:Work>
  </rdf:RDF>
 </metadata>
 <defs>
  <style type="text/css">*{stroke-linecap:butt;stroke-linejoin:round;}</style>
 </defs>
 <g id="figure_1">
  <g id="patch_1">
   <path d="M 0 345.6 
L 460.8 345.6 
L 460.8 0 
L 0 0 
z
" style="fill:#ffffff;"/>
  </g>
  <g id="axes_1">
   <g id="patch_2">
    <path d="M 57.6 307.584 
L 414.72 307.584 
L 414.72 41.472 
L 57.6 41.472 
z
" style="fill:#ffffff;"/>
   </g>
   <g id="matplotlib.axis_1">
    <g id="xtick_1">
     <g id="line2d_1">
      <defs>
       <path d="M 0 0 
L 0 3.5 
" id="me46901ea6a" style="stroke:#000000;stroke-width:0.8;"/>
      </defs>
      <g>
       <use style="stroke:#000000;stroke-width:0.8;" x="57.6" xlink:href="#me46901ea6a" y="307.584"/>
      </g>
     </g>
     <g id="text_1">
      <!-- 0.0 -->
      <g transform="translate(49.648438 322.182437)scale(0.1 -0.1)">
       <defs>
        <path d="M 2034 4250 
Q 1547 4250 1301 3770 
Q 1056 3291 1056 2328 
Q 1056 1369 1301 889 
Q 1547 409 2034 409 
Q 2525 409 2770 889 
Q 3016 1369 3016 2328 
Q 3016 3291 2770 3770 
Q 2525 4250 2034 4250 
z
M 2034 4750 
Q 2819 4750 3233 4129 
Q 3647 3509 3647 2328 
Q 3647 1150 3233 529 
Q 2819 -91 2034 -91 
Q 1250 -91 836 529 
Q 422 1150 422 2328 
Q 422 3509 836 4129 
Q 1250 4750 2034 4750 
z
" id="DejaVuSans-30" transform="scale(0.015625)"/>
        <path d="M 684 794 
L 1344 794 
L 1344 0 
L 684 0 
L 684 794 
z
" id="DejaVuSans-2e" transform="scale(0.015625)"/>
       </defs>
       <use xlink:href="#DejaVuSans-30"/>
       <use x="63.623047" xlink:href="#DejaVuSans-2e"/>
       <use x="95.410156" xlink:href="#DejaVuSans-30"/>
      </g>
     </g>
    </g>
    <g id="xtick_2">
     <g id="line2d_2">
      <g>
       <use style="stroke:#000000;stroke-width:0.8;" x="129.024" xlink:href="#me46901ea6a" y="307.584"/>
      </g>
     </g>
     <g id="text_2">
      <!-- 0.2 -->
      <g transform="translate(121.072438 322.182437)scale(0.1 -0.1)">
       <defs>
        <path d="M 1228 531 
L 3431 531 
L 3431 0 
L 469 0 
L 469 531 
Q 828 903 1448 1529 
Q 2069 2156 2228 2338 
Q 2531 2678 2651 2914 
Q 2772 3150 2772 3378 
Q 2772 3750 2511 3984 
Q 2250 4219 1831 4219 
Q 1534 4219 1204 4116 
Q 875 4013 500 3803 
L 500 4441 
Q 881 4594 1212 4672 
Q 1544 4750 1819 4750 
Q 2544 4750 2975 4387 
Q 3406 4025 3406 3419 
Q 3406 3131 3298 2873 
Q 3191 2616 2906 2266 
Q 2828 2175 2409 1742 
Q 1991 1309 1228 531 
z
" id="DejaVuSans-32" transform="scale(0.015625)"/>
       </defs>
       <use xlink:href="#DejaVuSans-30"/>
       <use x="63.623047" xlink:href="#DejaVuSans-2e"/>
       <use x="95.410156" xlink:href="#DejaVuSans-32"/>
      </g>
     </g>
    </g>
    <g id="xtick_3">
     <g id="line2d_3">
      <g>
       <use style="stroke:#000000;stroke-width:0.8;" x="200.448" xlink:href="#me46901ea6a" y="307.584"/>
      </g>
     </g>
     <g id="text_3">
      <!-- 0.4 -->
      <g transform="translate(192.496438 322.182437)scale(0.1 -0.1)">
       <defs>
        <path d="M 2419 4116 
L 825 1625 
L 2419 1625 
L 2419 4116 
z
M 2253 4666 
L 3047 4666 
L 3047 1625 
L 3713 1625 
L 3713 1100 
L 3047 1100 
L 3047 0 
L 2419 0 
L 2419 1100 
L 313 1100 
L 313 1709 
L 2253 4666 
z
" id="DejaVuSans-34" transform="scale(0.015625)"/>
       </defs>
       <use xlink:href="#DejaVuSans-30"/>
       <use x="63.623047" xlink:href="#DejaVuSans-2e"/>
       <use x="95.410156" xlink:href="#DejaVuSans-34"/>
      </g>
     </g>
    </g>
    <g id="xtick_4">
     <g id="line2d_4">
      <g>
       <use style="stroke:#000000;stroke-width:0.8;" x="271.872" xlink:href="#me46901ea6a" y="307.584"/>
      </g>
     </g>
     <g id="text_4">
      <!-- 0.6 -->
      <g transform="translate(263.920438 322.182437)scale(0.1 -0.1)">
       <defs>
        <path d="M 2113 2584 
Q 1688 2584 1439 2293 
Q 1191 2003 1191 1497 
Q 1191 994 1439 701 
Q 1688 409 2113 409 
Q 2538 409 2786 701 
Q 3034 994 3034 1497 
Q 3034 2003 2786 2293 
Q 2538 2584 2113 2584 
z
M 3366 4563 
L 3366 3988 
Q 3128 4100 2886 4159 
Q 2644 4219 2406 4219 
Q 1781 4219 1451 3797 
Q 1122 3375 1075 2522 
Q 1259 2794 1537 2939 
Q 1816 3084 2150 3084 
Q 2853 3084 3261 2657 
Q 3669 2231 3669 1497 
Q 3669 778 3244 343 
Q 2819 -91 2113 -91 
Q 1303 -91 875 529 
Q 447 1150 447 2328 
Q 447 3434 972 4092 
Q 1497 4750 2381 4750 
Q 2619 4750 2861 4703 
Q 3103 4656 3366 4563 
z
" id="DejaVuSans-36" transform="scale(0.015625)"/>
       </defs>
       <use xlink:href="#DejaVuSans-30"/>
       <use x="63.623047" xlink:href="#DejaVuSans-2e"/>
       <use x="95.410156" xlink:href="#DejaVuSans-36"/>
      </g>
     </g>
    </g>
    <g id="xtick_5">
     <g id="line2d_5">
      <g>
       <use style="stroke:#000000;stroke-width:0.8;" x="343.296" xlink:href="#me46901ea6a" y="307.584"/>
      </g>
     </g>
     <g id="text_5">
      <!-- 0.8 -->
      <g transform="translate(335.344438 322.182437)scale(0.1 -0.1)">
       <defs>
        <path d="M 2034 2216 
Q 1584 2216 1326 1975 
Q 1069 1734 1069 1313 
Q 1069 891 1326 650 
Q 1584 409 2034 409 
Q 2484 409 2743 651 
Q 3003 894 3003 1313 
Q 3003 1734 2745 1975 
Q 2488 2216 2034 2216 
z
M 1403 2484 
Q 997 2584 770 2862 
Q 544 3141 544 3541 
Q 544 4100 942 4425 
Q 1341 4750 2034 4750 
Q 2731 4750 3128 4425 
Q 3525 4100 3525 3541 
Q 3525 3141 3298 2862 
Q 3072 2584 2669 2484 
Q 3125 2378 3379 2068 
Q 3634 1759 3634 1313 
Q 3634 634 3220 271 
Q 2806 -91 2034 -91 
Q 1263 -91 848 271 
Q 434 634 434 1313 
Q 434 1759 690 2068 
Q 947 2378 1403 2484 
z
M 1172 3481 
Q 1172 3119 1398 2916 
Q 1625 2713 2034 2713 
Q 2441 2713 2670 2916 
Q 2900 3119 2900 3481 
Q 2900 3844 2670 4047 
Q 2441 4250 2034 4250 
Q 1625 4250 1398 4047 
Q 1172 3844 1172 3481 
z
" id="DejaVuSans-38" transform="scale(0.015625)"/>
       </defs>
       <use xlink:href="#DejaVuSans-30"/>
       <use x="63.623047" xlink:href="#DejaVuSans-2e"/>
       <use x="95.410156" xlink:href="#DejaVuSans-38"/>
      </g>
     </g>
    </g>
    <g id="xtick_6">
     <g id="line2d_6">
      <g>
       <use style="stroke:#000000;stroke-width:0.8;" x="414.72" xlink:href="#me46901ea6a" y="307.584"/>
      </g>
     </g>
     <g id="text_6">
      <!-- 1.0 -->
      <g transform="translate(406.768438 322.182437)scale(0.1 -0.1)">
       <defs>
        <path d="M 794 531 
L 1825 531 
L 1825 4091 
L 703 3866 
L 703 4441 
L 1819 4666 
L 2450 4666 
L 2450 531 
L 3481 531 
L 3481 0 
L 794 0 
L 794 531 
z
" id="DejaVuSans-31" transform="scale(0.015625)"/>
       </defs>
       <use xlink:href="#DejaVuSans-31"/>
       <use x="63.623047" xlink:href="#DejaVuSans-2e"/>
       <use x="95.410156" xlink:href="#DejaVuSans-30"/>
      </g>
     </g>
    </g>
    <g id="text_7">
     <!-- Recall -->
     <g transform="translate(221.242812 335.860562)scale(0.1 -0.1)">
      <defs>
       <path d="M 2841 2188 
Q 3044 2119 3236 1894 
Q 3428 1669 3622 1275 
L 4263 0 
L 3584 0 
L 2988 1197 
Q 2756 1666 2539 1819 
Q 2322 1972 1947 1972 
L 1259 1972 
L 1259 0 
L 628 0 
L 628 4666 
L 2053 4666 
Q 2853 4666 3247 4331 
Q 3641 3997 3641 3322 
Q 3641 2881 3436 2590 
Q 3231 2300 2841 2188 
z
M 1259 4147 
L 1259 2491 
L 2053 2491 
Q 2509 2491 2742 2702 
Q 2975 2913 2975 3322 
Q 2975 3731 2742 3939 
Q 2509 4147 2053 4147 
L 1259 4147 
z
" id="DejaVuSans-52" transform="scale(0.015625)"/>
       <path d="M 3597 1894 
L 3597 1613 
L 953 1613 
Q 991 1019 1311 708 
Q 1631 397 2203 397 
Q 2534 397 2845 478 
Q 3156 559 3463 722 
L 3463 178 
Q 3153 47 2828 -22 
Q 2503 -91 2169 -91 
Q 1331 -91 842 396 
Q 353 884 353 1716 
Q 353 2575 817 3079 
Q 1281 3584 2069 3584 
Q 2775 3584 3186 3129 
Q 3597 2675 3597 1894 
z
M 3022 2063 
Q 3016 2534 2758 2815 
Q 2500 3097 2075 3097 
Q 1594 3097 1305 2825 
Q 1016 2553 972 2059 
L 3022 2063 
z
" id="DejaVuSans-65" transform="scale(0.015625)"/>
       <path d="M 3122 3366 
L 3122 2828 
Q 2878 2963 2633 3030 
Q 2388 3097 2138 3097 
Q 1578 3097 1268 2742 
Q 959 2388 959 1747 
Q 959 1106 1268 751 
Q 1578 397 2138 397 
Q 2388 397 2633 464 
Q 2878 531 3122 666 
L 3122 134 
Q 2881 22 2623 -34 
Q 2366 -91 2075 -91 
Q 1284 -91 818 406 
Q 353 903 353 1747 
Q 353 2603 823 3093 
Q 1294 3584 2113 3584 
Q 2378 3584 2631 3529 
Q 2884 3475 3122 3366 
z
" id="DejaVuSans-63" transform="scale(0.015625)"/>
       <path d="M 2194 1759 
Q 1497 1759 1228 1600 
Q 959 1441 959 1056 
Q 959 750 1161 570 
Q 1363 391 1709 391 
Q 2188 391 2477 730 
Q 2766 1069 2766 1631 
L 2766 1759 
L 2194 1759 
z
M 3341 1997 
L 3341 0 
L 2766 0 
L 2766 531 
Q 2569 213 2275 61 
Q 1981 -91 1556 -91 
Q 1019 -91 701 211 
Q 384 513 384 1019 
Q 384 1609 779 1909 
Q 1175 2209 1959 2209 
L 2766 2209 
L 2766 2266 
Q 2766 2663 2505 2880 
Q 2244 3097 1772 3097 
Q 1472 3097 1187 3025 
Q 903 2953 641 2809 
L 641 3341 
Q 956 3463 1253 3523 
Q 1550 3584 1831 3584 
Q 2591 3584 2966 3190 
Q 3341 2797 3341 1997 
z
" id="DejaVuSans-61" transform="scale(0.015625)"/>
       <path d="M 603 4863 
L 1178 4863 
L 1178 0 
L 603 0 
L 603 4863 
z
" id="DejaVuSans-6c" transform="scale(0.015625)"/>
      </defs>
      <use xlink:href="#DejaVuSans-52"/>
      <use x="64.982422" xlink:href="#DejaVuSans-65"/>
      <use x="126.505859" xlink:href="#DejaVuSans-63"/>
      <use x="181.486328" xlink:href="#DejaVuSans-61"/>
      <use x="242.765625" xlink:href="#DejaVuSans-6c"/>
      <use x="270.548828" xlink:href="#DejaVuSans-6c"/>
     </g>
    </g>
   </g>
   <g id="matplotlib.axis_2">
    <g id="ytick_1">
     <g id="line2d_7">
      <defs>
       <path d="M 0 0 
L -3.5 0 
" id="m7357baf525" style="stroke:#000000;stroke-width:0.8;"/>
      </defs>
      <g>
       <use style="stroke:#000000;stroke-width:0.8;" x="57.6" xlink:href="#m7357baf525" y="307.584"/>
      </g>
     </g>
     <g id="text_8">
      <!-- 0.0 -->
      <g transform="translate(34.696875 311.383219)scale(0.1 -0.1)">
       <use xlink:href="#DejaVuSans-30"/>
       <use x="63.623047" xlink:href="#DejaVuSans-2e"/>
       <use x="95.410156" xlink:href="#DejaVuSans-30"/>
      </g>
     </g>
    </g>
    <g id="ytick_2">
     <g id="line2d_8">
      <g>
       <use style="stroke:#000000;stroke-width:0.8;" x="57.6" xlink:href="#m7357baf525" y="256.896"/>
      </g>
     </g>
     <g id="text_9">
      <!-- 0.2 -->
      <g transform="translate(34.696875 260.695219)scale(0.1 -0.1)">
       <use xlink:href="#DejaVuSans-30"/>
       <use x="63.623047" xlink:href="#DejaVuSans-2e"/>
       <use x="95.410156" xlink:href="#DejaVuSans-32"/>
      </g>
     </g>
    </g>
    <g id="ytick_3">
     <g id="line2d_9">
      <g>
       <use style="stroke:#000000;stroke-width:0.8;" x="57.6" xlink:href="#m7357baf525" y="206.208"/>
      </g>
     </g>
     <g id="text_10">
      <!-- 0.4 -->
      <g transform="translate(34.696875 210.007219)scale(0.1 -0.1)">
       <use xlink:href="#DejaVuSans-30"/>
       <use x="63.623047" xlink:href="#DejaVuSans-2e"/>
       <use x="95.410156" xlink:href="#DejaVuSans-34"/>
      </g>
     </g>
    </g>
    <g id="ytick_4">
     <g id="line2d_10">
      <g>
       <use style="stroke:#000000;stroke-width:0.8;" x="57.6" xlink:href="#m7357baf525" y="155.52"/>
      </g>
     </g>
     <g id="text_11">
      <!-- 0.6 -->
      <g transform="translate(34.696875 159.319219)scale(0.1 -0.1)">
       <use xlink:href="#DejaVuSans-30"/>
       <use x="63.623047" xlink:href="#DejaVuSans-2e"/>
       <use x="95.410156" xlink:href="#DejaVuSans-36"/>
      </g>
     </g>
    </g>
    <g id="ytick_5">
     <g id="line2d_11">
      <g>
       <use style="stroke:#000000;stroke-width:0.8;" x="57.6" xlink:href="#m7357baf525" y="104.832"/>
      </g>
     </g>
     <g id="text_12">
      <!-- 0.8 -->
      <g transform="translate(34.696875 108.631219)scale(0.1 -0.1)">
       <use xlink:href="#DejaVuSans-30"/>
       <use x="63.623047" xlink:href="#DejaVuSans-2e"/>
       <use x="95.410156" xlink:href="#DejaVuSans-38"/>
      </g>
     </g>
    </g>
    <g id="ytick_6">
     <g id="line2d_12">
      <g>
       <use style="stroke:#000000;stroke-width:0.8;" x="57.6" xlink:href="#m7357baf525" y="54.144"/>
      </g>
     </g>
     <g id="text_13">
      <!-- 1.0 -->
      <g transform="translate(34.696875 57.943219)scale(0.1 -0.1)">
       <use xlink:href="#DejaVuSans-31"/>
       <use x="63.623047" xlink:href="#DejaVuSans-2e"/>
       <use x="95.410156" xlink:href="#DejaVuSans-30"/>
      </g>
     </g>
    </g>
    <g id="text_14">
     <!-- Precision -->
     <g transform="translate(28.617187 196.835031)rotate(-90)scale(0.1 -0.1)">
      <defs>
       <path d="M 1259 4147 
L 1259 2394 
L 2053 2394 
Q 2494 2394 2734 2622 
Q 2975 2850 2975 3272 
Q 2975 3691 2734 3919 
Q 2494 4147 2053 4147 
L 1259 4147 
z
M 628 4666 
L 2053 4666 
Q 2838 4666 3239 4311 
Q 3641 3956 3641 3272 
Q 3641 2581 3239 2228 
Q 2838 1875 2053 1875 
L 1259 1875 
L 1259 0 
L 628 0 
L 628 4666 
z
" id="DejaVuSans-50" transform="scale(0.015625)"/>
       <path d="M 2631 2963 
Q 2534 3019 2420 3045 
Q 2306 3072 2169 3072 
Q 1681 3072 1420 2755 
Q 1159 2438 1159 1844 
L 1159 0 
L 581 0 
L 581 3500 
L 1159 3500 
L 1159 2956 
Q 1341 3275 1631 3429 
Q 1922 3584 2338 3584 
Q 2397 3584 2469 3576 
Q 2541 3569 2628 3553 
L 2631 2963 
z
" id="DejaVuSans-72" transform="scale(0.015625)"/>
       <path d="M 603 3500 
L 1178 3500 
L 1178 0 
L 603 0 
L 603 3500 
z
M 603 4863 
L 1178 4863 
L 1178 4134 
L 603 4134 
L 603 4863 
z
" id="DejaVuSans-69" transform="scale(0.015625)"/>
       <path d="M 2834 3397 
L 2834 2853 
Q 2591 2978 2328 3040 
Q 2066 3103 1784 3103 
Q 1356 3103 1142 2972 
Q 928 2841 928 2578 
Q 928 2378 1081 2264 
Q 1234 2150 1697 2047 
L 1894 2003 
Q 2506 1872 2764 1633 
Q 3022 1394 3022 966 
Q 3022 478 2636 193 
Q 2250 -91 1575 -91 
Q 1294 -91 989 -36 
Q 684 19 347 128 
L 347 722 
Q 666 556 975 473 
Q 1284 391 1588 391 
Q 1994 391 2212 530 
Q 2431 669 2431 922 
Q 2431 1156 2273 1281 
Q 2116 1406 1581 1522 
L 1381 1569 
Q 847 1681 609 1914 
Q 372 2147 372 2553 
Q 372 3047 722 3315 
Q 1072 3584 1716 3584 
Q 2034 3584 2315 3537 
Q 2597 3491 2834 3397 
z
" id="DejaVuSans-73" transform="scale(0.015625)"/>
       <path d="M 1959 3097 
Q 1497 3097 1228 2736 
Q 959 2375 959 1747 
Q 959 1119 1226 758 
Q 1494 397 1959 397 
Q 2419 397 2687 759 
Q 2956 1122 2956 1747 
Q 2956 2369 2687 2733 
Q 2419 3097 1959 3097 
z
M 1959 3584 
Q 2709 3584 3137 3096 
Q 3566 2609 3566 1747 
Q 3566 888 3137 398 
Q 2709 -91 1959 -91 
Q 1206 -91 779 398 
Q 353 888 353 1747 
Q 353 2609 779 3096 
Q 1206 3584 1959 3584 
z
" id="DejaVuSans-6f" transform="scale(0.015625)"/>
       <path d="M 3513 2113 
L 3513 0 
L 2938 0 
L 2938 2094 
Q 2938 2591 2744 2837 
Q 2550 3084 2163 3084 
Q 1697 3084 1428 2787 
Q 1159 2491 1159 1978 
L 1159 0 
L 581 0 
L 581 3500 
L 1159 3500 
L 1159 2956 
Q 1366 3272 1645 3428 
Q 1925 3584 2291 3584 
Q 2894 3584 3203 3211 
Q 3513 2838 3513 2113 
z
" id="DejaVuSans-6e" transform="scale(0.015625)"/>
      </defs>
      <use xlink:href="#DejaVuSans-50"/>
      <use x="58.552734" xlink:href="#DejaVuSans-72"/>
      <use x="97.416016" xlink:href="#DejaVuSans-65"/>
      <use x="158.939453" xlink:href="#DejaVuSans-63"/>
      <use x="213.919922" xlink:href="#DejaVuSans-69"/>
      <use x="241.703125" xlink:href="#DejaVuSans-73"/>
      <use x="293.802734" xlink:href="#DejaVuSans-69"/>
      <use x="321.585938" xlink:href="#DejaVuSans-6f"/>
      <use x="382.767578" xlink:href="#DejaVuSans-6e"/>
     </g>
    </g>
   </g>
   <g id="line2d_13">
    <path clip-path="url(#pe2b9e6ae9b)" d="M 414.72 109.250445 
L 414.60826 109.263941 
L 414.60826 109.166749 
L 414.60826 102.222397 
L 414.496521 102.234594 
L 414.496521 102.130355 
L 414.496521 102.078196 
L 414.384781 102.090369 
L 414.384781 101.985951 
L 414.384781 100.194477 
L 414.273041 100.206281 
L 414.273041 100.099907 
L 414.273041 97.076459 
L 414.161302 97.087634 
L 414.161302 96.978 
L 414.161302 96.538322 
L 414.049562 96.549388 
L 414.049562 96.439158 
L 414.049562 93.928186 
L 413.937822 93.938703 
L 413.937822 93.882213 
L 413.937822 92.058624 
L 413.826083 92.068737 
L 413.826083 92.011236 
L 413.826083 90.738396 
L 413.714343 90.74822 
L 413.714343 90.689994 
L 413.714343 89.988828 
L 413.602603 89.998487 
L 413.602603 89.939838 
L 413.602603 89.174522 
L 413.490864 89.184 
L 413.490864 89.124893 
L 413.490864 87.995752 
L 413.379124 88.004963 
L 413.379124 87.945198 
L 413.379124 86.68256 
L 413.267384 86.69147 
L 413.267384 86.630968 
L 413.267384 85.780448 
L 413.155645 85.789149 
L 413.155645 85.728132 
L 413.155645 83.32202 
L 413.043905 83.330136 
L 413.043905 83.26774 
L 413.043905 81.506423 
L 412.932165 81.514098 
L 412.932165 81.450667 
L 412.932165 80.4309 
L 412.820426 80.438311 
L 412.820426 80.374254 
L 412.820426 79.924842 
L 412.708686 79.932129 
L 412.708686 79.867766 
L 412.708686 79.738931 
L 412.596946 79.746173 
L 412.596946 79.681685 
L 412.596946 79.16446 
L 412.485207 79.17156 
L 412.485207 79.106725 
L 412.485207 79.041853 
L 412.373467 79.048925 
L 412.373467 78.984 
L 412.373467 78.071165 
L 412.261727 78.077991 
L 412.261727 78.012493 
L 412.261727 77.421322 
L 412.149987 77.427984 
L 412.149987 77.362093 
L 412.149987 77.296165 
L 412.038248 77.302797 
L 412.038248 77.236814 
L 412.038248 76.574897 
L 411.814768 76.52136 
L 411.814768 76.321824 
L 411.479549 76.274352 
L 411.479549 76.140955 
L 411.36781 76.1473 
L 411.36781 76.080526 
L 411.36781 74.127195 
L 411.14433 74.13883 
L 411.14433 74.070849 
L 411.14433 74.002829 
L 411.032591 74.008615 
L 411.032591 73.940537 
L 411.032591 73.531235 
L 410.809111 73.542563 
L 410.809111 73.474169 
L 410.809111 73.337263 
L 410.697372 73.342877 
L 410.697372 73.274345 
L 410.697372 72.310675 
L 410.585632 72.316013 
L 410.585632 72.246857 
L 410.585632 71.900467 
L 410.362153 71.910928 
L 410.362153 71.84149 
L 410.362153 71.772011 
L 410.250413 71.777208 
L 410.250413 71.707669 
L 410.250413 70.58944 
L 410.026934 70.528911 
L 410.026934 70.176884 
L 409.915194 70.181647 
L 409.915194 70.111097 
L 409.915194 69.828475 
L 409.579975 69.771668 
L 409.579975 69.629902 
L 409.244756 69.572756 
L 409.244756 69.00318 
L 409.021277 69.012075 
L 409.021277 68.940647 
L 409.021277 68.367673 
L 408.909537 68.371944 
L 408.909537 68.300108 
L 408.909537 67.868188 
L 408.797797 67.872318 
L 408.797797 67.800159 
L 408.797797 67.727957 
L 408.574318 67.736142 
L 408.574318 67.663855 
L 408.574318 67.591525 
L 408.462578 67.59558 
L 408.462578 67.523186 
L 408.462578 67.233169 
L 408.127359 67.24504 
L 408.127359 67.172364 
L 408.127359 67.02688 
L 407.680401 66.9696 
L 407.680401 66.896664 
L 407.568661 66.900531 
L 407.568661 66.82753 
L 407.568661 66.535084 
L 407.345181 66.46935 
L 407.345181 66.102356 
L 407.121702 66.036066 
L 407.121702 65.88878 
L 406.898223 65.822193 
L 406.898223 65.600665 
L 406.786483 65.604165 
L 406.786483 65.53021 
L 406.786483 65.382165 
L 406.674743 65.385603 
L 406.674743 65.311491 
L 406.674743 65.16313 
L 406.339524 65.098948 
L 406.339524 65.024589 
L 406.116045 65.031266 
L 406.116045 64.956818 
L 406.116045 64.658567 
L 406.004305 64.661799 
L 406.004305 64.5871 
L 406.004305 64.137937 
L 405.780826 64.144099 
L 405.780826 64.069032 
L 405.780826 63.843556 
L 405.669086 63.84655 
L 405.669086 63.771276 
L 405.669086 63.695956 
L 405.445607 63.626449 
L 405.445607 63.55099 
L 405.333867 63.553901 
L 405.333867 63.478373 
L 405.333867 63.024223 
L 405.222128 63.026978 
L 405.222128 62.951099 
L 405.222128 62.875173 
L 404.998648 62.880596 
L 404.998648 62.804578 
L 404.998648 62.728512 
L 404.775169 62.733851 
L 404.775169 62.657692 
L 404.775169 62.505232 
L 404.663429 62.507836 
L 404.663429 62.431512 
L 404.663429 62.278721 
L 404.216471 62.212315 
L 404.216471 62.059053 
L 404.104731 62.061526 
L 404.104731 61.9848 
L 404.104731 61.908026 
L 403.657772 61.917746 
L 403.657772 61.840832 
L 403.657772 61.763868 
L 403.099074 61.698691 
L 403.099074 61.621514 
L 402.987334 61.623862 
L 402.987334 61.546613 
L 402.987334 61.314575 
L 402.316896 61.250541 
L 402.316896 61.095223 
L 401.981677 61.024 
L 401.981677 60.946147 
L 401.758198 60.950445 
L 401.758198 60.872496 
L 401.758198 60.716448 
L 401.422979 60.644519 
L 401.422979 60.5663 
L 400.97602 60.496081 
L 400.97602 60.417666 
L 399.858623 60.437639 
L 399.858623 60.35893 
L 399.858623 60.280171 
L 399.076446 60.214904 
L 399.076446 60.135872 
L 398.629487 60.064358 
L 398.629487 59.985127 
L 398.517747 59.986997 
L 398.517747 59.90769 
L 398.517747 59.828332 
L 397.959049 59.837453 
L 397.959049 59.75792 
L 397.959049 59.678335 
L 397.847309 59.680113 
L 397.847309 59.600452 
L 397.847309 59.520741 
L 397.065131 59.452927 
L 397.065131 59.292894 
L 396.841652 59.216072 
L 396.841652 59.135876 
L 396.729912 59.137488 
L 396.729912 59.057215 
L 396.729912 58.976889 
L 396.282954 58.902666 
L 396.282954 58.660915 
L 395.947735 58.584545 
L 395.947735 58.503727 
L 395.612516 58.427029 
L 395.612516 58.346029 
L 395.500776 58.347395 
L 395.500776 58.266316 
L 395.500776 58.185185 
L 394.27164 58.118231 
L 394.27164 58.036706 
L 393.042503 57.968882 
L 393.042503 57.88696 
L 392.260325 57.813418 
L 392.260325 57.731202 
L 391.478148 57.65703 
L 391.478148 57.574518 
L 390.80771 57.581327 
L 390.80771 57.4986 
L 390.80771 57.415817 
L 389.913792 57.34145 
L 389.913792 57.258341 
L 388.796395 57.18528 
L 388.796395 57.018236 
L 387.455519 56.945849 
L 387.455519 56.861855 
L 386.338123 56.870994 
L 386.338123 56.786664 
L 386.338123 56.702277 
L 385.108986 56.627027 
L 385.108986 56.542216 
L 382.092015 56.478657 
L 382.092015 56.392956 
L 380.862879 56.31535 
L 380.862879 56.229211 
L 378.181126 56.159602 
L 378.181126 55.985606 
L 377.398949 55.902779 
L 377.398949 55.81542 
L 372.705882 55.751442 
L 372.705882 55.662675 
L 370.359349 55.584512 
L 370.359349 55.494959 
L 368.124556 55.414376 
L 368.124556 55.324057 
L 364.884105 55.245115 
L 364.884105 55.153721 
L 362.537572 55.069301 
L 362.537572 54.977075 
L 361.755394 54.886681 
L 361.755394 54.794084 
L 353.374919 54.717178 
L 353.374919 54.621828 
L 349.57577 54.531375 
L 349.57577 54.434642 
L 331.809161 54.350384 
L 331.809161 54.247234 
L 310.913842 54.144 
L 57.6 54.144 
L 57.6 54.144 
" style="fill:none;stroke:#87ecdc;stroke-linecap:square;stroke-width:2;"/>
   </g>
   <g id="line2d_14">
    <path clip-path="url(#pe2b9e6ae9b)" d="M 414.72 125.668429 
L 414.561702 125.691193 
L 414.561702 125.633284 
L 414.561702 116.890907 
L 414.403404 116.91185 
L 414.403404 116.848187 
L 414.403404 110.599945 
L 414.245106 110.619419 
L 414.245106 110.551453 
L 414.245106 106.243972 
L 414.086809 106.262349 
L 414.086809 106.191311 
L 414.086809 104.036611 
L 413.928511 104.05441 
L 413.928511 103.981773 
L 413.928511 103.836343 
L 413.770213 103.854096 
L 413.770213 103.781284 
L 413.770213 98.934165 
L 413.611915 98.950559 
L 413.611915 98.874165 
L 413.611915 98.260989 
L 413.453617 98.277196 
L 413.453617 98.200273 
L 413.453617 97.81481 
L 413.137021 97.769684 
L 413.137021 96.446671 
L 412.978723 96.462367 
L 412.978723 96.384 
L 412.978723 96.148548 
L 412.820426 96.164164 
L 412.820426 96.08554 
L 412.820426 94.100757 
L 412.662128 94.115761 
L 412.662128 94.03557 
L 412.662128 93.875008 
L 412.50383 93.88995 
L 412.50383 93.809553 
L 412.50383 93.487361 
L 412.345532 93.502191 
L 412.345532 93.421466 
L 412.345532 92.284895 
L 412.187234 92.299358 
L 412.187234 92.217687 
L 412.187234 91.726357 
L 412.028936 91.740653 
L 412.028936 91.658521 
L 412.028936 90.585086 
L 411.870638 90.599027 
L 411.870638 90.515986 
L 411.870638 88.249615 
L 411.71234 88.262809 
L 411.71234 88.177932 
L 411.71234 87.068527 
L 411.395745 87.008299 
L 411.395745 86.491728 
L 411.079149 86.517 
L 411.079149 86.430612 
L 411.079149 85.039163 
L 410.920851 85.051317 
L 410.920851 84.96374 
L 410.920851 84.436828 
L 410.762553 84.448783 
L 410.762553 84.360692 
L 410.762553 83.91919 
L 410.604255 83.930973 
L 410.604255 83.842432 
L 410.604255 83.487569 
L 410.445957 83.499208 
L 410.445957 83.410286 
L 410.445957 82.964612 
L 410.28766 82.976076 
L 410.28766 82.886698 
L 410.28766 81.084072 
L 410.129362 81.094883 
L 410.129362 81.00396 
L 410.129362 80.182356 
L 409.654468 80.122111 
L 409.654468 79.200467 
L 409.337872 79.128146 
L 409.337872 78.104098 
L 409.021277 78.123641 
L 409.021277 78.030022 
L 409.021277 77.748706 
L 408.862979 77.758352 
L 408.862979 77.664392 
L 408.862979 77.193439 
L 408.704681 77.202885 
L 408.704681 77.108428 
L 408.704681 76.824591 
L 408.546383 76.833906 
L 408.546383 76.739103 
L 408.546383 76.454226 
L 408.229787 76.472596 
L 408.229787 76.37741 
L 408.229787 75.900302 
L 407.913191 75.822545 
L 407.913191 75.246502 
L 407.754894 75.255247 
L 407.754894 75.158925 
L 407.754894 75.062523 
L 407.596596 75.071203 
L 407.596596 74.974685 
L 407.596596 74.587809 
L 407.438298 74.596313 
L 407.438298 74.499356 
L 407.438298 74.013358 
L 407.28 74.021647 
L 407.28 73.924167 
L 407.28 73.533431 
L 407.121702 73.541541 
L 407.121702 73.443615 
L 407.121702 73.149346 
L 406.963404 73.157311 
L 406.963404 73.059019 
L 406.963404 72.467531 
L 406.488511 72.39168 
L 406.488511 72.29261 
L 406.330213 72.300258 
L 406.330213 72.201066 
L 406.330213 72.10179 
L 406.013617 72.017514 
L 406.013617 71.818387 
L 405.538723 71.840826 
L 405.538723 71.741019 
L 405.538723 71.541153 
L 405.06383 71.463117 
L 405.06383 71.362854 
L 404.747234 71.277061 
L 404.747234 71.176548 
L 404.430638 71.19105 
L 404.430638 71.090371 
L 404.430638 70.989607 
L 404.27234 70.996788 
L 404.27234 70.895898 
L 404.27234 70.491475 
L 403.639149 70.417973 
L 403.639149 69.909251 
L 403.164255 69.827438 
L 403.164255 69.725221 
L 403.005957 69.731923 
L 403.005957 69.629577 
L 403.005957 69.42462 
L 402.689362 69.3351 
L 402.689362 68.717074 
L 402.372766 68.729686 
L 402.372766 68.626286 
L 402.372766 67.69164 
L 402.05617 67.599039 
L 402.05617 67.285333 
L 401.739574 67.191958 
L 401.739574 66.982009 
L 401.264681 66.998849 
L 401.264681 66.893606 
L 401.264681 66.788271 
L 401.106383 66.793807 
L 401.106383 66.688336 
L 401.106383 66.582773 
L 400.631489 66.493359 
L 400.631489 66.281504 
L 400.473191 66.28684 
L 400.473191 66.180728 
L 400.473191 65.861834 
L 399.681702 65.78098 
L 399.681702 65.460286 
L 399.523404 65.465291 
L 399.523404 65.358159 
L 399.523404 65.250932 
L 399.206809 65.260774 
L 399.206809 65.153362 
L 399.206809 64.830551 
L 398.573617 64.74158 
L 398.573617 64.525336 
L 398.415319 64.52996 
L 398.415319 64.421647 
L 398.415319 64.313238 
L 397.465532 64.231728 
L 397.465532 64.013866 
L 397.148936 64.02271 
L 397.148936 63.913538 
L 397.148936 63.804269 
L 395.724255 63.733622 
L 395.724255 63.62373 
L 395.40766 63.522195 
L 395.40766 63.412009 
L 394.457872 63.326609 
L 394.457872 63.10516 
L 393.349787 63.133686 
L 393.349787 63.022471 
L 392.558298 63.042714 
L 392.558298 62.819491 
L 392.4 62.823452 
L 392.4 62.711638 
L 392.241702 62.715554 
L 392.241702 62.491521 
L 391.766809 62.502992 
L 391.766809 62.390673 
L 391.291915 62.402027 
L 391.291915 62.289455 
L 390.817021 62.30069 
L 390.817021 62.187864 
L 390.658723 62.191566 
L 390.658723 62.078586 
L 390.342128 62.085899 
L 390.342128 61.972714 
L 390.18383 61.976325 
L 390.18383 61.862985 
L 389.39234 61.880836 
L 389.39234 61.767137 
L 389.234043 61.770667 
L 389.234043 61.656811 
L 388.442553 61.674251 
L 388.442553 61.560033 
L 388.284255 61.56348 
L 388.284255 61.449105 
L 388.125957 61.452502 
L 388.125957 61.108583 
L 387.651064 61.118328 
L 387.651064 60.772977 
L 386.859574 60.788494 
L 386.859574 60.672899 
L 386.542979 60.679021 
L 386.542979 60.447294 
L 386.226383 60.453216 
L 386.226383 60.337083 
L 385.118298 60.357522 
L 385.118298 60.240906 
L 383.693617 60.266899 
L 383.693617 60.032364 
L 382.427234 60.054785 
L 382.427234 59.936914 
L 382.268936 59.939674 
L 382.268936 59.703485 
L 381.95234 59.708792 
L 381.95234 59.471931 
L 381.794043 59.474478 
L 381.794043 59.355822 
L 381.002553 59.368314 
L 381.002553 59.249266 
L 380.211064 59.261538 
L 380.211064 59.142095 
L 380.052766 59.1445 
L 380.052766 59.024886 
L 377.361702 59.065165 
L 377.361702 58.944466 
L 377.045106 58.949134 
L 377.045106 58.707153 
L 376.095319 58.720515 
L 376.095319 58.599 
L 373.720851 58.63187 
L 373.720851 58.509354 
L 373.245957 58.515809 
L 373.245957 58.270058 
L 372.137872 58.284356 
L 372.137872 58.16088 
L 371.821277 58.164863 
L 371.821277 57.9173 
L 367.07234 57.974327 
L 367.07234 57.848516 
L 366.755745 57.852254 
L 366.755745 57.726191 
L 366.597447 57.728 
L 366.597447 57.475365 
L 366.122553 57.480425 
L 366.122553 57.353726 
L 365.964255 57.355353 
L 365.964255 57.228462 
L 364.222979 57.245764 
L 364.222979 57.118041 
L 363.906383 57.121079 
L 363.906383 56.993096 
L 362.323404 57.007729 
L 362.323404 56.878964 
L 359.948936 56.900209 
L 359.948936 56.770321 
L 359.63234 56.773046 
L 359.63234 56.642889 
L 358.20766 56.654615 
L 358.20766 56.523718 
L 357.732766 56.527448 
L 357.732766 56.396211 
L 356.466383 56.405669 
L 356.466383 56.273748 
L 353.775319 56.292935 
L 353.775319 56.159695 
L 349.184681 56.191173 
L 349.184681 56.055724 
L 342.852766 56.097833 
L 342.852766 55.959273 
L 340.478298 55.9744 
L 340.478298 55.834539 
L 336.995745 55.855469 
L 336.995745 55.71373 
L 333.988085 55.730705 
L 333.671489 55.588926 
L 331.613617 55.599715 
L 331.613617 55.454897 
L 329.555745 55.464764 
L 329.555745 55.318693 
L 325.914894 55.334558 
L 325.914894 55.18635 
L 320.691064 55.20696 
L 320.691064 55.055655 
L 313.251064 55.082088 
L 313.251064 54.926222 
L 311.668085 54.931081 
L 311.668085 54.774056 
L 302.486809 54.797617 
L 302.486809 54.634529 
L 296.788085 54.646193 
L 296.788085 54.479017 
L 296.313191 54.479682 
L 296.313191 54.311952 
L 274.151489 54.329128 
L 274.151489 54.144 
L 57.6 54.144 
L 57.6 54.144 
" style="fill:none;stroke:#ceed76;stroke-linecap:square;stroke-width:2;"/>
   </g>
   <g id="line2d_15">
    <path clip-path="url(#pe2b9e6ae9b)" d="M 414.72 132.056195 
L 414.654497 132.066094 
L 414.654497 131.954526 
L 414.588995 115.370251 
L 414.523492 115.378772 
L 414.523492 115.271709 
L 414.45799 110.504194 
L 414.392487 110.51224 
L 414.392487 110.427805 
L 414.326985 104.12966 
L 414.261482 104.13703 
L 414.261482 104.047009 
L 414.195979 102.145144 
L 414.130477 102.152292 
L 414.130477 102.060472 
L 414.064974 99.085061 
L 413.999472 99.091856 
L 413.999472 98.997245 
L 413.933969 97.350148 
L 413.868467 97.356738 
L 413.868467 97.260509 
L 413.802964 95.323609 
L 413.737461 95.329952 
L 413.737461 95.231822 
L 413.671959 93.555751 
L 413.606456 93.561874 
L 413.606456 93.462066 
L 413.540954 92.699781 
L 413.475451 92.705798 
L 413.475451 92.605152 
L 413.409949 92.241269 
L 413.344446 92.247229 
L 413.344446 92.146116 
L 413.278944 91.441515 
L 413.213441 91.447374 
L 413.213441 91.345471 
L 413.147938 90.258199 
L 413.082436 90.263905 
L 413.082436 90.160845 
L 413.016933 89.303771 
L 412.951431 89.309353 
L 412.951431 89.205347 
L 412.885928 88.689325 
L 412.820426 88.694827 
L 412.820426 88.590195 
L 412.754923 87.332088 
L 412.68942 87.337408 
L 412.68942 87.231435 
L 412.623918 86.313897 
L 412.558415 86.31908 
L 412.558415 86.212085 
L 412.558415 84.340931 
L 412.492913 84.34584 
L 412.42741 84.350751 
L 412.42741 84.241804 
L 412.361908 83.224562 
L 412.296405 83.229316 
L 412.296405 83.119231 
L 412.230902 82.866647 
L 412.1654 82.871351 
L 412.1654 82.760873 
L 412.099897 82.581165 
L 411.968892 82.479682 
L 411.90339 81.817043 
L 411.837887 81.821602 
L 411.837887 81.747203 
L 411.772384 80.930001 
L 411.706882 80.934432 
L 411.706882 80.859419 
L 411.641379 80.374977 
L 411.575877 80.379328 
L 411.575877 80.30392 
L 411.510374 79.89256 
L 411.444872 79.896842 
L 411.444872 79.821085 
L 411.379369 79.293566 
L 411.313866 79.297761 
L 411.313866 79.221577 
L 411.248364 79.111374 
L 411.182861 79.115543 
L 411.182861 79.039209 
L 411.182861 79.001023 
L 411.117359 79.005176 
L 410.986354 78.975272 
L 410.986354 78.937043 
L 410.920851 77.284916 
L 410.855348 77.288816 
L 410.855348 77.211184 
L 410.855348 76.822237 
L 410.789846 76.826067 
L 410.724343 76.829898 
L 410.724343 76.751927 
L 410.658841 76.56056 
L 410.593338 76.564352 
L 410.593338 76.486173 
L 410.593338 76.290493 
L 410.527836 76.294244 
L 410.396831 76.30175 
L 410.396831 76.223349 
L 410.331328 75.79487 
L 410.200323 75.723443 
L 410.13482 74.936195 
L 410.069318 74.939742 
L 410.069318 74.860341 
L 410.003815 74.505846 
L 409.807307 74.436544 
L 409.741805 74.200403 
L 409.676302 74.203839 
L 409.676302 74.123846 
L 409.6108 73.324186 
L 409.545297 73.327485 
L 409.545297 73.24686 
L 409.545297 73.045054 
L 409.479795 73.04831 
L 409.348789 73.054825 
L 409.348789 72.973967 
L 409.283287 72.612603 
L 409.152282 72.578388 
L 409.152282 72.537779 
L 409.086779 72.134028 
L 408.955774 72.058678 
L 408.890271 71.857548 
L 408.759266 71.781876 
L 408.759266 71.7 
L 408.693764 71.703048 
L 408.497256 71.630215 
L 408.431753 70.892694 
L 408.235246 70.90146 
L 408.235246 70.818848 
L 408.169743 70.324794 
L 408.104241 70.327625 
L 408.104241 70.244581 
L 408.038738 69.706105 
L 407.776728 69.717034 
L 407.776728 69.633484 
L 407.711225 69.552582 
L 407.58022 69.516152 
L 407.58022 69.47429 
L 407.514718 69.267422 
L 407.252707 69.194093 
L 407.252707 69.068006 
L 407.187205 69.070637 
L 406.990697 69.036451 
L 406.990697 68.994349 
L 406.990697 68.952233 
L 406.925194 68.954847 
L 406.859692 68.957463 
L 406.859692 68.873157 
L 406.794189 68.749169 
L 406.597682 68.672408 
L 406.532179 68.421045 
L 406.401174 68.383716 
L 406.401174 68.341313 
L 406.401174 68.298894 
L 406.335671 68.301404 
L 406.204666 68.263972 
L 406.204666 68.221501 
L 406.139164 68.139 
L 406.008158 68.101435 
L 406.008158 68.058883 
L 405.942656 67.933587 
L 405.746148 67.85565 
L 405.680646 67.387788 
L 405.28763 67.359086 
L 405.28763 67.316181 
L 405.222128 67.060738 
L 405.02562 67.02463 
L 405.02562 66.981573 
L 404.960117 66.854586 
L 404.76361 66.775108 
L 404.698107 66.344812 
L 404.632605 66.347004 
L 404.632605 66.26029 
L 404.632605 66.21691 
L 404.567102 66.219081 
L 404.501599 66.221252 
L 404.501599 66.134416 
L 404.436097 65.875643 
L 404.305092 65.87987 
L 404.305092 65.792738 
L 404.239589 65.401898 
L 404.174087 65.403931 
L 404.174087 65.316423 
L 404.174087 65.272645 
L 404.108584 65.274656 
L 404.043081 65.276668 
L 404.043081 65.189034 
L 403.977579 64.839801 
L 403.912076 64.841739 
L 403.912076 64.753757 
L 403.912076 64.709742 
L 403.846574 64.711658 
L 403.650066 64.629269 
L 403.584563 64.498821 
L 403.322553 64.417972 
L 403.322553 64.285288 
L 403.257051 64.287133 
L 403.126045 64.202241 
L 403.060543 64.026682 
L 402.73303 63.991267 
L 402.73303 63.946824 
L 402.667528 63.681567 
L 402.47102 63.597604 
L 402.47102 63.552983 
L 402.405517 63.554704 
L 402.012502 63.475643 
L 402.012502 63.430918 
L 401.946999 63.43262 
L 401.881497 63.434323 
L 401.881497 63.344792 
L 401.815994 63.256867 
L 401.553984 63.173818 
L 401.488481 62.995765 
L 401.422979 62.997392 
L 401.422979 62.907421 
L 401.357476 62.773928 
L 400.767953 62.697951 
L 400.70245 62.473453 
L 400.309435 62.392047 
L 400.309435 62.301336 
L 400.243933 62.302846 
L 399.981922 62.218029 
L 399.981922 62.127102 
L 399.91642 62.128581 
L 399.719912 62.041963 
L 399.654409 61.906688 
L 398.802876 61.834007 
L 398.802876 61.74248 
L 398.737373 61.743896 
L 397.88584 61.670515 
L 397.820337 61.534026 
L 397.165312 61.455682 
L 397.165312 61.409565 
L 397.099809 61.410927 
L 396.510286 61.376985 
L 396.510286 61.330749 
L 396.510286 61.284496 
L 396.444784 61.285837 
L 396.117271 61.199892 
L 396.051768 61.062072 
L 395.59325 61.024724 
L 395.59325 60.97823 
L 395.527748 60.746741 
L 394.807219 60.713779 
L 394.807219 60.667058 
L 394.807219 60.62032 
L 394.741717 60.621546 
L 394.414204 60.534051 
L 394.348701 60.441542 
L 394.086691 60.352462 
L 394.086691 60.258529 
L 394.021189 60.259691 
L 393.759178 60.170251 
L 393.759178 60.123178 
L 393.693676 60.124316 
L 393.366163 60.035707 
L 393.366163 59.988528 
L 393.30066 59.989642 
L 393.03865 59.946862 
L 393.03865 59.899603 
L 393.03865 59.852326 
L 392.973147 59.853416 
L 392.842142 59.808275 
L 392.842142 59.760935 
L 392.842142 59.666202 
L 392.77664 59.667258 
L 392.514629 59.624046 
L 392.514629 59.576589 
L 392.449127 59.435124 
L 391.990609 59.347008 
L 391.990609 59.299371 
L 391.925106 59.300361 
L 391.794101 59.302341 
L 391.794101 59.206958 
L 391.794101 59.111502 
L 391.728599 59.112457 
L 390.549552 59.033832 
L 390.549552 58.985868 
L 390.48405 58.986803 
L 389.894527 58.99523 
L 389.894527 58.899064 
L 389.894527 58.850953 
L 389.829024 58.851864 
L 388.649978 58.771692 
L 388.584475 58.627484 
L 388.125957 58.536631 
L 388.125957 58.488122 
L 388.060455 58.488968 
L 387.405429 58.400169 
L 387.405429 58.3515 
L 387.339927 58.352322 
L 386.619398 58.263765 
L 386.619398 58.214927 
L 386.553896 58.215724 
L 386.357388 58.218119 
L 386.357388 58.120309 
L 386.357388 58.071375 
L 386.291886 58.072146 
L 384.457814 57.995368 
L 384.457814 57.9461 
L 384.392311 57.946851 
L 383.933793 57.853367 
L 383.868291 57.705805 
L 381.903213 57.627538 
L 381.903213 57.577736 
L 381.837711 57.57842 
L 380.920675 57.48807 
L 380.920675 57.337983 
L 380.855172 57.338622 
L 380.003639 57.246517 
L 380.003639 57.146 
L 379.938136 57.146602 
L 376.335495 57.078406 
L 376.269993 56.926224 
L 375.745972 56.828636 
L 375.745972 56.777545 
L 375.68047 56.778082 
L 374.042905 56.688787 
L 374.042905 56.637363 
L 373.977403 56.637875 
L 372.863859 56.543308 
L 372.863859 56.491633 
L 372.798357 56.492116 
L 371.029787 56.401233 
L 371.029787 56.349196 
L 370.964285 56.349653 
L 369.785238 56.253363 
L 369.785238 56.201057 
L 369.719736 56.201485 
L 368.737197 56.102905 
L 368.671695 55.998181 
L 363.103977 55.924609 
L 363.103977 55.871019 
L 363.038474 55.871387 
L 360.418371 55.778043 
L 360.418371 55.723914 
L 360.352869 55.724254 
L 357.470756 55.629967 
L 357.470756 55.575242 
L 357.405253 55.575553 
L 353.933617 55.481414 
L 353.933617 55.425971 
L 353.868114 55.426253 
L 352.296053 55.377285 
L 352.296053 55.321487 
L 352.23055 55.321747 
L 351.641027 55.268152 
L 351.641027 55.212181 
L 351.575525 55.212418 
L 349.741453 55.162741 
L 349.741453 55.106359 
L 349.67595 55.106574 
L 347.514365 55.056886 
L 347.514365 55.000023 
L 347.448863 55.000216 
L 342.863683 54.956122 
L 342.863683 54.898286 
L 342.79818 54.898458 
L 341.029611 54.844917 
L 341.029611 54.786656 
L 340.964109 54.786804 
L 336.902949 54.736981 
L 336.902949 54.677808 
L 336.837447 54.677933 
L 329.108144 54.632206 
L 329.108144 54.571283 
L 329.042641 54.571386 
L 322.295877 54.519745 
L 322.295877 54.457198 
L 322.230374 54.457276 
L 309.457373 54.407383 
L 309.457373 54.341588 
L 309.391871 54.34164 
L 300.287014 54.280736 
L 300.287014 54.212386 
L 300.221511 54.212405 
L 148.779574 54.144 
L 57.6 54.144 
L 57.6 54.144 
" style="fill:none;stroke:#ff1493;stroke-dasharray:4,6.6;stroke-dashoffset:0;stroke-width:4;"/>
   </g>
   <g id="line2d_16">
    <path clip-path="url(#pe2b9e6ae9b)" d="M 57.6 307.584 
L 414.72 54.144 
" style="fill:none;stroke:#000000;stroke-dasharray:7.4,3.2;stroke-dashoffset:0;stroke-width:2;"/>
   </g>
   <g id="line2d_17">
    <path clip-path="url(#pe2b9e6ae9b)" d="M 57.6 307.584 
L 414.72 54.144 
" style="fill:none;stroke:#000000;stroke-dasharray:7.4,3.2;stroke-dashoffset:0;stroke-width:2;"/>
   </g>
   <g id="patch_3">
    <path d="M 57.6 307.584 
L 57.6 41.472 
" style="fill:none;stroke:#000000;stroke-linecap:square;stroke-linejoin:miter;stroke-width:0.8;"/>
   </g>
   <g id="patch_4">
    <path d="M 414.72 307.584 
L 414.72 41.472 
" style="fill:none;stroke:#000000;stroke-linecap:square;stroke-linejoin:miter;stroke-width:0.8;"/>
   </g>
   <g id="patch_5">
    <path d="M 57.6 307.584 
L 414.72 307.584 
" style="fill:none;stroke:#000000;stroke-linecap:square;stroke-linejoin:miter;stroke-width:0.8;"/>
   </g>
   <g id="patch_6">
    <path d="M 57.6 41.472 
L 414.72 41.472 
" style="fill:none;stroke:#000000;stroke-linecap:square;stroke-linejoin:miter;stroke-width:0.8;"/>
   </g>
   <g id="text_15">
    <!-- PR Curves -->
    <g transform="translate(205.63875 35.472)scale(0.12 -0.12)">
     <defs>
      <path id="DejaVuSans-20" transform="scale(0.015625)"/>
      <path d="M 4122 4306 
L 4122 3641 
Q 3803 3938 3442 4084 
Q 3081 4231 2675 4231 
Q 1875 4231 1450 3742 
Q 1025 3253 1025 2328 
Q 1025 1406 1450 917 
Q 1875 428 2675 428 
Q 3081 428 3442 575 
Q 3803 722 4122 1019 
L 4122 359 
Q 3791 134 3420 21 
Q 3050 -91 2638 -91 
Q 1578 -91 968 557 
Q 359 1206 359 2328 
Q 359 3453 968 4101 
Q 1578 4750 2638 4750 
Q 3056 4750 3426 4639 
Q 3797 4528 4122 4306 
z
" id="DejaVuSans-43" transform="scale(0.015625)"/>
      <path d="M 544 1381 
L 544 3500 
L 1119 3500 
L 1119 1403 
Q 1119 906 1312 657 
Q 1506 409 1894 409 
Q 2359 409 2629 706 
Q 2900 1003 2900 1516 
L 2900 3500 
L 3475 3500 
L 3475 0 
L 2900 0 
L 2900 538 
Q 2691 219 2414 64 
Q 2138 -91 1772 -91 
Q 1169 -91 856 284 
Q 544 659 544 1381 
z
M 1991 3584 
L 1991 3584 
z
" id="DejaVuSans-75" transform="scale(0.015625)"/>
      <path d="M 191 3500 
L 800 3500 
L 1894 563 
L 2988 3500 
L 3597 3500 
L 2284 0 
L 1503 0 
L 191 3500 
z
" id="DejaVuSans-76" transform="scale(0.015625)"/>
     </defs>
     <use xlink:href="#DejaVuSans-50"/>
     <use x="60.302734" xlink:href="#DejaVuSans-52"/>
     <use x="129.785156" xlink:href="#DejaVuSans-20"/>
     <use x="161.572266" xlink:href="#DejaVuSans-43"/>
     <use x="231.396484" xlink:href="#DejaVuSans-75"/>
     <use x="294.775391" xlink:href="#DejaVuSans-72"/>
     <use x="335.888672" xlink:href="#DejaVuSans-76"/>
     <use x="395.068359" xlink:href="#DejaVuSans-65"/>
     <use x="456.591797" xlink:href="#DejaVuSans-73"/>
    </g>
   </g>
   <g id="legend_1">
    <g id="patch_7">
     <path d="M 64.6 302.584 
L 286.989063 302.584 
Q 288.989063 302.584 288.989063 300.584 
L 288.989063 257.549625 
Q 288.989063 255.549625 286.989063 255.549625 
L 64.6 255.549625 
Q 62.6 255.549625 62.6 257.549625 
L 62.6 300.584 
Q 62.6 302.584 64.6 302.584 
z
" style="fill:#ffffff;opacity:0.8;stroke:#cccccc;stroke-linejoin:miter;"/>
    </g>
    <g id="line2d_18">
     <path d="M 66.6 263.648062 
L 86.6 263.648062 
" style="fill:none;stroke:#87ecdc;stroke-linecap:square;stroke-width:2;"/>
    </g>
    <g id="line2d_19"/>
    <g id="text_16">
     <!-- PR curve of CD4 (area = 1.00) -->
     <g transform="translate(94.6 267.148062)scale(0.1 -0.1)">
      <defs>
       <path d="M 2375 4863 
L 2375 4384 
L 1825 4384 
Q 1516 4384 1395 4259 
Q 1275 4134 1275 3809 
L 1275 3500 
L 2222 3500 
L 2222 3053 
L 1275 3053 
L 1275 0 
L 697 0 
L 697 3053 
L 147 3053 
L 147 3500 
L 697 3500 
L 697 3744 
Q 697 4328 969 4595 
Q 1241 4863 1831 4863 
L 2375 4863 
z
" id="DejaVuSans-66" transform="scale(0.015625)"/>
       <path d="M 1259 4147 
L 1259 519 
L 2022 519 
Q 2988 519 3436 956 
Q 3884 1394 3884 2338 
Q 3884 3275 3436 3711 
Q 2988 4147 2022 4147 
L 1259 4147 
z
M 628 4666 
L 1925 4666 
Q 3281 4666 3915 4102 
Q 4550 3538 4550 2338 
Q 4550 1131 3912 565 
Q 3275 0 1925 0 
L 628 0 
L 628 4666 
z
" id="DejaVuSans-44" transform="scale(0.015625)"/>
       <path d="M 1984 4856 
Q 1566 4138 1362 3434 
Q 1159 2731 1159 2009 
Q 1159 1288 1364 580 
Q 1569 -128 1984 -844 
L 1484 -844 
Q 1016 -109 783 600 
Q 550 1309 550 2009 
Q 550 2706 781 3412 
Q 1013 4119 1484 4856 
L 1984 4856 
z
" id="DejaVuSans-28" transform="scale(0.015625)"/>
       <path d="M 678 2906 
L 4684 2906 
L 4684 2381 
L 678 2381 
L 678 2906 
z
M 678 1631 
L 4684 1631 
L 4684 1100 
L 678 1100 
L 678 1631 
z
" id="DejaVuSans-3d" transform="scale(0.015625)"/>
       <path d="M 513 4856 
L 1013 4856 
Q 1481 4119 1714 3412 
Q 1947 2706 1947 2009 
Q 1947 1309 1714 600 
Q 1481 -109 1013 -844 
L 513 -844 
Q 928 -128 1133 580 
Q 1338 1288 1338 2009 
Q 1338 2731 1133 3434 
Q 928 4138 513 4856 
z
" id="DejaVuSans-29" transform="scale(0.015625)"/>
      </defs>
      <use xlink:href="#DejaVuSans-50"/>
      <use x="60.302734" xlink:href="#DejaVuSans-52"/>
      <use x="129.785156" xlink:href="#DejaVuSans-20"/>
      <use x="161.572266" xlink:href="#DejaVuSans-63"/>
      <use x="216.552734" xlink:href="#DejaVuSans-75"/>
      <use x="279.931641" xlink:href="#DejaVuSans-72"/>
      <use x="321.044922" xlink:href="#DejaVuSans-76"/>
      <use x="380.224609" xlink:href="#DejaVuSans-65"/>
      <use x="441.748047" xlink:href="#DejaVuSans-20"/>
      <use x="473.535156" xlink:href="#DejaVuSans-6f"/>
      <use x="534.716797" xlink:href="#DejaVuSans-66"/>
      <use x="569.921875" xlink:href="#DejaVuSans-20"/>
      <use x="601.708984" xlink:href="#DejaVuSans-43"/>
      <use x="671.533203" xlink:href="#DejaVuSans-44"/>
      <use x="748.535156" xlink:href="#DejaVuSans-34"/>
      <use x="812.158203" xlink:href="#DejaVuSans-20"/>
      <use x="843.945312" xlink:href="#DejaVuSans-28"/>
      <use x="882.958984" xlink:href="#DejaVuSans-61"/>
      <use x="944.238281" xlink:href="#DejaVuSans-72"/>
      <use x="983.101562" xlink:href="#DejaVuSans-65"/>
      <use x="1044.625" xlink:href="#DejaVuSans-61"/>
      <use x="1105.904297" xlink:href="#DejaVuSans-20"/>
      <use x="1137.691406" xlink:href="#DejaVuSans-3d"/>
      <use x="1221.480469" xlink:href="#DejaVuSans-20"/>
      <use x="1253.267578" xlink:href="#DejaVuSans-31"/>
      <use x="1316.890625" xlink:href="#DejaVuSans-2e"/>
      <use x="1348.677734" xlink:href="#DejaVuSans-30"/>
      <use x="1412.300781" xlink:href="#DejaVuSans-30"/>
      <use x="1475.923828" xlink:href="#DejaVuSans-29"/>
     </g>
    </g>
    <g id="line2d_20">
     <path d="M 66.6 278.326188 
L 86.6 278.326188 
" style="fill:none;stroke:#ceed76;stroke-linecap:square;stroke-width:2;"/>
    </g>
    <g id="line2d_21"/>
    <g id="text_17">
     <!-- PR curve of CD8 (area = 0.99) -->
     <g transform="translate(94.6 281.826188)scale(0.1 -0.1)">
      <defs>
       <path d="M 703 97 
L 703 672 
Q 941 559 1184 500 
Q 1428 441 1663 441 
Q 2288 441 2617 861 
Q 2947 1281 2994 2138 
Q 2813 1869 2534 1725 
Q 2256 1581 1919 1581 
Q 1219 1581 811 2004 
Q 403 2428 403 3163 
Q 403 3881 828 4315 
Q 1253 4750 1959 4750 
Q 2769 4750 3195 4129 
Q 3622 3509 3622 2328 
Q 3622 1225 3098 567 
Q 2575 -91 1691 -91 
Q 1453 -91 1209 -44 
Q 966 3 703 97 
z
M 1959 2075 
Q 2384 2075 2632 2365 
Q 2881 2656 2881 3163 
Q 2881 3666 2632 3958 
Q 2384 4250 1959 4250 
Q 1534 4250 1286 3958 
Q 1038 3666 1038 3163 
Q 1038 2656 1286 2365 
Q 1534 2075 1959 2075 
z
" id="DejaVuSans-39" transform="scale(0.015625)"/>
      </defs>
      <use xlink:href="#DejaVuSans-50"/>
      <use x="60.302734" xlink:href="#DejaVuSans-52"/>
      <use x="129.785156" xlink:href="#DejaVuSans-20"/>
      <use x="161.572266" xlink:href="#DejaVuSans-63"/>
      <use x="216.552734" xlink:href="#DejaVuSans-75"/>
      <use x="279.931641" xlink:href="#DejaVuSans-72"/>
      <use x="321.044922" xlink:href="#DejaVuSans-76"/>
      <use x="380.224609" xlink:href="#DejaVuSans-65"/>
      <use x="441.748047" xlink:href="#DejaVuSans-20"/>
      <use x="473.535156" xlink:href="#DejaVuSans-6f"/>
      <use x="534.716797" xlink:href="#DejaVuSans-66"/>
      <use x="569.921875" xlink:href="#DejaVuSans-20"/>
      <use x="601.708984" xlink:href="#DejaVuSans-43"/>
      <use x="671.533203" xlink:href="#DejaVuSans-44"/>
      <use x="748.535156" xlink:href="#DejaVuSans-38"/>
      <use x="812.158203" xlink:href="#DejaVuSans-20"/>
      <use x="843.945312" xlink:href="#DejaVuSans-28"/>
      <use x="882.958984" xlink:href="#DejaVuSans-61"/>
      <use x="944.238281" xlink:href="#DejaVuSans-72"/>
      <use x="983.101562" xlink:href="#DejaVuSans-65"/>
      <use x="1044.625" xlink:href="#DejaVuSans-61"/>
      <use x="1105.904297" xlink:href="#DejaVuSans-20"/>
      <use x="1137.691406" xlink:href="#DejaVuSans-3d"/>
      <use x="1221.480469" xlink:href="#DejaVuSans-20"/>
      <use x="1253.267578" xlink:href="#DejaVuSans-30"/>
      <use x="1316.890625" xlink:href="#DejaVuSans-2e"/>
      <use x="1348.677734" xlink:href="#DejaVuSans-39"/>
      <use x="1412.300781" xlink:href="#DejaVuSans-39"/>
      <use x="1475.923828" xlink:href="#DejaVuSans-29"/>
     </g>
    </g>
    <g id="line2d_22">
     <path d="M 66.6 293.004312 
L 86.6 293.004312 
" style="fill:none;stroke:#ff1493;stroke-dasharray:4,6.6;stroke-dashoffset:0;stroke-width:4;"/>
    </g>
    <g id="line2d_23"/>
    <g id="text_18">
     <!-- micro-average PR curve (area = 0.99) -->
     <g transform="translate(94.6 296.504312)scale(0.1 -0.1)">
      <defs>
       <path d="M 3328 2828 
Q 3544 3216 3844 3400 
Q 4144 3584 4550 3584 
Q 5097 3584 5394 3201 
Q 5691 2819 5691 2113 
L 5691 0 
L 5113 0 
L 5113 2094 
Q 5113 2597 4934 2840 
Q 4756 3084 4391 3084 
Q 3944 3084 3684 2787 
Q 3425 2491 3425 1978 
L 3425 0 
L 2847 0 
L 2847 2094 
Q 2847 2600 2669 2842 
Q 2491 3084 2119 3084 
Q 1678 3084 1418 2786 
Q 1159 2488 1159 1978 
L 1159 0 
L 581 0 
L 581 3500 
L 1159 3500 
L 1159 2956 
Q 1356 3278 1631 3431 
Q 1906 3584 2284 3584 
Q 2666 3584 2933 3390 
Q 3200 3197 3328 2828 
z
" id="DejaVuSans-6d" transform="scale(0.015625)"/>
       <path d="M 313 2009 
L 1997 2009 
L 1997 1497 
L 313 1497 
L 313 2009 
z
" id="DejaVuSans-2d" transform="scale(0.015625)"/>
       <path d="M 2906 1791 
Q 2906 2416 2648 2759 
Q 2391 3103 1925 3103 
Q 1463 3103 1205 2759 
Q 947 2416 947 1791 
Q 947 1169 1205 825 
Q 1463 481 1925 481 
Q 2391 481 2648 825 
Q 2906 1169 2906 1791 
z
M 3481 434 
Q 3481 -459 3084 -895 
Q 2688 -1331 1869 -1331 
Q 1566 -1331 1297 -1286 
Q 1028 -1241 775 -1147 
L 775 -588 
Q 1028 -725 1275 -790 
Q 1522 -856 1778 -856 
Q 2344 -856 2625 -561 
Q 2906 -266 2906 331 
L 2906 616 
Q 2728 306 2450 153 
Q 2172 0 1784 0 
Q 1141 0 747 490 
Q 353 981 353 1791 
Q 353 2603 747 3093 
Q 1141 3584 1784 3584 
Q 2172 3584 2450 3431 
Q 2728 3278 2906 2969 
L 2906 3500 
L 3481 3500 
L 3481 434 
z
" id="DejaVuSans-67" transform="scale(0.015625)"/>
      </defs>
      <use xlink:href="#DejaVuSans-6d"/>
      <use x="97.412109" xlink:href="#DejaVuSans-69"/>
      <use x="125.195312" xlink:href="#DejaVuSans-63"/>
      <use x="180.175781" xlink:href="#DejaVuSans-72"/>
      <use x="219.039062" xlink:href="#DejaVuSans-6f"/>
      <use x="282.095703" xlink:href="#DejaVuSans-2d"/>
      <use x="318.179688" xlink:href="#DejaVuSans-61"/>
      <use x="379.458984" xlink:href="#DejaVuSans-76"/>
      <use x="438.638672" xlink:href="#DejaVuSans-65"/>
      <use x="500.162109" xlink:href="#DejaVuSans-72"/>
      <use x="541.275391" xlink:href="#DejaVuSans-61"/>
      <use x="602.554688" xlink:href="#DejaVuSans-67"/>
      <use x="666.03125" xlink:href="#DejaVuSans-65"/>
      <use x="727.554688" xlink:href="#DejaVuSans-20"/>
      <use x="759.341797" xlink:href="#DejaVuSans-50"/>
      <use x="819.644531" xlink:href="#DejaVuSans-52"/>
      <use x="889.126953" xlink:href="#DejaVuSans-20"/>
      <use x="920.914062" xlink:href="#DejaVuSans-63"/>
      <use x="975.894531" xlink:href="#DejaVuSans-75"/>
      <use x="1039.273438" xlink:href="#DejaVuSans-72"/>
      <use x="1080.386719" xlink:href="#DejaVuSans-76"/>
      <use x="1139.566406" xlink:href="#DejaVuSans-65"/>
      <use x="1201.089844" xlink:href="#DejaVuSans-20"/>
      <use x="1232.876953" xlink:href="#DejaVuSans-28"/>
      <use x="1271.890625" xlink:href="#DejaVuSans-61"/>
      <use x="1333.169922" xlink:href="#DejaVuSans-72"/>
      <use x="1372.033203" xlink:href="#DejaVuSans-65"/>
      <use x="1433.556641" xlink:href="#DejaVuSans-61"/>
      <use x="1494.835938" xlink:href="#DejaVuSans-20"/>
      <use x="1526.623047" xlink:href="#DejaVuSans-3d"/>
      <use x="1610.412109" xlink:href="#DejaVuSans-20"/>
      <use x="1642.199219" xlink:href="#DejaVuSans-30"/>
      <use x="1705.822266" xlink:href="#DejaVuSans-2e"/>
      <use x="1737.609375" xlink:href="#DejaVuSans-39"/>
      <use x="1801.232422" xlink:href="#DejaVuSans-39"/>
      <use x="1864.855469" xlink:href="#DejaVuSans-29"/>
     </g>
    </g>
   </g>
  </g>
 </g>
 <defs>
  <clipPath id="pe2b9e6ae9b">
   <rect height="266.112" width="357.12" x="57.6" y="41.472"/>
  </clipPath>
 </defs>
</svg>
