<?xml version="1.0" encoding="utf-8" standalone="no"?>
<!DOCTYPE svg PUBLIC "-//W3C//DTD SVG 1.1//EN"
  "http://www.w3.org/Graphics/SVG/1.1/DTD/svg11.dtd">
<svg height="345.6pt" version="1.1" viewBox="0 0 460.8 345.6" width="460.8pt" xmlns="http://www.w3.org/2000/svg" xmlns:xlink="http://www.w3.org/1999/xlink">
 <metadata>
  <rdf:RDF xmlns:cc="http://creativecommons.org/ns#" xmlns:dc="http://purl.org/dc/elements/1.1/" xmlns:rdf="http://www.w3.org/1999/02/22-rdf-syntax-ns#">
   <cc:Work>
    <dc:type rdf:resource="http://purl.org/dc/dcmitype/StillImage"/>
    <dc:date>2021-08-12T09:03:58.753228</dc:date>
    <dc:format>image/svg+xml</dc:format>
    <dc:creator>
     <cc:Agent>
      <dc:title>Matplotlib v3.4.2, https://matplotlib.org/</dc:title>
     </cc:Agent>
    </dc:creator>
   </cc:Work>
  </rdf:RDF>
 </metadata>
 <defs>
  <style type="text/css">*{stroke-linecap:butt;stroke-linejoin:round;}</style>
 </defs>
 <g id="figure_1">
  <g id="patch_1">
   <path d="M 0 345.6 
L 460.8 345.6 
L 460.8 0 
L 0 0 
z
" style="fill:#ffffff;"/>
  </g>
  <g id="axes_1">
   <g id="patch_2">
    <path d="M 57.6 307.584 
L 414.72 307.584 
L 414.72 41.472 
L 57.6 41.472 
z
" style="fill:#ffffff;"/>
   </g>
   <g id="matplotlib.axis_1">
    <g id="xtick_1">
     <g id="line2d_1">
      <defs>
       <path d="M 0 0 
L 0 3.5 
" id="mf6e9d46069" style="stroke:#000000;stroke-width:0.8;"/>
      </defs>
      <g>
       <use style="stroke:#000000;stroke-width:0.8;" x="57.6" xlink:href="#mf6e9d46069" y="307.584"/>
      </g>
     </g>
     <g id="text_1">
      <!-- 0.0 -->
      <g transform="translate(49.648438 322.182437)scale(0.1 -0.1)">
       <defs>
        <path d="M 2034 4250 
Q 1547 4250 1301 3770 
Q 1056 3291 1056 2328 
Q 1056 1369 1301 889 
Q 1547 409 2034 409 
Q 2525 409 2770 889 
Q 3016 1369 3016 2328 
Q 3016 3291 2770 3770 
Q 2525 4250 2034 4250 
z
M 2034 4750 
Q 2819 4750 3233 4129 
Q 3647 3509 3647 2328 
Q 3647 1150 3233 529 
Q 2819 -91 2034 -91 
Q 1250 -91 836 529 
Q 422 1150 422 2328 
Q 422 3509 836 4129 
Q 1250 4750 2034 4750 
z
" id="DejaVuSans-30" transform="scale(0.015625)"/>
        <path d="M 684 794 
L 1344 794 
L 1344 0 
L 684 0 
L 684 794 
z
" id="DejaVuSans-2e" transform="scale(0.015625)"/>
       </defs>
       <use xlink:href="#DejaVuSans-30"/>
       <use x="63.623047" xlink:href="#DejaVuSans-2e"/>
       <use x="95.410156" xlink:href="#DejaVuSans-30"/>
      </g>
     </g>
    </g>
    <g id="xtick_2">
     <g id="line2d_2">
      <g>
       <use style="stroke:#000000;stroke-width:0.8;" x="129.024" xlink:href="#mf6e9d46069" y="307.584"/>
      </g>
     </g>
     <g id="text_2">
      <!-- 0.2 -->
      <g transform="translate(121.072438 322.182437)scale(0.1 -0.1)">
       <defs>
        <path d="M 1228 531 
L 3431 531 
L 3431 0 
L 469 0 
L 469 531 
Q 828 903 1448 1529 
Q 2069 2156 2228 2338 
Q 2531 2678 2651 2914 
Q 2772 3150 2772 3378 
Q 2772 3750 2511 3984 
Q 2250 4219 1831 4219 
Q 1534 4219 1204 4116 
Q 875 4013 500 3803 
L 500 4441 
Q 881 4594 1212 4672 
Q 1544 4750 1819 4750 
Q 2544 4750 2975 4387 
Q 3406 4025 3406 3419 
Q 3406 3131 3298 2873 
Q 3191 2616 2906 2266 
Q 2828 2175 2409 1742 
Q 1991 1309 1228 531 
z
" id="DejaVuSans-32" transform="scale(0.015625)"/>
       </defs>
       <use xlink:href="#DejaVuSans-30"/>
       <use x="63.623047" xlink:href="#DejaVuSans-2e"/>
       <use x="95.410156" xlink:href="#DejaVuSans-32"/>
      </g>
     </g>
    </g>
    <g id="xtick_3">
     <g id="line2d_3">
      <g>
       <use style="stroke:#000000;stroke-width:0.8;" x="200.448" xlink:href="#mf6e9d46069" y="307.584"/>
      </g>
     </g>
     <g id="text_3">
      <!-- 0.4 -->
      <g transform="translate(192.496438 322.182437)scale(0.1 -0.1)">
       <defs>
        <path d="M 2419 4116 
L 825 1625 
L 2419 1625 
L 2419 4116 
z
M 2253 4666 
L 3047 4666 
L 3047 1625 
L 3713 1625 
L 3713 1100 
L 3047 1100 
L 3047 0 
L 2419 0 
L 2419 1100 
L 313 1100 
L 313 1709 
L 2253 4666 
z
" id="DejaVuSans-34" transform="scale(0.015625)"/>
       </defs>
       <use xlink:href="#DejaVuSans-30"/>
       <use x="63.623047" xlink:href="#DejaVuSans-2e"/>
       <use x="95.410156" xlink:href="#DejaVuSans-34"/>
      </g>
     </g>
    </g>
    <g id="xtick_4">
     <g id="line2d_4">
      <g>
       <use style="stroke:#000000;stroke-width:0.8;" x="271.872" xlink:href="#mf6e9d46069" y="307.584"/>
      </g>
     </g>
     <g id="text_4">
      <!-- 0.6 -->
      <g transform="translate(263.920438 322.182437)scale(0.1 -0.1)">
       <defs>
        <path d="M 2113 2584 
Q 1688 2584 1439 2293 
Q 1191 2003 1191 1497 
Q 1191 994 1439 701 
Q 1688 409 2113 409 
Q 2538 409 2786 701 
Q 3034 994 3034 1497 
Q 3034 2003 2786 2293 
Q 2538 2584 2113 2584 
z
M 3366 4563 
L 3366 3988 
Q 3128 4100 2886 4159 
Q 2644 4219 2406 4219 
Q 1781 4219 1451 3797 
Q 1122 3375 1075 2522 
Q 1259 2794 1537 2939 
Q 1816 3084 2150 3084 
Q 2853 3084 3261 2657 
Q 3669 2231 3669 1497 
Q 3669 778 3244 343 
Q 2819 -91 2113 -91 
Q 1303 -91 875 529 
Q 447 1150 447 2328 
Q 447 3434 972 4092 
Q 1497 4750 2381 4750 
Q 2619 4750 2861 4703 
Q 3103 4656 3366 4563 
z
" id="DejaVuSans-36" transform="scale(0.015625)"/>
       </defs>
       <use xlink:href="#DejaVuSans-30"/>
       <use x="63.623047" xlink:href="#DejaVuSans-2e"/>
       <use x="95.410156" xlink:href="#DejaVuSans-36"/>
      </g>
     </g>
    </g>
    <g id="xtick_5">
     <g id="line2d_5">
      <g>
       <use style="stroke:#000000;stroke-width:0.8;" x="343.296" xlink:href="#mf6e9d46069" y="307.584"/>
      </g>
     </g>
     <g id="text_5">
      <!-- 0.8 -->
      <g transform="translate(335.344438 322.182437)scale(0.1 -0.1)">
       <defs>
        <path d="M 2034 2216 
Q 1584 2216 1326 1975 
Q 1069 1734 1069 1313 
Q 1069 891 1326 650 
Q 1584 409 2034 409 
Q 2484 409 2743 651 
Q 3003 894 3003 1313 
Q 3003 1734 2745 1975 
Q 2488 2216 2034 2216 
z
M 1403 2484 
Q 997 2584 770 2862 
Q 544 3141 544 3541 
Q 544 4100 942 4425 
Q 1341 4750 2034 4750 
Q 2731 4750 3128 4425 
Q 3525 4100 3525 3541 
Q 3525 3141 3298 2862 
Q 3072 2584 2669 2484 
Q 3125 2378 3379 2068 
Q 3634 1759 3634 1313 
Q 3634 634 3220 271 
Q 2806 -91 2034 -91 
Q 1263 -91 848 271 
Q 434 634 434 1313 
Q 434 1759 690 2068 
Q 947 2378 1403 2484 
z
M 1172 3481 
Q 1172 3119 1398 2916 
Q 1625 2713 2034 2713 
Q 2441 2713 2670 2916 
Q 2900 3119 2900 3481 
Q 2900 3844 2670 4047 
Q 2441 4250 2034 4250 
Q 1625 4250 1398 4047 
Q 1172 3844 1172 3481 
z
" id="DejaVuSans-38" transform="scale(0.015625)"/>
       </defs>
       <use xlink:href="#DejaVuSans-30"/>
       <use x="63.623047" xlink:href="#DejaVuSans-2e"/>
       <use x="95.410156" xlink:href="#DejaVuSans-38"/>
      </g>
     </g>
    </g>
    <g id="xtick_6">
     <g id="line2d_6">
      <g>
       <use style="stroke:#000000;stroke-width:0.8;" x="414.72" xlink:href="#mf6e9d46069" y="307.584"/>
      </g>
     </g>
     <g id="text_6">
      <!-- 1.0 -->
      <g transform="translate(406.768438 322.182437)scale(0.1 -0.1)">
       <defs>
        <path d="M 794 531 
L 1825 531 
L 1825 4091 
L 703 3866 
L 703 4441 
L 1819 4666 
L 2450 4666 
L 2450 531 
L 3481 531 
L 3481 0 
L 794 0 
L 794 531 
z
" id="DejaVuSans-31" transform="scale(0.015625)"/>
       </defs>
       <use xlink:href="#DejaVuSans-31"/>
       <use x="63.623047" xlink:href="#DejaVuSans-2e"/>
       <use x="95.410156" xlink:href="#DejaVuSans-30"/>
      </g>
     </g>
    </g>
    <g id="text_7">
     <!-- False Positive Rate -->
     <g transform="translate(189.693594 335.860562)scale(0.1 -0.1)">
      <defs>
       <path d="M 628 4666 
L 3309 4666 
L 3309 4134 
L 1259 4134 
L 1259 2759 
L 3109 2759 
L 3109 2228 
L 1259 2228 
L 1259 0 
L 628 0 
L 628 4666 
z
" id="DejaVuSans-46" transform="scale(0.015625)"/>
       <path d="M 2194 1759 
Q 1497 1759 1228 1600 
Q 959 1441 959 1056 
Q 959 750 1161 570 
Q 1363 391 1709 391 
Q 2188 391 2477 730 
Q 2766 1069 2766 1631 
L 2766 1759 
L 2194 1759 
z
M 3341 1997 
L 3341 0 
L 2766 0 
L 2766 531 
Q 2569 213 2275 61 
Q 1981 -91 1556 -91 
Q 1019 -91 701 211 
Q 384 513 384 1019 
Q 384 1609 779 1909 
Q 1175 2209 1959 2209 
L 2766 2209 
L 2766 2266 
Q 2766 2663 2505 2880 
Q 2244 3097 1772 3097 
Q 1472 3097 1187 3025 
Q 903 2953 641 2809 
L 641 3341 
Q 956 3463 1253 3523 
Q 1550 3584 1831 3584 
Q 2591 3584 2966 3190 
Q 3341 2797 3341 1997 
z
" id="DejaVuSans-61" transform="scale(0.015625)"/>
       <path d="M 603 4863 
L 1178 4863 
L 1178 0 
L 603 0 
L 603 4863 
z
" id="DejaVuSans-6c" transform="scale(0.015625)"/>
       <path d="M 2834 3397 
L 2834 2853 
Q 2591 2978 2328 3040 
Q 2066 3103 1784 3103 
Q 1356 3103 1142 2972 
Q 928 2841 928 2578 
Q 928 2378 1081 2264 
Q 1234 2150 1697 2047 
L 1894 2003 
Q 2506 1872 2764 1633 
Q 3022 1394 3022 966 
Q 3022 478 2636 193 
Q 2250 -91 1575 -91 
Q 1294 -91 989 -36 
Q 684 19 347 128 
L 347 722 
Q 666 556 975 473 
Q 1284 391 1588 391 
Q 1994 391 2212 530 
Q 2431 669 2431 922 
Q 2431 1156 2273 1281 
Q 2116 1406 1581 1522 
L 1381 1569 
Q 847 1681 609 1914 
Q 372 2147 372 2553 
Q 372 3047 722 3315 
Q 1072 3584 1716 3584 
Q 2034 3584 2315 3537 
Q 2597 3491 2834 3397 
z
" id="DejaVuSans-73" transform="scale(0.015625)"/>
       <path d="M 3597 1894 
L 3597 1613 
L 953 1613 
Q 991 1019 1311 708 
Q 1631 397 2203 397 
Q 2534 397 2845 478 
Q 3156 559 3463 722 
L 3463 178 
Q 3153 47 2828 -22 
Q 2503 -91 2169 -91 
Q 1331 -91 842 396 
Q 353 884 353 1716 
Q 353 2575 817 3079 
Q 1281 3584 2069 3584 
Q 2775 3584 3186 3129 
Q 3597 2675 3597 1894 
z
M 3022 2063 
Q 3016 2534 2758 2815 
Q 2500 3097 2075 3097 
Q 1594 3097 1305 2825 
Q 1016 2553 972 2059 
L 3022 2063 
z
" id="DejaVuSans-65" transform="scale(0.015625)"/>
       <path id="DejaVuSans-20" transform="scale(0.015625)"/>
       <path d="M 1259 4147 
L 1259 2394 
L 2053 2394 
Q 2494 2394 2734 2622 
Q 2975 2850 2975 3272 
Q 2975 3691 2734 3919 
Q 2494 4147 2053 4147 
L 1259 4147 
z
M 628 4666 
L 2053 4666 
Q 2838 4666 3239 4311 
Q 3641 3956 3641 3272 
Q 3641 2581 3239 2228 
Q 2838 1875 2053 1875 
L 1259 1875 
L 1259 0 
L 628 0 
L 628 4666 
z
" id="DejaVuSans-50" transform="scale(0.015625)"/>
       <path d="M 1959 3097 
Q 1497 3097 1228 2736 
Q 959 2375 959 1747 
Q 959 1119 1226 758 
Q 1494 397 1959 397 
Q 2419 397 2687 759 
Q 2956 1122 2956 1747 
Q 2956 2369 2687 2733 
Q 2419 3097 1959 3097 
z
M 1959 3584 
Q 2709 3584 3137 3096 
Q 3566 2609 3566 1747 
Q 3566 888 3137 398 
Q 2709 -91 1959 -91 
Q 1206 -91 779 398 
Q 353 888 353 1747 
Q 353 2609 779 3096 
Q 1206 3584 1959 3584 
z
" id="DejaVuSans-6f" transform="scale(0.015625)"/>
       <path d="M 603 3500 
L 1178 3500 
L 1178 0 
L 603 0 
L 603 3500 
z
M 603 4863 
L 1178 4863 
L 1178 4134 
L 603 4134 
L 603 4863 
z
" id="DejaVuSans-69" transform="scale(0.015625)"/>
       <path d="M 1172 4494 
L 1172 3500 
L 2356 3500 
L 2356 3053 
L 1172 3053 
L 1172 1153 
Q 1172 725 1289 603 
Q 1406 481 1766 481 
L 2356 481 
L 2356 0 
L 1766 0 
Q 1100 0 847 248 
Q 594 497 594 1153 
L 594 3053 
L 172 3053 
L 172 3500 
L 594 3500 
L 594 4494 
L 1172 4494 
z
" id="DejaVuSans-74" transform="scale(0.015625)"/>
       <path d="M 191 3500 
L 800 3500 
L 1894 563 
L 2988 3500 
L 3597 3500 
L 2284 0 
L 1503 0 
L 191 3500 
z
" id="DejaVuSans-76" transform="scale(0.015625)"/>
       <path d="M 2841 2188 
Q 3044 2119 3236 1894 
Q 3428 1669 3622 1275 
L 4263 0 
L 3584 0 
L 2988 1197 
Q 2756 1666 2539 1819 
Q 2322 1972 1947 1972 
L 1259 1972 
L 1259 0 
L 628 0 
L 628 4666 
L 2053 4666 
Q 2853 4666 3247 4331 
Q 3641 3997 3641 3322 
Q 3641 2881 3436 2590 
Q 3231 2300 2841 2188 
z
M 1259 4147 
L 1259 2491 
L 2053 2491 
Q 2509 2491 2742 2702 
Q 2975 2913 2975 3322 
Q 2975 3731 2742 3939 
Q 2509 4147 2053 4147 
L 1259 4147 
z
" id="DejaVuSans-52" transform="scale(0.015625)"/>
      </defs>
      <use xlink:href="#DejaVuSans-46"/>
      <use x="48.394531" xlink:href="#DejaVuSans-61"/>
      <use x="109.673828" xlink:href="#DejaVuSans-6c"/>
      <use x="137.457031" xlink:href="#DejaVuSans-73"/>
      <use x="189.556641" xlink:href="#DejaVuSans-65"/>
      <use x="251.080078" xlink:href="#DejaVuSans-20"/>
      <use x="282.867188" xlink:href="#DejaVuSans-50"/>
      <use x="339.544922" xlink:href="#DejaVuSans-6f"/>
      <use x="400.726562" xlink:href="#DejaVuSans-73"/>
      <use x="452.826172" xlink:href="#DejaVuSans-69"/>
      <use x="480.609375" xlink:href="#DejaVuSans-74"/>
      <use x="519.818359" xlink:href="#DejaVuSans-69"/>
      <use x="547.601562" xlink:href="#DejaVuSans-76"/>
      <use x="606.78125" xlink:href="#DejaVuSans-65"/>
      <use x="668.304688" xlink:href="#DejaVuSans-20"/>
      <use x="700.091797" xlink:href="#DejaVuSans-52"/>
      <use x="767.324219" xlink:href="#DejaVuSans-61"/>
      <use x="828.603516" xlink:href="#DejaVuSans-74"/>
      <use x="867.8125" xlink:href="#DejaVuSans-65"/>
     </g>
    </g>
   </g>
   <g id="matplotlib.axis_2">
    <g id="ytick_1">
     <g id="line2d_7">
      <defs>
       <path d="M 0 0 
L -3.5 0 
" id="m6644ad7dfa" style="stroke:#000000;stroke-width:0.8;"/>
      </defs>
      <g>
       <use style="stroke:#000000;stroke-width:0.8;" x="57.6" xlink:href="#m6644ad7dfa" y="307.584"/>
      </g>
     </g>
     <g id="text_8">
      <!-- 0.0 -->
      <g transform="translate(34.696875 311.383219)scale(0.1 -0.1)">
       <use xlink:href="#DejaVuSans-30"/>
       <use x="63.623047" xlink:href="#DejaVuSans-2e"/>
       <use x="95.410156" xlink:href="#DejaVuSans-30"/>
      </g>
     </g>
    </g>
    <g id="ytick_2">
     <g id="line2d_8">
      <g>
       <use style="stroke:#000000;stroke-width:0.8;" x="57.6" xlink:href="#m6644ad7dfa" y="256.896"/>
      </g>
     </g>
     <g id="text_9">
      <!-- 0.2 -->
      <g transform="translate(34.696875 260.695219)scale(0.1 -0.1)">
       <use xlink:href="#DejaVuSans-30"/>
       <use x="63.623047" xlink:href="#DejaVuSans-2e"/>
       <use x="95.410156" xlink:href="#DejaVuSans-32"/>
      </g>
     </g>
    </g>
    <g id="ytick_3">
     <g id="line2d_9">
      <g>
       <use style="stroke:#000000;stroke-width:0.8;" x="57.6" xlink:href="#m6644ad7dfa" y="206.208"/>
      </g>
     </g>
     <g id="text_10">
      <!-- 0.4 -->
      <g transform="translate(34.696875 210.007219)scale(0.1 -0.1)">
       <use xlink:href="#DejaVuSans-30"/>
       <use x="63.623047" xlink:href="#DejaVuSans-2e"/>
       <use x="95.410156" xlink:href="#DejaVuSans-34"/>
      </g>
     </g>
    </g>
    <g id="ytick_4">
     <g id="line2d_10">
      <g>
       <use style="stroke:#000000;stroke-width:0.8;" x="57.6" xlink:href="#m6644ad7dfa" y="155.52"/>
      </g>
     </g>
     <g id="text_11">
      <!-- 0.6 -->
      <g transform="translate(34.696875 159.319219)scale(0.1 -0.1)">
       <use xlink:href="#DejaVuSans-30"/>
       <use x="63.623047" xlink:href="#DejaVuSans-2e"/>
       <use x="95.410156" xlink:href="#DejaVuSans-36"/>
      </g>
     </g>
    </g>
    <g id="ytick_5">
     <g id="line2d_11">
      <g>
       <use style="stroke:#000000;stroke-width:0.8;" x="57.6" xlink:href="#m6644ad7dfa" y="104.832"/>
      </g>
     </g>
     <g id="text_12">
      <!-- 0.8 -->
      <g transform="translate(34.696875 108.631219)scale(0.1 -0.1)">
       <use xlink:href="#DejaVuSans-30"/>
       <use x="63.623047" xlink:href="#DejaVuSans-2e"/>
       <use x="95.410156" xlink:href="#DejaVuSans-38"/>
      </g>
     </g>
    </g>
    <g id="ytick_6">
     <g id="line2d_12">
      <g>
       <use style="stroke:#000000;stroke-width:0.8;" x="57.6" xlink:href="#m6644ad7dfa" y="54.144"/>
      </g>
     </g>
     <g id="text_13">
      <!-- 1.0 -->
      <g transform="translate(34.696875 57.943219)scale(0.1 -0.1)">
       <use xlink:href="#DejaVuSans-31"/>
       <use x="63.623047" xlink:href="#DejaVuSans-2e"/>
       <use x="95.410156" xlink:href="#DejaVuSans-30"/>
      </g>
     </g>
    </g>
    <g id="text_14">
     <!-- True Positive Rate -->
     <g transform="translate(28.617187 219.057687)rotate(-90)scale(0.1 -0.1)">
      <defs>
       <path d="M -19 4666 
L 3928 4666 
L 3928 4134 
L 2272 4134 
L 2272 0 
L 1638 0 
L 1638 4134 
L -19 4134 
L -19 4666 
z
" id="DejaVuSans-54" transform="scale(0.015625)"/>
       <path d="M 2631 2963 
Q 2534 3019 2420 3045 
Q 2306 3072 2169 3072 
Q 1681 3072 1420 2755 
Q 1159 2438 1159 1844 
L 1159 0 
L 581 0 
L 581 3500 
L 1159 3500 
L 1159 2956 
Q 1341 3275 1631 3429 
Q 1922 3584 2338 3584 
Q 2397 3584 2469 3576 
Q 2541 3569 2628 3553 
L 2631 2963 
z
" id="DejaVuSans-72" transform="scale(0.015625)"/>
       <path d="M 544 1381 
L 544 3500 
L 1119 3500 
L 1119 1403 
Q 1119 906 1312 657 
Q 1506 409 1894 409 
Q 2359 409 2629 706 
Q 2900 1003 2900 1516 
L 2900 3500 
L 3475 3500 
L 3475 0 
L 2900 0 
L 2900 538 
Q 2691 219 2414 64 
Q 2138 -91 1772 -91 
Q 1169 -91 856 284 
Q 544 659 544 1381 
z
M 1991 3584 
L 1991 3584 
z
" id="DejaVuSans-75" transform="scale(0.015625)"/>
      </defs>
      <use xlink:href="#DejaVuSans-54"/>
      <use x="46.333984" xlink:href="#DejaVuSans-72"/>
      <use x="87.447266" xlink:href="#DejaVuSans-75"/>
      <use x="150.826172" xlink:href="#DejaVuSans-65"/>
      <use x="212.349609" xlink:href="#DejaVuSans-20"/>
      <use x="244.136719" xlink:href="#DejaVuSans-50"/>
      <use x="300.814453" xlink:href="#DejaVuSans-6f"/>
      <use x="361.996094" xlink:href="#DejaVuSans-73"/>
      <use x="414.095703" xlink:href="#DejaVuSans-69"/>
      <use x="441.878906" xlink:href="#DejaVuSans-74"/>
      <use x="481.087891" xlink:href="#DejaVuSans-69"/>
      <use x="508.871094" xlink:href="#DejaVuSans-76"/>
      <use x="568.050781" xlink:href="#DejaVuSans-65"/>
      <use x="629.574219" xlink:href="#DejaVuSans-20"/>
      <use x="661.361328" xlink:href="#DejaVuSans-52"/>
      <use x="728.59375" xlink:href="#DejaVuSans-61"/>
      <use x="789.873047" xlink:href="#DejaVuSans-74"/>
      <use x="829.082031" xlink:href="#DejaVuSans-65"/>
     </g>
    </g>
   </g>
   <g id="line2d_13">
    <path clip-path="url(#pcaebee4548)" d="M 57.6 307.584 
L 57.6 124.482323 
L 57.758298 124.482323 
L 57.758298 112.98395 
L 57.916596 112.98395 
L 57.916596 105.371234 
L 58.074894 105.371234 
L 58.074894 100.375389 
L 58.233191 100.375389 
L 58.233191 97.917116 
L 58.391489 97.917116 
L 58.391489 97.679219 
L 58.549787 97.679219 
L 58.549787 92.445477 
L 58.708085 92.445477 
L 58.708085 91.731785 
L 58.866383 91.731785 
L 58.866383 91.25599 
L 59.182979 91.176691 
L 59.182979 89.828606 
L 59.341277 89.828606 
L 59.341277 89.511409 
L 59.499574 89.511409 
L 59.499574 87.449632 
L 59.657872 87.449632 
L 59.657872 87.211735 
L 59.81617 87.211735 
L 59.81617 86.815239 
L 59.974468 86.815239 
L 59.974468 85.625752 
L 60.132766 85.625752 
L 60.132766 85.070658 
L 60.291064 85.070658 
L 60.291064 83.960471 
L 60.449362 83.960471 
L 60.449362 81.740095 
L 60.60766 81.740095 
L 60.60766 80.629907 
L 60.924255 80.550608 
L 60.924255 80.074814 
L 61.240851 80.074814 
L 61.240851 78.726728 
L 61.399149 78.726728 
L 61.399149 78.171635 
L 61.557447 78.171635 
L 61.557447 77.69584 
L 61.715745 77.69584 
L 61.715745 77.299344 
L 61.874043 77.299344 
L 61.874043 76.823549 
L 62.03234 76.823549 
L 62.03234 75.158268 
L 62.190638 75.158268 
L 62.190638 74.365277 
L 62.665532 74.285977 
L 62.665532 73.492986 
L 62.982128 73.413687 
L 62.982128 72.541397 
L 63.298723 72.541397 
L 63.298723 72.2242 
L 63.457021 72.2242 
L 63.457021 71.748406 
L 63.615319 71.748406 
L 63.615319 71.431209 
L 63.773617 71.431209 
L 63.773617 71.114013 
L 64.090213 71.114013 
L 64.090213 70.638218 
L 64.406809 70.558919 
L 64.406809 70.083124 
L 64.565106 70.083124 
L 64.565106 69.924526 
L 64.723404 69.924526 
L 64.723404 69.52803 
L 64.881702 69.52803 
L 64.881702 69.052235 
L 65.04 69.052235 
L 65.04 68.65574 
L 65.198298 68.65574 
L 65.198298 68.338543 
L 65.356596 68.338543 
L 65.356596 67.783449 
L 65.831489 67.70415 
L 65.831489 67.624851 
L 65.989787 67.624851 
L 65.989787 67.466253 
L 66.306383 67.386954 
L 66.306383 67.228355 
L 66.781277 67.228355 
L 66.781277 66.990458 
L 67.25617 66.911159 
L 67.25617 66.83186 
L 67.572766 66.752561 
L 67.572766 66.673262 
L 67.889362 66.673262 
L 67.889362 66.514663 
L 68.04766 66.514663 
L 68.04766 66.118168 
L 68.680851 66.038869 
L 68.680851 65.642373 
L 69.155745 65.563074 
L 69.155745 65.483775 
L 69.314043 65.483775 
L 69.314043 65.245877 
L 69.630638 65.166578 
L 69.630638 64.690783 
L 69.947234 64.690783 
L 69.947234 63.897792 
L 70.26383 63.818493 
L 70.26383 63.580596 
L 70.580426 63.501297 
L 70.580426 63.342698 
L 71.055319 63.342698 
L 71.055319 63.1841 
L 71.213617 63.1841 
L 71.213617 63.025502 
L 71.688511 62.946203 
L 71.688511 62.787605 
L 71.846809 62.787605 
L 71.846809 62.470408 
L 72.638298 62.391109 
L 72.638298 62.153212 
L 72.796596 62.153212 
L 72.796596 61.994613 
L 73.113191 61.994613 
L 73.113191 61.677417 
L 73.746383 61.598118 
L 73.746383 61.439519 
L 73.904681 61.439519 
L 73.904681 61.280921 
L 74.854468 61.201622 
L 74.854468 61.043024 
L 75.171064 61.043024 
L 75.171064 60.884426 
L 76.595745 60.805126 
L 76.595745 60.725827 
L 76.91234 60.646528 
L 76.91234 60.567229 
L 77.862128 60.48793 
L 77.862128 60.329332 
L 79.761702 60.250033 
L 79.761702 60.091434 
L 80.078298 60.012135 
L 80.078298 59.853537 
L 81.028085 59.774238 
L 81.028085 59.694939 
L 81.661277 59.61564 
L 81.661277 59.53634 
L 82.13617 59.457041 
L 82.13617 59.377742 
L 83.085957 59.298443 
L 83.085957 59.219144 
L 84.035745 59.139845 
L 84.035745 59.060546 
L 84.194043 59.060546 
L 84.194043 58.822648 
L 84.668936 58.822648 
L 84.668936 58.584751 
L 85.777021 58.505452 
L 85.777021 58.346854 
L 87.201702 58.267554 
L 87.201702 58.188255 
L 88.626383 58.188255 
L 88.626383 58.029657 
L 90.051064 57.950358 
L 90.051064 57.79176 
L 90.36766 57.79176 
L 90.36766 57.633161 
L 91.317447 57.553862 
L 91.317447 57.474563 
L 92.267234 57.395264 
L 92.267234 57.315965 
L 95.274894 57.236666 
L 95.274894 57.078068 
L 98.599149 56.998768 
L 98.599149 56.919469 
L 99.074043 56.919469 
L 99.074043 56.760871 
L 100.498723 56.681572 
L 100.498723 56.522974 
L 105.564255 56.443675 
L 105.564255 56.364375 
L 105.722553 56.364375 
L 105.722553 56.205777 
L 106.355745 56.126478 
L 106.355745 56.047179 
L 108.413617 55.96788 
L 108.413617 55.888581 
L 112.371064 55.809282 
L 112.371064 55.729982 
L 114.11234 55.650683 
L 114.11234 55.571384 
L 115.853617 55.492085 
L 115.853617 55.412786 
L 123.135319 55.333487 
L 123.135319 55.254188 
L 131.841702 55.174889 
L 131.841702 55.095589 
L 138.490213 55.01629 
L 138.490213 54.936991 
L 142.764255 54.857692 
L 142.764255 54.778393 
L 151.628936 54.699094 
L 151.628936 54.619795 
L 160.651915 54.540496 
L 160.651915 54.461196 
L 175.531915 54.381897 
L 175.531915 54.302598 
L 198.168511 54.223299 
L 198.168511 54.144 
L 414.72 54.144 
L 414.72 54.144 
" style="fill:none;stroke:#55607b;stroke-linecap:square;stroke-width:2;"/>
   </g>
   <g id="line2d_14">
    <path clip-path="url(#pcaebee4548)" d="M 57.6 307.584 
L 57.6 153.902298 
L 57.71174 153.902298 
L 57.71174 138.174638 
L 57.823479 138.174638 
L 57.823479 137.837617 
L 57.935219 137.837617 
L 57.935219 133.793362 
L 58.046959 133.793362 
L 58.046959 127.277617 
L 58.158698 127.277617 
L 58.158698 126.154213 
L 58.270438 126.154213 
L 58.270438 120.874213 
L 58.382178 120.874213 
L 58.382178 117.166979 
L 58.493917 117.166979 
L 58.493917 114.583149 
L 58.605657 114.583149 
L 58.605657 113.122723 
L 58.717397 113.122723 
L 58.717397 111.549957 
L 58.829136 111.437617 
L 58.829136 109.303149 
L 58.940876 109.303149 
L 58.940876 106.83166 
L 59.052616 106.83166 
L 59.052616 105.146553 
L 59.164355 105.146553 
L 59.164355 100.652936 
L 59.276095 100.652936 
L 59.276095 97.395064 
L 59.387835 97.395064 
L 59.387835 95.485277 
L 59.499574 95.485277 
L 59.499574 94.586553 
L 59.611314 94.586553 
L 59.611314 94.249532 
L 59.723054 94.249532 
L 59.723054 93.238468 
L 59.834793 93.238468 
L 59.834793 93.013787 
L 59.946533 93.013787 
L 59.946533 91.328681 
L 60.058273 91.328681 
L 60.058273 90.205277 
L 60.170013 90.205277 
L 60.170013 89.980596 
L 60.281752 89.980596 
L 60.281752 88.744851 
L 60.393492 88.744851 
L 60.393492 88.632511 
L 60.505232 88.632511 
L 60.505232 88.295489 
L 60.728711 88.295489 
L 60.728711 88.183149 
L 60.840451 88.183149 
L 60.840451 87.958468 
L 60.95219 87.958468 
L 60.95219 84.588255 
L 61.17567 84.588255 
L 61.17567 84.363574 
L 61.287409 84.363574 
L 61.287409 83.577191 
L 61.510889 83.577191 
L 61.510889 83.24017 
L 61.622628 83.24017 
L 61.622628 81.555064 
L 61.734368 81.555064 
L 61.734368 80.881021 
L 61.957847 80.881021 
L 61.957847 80.65634 
L 62.069587 80.65634 
L 62.069587 78.746553 
L 62.181327 78.746553 
L 62.181327 78.634213 
L 62.293066 78.634213 
L 62.293066 78.072511 
L 62.404806 78.072511 
L 62.404806 77.510809 
L 62.516546 77.510809 
L 62.516546 77.398468 
L 62.740025 77.398468 
L 62.740025 77.173787 
L 62.963504 77.173787 
L 62.963504 77.061447 
L 63.075244 77.061447 
L 63.075244 76.162723 
L 63.298723 76.162723 
L 63.298723 75.15166 
L 63.410463 75.15166 
L 63.410463 74.365277 
L 63.522203 74.365277 
L 63.522203 74.140596 
L 63.745682 74.140596 
L 63.745682 73.915915 
L 63.857422 73.915915 
L 63.857422 73.354213 
L 64.192641 73.354213 
L 64.192641 73.017191 
L 64.52786 73.017191 
L 64.52786 72.904851 
L 64.639599 72.904851 
L 64.639599 72.792511 
L 64.751339 72.792511 
L 64.751339 72.230809 
L 64.863079 72.230809 
L 64.863079 72.118468 
L 64.974819 72.118468 
L 64.974819 71.556766 
L 65.086558 71.556766 
L 65.086558 71.444426 
L 65.198298 71.444426 
L 65.198298 71.219745 
L 65.310038 71.219745 
L 65.310038 71.107404 
L 65.421777 71.107404 
L 65.421777 70.770383 
L 65.533517 70.770383 
L 65.533517 70.433362 
L 65.645257 70.433362 
L 65.645257 70.09634 
L 65.868736 70.09634 
L 65.868736 69.984 
L 65.980476 69.984 
L 65.980476 69.87166 
L 66.203955 69.87166 
L 66.203955 69.309957 
L 66.315695 69.309957 
L 66.315695 68.523574 
L 66.539174 68.523574 
L 66.539174 68.074213 
L 66.650914 68.074213 
L 66.650914 67.849532 
L 66.762653 67.849532 
L 66.762653 67.737191 
L 66.874393 67.737191 
L 66.874393 67.624851 
L 66.986133 67.624851 
L 66.986133 66.838468 
L 67.097872 66.838468 
L 67.097872 66.613787 
L 67.321352 66.613787 
L 67.321352 66.389106 
L 67.544831 66.389106 
L 67.544831 66.052085 
L 67.656571 66.052085 
L 67.656571 65.715064 
L 67.88005 65.715064 
L 67.88005 65.602723 
L 68.103529 65.602723 
L 68.103529 65.378043 
L 68.215269 65.378043 
L 68.215269 65.153362 
L 68.662228 65.153362 
L 68.662228 64.928681 
L 68.885707 64.928681 
L 68.885707 64.81634 
L 69.220926 64.81634 
L 69.220926 64.704 
L 69.332666 64.704 
L 69.332666 64.254638 
L 69.779625 64.254638 
L 69.779625 64.142298 
L 70.003104 64.142298 
L 70.003104 63.917617 
L 70.114844 63.917617 
L 70.114844 63.805277 
L 70.338323 63.805277 
L 70.338323 63.692936 
L 70.561802 63.692936 
L 70.561802 63.355915 
L 70.785282 63.355915 
L 70.785282 63.243574 
L 70.897021 63.243574 
L 70.897021 63.131234 
L 71.23224 63.131234 
L 71.23224 63.018894 
L 71.34398 63.018894 
L 71.34398 62.906553 
L 72.461377 62.906553 
L 72.461377 62.681872 
L 73.131815 62.681872 
L 73.131815 62.569532 
L 73.243554 62.569532 
L 73.243554 62.457191 
L 73.578773 62.457191 
L 73.578773 62.344851 
L 73.690513 62.344851 
L 73.690513 62.232511 
L 73.802253 62.232511 
L 73.802253 62.00783 
L 74.360951 62.00783 
L 74.360951 61.783149 
L 74.472691 61.783149 
L 74.472691 61.558468 
L 75.031389 61.558468 
L 75.031389 61.446128 
L 75.254869 61.446128 
L 75.254869 61.221447 
L 75.366608 61.221447 
L 75.366608 61.109106 
L 75.478348 61.109106 
L 75.478348 60.996766 
L 75.590088 60.996766 
L 75.590088 60.772085 
L 75.701827 60.772085 
L 75.701827 60.659745 
L 76.037046 60.659745 
L 76.037046 60.322723 
L 76.260526 60.322723 
L 76.260526 60.210383 
L 76.372265 60.210383 
L 76.372265 60.098043 
L 76.595745 60.098043 
L 76.595745 59.985702 
L 76.707484 59.985702 
L 76.707484 59.873362 
L 76.819224 59.873362 
L 76.819224 59.648681 
L 77.601402 59.648681 
L 77.601402 59.53634 
L 78.04836 59.53634 
L 78.04836 59.424 
L 78.607059 59.424 
L 78.607059 59.31166 
L 79.277497 59.31166 
L 79.277497 59.199319 
L 79.836195 59.199319 
L 79.836195 59.086979 
L 80.059675 59.086979 
L 80.059675 58.974638 
L 80.730113 58.974638 
L 80.730113 58.862298 
L 80.841852 58.862298 
L 80.841852 58.749957 
L 81.51229 58.749957 
L 81.51229 58.525277 
L 81.959249 58.525277 
L 81.959249 58.412936 
L 82.406208 58.412936 
L 82.406208 58.300596 
L 83.076646 58.300596 
L 83.076646 58.188255 
L 83.523605 58.188255 
L 83.523605 57.963574 
L 84.752741 57.963574 
L 84.752741 57.851234 
L 84.864481 57.851234 
L 84.864481 57.738894 
L 85.981877 57.738894 
L 85.981877 57.514213 
L 86.093617 57.514213 
L 86.093617 57.401872 
L 87.211014 57.401872 
L 87.211014 57.289532 
L 89.557547 57.289532 
L 89.557547 57.177191 
L 90.227985 57.177191 
L 90.227985 57.064851 
L 90.786683 57.064851 
L 90.786683 56.952511 
L 91.457121 56.952511 
L 91.457121 56.84017 
L 92.239299 56.84017 
L 92.239299 56.72783 
L 94.138874 56.72783 
L 94.138874 56.503149 
L 94.809312 56.503149 
L 94.809312 56.390809 
L 94.921051 56.390809 
L 94.921051 56.278468 
L 96.485407 56.278468 
L 96.485407 56.166128 
L 99.614118 56.166128 
L 99.614118 56.053787 
L 101.178473 56.053787 
L 101.178473 55.941447 
L 101.960651 55.941447 
L 101.960651 55.829106 
L 103.636746 55.829106 
L 103.636746 55.716766 
L 104.195444 55.716766 
L 104.195444 55.604426 
L 104.530663 55.604426 
L 104.530663 55.492085 
L 107.435895 55.492085 
L 107.435895 55.379745 
L 107.882854 55.379745 
L 107.882854 55.267404 
L 109.782428 55.267404 
L 109.782428 55.155064 
L 109.894168 55.155064 
L 109.894168 55.042723 
L 110.564606 55.042723 
L 110.564606 54.930383 
L 111.570263 54.930383 
L 111.570263 54.818043 
L 118.945081 54.818043 
L 118.945081 54.705702 
L 119.2803 54.705702 
L 119.2803 54.593362 
L 122.74423 54.593362 
L 122.74423 54.481021 
L 129.78383 54.481021 
L 129.78383 54.368681 
L 140.510839 54.368681 
L 140.510839 54.25634 
L 156.713091 54.25634 
L 156.713091 54.144 
L 414.72 54.144 
L 414.72 54.144 
" style="fill:none;stroke:#e0a48c;stroke-linecap:square;stroke-width:2;"/>
   </g>
   <g id="line2d_15">
    <path clip-path="url(#pcaebee4548)" d="M 57.6 307.584 
L 414.72 54.144 
" style="fill:none;stroke:#000000;stroke-dasharray:7.4,3.2;stroke-dashoffset:0;stroke-width:2;"/>
   </g>
   <g id="patch_3">
    <path d="M 57.6 307.584 
L 57.6 41.472 
" style="fill:none;stroke:#000000;stroke-linecap:square;stroke-linejoin:miter;stroke-width:0.8;"/>
   </g>
   <g id="patch_4">
    <path d="M 414.72 307.584 
L 414.72 41.472 
" style="fill:none;stroke:#000000;stroke-linecap:square;stroke-linejoin:miter;stroke-width:0.8;"/>
   </g>
   <g id="patch_5">
    <path d="M 57.6 307.584 
L 414.72 307.584 
" style="fill:none;stroke:#000000;stroke-linecap:square;stroke-linejoin:miter;stroke-width:0.8;"/>
   </g>
   <g id="patch_6">
    <path d="M 57.6 41.472 
L 414.72 41.472 
" style="fill:none;stroke:#000000;stroke-linecap:square;stroke-linejoin:miter;stroke-width:0.8;"/>
   </g>
   <g id="text_15">
    <!-- Class ROC Curves -->
    <g transform="translate(182.652187 35.472)scale(0.12 -0.12)">
     <defs>
      <path d="M 4122 4306 
L 4122 3641 
Q 3803 3938 3442 4084 
Q 3081 4231 2675 4231 
Q 1875 4231 1450 3742 
Q 1025 3253 1025 2328 
Q 1025 1406 1450 917 
Q 1875 428 2675 428 
Q 3081 428 3442 575 
Q 3803 722 4122 1019 
L 4122 359 
Q 3791 134 3420 21 
Q 3050 -91 2638 -91 
Q 1578 -91 968 557 
Q 359 1206 359 2328 
Q 359 3453 968 4101 
Q 1578 4750 2638 4750 
Q 3056 4750 3426 4639 
Q 3797 4528 4122 4306 
z
" id="DejaVuSans-43" transform="scale(0.015625)"/>
      <path d="M 2522 4238 
Q 1834 4238 1429 3725 
Q 1025 3213 1025 2328 
Q 1025 1447 1429 934 
Q 1834 422 2522 422 
Q 3209 422 3611 934 
Q 4013 1447 4013 2328 
Q 4013 3213 3611 3725 
Q 3209 4238 2522 4238 
z
M 2522 4750 
Q 3503 4750 4090 4092 
Q 4678 3434 4678 2328 
Q 4678 1225 4090 567 
Q 3503 -91 2522 -91 
Q 1538 -91 948 565 
Q 359 1222 359 2328 
Q 359 3434 948 4092 
Q 1538 4750 2522 4750 
z
" id="DejaVuSans-4f" transform="scale(0.015625)"/>
     </defs>
     <use xlink:href="#DejaVuSans-43"/>
     <use x="69.824219" xlink:href="#DejaVuSans-6c"/>
     <use x="97.607422" xlink:href="#DejaVuSans-61"/>
     <use x="158.886719" xlink:href="#DejaVuSans-73"/>
     <use x="210.986328" xlink:href="#DejaVuSans-73"/>
     <use x="263.085938" xlink:href="#DejaVuSans-20"/>
     <use x="294.873047" xlink:href="#DejaVuSans-52"/>
     <use x="364.355469" xlink:href="#DejaVuSans-4f"/>
     <use x="443.066406" xlink:href="#DejaVuSans-43"/>
     <use x="512.890625" xlink:href="#DejaVuSans-20"/>
     <use x="544.677734" xlink:href="#DejaVuSans-43"/>
     <use x="614.501953" xlink:href="#DejaVuSans-75"/>
     <use x="677.880859" xlink:href="#DejaVuSans-72"/>
     <use x="718.994141" xlink:href="#DejaVuSans-76"/>
     <use x="778.173828" xlink:href="#DejaVuSans-65"/>
     <use x="839.697266" xlink:href="#DejaVuSans-73"/>
    </g>
   </g>
   <g id="legend_1">
    <g id="patch_7">
     <path d="M 215.40125 302.584 
L 407.72 302.584 
Q 409.72 302.584 409.72 300.584 
L 409.72 272.22775 
Q 409.72 270.22775 407.72 270.22775 
L 215.40125 270.22775 
Q 213.40125 270.22775 213.40125 272.22775 
L 213.40125 300.584 
Q 213.40125 302.584 215.40125 302.584 
z
" style="fill:#ffffff;opacity:0.8;stroke:#cccccc;stroke-linejoin:miter;"/>
    </g>
    <g id="line2d_16">
     <path d="M 217.40125 278.326187 
L 237.40125 278.326187 
" style="fill:none;stroke:#55607b;stroke-linecap:square;stroke-width:2;"/>
    </g>
    <g id="line2d_17"/>
    <g id="text_16">
     <!-- ROC curve of CD4 (area = 0.99) -->
     <g transform="translate(245.40125 281.826187)scale(0.1 -0.1)">
      <defs>
       <path d="M 3122 3366 
L 3122 2828 
Q 2878 2963 2633 3030 
Q 2388 3097 2138 3097 
Q 1578 3097 1268 2742 
Q 959 2388 959 1747 
Q 959 1106 1268 751 
Q 1578 397 2138 397 
Q 2388 397 2633 464 
Q 2878 531 3122 666 
L 3122 134 
Q 2881 22 2623 -34 
Q 2366 -91 2075 -91 
Q 1284 -91 818 406 
Q 353 903 353 1747 
Q 353 2603 823 3093 
Q 1294 3584 2113 3584 
Q 2378 3584 2631 3529 
Q 2884 3475 3122 3366 
z
" id="DejaVuSans-63" transform="scale(0.015625)"/>
       <path d="M 2375 4863 
L 2375 4384 
L 1825 4384 
Q 1516 4384 1395 4259 
Q 1275 4134 1275 3809 
L 1275 3500 
L 2222 3500 
L 2222 3053 
L 1275 3053 
L 1275 0 
L 697 0 
L 697 3053 
L 147 3053 
L 147 3500 
L 697 3500 
L 697 3744 
Q 697 4328 969 4595 
Q 1241 4863 1831 4863 
L 2375 4863 
z
" id="DejaVuSans-66" transform="scale(0.015625)"/>
       <path d="M 1259 4147 
L 1259 519 
L 2022 519 
Q 2988 519 3436 956 
Q 3884 1394 3884 2338 
Q 3884 3275 3436 3711 
Q 2988 4147 2022 4147 
L 1259 4147 
z
M 628 4666 
L 1925 4666 
Q 3281 4666 3915 4102 
Q 4550 3538 4550 2338 
Q 4550 1131 3912 565 
Q 3275 0 1925 0 
L 628 0 
L 628 4666 
z
" id="DejaVuSans-44" transform="scale(0.015625)"/>
       <path d="M 1984 4856 
Q 1566 4138 1362 3434 
Q 1159 2731 1159 2009 
Q 1159 1288 1364 580 
Q 1569 -128 1984 -844 
L 1484 -844 
Q 1016 -109 783 600 
Q 550 1309 550 2009 
Q 550 2706 781 3412 
Q 1013 4119 1484 4856 
L 1984 4856 
z
" id="DejaVuSans-28" transform="scale(0.015625)"/>
       <path d="M 678 2906 
L 4684 2906 
L 4684 2381 
L 678 2381 
L 678 2906 
z
M 678 1631 
L 4684 1631 
L 4684 1100 
L 678 1100 
L 678 1631 
z
" id="DejaVuSans-3d" transform="scale(0.015625)"/>
       <path d="M 703 97 
L 703 672 
Q 941 559 1184 500 
Q 1428 441 1663 441 
Q 2288 441 2617 861 
Q 2947 1281 2994 2138 
Q 2813 1869 2534 1725 
Q 2256 1581 1919 1581 
Q 1219 1581 811 2004 
Q 403 2428 403 3163 
Q 403 3881 828 4315 
Q 1253 4750 1959 4750 
Q 2769 4750 3195 4129 
Q 3622 3509 3622 2328 
Q 3622 1225 3098 567 
Q 2575 -91 1691 -91 
Q 1453 -91 1209 -44 
Q 966 3 703 97 
z
M 1959 2075 
Q 2384 2075 2632 2365 
Q 2881 2656 2881 3163 
Q 2881 3666 2632 3958 
Q 2384 4250 1959 4250 
Q 1534 4250 1286 3958 
Q 1038 3666 1038 3163 
Q 1038 2656 1286 2365 
Q 1534 2075 1959 2075 
z
" id="DejaVuSans-39" transform="scale(0.015625)"/>
       <path d="M 513 4856 
L 1013 4856 
Q 1481 4119 1714 3412 
Q 1947 2706 1947 2009 
Q 1947 1309 1714 600 
Q 1481 -109 1013 -844 
L 513 -844 
Q 928 -128 1133 580 
Q 1338 1288 1338 2009 
Q 1338 2731 1133 3434 
Q 928 4138 513 4856 
z
" id="DejaVuSans-29" transform="scale(0.015625)"/>
      </defs>
      <use xlink:href="#DejaVuSans-52"/>
      <use x="69.482422" xlink:href="#DejaVuSans-4f"/>
      <use x="148.193359" xlink:href="#DejaVuSans-43"/>
      <use x="218.017578" xlink:href="#DejaVuSans-20"/>
      <use x="249.804688" xlink:href="#DejaVuSans-63"/>
      <use x="304.785156" xlink:href="#DejaVuSans-75"/>
      <use x="368.164062" xlink:href="#DejaVuSans-72"/>
      <use x="409.277344" xlink:href="#DejaVuSans-76"/>
      <use x="468.457031" xlink:href="#DejaVuSans-65"/>
      <use x="529.980469" xlink:href="#DejaVuSans-20"/>
      <use x="561.767578" xlink:href="#DejaVuSans-6f"/>
      <use x="622.949219" xlink:href="#DejaVuSans-66"/>
      <use x="658.154297" xlink:href="#DejaVuSans-20"/>
      <use x="689.941406" xlink:href="#DejaVuSans-43"/>
      <use x="759.765625" xlink:href="#DejaVuSans-44"/>
      <use x="836.767578" xlink:href="#DejaVuSans-34"/>
      <use x="900.390625" xlink:href="#DejaVuSans-20"/>
      <use x="932.177734" xlink:href="#DejaVuSans-28"/>
      <use x="971.191406" xlink:href="#DejaVuSans-61"/>
      <use x="1032.470703" xlink:href="#DejaVuSans-72"/>
      <use x="1071.333984" xlink:href="#DejaVuSans-65"/>
      <use x="1132.857422" xlink:href="#DejaVuSans-61"/>
      <use x="1194.136719" xlink:href="#DejaVuSans-20"/>
      <use x="1225.923828" xlink:href="#DejaVuSans-3d"/>
      <use x="1309.712891" xlink:href="#DejaVuSans-20"/>
      <use x="1341.5" xlink:href="#DejaVuSans-30"/>
      <use x="1405.123047" xlink:href="#DejaVuSans-2e"/>
      <use x="1436.910156" xlink:href="#DejaVuSans-39"/>
      <use x="1500.533203" xlink:href="#DejaVuSans-39"/>
      <use x="1564.15625" xlink:href="#DejaVuSans-29"/>
     </g>
    </g>
    <g id="line2d_18">
     <path d="M 217.40125 293.004312 
L 237.40125 293.004312 
" style="fill:none;stroke:#e0a48c;stroke-linecap:square;stroke-width:2;"/>
    </g>
    <g id="line2d_19"/>
    <g id="text_17">
     <!-- ROC curve of CD8 (area = 0.99) -->
     <g transform="translate(245.40125 296.504312)scale(0.1 -0.1)">
      <use xlink:href="#DejaVuSans-52"/>
      <use x="69.482422" xlink:href="#DejaVuSans-4f"/>
      <use x="148.193359" xlink:href="#DejaVuSans-43"/>
      <use x="218.017578" xlink:href="#DejaVuSans-20"/>
      <use x="249.804688" xlink:href="#DejaVuSans-63"/>
      <use x="304.785156" xlink:href="#DejaVuSans-75"/>
      <use x="368.164062" xlink:href="#DejaVuSans-72"/>
      <use x="409.277344" xlink:href="#DejaVuSans-76"/>
      <use x="468.457031" xlink:href="#DejaVuSans-65"/>
      <use x="529.980469" xlink:href="#DejaVuSans-20"/>
      <use x="561.767578" xlink:href="#DejaVuSans-6f"/>
      <use x="622.949219" xlink:href="#DejaVuSans-66"/>
      <use x="658.154297" xlink:href="#DejaVuSans-20"/>
      <use x="689.941406" xlink:href="#DejaVuSans-43"/>
      <use x="759.765625" xlink:href="#DejaVuSans-44"/>
      <use x="836.767578" xlink:href="#DejaVuSans-38"/>
      <use x="900.390625" xlink:href="#DejaVuSans-20"/>
      <use x="932.177734" xlink:href="#DejaVuSans-28"/>
      <use x="971.191406" xlink:href="#DejaVuSans-61"/>
      <use x="1032.470703" xlink:href="#DejaVuSans-72"/>
      <use x="1071.333984" xlink:href="#DejaVuSans-65"/>
      <use x="1132.857422" xlink:href="#DejaVuSans-61"/>
      <use x="1194.136719" xlink:href="#DejaVuSans-20"/>
      <use x="1225.923828" xlink:href="#DejaVuSans-3d"/>
      <use x="1309.712891" xlink:href="#DejaVuSans-20"/>
      <use x="1341.5" xlink:href="#DejaVuSans-30"/>
      <use x="1405.123047" xlink:href="#DejaVuSans-2e"/>
      <use x="1436.910156" xlink:href="#DejaVuSans-39"/>
      <use x="1500.533203" xlink:href="#DejaVuSans-39"/>
      <use x="1564.15625" xlink:href="#DejaVuSans-29"/>
     </g>
    </g>
   </g>
  </g>
 </g>
 <defs>
  <clipPath id="pcaebee4548">
   <rect height="266.112" width="357.12" x="57.6" y="41.472"/>
  </clipPath>
 </defs>
</svg>
