<?xml version="1.0" encoding="utf-8" standalone="no"?>
<!DOCTYPE svg PUBLIC "-//W3C//DTD SVG 1.1//EN"
  "http://www.w3.org/Graphics/SVG/1.1/DTD/svg11.dtd">
<svg height="345.6pt" version="1.1" viewBox="0 0 460.8 345.6" width="460.8pt" xmlns="http://www.w3.org/2000/svg" xmlns:xlink="http://www.w3.org/1999/xlink">
 <metadata>
  <rdf:RDF xmlns:cc="http://creativecommons.org/ns#" xmlns:dc="http://purl.org/dc/elements/1.1/" xmlns:rdf="http://www.w3.org/1999/02/22-rdf-syntax-ns#">
   <cc:Work>
    <dc:type rdf:resource="http://purl.org/dc/dcmitype/StillImage"/>
    <dc:date>2021-08-12T09:03:58.841024</dc:date>
    <dc:format>image/svg+xml</dc:format>
    <dc:creator>
     <cc:Agent>
      <dc:title>Matplotlib v3.4.2, https://matplotlib.org/</dc:title>
     </cc:Agent>
    </dc:creator>
   </cc:Work>
  </rdf:RDF>
 </metadata>
 <defs>
  <style type="text/css">*{stroke-linecap:butt;stroke-linejoin:round;}</style>
 </defs>
 <g id="figure_1">
  <g id="patch_1">
   <path d="M 0 345.6 
L 460.8 345.6 
L 460.8 0 
L 0 0 
z
" style="fill:#ffffff;"/>
  </g>
  <g id="axes_1">
   <g id="patch_2">
    <path d="M 57.6 307.584 
L 414.72 307.584 
L 414.72 41.472 
L 57.6 41.472 
z
" style="fill:#ffffff;"/>
   </g>
   <g id="matplotlib.axis_1">
    <g id="xtick_1">
     <g id="line2d_1">
      <defs>
       <path d="M 0 0 
L 0 3.5 
" id="m76f253170c" style="stroke:#000000;stroke-width:0.8;"/>
      </defs>
      <g>
       <use style="stroke:#000000;stroke-width:0.8;" x="57.6" xlink:href="#m76f253170c" y="307.584"/>
      </g>
     </g>
     <g id="text_1">
      <!-- 0.0 -->
      <g transform="translate(49.648438 322.182437)scale(0.1 -0.1)">
       <defs>
        <path d="M 2034 4250 
Q 1547 4250 1301 3770 
Q 1056 3291 1056 2328 
Q 1056 1369 1301 889 
Q 1547 409 2034 409 
Q 2525 409 2770 889 
Q 3016 1369 3016 2328 
Q 3016 3291 2770 3770 
Q 2525 4250 2034 4250 
z
M 2034 4750 
Q 2819 4750 3233 4129 
Q 3647 3509 3647 2328 
Q 3647 1150 3233 529 
Q 2819 -91 2034 -91 
Q 1250 -91 836 529 
Q 422 1150 422 2328 
Q 422 3509 836 4129 
Q 1250 4750 2034 4750 
z
" id="DejaVuSans-30" transform="scale(0.015625)"/>
        <path d="M 684 794 
L 1344 794 
L 1344 0 
L 684 0 
L 684 794 
z
" id="DejaVuSans-2e" transform="scale(0.015625)"/>
       </defs>
       <use xlink:href="#DejaVuSans-30"/>
       <use x="63.623047" xlink:href="#DejaVuSans-2e"/>
       <use x="95.410156" xlink:href="#DejaVuSans-30"/>
      </g>
     </g>
    </g>
    <g id="xtick_2">
     <g id="line2d_2">
      <g>
       <use style="stroke:#000000;stroke-width:0.8;" x="129.024" xlink:href="#m76f253170c" y="307.584"/>
      </g>
     </g>
     <g id="text_2">
      <!-- 0.2 -->
      <g transform="translate(121.072438 322.182437)scale(0.1 -0.1)">
       <defs>
        <path d="M 1228 531 
L 3431 531 
L 3431 0 
L 469 0 
L 469 531 
Q 828 903 1448 1529 
Q 2069 2156 2228 2338 
Q 2531 2678 2651 2914 
Q 2772 3150 2772 3378 
Q 2772 3750 2511 3984 
Q 2250 4219 1831 4219 
Q 1534 4219 1204 4116 
Q 875 4013 500 3803 
L 500 4441 
Q 881 4594 1212 4672 
Q 1544 4750 1819 4750 
Q 2544 4750 2975 4387 
Q 3406 4025 3406 3419 
Q 3406 3131 3298 2873 
Q 3191 2616 2906 2266 
Q 2828 2175 2409 1742 
Q 1991 1309 1228 531 
z
" id="DejaVuSans-32" transform="scale(0.015625)"/>
       </defs>
       <use xlink:href="#DejaVuSans-30"/>
       <use x="63.623047" xlink:href="#DejaVuSans-2e"/>
       <use x="95.410156" xlink:href="#DejaVuSans-32"/>
      </g>
     </g>
    </g>
    <g id="xtick_3">
     <g id="line2d_3">
      <g>
       <use style="stroke:#000000;stroke-width:0.8;" x="200.448" xlink:href="#m76f253170c" y="307.584"/>
      </g>
     </g>
     <g id="text_3">
      <!-- 0.4 -->
      <g transform="translate(192.496438 322.182437)scale(0.1 -0.1)">
       <defs>
        <path d="M 2419 4116 
L 825 1625 
L 2419 1625 
L 2419 4116 
z
M 2253 4666 
L 3047 4666 
L 3047 1625 
L 3713 1625 
L 3713 1100 
L 3047 1100 
L 3047 0 
L 2419 0 
L 2419 1100 
L 313 1100 
L 313 1709 
L 2253 4666 
z
" id="DejaVuSans-34" transform="scale(0.015625)"/>
       </defs>
       <use xlink:href="#DejaVuSans-30"/>
       <use x="63.623047" xlink:href="#DejaVuSans-2e"/>
       <use x="95.410156" xlink:href="#DejaVuSans-34"/>
      </g>
     </g>
    </g>
    <g id="xtick_4">
     <g id="line2d_4">
      <g>
       <use style="stroke:#000000;stroke-width:0.8;" x="271.872" xlink:href="#m76f253170c" y="307.584"/>
      </g>
     </g>
     <g id="text_4">
      <!-- 0.6 -->
      <g transform="translate(263.920438 322.182437)scale(0.1 -0.1)">
       <defs>
        <path d="M 2113 2584 
Q 1688 2584 1439 2293 
Q 1191 2003 1191 1497 
Q 1191 994 1439 701 
Q 1688 409 2113 409 
Q 2538 409 2786 701 
Q 3034 994 3034 1497 
Q 3034 2003 2786 2293 
Q 2538 2584 2113 2584 
z
M 3366 4563 
L 3366 3988 
Q 3128 4100 2886 4159 
Q 2644 4219 2406 4219 
Q 1781 4219 1451 3797 
Q 1122 3375 1075 2522 
Q 1259 2794 1537 2939 
Q 1816 3084 2150 3084 
Q 2853 3084 3261 2657 
Q 3669 2231 3669 1497 
Q 3669 778 3244 343 
Q 2819 -91 2113 -91 
Q 1303 -91 875 529 
Q 447 1150 447 2328 
Q 447 3434 972 4092 
Q 1497 4750 2381 4750 
Q 2619 4750 2861 4703 
Q 3103 4656 3366 4563 
z
" id="DejaVuSans-36" transform="scale(0.015625)"/>
       </defs>
       <use xlink:href="#DejaVuSans-30"/>
       <use x="63.623047" xlink:href="#DejaVuSans-2e"/>
       <use x="95.410156" xlink:href="#DejaVuSans-36"/>
      </g>
     </g>
    </g>
    <g id="xtick_5">
     <g id="line2d_5">
      <g>
       <use style="stroke:#000000;stroke-width:0.8;" x="343.296" xlink:href="#m76f253170c" y="307.584"/>
      </g>
     </g>
     <g id="text_5">
      <!-- 0.8 -->
      <g transform="translate(335.344438 322.182437)scale(0.1 -0.1)">
       <defs>
        <path d="M 2034 2216 
Q 1584 2216 1326 1975 
Q 1069 1734 1069 1313 
Q 1069 891 1326 650 
Q 1584 409 2034 409 
Q 2484 409 2743 651 
Q 3003 894 3003 1313 
Q 3003 1734 2745 1975 
Q 2488 2216 2034 2216 
z
M 1403 2484 
Q 997 2584 770 2862 
Q 544 3141 544 3541 
Q 544 4100 942 4425 
Q 1341 4750 2034 4750 
Q 2731 4750 3128 4425 
Q 3525 4100 3525 3541 
Q 3525 3141 3298 2862 
Q 3072 2584 2669 2484 
Q 3125 2378 3379 2068 
Q 3634 1759 3634 1313 
Q 3634 634 3220 271 
Q 2806 -91 2034 -91 
Q 1263 -91 848 271 
Q 434 634 434 1313 
Q 434 1759 690 2068 
Q 947 2378 1403 2484 
z
M 1172 3481 
Q 1172 3119 1398 2916 
Q 1625 2713 2034 2713 
Q 2441 2713 2670 2916 
Q 2900 3119 2900 3481 
Q 2900 3844 2670 4047 
Q 2441 4250 2034 4250 
Q 1625 4250 1398 4047 
Q 1172 3844 1172 3481 
z
" id="DejaVuSans-38" transform="scale(0.015625)"/>
       </defs>
       <use xlink:href="#DejaVuSans-30"/>
       <use x="63.623047" xlink:href="#DejaVuSans-2e"/>
       <use x="95.410156" xlink:href="#DejaVuSans-38"/>
      </g>
     </g>
    </g>
    <g id="xtick_6">
     <g id="line2d_6">
      <g>
       <use style="stroke:#000000;stroke-width:0.8;" x="414.72" xlink:href="#m76f253170c" y="307.584"/>
      </g>
     </g>
     <g id="text_6">
      <!-- 1.0 -->
      <g transform="translate(406.768438 322.182437)scale(0.1 -0.1)">
       <defs>
        <path d="M 794 531 
L 1825 531 
L 1825 4091 
L 703 3866 
L 703 4441 
L 1819 4666 
L 2450 4666 
L 2450 531 
L 3481 531 
L 3481 0 
L 794 0 
L 794 531 
z
" id="DejaVuSans-31" transform="scale(0.015625)"/>
       </defs>
       <use xlink:href="#DejaVuSans-31"/>
       <use x="63.623047" xlink:href="#DejaVuSans-2e"/>
       <use x="95.410156" xlink:href="#DejaVuSans-30"/>
      </g>
     </g>
    </g>
    <g id="text_7">
     <!-- False Positive Rate -->
     <g transform="translate(189.693594 335.860562)scale(0.1 -0.1)">
      <defs>
       <path d="M 628 4666 
L 3309 4666 
L 3309 4134 
L 1259 4134 
L 1259 2759 
L 3109 2759 
L 3109 2228 
L 1259 2228 
L 1259 0 
L 628 0 
L 628 4666 
z
" id="DejaVuSans-46" transform="scale(0.015625)"/>
       <path d="M 2194 1759 
Q 1497 1759 1228 1600 
Q 959 1441 959 1056 
Q 959 750 1161 570 
Q 1363 391 1709 391 
Q 2188 391 2477 730 
Q 2766 1069 2766 1631 
L 2766 1759 
L 2194 1759 
z
M 3341 1997 
L 3341 0 
L 2766 0 
L 2766 531 
Q 2569 213 2275 61 
Q 1981 -91 1556 -91 
Q 1019 -91 701 211 
Q 384 513 384 1019 
Q 384 1609 779 1909 
Q 1175 2209 1959 2209 
L 2766 2209 
L 2766 2266 
Q 2766 2663 2505 2880 
Q 2244 3097 1772 3097 
Q 1472 3097 1187 3025 
Q 903 2953 641 2809 
L 641 3341 
Q 956 3463 1253 3523 
Q 1550 3584 1831 3584 
Q 2591 3584 2966 3190 
Q 3341 2797 3341 1997 
z
" id="DejaVuSans-61" transform="scale(0.015625)"/>
       <path d="M 603 4863 
L 1178 4863 
L 1178 0 
L 603 0 
L 603 4863 
z
" id="DejaVuSans-6c" transform="scale(0.015625)"/>
       <path d="M 2834 3397 
L 2834 2853 
Q 2591 2978 2328 3040 
Q 2066 3103 1784 3103 
Q 1356 3103 1142 2972 
Q 928 2841 928 2578 
Q 928 2378 1081 2264 
Q 1234 2150 1697 2047 
L 1894 2003 
Q 2506 1872 2764 1633 
Q 3022 1394 3022 966 
Q 3022 478 2636 193 
Q 2250 -91 1575 -91 
Q 1294 -91 989 -36 
Q 684 19 347 128 
L 347 722 
Q 666 556 975 473 
Q 1284 391 1588 391 
Q 1994 391 2212 530 
Q 2431 669 2431 922 
Q 2431 1156 2273 1281 
Q 2116 1406 1581 1522 
L 1381 1569 
Q 847 1681 609 1914 
Q 372 2147 372 2553 
Q 372 3047 722 3315 
Q 1072 3584 1716 3584 
Q 2034 3584 2315 3537 
Q 2597 3491 2834 3397 
z
" id="DejaVuSans-73" transform="scale(0.015625)"/>
       <path d="M 3597 1894 
L 3597 1613 
L 953 1613 
Q 991 1019 1311 708 
Q 1631 397 2203 397 
Q 2534 397 2845 478 
Q 3156 559 3463 722 
L 3463 178 
Q 3153 47 2828 -22 
Q 2503 -91 2169 -91 
Q 1331 -91 842 396 
Q 353 884 353 1716 
Q 353 2575 817 3079 
Q 1281 3584 2069 3584 
Q 2775 3584 3186 3129 
Q 3597 2675 3597 1894 
z
M 3022 2063 
Q 3016 2534 2758 2815 
Q 2500 3097 2075 3097 
Q 1594 3097 1305 2825 
Q 1016 2553 972 2059 
L 3022 2063 
z
" id="DejaVuSans-65" transform="scale(0.015625)"/>
       <path id="DejaVuSans-20" transform="scale(0.015625)"/>
       <path d="M 1259 4147 
L 1259 2394 
L 2053 2394 
Q 2494 2394 2734 2622 
Q 2975 2850 2975 3272 
Q 2975 3691 2734 3919 
Q 2494 4147 2053 4147 
L 1259 4147 
z
M 628 4666 
L 2053 4666 
Q 2838 4666 3239 4311 
Q 3641 3956 3641 3272 
Q 3641 2581 3239 2228 
Q 2838 1875 2053 1875 
L 1259 1875 
L 1259 0 
L 628 0 
L 628 4666 
z
" id="DejaVuSans-50" transform="scale(0.015625)"/>
       <path d="M 1959 3097 
Q 1497 3097 1228 2736 
Q 959 2375 959 1747 
Q 959 1119 1226 758 
Q 1494 397 1959 397 
Q 2419 397 2687 759 
Q 2956 1122 2956 1747 
Q 2956 2369 2687 2733 
Q 2419 3097 1959 3097 
z
M 1959 3584 
Q 2709 3584 3137 3096 
Q 3566 2609 3566 1747 
Q 3566 888 3137 398 
Q 2709 -91 1959 -91 
Q 1206 -91 779 398 
Q 353 888 353 1747 
Q 353 2609 779 3096 
Q 1206 3584 1959 3584 
z
" id="DejaVuSans-6f" transform="scale(0.015625)"/>
       <path d="M 603 3500 
L 1178 3500 
L 1178 0 
L 603 0 
L 603 3500 
z
M 603 4863 
L 1178 4863 
L 1178 4134 
L 603 4134 
L 603 4863 
z
" id="DejaVuSans-69" transform="scale(0.015625)"/>
       <path d="M 1172 4494 
L 1172 3500 
L 2356 3500 
L 2356 3053 
L 1172 3053 
L 1172 1153 
Q 1172 725 1289 603 
Q 1406 481 1766 481 
L 2356 481 
L 2356 0 
L 1766 0 
Q 1100 0 847 248 
Q 594 497 594 1153 
L 594 3053 
L 172 3053 
L 172 3500 
L 594 3500 
L 594 4494 
L 1172 4494 
z
" id="DejaVuSans-74" transform="scale(0.015625)"/>
       <path d="M 191 3500 
L 800 3500 
L 1894 563 
L 2988 3500 
L 3597 3500 
L 2284 0 
L 1503 0 
L 191 3500 
z
" id="DejaVuSans-76" transform="scale(0.015625)"/>
       <path d="M 2841 2188 
Q 3044 2119 3236 1894 
Q 3428 1669 3622 1275 
L 4263 0 
L 3584 0 
L 2988 1197 
Q 2756 1666 2539 1819 
Q 2322 1972 1947 1972 
L 1259 1972 
L 1259 0 
L 628 0 
L 628 4666 
L 2053 4666 
Q 2853 4666 3247 4331 
Q 3641 3997 3641 3322 
Q 3641 2881 3436 2590 
Q 3231 2300 2841 2188 
z
M 1259 4147 
L 1259 2491 
L 2053 2491 
Q 2509 2491 2742 2702 
Q 2975 2913 2975 3322 
Q 2975 3731 2742 3939 
Q 2509 4147 2053 4147 
L 1259 4147 
z
" id="DejaVuSans-52" transform="scale(0.015625)"/>
      </defs>
      <use xlink:href="#DejaVuSans-46"/>
      <use x="48.394531" xlink:href="#DejaVuSans-61"/>
      <use x="109.673828" xlink:href="#DejaVuSans-6c"/>
      <use x="137.457031" xlink:href="#DejaVuSans-73"/>
      <use x="189.556641" xlink:href="#DejaVuSans-65"/>
      <use x="251.080078" xlink:href="#DejaVuSans-20"/>
      <use x="282.867188" xlink:href="#DejaVuSans-50"/>
      <use x="339.544922" xlink:href="#DejaVuSans-6f"/>
      <use x="400.726562" xlink:href="#DejaVuSans-73"/>
      <use x="452.826172" xlink:href="#DejaVuSans-69"/>
      <use x="480.609375" xlink:href="#DejaVuSans-74"/>
      <use x="519.818359" xlink:href="#DejaVuSans-69"/>
      <use x="547.601562" xlink:href="#DejaVuSans-76"/>
      <use x="606.78125" xlink:href="#DejaVuSans-65"/>
      <use x="668.304688" xlink:href="#DejaVuSans-20"/>
      <use x="700.091797" xlink:href="#DejaVuSans-52"/>
      <use x="767.324219" xlink:href="#DejaVuSans-61"/>
      <use x="828.603516" xlink:href="#DejaVuSans-74"/>
      <use x="867.8125" xlink:href="#DejaVuSans-65"/>
     </g>
    </g>
   </g>
   <g id="matplotlib.axis_2">
    <g id="ytick_1">
     <g id="line2d_7">
      <defs>
       <path d="M 0 0 
L -3.5 0 
" id="mb87ef51d23" style="stroke:#000000;stroke-width:0.8;"/>
      </defs>
      <g>
       <use style="stroke:#000000;stroke-width:0.8;" x="57.6" xlink:href="#mb87ef51d23" y="307.584"/>
      </g>
     </g>
     <g id="text_8">
      <!-- 0.0 -->
      <g transform="translate(34.696875 311.383219)scale(0.1 -0.1)">
       <use xlink:href="#DejaVuSans-30"/>
       <use x="63.623047" xlink:href="#DejaVuSans-2e"/>
       <use x="95.410156" xlink:href="#DejaVuSans-30"/>
      </g>
     </g>
    </g>
    <g id="ytick_2">
     <g id="line2d_8">
      <g>
       <use style="stroke:#000000;stroke-width:0.8;" x="57.6" xlink:href="#mb87ef51d23" y="256.896"/>
      </g>
     </g>
     <g id="text_9">
      <!-- 0.2 -->
      <g transform="translate(34.696875 260.695219)scale(0.1 -0.1)">
       <use xlink:href="#DejaVuSans-30"/>
       <use x="63.623047" xlink:href="#DejaVuSans-2e"/>
       <use x="95.410156" xlink:href="#DejaVuSans-32"/>
      </g>
     </g>
    </g>
    <g id="ytick_3">
     <g id="line2d_9">
      <g>
       <use style="stroke:#000000;stroke-width:0.8;" x="57.6" xlink:href="#mb87ef51d23" y="206.208"/>
      </g>
     </g>
     <g id="text_10">
      <!-- 0.4 -->
      <g transform="translate(34.696875 210.007219)scale(0.1 -0.1)">
       <use xlink:href="#DejaVuSans-30"/>
       <use x="63.623047" xlink:href="#DejaVuSans-2e"/>
       <use x="95.410156" xlink:href="#DejaVuSans-34"/>
      </g>
     </g>
    </g>
    <g id="ytick_4">
     <g id="line2d_10">
      <g>
       <use style="stroke:#000000;stroke-width:0.8;" x="57.6" xlink:href="#mb87ef51d23" y="155.52"/>
      </g>
     </g>
     <g id="text_11">
      <!-- 0.6 -->
      <g transform="translate(34.696875 159.319219)scale(0.1 -0.1)">
       <use xlink:href="#DejaVuSans-30"/>
       <use x="63.623047" xlink:href="#DejaVuSans-2e"/>
       <use x="95.410156" xlink:href="#DejaVuSans-36"/>
      </g>
     </g>
    </g>
    <g id="ytick_5">
     <g id="line2d_11">
      <g>
       <use style="stroke:#000000;stroke-width:0.8;" x="57.6" xlink:href="#mb87ef51d23" y="104.832"/>
      </g>
     </g>
     <g id="text_12">
      <!-- 0.8 -->
      <g transform="translate(34.696875 108.631219)scale(0.1 -0.1)">
       <use xlink:href="#DejaVuSans-30"/>
       <use x="63.623047" xlink:href="#DejaVuSans-2e"/>
       <use x="95.410156" xlink:href="#DejaVuSans-38"/>
      </g>
     </g>
    </g>
    <g id="ytick_6">
     <g id="line2d_12">
      <g>
       <use style="stroke:#000000;stroke-width:0.8;" x="57.6" xlink:href="#mb87ef51d23" y="54.144"/>
      </g>
     </g>
     <g id="text_13">
      <!-- 1.0 -->
      <g transform="translate(34.696875 57.943219)scale(0.1 -0.1)">
       <use xlink:href="#DejaVuSans-31"/>
       <use x="63.623047" xlink:href="#DejaVuSans-2e"/>
       <use x="95.410156" xlink:href="#DejaVuSans-30"/>
      </g>
     </g>
    </g>
    <g id="text_14">
     <!-- True Positive Rate -->
     <g transform="translate(28.617187 219.057687)rotate(-90)scale(0.1 -0.1)">
      <defs>
       <path d="M -19 4666 
L 3928 4666 
L 3928 4134 
L 2272 4134 
L 2272 0 
L 1638 0 
L 1638 4134 
L -19 4134 
L -19 4666 
z
" id="DejaVuSans-54" transform="scale(0.015625)"/>
       <path d="M 2631 2963 
Q 2534 3019 2420 3045 
Q 2306 3072 2169 3072 
Q 1681 3072 1420 2755 
Q 1159 2438 1159 1844 
L 1159 0 
L 581 0 
L 581 3500 
L 1159 3500 
L 1159 2956 
Q 1341 3275 1631 3429 
Q 1922 3584 2338 3584 
Q 2397 3584 2469 3576 
Q 2541 3569 2628 3553 
L 2631 2963 
z
" id="DejaVuSans-72" transform="scale(0.015625)"/>
       <path d="M 544 1381 
L 544 3500 
L 1119 3500 
L 1119 1403 
Q 1119 906 1312 657 
Q 1506 409 1894 409 
Q 2359 409 2629 706 
Q 2900 1003 2900 1516 
L 2900 3500 
L 3475 3500 
L 3475 0 
L 2900 0 
L 2900 538 
Q 2691 219 2414 64 
Q 2138 -91 1772 -91 
Q 1169 -91 856 284 
Q 544 659 544 1381 
z
M 1991 3584 
L 1991 3584 
z
" id="DejaVuSans-75" transform="scale(0.015625)"/>
      </defs>
      <use xlink:href="#DejaVuSans-54"/>
      <use x="46.333984" xlink:href="#DejaVuSans-72"/>
      <use x="87.447266" xlink:href="#DejaVuSans-75"/>
      <use x="150.826172" xlink:href="#DejaVuSans-65"/>
      <use x="212.349609" xlink:href="#DejaVuSans-20"/>
      <use x="244.136719" xlink:href="#DejaVuSans-50"/>
      <use x="300.814453" xlink:href="#DejaVuSans-6f"/>
      <use x="361.996094" xlink:href="#DejaVuSans-73"/>
      <use x="414.095703" xlink:href="#DejaVuSans-69"/>
      <use x="441.878906" xlink:href="#DejaVuSans-74"/>
      <use x="481.087891" xlink:href="#DejaVuSans-69"/>
      <use x="508.871094" xlink:href="#DejaVuSans-76"/>
      <use x="568.050781" xlink:href="#DejaVuSans-65"/>
      <use x="629.574219" xlink:href="#DejaVuSans-20"/>
      <use x="661.361328" xlink:href="#DejaVuSans-52"/>
      <use x="728.59375" xlink:href="#DejaVuSans-61"/>
      <use x="789.873047" xlink:href="#DejaVuSans-74"/>
      <use x="829.082031" xlink:href="#DejaVuSans-65"/>
     </g>
    </g>
   </g>
   <g id="line2d_13">
    <path clip-path="url(#p9c82dc860d)" d="M 57.6 307.584 
L 57.6 124.482323 
L 57.758298 124.482323 
L 57.758298 112.98395 
L 57.916596 112.98395 
L 57.916596 105.371234 
L 58.074894 105.371234 
L 58.074894 100.375389 
L 58.233191 100.375389 
L 58.233191 97.917116 
L 58.391489 97.917116 
L 58.391489 97.679219 
L 58.549787 97.679219 
L 58.549787 92.445477 
L 58.708085 92.445477 
L 58.708085 91.731785 
L 58.866383 91.731785 
L 58.866383 91.25599 
L 59.182979 91.176691 
L 59.182979 89.828606 
L 59.341277 89.828606 
L 59.341277 89.511409 
L 59.499574 89.511409 
L 59.499574 87.449632 
L 59.657872 87.449632 
L 59.657872 87.211735 
L 59.81617 87.211735 
L 59.81617 86.815239 
L 59.974468 86.815239 
L 59.974468 85.625752 
L 60.132766 85.625752 
L 60.132766 85.070658 
L 60.291064 85.070658 
L 60.291064 83.960471 
L 60.449362 83.960471 
L 60.449362 81.740095 
L 60.60766 81.740095 
L 60.60766 80.629907 
L 60.924255 80.550608 
L 60.924255 80.074814 
L 61.240851 80.074814 
L 61.240851 78.726728 
L 61.399149 78.726728 
L 61.399149 78.171635 
L 61.557447 78.171635 
L 61.557447 77.69584 
L 61.715745 77.69584 
L 61.715745 77.299344 
L 61.874043 77.299344 
L 61.874043 76.823549 
L 62.03234 76.823549 
L 62.03234 75.158268 
L 62.190638 75.158268 
L 62.190638 74.365277 
L 62.665532 74.285977 
L 62.665532 73.492986 
L 62.982128 73.413687 
L 62.982128 72.541397 
L 63.298723 72.541397 
L 63.298723 72.2242 
L 63.457021 72.2242 
L 63.457021 71.748406 
L 63.615319 71.748406 
L 63.615319 71.431209 
L 63.773617 71.431209 
L 63.773617 71.114013 
L 64.090213 71.114013 
L 64.090213 70.638218 
L 64.406809 70.558919 
L 64.406809 70.083124 
L 64.565106 70.083124 
L 64.565106 69.924526 
L 64.723404 69.924526 
L 64.723404 69.52803 
L 64.881702 69.52803 
L 64.881702 69.052235 
L 65.04 69.052235 
L 65.04 68.65574 
L 65.198298 68.65574 
L 65.198298 68.338543 
L 65.356596 68.338543 
L 65.356596 67.783449 
L 65.831489 67.70415 
L 65.831489 67.624851 
L 65.989787 67.624851 
L 65.989787 67.466253 
L 66.306383 67.386954 
L 66.306383 67.228355 
L 66.781277 67.228355 
L 66.781277 66.990458 
L 67.25617 66.911159 
L 67.25617 66.83186 
L 67.572766 66.752561 
L 67.572766 66.673262 
L 67.889362 66.673262 
L 67.889362 66.514663 
L 68.04766 66.514663 
L 68.04766 66.118168 
L 68.680851 66.038869 
L 68.680851 65.642373 
L 69.155745 65.563074 
L 69.155745 65.483775 
L 69.314043 65.483775 
L 69.314043 65.245877 
L 69.630638 65.166578 
L 69.630638 64.690783 
L 69.947234 64.690783 
L 69.947234 63.897792 
L 70.26383 63.818493 
L 70.26383 63.580596 
L 70.580426 63.501297 
L 70.580426 63.342698 
L 71.055319 63.342698 
L 71.055319 63.1841 
L 71.213617 63.1841 
L 71.213617 63.025502 
L 71.688511 62.946203 
L 71.688511 62.787605 
L 71.846809 62.787605 
L 71.846809 62.470408 
L 72.638298 62.391109 
L 72.638298 62.153212 
L 72.796596 62.153212 
L 72.796596 61.994613 
L 73.113191 61.994613 
L 73.113191 61.677417 
L 73.746383 61.598118 
L 73.746383 61.439519 
L 73.904681 61.439519 
L 73.904681 61.280921 
L 74.854468 61.201622 
L 74.854468 61.043024 
L 75.171064 61.043024 
L 75.171064 60.884426 
L 76.595745 60.805126 
L 76.595745 60.725827 
L 76.91234 60.646528 
L 76.91234 60.567229 
L 77.862128 60.48793 
L 77.862128 60.329332 
L 79.761702 60.250033 
L 79.761702 60.091434 
L 80.078298 60.012135 
L 80.078298 59.853537 
L 81.028085 59.774238 
L 81.028085 59.694939 
L 81.661277 59.61564 
L 81.661277 59.53634 
L 82.13617 59.457041 
L 82.13617 59.377742 
L 83.085957 59.298443 
L 83.085957 59.219144 
L 84.035745 59.139845 
L 84.035745 59.060546 
L 84.194043 59.060546 
L 84.194043 58.822648 
L 84.668936 58.822648 
L 84.668936 58.584751 
L 85.777021 58.505452 
L 85.777021 58.346854 
L 87.201702 58.267554 
L 87.201702 58.188255 
L 88.626383 58.188255 
L 88.626383 58.029657 
L 90.051064 57.950358 
L 90.051064 57.79176 
L 90.36766 57.79176 
L 90.36766 57.633161 
L 91.317447 57.553862 
L 91.317447 57.474563 
L 92.267234 57.395264 
L 92.267234 57.315965 
L 95.274894 57.236666 
L 95.274894 57.078068 
L 98.599149 56.998768 
L 98.599149 56.919469 
L 99.074043 56.919469 
L 99.074043 56.760871 
L 100.498723 56.681572 
L 100.498723 56.522974 
L 105.564255 56.443675 
L 105.564255 56.364375 
L 105.722553 56.364375 
L 105.722553 56.205777 
L 106.355745 56.126478 
L 106.355745 56.047179 
L 108.413617 55.96788 
L 108.413617 55.888581 
L 112.371064 55.809282 
L 112.371064 55.729982 
L 114.11234 55.650683 
L 114.11234 55.571384 
L 115.853617 55.492085 
L 115.853617 55.412786 
L 123.135319 55.333487 
L 123.135319 55.254188 
L 131.841702 55.174889 
L 131.841702 55.095589 
L 138.490213 55.01629 
L 138.490213 54.936991 
L 142.764255 54.857692 
L 142.764255 54.778393 
L 151.628936 54.699094 
L 151.628936 54.619795 
L 160.651915 54.540496 
L 160.651915 54.461196 
L 175.531915 54.381897 
L 175.531915 54.302598 
L 198.168511 54.223299 
L 198.168511 54.144 
L 414.72 54.144 
L 414.72 54.144 
" style="fill:none;stroke:#56bd10;stroke-linecap:square;stroke-width:2;"/>
   </g>
   <g id="line2d_14">
    <path clip-path="url(#p9c82dc860d)" d="M 57.6 307.584 
L 57.6 153.902298 
L 57.71174 153.902298 
L 57.71174 138.174638 
L 57.823479 138.174638 
L 57.823479 137.837617 
L 57.935219 137.837617 
L 57.935219 133.793362 
L 58.046959 133.793362 
L 58.046959 127.277617 
L 58.158698 127.277617 
L 58.158698 126.154213 
L 58.270438 126.154213 
L 58.270438 120.874213 
L 58.382178 120.874213 
L 58.382178 117.166979 
L 58.493917 117.166979 
L 58.493917 114.583149 
L 58.605657 114.583149 
L 58.605657 113.122723 
L 58.717397 113.122723 
L 58.717397 111.549957 
L 58.829136 111.437617 
L 58.829136 109.303149 
L 58.940876 109.303149 
L 58.940876 106.83166 
L 59.052616 106.83166 
L 59.052616 105.146553 
L 59.164355 105.146553 
L 59.164355 100.652936 
L 59.276095 100.652936 
L 59.276095 97.395064 
L 59.387835 97.395064 
L 59.387835 95.485277 
L 59.499574 95.485277 
L 59.499574 94.586553 
L 59.611314 94.586553 
L 59.611314 94.249532 
L 59.723054 94.249532 
L 59.723054 93.238468 
L 59.834793 93.238468 
L 59.834793 93.013787 
L 59.946533 93.013787 
L 59.946533 91.328681 
L 60.058273 91.328681 
L 60.058273 90.205277 
L 60.170013 90.205277 
L 60.170013 89.980596 
L 60.281752 89.980596 
L 60.281752 88.744851 
L 60.393492 88.744851 
L 60.393492 88.632511 
L 60.505232 88.632511 
L 60.505232 88.295489 
L 60.728711 88.295489 
L 60.728711 88.183149 
L 60.840451 88.183149 
L 60.840451 87.958468 
L 60.95219 87.958468 
L 60.95219 84.588255 
L 61.17567 84.588255 
L 61.17567 84.363574 
L 61.287409 84.363574 
L 61.287409 83.577191 
L 61.510889 83.577191 
L 61.510889 83.24017 
L 61.622628 83.24017 
L 61.622628 81.555064 
L 61.734368 81.555064 
L 61.734368 80.881021 
L 61.957847 80.881021 
L 61.957847 80.65634 
L 62.069587 80.65634 
L 62.069587 78.746553 
L 62.181327 78.746553 
L 62.181327 78.634213 
L 62.293066 78.634213 
L 62.293066 78.072511 
L 62.404806 78.072511 
L 62.404806 77.510809 
L 62.516546 77.510809 
L 62.516546 77.398468 
L 62.740025 77.398468 
L 62.740025 77.173787 
L 62.963504 77.173787 
L 62.963504 77.061447 
L 63.075244 77.061447 
L 63.075244 76.162723 
L 63.298723 76.162723 
L 63.298723 75.15166 
L 63.410463 75.15166 
L 63.410463 74.365277 
L 63.522203 74.365277 
L 63.522203 74.140596 
L 63.745682 74.140596 
L 63.745682 73.915915 
L 63.857422 73.915915 
L 63.857422 73.354213 
L 64.192641 73.354213 
L 64.192641 73.017191 
L 64.52786 73.017191 
L 64.52786 72.904851 
L 64.639599 72.904851 
L 64.639599 72.792511 
L 64.751339 72.792511 
L 64.751339 72.230809 
L 64.863079 72.230809 
L 64.863079 72.118468 
L 64.974819 72.118468 
L 64.974819 71.556766 
L 65.086558 71.556766 
L 65.086558 71.444426 
L 65.198298 71.444426 
L 65.198298 71.219745 
L 65.310038 71.219745 
L 65.310038 71.107404 
L 65.421777 71.107404 
L 65.421777 70.770383 
L 65.533517 70.770383 
L 65.533517 70.433362 
L 65.645257 70.433362 
L 65.645257 70.09634 
L 65.868736 70.09634 
L 65.868736 69.984 
L 65.980476 69.984 
L 65.980476 69.87166 
L 66.203955 69.87166 
L 66.203955 69.309957 
L 66.315695 69.309957 
L 66.315695 68.523574 
L 66.539174 68.523574 
L 66.539174 68.074213 
L 66.650914 68.074213 
L 66.650914 67.849532 
L 66.762653 67.849532 
L 66.762653 67.737191 
L 66.874393 67.737191 
L 66.874393 67.624851 
L 66.986133 67.624851 
L 66.986133 66.838468 
L 67.097872 66.838468 
L 67.097872 66.613787 
L 67.321352 66.613787 
L 67.321352 66.389106 
L 67.544831 66.389106 
L 67.544831 66.052085 
L 67.656571 66.052085 
L 67.656571 65.715064 
L 67.88005 65.715064 
L 67.88005 65.602723 
L 68.103529 65.602723 
L 68.103529 65.378043 
L 68.215269 65.378043 
L 68.215269 65.153362 
L 68.662228 65.153362 
L 68.662228 64.928681 
L 68.885707 64.928681 
L 68.885707 64.81634 
L 69.220926 64.81634 
L 69.220926 64.704 
L 69.332666 64.704 
L 69.332666 64.254638 
L 69.779625 64.254638 
L 69.779625 64.142298 
L 70.003104 64.142298 
L 70.003104 63.917617 
L 70.114844 63.917617 
L 70.114844 63.805277 
L 70.338323 63.805277 
L 70.338323 63.692936 
L 70.561802 63.692936 
L 70.561802 63.355915 
L 70.785282 63.355915 
L 70.785282 63.243574 
L 70.897021 63.243574 
L 70.897021 63.131234 
L 71.23224 63.131234 
L 71.23224 63.018894 
L 71.34398 63.018894 
L 71.34398 62.906553 
L 72.461377 62.906553 
L 72.461377 62.681872 
L 73.131815 62.681872 
L 73.131815 62.569532 
L 73.243554 62.569532 
L 73.243554 62.457191 
L 73.578773 62.457191 
L 73.578773 62.344851 
L 73.690513 62.344851 
L 73.690513 62.232511 
L 73.802253 62.232511 
L 73.802253 62.00783 
L 74.360951 62.00783 
L 74.360951 61.783149 
L 74.472691 61.783149 
L 74.472691 61.558468 
L 75.031389 61.558468 
L 75.031389 61.446128 
L 75.254869 61.446128 
L 75.254869 61.221447 
L 75.366608 61.221447 
L 75.366608 61.109106 
L 75.478348 61.109106 
L 75.478348 60.996766 
L 75.590088 60.996766 
L 75.590088 60.772085 
L 75.701827 60.772085 
L 75.701827 60.659745 
L 76.037046 60.659745 
L 76.037046 60.322723 
L 76.260526 60.322723 
L 76.260526 60.210383 
L 76.372265 60.210383 
L 76.372265 60.098043 
L 76.595745 60.098043 
L 76.595745 59.985702 
L 76.707484 59.985702 
L 76.707484 59.873362 
L 76.819224 59.873362 
L 76.819224 59.648681 
L 77.601402 59.648681 
L 77.601402 59.53634 
L 78.04836 59.53634 
L 78.04836 59.424 
L 78.607059 59.424 
L 78.607059 59.31166 
L 79.277497 59.31166 
L 79.277497 59.199319 
L 79.836195 59.199319 
L 79.836195 59.086979 
L 80.059675 59.086979 
L 80.059675 58.974638 
L 80.730113 58.974638 
L 80.730113 58.862298 
L 80.841852 58.862298 
L 80.841852 58.749957 
L 81.51229 58.749957 
L 81.51229 58.525277 
L 81.959249 58.525277 
L 81.959249 58.412936 
L 82.406208 58.412936 
L 82.406208 58.300596 
L 83.076646 58.300596 
L 83.076646 58.188255 
L 83.523605 58.188255 
L 83.523605 57.963574 
L 84.752741 57.963574 
L 84.752741 57.851234 
L 84.864481 57.851234 
L 84.864481 57.738894 
L 85.981877 57.738894 
L 85.981877 57.514213 
L 86.093617 57.514213 
L 86.093617 57.401872 
L 87.211014 57.401872 
L 87.211014 57.289532 
L 89.557547 57.289532 
L 89.557547 57.177191 
L 90.227985 57.177191 
L 90.227985 57.064851 
L 90.786683 57.064851 
L 90.786683 56.952511 
L 91.457121 56.952511 
L 91.457121 56.84017 
L 92.239299 56.84017 
L 92.239299 56.72783 
L 94.138874 56.72783 
L 94.138874 56.503149 
L 94.809312 56.503149 
L 94.809312 56.390809 
L 94.921051 56.390809 
L 94.921051 56.278468 
L 96.485407 56.278468 
L 96.485407 56.166128 
L 99.614118 56.166128 
L 99.614118 56.053787 
L 101.178473 56.053787 
L 101.178473 55.941447 
L 101.960651 55.941447 
L 101.960651 55.829106 
L 103.636746 55.829106 
L 103.636746 55.716766 
L 104.195444 55.716766 
L 104.195444 55.604426 
L 104.530663 55.604426 
L 104.530663 55.492085 
L 107.435895 55.492085 
L 107.435895 55.379745 
L 107.882854 55.379745 
L 107.882854 55.267404 
L 109.782428 55.267404 
L 109.782428 55.155064 
L 109.894168 55.155064 
L 109.894168 55.042723 
L 110.564606 55.042723 
L 110.564606 54.930383 
L 111.570263 54.930383 
L 111.570263 54.818043 
L 118.945081 54.818043 
L 118.945081 54.705702 
L 119.2803 54.705702 
L 119.2803 54.593362 
L 122.74423 54.593362 
L 122.74423 54.481021 
L 129.78383 54.481021 
L 129.78383 54.368681 
L 140.510839 54.368681 
L 140.510839 54.25634 
L 156.713091 54.25634 
L 156.713091 54.144 
L 414.72 54.144 
L 414.72 54.144 
" style="fill:none;stroke:#57dba1;stroke-linecap:square;stroke-width:2;"/>
   </g>
   <g id="line2d_15">
    <path clip-path="url(#p9c82dc860d)" d="M 57.6 307.584 
L 57.665503 135.354506 
L 57.731005 135.354506 
L 57.796508 128.846509 
L 57.86201 128.846509 
L 57.927513 119.735313 
L 57.993015 119.735313 
L 58.058518 114.900801 
L 58.124021 114.900801 
L 58.189523 109.369004 
L 58.255026 109.369004 
L 58.320528 106.440405 
L 58.386031 106.440405 
L 58.451533 105.138806 
L 58.517036 105.138806 
L 58.582539 101.838321 
L 58.648041 101.838321 
L 58.713544 100.257808 
L 58.779046 100.257808 
L 58.844549 98.909723 
L 58.975554 98.816751 
L 59.041056 97.701095 
L 59.106559 97.701095 
L 59.172062 96.074095 
L 59.237564 96.074095 
L 59.303067 94.772496 
L 59.368569 94.772496 
L 59.434072 93.935753 
L 59.499574 93.935753 
L 59.565077 92.122811 
L 59.63058 92.122811 
L 59.696082 90.774726 
L 59.761585 90.774726 
L 59.761585 88.218013 
L 59.89259 88.218013 
L 59.958092 86.776957 
L 60.023595 86.776957 
L 60.089098 86.3121 
L 60.1546 86.3121 
L 60.220103 85.940214 
L 60.285605 85.940214 
L 60.351108 85.149957 
L 60.41661 85.149957 
L 60.482113 84.080787 
L 60.547616 84.080787 
L 60.613118 83.29053 
L 60.678621 83.29053 
L 60.744123 83.011616 
L 60.809626 83.011616 
L 60.875128 82.174873 
L 60.940631 82.174873 
L 61.006134 81.66353 
L 61.137139 81.570559 
L 61.137139 81.431102 
L 61.333646 81.384616 
L 61.399149 79.339246 
L 61.464652 79.339246 
L 61.464652 78.781417 
L 61.595657 78.781417 
L 61.661159 78.456018 
L 61.726662 78.456018 
L 61.726662 78.130618 
L 61.923169 78.130618 
L 61.988672 77.526304 
L 62.119677 77.433332 
L 62.18518 76.503618 
L 62.250682 76.503618 
L 62.316185 75.992276 
L 62.512693 75.899304 
L 62.578195 75.62039 
L 62.643698 75.62039 
L 62.7092 74.597705 
L 62.774703 74.597705 
L 62.774703 74.272305 
L 62.971211 74.272305 
L 63.036713 73.760963 
L 63.167718 73.714477 
L 63.233221 73.203134 
L 63.364226 73.110163 
L 63.429729 72.877734 
L 63.560734 72.784763 
L 63.560734 72.691792 
L 63.822744 72.59882 
L 63.888247 71.762078 
L 64.084754 71.762078 
L 64.150257 71.111278 
L 64.215759 71.111278 
L 64.281262 70.413993 
L 64.543272 70.413993 
L 64.608775 70.22805 
L 64.73978 70.181564 
L 64.805282 69.90265 
L 65.067293 69.809679 
L 65.067293 69.670222 
L 65.329303 69.623736 
L 65.329303 69.530764 
L 65.460308 69.530764 
L 65.525811 69.298336 
L 65.722318 69.205365 
L 65.787821 68.92645 
L 65.918826 68.879965 
L 65.918826 68.786993 
L 66.115334 68.740508 
L 66.180836 68.601051 
L 66.311842 68.554565 
L 66.377344 68.368622 
L 66.573852 68.275651 
L 66.639354 67.764308 
L 67.03237 67.717822 
L 67.097872 67.392423 
L 67.29438 67.345937 
L 67.359883 67.159994 
L 67.55639 67.067023 
L 67.621893 66.602166 
L 67.687395 66.602166 
L 67.687395 66.462709 
L 67.818401 66.462709 
L 67.883903 66.090823 
L 68.014908 66.090823 
L 68.080411 65.579481 
L 68.145913 65.579481 
L 68.145913 65.440023 
L 68.276919 65.440023 
L 68.342421 64.975167 
L 68.407924 64.975167 
L 68.407924 64.835709 
L 68.669934 64.742738 
L 68.735437 64.603281 
L 68.997447 64.51031 
L 68.997447 64.370853 
L 69.193955 64.277881 
L 69.259457 64.091938 
L 69.58697 64.045453 
L 69.652472 63.720053 
L 69.84898 63.627081 
L 69.84898 63.580596 
L 70.307498 63.487624 
L 70.307498 63.441139 
L 70.438503 63.441139 
L 70.504006 63.255196 
L 70.766016 63.162225 
L 70.831519 62.976282 
L 70.897021 62.976282 
L 70.962524 62.743853 
L 71.552047 62.650882 
L 71.61755 62.418453 
L 72.010565 62.325482 
L 72.010565 62.232511 
L 72.338078 62.139539 
L 72.338078 62.046568 
L 72.600088 61.953596 
L 72.665591 61.814139 
L 73.517124 61.721168 
L 73.517124 61.628197 
L 74.43416 61.535225 
L 74.499663 61.395768 
L 75.154688 61.302797 
L 75.154688 61.256311 
L 75.809714 61.209825 
L 75.809714 61.116854 
L 76.202729 61.023883 
L 76.268232 60.884426 
L 76.72675 60.83794 
L 76.792252 60.559026 
L 77.512781 60.51254 
L 77.512781 60.419569 
L 77.905796 60.326597 
L 77.971299 60.233626 
L 78.233309 60.140654 
L 78.233309 60.047683 
L 78.560822 59.954712 
L 78.560822 59.908226 
L 78.953837 59.815255 
L 78.953837 59.768769 
L 79.28135 59.722283 
L 79.28135 59.629312 
L 79.477858 59.582826 
L 79.477858 59.443369 
L 79.805371 59.396883 
L 79.870873 59.210941 
L 80.329391 59.117969 
L 80.329391 59.071483 
L 80.525899 59.071483 
L 80.525899 58.885541 
L 81.770448 58.792569 
L 81.770448 58.746084 
L 82.425473 58.746084 
L 82.425473 58.606627 
L 83.670022 58.513655 
L 83.735525 58.374198 
L 84.194043 58.281227 
L 84.194043 58.234741 
L 84.914571 58.14177 
L 84.914571 58.095284 
L 85.700602 58.002313 
L 85.700602 57.955827 
L 85.962612 57.955827 
L 85.962612 57.81637 
L 87.862186 57.723398 
L 87.862186 57.676913 
L 88.386207 57.583941 
L 88.451709 57.444484 
L 90.416787 57.351513 
L 90.416787 57.305027 
L 91.399325 57.212056 
L 91.399325 57.072599 
L 92.316361 56.979627 
L 92.316361 56.886656 
L 95.984505 56.793685 
L 96.050007 56.654227 
L 96.574028 56.561256 
L 96.574028 56.51477 
L 98.277095 56.421799 
L 98.277095 56.375313 
L 99.456141 56.282342 
L 99.456141 56.235856 
L 101.290213 56.142885 
L 101.290213 56.096399 
L 102.534762 56.003428 
L 102.534762 55.956942 
L 103.582803 55.863971 
L 103.648305 55.770999 
L 109.216023 55.678028 
L 109.216023 55.631542 
L 111.901629 55.538571 
L 111.901629 55.492085 
L 114.849244 55.399114 
L 114.849244 55.352628 
L 118.386383 55.259657 
L 118.386383 55.213171 
L 120.547968 55.1202 
L 120.547968 55.073714 
L 122.578547 54.980742 
L 122.578547 54.934257 
L 126.705209 54.841285 
L 126.705209 54.7948 
L 131.290389 54.701828 
L 131.290389 54.655343 
L 140.919266 54.562371 
L 140.919266 54.515886 
L 150.024123 54.422914 
L 150.024123 54.376428 
L 171.312458 54.283457 
L 171.312458 54.236971 
L 414.72 54.144 
L 414.72 54.144 
" style="fill:none;stroke:#ff1493;stroke-dasharray:4,6.6;stroke-dashoffset:0;stroke-width:4;"/>
   </g>
   <g id="line2d_16">
    <path clip-path="url(#p9c82dc860d)" d="M 57.6 139.19231 
L 57.935219 119.582298 
L 58.605657 102.7841 
L 58.708085 102.427254 
L 58.829136 100.517467 
L 58.866383 100.279569 
L 59.499574 91.018093 
L 59.657872 90.730633 
L 60.170013 87.525627 
L 60.393492 86.296491 
L 60.505232 85.017792 
L 60.728711 84.406528 
L 60.840451 84.254538 
L 60.924255 84.016641 
L 60.95219 82.331534 
L 61.17567 82.219194 
L 61.399149 80.874413 
L 61.557447 80.468005 
L 61.734368 79.090183 
L 61.957847 78.739945 
L 62.293066 76.218894 
L 62.348936 76.179244 
L 62.516546 75.842223 
L 62.82383 75.293737 
L 62.963504 75.237567 
L 63.075244 74.35206 
L 63.857422 72.234113 
L 64.639599 71.358518 
L 64.974819 70.304501 
L 65.198298 69.779144 
L 65.310038 69.722974 
L 65.421777 69.276916 
L 65.673191 68.900245 
L 65.980476 68.748255 
L 65.989787 68.668956 
L 66.148085 68.629307 
L 66.315695 67.875965 
L 66.939574 67.268005 
L 67.097872 66.762473 
L 67.414468 66.570834 
L 68.215269 65.635765 
L 68.662228 65.483775 
L 68.680851 65.285527 
L 69.220926 65.093887 
L 69.314043 64.974939 
L 69.332666 64.750258 
L 69.47234 64.710608 
L 70.26383 63.692936 
L 71.371915 62.926378 
L 71.688511 62.847079 
L 71.846809 62.688481 
L 72.48 62.536491 
L 73.243554 62.067304 
L 73.690513 61.915314 
L 73.904681 61.644375 
L 74.379574 61.492385 
L 74.472691 61.380045 
L 75.171064 61.165277 
L 75.366608 60.996766 
L 77.228936 60.068305 
L 79.836195 59.589207 
L 80.078298 59.414088 
L 80.841852 59.262098 
L 84.035745 58.51206 
L 84.194043 58.393111 
L 86.093617 57.834713 
L 89.557547 57.603424 
L 90.227985 57.428305 
L 90.525957 57.309357 
L 91.457121 57.157367 
L 94.809312 56.853387 
L 95.274894 56.678268 
L 100.182128 56.36768 
L 101.178473 56.23221 
L 107.882854 55.657292 
L 108.413617 55.577992 
L 109.996596 55.426003 
L 112.68766 55.234363 
L 135.324255 54.692486 
L 176.006809 54.18365 
L 198.168511 54.144 
L 414.72 54.144 
L 414.72 54.144 
" style="fill:none;stroke:#000080;stroke-dasharray:4,6.6;stroke-dashoffset:0;stroke-width:4;"/>
   </g>
   <g id="line2d_17">
    <path clip-path="url(#p9c82dc860d)" d="M 57.6 307.584 
L 414.72 54.144 
" style="fill:none;stroke:#000000;stroke-dasharray:7.4,3.2;stroke-dashoffset:0;stroke-width:2;"/>
   </g>
   <g id="patch_3">
    <path d="M 57.6 307.584 
L 57.6 41.472 
" style="fill:none;stroke:#000000;stroke-linecap:square;stroke-linejoin:miter;stroke-width:0.8;"/>
   </g>
   <g id="patch_4">
    <path d="M 414.72 307.584 
L 414.72 41.472 
" style="fill:none;stroke:#000000;stroke-linecap:square;stroke-linejoin:miter;stroke-width:0.8;"/>
   </g>
   <g id="patch_5">
    <path d="M 57.6 307.584 
L 414.72 307.584 
" style="fill:none;stroke:#000000;stroke-linecap:square;stroke-linejoin:miter;stroke-width:0.8;"/>
   </g>
   <g id="patch_6">
    <path d="M 57.6 41.472 
L 414.72 41.472 
" style="fill:none;stroke:#000000;stroke-linecap:square;stroke-linejoin:miter;stroke-width:0.8;"/>
   </g>
   <g id="text_15">
    <!-- All ROC Curves -->
    <g transform="translate(190.99875 35.472)scale(0.12 -0.12)">
     <defs>
      <path d="M 2188 4044 
L 1331 1722 
L 3047 1722 
L 2188 4044 
z
M 1831 4666 
L 2547 4666 
L 4325 0 
L 3669 0 
L 3244 1197 
L 1141 1197 
L 716 0 
L 50 0 
L 1831 4666 
z
" id="DejaVuSans-41" transform="scale(0.015625)"/>
      <path d="M 2522 4238 
Q 1834 4238 1429 3725 
Q 1025 3213 1025 2328 
Q 1025 1447 1429 934 
Q 1834 422 2522 422 
Q 3209 422 3611 934 
Q 4013 1447 4013 2328 
Q 4013 3213 3611 3725 
Q 3209 4238 2522 4238 
z
M 2522 4750 
Q 3503 4750 4090 4092 
Q 4678 3434 4678 2328 
Q 4678 1225 4090 567 
Q 3503 -91 2522 -91 
Q 1538 -91 948 565 
Q 359 1222 359 2328 
Q 359 3434 948 4092 
Q 1538 4750 2522 4750 
z
" id="DejaVuSans-4f" transform="scale(0.015625)"/>
      <path d="M 4122 4306 
L 4122 3641 
Q 3803 3938 3442 4084 
Q 3081 4231 2675 4231 
Q 1875 4231 1450 3742 
Q 1025 3253 1025 2328 
Q 1025 1406 1450 917 
Q 1875 428 2675 428 
Q 3081 428 3442 575 
Q 3803 722 4122 1019 
L 4122 359 
Q 3791 134 3420 21 
Q 3050 -91 2638 -91 
Q 1578 -91 968 557 
Q 359 1206 359 2328 
Q 359 3453 968 4101 
Q 1578 4750 2638 4750 
Q 3056 4750 3426 4639 
Q 3797 4528 4122 4306 
z
" id="DejaVuSans-43" transform="scale(0.015625)"/>
     </defs>
     <use xlink:href="#DejaVuSans-41"/>
     <use x="68.408203" xlink:href="#DejaVuSans-6c"/>
     <use x="96.191406" xlink:href="#DejaVuSans-6c"/>
     <use x="123.974609" xlink:href="#DejaVuSans-20"/>
     <use x="155.761719" xlink:href="#DejaVuSans-52"/>
     <use x="225.244141" xlink:href="#DejaVuSans-4f"/>
     <use x="303.955078" xlink:href="#DejaVuSans-43"/>
     <use x="373.779297" xlink:href="#DejaVuSans-20"/>
     <use x="405.566406" xlink:href="#DejaVuSans-43"/>
     <use x="475.390625" xlink:href="#DejaVuSans-75"/>
     <use x="538.769531" xlink:href="#DejaVuSans-72"/>
     <use x="579.882812" xlink:href="#DejaVuSans-76"/>
     <use x="639.0625" xlink:href="#DejaVuSans-65"/>
     <use x="700.585938" xlink:href="#DejaVuSans-73"/>
    </g>
   </g>
   <g id="legend_1">
    <g id="patch_7">
     <path d="M 173.155937 302.584 
L 407.72 302.584 
Q 409.72 302.584 409.72 300.584 
L 409.72 242.8715 
Q 409.72 240.8715 407.72 240.8715 
L 173.155937 240.8715 
Q 171.155937 240.8715 171.155937 242.8715 
L 171.155937 300.584 
Q 171.155937 302.584 173.155937 302.584 
z
" style="fill:#ffffff;opacity:0.8;stroke:#cccccc;stroke-linejoin:miter;"/>
    </g>
    <g id="line2d_18">
     <path d="M 175.155937 248.969937 
L 195.155937 248.969937 
" style="fill:none;stroke:#56bd10;stroke-linecap:square;stroke-width:2;"/>
    </g>
    <g id="line2d_19"/>
    <g id="text_16">
     <!-- ROC curve of CD4 (area = 0.99) -->
     <g transform="translate(203.155937 252.469937)scale(0.1 -0.1)">
      <defs>
       <path d="M 3122 3366 
L 3122 2828 
Q 2878 2963 2633 3030 
Q 2388 3097 2138 3097 
Q 1578 3097 1268 2742 
Q 959 2388 959 1747 
Q 959 1106 1268 751 
Q 1578 397 2138 397 
Q 2388 397 2633 464 
Q 2878 531 3122 666 
L 3122 134 
Q 2881 22 2623 -34 
Q 2366 -91 2075 -91 
Q 1284 -91 818 406 
Q 353 903 353 1747 
Q 353 2603 823 3093 
Q 1294 3584 2113 3584 
Q 2378 3584 2631 3529 
Q 2884 3475 3122 3366 
z
" id="DejaVuSans-63" transform="scale(0.015625)"/>
       <path d="M 2375 4863 
L 2375 4384 
L 1825 4384 
Q 1516 4384 1395 4259 
Q 1275 4134 1275 3809 
L 1275 3500 
L 2222 3500 
L 2222 3053 
L 1275 3053 
L 1275 0 
L 697 0 
L 697 3053 
L 147 3053 
L 147 3500 
L 697 3500 
L 697 3744 
Q 697 4328 969 4595 
Q 1241 4863 1831 4863 
L 2375 4863 
z
" id="DejaVuSans-66" transform="scale(0.015625)"/>
       <path d="M 1259 4147 
L 1259 519 
L 2022 519 
Q 2988 519 3436 956 
Q 3884 1394 3884 2338 
Q 3884 3275 3436 3711 
Q 2988 4147 2022 4147 
L 1259 4147 
z
M 628 4666 
L 1925 4666 
Q 3281 4666 3915 4102 
Q 4550 3538 4550 2338 
Q 4550 1131 3912 565 
Q 3275 0 1925 0 
L 628 0 
L 628 4666 
z
" id="DejaVuSans-44" transform="scale(0.015625)"/>
       <path d="M 1984 4856 
Q 1566 4138 1362 3434 
Q 1159 2731 1159 2009 
Q 1159 1288 1364 580 
Q 1569 -128 1984 -844 
L 1484 -844 
Q 1016 -109 783 600 
Q 550 1309 550 2009 
Q 550 2706 781 3412 
Q 1013 4119 1484 4856 
L 1984 4856 
z
" id="DejaVuSans-28" transform="scale(0.015625)"/>
       <path d="M 678 2906 
L 4684 2906 
L 4684 2381 
L 678 2381 
L 678 2906 
z
M 678 1631 
L 4684 1631 
L 4684 1100 
L 678 1100 
L 678 1631 
z
" id="DejaVuSans-3d" transform="scale(0.015625)"/>
       <path d="M 703 97 
L 703 672 
Q 941 559 1184 500 
Q 1428 441 1663 441 
Q 2288 441 2617 861 
Q 2947 1281 2994 2138 
Q 2813 1869 2534 1725 
Q 2256 1581 1919 1581 
Q 1219 1581 811 2004 
Q 403 2428 403 3163 
Q 403 3881 828 4315 
Q 1253 4750 1959 4750 
Q 2769 4750 3195 4129 
Q 3622 3509 3622 2328 
Q 3622 1225 3098 567 
Q 2575 -91 1691 -91 
Q 1453 -91 1209 -44 
Q 966 3 703 97 
z
M 1959 2075 
Q 2384 2075 2632 2365 
Q 2881 2656 2881 3163 
Q 2881 3666 2632 3958 
Q 2384 4250 1959 4250 
Q 1534 4250 1286 3958 
Q 1038 3666 1038 3163 
Q 1038 2656 1286 2365 
Q 1534 2075 1959 2075 
z
" id="DejaVuSans-39" transform="scale(0.015625)"/>
       <path d="M 513 4856 
L 1013 4856 
Q 1481 4119 1714 3412 
Q 1947 2706 1947 2009 
Q 1947 1309 1714 600 
Q 1481 -109 1013 -844 
L 513 -844 
Q 928 -128 1133 580 
Q 1338 1288 1338 2009 
Q 1338 2731 1133 3434 
Q 928 4138 513 4856 
z
" id="DejaVuSans-29" transform="scale(0.015625)"/>
      </defs>
      <use xlink:href="#DejaVuSans-52"/>
      <use x="69.482422" xlink:href="#DejaVuSans-4f"/>
      <use x="148.193359" xlink:href="#DejaVuSans-43"/>
      <use x="218.017578" xlink:href="#DejaVuSans-20"/>
      <use x="249.804688" xlink:href="#DejaVuSans-63"/>
      <use x="304.785156" xlink:href="#DejaVuSans-75"/>
      <use x="368.164062" xlink:href="#DejaVuSans-72"/>
      <use x="409.277344" xlink:href="#DejaVuSans-76"/>
      <use x="468.457031" xlink:href="#DejaVuSans-65"/>
      <use x="529.980469" xlink:href="#DejaVuSans-20"/>
      <use x="561.767578" xlink:href="#DejaVuSans-6f"/>
      <use x="622.949219" xlink:href="#DejaVuSans-66"/>
      <use x="658.154297" xlink:href="#DejaVuSans-20"/>
      <use x="689.941406" xlink:href="#DejaVuSans-43"/>
      <use x="759.765625" xlink:href="#DejaVuSans-44"/>
      <use x="836.767578" xlink:href="#DejaVuSans-34"/>
      <use x="900.390625" xlink:href="#DejaVuSans-20"/>
      <use x="932.177734" xlink:href="#DejaVuSans-28"/>
      <use x="971.191406" xlink:href="#DejaVuSans-61"/>
      <use x="1032.470703" xlink:href="#DejaVuSans-72"/>
      <use x="1071.333984" xlink:href="#DejaVuSans-65"/>
      <use x="1132.857422" xlink:href="#DejaVuSans-61"/>
      <use x="1194.136719" xlink:href="#DejaVuSans-20"/>
      <use x="1225.923828" xlink:href="#DejaVuSans-3d"/>
      <use x="1309.712891" xlink:href="#DejaVuSans-20"/>
      <use x="1341.5" xlink:href="#DejaVuSans-30"/>
      <use x="1405.123047" xlink:href="#DejaVuSans-2e"/>
      <use x="1436.910156" xlink:href="#DejaVuSans-39"/>
      <use x="1500.533203" xlink:href="#DejaVuSans-39"/>
      <use x="1564.15625" xlink:href="#DejaVuSans-29"/>
     </g>
    </g>
    <g id="line2d_20">
     <path d="M 175.155937 263.648062 
L 195.155937 263.648062 
" style="fill:none;stroke:#57dba1;stroke-linecap:square;stroke-width:2;"/>
    </g>
    <g id="line2d_21"/>
    <g id="text_17">
     <!-- ROC curve of CD8 (area = 0.99) -->
     <g transform="translate(203.155937 267.148062)scale(0.1 -0.1)">
      <use xlink:href="#DejaVuSans-52"/>
      <use x="69.482422" xlink:href="#DejaVuSans-4f"/>
      <use x="148.193359" xlink:href="#DejaVuSans-43"/>
      <use x="218.017578" xlink:href="#DejaVuSans-20"/>
      <use x="249.804688" xlink:href="#DejaVuSans-63"/>
      <use x="304.785156" xlink:href="#DejaVuSans-75"/>
      <use x="368.164062" xlink:href="#DejaVuSans-72"/>
      <use x="409.277344" xlink:href="#DejaVuSans-76"/>
      <use x="468.457031" xlink:href="#DejaVuSans-65"/>
      <use x="529.980469" xlink:href="#DejaVuSans-20"/>
      <use x="561.767578" xlink:href="#DejaVuSans-6f"/>
      <use x="622.949219" xlink:href="#DejaVuSans-66"/>
      <use x="658.154297" xlink:href="#DejaVuSans-20"/>
      <use x="689.941406" xlink:href="#DejaVuSans-43"/>
      <use x="759.765625" xlink:href="#DejaVuSans-44"/>
      <use x="836.767578" xlink:href="#DejaVuSans-38"/>
      <use x="900.390625" xlink:href="#DejaVuSans-20"/>
      <use x="932.177734" xlink:href="#DejaVuSans-28"/>
      <use x="971.191406" xlink:href="#DejaVuSans-61"/>
      <use x="1032.470703" xlink:href="#DejaVuSans-72"/>
      <use x="1071.333984" xlink:href="#DejaVuSans-65"/>
      <use x="1132.857422" xlink:href="#DejaVuSans-61"/>
      <use x="1194.136719" xlink:href="#DejaVuSans-20"/>
      <use x="1225.923828" xlink:href="#DejaVuSans-3d"/>
      <use x="1309.712891" xlink:href="#DejaVuSans-20"/>
      <use x="1341.5" xlink:href="#DejaVuSans-30"/>
      <use x="1405.123047" xlink:href="#DejaVuSans-2e"/>
      <use x="1436.910156" xlink:href="#DejaVuSans-39"/>
      <use x="1500.533203" xlink:href="#DejaVuSans-39"/>
      <use x="1564.15625" xlink:href="#DejaVuSans-29"/>
     </g>
    </g>
    <g id="line2d_22">
     <path d="M 175.155937 278.326187 
L 195.155937 278.326187 
" style="fill:none;stroke:#ff1493;stroke-dasharray:4,6.6;stroke-dashoffset:0;stroke-width:4;"/>
    </g>
    <g id="line2d_23"/>
    <g id="text_18">
     <!-- micro-average ROC curve (area = 0.99) -->
     <g transform="translate(203.155937 281.826187)scale(0.1 -0.1)">
      <defs>
       <path d="M 3328 2828 
Q 3544 3216 3844 3400 
Q 4144 3584 4550 3584 
Q 5097 3584 5394 3201 
Q 5691 2819 5691 2113 
L 5691 0 
L 5113 0 
L 5113 2094 
Q 5113 2597 4934 2840 
Q 4756 3084 4391 3084 
Q 3944 3084 3684 2787 
Q 3425 2491 3425 1978 
L 3425 0 
L 2847 0 
L 2847 2094 
Q 2847 2600 2669 2842 
Q 2491 3084 2119 3084 
Q 1678 3084 1418 2786 
Q 1159 2488 1159 1978 
L 1159 0 
L 581 0 
L 581 3500 
L 1159 3500 
L 1159 2956 
Q 1356 3278 1631 3431 
Q 1906 3584 2284 3584 
Q 2666 3584 2933 3390 
Q 3200 3197 3328 2828 
z
" id="DejaVuSans-6d" transform="scale(0.015625)"/>
       <path d="M 313 2009 
L 1997 2009 
L 1997 1497 
L 313 1497 
L 313 2009 
z
" id="DejaVuSans-2d" transform="scale(0.015625)"/>
       <path d="M 2906 1791 
Q 2906 2416 2648 2759 
Q 2391 3103 1925 3103 
Q 1463 3103 1205 2759 
Q 947 2416 947 1791 
Q 947 1169 1205 825 
Q 1463 481 1925 481 
Q 2391 481 2648 825 
Q 2906 1169 2906 1791 
z
M 3481 434 
Q 3481 -459 3084 -895 
Q 2688 -1331 1869 -1331 
Q 1566 -1331 1297 -1286 
Q 1028 -1241 775 -1147 
L 775 -588 
Q 1028 -725 1275 -790 
Q 1522 -856 1778 -856 
Q 2344 -856 2625 -561 
Q 2906 -266 2906 331 
L 2906 616 
Q 2728 306 2450 153 
Q 2172 0 1784 0 
Q 1141 0 747 490 
Q 353 981 353 1791 
Q 353 2603 747 3093 
Q 1141 3584 1784 3584 
Q 2172 3584 2450 3431 
Q 2728 3278 2906 2969 
L 2906 3500 
L 3481 3500 
L 3481 434 
z
" id="DejaVuSans-67" transform="scale(0.015625)"/>
      </defs>
      <use xlink:href="#DejaVuSans-6d"/>
      <use x="97.412109" xlink:href="#DejaVuSans-69"/>
      <use x="125.195312" xlink:href="#DejaVuSans-63"/>
      <use x="180.175781" xlink:href="#DejaVuSans-72"/>
      <use x="219.039062" xlink:href="#DejaVuSans-6f"/>
      <use x="282.095703" xlink:href="#DejaVuSans-2d"/>
      <use x="318.179688" xlink:href="#DejaVuSans-61"/>
      <use x="379.458984" xlink:href="#DejaVuSans-76"/>
      <use x="438.638672" xlink:href="#DejaVuSans-65"/>
      <use x="500.162109" xlink:href="#DejaVuSans-72"/>
      <use x="541.275391" xlink:href="#DejaVuSans-61"/>
      <use x="602.554688" xlink:href="#DejaVuSans-67"/>
      <use x="666.03125" xlink:href="#DejaVuSans-65"/>
      <use x="727.554688" xlink:href="#DejaVuSans-20"/>
      <use x="759.341797" xlink:href="#DejaVuSans-52"/>
      <use x="828.824219" xlink:href="#DejaVuSans-4f"/>
      <use x="907.535156" xlink:href="#DejaVuSans-43"/>
      <use x="977.359375" xlink:href="#DejaVuSans-20"/>
      <use x="1009.146484" xlink:href="#DejaVuSans-63"/>
      <use x="1064.126953" xlink:href="#DejaVuSans-75"/>
      <use x="1127.505859" xlink:href="#DejaVuSans-72"/>
      <use x="1168.619141" xlink:href="#DejaVuSans-76"/>
      <use x="1227.798828" xlink:href="#DejaVuSans-65"/>
      <use x="1289.322266" xlink:href="#DejaVuSans-20"/>
      <use x="1321.109375" xlink:href="#DejaVuSans-28"/>
      <use x="1360.123047" xlink:href="#DejaVuSans-61"/>
      <use x="1421.402344" xlink:href="#DejaVuSans-72"/>
      <use x="1460.265625" xlink:href="#DejaVuSans-65"/>
      <use x="1521.789062" xlink:href="#DejaVuSans-61"/>
      <use x="1583.068359" xlink:href="#DejaVuSans-20"/>
      <use x="1614.855469" xlink:href="#DejaVuSans-3d"/>
      <use x="1698.644531" xlink:href="#DejaVuSans-20"/>
      <use x="1730.431641" xlink:href="#DejaVuSans-30"/>
      <use x="1794.054688" xlink:href="#DejaVuSans-2e"/>
      <use x="1825.841797" xlink:href="#DejaVuSans-39"/>
      <use x="1889.464844" xlink:href="#DejaVuSans-39"/>
      <use x="1953.087891" xlink:href="#DejaVuSans-29"/>
     </g>
    </g>
    <g id="line2d_24">
     <path d="M 175.155937 293.004312 
L 195.155937 293.004312 
" style="fill:none;stroke:#000080;stroke-dasharray:4,6.6;stroke-dashoffset:0;stroke-width:4;"/>
    </g>
    <g id="line2d_25"/>
    <g id="text_19">
     <!-- macro-average ROC curve (area = 0.99) -->
     <g transform="translate(203.155937 296.504312)scale(0.1 -0.1)">
      <use xlink:href="#DejaVuSans-6d"/>
      <use x="97.412109" xlink:href="#DejaVuSans-61"/>
      <use x="158.691406" xlink:href="#DejaVuSans-63"/>
      <use x="213.671875" xlink:href="#DejaVuSans-72"/>
      <use x="252.535156" xlink:href="#DejaVuSans-6f"/>
      <use x="315.591797" xlink:href="#DejaVuSans-2d"/>
      <use x="351.675781" xlink:href="#DejaVuSans-61"/>
      <use x="412.955078" xlink:href="#DejaVuSans-76"/>
      <use x="472.134766" xlink:href="#DejaVuSans-65"/>
      <use x="533.658203" xlink:href="#DejaVuSans-72"/>
      <use x="574.771484" xlink:href="#DejaVuSans-61"/>
      <use x="636.050781" xlink:href="#DejaVuSans-67"/>
      <use x="699.527344" xlink:href="#DejaVuSans-65"/>
      <use x="761.050781" xlink:href="#DejaVuSans-20"/>
      <use x="792.837891" xlink:href="#DejaVuSans-52"/>
      <use x="862.320312" xlink:href="#DejaVuSans-4f"/>
      <use x="941.03125" xlink:href="#DejaVuSans-43"/>
      <use x="1010.855469" xlink:href="#DejaVuSans-20"/>
      <use x="1042.642578" xlink:href="#DejaVuSans-63"/>
      <use x="1097.623047" xlink:href="#DejaVuSans-75"/>
      <use x="1161.001953" xlink:href="#DejaVuSans-72"/>
      <use x="1202.115234" xlink:href="#DejaVuSans-76"/>
      <use x="1261.294922" xlink:href="#DejaVuSans-65"/>
      <use x="1322.818359" xlink:href="#DejaVuSans-20"/>
      <use x="1354.605469" xlink:href="#DejaVuSans-28"/>
      <use x="1393.619141" xlink:href="#DejaVuSans-61"/>
      <use x="1454.898438" xlink:href="#DejaVuSans-72"/>
      <use x="1493.761719" xlink:href="#DejaVuSans-65"/>
      <use x="1555.285156" xlink:href="#DejaVuSans-61"/>
      <use x="1616.564453" xlink:href="#DejaVuSans-20"/>
      <use x="1648.351562" xlink:href="#DejaVuSans-3d"/>
      <use x="1732.140625" xlink:href="#DejaVuSans-20"/>
      <use x="1763.927734" xlink:href="#DejaVuSans-30"/>
      <use x="1827.550781" xlink:href="#DejaVuSans-2e"/>
      <use x="1859.337891" xlink:href="#DejaVuSans-39"/>
      <use x="1922.960938" xlink:href="#DejaVuSans-39"/>
      <use x="1986.583984" xlink:href="#DejaVuSans-29"/>
     </g>
    </g>
   </g>
  </g>
 </g>
 <defs>
  <clipPath id="p9c82dc860d">
   <rect height="266.112" width="357.12" x="57.6" y="41.472"/>
  </clipPath>
 </defs>
</svg>
