<?xml version="1.0" encoding="utf-8" standalone="no"?>
<!DOCTYPE svg PUBLIC "-//W3C//DTD SVG 1.1//EN"
  "http://www.w3.org/Graphics/SVG/1.1/DTD/svg11.dtd">
<svg height="345.6pt" version="1.1" viewBox="0 0 460.8 345.6" width="460.8pt" xmlns="http://www.w3.org/2000/svg" xmlns:xlink="http://www.w3.org/1999/xlink">
 <metadata>
  <rdf:RDF xmlns:cc="http://creativecommons.org/ns#" xmlns:dc="http://purl.org/dc/elements/1.1/" xmlns:rdf="http://www.w3.org/1999/02/22-rdf-syntax-ns#">
   <cc:Work>
    <dc:type rdf:resource="http://purl.org/dc/dcmitype/StillImage"/>
    <dc:date>2021-08-12T09:42:30.404776</dc:date>
    <dc:format>image/svg+xml</dc:format>
    <dc:creator>
     <cc:Agent>
      <dc:title>Matplotlib v3.4.2, https://matplotlib.org/</dc:title>
     </cc:Agent>
    </dc:creator>
   </cc:Work>
  </rdf:RDF>
 </metadata>
 <defs>
  <style type="text/css">*{stroke-linecap:butt;stroke-linejoin:round;}</style>
 </defs>
 <g id="figure_1">
  <g id="patch_1">
   <path d="M 0 345.6 
L 460.8 345.6 
L 460.8 0 
L 0 0 
z
" style="fill:#ffffff;"/>
  </g>
  <g id="axes_1">
   <g id="patch_2">
    <path d="M 57.6 307.584 
L 414.72 307.584 
L 414.72 41.472 
L 57.6 41.472 
z
" style="fill:#ffffff;"/>
   </g>
   <g id="matplotlib.axis_1">
    <g id="xtick_1">
     <g id="line2d_1">
      <defs>
       <path d="M 0 0 
L 0 3.5 
" id="m5f1e661b40" style="stroke:#000000;stroke-width:0.8;"/>
      </defs>
      <g>
       <use style="stroke:#000000;stroke-width:0.8;" x="57.6" xlink:href="#m5f1e661b40" y="307.584"/>
      </g>
     </g>
     <g id="text_1">
      <!-- 0.0 -->
      <g transform="translate(49.648438 322.182437)scale(0.1 -0.1)">
       <defs>
        <path d="M 2034 4250 
Q 1547 4250 1301 3770 
Q 1056 3291 1056 2328 
Q 1056 1369 1301 889 
Q 1547 409 2034 409 
Q 2525 409 2770 889 
Q 3016 1369 3016 2328 
Q 3016 3291 2770 3770 
Q 2525 4250 2034 4250 
z
M 2034 4750 
Q 2819 4750 3233 4129 
Q 3647 3509 3647 2328 
Q 3647 1150 3233 529 
Q 2819 -91 2034 -91 
Q 1250 -91 836 529 
Q 422 1150 422 2328 
Q 422 3509 836 4129 
Q 1250 4750 2034 4750 
z
" id="DejaVuSans-30" transform="scale(0.015625)"/>
        <path d="M 684 794 
L 1344 794 
L 1344 0 
L 684 0 
L 684 794 
z
" id="DejaVuSans-2e" transform="scale(0.015625)"/>
       </defs>
       <use xlink:href="#DejaVuSans-30"/>
       <use x="63.623047" xlink:href="#DejaVuSans-2e"/>
       <use x="95.410156" xlink:href="#DejaVuSans-30"/>
      </g>
     </g>
    </g>
    <g id="xtick_2">
     <g id="line2d_2">
      <g>
       <use style="stroke:#000000;stroke-width:0.8;" x="129.024" xlink:href="#m5f1e661b40" y="307.584"/>
      </g>
     </g>
     <g id="text_2">
      <!-- 0.2 -->
      <g transform="translate(121.072438 322.182437)scale(0.1 -0.1)">
       <defs>
        <path d="M 1228 531 
L 3431 531 
L 3431 0 
L 469 0 
L 469 531 
Q 828 903 1448 1529 
Q 2069 2156 2228 2338 
Q 2531 2678 2651 2914 
Q 2772 3150 2772 3378 
Q 2772 3750 2511 3984 
Q 2250 4219 1831 4219 
Q 1534 4219 1204 4116 
Q 875 4013 500 3803 
L 500 4441 
Q 881 4594 1212 4672 
Q 1544 4750 1819 4750 
Q 2544 4750 2975 4387 
Q 3406 4025 3406 3419 
Q 3406 3131 3298 2873 
Q 3191 2616 2906 2266 
Q 2828 2175 2409 1742 
Q 1991 1309 1228 531 
z
" id="DejaVuSans-32" transform="scale(0.015625)"/>
       </defs>
       <use xlink:href="#DejaVuSans-30"/>
       <use x="63.623047" xlink:href="#DejaVuSans-2e"/>
       <use x="95.410156" xlink:href="#DejaVuSans-32"/>
      </g>
     </g>
    </g>
    <g id="xtick_3">
     <g id="line2d_3">
      <g>
       <use style="stroke:#000000;stroke-width:0.8;" x="200.448" xlink:href="#m5f1e661b40" y="307.584"/>
      </g>
     </g>
     <g id="text_3">
      <!-- 0.4 -->
      <g transform="translate(192.496438 322.182437)scale(0.1 -0.1)">
       <defs>
        <path d="M 2419 4116 
L 825 1625 
L 2419 1625 
L 2419 4116 
z
M 2253 4666 
L 3047 4666 
L 3047 1625 
L 3713 1625 
L 3713 1100 
L 3047 1100 
L 3047 0 
L 2419 0 
L 2419 1100 
L 313 1100 
L 313 1709 
L 2253 4666 
z
" id="DejaVuSans-34" transform="scale(0.015625)"/>
       </defs>
       <use xlink:href="#DejaVuSans-30"/>
       <use x="63.623047" xlink:href="#DejaVuSans-2e"/>
       <use x="95.410156" xlink:href="#DejaVuSans-34"/>
      </g>
     </g>
    </g>
    <g id="xtick_4">
     <g id="line2d_4">
      <g>
       <use style="stroke:#000000;stroke-width:0.8;" x="271.872" xlink:href="#m5f1e661b40" y="307.584"/>
      </g>
     </g>
     <g id="text_4">
      <!-- 0.6 -->
      <g transform="translate(263.920438 322.182437)scale(0.1 -0.1)">
       <defs>
        <path d="M 2113 2584 
Q 1688 2584 1439 2293 
Q 1191 2003 1191 1497 
Q 1191 994 1439 701 
Q 1688 409 2113 409 
Q 2538 409 2786 701 
Q 3034 994 3034 1497 
Q 3034 2003 2786 2293 
Q 2538 2584 2113 2584 
z
M 3366 4563 
L 3366 3988 
Q 3128 4100 2886 4159 
Q 2644 4219 2406 4219 
Q 1781 4219 1451 3797 
Q 1122 3375 1075 2522 
Q 1259 2794 1537 2939 
Q 1816 3084 2150 3084 
Q 2853 3084 3261 2657 
Q 3669 2231 3669 1497 
Q 3669 778 3244 343 
Q 2819 -91 2113 -91 
Q 1303 -91 875 529 
Q 447 1150 447 2328 
Q 447 3434 972 4092 
Q 1497 4750 2381 4750 
Q 2619 4750 2861 4703 
Q 3103 4656 3366 4563 
z
" id="DejaVuSans-36" transform="scale(0.015625)"/>
       </defs>
       <use xlink:href="#DejaVuSans-30"/>
       <use x="63.623047" xlink:href="#DejaVuSans-2e"/>
       <use x="95.410156" xlink:href="#DejaVuSans-36"/>
      </g>
     </g>
    </g>
    <g id="xtick_5">
     <g id="line2d_5">
      <g>
       <use style="stroke:#000000;stroke-width:0.8;" x="343.296" xlink:href="#m5f1e661b40" y="307.584"/>
      </g>
     </g>
     <g id="text_5">
      <!-- 0.8 -->
      <g transform="translate(335.344438 322.182437)scale(0.1 -0.1)">
       <defs>
        <path d="M 2034 2216 
Q 1584 2216 1326 1975 
Q 1069 1734 1069 1313 
Q 1069 891 1326 650 
Q 1584 409 2034 409 
Q 2484 409 2743 651 
Q 3003 894 3003 1313 
Q 3003 1734 2745 1975 
Q 2488 2216 2034 2216 
z
M 1403 2484 
Q 997 2584 770 2862 
Q 544 3141 544 3541 
Q 544 4100 942 4425 
Q 1341 4750 2034 4750 
Q 2731 4750 3128 4425 
Q 3525 4100 3525 3541 
Q 3525 3141 3298 2862 
Q 3072 2584 2669 2484 
Q 3125 2378 3379 2068 
Q 3634 1759 3634 1313 
Q 3634 634 3220 271 
Q 2806 -91 2034 -91 
Q 1263 -91 848 271 
Q 434 634 434 1313 
Q 434 1759 690 2068 
Q 947 2378 1403 2484 
z
M 1172 3481 
Q 1172 3119 1398 2916 
Q 1625 2713 2034 2713 
Q 2441 2713 2670 2916 
Q 2900 3119 2900 3481 
Q 2900 3844 2670 4047 
Q 2441 4250 2034 4250 
Q 1625 4250 1398 4047 
Q 1172 3844 1172 3481 
z
" id="DejaVuSans-38" transform="scale(0.015625)"/>
       </defs>
       <use xlink:href="#DejaVuSans-30"/>
       <use x="63.623047" xlink:href="#DejaVuSans-2e"/>
       <use x="95.410156" xlink:href="#DejaVuSans-38"/>
      </g>
     </g>
    </g>
    <g id="xtick_6">
     <g id="line2d_6">
      <g>
       <use style="stroke:#000000;stroke-width:0.8;" x="414.72" xlink:href="#m5f1e661b40" y="307.584"/>
      </g>
     </g>
     <g id="text_6">
      <!-- 1.0 -->
      <g transform="translate(406.768438 322.182437)scale(0.1 -0.1)">
       <defs>
        <path d="M 794 531 
L 1825 531 
L 1825 4091 
L 703 3866 
L 703 4441 
L 1819 4666 
L 2450 4666 
L 2450 531 
L 3481 531 
L 3481 0 
L 794 0 
L 794 531 
z
" id="DejaVuSans-31" transform="scale(0.015625)"/>
       </defs>
       <use xlink:href="#DejaVuSans-31"/>
       <use x="63.623047" xlink:href="#DejaVuSans-2e"/>
       <use x="95.410156" xlink:href="#DejaVuSans-30"/>
      </g>
     </g>
    </g>
    <g id="text_7">
     <!-- False Positive Rate -->
     <g transform="translate(189.693594 335.860562)scale(0.1 -0.1)">
      <defs>
       <path d="M 628 4666 
L 3309 4666 
L 3309 4134 
L 1259 4134 
L 1259 2759 
L 3109 2759 
L 3109 2228 
L 1259 2228 
L 1259 0 
L 628 0 
L 628 4666 
z
" id="DejaVuSans-46" transform="scale(0.015625)"/>
       <path d="M 2194 1759 
Q 1497 1759 1228 1600 
Q 959 1441 959 1056 
Q 959 750 1161 570 
Q 1363 391 1709 391 
Q 2188 391 2477 730 
Q 2766 1069 2766 1631 
L 2766 1759 
L 2194 1759 
z
M 3341 1997 
L 3341 0 
L 2766 0 
L 2766 531 
Q 2569 213 2275 61 
Q 1981 -91 1556 -91 
Q 1019 -91 701 211 
Q 384 513 384 1019 
Q 384 1609 779 1909 
Q 1175 2209 1959 2209 
L 2766 2209 
L 2766 2266 
Q 2766 2663 2505 2880 
Q 2244 3097 1772 3097 
Q 1472 3097 1187 3025 
Q 903 2953 641 2809 
L 641 3341 
Q 956 3463 1253 3523 
Q 1550 3584 1831 3584 
Q 2591 3584 2966 3190 
Q 3341 2797 3341 1997 
z
" id="DejaVuSans-61" transform="scale(0.015625)"/>
       <path d="M 603 4863 
L 1178 4863 
L 1178 0 
L 603 0 
L 603 4863 
z
" id="DejaVuSans-6c" transform="scale(0.015625)"/>
       <path d="M 2834 3397 
L 2834 2853 
Q 2591 2978 2328 3040 
Q 2066 3103 1784 3103 
Q 1356 3103 1142 2972 
Q 928 2841 928 2578 
Q 928 2378 1081 2264 
Q 1234 2150 1697 2047 
L 1894 2003 
Q 2506 1872 2764 1633 
Q 3022 1394 3022 966 
Q 3022 478 2636 193 
Q 2250 -91 1575 -91 
Q 1294 -91 989 -36 
Q 684 19 347 128 
L 347 722 
Q 666 556 975 473 
Q 1284 391 1588 391 
Q 1994 391 2212 530 
Q 2431 669 2431 922 
Q 2431 1156 2273 1281 
Q 2116 1406 1581 1522 
L 1381 1569 
Q 847 1681 609 1914 
Q 372 2147 372 2553 
Q 372 3047 722 3315 
Q 1072 3584 1716 3584 
Q 2034 3584 2315 3537 
Q 2597 3491 2834 3397 
z
" id="DejaVuSans-73" transform="scale(0.015625)"/>
       <path d="M 3597 1894 
L 3597 1613 
L 953 1613 
Q 991 1019 1311 708 
Q 1631 397 2203 397 
Q 2534 397 2845 478 
Q 3156 559 3463 722 
L 3463 178 
Q 3153 47 2828 -22 
Q 2503 -91 2169 -91 
Q 1331 -91 842 396 
Q 353 884 353 1716 
Q 353 2575 817 3079 
Q 1281 3584 2069 3584 
Q 2775 3584 3186 3129 
Q 3597 2675 3597 1894 
z
M 3022 2063 
Q 3016 2534 2758 2815 
Q 2500 3097 2075 3097 
Q 1594 3097 1305 2825 
Q 1016 2553 972 2059 
L 3022 2063 
z
" id="DejaVuSans-65" transform="scale(0.015625)"/>
       <path id="DejaVuSans-20" transform="scale(0.015625)"/>
       <path d="M 1259 4147 
L 1259 2394 
L 2053 2394 
Q 2494 2394 2734 2622 
Q 2975 2850 2975 3272 
Q 2975 3691 2734 3919 
Q 2494 4147 2053 4147 
L 1259 4147 
z
M 628 4666 
L 2053 4666 
Q 2838 4666 3239 4311 
Q 3641 3956 3641 3272 
Q 3641 2581 3239 2228 
Q 2838 1875 2053 1875 
L 1259 1875 
L 1259 0 
L 628 0 
L 628 4666 
z
" id="DejaVuSans-50" transform="scale(0.015625)"/>
       <path d="M 1959 3097 
Q 1497 3097 1228 2736 
Q 959 2375 959 1747 
Q 959 1119 1226 758 
Q 1494 397 1959 397 
Q 2419 397 2687 759 
Q 2956 1122 2956 1747 
Q 2956 2369 2687 2733 
Q 2419 3097 1959 3097 
z
M 1959 3584 
Q 2709 3584 3137 3096 
Q 3566 2609 3566 1747 
Q 3566 888 3137 398 
Q 2709 -91 1959 -91 
Q 1206 -91 779 398 
Q 353 888 353 1747 
Q 353 2609 779 3096 
Q 1206 3584 1959 3584 
z
" id="DejaVuSans-6f" transform="scale(0.015625)"/>
       <path d="M 603 3500 
L 1178 3500 
L 1178 0 
L 603 0 
L 603 3500 
z
M 603 4863 
L 1178 4863 
L 1178 4134 
L 603 4134 
L 603 4863 
z
" id="DejaVuSans-69" transform="scale(0.015625)"/>
       <path d="M 1172 4494 
L 1172 3500 
L 2356 3500 
L 2356 3053 
L 1172 3053 
L 1172 1153 
Q 1172 725 1289 603 
Q 1406 481 1766 481 
L 2356 481 
L 2356 0 
L 1766 0 
Q 1100 0 847 248 
Q 594 497 594 1153 
L 594 3053 
L 172 3053 
L 172 3500 
L 594 3500 
L 594 4494 
L 1172 4494 
z
" id="DejaVuSans-74" transform="scale(0.015625)"/>
       <path d="M 191 3500 
L 800 3500 
L 1894 563 
L 2988 3500 
L 3597 3500 
L 2284 0 
L 1503 0 
L 191 3500 
z
" id="DejaVuSans-76" transform="scale(0.015625)"/>
       <path d="M 2841 2188 
Q 3044 2119 3236 1894 
Q 3428 1669 3622 1275 
L 4263 0 
L 3584 0 
L 2988 1197 
Q 2756 1666 2539 1819 
Q 2322 1972 1947 1972 
L 1259 1972 
L 1259 0 
L 628 0 
L 628 4666 
L 2053 4666 
Q 2853 4666 3247 4331 
Q 3641 3997 3641 3322 
Q 3641 2881 3436 2590 
Q 3231 2300 2841 2188 
z
M 1259 4147 
L 1259 2491 
L 2053 2491 
Q 2509 2491 2742 2702 
Q 2975 2913 2975 3322 
Q 2975 3731 2742 3939 
Q 2509 4147 2053 4147 
L 1259 4147 
z
" id="DejaVuSans-52" transform="scale(0.015625)"/>
      </defs>
      <use xlink:href="#DejaVuSans-46"/>
      <use x="48.394531" xlink:href="#DejaVuSans-61"/>
      <use x="109.673828" xlink:href="#DejaVuSans-6c"/>
      <use x="137.457031" xlink:href="#DejaVuSans-73"/>
      <use x="189.556641" xlink:href="#DejaVuSans-65"/>
      <use x="251.080078" xlink:href="#DejaVuSans-20"/>
      <use x="282.867188" xlink:href="#DejaVuSans-50"/>
      <use x="339.544922" xlink:href="#DejaVuSans-6f"/>
      <use x="400.726562" xlink:href="#DejaVuSans-73"/>
      <use x="452.826172" xlink:href="#DejaVuSans-69"/>
      <use x="480.609375" xlink:href="#DejaVuSans-74"/>
      <use x="519.818359" xlink:href="#DejaVuSans-69"/>
      <use x="547.601562" xlink:href="#DejaVuSans-76"/>
      <use x="606.78125" xlink:href="#DejaVuSans-65"/>
      <use x="668.304688" xlink:href="#DejaVuSans-20"/>
      <use x="700.091797" xlink:href="#DejaVuSans-52"/>
      <use x="767.324219" xlink:href="#DejaVuSans-61"/>
      <use x="828.603516" xlink:href="#DejaVuSans-74"/>
      <use x="867.8125" xlink:href="#DejaVuSans-65"/>
     </g>
    </g>
   </g>
   <g id="matplotlib.axis_2">
    <g id="ytick_1">
     <g id="line2d_7">
      <defs>
       <path d="M 0 0 
L -3.5 0 
" id="mc35f82483b" style="stroke:#000000;stroke-width:0.8;"/>
      </defs>
      <g>
       <use style="stroke:#000000;stroke-width:0.8;" x="57.6" xlink:href="#mc35f82483b" y="307.584"/>
      </g>
     </g>
     <g id="text_8">
      <!-- 0.0 -->
      <g transform="translate(34.696875 311.383219)scale(0.1 -0.1)">
       <use xlink:href="#DejaVuSans-30"/>
       <use x="63.623047" xlink:href="#DejaVuSans-2e"/>
       <use x="95.410156" xlink:href="#DejaVuSans-30"/>
      </g>
     </g>
    </g>
    <g id="ytick_2">
     <g id="line2d_8">
      <g>
       <use style="stroke:#000000;stroke-width:0.8;" x="57.6" xlink:href="#mc35f82483b" y="256.896"/>
      </g>
     </g>
     <g id="text_9">
      <!-- 0.2 -->
      <g transform="translate(34.696875 260.695219)scale(0.1 -0.1)">
       <use xlink:href="#DejaVuSans-30"/>
       <use x="63.623047" xlink:href="#DejaVuSans-2e"/>
       <use x="95.410156" xlink:href="#DejaVuSans-32"/>
      </g>
     </g>
    </g>
    <g id="ytick_3">
     <g id="line2d_9">
      <g>
       <use style="stroke:#000000;stroke-width:0.8;" x="57.6" xlink:href="#mc35f82483b" y="206.208"/>
      </g>
     </g>
     <g id="text_10">
      <!-- 0.4 -->
      <g transform="translate(34.696875 210.007219)scale(0.1 -0.1)">
       <use xlink:href="#DejaVuSans-30"/>
       <use x="63.623047" xlink:href="#DejaVuSans-2e"/>
       <use x="95.410156" xlink:href="#DejaVuSans-34"/>
      </g>
     </g>
    </g>
    <g id="ytick_4">
     <g id="line2d_10">
      <g>
       <use style="stroke:#000000;stroke-width:0.8;" x="57.6" xlink:href="#mc35f82483b" y="155.52"/>
      </g>
     </g>
     <g id="text_11">
      <!-- 0.6 -->
      <g transform="translate(34.696875 159.319219)scale(0.1 -0.1)">
       <use xlink:href="#DejaVuSans-30"/>
       <use x="63.623047" xlink:href="#DejaVuSans-2e"/>
       <use x="95.410156" xlink:href="#DejaVuSans-36"/>
      </g>
     </g>
    </g>
    <g id="ytick_5">
     <g id="line2d_11">
      <g>
       <use style="stroke:#000000;stroke-width:0.8;" x="57.6" xlink:href="#mc35f82483b" y="104.832"/>
      </g>
     </g>
     <g id="text_12">
      <!-- 0.8 -->
      <g transform="translate(34.696875 108.631219)scale(0.1 -0.1)">
       <use xlink:href="#DejaVuSans-30"/>
       <use x="63.623047" xlink:href="#DejaVuSans-2e"/>
       <use x="95.410156" xlink:href="#DejaVuSans-38"/>
      </g>
     </g>
    </g>
    <g id="ytick_6">
     <g id="line2d_12">
      <g>
       <use style="stroke:#000000;stroke-width:0.8;" x="57.6" xlink:href="#mc35f82483b" y="54.144"/>
      </g>
     </g>
     <g id="text_13">
      <!-- 1.0 -->
      <g transform="translate(34.696875 57.943219)scale(0.1 -0.1)">
       <use xlink:href="#DejaVuSans-31"/>
       <use x="63.623047" xlink:href="#DejaVuSans-2e"/>
       <use x="95.410156" xlink:href="#DejaVuSans-30"/>
      </g>
     </g>
    </g>
    <g id="text_14">
     <!-- True Positive Rate -->
     <g transform="translate(28.617187 219.057687)rotate(-90)scale(0.1 -0.1)">
      <defs>
       <path d="M -19 4666 
L 3928 4666 
L 3928 4134 
L 2272 4134 
L 2272 0 
L 1638 0 
L 1638 4134 
L -19 4134 
L -19 4666 
z
" id="DejaVuSans-54" transform="scale(0.015625)"/>
       <path d="M 2631 2963 
Q 2534 3019 2420 3045 
Q 2306 3072 2169 3072 
Q 1681 3072 1420 2755 
Q 1159 2438 1159 1844 
L 1159 0 
L 581 0 
L 581 3500 
L 1159 3500 
L 1159 2956 
Q 1341 3275 1631 3429 
Q 1922 3584 2338 3584 
Q 2397 3584 2469 3576 
Q 2541 3569 2628 3553 
L 2631 2963 
z
" id="DejaVuSans-72" transform="scale(0.015625)"/>
       <path d="M 544 1381 
L 544 3500 
L 1119 3500 
L 1119 1403 
Q 1119 906 1312 657 
Q 1506 409 1894 409 
Q 2359 409 2629 706 
Q 2900 1003 2900 1516 
L 2900 3500 
L 3475 3500 
L 3475 0 
L 2900 0 
L 2900 538 
Q 2691 219 2414 64 
Q 2138 -91 1772 -91 
Q 1169 -91 856 284 
Q 544 659 544 1381 
z
M 1991 3584 
L 1991 3584 
z
" id="DejaVuSans-75" transform="scale(0.015625)"/>
      </defs>
      <use xlink:href="#DejaVuSans-54"/>
      <use x="46.333984" xlink:href="#DejaVuSans-72"/>
      <use x="87.447266" xlink:href="#DejaVuSans-75"/>
      <use x="150.826172" xlink:href="#DejaVuSans-65"/>
      <use x="212.349609" xlink:href="#DejaVuSans-20"/>
      <use x="244.136719" xlink:href="#DejaVuSans-50"/>
      <use x="300.814453" xlink:href="#DejaVuSans-6f"/>
      <use x="361.996094" xlink:href="#DejaVuSans-73"/>
      <use x="414.095703" xlink:href="#DejaVuSans-69"/>
      <use x="441.878906" xlink:href="#DejaVuSans-74"/>
      <use x="481.087891" xlink:href="#DejaVuSans-69"/>
      <use x="508.871094" xlink:href="#DejaVuSans-76"/>
      <use x="568.050781" xlink:href="#DejaVuSans-65"/>
      <use x="629.574219" xlink:href="#DejaVuSans-20"/>
      <use x="661.361328" xlink:href="#DejaVuSans-52"/>
      <use x="728.59375" xlink:href="#DejaVuSans-61"/>
      <use x="789.873047" xlink:href="#DejaVuSans-74"/>
      <use x="829.082031" xlink:href="#DejaVuSans-65"/>
     </g>
    </g>
   </g>
   <g id="line2d_13">
    <path clip-path="url(#p8f8b9c82cf)" d="M 57.6 307.584 
L 57.6 240.12609 
L 57.749298 240.12609 
L 57.749298 234.767284 
L 57.898595 234.767284 
L 57.898595 224.364896 
L 58.047893 224.364896 
L 58.047893 210.810269 
L 58.197191 210.810269 
L 58.197191 209.234149 
L 58.346488 209.234149 
L 58.346488 206.397134 
L 58.495786 206.397134 
L 58.495786 183.701015 
L 58.645084 183.701015 
L 58.645084 173.613851 
L 58.794381 173.613851 
L 58.794381 171.407284 
L 58.943679 171.407284 
L 58.943679 167.624597 
L 59.092977 167.624597 
L 59.092977 167.309373 
L 59.242274 167.309373 
L 59.242274 155.961313 
L 59.391572 155.961313 
L 59.391572 146.819821 
L 59.54087 146.819821 
L 59.54087 144.29803 
L 59.690167 144.29803 
L 59.690167 142.72191 
L 60.13806 142.72191 
L 60.13806 141.461015 
L 60.436656 141.461015 
L 60.436656 140.830567 
L 60.585953 140.830567 
L 60.585953 139.254448 
L 60.735251 139.254448 
L 60.735251 137.993552 
L 60.884548 137.993552 
L 60.884548 137.678328 
L 61.033846 137.678328 
L 61.033846 137.047881 
L 61.183144 137.047881 
L 61.183144 135.156537 
L 61.332441 135.156537 
L 61.332441 134.52609 
L 61.481739 134.52609 
L 61.481739 130.112955 
L 61.780334 130.112955 
L 61.780334 128.85206 
L 62.07893 128.85206 
L 62.07893 123.17803 
L 62.377525 123.17803 
L 62.377525 122.232358 
L 62.526823 122.232358 
L 62.526823 120.341015 
L 62.825418 120.341015 
L 62.825418 119.710567 
L 62.974716 119.710567 
L 62.974716 118.449672 
L 63.124013 118.449672 
L 63.124013 116.873552 
L 63.273311 116.873552 
L 63.273311 115.612657 
L 63.571906 115.612657 
L 63.571906 114.666985 
L 63.721204 114.666985 
L 63.721204 113.721313 
L 63.870502 113.721313 
L 63.870502 113.40609 
L 64.019799 113.40609 
L 64.019799 113.090866 
L 64.318395 113.090866 
L 64.318395 112.775642 
L 64.467692 112.775642 
L 64.467692 111.514746 
L 64.61699 111.514746 
L 64.61699 110.884299 
L 64.915585 110.884299 
L 64.915585 110.569075 
L 65.064883 110.569075 
L 65.064883 110.253851 
L 65.214181 110.253851 
L 65.214181 109.623403 
L 65.363478 109.623403 
L 65.363478 109.308179 
L 65.960669 109.308179 
L 65.960669 108.362507 
L 66.408562 108.362507 
L 66.408562 108.047284 
L 66.856455 108.047284 
L 66.856455 107.73206 
L 67.15505 107.73206 
L 67.15505 106.15594 
L 67.304348 106.15594 
L 67.304348 105.840716 
L 67.453645 105.840716 
L 67.453645 105.525493 
L 67.752241 105.525493 
L 67.752241 105.210269 
L 67.901538 105.210269 
L 67.901538 104.895045 
L 68.050836 104.895045 
L 68.050836 104.579821 
L 68.648027 104.579821 
L 68.648027 104.264597 
L 69.09592 104.264597 
L 69.09592 103.949373 
L 69.394515 103.949373 
L 69.394515 103.634149 
L 69.543813 103.634149 
L 69.543813 103.003701 
L 69.842408 103.003701 
L 69.842408 102.373254 
L 70.141003 102.373254 
L 70.141003 102.05803 
L 70.290301 102.05803 
L 70.290301 101.742806 
L 70.439599 101.742806 
L 70.439599 100.48191 
L 70.738194 100.48191 
L 70.738194 99.536239 
L 70.887492 99.536239 
L 70.887492 98.590567 
L 71.036789 98.590567 
L 71.036789 97.644896 
L 71.63398 97.644896 
L 71.63398 97.329672 
L 71.783278 97.329672 
L 71.783278 97.014448 
L 72.081873 97.014448 
L 72.081873 95.438328 
L 72.231171 95.438328 
L 72.231171 95.123104 
L 72.380468 95.123104 
L 72.380468 93.862209 
L 72.679064 93.862209 
L 72.679064 93.546985 
L 72.828361 93.546985 
L 72.828361 92.916537 
L 72.977659 92.916537 
L 72.977659 91.970866 
L 73.425552 91.970866 
L 73.425552 91.655642 
L 73.724147 91.655642 
L 73.724147 91.340418 
L 73.873445 91.340418 
L 73.873445 89.449075 
L 74.321338 89.449075 
L 74.321338 88.818627 
L 74.470635 88.818627 
L 74.470635 88.503403 
L 74.619933 88.503403 
L 74.619933 88.188179 
L 74.769231 88.188179 
L 74.769231 86.927284 
L 75.366421 86.927284 
L 75.366421 86.61206 
L 76.262207 86.61206 
L 76.262207 86.296836 
L 76.560803 86.296836 
L 76.560803 85.666388 
L 77.157993 85.666388 
L 77.157993 85.03594 
L 77.456589 85.03594 
L 77.456589 82.829373 
L 77.605886 82.829373 
L 77.605886 82.514149 
L 78.053779 82.514149 
L 78.053779 81.253254 
L 78.65097 81.253254 
L 78.65097 80.93803 
L 78.949565 80.93803 
L 78.949565 80.307582 
L 79.696054 80.307582 
L 79.696054 79.677134 
L 79.994649 79.677134 
L 79.994649 79.36191 
L 80.143946 79.36191 
L 80.143946 79.046687 
L 80.442542 79.046687 
L 80.442542 78.731463 
L 80.741137 78.731463 
L 80.741137 78.416239 
L 80.890435 78.416239 
L 80.890435 78.101015 
L 81.636923 78.101015 
L 81.636923 77.785791 
L 81.935518 77.785791 
L 81.935518 77.470567 
L 82.831304 77.470567 
L 82.831304 76.840119 
L 83.1299 76.840119 
L 83.1299 76.524896 
L 83.279197 76.524896 
L 83.279197 76.209672 
L 83.428495 76.209672 
L 83.428495 75.579224 
L 83.72709 75.579224 
L 83.72709 74.948776 
L 84.174983 74.948776 
L 84.174983 74.318328 
L 84.324281 74.318328 
L 84.324281 74.003104 
L 84.622876 74.003104 
L 84.622876 73.687881 
L 84.772174 73.687881 
L 84.772174 73.372657 
L 85.070769 73.372657 
L 85.070769 73.057433 
L 85.518662 73.057433 
L 85.518662 72.742209 
L 86.115853 72.742209 
L 86.115853 72.111761 
L 87.758127 72.111761 
L 87.758127 71.796537 
L 88.355318 71.796537 
L 88.355318 71.481313 
L 89.400401 71.481313 
L 89.400401 71.16609 
L 91.042676 71.16609 
L 91.042676 70.850866 
L 91.490569 70.850866 
L 91.490569 70.535642 
L 91.639866 70.535642 
L 91.639866 70.220418 
L 92.386355 70.220418 
L 92.386355 69.905194 
L 93.28214 69.905194 
L 93.28214 69.274746 
L 93.730033 69.274746 
L 93.730033 68.959522 
L 94.476522 68.959522 
L 94.476522 68.644299 
L 96.118796 68.644299 
L 96.118796 68.329075 
L 96.417391 68.329075 
L 96.417391 68.013851 
L 96.865284 68.013851 
L 96.865284 67.698627 
L 97.910368 67.698627 
L 97.910368 67.068179 
L 98.507559 67.068179 
L 98.507559 66.752955 
L 98.656856 66.752955 
L 98.656856 66.437731 
L 99.403344 66.437731 
L 99.403344 66.122507 
L 100.896321 66.122507 
L 100.896321 65.49206 
L 101.941405 65.49206 
L 101.941405 65.176836 
L 102.389298 65.176836 
L 102.389298 64.861612 
L 103.434381 64.861612 
L 103.434381 64.546388 
L 103.583679 64.546388 
L 103.583679 64.231164 
L 104.927358 64.231164 
L 104.927358 63.91594 
L 105.225953 63.91594 
L 105.225953 63.600716 
L 106.868227 63.600716 
L 106.868227 63.285493 
L 107.614716 63.285493 
L 107.614716 62.655045 
L 107.764013 62.655045 
L 107.764013 62.339821 
L 108.211906 62.339821 
L 108.211906 62.024597 
L 111.347157 62.024597 
L 111.347157 61.709373 
L 111.79505 61.709373 
L 111.79505 61.394149 
L 112.093645 61.394149 
L 112.093645 61.078925 
L 113.288027 61.078925 
L 113.288027 60.763701 
L 113.73592 60.763701 
L 113.73592 60.448478 
L 114.183813 60.448478 
L 114.183813 60.133254 
L 114.482408 60.133254 
L 114.482408 59.81803 
L 115.676789 59.81803 
L 115.676789 59.502806 
L 115.975385 59.502806 
L 115.975385 59.187582 
L 121.648696 59.187582 
L 121.648696 58.872358 
L 122.693779 58.872358 
L 122.693779 58.557134 
L 130.905151 58.557134 
L 130.905151 58.24191 
L 133.592508 58.24191 
L 133.592508 57.926687 
L 140.161605 57.926687 
L 140.161605 57.296239 
L 141.355987 57.296239 
L 141.355987 56.981015 
L 146.133512 56.981015 
L 146.133512 56.665791 
L 147.029298 56.665791 
L 147.029298 56.350567 
L 150.612441 56.350567 
L 150.612441 56.035343 
L 151.209632 56.035343 
L 151.209632 55.720119 
L 152.553311 55.720119 
L 152.553311 55.404896 
L 153.747692 55.404896 
L 153.747692 55.089672 
L 153.89699 55.089672 
L 153.89699 54.774448 
L 187.787559 54.774448 
L 187.787559 54.459224 
L 263.630769 54.459224 
L 263.630769 54.144 
L 414.72 54.144 
L 414.72 54.144 
" style="fill:none;stroke:#fe8340;stroke-linecap:square;stroke-width:2;"/>
   </g>
   <g id="line2d_14">
    <path clip-path="url(#p8f8b9c82cf)" d="M 57.6 307.584 
L 57.6 146.888772 
L 57.947055 146.888772 
L 57.947055 145.017503 
L 58.294111 145.017503 
L 58.294111 141.041056 
L 58.641166 141.041056 
L 58.641166 131.801665 
L 58.988222 131.801665 
L 58.988222 123.497909 
L 59.335277 123.497909 
L 59.335277 123.030091 
L 59.682332 123.030091 
L 59.682332 121.860548 
L 60.029388 121.860548 
L 60.029388 119.170599 
L 60.376443 119.170599 
L 60.376443 115.778924 
L 60.723499 115.778924 
L 60.723499 113.673746 
L 61.070554 113.673746 
L 61.070554 112.504203 
L 61.417609 112.504203 
L 61.417609 110.749888 
L 61.764665 110.749888 
L 61.764665 108.878619 
L 62.11172 108.878619 
L 62.11172 107.00735 
L 62.458776 107.00735 
L 62.458776 104.434355 
L 62.805831 104.434355 
L 62.805831 101.510497 
L 63.499942 101.510497 
L 63.499942 101.04268 
L 63.846997 101.04268 
L 63.846997 100.457909 
L 64.194052 100.457909 
L 64.194052 96.130599 
L 64.541108 96.130599 
L 64.541108 94.493239 
L 64.888163 94.493239 
L 64.888163 93.791513 
L 65.235219 93.791513 
L 65.235219 93.557604 
L 65.929329 93.557604 
L 65.929329 93.206741 
L 66.276385 93.206741 
L 66.276385 92.271107 
L 66.62344 92.271107 
L 66.62344 91.803289 
L 66.970496 91.803289 
L 66.970496 90.048975 
L 67.317551 90.048975 
L 67.317551 89.581157 
L 67.664606 89.581157 
L 67.664606 89.230294 
L 68.011662 89.230294 
L 68.011662 88.762477 
L 68.705773 88.762477 
L 68.705773 88.060751 
L 69.052828 88.060751 
L 69.052828 86.423391 
L 69.399883 86.423391 
L 69.399883 85.721665 
L 69.746939 85.721665 
L 69.746939 84.902985 
L 70.093994 84.902985 
L 70.093994 84.669076 
L 70.44105 84.669076 
L 70.44105 83.733442 
L 70.788105 83.733442 
L 70.788105 83.265624 
L 71.13516 83.265624 
L 71.13516 82.680853 
L 71.482216 82.680853 
L 71.482216 81.979127 
L 71.829271 81.979127 
L 71.829271 81.394355 
L 72.176327 81.394355 
L 72.176327 80.809584 
L 72.870437 80.809584 
L 72.870437 80.692629 
L 73.217493 80.692629 
L 73.217493 79.640041 
L 73.564548 79.640041 
L 73.564548 79.289178 
L 73.911603 79.289178 
L 73.911603 78.353543 
L 74.605714 78.353543 
L 74.605714 78.119635 
L 74.95277 78.119635 
L 74.95277 77.768772 
L 75.299825 77.768772 
L 75.299825 77.417909 
L 75.64688 77.417909 
L 75.64688 76.833137 
L 75.993936 76.833137 
L 75.993936 75.780548 
L 76.340991 75.780548 
L 76.340991 75.429685 
L 76.688047 75.429685 
L 76.688047 75.078822 
L 77.382157 75.078822 
L 77.382157 74.143188 
L 78.076268 74.143188 
L 78.076268 73.324508 
L 78.423324 73.324508 
L 78.423324 72.739736 
L 78.770379 72.739736 
L 78.770379 72.505827 
L 79.811545 72.505827 
L 79.811545 72.388873 
L 80.158601 72.388873 
L 80.158601 72.154964 
L 80.852711 72.154964 
L 80.852711 71.921056 
L 81.199767 71.921056 
L 81.199767 71.336284 
L 81.546822 71.336284 
L 81.546822 71.102376 
L 81.893878 71.102376 
L 81.893878 70.868467 
L 82.240933 70.868467 
L 82.240933 70.517604 
L 82.587988 70.517604 
L 82.587988 70.166741 
L 83.629155 70.166741 
L 83.629155 70.049787 
L 83.97621 70.049787 
L 83.97621 69.698924 
L 84.323265 69.698924 
L 84.323265 69.231107 
L 84.670321 69.231107 
L 84.670321 68.997198 
L 85.017376 68.997198 
L 85.017376 68.880244 
L 85.364431 68.880244 
L 85.364431 68.412426 
L 85.711487 68.412426 
L 85.711487 68.178518 
L 86.058542 68.178518 
L 86.058542 68.061563 
L 86.405598 68.061563 
L 86.405598 67.827655 
L 87.099708 67.827655 
L 87.099708 67.710701 
L 89.182041 67.710701 
L 89.182041 67.008975 
L 90.223207 67.008975 
L 90.223207 66.658112 
L 90.570262 66.658112 
L 90.570262 66.541157 
L 91.264373 66.541157 
L 91.264373 66.424203 
L 93.693761 66.424203 
L 93.693761 66.190294 
L 94.387872 66.190294 
L 94.387872 65.956386 
L 95.081983 65.956386 
L 95.081983 65.839431 
L 95.429038 65.839431 
L 95.429038 65.722477 
L 95.776093 65.722477 
L 95.776093 65.488569 
L 96.470204 65.488569 
L 96.470204 65.371614 
L 97.51137 65.371614 
L 97.51137 65.25466 
L 98.205481 65.25466 
L 98.205481 65.137706 
L 98.552536 65.137706 
L 98.552536 64.903797 
L 98.899592 64.903797 
L 98.899592 64.786843 
L 100.287813 64.786843 
L 100.287813 64.43598 
L 100.634869 64.43598 
L 100.634869 64.202071 
L 100.981924 64.202071 
L 100.981924 63.968162 
L 103.064257 63.968162 
L 103.064257 63.734254 
L 104.105423 63.734254 
L 104.105423 63.383391 
L 104.799534 63.383391 
L 104.799534 63.266437 
L 105.493644 63.266437 
L 105.493644 63.149482 
L 106.881866 63.149482 
L 106.881866 62.798619 
L 108.617143 62.798619 
L 108.617143 62.681665 
L 108.964198 62.681665 
L 108.964198 62.213848 
L 109.311254 62.213848 
L 109.311254 61.979939 
L 110.005364 61.979939 
L 110.005364 61.629076 
L 111.393586 61.629076 
L 111.393586 61.512122 
L 112.087697 61.512122 
L 112.087697 61.395168 
L 112.781808 61.395168 
L 112.781808 61.161259 
L 113.822974 61.161259 
L 113.822974 60.693442 
L 114.170029 60.693442 
L 114.170029 60.342579 
L 114.86414 60.342579 
L 114.86414 60.225624 
L 115.211195 60.225624 
L 115.211195 59.991716 
L 115.558251 59.991716 
L 115.558251 59.874761 
L 116.946472 59.874761 
L 116.946472 59.757807 
L 117.640583 59.757807 
L 117.640583 59.406944 
L 117.987638 59.406944 
L 117.987638 59.28999 
L 118.681749 59.28999 
L 118.681749 59.173036 
L 119.37586 59.173036 
L 119.37586 59.056081 
L 120.069971 59.056081 
L 120.069971 58.705218 
L 120.764082 58.705218 
L 120.764082 58.588264 
L 125.622857 58.588264 
L 125.622857 58.47131 
L 126.316968 58.47131 
L 126.316968 58.354355 
L 128.052245 58.354355 
L 128.052245 58.237401 
L 131.522799 58.237401 
L 131.522799 58.120447 
L 132.21691 58.120447 
L 132.21691 58.003492 
L 132.91102 58.003492 
L 132.91102 57.886538 
L 134.993353 57.886538 
L 134.993353 57.652629 
L 137.769796 57.652629 
L 137.769796 57.535675 
L 138.463907 57.535675 
L 138.463907 57.301766 
L 141.24035 57.301766 
L 141.24035 57.184812 
L 141.934461 57.184812 
L 141.934461 57.067858 
L 142.281516 57.067858 
L 142.281516 56.950904 
L 146.793236 56.950904 
L 146.793236 56.833949 
L 147.834402 56.833949 
L 147.834402 56.716995 
L 149.916735 56.716995 
L 149.916735 56.600041 
L 155.122566 56.600041 
L 155.122566 56.483086 
L 155.816676 56.483086 
L 155.816676 56.249178 
L 156.163732 56.249178 
L 156.163732 56.015269 
L 156.857843 56.015269 
L 156.857843 55.898315 
L 157.204898 55.898315 
L 157.204898 55.78136 
L 160.328397 55.78136 
L 160.328397 55.664406 
L 160.675452 55.664406 
L 160.675452 55.547452 
L 162.410729 55.547452 
L 162.410729 55.430497 
L 163.79895 55.430497 
L 163.79895 55.313543 
L 172.822391 55.313543 
L 172.822391 55.196589 
L 179.416443 55.196589 
L 179.416443 55.079635 
L 186.704606 55.079635 
L 186.704606 54.96268 
L 199.545656 54.96268 
L 199.545656 54.845726 
L 204.751487 54.845726 
L 204.751487 54.728772 
L 205.098542 54.728772 
L 205.098542 54.611817 
L 239.804082 54.611817 
L 239.804082 54.494863 
L 252.298076 54.494863 
L 252.298076 54.377909 
L 257.503907 54.377909 
L 257.503907 54.260954 
L 268.609679 54.260954 
L 268.609679 54.144 
L 414.72 54.144 
L 414.72 54.144 
" style="fill:none;stroke:#def2cd;stroke-linecap:square;stroke-width:2;"/>
   </g>
   <g id="line2d_15">
    <path clip-path="url(#p8f8b9c82cf)" d="M 57.6 307.584 
L 57.6 306.4576 
L 57.6 258.0224 
L 57.720202 258.0224 
L 57.720202 207.3344 
L 57.840404 207.3344 
L 57.840404 151.0144 
L 57.960606 151.0144 
L 57.960606 147.6352 
L 58.080808 147.6352 
L 58.080808 144.256 
L 58.20101 144.256 
L 58.20101 132.992 
L 58.321212 132.992 
L 58.321212 131.8656 
L 58.561616 131.8656 
L 58.561616 125.1072 
L 58.681818 125.1072 
L 58.681818 123.9808 
L 58.80202 123.9808 
L 58.80202 120.6016 
L 59.162625 120.6016 
L 59.162625 117.2224 
L 59.403029 117.2224 
L 59.403029 116.096 
L 59.643433 116.096 
L 59.643433 114.9696 
L 60.124241 114.9696 
L 60.124241 113.8432 
L 60.244443 113.8432 
L 60.244443 111.5904 
L 60.484847 111.5904 
L 60.484847 110.464 
L 60.725251 110.464 
L 60.725251 109.3376 
L 61.085857 109.3376 
L 61.085857 108.2112 
L 61.446462 108.2112 
L 61.446462 107.0848 
L 61.566664 107.0848 
L 61.566664 105.9584 
L 61.686866 105.9584 
L 61.686866 104.832 
L 61.807068 104.832 
L 61.807068 103.7056 
L 62.167674 103.7056 
L 62.167674 100.3264 
L 62.287876 100.3264 
L 62.287876 98.0736 
L 63.009088 98.0736 
L 63.009088 96.9472 
L 63.12929 96.9472 
L 63.12929 95.8208 
L 63.249492 95.8208 
L 63.249492 94.6944 
L 63.489896 94.6944 
L 63.489896 93.568 
L 64.090905 93.568 
L 64.090905 92.4416 
L 64.211107 92.4416 
L 64.211107 91.3152 
L 64.451511 91.3152 
L 64.451511 90.1888 
L 64.812117 90.1888 
L 64.812117 89.0624 
L 65.292925 89.0624 
L 65.292925 87.936 
L 65.893935 87.936 
L 65.893935 86.8096 
L 66.014137 86.8096 
L 66.014137 85.6832 
L 66.615146 85.6832 
L 66.615146 84.5568 
L 66.85555 84.5568 
L 66.85555 83.4304 
L 66.975752 83.4304 
L 66.975752 82.304 
L 67.336358 82.304 
L 67.336358 80.0512 
L 67.576762 80.0512 
L 67.576762 78.9248 
L 68.05757 78.9248 
L 68.05757 76.672 
L 68.418176 76.672 
L 68.418176 75.5456 
L 71.303023 75.5456 
L 71.303023 74.4192 
L 71.423225 74.4192 
L 71.423225 73.2928 
L 71.663628 73.2928 
L 71.663628 72.1664 
L 74.428273 72.1664 
L 74.428273 71.04 
L 82.481804 71.04 
L 82.481804 69.9136 
L 83.563622 69.9136 
L 83.563622 68.7872 
L 84.044429 68.7872 
L 84.044429 67.6608 
L 85.006045 67.6608 
L 85.006045 66.5344 
L 98.949472 66.5344 
L 98.949472 65.408 
L 100.031289 65.408 
L 100.031289 64.2816 
L 101.834318 64.2816 
L 101.834318 63.1552 
L 102.194924 63.1552 
L 102.194924 60.9024 
L 120.465621 60.9024 
L 120.465621 59.776 
L 140.659549 59.776 
L 140.659549 58.6496 
L 148.352474 58.6496 
L 148.352474 57.5232 
L 148.833282 57.5232 
L 148.833282 56.3968 
L 169.748421 56.3968 
L 169.748421 55.2704 
L 191.504975 55.2704 
L 191.504975 54.144 
L 414.72 54.144 
" style="fill:none;stroke:#8ba7bb;stroke-linecap:square;stroke-width:2;"/>
   </g>
   <g id="line2d_16">
    <path clip-path="url(#p8f8b9c82cf)" d="M 57.6 307.584 
L 414.72 54.144 
" style="fill:none;stroke:#000000;stroke-dasharray:7.4,3.2;stroke-dashoffset:0;stroke-width:2;"/>
   </g>
   <g id="patch_3">
    <path d="M 57.6 307.584 
L 57.6 41.472 
" style="fill:none;stroke:#000000;stroke-linecap:square;stroke-linejoin:miter;stroke-width:0.8;"/>
   </g>
   <g id="patch_4">
    <path d="M 414.72 307.584 
L 414.72 41.472 
" style="fill:none;stroke:#000000;stroke-linecap:square;stroke-linejoin:miter;stroke-width:0.8;"/>
   </g>
   <g id="patch_5">
    <path d="M 57.6 307.584 
L 414.72 307.584 
" style="fill:none;stroke:#000000;stroke-linecap:square;stroke-linejoin:miter;stroke-width:0.8;"/>
   </g>
   <g id="patch_6">
    <path d="M 57.6 41.472 
L 414.72 41.472 
" style="fill:none;stroke:#000000;stroke-linecap:square;stroke-linejoin:miter;stroke-width:0.8;"/>
   </g>
   <g id="text_15">
    <!-- Class ROC Curves -->
    <g transform="translate(182.652187 35.472)scale(0.12 -0.12)">
     <defs>
      <path d="M 4122 4306 
L 4122 3641 
Q 3803 3938 3442 4084 
Q 3081 4231 2675 4231 
Q 1875 4231 1450 3742 
Q 1025 3253 1025 2328 
Q 1025 1406 1450 917 
Q 1875 428 2675 428 
Q 3081 428 3442 575 
Q 3803 722 4122 1019 
L 4122 359 
Q 3791 134 3420 21 
Q 3050 -91 2638 -91 
Q 1578 -91 968 557 
Q 359 1206 359 2328 
Q 359 3453 968 4101 
Q 1578 4750 2638 4750 
Q 3056 4750 3426 4639 
Q 3797 4528 4122 4306 
z
" id="DejaVuSans-43" transform="scale(0.015625)"/>
      <path d="M 2522 4238 
Q 1834 4238 1429 3725 
Q 1025 3213 1025 2328 
Q 1025 1447 1429 934 
Q 1834 422 2522 422 
Q 3209 422 3611 934 
Q 4013 1447 4013 2328 
Q 4013 3213 3611 3725 
Q 3209 4238 2522 4238 
z
M 2522 4750 
Q 3503 4750 4090 4092 
Q 4678 3434 4678 2328 
Q 4678 1225 4090 567 
Q 3503 -91 2522 -91 
Q 1538 -91 948 565 
Q 359 1222 359 2328 
Q 359 3434 948 4092 
Q 1538 4750 2522 4750 
z
" id="DejaVuSans-4f" transform="scale(0.015625)"/>
     </defs>
     <use xlink:href="#DejaVuSans-43"/>
     <use x="69.824219" xlink:href="#DejaVuSans-6c"/>
     <use x="97.607422" xlink:href="#DejaVuSans-61"/>
     <use x="158.886719" xlink:href="#DejaVuSans-73"/>
     <use x="210.986328" xlink:href="#DejaVuSans-73"/>
     <use x="263.085938" xlink:href="#DejaVuSans-20"/>
     <use x="294.873047" xlink:href="#DejaVuSans-52"/>
     <use x="364.355469" xlink:href="#DejaVuSans-4f"/>
     <use x="443.066406" xlink:href="#DejaVuSans-43"/>
     <use x="512.890625" xlink:href="#DejaVuSans-20"/>
     <use x="544.677734" xlink:href="#DejaVuSans-43"/>
     <use x="614.501953" xlink:href="#DejaVuSans-75"/>
     <use x="677.880859" xlink:href="#DejaVuSans-72"/>
     <use x="718.994141" xlink:href="#DejaVuSans-76"/>
     <use x="778.173828" xlink:href="#DejaVuSans-65"/>
     <use x="839.697266" xlink:href="#DejaVuSans-73"/>
    </g>
   </g>
   <g id="legend_1">
    <g id="patch_7">
     <path d="M 129.21375 302.584 
L 407.72 302.584 
Q 409.72 302.584 409.72 300.584 
L 409.72 257.549625 
Q 409.72 255.549625 407.72 255.549625 
L 129.21375 255.549625 
Q 127.21375 255.549625 127.21375 257.549625 
L 127.21375 300.584 
Q 127.21375 302.584 129.21375 302.584 
z
" style="fill:#ffffff;opacity:0.8;stroke:#cccccc;stroke-linejoin:miter;"/>
    </g>
    <g id="line2d_17">
     <path d="M 131.21375 263.648062 
L 151.21375 263.648062 
" style="fill:none;stroke:#fe8340;stroke-linecap:square;stroke-width:2;"/>
    </g>
    <g id="line2d_18"/>
    <g id="text_16">
     <!-- ROC curve of Effector Memory CD4 (area = 0.98) -->
     <g transform="translate(159.21375 267.148062)scale(0.1 -0.1)">
      <defs>
       <path d="M 3122 3366 
L 3122 2828 
Q 2878 2963 2633 3030 
Q 2388 3097 2138 3097 
Q 1578 3097 1268 2742 
Q 959 2388 959 1747 
Q 959 1106 1268 751 
Q 1578 397 2138 397 
Q 2388 397 2633 464 
Q 2878 531 3122 666 
L 3122 134 
Q 2881 22 2623 -34 
Q 2366 -91 2075 -91 
Q 1284 -91 818 406 
Q 353 903 353 1747 
Q 353 2603 823 3093 
Q 1294 3584 2113 3584 
Q 2378 3584 2631 3529 
Q 2884 3475 3122 3366 
z
" id="DejaVuSans-63" transform="scale(0.015625)"/>
       <path d="M 2375 4863 
L 2375 4384 
L 1825 4384 
Q 1516 4384 1395 4259 
Q 1275 4134 1275 3809 
L 1275 3500 
L 2222 3500 
L 2222 3053 
L 1275 3053 
L 1275 0 
L 697 0 
L 697 3053 
L 147 3053 
L 147 3500 
L 697 3500 
L 697 3744 
Q 697 4328 969 4595 
Q 1241 4863 1831 4863 
L 2375 4863 
z
" id="DejaVuSans-66" transform="scale(0.015625)"/>
       <path d="M 628 4666 
L 3578 4666 
L 3578 4134 
L 1259 4134 
L 1259 2753 
L 3481 2753 
L 3481 2222 
L 1259 2222 
L 1259 531 
L 3634 531 
L 3634 0 
L 628 0 
L 628 4666 
z
" id="DejaVuSans-45" transform="scale(0.015625)"/>
       <path d="M 628 4666 
L 1569 4666 
L 2759 1491 
L 3956 4666 
L 4897 4666 
L 4897 0 
L 4281 0 
L 4281 4097 
L 3078 897 
L 2444 897 
L 1241 4097 
L 1241 0 
L 628 0 
L 628 4666 
z
" id="DejaVuSans-4d" transform="scale(0.015625)"/>
       <path d="M 3328 2828 
Q 3544 3216 3844 3400 
Q 4144 3584 4550 3584 
Q 5097 3584 5394 3201 
Q 5691 2819 5691 2113 
L 5691 0 
L 5113 0 
L 5113 2094 
Q 5113 2597 4934 2840 
Q 4756 3084 4391 3084 
Q 3944 3084 3684 2787 
Q 3425 2491 3425 1978 
L 3425 0 
L 2847 0 
L 2847 2094 
Q 2847 2600 2669 2842 
Q 2491 3084 2119 3084 
Q 1678 3084 1418 2786 
Q 1159 2488 1159 1978 
L 1159 0 
L 581 0 
L 581 3500 
L 1159 3500 
L 1159 2956 
Q 1356 3278 1631 3431 
Q 1906 3584 2284 3584 
Q 2666 3584 2933 3390 
Q 3200 3197 3328 2828 
z
" id="DejaVuSans-6d" transform="scale(0.015625)"/>
       <path d="M 2059 -325 
Q 1816 -950 1584 -1140 
Q 1353 -1331 966 -1331 
L 506 -1331 
L 506 -850 
L 844 -850 
Q 1081 -850 1212 -737 
Q 1344 -625 1503 -206 
L 1606 56 
L 191 3500 
L 800 3500 
L 1894 763 
L 2988 3500 
L 3597 3500 
L 2059 -325 
z
" id="DejaVuSans-79" transform="scale(0.015625)"/>
       <path d="M 1259 4147 
L 1259 519 
L 2022 519 
Q 2988 519 3436 956 
Q 3884 1394 3884 2338 
Q 3884 3275 3436 3711 
Q 2988 4147 2022 4147 
L 1259 4147 
z
M 628 4666 
L 1925 4666 
Q 3281 4666 3915 4102 
Q 4550 3538 4550 2338 
Q 4550 1131 3912 565 
Q 3275 0 1925 0 
L 628 0 
L 628 4666 
z
" id="DejaVuSans-44" transform="scale(0.015625)"/>
       <path d="M 1984 4856 
Q 1566 4138 1362 3434 
Q 1159 2731 1159 2009 
Q 1159 1288 1364 580 
Q 1569 -128 1984 -844 
L 1484 -844 
Q 1016 -109 783 600 
Q 550 1309 550 2009 
Q 550 2706 781 3412 
Q 1013 4119 1484 4856 
L 1984 4856 
z
" id="DejaVuSans-28" transform="scale(0.015625)"/>
       <path d="M 678 2906 
L 4684 2906 
L 4684 2381 
L 678 2381 
L 678 2906 
z
M 678 1631 
L 4684 1631 
L 4684 1100 
L 678 1100 
L 678 1631 
z
" id="DejaVuSans-3d" transform="scale(0.015625)"/>
       <path d="M 703 97 
L 703 672 
Q 941 559 1184 500 
Q 1428 441 1663 441 
Q 2288 441 2617 861 
Q 2947 1281 2994 2138 
Q 2813 1869 2534 1725 
Q 2256 1581 1919 1581 
Q 1219 1581 811 2004 
Q 403 2428 403 3163 
Q 403 3881 828 4315 
Q 1253 4750 1959 4750 
Q 2769 4750 3195 4129 
Q 3622 3509 3622 2328 
Q 3622 1225 3098 567 
Q 2575 -91 1691 -91 
Q 1453 -91 1209 -44 
Q 966 3 703 97 
z
M 1959 2075 
Q 2384 2075 2632 2365 
Q 2881 2656 2881 3163 
Q 2881 3666 2632 3958 
Q 2384 4250 1959 4250 
Q 1534 4250 1286 3958 
Q 1038 3666 1038 3163 
Q 1038 2656 1286 2365 
Q 1534 2075 1959 2075 
z
" id="DejaVuSans-39" transform="scale(0.015625)"/>
       <path d="M 513 4856 
L 1013 4856 
Q 1481 4119 1714 3412 
Q 1947 2706 1947 2009 
Q 1947 1309 1714 600 
Q 1481 -109 1013 -844 
L 513 -844 
Q 928 -128 1133 580 
Q 1338 1288 1338 2009 
Q 1338 2731 1133 3434 
Q 928 4138 513 4856 
z
" id="DejaVuSans-29" transform="scale(0.015625)"/>
      </defs>
      <use xlink:href="#DejaVuSans-52"/>
      <use x="69.482422" xlink:href="#DejaVuSans-4f"/>
      <use x="148.193359" xlink:href="#DejaVuSans-43"/>
      <use x="218.017578" xlink:href="#DejaVuSans-20"/>
      <use x="249.804688" xlink:href="#DejaVuSans-63"/>
      <use x="304.785156" xlink:href="#DejaVuSans-75"/>
      <use x="368.164062" xlink:href="#DejaVuSans-72"/>
      <use x="409.277344" xlink:href="#DejaVuSans-76"/>
      <use x="468.457031" xlink:href="#DejaVuSans-65"/>
      <use x="529.980469" xlink:href="#DejaVuSans-20"/>
      <use x="561.767578" xlink:href="#DejaVuSans-6f"/>
      <use x="622.949219" xlink:href="#DejaVuSans-66"/>
      <use x="658.154297" xlink:href="#DejaVuSans-20"/>
      <use x="689.941406" xlink:href="#DejaVuSans-45"/>
      <use x="753.125" xlink:href="#DejaVuSans-66"/>
      <use x="788.330078" xlink:href="#DejaVuSans-66"/>
      <use x="823.535156" xlink:href="#DejaVuSans-65"/>
      <use x="885.058594" xlink:href="#DejaVuSans-63"/>
      <use x="940.039062" xlink:href="#DejaVuSans-74"/>
      <use x="979.248047" xlink:href="#DejaVuSans-6f"/>
      <use x="1040.429688" xlink:href="#DejaVuSans-72"/>
      <use x="1081.542969" xlink:href="#DejaVuSans-20"/>
      <use x="1113.330078" xlink:href="#DejaVuSans-4d"/>
      <use x="1199.609375" xlink:href="#DejaVuSans-65"/>
      <use x="1261.132812" xlink:href="#DejaVuSans-6d"/>
      <use x="1358.544922" xlink:href="#DejaVuSans-6f"/>
      <use x="1419.726562" xlink:href="#DejaVuSans-72"/>
      <use x="1460.839844" xlink:href="#DejaVuSans-79"/>
      <use x="1520.019531" xlink:href="#DejaVuSans-20"/>
      <use x="1551.806641" xlink:href="#DejaVuSans-43"/>
      <use x="1621.630859" xlink:href="#DejaVuSans-44"/>
      <use x="1698.632812" xlink:href="#DejaVuSans-34"/>
      <use x="1762.255859" xlink:href="#DejaVuSans-20"/>
      <use x="1794.042969" xlink:href="#DejaVuSans-28"/>
      <use x="1833.056641" xlink:href="#DejaVuSans-61"/>
      <use x="1894.335938" xlink:href="#DejaVuSans-72"/>
      <use x="1933.199219" xlink:href="#DejaVuSans-65"/>
      <use x="1994.722656" xlink:href="#DejaVuSans-61"/>
      <use x="2056.001953" xlink:href="#DejaVuSans-20"/>
      <use x="2087.789062" xlink:href="#DejaVuSans-3d"/>
      <use x="2171.578125" xlink:href="#DejaVuSans-20"/>
      <use x="2203.365234" xlink:href="#DejaVuSans-30"/>
      <use x="2266.988281" xlink:href="#DejaVuSans-2e"/>
      <use x="2298.775391" xlink:href="#DejaVuSans-39"/>
      <use x="2362.398438" xlink:href="#DejaVuSans-38"/>
      <use x="2426.021484" xlink:href="#DejaVuSans-29"/>
     </g>
    </g>
    <g id="line2d_19">
     <path d="M 131.21375 278.326188 
L 151.21375 278.326188 
" style="fill:none;stroke:#def2cd;stroke-linecap:square;stroke-width:2;"/>
    </g>
    <g id="line2d_20"/>
    <g id="text_17">
     <!-- ROC curve of Naive/Central CD4 (area = 0.98) -->
     <g transform="translate(159.21375 281.826188)scale(0.1 -0.1)">
      <defs>
       <path d="M 628 4666 
L 1478 4666 
L 3547 763 
L 3547 4666 
L 4159 4666 
L 4159 0 
L 3309 0 
L 1241 3903 
L 1241 0 
L 628 0 
L 628 4666 
z
" id="DejaVuSans-4e" transform="scale(0.015625)"/>
       <path d="M 1625 4666 
L 2156 4666 
L 531 -594 
L 0 -594 
L 1625 4666 
z
" id="DejaVuSans-2f" transform="scale(0.015625)"/>
       <path d="M 3513 2113 
L 3513 0 
L 2938 0 
L 2938 2094 
Q 2938 2591 2744 2837 
Q 2550 3084 2163 3084 
Q 1697 3084 1428 2787 
Q 1159 2491 1159 1978 
L 1159 0 
L 581 0 
L 581 3500 
L 1159 3500 
L 1159 2956 
Q 1366 3272 1645 3428 
Q 1925 3584 2291 3584 
Q 2894 3584 3203 3211 
Q 3513 2838 3513 2113 
z
" id="DejaVuSans-6e" transform="scale(0.015625)"/>
      </defs>
      <use xlink:href="#DejaVuSans-52"/>
      <use x="69.482422" xlink:href="#DejaVuSans-4f"/>
      <use x="148.193359" xlink:href="#DejaVuSans-43"/>
      <use x="218.017578" xlink:href="#DejaVuSans-20"/>
      <use x="249.804688" xlink:href="#DejaVuSans-63"/>
      <use x="304.785156" xlink:href="#DejaVuSans-75"/>
      <use x="368.164062" xlink:href="#DejaVuSans-72"/>
      <use x="409.277344" xlink:href="#DejaVuSans-76"/>
      <use x="468.457031" xlink:href="#DejaVuSans-65"/>
      <use x="529.980469" xlink:href="#DejaVuSans-20"/>
      <use x="561.767578" xlink:href="#DejaVuSans-6f"/>
      <use x="622.949219" xlink:href="#DejaVuSans-66"/>
      <use x="658.154297" xlink:href="#DejaVuSans-20"/>
      <use x="689.941406" xlink:href="#DejaVuSans-4e"/>
      <use x="764.746094" xlink:href="#DejaVuSans-61"/>
      <use x="826.025391" xlink:href="#DejaVuSans-69"/>
      <use x="853.808594" xlink:href="#DejaVuSans-76"/>
      <use x="912.988281" xlink:href="#DejaVuSans-65"/>
      <use x="974.511719" xlink:href="#DejaVuSans-2f"/>
      <use x="1008.203125" xlink:href="#DejaVuSans-43"/>
      <use x="1078.027344" xlink:href="#DejaVuSans-65"/>
      <use x="1139.550781" xlink:href="#DejaVuSans-6e"/>
      <use x="1202.929688" xlink:href="#DejaVuSans-74"/>
      <use x="1242.138672" xlink:href="#DejaVuSans-72"/>
      <use x="1283.251953" xlink:href="#DejaVuSans-61"/>
      <use x="1344.53125" xlink:href="#DejaVuSans-6c"/>
      <use x="1372.314453" xlink:href="#DejaVuSans-20"/>
      <use x="1404.101562" xlink:href="#DejaVuSans-43"/>
      <use x="1473.925781" xlink:href="#DejaVuSans-44"/>
      <use x="1550.927734" xlink:href="#DejaVuSans-34"/>
      <use x="1614.550781" xlink:href="#DejaVuSans-20"/>
      <use x="1646.337891" xlink:href="#DejaVuSans-28"/>
      <use x="1685.351562" xlink:href="#DejaVuSans-61"/>
      <use x="1746.630859" xlink:href="#DejaVuSans-72"/>
      <use x="1785.494141" xlink:href="#DejaVuSans-65"/>
      <use x="1847.017578" xlink:href="#DejaVuSans-61"/>
      <use x="1908.296875" xlink:href="#DejaVuSans-20"/>
      <use x="1940.083984" xlink:href="#DejaVuSans-3d"/>
      <use x="2023.873047" xlink:href="#DejaVuSans-20"/>
      <use x="2055.660156" xlink:href="#DejaVuSans-30"/>
      <use x="2119.283203" xlink:href="#DejaVuSans-2e"/>
      <use x="2151.070312" xlink:href="#DejaVuSans-39"/>
      <use x="2214.693359" xlink:href="#DejaVuSans-38"/>
      <use x="2278.316406" xlink:href="#DejaVuSans-29"/>
     </g>
    </g>
    <g id="line2d_21">
     <path d="M 131.21375 293.004312 
L 151.21375 293.004312 
" style="fill:none;stroke:#8ba7bb;stroke-linecap:square;stroke-width:2;"/>
    </g>
    <g id="line2d_22"/>
    <g id="text_18">
     <!-- ROC curve of T-reg CD4 (area = 0.98) -->
     <g transform="translate(159.21375 296.504312)scale(0.1 -0.1)">
      <defs>
       <path d="M 313 2009 
L 1997 2009 
L 1997 1497 
L 313 1497 
L 313 2009 
z
" id="DejaVuSans-2d" transform="scale(0.015625)"/>
       <path d="M 2906 1791 
Q 2906 2416 2648 2759 
Q 2391 3103 1925 3103 
Q 1463 3103 1205 2759 
Q 947 2416 947 1791 
Q 947 1169 1205 825 
Q 1463 481 1925 481 
Q 2391 481 2648 825 
Q 2906 1169 2906 1791 
z
M 3481 434 
Q 3481 -459 3084 -895 
Q 2688 -1331 1869 -1331 
Q 1566 -1331 1297 -1286 
Q 1028 -1241 775 -1147 
L 775 -588 
Q 1028 -725 1275 -790 
Q 1522 -856 1778 -856 
Q 2344 -856 2625 -561 
Q 2906 -266 2906 331 
L 2906 616 
Q 2728 306 2450 153 
Q 2172 0 1784 0 
Q 1141 0 747 490 
Q 353 981 353 1791 
Q 353 2603 747 3093 
Q 1141 3584 1784 3584 
Q 2172 3584 2450 3431 
Q 2728 3278 2906 2969 
L 2906 3500 
L 3481 3500 
L 3481 434 
z
" id="DejaVuSans-67" transform="scale(0.015625)"/>
      </defs>
      <use xlink:href="#DejaVuSans-52"/>
      <use x="69.482422" xlink:href="#DejaVuSans-4f"/>
      <use x="148.193359" xlink:href="#DejaVuSans-43"/>
      <use x="218.017578" xlink:href="#DejaVuSans-20"/>
      <use x="249.804688" xlink:href="#DejaVuSans-63"/>
      <use x="304.785156" xlink:href="#DejaVuSans-75"/>
      <use x="368.164062" xlink:href="#DejaVuSans-72"/>
      <use x="409.277344" xlink:href="#DejaVuSans-76"/>
      <use x="468.457031" xlink:href="#DejaVuSans-65"/>
      <use x="529.980469" xlink:href="#DejaVuSans-20"/>
      <use x="561.767578" xlink:href="#DejaVuSans-6f"/>
      <use x="622.949219" xlink:href="#DejaVuSans-66"/>
      <use x="658.154297" xlink:href="#DejaVuSans-20"/>
      <use x="689.941406" xlink:href="#DejaVuSans-54"/>
      <use x="741.900391" xlink:href="#DejaVuSans-2d"/>
      <use x="777.984375" xlink:href="#DejaVuSans-72"/>
      <use x="816.847656" xlink:href="#DejaVuSans-65"/>
      <use x="878.371094" xlink:href="#DejaVuSans-67"/>
      <use x="941.847656" xlink:href="#DejaVuSans-20"/>
      <use x="973.634766" xlink:href="#DejaVuSans-43"/>
      <use x="1043.458984" xlink:href="#DejaVuSans-44"/>
      <use x="1120.460938" xlink:href="#DejaVuSans-34"/>
      <use x="1184.083984" xlink:href="#DejaVuSans-20"/>
      <use x="1215.871094" xlink:href="#DejaVuSans-28"/>
      <use x="1254.884766" xlink:href="#DejaVuSans-61"/>
      <use x="1316.164062" xlink:href="#DejaVuSans-72"/>
      <use x="1355.027344" xlink:href="#DejaVuSans-65"/>
      <use x="1416.550781" xlink:href="#DejaVuSans-61"/>
      <use x="1477.830078" xlink:href="#DejaVuSans-20"/>
      <use x="1509.617188" xlink:href="#DejaVuSans-3d"/>
      <use x="1593.40625" xlink:href="#DejaVuSans-20"/>
      <use x="1625.193359" xlink:href="#DejaVuSans-30"/>
      <use x="1688.816406" xlink:href="#DejaVuSans-2e"/>
      <use x="1720.603516" xlink:href="#DejaVuSans-39"/>
      <use x="1784.226562" xlink:href="#DejaVuSans-38"/>
      <use x="1847.849609" xlink:href="#DejaVuSans-29"/>
     </g>
    </g>
   </g>
  </g>
 </g>
 <defs>
  <clipPath id="p8f8b9c82cf">
   <rect height="266.112" width="357.12" x="57.6" y="41.472"/>
  </clipPath>
 </defs>
</svg>
