<?xml version="1.0" encoding="utf-8" standalone="no"?>
<!DOCTYPE svg PUBLIC "-//W3C//DTD SVG 1.1//EN"
  "http://www.w3.org/Graphics/SVG/1.1/DTD/svg11.dtd">
<svg height="345.6pt" version="1.1" viewBox="0 0 460.8 345.6" width="460.8pt" xmlns="http://www.w3.org/2000/svg" xmlns:xlink="http://www.w3.org/1999/xlink">
 <metadata>
  <rdf:RDF xmlns:cc="http://creativecommons.org/ns#" xmlns:dc="http://purl.org/dc/elements/1.1/" xmlns:rdf="http://www.w3.org/1999/02/22-rdf-syntax-ns#">
   <cc:Work>
    <dc:type rdf:resource="http://purl.org/dc/dcmitype/StillImage"/>
    <dc:date>2021-08-12T09:42:30.318204</dc:date>
    <dc:format>image/svg+xml</dc:format>
    <dc:creator>
     <cc:Agent>
      <dc:title>Matplotlib v3.4.2, https://matplotlib.org/</dc:title>
     </cc:Agent>
    </dc:creator>
   </cc:Work>
  </rdf:RDF>
 </metadata>
 <defs>
  <style type="text/css">*{stroke-linecap:butt;stroke-linejoin:round;}</style>
 </defs>
 <g id="figure_1">
  <g id="patch_1">
   <path d="M 0 345.6 
L 460.8 345.6 
L 460.8 0 
L 0 0 
z
" style="fill:#ffffff;"/>
  </g>
  <g id="axes_1">
   <g id="patch_2">
    <path d="M 57.6 307.584 
L 414.72 307.584 
L 414.72 41.472 
L 57.6 41.472 
z
" style="fill:#ffffff;"/>
   </g>
   <g id="matplotlib.axis_1">
    <g id="xtick_1">
     <g id="line2d_1">
      <defs>
       <path d="M 0 0 
L 0 3.5 
" id="m4d3fb432e3" style="stroke:#000000;stroke-width:0.8;"/>
      </defs>
      <g>
       <use style="stroke:#000000;stroke-width:0.8;" x="57.6" xlink:href="#m4d3fb432e3" y="307.584"/>
      </g>
     </g>
     <g id="text_1">
      <!-- 0.0 -->
      <g transform="translate(49.648438 322.182437)scale(0.1 -0.1)">
       <defs>
        <path d="M 2034 4250 
Q 1547 4250 1301 3770 
Q 1056 3291 1056 2328 
Q 1056 1369 1301 889 
Q 1547 409 2034 409 
Q 2525 409 2770 889 
Q 3016 1369 3016 2328 
Q 3016 3291 2770 3770 
Q 2525 4250 2034 4250 
z
M 2034 4750 
Q 2819 4750 3233 4129 
Q 3647 3509 3647 2328 
Q 3647 1150 3233 529 
Q 2819 -91 2034 -91 
Q 1250 -91 836 529 
Q 422 1150 422 2328 
Q 422 3509 836 4129 
Q 1250 4750 2034 4750 
z
" id="DejaVuSans-30" transform="scale(0.015625)"/>
        <path d="M 684 794 
L 1344 794 
L 1344 0 
L 684 0 
L 684 794 
z
" id="DejaVuSans-2e" transform="scale(0.015625)"/>
       </defs>
       <use xlink:href="#DejaVuSans-30"/>
       <use x="63.623047" xlink:href="#DejaVuSans-2e"/>
       <use x="95.410156" xlink:href="#DejaVuSans-30"/>
      </g>
     </g>
    </g>
    <g id="xtick_2">
     <g id="line2d_2">
      <g>
       <use style="stroke:#000000;stroke-width:0.8;" x="129.024" xlink:href="#m4d3fb432e3" y="307.584"/>
      </g>
     </g>
     <g id="text_2">
      <!-- 0.2 -->
      <g transform="translate(121.072438 322.182437)scale(0.1 -0.1)">
       <defs>
        <path d="M 1228 531 
L 3431 531 
L 3431 0 
L 469 0 
L 469 531 
Q 828 903 1448 1529 
Q 2069 2156 2228 2338 
Q 2531 2678 2651 2914 
Q 2772 3150 2772 3378 
Q 2772 3750 2511 3984 
Q 2250 4219 1831 4219 
Q 1534 4219 1204 4116 
Q 875 4013 500 3803 
L 500 4441 
Q 881 4594 1212 4672 
Q 1544 4750 1819 4750 
Q 2544 4750 2975 4387 
Q 3406 4025 3406 3419 
Q 3406 3131 3298 2873 
Q 3191 2616 2906 2266 
Q 2828 2175 2409 1742 
Q 1991 1309 1228 531 
z
" id="DejaVuSans-32" transform="scale(0.015625)"/>
       </defs>
       <use xlink:href="#DejaVuSans-30"/>
       <use x="63.623047" xlink:href="#DejaVuSans-2e"/>
       <use x="95.410156" xlink:href="#DejaVuSans-32"/>
      </g>
     </g>
    </g>
    <g id="xtick_3">
     <g id="line2d_3">
      <g>
       <use style="stroke:#000000;stroke-width:0.8;" x="200.448" xlink:href="#m4d3fb432e3" y="307.584"/>
      </g>
     </g>
     <g id="text_3">
      <!-- 0.4 -->
      <g transform="translate(192.496438 322.182437)scale(0.1 -0.1)">
       <defs>
        <path d="M 2419 4116 
L 825 1625 
L 2419 1625 
L 2419 4116 
z
M 2253 4666 
L 3047 4666 
L 3047 1625 
L 3713 1625 
L 3713 1100 
L 3047 1100 
L 3047 0 
L 2419 0 
L 2419 1100 
L 313 1100 
L 313 1709 
L 2253 4666 
z
" id="DejaVuSans-34" transform="scale(0.015625)"/>
       </defs>
       <use xlink:href="#DejaVuSans-30"/>
       <use x="63.623047" xlink:href="#DejaVuSans-2e"/>
       <use x="95.410156" xlink:href="#DejaVuSans-34"/>
      </g>
     </g>
    </g>
    <g id="xtick_4">
     <g id="line2d_4">
      <g>
       <use style="stroke:#000000;stroke-width:0.8;" x="271.872" xlink:href="#m4d3fb432e3" y="307.584"/>
      </g>
     </g>
     <g id="text_4">
      <!-- 0.6 -->
      <g transform="translate(263.920438 322.182437)scale(0.1 -0.1)">
       <defs>
        <path d="M 2113 2584 
Q 1688 2584 1439 2293 
Q 1191 2003 1191 1497 
Q 1191 994 1439 701 
Q 1688 409 2113 409 
Q 2538 409 2786 701 
Q 3034 994 3034 1497 
Q 3034 2003 2786 2293 
Q 2538 2584 2113 2584 
z
M 3366 4563 
L 3366 3988 
Q 3128 4100 2886 4159 
Q 2644 4219 2406 4219 
Q 1781 4219 1451 3797 
Q 1122 3375 1075 2522 
Q 1259 2794 1537 2939 
Q 1816 3084 2150 3084 
Q 2853 3084 3261 2657 
Q 3669 2231 3669 1497 
Q 3669 778 3244 343 
Q 2819 -91 2113 -91 
Q 1303 -91 875 529 
Q 447 1150 447 2328 
Q 447 3434 972 4092 
Q 1497 4750 2381 4750 
Q 2619 4750 2861 4703 
Q 3103 4656 3366 4563 
z
" id="DejaVuSans-36" transform="scale(0.015625)"/>
       </defs>
       <use xlink:href="#DejaVuSans-30"/>
       <use x="63.623047" xlink:href="#DejaVuSans-2e"/>
       <use x="95.410156" xlink:href="#DejaVuSans-36"/>
      </g>
     </g>
    </g>
    <g id="xtick_5">
     <g id="line2d_5">
      <g>
       <use style="stroke:#000000;stroke-width:0.8;" x="343.296" xlink:href="#m4d3fb432e3" y="307.584"/>
      </g>
     </g>
     <g id="text_5">
      <!-- 0.8 -->
      <g transform="translate(335.344438 322.182437)scale(0.1 -0.1)">
       <defs>
        <path d="M 2034 2216 
Q 1584 2216 1326 1975 
Q 1069 1734 1069 1313 
Q 1069 891 1326 650 
Q 1584 409 2034 409 
Q 2484 409 2743 651 
Q 3003 894 3003 1313 
Q 3003 1734 2745 1975 
Q 2488 2216 2034 2216 
z
M 1403 2484 
Q 997 2584 770 2862 
Q 544 3141 544 3541 
Q 544 4100 942 4425 
Q 1341 4750 2034 4750 
Q 2731 4750 3128 4425 
Q 3525 4100 3525 3541 
Q 3525 3141 3298 2862 
Q 3072 2584 2669 2484 
Q 3125 2378 3379 2068 
Q 3634 1759 3634 1313 
Q 3634 634 3220 271 
Q 2806 -91 2034 -91 
Q 1263 -91 848 271 
Q 434 634 434 1313 
Q 434 1759 690 2068 
Q 947 2378 1403 2484 
z
M 1172 3481 
Q 1172 3119 1398 2916 
Q 1625 2713 2034 2713 
Q 2441 2713 2670 2916 
Q 2900 3119 2900 3481 
Q 2900 3844 2670 4047 
Q 2441 4250 2034 4250 
Q 1625 4250 1398 4047 
Q 1172 3844 1172 3481 
z
" id="DejaVuSans-38" transform="scale(0.015625)"/>
       </defs>
       <use xlink:href="#DejaVuSans-30"/>
       <use x="63.623047" xlink:href="#DejaVuSans-2e"/>
       <use x="95.410156" xlink:href="#DejaVuSans-38"/>
      </g>
     </g>
    </g>
    <g id="xtick_6">
     <g id="line2d_6">
      <g>
       <use style="stroke:#000000;stroke-width:0.8;" x="414.72" xlink:href="#m4d3fb432e3" y="307.584"/>
      </g>
     </g>
     <g id="text_6">
      <!-- 1.0 -->
      <g transform="translate(406.768438 322.182437)scale(0.1 -0.1)">
       <defs>
        <path d="M 794 531 
L 1825 531 
L 1825 4091 
L 703 3866 
L 703 4441 
L 1819 4666 
L 2450 4666 
L 2450 531 
L 3481 531 
L 3481 0 
L 794 0 
L 794 531 
z
" id="DejaVuSans-31" transform="scale(0.015625)"/>
       </defs>
       <use xlink:href="#DejaVuSans-31"/>
       <use x="63.623047" xlink:href="#DejaVuSans-2e"/>
       <use x="95.410156" xlink:href="#DejaVuSans-30"/>
      </g>
     </g>
    </g>
    <g id="text_7">
     <!-- False Positive Rate -->
     <g transform="translate(189.693594 335.860562)scale(0.1 -0.1)">
      <defs>
       <path d="M 628 4666 
L 3309 4666 
L 3309 4134 
L 1259 4134 
L 1259 2759 
L 3109 2759 
L 3109 2228 
L 1259 2228 
L 1259 0 
L 628 0 
L 628 4666 
z
" id="DejaVuSans-46" transform="scale(0.015625)"/>
       <path d="M 2194 1759 
Q 1497 1759 1228 1600 
Q 959 1441 959 1056 
Q 959 750 1161 570 
Q 1363 391 1709 391 
Q 2188 391 2477 730 
Q 2766 1069 2766 1631 
L 2766 1759 
L 2194 1759 
z
M 3341 1997 
L 3341 0 
L 2766 0 
L 2766 531 
Q 2569 213 2275 61 
Q 1981 -91 1556 -91 
Q 1019 -91 701 211 
Q 384 513 384 1019 
Q 384 1609 779 1909 
Q 1175 2209 1959 2209 
L 2766 2209 
L 2766 2266 
Q 2766 2663 2505 2880 
Q 2244 3097 1772 3097 
Q 1472 3097 1187 3025 
Q 903 2953 641 2809 
L 641 3341 
Q 956 3463 1253 3523 
Q 1550 3584 1831 3584 
Q 2591 3584 2966 3190 
Q 3341 2797 3341 1997 
z
" id="DejaVuSans-61" transform="scale(0.015625)"/>
       <path d="M 603 4863 
L 1178 4863 
L 1178 0 
L 603 0 
L 603 4863 
z
" id="DejaVuSans-6c" transform="scale(0.015625)"/>
       <path d="M 2834 3397 
L 2834 2853 
Q 2591 2978 2328 3040 
Q 2066 3103 1784 3103 
Q 1356 3103 1142 2972 
Q 928 2841 928 2578 
Q 928 2378 1081 2264 
Q 1234 2150 1697 2047 
L 1894 2003 
Q 2506 1872 2764 1633 
Q 3022 1394 3022 966 
Q 3022 478 2636 193 
Q 2250 -91 1575 -91 
Q 1294 -91 989 -36 
Q 684 19 347 128 
L 347 722 
Q 666 556 975 473 
Q 1284 391 1588 391 
Q 1994 391 2212 530 
Q 2431 669 2431 922 
Q 2431 1156 2273 1281 
Q 2116 1406 1581 1522 
L 1381 1569 
Q 847 1681 609 1914 
Q 372 2147 372 2553 
Q 372 3047 722 3315 
Q 1072 3584 1716 3584 
Q 2034 3584 2315 3537 
Q 2597 3491 2834 3397 
z
" id="DejaVuSans-73" transform="scale(0.015625)"/>
       <path d="M 3597 1894 
L 3597 1613 
L 953 1613 
Q 991 1019 1311 708 
Q 1631 397 2203 397 
Q 2534 397 2845 478 
Q 3156 559 3463 722 
L 3463 178 
Q 3153 47 2828 -22 
Q 2503 -91 2169 -91 
Q 1331 -91 842 396 
Q 353 884 353 1716 
Q 353 2575 817 3079 
Q 1281 3584 2069 3584 
Q 2775 3584 3186 3129 
Q 3597 2675 3597 1894 
z
M 3022 2063 
Q 3016 2534 2758 2815 
Q 2500 3097 2075 3097 
Q 1594 3097 1305 2825 
Q 1016 2553 972 2059 
L 3022 2063 
z
" id="DejaVuSans-65" transform="scale(0.015625)"/>
       <path id="DejaVuSans-20" transform="scale(0.015625)"/>
       <path d="M 1259 4147 
L 1259 2394 
L 2053 2394 
Q 2494 2394 2734 2622 
Q 2975 2850 2975 3272 
Q 2975 3691 2734 3919 
Q 2494 4147 2053 4147 
L 1259 4147 
z
M 628 4666 
L 2053 4666 
Q 2838 4666 3239 4311 
Q 3641 3956 3641 3272 
Q 3641 2581 3239 2228 
Q 2838 1875 2053 1875 
L 1259 1875 
L 1259 0 
L 628 0 
L 628 4666 
z
" id="DejaVuSans-50" transform="scale(0.015625)"/>
       <path d="M 1959 3097 
Q 1497 3097 1228 2736 
Q 959 2375 959 1747 
Q 959 1119 1226 758 
Q 1494 397 1959 397 
Q 2419 397 2687 759 
Q 2956 1122 2956 1747 
Q 2956 2369 2687 2733 
Q 2419 3097 1959 3097 
z
M 1959 3584 
Q 2709 3584 3137 3096 
Q 3566 2609 3566 1747 
Q 3566 888 3137 398 
Q 2709 -91 1959 -91 
Q 1206 -91 779 398 
Q 353 888 353 1747 
Q 353 2609 779 3096 
Q 1206 3584 1959 3584 
z
" id="DejaVuSans-6f" transform="scale(0.015625)"/>
       <path d="M 603 3500 
L 1178 3500 
L 1178 0 
L 603 0 
L 603 3500 
z
M 603 4863 
L 1178 4863 
L 1178 4134 
L 603 4134 
L 603 4863 
z
" id="DejaVuSans-69" transform="scale(0.015625)"/>
       <path d="M 1172 4494 
L 1172 3500 
L 2356 3500 
L 2356 3053 
L 1172 3053 
L 1172 1153 
Q 1172 725 1289 603 
Q 1406 481 1766 481 
L 2356 481 
L 2356 0 
L 1766 0 
Q 1100 0 847 248 
Q 594 497 594 1153 
L 594 3053 
L 172 3053 
L 172 3500 
L 594 3500 
L 594 4494 
L 1172 4494 
z
" id="DejaVuSans-74" transform="scale(0.015625)"/>
       <path d="M 191 3500 
L 800 3500 
L 1894 563 
L 2988 3500 
L 3597 3500 
L 2284 0 
L 1503 0 
L 191 3500 
z
" id="DejaVuSans-76" transform="scale(0.015625)"/>
       <path d="M 2841 2188 
Q 3044 2119 3236 1894 
Q 3428 1669 3622 1275 
L 4263 0 
L 3584 0 
L 2988 1197 
Q 2756 1666 2539 1819 
Q 2322 1972 1947 1972 
L 1259 1972 
L 1259 0 
L 628 0 
L 628 4666 
L 2053 4666 
Q 2853 4666 3247 4331 
Q 3641 3997 3641 3322 
Q 3641 2881 3436 2590 
Q 3231 2300 2841 2188 
z
M 1259 4147 
L 1259 2491 
L 2053 2491 
Q 2509 2491 2742 2702 
Q 2975 2913 2975 3322 
Q 2975 3731 2742 3939 
Q 2509 4147 2053 4147 
L 1259 4147 
z
" id="DejaVuSans-52" transform="scale(0.015625)"/>
      </defs>
      <use xlink:href="#DejaVuSans-46"/>
      <use x="48.394531" xlink:href="#DejaVuSans-61"/>
      <use x="109.673828" xlink:href="#DejaVuSans-6c"/>
      <use x="137.457031" xlink:href="#DejaVuSans-73"/>
      <use x="189.556641" xlink:href="#DejaVuSans-65"/>
      <use x="251.080078" xlink:href="#DejaVuSans-20"/>
      <use x="282.867188" xlink:href="#DejaVuSans-50"/>
      <use x="339.544922" xlink:href="#DejaVuSans-6f"/>
      <use x="400.726562" xlink:href="#DejaVuSans-73"/>
      <use x="452.826172" xlink:href="#DejaVuSans-69"/>
      <use x="480.609375" xlink:href="#DejaVuSans-74"/>
      <use x="519.818359" xlink:href="#DejaVuSans-69"/>
      <use x="547.601562" xlink:href="#DejaVuSans-76"/>
      <use x="606.78125" xlink:href="#DejaVuSans-65"/>
      <use x="668.304688" xlink:href="#DejaVuSans-20"/>
      <use x="700.091797" xlink:href="#DejaVuSans-52"/>
      <use x="767.324219" xlink:href="#DejaVuSans-61"/>
      <use x="828.603516" xlink:href="#DejaVuSans-74"/>
      <use x="867.8125" xlink:href="#DejaVuSans-65"/>
     </g>
    </g>
   </g>
   <g id="matplotlib.axis_2">
    <g id="ytick_1">
     <g id="line2d_7">
      <defs>
       <path d="M 0 0 
L -3.5 0 
" id="m9f757acfee" style="stroke:#000000;stroke-width:0.8;"/>
      </defs>
      <g>
       <use style="stroke:#000000;stroke-width:0.8;" x="57.6" xlink:href="#m9f757acfee" y="307.584"/>
      </g>
     </g>
     <g id="text_8">
      <!-- 0.0 -->
      <g transform="translate(34.696875 311.383219)scale(0.1 -0.1)">
       <use xlink:href="#DejaVuSans-30"/>
       <use x="63.623047" xlink:href="#DejaVuSans-2e"/>
       <use x="95.410156" xlink:href="#DejaVuSans-30"/>
      </g>
     </g>
    </g>
    <g id="ytick_2">
     <g id="line2d_8">
      <g>
       <use style="stroke:#000000;stroke-width:0.8;" x="57.6" xlink:href="#m9f757acfee" y="256.896"/>
      </g>
     </g>
     <g id="text_9">
      <!-- 0.2 -->
      <g transform="translate(34.696875 260.695219)scale(0.1 -0.1)">
       <use xlink:href="#DejaVuSans-30"/>
       <use x="63.623047" xlink:href="#DejaVuSans-2e"/>
       <use x="95.410156" xlink:href="#DejaVuSans-32"/>
      </g>
     </g>
    </g>
    <g id="ytick_3">
     <g id="line2d_9">
      <g>
       <use style="stroke:#000000;stroke-width:0.8;" x="57.6" xlink:href="#m9f757acfee" y="206.208"/>
      </g>
     </g>
     <g id="text_10">
      <!-- 0.4 -->
      <g transform="translate(34.696875 210.007219)scale(0.1 -0.1)">
       <use xlink:href="#DejaVuSans-30"/>
       <use x="63.623047" xlink:href="#DejaVuSans-2e"/>
       <use x="95.410156" xlink:href="#DejaVuSans-34"/>
      </g>
     </g>
    </g>
    <g id="ytick_4">
     <g id="line2d_10">
      <g>
       <use style="stroke:#000000;stroke-width:0.8;" x="57.6" xlink:href="#m9f757acfee" y="155.52"/>
      </g>
     </g>
     <g id="text_11">
      <!-- 0.6 -->
      <g transform="translate(34.696875 159.319219)scale(0.1 -0.1)">
       <use xlink:href="#DejaVuSans-30"/>
       <use x="63.623047" xlink:href="#DejaVuSans-2e"/>
       <use x="95.410156" xlink:href="#DejaVuSans-36"/>
      </g>
     </g>
    </g>
    <g id="ytick_5">
     <g id="line2d_11">
      <g>
       <use style="stroke:#000000;stroke-width:0.8;" x="57.6" xlink:href="#m9f757acfee" y="104.832"/>
      </g>
     </g>
     <g id="text_12">
      <!-- 0.8 -->
      <g transform="translate(34.696875 108.631219)scale(0.1 -0.1)">
       <use xlink:href="#DejaVuSans-30"/>
       <use x="63.623047" xlink:href="#DejaVuSans-2e"/>
       <use x="95.410156" xlink:href="#DejaVuSans-38"/>
      </g>
     </g>
    </g>
    <g id="ytick_6">
     <g id="line2d_12">
      <g>
       <use style="stroke:#000000;stroke-width:0.8;" x="57.6" xlink:href="#m9f757acfee" y="54.144"/>
      </g>
     </g>
     <g id="text_13">
      <!-- 1.0 -->
      <g transform="translate(34.696875 57.943219)scale(0.1 -0.1)">
       <use xlink:href="#DejaVuSans-31"/>
       <use x="63.623047" xlink:href="#DejaVuSans-2e"/>
       <use x="95.410156" xlink:href="#DejaVuSans-30"/>
      </g>
     </g>
    </g>
    <g id="text_14">
     <!-- True Positive Rate -->
     <g transform="translate(28.617187 219.057687)rotate(-90)scale(0.1 -0.1)">
      <defs>
       <path d="M -19 4666 
L 3928 4666 
L 3928 4134 
L 2272 4134 
L 2272 0 
L 1638 0 
L 1638 4134 
L -19 4134 
L -19 4666 
z
" id="DejaVuSans-54" transform="scale(0.015625)"/>
       <path d="M 2631 2963 
Q 2534 3019 2420 3045 
Q 2306 3072 2169 3072 
Q 1681 3072 1420 2755 
Q 1159 2438 1159 1844 
L 1159 0 
L 581 0 
L 581 3500 
L 1159 3500 
L 1159 2956 
Q 1341 3275 1631 3429 
Q 1922 3584 2338 3584 
Q 2397 3584 2469 3576 
Q 2541 3569 2628 3553 
L 2631 2963 
z
" id="DejaVuSans-72" transform="scale(0.015625)"/>
       <path d="M 544 1381 
L 544 3500 
L 1119 3500 
L 1119 1403 
Q 1119 906 1312 657 
Q 1506 409 1894 409 
Q 2359 409 2629 706 
Q 2900 1003 2900 1516 
L 2900 3500 
L 3475 3500 
L 3475 0 
L 2900 0 
L 2900 538 
Q 2691 219 2414 64 
Q 2138 -91 1772 -91 
Q 1169 -91 856 284 
Q 544 659 544 1381 
z
M 1991 3584 
L 1991 3584 
z
" id="DejaVuSans-75" transform="scale(0.015625)"/>
      </defs>
      <use xlink:href="#DejaVuSans-54"/>
      <use x="46.333984" xlink:href="#DejaVuSans-72"/>
      <use x="87.447266" xlink:href="#DejaVuSans-75"/>
      <use x="150.826172" xlink:href="#DejaVuSans-65"/>
      <use x="212.349609" xlink:href="#DejaVuSans-20"/>
      <use x="244.136719" xlink:href="#DejaVuSans-50"/>
      <use x="300.814453" xlink:href="#DejaVuSans-6f"/>
      <use x="361.996094" xlink:href="#DejaVuSans-73"/>
      <use x="414.095703" xlink:href="#DejaVuSans-69"/>
      <use x="441.878906" xlink:href="#DejaVuSans-74"/>
      <use x="481.087891" xlink:href="#DejaVuSans-69"/>
      <use x="508.871094" xlink:href="#DejaVuSans-76"/>
      <use x="568.050781" xlink:href="#DejaVuSans-65"/>
      <use x="629.574219" xlink:href="#DejaVuSans-20"/>
      <use x="661.361328" xlink:href="#DejaVuSans-52"/>
      <use x="728.59375" xlink:href="#DejaVuSans-61"/>
      <use x="789.873047" xlink:href="#DejaVuSans-74"/>
      <use x="829.082031" xlink:href="#DejaVuSans-65"/>
     </g>
    </g>
   </g>
   <g id="line2d_13">
    <path clip-path="url(#p0405a7f9af)" d="M 57.6 307.584 
L 57.65587 176.819745 
L 57.71174 176.819745 
L 57.76761 173.727079 
L 57.823479 173.727079 
L 57.879349 168.334738 
L 57.935219 168.334738 
L 57.991089 155.329682 
L 58.102829 155.329682 
L 58.158698 153.585101 
L 58.214568 153.585101 
L 58.270438 148.034163 
L 58.326308 148.034163 
L 58.382178 145.179394 
L 58.438048 145.179394 
L 58.493917 143.434814 
L 58.549787 143.434814 
L 58.549787 141.92813 
L 58.661527 141.92813 
L 58.717397 139.073362 
L 58.773267 139.073362 
L 58.829136 133.205227 
L 58.885006 133.205227 
L 58.940876 129.24027 
L 58.996746 129.24027 
L 59.052616 128.209382 
L 59.108486 128.209382 
L 59.164355 121.706854 
L 59.220225 121.706854 
L 59.276095 119.724375 
L 59.331965 119.724375 
L 59.387835 118.37629 
L 59.443705 118.37629 
L 59.499574 117.821196 
L 59.555444 117.821196 
L 59.555444 117.424701 
L 59.667184 117.424701 
L 59.723054 115.918018 
L 59.778924 115.918018 
L 59.834793 112.428856 
L 59.890663 112.428856 
L 59.946533 111.556566 
L 60.002403 111.556566 
L 60.058273 110.763574 
L 60.114143 110.763574 
L 60.170013 109.018994 
L 60.225882 109.018994 
L 60.281752 106.164225 
L 60.337622 106.164225 
L 60.393492 105.212636 
L 60.449362 105.212636 
L 60.505232 104.736841 
L 60.616971 104.657542 
L 60.616971 104.102448 
L 60.784581 104.102448 
L 60.840451 103.785252 
L 60.89632 103.785252 
L 60.95219 102.11997 
L 61.00806 102.11997 
L 61.06393 101.723474 
L 61.17567 101.644175 
L 61.231539 100.851184 
L 61.287409 100.851184 
L 61.287409 100.692586 
L 61.399149 100.692586 
L 61.455019 99.661697 
L 61.510889 99.661697 
L 61.566758 98.630809 
L 61.678498 98.551509 
L 61.734368 97.124125 
L 61.957847 97.044826 
L 62.013717 96.013937 
L 62.125457 96.013937 
L 62.181327 95.617442 
L 62.237196 95.617442 
L 62.293066 94.90375 
L 62.348936 94.90375 
L 62.404806 93.714263 
L 62.460676 93.714263 
L 62.516546 92.841972 
L 62.628285 92.762673 
L 62.684155 91.573186 
L 62.740025 91.573186 
L 62.795895 90.780195 
L 62.963504 90.780195 
L 63.019374 89.907905 
L 63.075244 89.907905 
L 63.075244 89.670008 
L 63.186984 89.670008 
L 63.242854 88.718418 
L 63.298723 88.718418 
L 63.354593 88.084025 
L 63.410463 88.084025 
L 63.410463 87.687529 
L 63.578073 87.687529 
L 63.578073 87.370333 
L 63.801552 87.291034 
L 63.857422 86.973837 
L 64.025031 86.973837 
L 64.080901 86.73594 
L 64.192641 86.656641 
L 64.192641 86.498043 
L 64.36025 86.418743 
L 64.41612 85.942949 
L 64.47199 85.942949 
L 64.47199 85.625752 
L 64.639599 85.546453 
L 64.695469 85.149957 
L 64.751339 85.149957 
L 64.807209 84.832761 
L 65.030688 84.753462 
L 65.086558 84.277667 
L 65.198298 84.277667 
L 65.198298 84.119069 
L 65.310038 84.119069 
L 65.310038 83.960471 
L 65.421777 83.960471 
L 65.477647 83.643274 
L 65.533517 83.643274 
L 65.533517 83.484676 
L 65.868736 83.405377 
L 65.924606 83.008881 
L 65.980476 83.008881 
L 66.036345 82.691685 
L 66.092215 82.691685 
L 66.092215 82.136591 
L 66.259825 82.057292 
L 66.315695 81.898693 
L 66.371564 81.898693 
L 66.427434 81.581497 
L 66.762653 81.502198 
L 66.818523 81.105702 
L 66.930263 81.105702 
L 66.930263 80.947104 
L 67.153742 80.867805 
L 67.153742 80.788506 
L 67.265482 80.788506 
L 67.265482 80.629907 
L 67.656571 80.550608 
L 67.712441 80.39201 
L 67.93592 80.312711 
L 67.99179 79.678318 
L 68.103529 79.599019 
L 68.103529 79.361121 
L 68.382879 79.361121 
L 68.438748 78.964626 
L 68.550488 78.885327 
L 68.606358 78.726728 
L 68.662228 78.726728 
L 68.662228 78.488831 
L 69.220926 78.409532 
L 69.276796 78.092335 
L 69.388536 78.092335 
L 69.444406 77.69584 
L 69.612015 77.616541 
L 69.667885 77.378643 
L 69.723755 77.378643 
L 69.779625 77.140746 
L 70.226583 77.061447 
L 70.282453 76.74425 
L 70.505932 76.74425 
L 70.561802 76.427054 
L 70.617672 76.427054 
L 70.617672 76.268456 
L 70.729412 76.268456 
L 70.729412 76.109857 
L 71.064631 76.030558 
L 71.120501 75.792661 
L 71.17637 75.792661 
L 71.23224 75.316866 
L 71.39985 75.237567 
L 71.39985 75.078969 
L 71.511589 75.078969 
L 71.567459 74.523875 
L 71.958548 74.444576 
L 72.014418 74.285977 
L 72.237897 74.206678 
L 72.237897 74.127379 
L 72.461377 74.04808 
L 72.517247 73.572285 
L 72.628986 73.572285 
L 72.628986 73.334388 
L 72.908335 73.255089 
L 72.908335 73.17579 
L 73.020075 73.17579 
L 73.020075 72.937892 
L 73.131815 72.937892 
L 73.131815 72.779294 
L 73.299424 72.699995 
L 73.299424 72.541397 
L 73.411164 72.541397 
L 73.411164 72.303499 
L 73.913992 72.2242 
L 73.913992 72.144901 
L 74.081602 72.144901 
L 74.081602 71.907004 
L 74.584431 71.827705 
L 74.584431 71.669106 
L 74.75204 71.669106 
L 74.75204 71.510508 
L 75.087259 71.431209 
L 75.087259 71.272611 
L 75.198999 71.272611 
L 75.254869 70.638218 
L 75.422478 70.638218 
L 75.422478 70.241722 
L 75.645957 70.241722 
L 75.645957 69.845227 
L 75.925307 69.765927 
L 75.981176 69.607329 
L 76.148786 69.607329 
L 76.148786 69.369432 
L 76.372265 69.290133 
L 76.372265 69.210834 
L 76.763354 69.131534 
L 76.763354 68.814338 
L 76.930964 68.814338 
L 76.930964 68.576441 
L 77.266183 68.497141 
L 77.266183 68.179945 
L 77.377922 68.179945 
L 77.377922 67.942048 
L 77.489662 67.942048 
L 77.545532 67.70415 
L 77.601402 67.70415 
L 77.657272 67.466253 
L 77.824881 67.386954 
L 77.880751 67.228355 
L 78.1601 67.149056 
L 78.1601 67.069757 
L 78.551189 66.990458 
L 78.551189 66.911159 
L 78.774668 66.911159 
L 78.774668 66.752561 
L 79.054018 66.673262 
L 79.054018 66.435364 
L 79.445106 66.356065 
L 79.445106 66.276766 
L 79.668586 66.197467 
L 79.724456 65.88027 
L 79.892065 65.88027 
L 79.892065 65.721672 
L 80.059675 65.642373 
L 80.059675 65.563074 
L 80.171414 65.563074 
L 80.227284 65.325176 
L 80.674243 65.245877 
L 80.674243 65.166578 
L 81.009462 65.087279 
L 81.009462 65.00798 
L 81.288811 64.928681 
L 81.288811 64.849382 
L 81.56816 64.770083 
L 81.56816 64.611484 
L 82.126859 64.532185 
L 82.126859 64.452886 
L 82.517947 64.373587 
L 82.573817 64.214989 
L 83.802954 64.13569 
L 83.802954 64.05639 
L 84.194043 63.977091 
L 84.249912 63.818493 
L 84.92035 63.739194 
L 84.92035 63.580596 
L 85.14383 63.501297 
L 85.14383 63.421997 
L 86.037747 63.342698 
L 86.037747 63.263399 
L 86.484706 63.1841 
L 86.540576 62.946203 
L 86.875795 62.866904 
L 86.875795 62.787605 
L 87.490363 62.787605 
L 87.490363 62.629006 
L 88.049061 62.549707 
L 88.049061 62.391109 
L 88.44015 62.31181 
L 88.44015 62.153212 
L 89.836896 62.073912 
L 89.836896 61.994613 
L 90.339725 61.915314 
L 90.339725 61.836015 
L 90.954293 61.756716 
L 91.010163 61.598118 
L 91.401252 61.518819 
L 91.401252 61.439519 
L 91.680601 61.439519 
L 91.680601 61.280921 
L 92.295169 61.201622 
L 92.295169 61.122323 
L 93.244956 61.043024 
L 93.244956 60.963725 
L 93.691915 60.963725 
L 93.691915 60.805126 
L 93.915394 60.725827 
L 93.971264 60.567229 
L 94.362353 60.48793 
L 94.418223 60.170733 
L 95.31214 60.091434 
L 95.31214 60.012135 
L 95.647359 59.932836 
L 95.647359 59.853537 
L 95.870839 59.853537 
L 95.926708 59.61564 
L 95.982578 59.61564 
L 95.982578 59.457041 
L 96.764756 59.457041 
L 96.764756 59.298443 
L 97.267584 59.219144 
L 97.267584 59.139845 
L 97.546934 59.060546 
L 97.546934 58.981247 
L 98.94368 58.901947 
L 98.94368 58.822648 
L 99.949337 58.743349 
L 100.005207 58.584751 
L 100.396295 58.505452 
L 100.396295 58.426153 
L 102.519349 58.346854 
L 102.519349 58.267554 
L 104.586533 58.188255 
L 104.586533 58.108956 
L 105.089362 58.029657 
L 105.089362 57.950358 
L 105.53632 57.871059 
L 105.53632 57.79176 
L 106.095019 57.712461 
L 106.095019 57.633161 
L 106.430238 57.553862 
L 106.430238 57.474563 
L 107.771114 57.395264 
L 107.771114 57.315965 
L 110.843955 57.236666 
L 110.843955 57.157367 
L 113.469837 57.078068 
L 113.469837 56.998768 
L 113.749186 56.919469 
L 113.749186 56.84017 
L 120.844656 56.760871 
L 120.844656 56.681572 
L 126.43164 56.602273 
L 126.43164 56.522974 
L 129.225131 56.443675 
L 129.225131 56.364375 
L 130.454268 56.285076 
L 130.454268 56.205777 
L 130.621877 56.126478 
L 130.621877 56.047179 
L 134.421026 55.96788 
L 134.421026 55.888581 
L 137.437997 55.809282 
L 137.437997 55.729982 
L 138.667134 55.650683 
L 138.667134 55.571384 
L 139.505181 55.492085 
L 139.561051 55.333487 
L 153.472641 55.254188 
L 153.472641 55.174889 
L 155.204606 55.095589 
L 155.204606 55.01629 
L 158.165707 54.936991 
L 158.165707 54.778393 
L 179.899074 54.699094 
L 179.899074 54.619795 
L 213.476846 54.540496 
L 213.476846 54.461196 
L 224.762553 54.381897 
L 224.762553 54.302598 
L 262.754043 54.223299 
L 262.754043 54.144 
L 414.72 54.144 
L 414.72 54.144 
" style="fill:none;stroke:#ff1493;stroke-dasharray:4,6.6;stroke-dashoffset:0;stroke-width:4;"/>
   </g>
   <g id="line2d_14">
    <path clip-path="url(#p0405a7f9af)" d="M 57.6 215.01242 
L 57.960606 172.339199 
L 58.080808 166.69459 
L 58.197191 166.169217 
L 58.294111 161.089068 
L 58.346488 159.76793 
L 58.80202 141.270183 
L 58.943679 140.009287 
L 59.092977 137.136294 
L 59.162625 136.009894 
L 59.403029 128.648637 
L 59.690167 126.517353 
L 60.124241 125.245236 
L 60.244443 124.074005 
L 60.585953 121.832457 
L 60.725251 120.755265 
L 60.735251 120.334966 
L 61.033846 120.019742 
L 61.183144 118.62398 
L 61.332441 118.413831 
L 61.446462 117.453593 
L 61.566664 115.607081 
L 61.686866 115.231615 
L 62.11172 111.296993 
L 62.287876 109.41966 
L 62.377525 109.104436 
L 62.526823 107.616323 
L 63.009088 105.63579 
L 63.721204 102.777331 
L 64.019799 102.372258 
L 64.090905 101.996791 
L 64.318395 100.073814 
L 64.451511 99.698347 
L 64.541108 98.732262 
L 64.915585 97.807662 
L 65.214181 97.492439 
L 65.363478 96.933928 
L 65.929329 96.441507 
L 66.014137 95.750816 
L 66.615146 94.958397 
L 66.62344 94.802458 
L 66.856455 94.321916 
L 67.15505 92.836305 
L 67.304348 92.73123 
L 67.453645 91.719283 
L 67.752241 91.121788 
L 68.011662 90.860774 
L 68.050836 90.755699 
L 68.05757 90.004766 
L 68.705773 89.290316 
L 69.09592 88.639455 
L 69.394515 88.53438 
L 69.399883 88.300471 
L 69.842408 87.60728 
L 70.141003 87.424235 
L 70.290301 87.319161 
L 71.036789 85.485373 
L 71.423225 84.539516 
L 71.482216 84.305607 
L 71.63398 84.200533 
L 71.783278 83.719992 
L 71.829271 83.525068 
L 72.380468 82.279398 
L 72.679064 82.174323 
L 73.564548 81.037073 
L 73.724147 80.931999 
L 73.911603 79.989673 
L 74.321338 79.779523 
L 74.470635 79.298982 
L 74.619933 79.115938 
L 74.769231 78.695639 
L 76.340991 77.58884 
L 76.688047 77.261737 
L 77.157993 77.051588 
L 77.382157 76.739709 
L 77.456589 76.004187 
L 78.053779 75.478814 
L 78.076268 75.20592 
L 79.696054 74.407654 
L 80.143946 74.15852 
L 80.158601 74.08055 
L 80.852711 73.792432 
L 80.890435 73.687357 
L 81.199767 73.492433 
L 81.893878 73.231419 
L 81.935518 73.126345 
L 82.240933 73.00939 
L 82.587988 72.516969 
L 82.831304 72.30682 
L 83.279197 72.096671 
L 83.629155 71.47207 
L 83.72709 71.261921 
L 83.97621 71.144967 
L 84.174983 70.559351 
L 85.518662 69.229678 
L 86.405598 68.824605 
L 87.758127 68.680546 
L 89.182041 68.341563 
L 89.400401 68.236488 
L 91.490569 67.831415 
L 91.639866 67.72634 
L 93.693761 67.333147 
L 93.730033 67.228072 
L 95.776093 66.889089 
L 96.865284 66.53488 
L 97.51137 66.495896 
L 98.205481 66.246762 
L 98.552536 66.063717 
L 98.656856 65.958643 
L 98.899592 65.919658 
L 98.949472 65.544191 
L 99.403344 65.439117 
L 100.287813 64.946696 
L 100.634869 64.868726 
L 100.981924 64.580607 
L 101.941405 64.100066 
L 102.194924 63.349133 
L 102.389298 63.244058 
L 103.434381 63.061014 
L 103.583679 62.955939 
L 104.105423 62.838985 
L 104.927358 62.694926 
L 105.493644 62.550866 
L 106.868227 62.445792 
L 106.881866 62.328837 
L 110.005364 61.518691 
L 111.79505 61.269557 
L 112.781808 61.047528 
L 113.73592 60.837379 
L 113.822974 60.68144 
L 115.975385 59.988248 
L 117.640583 59.832309 
L 120.069971 59.5984 
L 120.465621 59.222933 
L 122.693779 58.973799 
L 128.052245 58.856845 
L 132.91102 58.634816 
L 133.592508 58.529742 
L 134.993353 58.451772 
L 138.463907 58.334818 
L 140.161605 58.124668 
L 140.659549 57.749202 
L 141.934461 57.566158 
L 142.281516 57.527173 
L 146.793236 57.383113 
L 147.029298 57.278039 
L 147.834402 57.239054 
L 148.833282 56.488121 
L 150.612441 56.344061 
L 151.209632 56.238987 
L 155.816676 55.806808 
L 156.163732 55.728839 
L 157.204898 55.650869 
L 163.79895 55.49493 
L 169.748421 55.119464 
L 187.787559 54.897435 
L 191.504975 54.521968 
L 268.609679 54.144 
L 414.72 54.144 
L 414.72 54.144 
" style="fill:none;stroke:#000080;stroke-dasharray:4,6.6;stroke-dashoffset:0;stroke-width:4;"/>
   </g>
   <g id="line2d_15">
    <path clip-path="url(#p0405a7f9af)" d="M 57.6 307.584 
L 414.72 54.144 
" style="fill:none;stroke:#000000;stroke-dasharray:7.4,3.2;stroke-dashoffset:0;stroke-width:2;"/>
   </g>
   <g id="patch_3">
    <path d="M 57.6 307.584 
L 57.6 41.472 
" style="fill:none;stroke:#000000;stroke-linecap:square;stroke-linejoin:miter;stroke-width:0.8;"/>
   </g>
   <g id="patch_4">
    <path d="M 414.72 307.584 
L 414.72 41.472 
" style="fill:none;stroke:#000000;stroke-linecap:square;stroke-linejoin:miter;stroke-width:0.8;"/>
   </g>
   <g id="patch_5">
    <path d="M 57.6 307.584 
L 414.72 307.584 
" style="fill:none;stroke:#000000;stroke-linecap:square;stroke-linejoin:miter;stroke-width:0.8;"/>
   </g>
   <g id="patch_6">
    <path d="M 57.6 41.472 
L 414.72 41.472 
" style="fill:none;stroke:#000000;stroke-linecap:square;stroke-linejoin:miter;stroke-width:0.8;"/>
   </g>
   <g id="text_15">
    <!-- Overall ROC Curves -->
    <g transform="translate(176.993437 35.472)scale(0.12 -0.12)">
     <defs>
      <path d="M 2522 4238 
Q 1834 4238 1429 3725 
Q 1025 3213 1025 2328 
Q 1025 1447 1429 934 
Q 1834 422 2522 422 
Q 3209 422 3611 934 
Q 4013 1447 4013 2328 
Q 4013 3213 3611 3725 
Q 3209 4238 2522 4238 
z
M 2522 4750 
Q 3503 4750 4090 4092 
Q 4678 3434 4678 2328 
Q 4678 1225 4090 567 
Q 3503 -91 2522 -91 
Q 1538 -91 948 565 
Q 359 1222 359 2328 
Q 359 3434 948 4092 
Q 1538 4750 2522 4750 
z
" id="DejaVuSans-4f" transform="scale(0.015625)"/>
      <path d="M 4122 4306 
L 4122 3641 
Q 3803 3938 3442 4084 
Q 3081 4231 2675 4231 
Q 1875 4231 1450 3742 
Q 1025 3253 1025 2328 
Q 1025 1406 1450 917 
Q 1875 428 2675 428 
Q 3081 428 3442 575 
Q 3803 722 4122 1019 
L 4122 359 
Q 3791 134 3420 21 
Q 3050 -91 2638 -91 
Q 1578 -91 968 557 
Q 359 1206 359 2328 
Q 359 3453 968 4101 
Q 1578 4750 2638 4750 
Q 3056 4750 3426 4639 
Q 3797 4528 4122 4306 
z
" id="DejaVuSans-43" transform="scale(0.015625)"/>
     </defs>
     <use xlink:href="#DejaVuSans-4f"/>
     <use x="78.710938" xlink:href="#DejaVuSans-76"/>
     <use x="137.890625" xlink:href="#DejaVuSans-65"/>
     <use x="199.414062" xlink:href="#DejaVuSans-72"/>
     <use x="240.527344" xlink:href="#DejaVuSans-61"/>
     <use x="301.806641" xlink:href="#DejaVuSans-6c"/>
     <use x="329.589844" xlink:href="#DejaVuSans-6c"/>
     <use x="357.373047" xlink:href="#DejaVuSans-20"/>
     <use x="389.160156" xlink:href="#DejaVuSans-52"/>
     <use x="458.642578" xlink:href="#DejaVuSans-4f"/>
     <use x="537.353516" xlink:href="#DejaVuSans-43"/>
     <use x="607.177734" xlink:href="#DejaVuSans-20"/>
     <use x="638.964844" xlink:href="#DejaVuSans-43"/>
     <use x="708.789062" xlink:href="#DejaVuSans-75"/>
     <use x="772.167969" xlink:href="#DejaVuSans-72"/>
     <use x="813.28125" xlink:href="#DejaVuSans-76"/>
     <use x="872.460938" xlink:href="#DejaVuSans-65"/>
     <use x="933.984375" xlink:href="#DejaVuSans-73"/>
    </g>
   </g>
   <g id="legend_1">
    <g id="patch_7">
     <path d="M 173.155937 302.584 
L 407.72 302.584 
Q 409.72 302.584 409.72 300.584 
L 409.72 272.22775 
Q 409.72 270.22775 407.72 270.22775 
L 173.155937 270.22775 
Q 171.155937 270.22775 171.155937 272.22775 
L 171.155937 300.584 
Q 171.155937 302.584 173.155937 302.584 
z
" style="fill:#ffffff;opacity:0.8;stroke:#cccccc;stroke-linejoin:miter;"/>
    </g>
    <g id="line2d_16">
     <path d="M 175.155937 278.326187 
L 195.155937 278.326187 
" style="fill:none;stroke:#ff1493;stroke-dasharray:4,6.6;stroke-dashoffset:0;stroke-width:4;"/>
    </g>
    <g id="line2d_17"/>
    <g id="text_16">
     <!-- micro-average ROC curve (area = 0.99) -->
     <g transform="translate(203.155937 281.826187)scale(0.1 -0.1)">
      <defs>
       <path d="M 3328 2828 
Q 3544 3216 3844 3400 
Q 4144 3584 4550 3584 
Q 5097 3584 5394 3201 
Q 5691 2819 5691 2113 
L 5691 0 
L 5113 0 
L 5113 2094 
Q 5113 2597 4934 2840 
Q 4756 3084 4391 3084 
Q 3944 3084 3684 2787 
Q 3425 2491 3425 1978 
L 3425 0 
L 2847 0 
L 2847 2094 
Q 2847 2600 2669 2842 
Q 2491 3084 2119 3084 
Q 1678 3084 1418 2786 
Q 1159 2488 1159 1978 
L 1159 0 
L 581 0 
L 581 3500 
L 1159 3500 
L 1159 2956 
Q 1356 3278 1631 3431 
Q 1906 3584 2284 3584 
Q 2666 3584 2933 3390 
Q 3200 3197 3328 2828 
z
" id="DejaVuSans-6d" transform="scale(0.015625)"/>
       <path d="M 3122 3366 
L 3122 2828 
Q 2878 2963 2633 3030 
Q 2388 3097 2138 3097 
Q 1578 3097 1268 2742 
Q 959 2388 959 1747 
Q 959 1106 1268 751 
Q 1578 397 2138 397 
Q 2388 397 2633 464 
Q 2878 531 3122 666 
L 3122 134 
Q 2881 22 2623 -34 
Q 2366 -91 2075 -91 
Q 1284 -91 818 406 
Q 353 903 353 1747 
Q 353 2603 823 3093 
Q 1294 3584 2113 3584 
Q 2378 3584 2631 3529 
Q 2884 3475 3122 3366 
z
" id="DejaVuSans-63" transform="scale(0.015625)"/>
       <path d="M 313 2009 
L 1997 2009 
L 1997 1497 
L 313 1497 
L 313 2009 
z
" id="DejaVuSans-2d" transform="scale(0.015625)"/>
       <path d="M 2906 1791 
Q 2906 2416 2648 2759 
Q 2391 3103 1925 3103 
Q 1463 3103 1205 2759 
Q 947 2416 947 1791 
Q 947 1169 1205 825 
Q 1463 481 1925 481 
Q 2391 481 2648 825 
Q 2906 1169 2906 1791 
z
M 3481 434 
Q 3481 -459 3084 -895 
Q 2688 -1331 1869 -1331 
Q 1566 -1331 1297 -1286 
Q 1028 -1241 775 -1147 
L 775 -588 
Q 1028 -725 1275 -790 
Q 1522 -856 1778 -856 
Q 2344 -856 2625 -561 
Q 2906 -266 2906 331 
L 2906 616 
Q 2728 306 2450 153 
Q 2172 0 1784 0 
Q 1141 0 747 490 
Q 353 981 353 1791 
Q 353 2603 747 3093 
Q 1141 3584 1784 3584 
Q 2172 3584 2450 3431 
Q 2728 3278 2906 2969 
L 2906 3500 
L 3481 3500 
L 3481 434 
z
" id="DejaVuSans-67" transform="scale(0.015625)"/>
       <path d="M 1984 4856 
Q 1566 4138 1362 3434 
Q 1159 2731 1159 2009 
Q 1159 1288 1364 580 
Q 1569 -128 1984 -844 
L 1484 -844 
Q 1016 -109 783 600 
Q 550 1309 550 2009 
Q 550 2706 781 3412 
Q 1013 4119 1484 4856 
L 1984 4856 
z
" id="DejaVuSans-28" transform="scale(0.015625)"/>
       <path d="M 678 2906 
L 4684 2906 
L 4684 2381 
L 678 2381 
L 678 2906 
z
M 678 1631 
L 4684 1631 
L 4684 1100 
L 678 1100 
L 678 1631 
z
" id="DejaVuSans-3d" transform="scale(0.015625)"/>
       <path d="M 703 97 
L 703 672 
Q 941 559 1184 500 
Q 1428 441 1663 441 
Q 2288 441 2617 861 
Q 2947 1281 2994 2138 
Q 2813 1869 2534 1725 
Q 2256 1581 1919 1581 
Q 1219 1581 811 2004 
Q 403 2428 403 3163 
Q 403 3881 828 4315 
Q 1253 4750 1959 4750 
Q 2769 4750 3195 4129 
Q 3622 3509 3622 2328 
Q 3622 1225 3098 567 
Q 2575 -91 1691 -91 
Q 1453 -91 1209 -44 
Q 966 3 703 97 
z
M 1959 2075 
Q 2384 2075 2632 2365 
Q 2881 2656 2881 3163 
Q 2881 3666 2632 3958 
Q 2384 4250 1959 4250 
Q 1534 4250 1286 3958 
Q 1038 3666 1038 3163 
Q 1038 2656 1286 2365 
Q 1534 2075 1959 2075 
z
" id="DejaVuSans-39" transform="scale(0.015625)"/>
       <path d="M 513 4856 
L 1013 4856 
Q 1481 4119 1714 3412 
Q 1947 2706 1947 2009 
Q 1947 1309 1714 600 
Q 1481 -109 1013 -844 
L 513 -844 
Q 928 -128 1133 580 
Q 1338 1288 1338 2009 
Q 1338 2731 1133 3434 
Q 928 4138 513 4856 
z
" id="DejaVuSans-29" transform="scale(0.015625)"/>
      </defs>
      <use xlink:href="#DejaVuSans-6d"/>
      <use x="97.412109" xlink:href="#DejaVuSans-69"/>
      <use x="125.195312" xlink:href="#DejaVuSans-63"/>
      <use x="180.175781" xlink:href="#DejaVuSans-72"/>
      <use x="219.039062" xlink:href="#DejaVuSans-6f"/>
      <use x="282.095703" xlink:href="#DejaVuSans-2d"/>
      <use x="318.179688" xlink:href="#DejaVuSans-61"/>
      <use x="379.458984" xlink:href="#DejaVuSans-76"/>
      <use x="438.638672" xlink:href="#DejaVuSans-65"/>
      <use x="500.162109" xlink:href="#DejaVuSans-72"/>
      <use x="541.275391" xlink:href="#DejaVuSans-61"/>
      <use x="602.554688" xlink:href="#DejaVuSans-67"/>
      <use x="666.03125" xlink:href="#DejaVuSans-65"/>
      <use x="727.554688" xlink:href="#DejaVuSans-20"/>
      <use x="759.341797" xlink:href="#DejaVuSans-52"/>
      <use x="828.824219" xlink:href="#DejaVuSans-4f"/>
      <use x="907.535156" xlink:href="#DejaVuSans-43"/>
      <use x="977.359375" xlink:href="#DejaVuSans-20"/>
      <use x="1009.146484" xlink:href="#DejaVuSans-63"/>
      <use x="1064.126953" xlink:href="#DejaVuSans-75"/>
      <use x="1127.505859" xlink:href="#DejaVuSans-72"/>
      <use x="1168.619141" xlink:href="#DejaVuSans-76"/>
      <use x="1227.798828" xlink:href="#DejaVuSans-65"/>
      <use x="1289.322266" xlink:href="#DejaVuSans-20"/>
      <use x="1321.109375" xlink:href="#DejaVuSans-28"/>
      <use x="1360.123047" xlink:href="#DejaVuSans-61"/>
      <use x="1421.402344" xlink:href="#DejaVuSans-72"/>
      <use x="1460.265625" xlink:href="#DejaVuSans-65"/>
      <use x="1521.789062" xlink:href="#DejaVuSans-61"/>
      <use x="1583.068359" xlink:href="#DejaVuSans-20"/>
      <use x="1614.855469" xlink:href="#DejaVuSans-3d"/>
      <use x="1698.644531" xlink:href="#DejaVuSans-20"/>
      <use x="1730.431641" xlink:href="#DejaVuSans-30"/>
      <use x="1794.054688" xlink:href="#DejaVuSans-2e"/>
      <use x="1825.841797" xlink:href="#DejaVuSans-39"/>
      <use x="1889.464844" xlink:href="#DejaVuSans-39"/>
      <use x="1953.087891" xlink:href="#DejaVuSans-29"/>
     </g>
    </g>
    <g id="line2d_18">
     <path d="M 175.155937 293.004312 
L 195.155937 293.004312 
" style="fill:none;stroke:#000080;stroke-dasharray:4,6.6;stroke-dashoffset:0;stroke-width:4;"/>
    </g>
    <g id="line2d_19"/>
    <g id="text_17">
     <!-- macro-average ROC curve (area = 0.98) -->
     <g transform="translate(203.155937 296.504312)scale(0.1 -0.1)">
      <use xlink:href="#DejaVuSans-6d"/>
      <use x="97.412109" xlink:href="#DejaVuSans-61"/>
      <use x="158.691406" xlink:href="#DejaVuSans-63"/>
      <use x="213.671875" xlink:href="#DejaVuSans-72"/>
      <use x="252.535156" xlink:href="#DejaVuSans-6f"/>
      <use x="315.591797" xlink:href="#DejaVuSans-2d"/>
      <use x="351.675781" xlink:href="#DejaVuSans-61"/>
      <use x="412.955078" xlink:href="#DejaVuSans-76"/>
      <use x="472.134766" xlink:href="#DejaVuSans-65"/>
      <use x="533.658203" xlink:href="#DejaVuSans-72"/>
      <use x="574.771484" xlink:href="#DejaVuSans-61"/>
      <use x="636.050781" xlink:href="#DejaVuSans-67"/>
      <use x="699.527344" xlink:href="#DejaVuSans-65"/>
      <use x="761.050781" xlink:href="#DejaVuSans-20"/>
      <use x="792.837891" xlink:href="#DejaVuSans-52"/>
      <use x="862.320312" xlink:href="#DejaVuSans-4f"/>
      <use x="941.03125" xlink:href="#DejaVuSans-43"/>
      <use x="1010.855469" xlink:href="#DejaVuSans-20"/>
      <use x="1042.642578" xlink:href="#DejaVuSans-63"/>
      <use x="1097.623047" xlink:href="#DejaVuSans-75"/>
      <use x="1161.001953" xlink:href="#DejaVuSans-72"/>
      <use x="1202.115234" xlink:href="#DejaVuSans-76"/>
      <use x="1261.294922" xlink:href="#DejaVuSans-65"/>
      <use x="1322.818359" xlink:href="#DejaVuSans-20"/>
      <use x="1354.605469" xlink:href="#DejaVuSans-28"/>
      <use x="1393.619141" xlink:href="#DejaVuSans-61"/>
      <use x="1454.898438" xlink:href="#DejaVuSans-72"/>
      <use x="1493.761719" xlink:href="#DejaVuSans-65"/>
      <use x="1555.285156" xlink:href="#DejaVuSans-61"/>
      <use x="1616.564453" xlink:href="#DejaVuSans-20"/>
      <use x="1648.351562" xlink:href="#DejaVuSans-3d"/>
      <use x="1732.140625" xlink:href="#DejaVuSans-20"/>
      <use x="1763.927734" xlink:href="#DejaVuSans-30"/>
      <use x="1827.550781" xlink:href="#DejaVuSans-2e"/>
      <use x="1859.337891" xlink:href="#DejaVuSans-39"/>
      <use x="1922.960938" xlink:href="#DejaVuSans-38"/>
      <use x="1986.583984" xlink:href="#DejaVuSans-29"/>
     </g>
    </g>
   </g>
  </g>
 </g>
 <defs>
  <clipPath id="p0405a7f9af">
   <rect height="266.112" width="357.12" x="57.6" y="41.472"/>
  </clipPath>
 </defs>
</svg>
