<?xml version="1.0" encoding="utf-8" standalone="no"?>
<!DOCTYPE svg PUBLIC "-//W3C//DTD SVG 1.1//EN"
  "http://www.w3.org/Graphics/SVG/1.1/DTD/svg11.dtd">
<svg height="345.6pt" version="1.1" viewBox="0 0 460.8 345.6" width="460.8pt" xmlns="http://www.w3.org/2000/svg" xmlns:xlink="http://www.w3.org/1999/xlink">
 <metadata>
  <rdf:RDF xmlns:cc="http://creativecommons.org/ns#" xmlns:dc="http://purl.org/dc/elements/1.1/" xmlns:rdf="http://www.w3.org/1999/02/22-rdf-syntax-ns#">
   <cc:Work>
    <dc:type rdf:resource="http://purl.org/dc/dcmitype/StillImage"/>
    <dc:date>2021-08-12T09:42:31.305507</dc:date>
    <dc:format>image/svg+xml</dc:format>
    <dc:creator>
     <cc:Agent>
      <dc:title>Matplotlib v3.4.2, https://matplotlib.org/</dc:title>
     </cc:Agent>
    </dc:creator>
   </cc:Work>
  </rdf:RDF>
 </metadata>
 <defs>
  <style type="text/css">*{stroke-linecap:butt;stroke-linejoin:round;}</style>
 </defs>
 <g id="figure_1">
  <g id="patch_1">
   <path d="M 0 345.6 
L 460.8 345.6 
L 460.8 0 
L 0 0 
z
" style="fill:#ffffff;"/>
  </g>
  <g id="axes_1">
   <g id="patch_2">
    <path d="M 57.6 307.584 
L 414.72 307.584 
L 414.72 41.472 
L 57.6 41.472 
z
" style="fill:#ffffff;"/>
   </g>
   <g id="matplotlib.axis_1">
    <g id="xtick_1">
     <g id="line2d_1">
      <defs>
       <path d="M 0 0 
L 0 3.5 
" id="m9a3bacd09e" style="stroke:#000000;stroke-width:0.8;"/>
      </defs>
      <g>
       <use style="stroke:#000000;stroke-width:0.8;" x="57.6" xlink:href="#m9a3bacd09e" y="307.584"/>
      </g>
     </g>
     <g id="text_1">
      <!-- 0.0 -->
      <g transform="translate(49.648438 322.182437)scale(0.1 -0.1)">
       <defs>
        <path d="M 2034 4250 
Q 1547 4250 1301 3770 
Q 1056 3291 1056 2328 
Q 1056 1369 1301 889 
Q 1547 409 2034 409 
Q 2525 409 2770 889 
Q 3016 1369 3016 2328 
Q 3016 3291 2770 3770 
Q 2525 4250 2034 4250 
z
M 2034 4750 
Q 2819 4750 3233 4129 
Q 3647 3509 3647 2328 
Q 3647 1150 3233 529 
Q 2819 -91 2034 -91 
Q 1250 -91 836 529 
Q 422 1150 422 2328 
Q 422 3509 836 4129 
Q 1250 4750 2034 4750 
z
" id="DejaVuSans-30" transform="scale(0.015625)"/>
        <path d="M 684 794 
L 1344 794 
L 1344 0 
L 684 0 
L 684 794 
z
" id="DejaVuSans-2e" transform="scale(0.015625)"/>
       </defs>
       <use xlink:href="#DejaVuSans-30"/>
       <use x="63.623047" xlink:href="#DejaVuSans-2e"/>
       <use x="95.410156" xlink:href="#DejaVuSans-30"/>
      </g>
     </g>
    </g>
    <g id="xtick_2">
     <g id="line2d_2">
      <g>
       <use style="stroke:#000000;stroke-width:0.8;" x="129.024" xlink:href="#m9a3bacd09e" y="307.584"/>
      </g>
     </g>
     <g id="text_2">
      <!-- 0.2 -->
      <g transform="translate(121.072438 322.182437)scale(0.1 -0.1)">
       <defs>
        <path d="M 1228 531 
L 3431 531 
L 3431 0 
L 469 0 
L 469 531 
Q 828 903 1448 1529 
Q 2069 2156 2228 2338 
Q 2531 2678 2651 2914 
Q 2772 3150 2772 3378 
Q 2772 3750 2511 3984 
Q 2250 4219 1831 4219 
Q 1534 4219 1204 4116 
Q 875 4013 500 3803 
L 500 4441 
Q 881 4594 1212 4672 
Q 1544 4750 1819 4750 
Q 2544 4750 2975 4387 
Q 3406 4025 3406 3419 
Q 3406 3131 3298 2873 
Q 3191 2616 2906 2266 
Q 2828 2175 2409 1742 
Q 1991 1309 1228 531 
z
" id="DejaVuSans-32" transform="scale(0.015625)"/>
       </defs>
       <use xlink:href="#DejaVuSans-30"/>
       <use x="63.623047" xlink:href="#DejaVuSans-2e"/>
       <use x="95.410156" xlink:href="#DejaVuSans-32"/>
      </g>
     </g>
    </g>
    <g id="xtick_3">
     <g id="line2d_3">
      <g>
       <use style="stroke:#000000;stroke-width:0.8;" x="200.448" xlink:href="#m9a3bacd09e" y="307.584"/>
      </g>
     </g>
     <g id="text_3">
      <!-- 0.4 -->
      <g transform="translate(192.496438 322.182437)scale(0.1 -0.1)">
       <defs>
        <path d="M 2419 4116 
L 825 1625 
L 2419 1625 
L 2419 4116 
z
M 2253 4666 
L 3047 4666 
L 3047 1625 
L 3713 1625 
L 3713 1100 
L 3047 1100 
L 3047 0 
L 2419 0 
L 2419 1100 
L 313 1100 
L 313 1709 
L 2253 4666 
z
" id="DejaVuSans-34" transform="scale(0.015625)"/>
       </defs>
       <use xlink:href="#DejaVuSans-30"/>
       <use x="63.623047" xlink:href="#DejaVuSans-2e"/>
       <use x="95.410156" xlink:href="#DejaVuSans-34"/>
      </g>
     </g>
    </g>
    <g id="xtick_4">
     <g id="line2d_4">
      <g>
       <use style="stroke:#000000;stroke-width:0.8;" x="271.872" xlink:href="#m9a3bacd09e" y="307.584"/>
      </g>
     </g>
     <g id="text_4">
      <!-- 0.6 -->
      <g transform="translate(263.920438 322.182437)scale(0.1 -0.1)">
       <defs>
        <path d="M 2113 2584 
Q 1688 2584 1439 2293 
Q 1191 2003 1191 1497 
Q 1191 994 1439 701 
Q 1688 409 2113 409 
Q 2538 409 2786 701 
Q 3034 994 3034 1497 
Q 3034 2003 2786 2293 
Q 2538 2584 2113 2584 
z
M 3366 4563 
L 3366 3988 
Q 3128 4100 2886 4159 
Q 2644 4219 2406 4219 
Q 1781 4219 1451 3797 
Q 1122 3375 1075 2522 
Q 1259 2794 1537 2939 
Q 1816 3084 2150 3084 
Q 2853 3084 3261 2657 
Q 3669 2231 3669 1497 
Q 3669 778 3244 343 
Q 2819 -91 2113 -91 
Q 1303 -91 875 529 
Q 447 1150 447 2328 
Q 447 3434 972 4092 
Q 1497 4750 2381 4750 
Q 2619 4750 2861 4703 
Q 3103 4656 3366 4563 
z
" id="DejaVuSans-36" transform="scale(0.015625)"/>
       </defs>
       <use xlink:href="#DejaVuSans-30"/>
       <use x="63.623047" xlink:href="#DejaVuSans-2e"/>
       <use x="95.410156" xlink:href="#DejaVuSans-36"/>
      </g>
     </g>
    </g>
    <g id="xtick_5">
     <g id="line2d_5">
      <g>
       <use style="stroke:#000000;stroke-width:0.8;" x="343.296" xlink:href="#m9a3bacd09e" y="307.584"/>
      </g>
     </g>
     <g id="text_5">
      <!-- 0.8 -->
      <g transform="translate(335.344438 322.182437)scale(0.1 -0.1)">
       <defs>
        <path d="M 2034 2216 
Q 1584 2216 1326 1975 
Q 1069 1734 1069 1313 
Q 1069 891 1326 650 
Q 1584 409 2034 409 
Q 2484 409 2743 651 
Q 3003 894 3003 1313 
Q 3003 1734 2745 1975 
Q 2488 2216 2034 2216 
z
M 1403 2484 
Q 997 2584 770 2862 
Q 544 3141 544 3541 
Q 544 4100 942 4425 
Q 1341 4750 2034 4750 
Q 2731 4750 3128 4425 
Q 3525 4100 3525 3541 
Q 3525 3141 3298 2862 
Q 3072 2584 2669 2484 
Q 3125 2378 3379 2068 
Q 3634 1759 3634 1313 
Q 3634 634 3220 271 
Q 2806 -91 2034 -91 
Q 1263 -91 848 271 
Q 434 634 434 1313 
Q 434 1759 690 2068 
Q 947 2378 1403 2484 
z
M 1172 3481 
Q 1172 3119 1398 2916 
Q 1625 2713 2034 2713 
Q 2441 2713 2670 2916 
Q 2900 3119 2900 3481 
Q 2900 3844 2670 4047 
Q 2441 4250 2034 4250 
Q 1625 4250 1398 4047 
Q 1172 3844 1172 3481 
z
" id="DejaVuSans-38" transform="scale(0.015625)"/>
       </defs>
       <use xlink:href="#DejaVuSans-30"/>
       <use x="63.623047" xlink:href="#DejaVuSans-2e"/>
       <use x="95.410156" xlink:href="#DejaVuSans-38"/>
      </g>
     </g>
    </g>
    <g id="xtick_6">
     <g id="line2d_6">
      <g>
       <use style="stroke:#000000;stroke-width:0.8;" x="414.72" xlink:href="#m9a3bacd09e" y="307.584"/>
      </g>
     </g>
     <g id="text_6">
      <!-- 1.0 -->
      <g transform="translate(406.768438 322.182437)scale(0.1 -0.1)">
       <defs>
        <path d="M 794 531 
L 1825 531 
L 1825 4091 
L 703 3866 
L 703 4441 
L 1819 4666 
L 2450 4666 
L 2450 531 
L 3481 531 
L 3481 0 
L 794 0 
L 794 531 
z
" id="DejaVuSans-31" transform="scale(0.015625)"/>
       </defs>
       <use xlink:href="#DejaVuSans-31"/>
       <use x="63.623047" xlink:href="#DejaVuSans-2e"/>
       <use x="95.410156" xlink:href="#DejaVuSans-30"/>
      </g>
     </g>
    </g>
    <g id="text_7">
     <!-- Recall -->
     <g transform="translate(221.242812 335.860562)scale(0.1 -0.1)">
      <defs>
       <path d="M 2841 2188 
Q 3044 2119 3236 1894 
Q 3428 1669 3622 1275 
L 4263 0 
L 3584 0 
L 2988 1197 
Q 2756 1666 2539 1819 
Q 2322 1972 1947 1972 
L 1259 1972 
L 1259 0 
L 628 0 
L 628 4666 
L 2053 4666 
Q 2853 4666 3247 4331 
Q 3641 3997 3641 3322 
Q 3641 2881 3436 2590 
Q 3231 2300 2841 2188 
z
M 1259 4147 
L 1259 2491 
L 2053 2491 
Q 2509 2491 2742 2702 
Q 2975 2913 2975 3322 
Q 2975 3731 2742 3939 
Q 2509 4147 2053 4147 
L 1259 4147 
z
" id="DejaVuSans-52" transform="scale(0.015625)"/>
       <path d="M 3597 1894 
L 3597 1613 
L 953 1613 
Q 991 1019 1311 708 
Q 1631 397 2203 397 
Q 2534 397 2845 478 
Q 3156 559 3463 722 
L 3463 178 
Q 3153 47 2828 -22 
Q 2503 -91 2169 -91 
Q 1331 -91 842 396 
Q 353 884 353 1716 
Q 353 2575 817 3079 
Q 1281 3584 2069 3584 
Q 2775 3584 3186 3129 
Q 3597 2675 3597 1894 
z
M 3022 2063 
Q 3016 2534 2758 2815 
Q 2500 3097 2075 3097 
Q 1594 3097 1305 2825 
Q 1016 2553 972 2059 
L 3022 2063 
z
" id="DejaVuSans-65" transform="scale(0.015625)"/>
       <path d="M 3122 3366 
L 3122 2828 
Q 2878 2963 2633 3030 
Q 2388 3097 2138 3097 
Q 1578 3097 1268 2742 
Q 959 2388 959 1747 
Q 959 1106 1268 751 
Q 1578 397 2138 397 
Q 2388 397 2633 464 
Q 2878 531 3122 666 
L 3122 134 
Q 2881 22 2623 -34 
Q 2366 -91 2075 -91 
Q 1284 -91 818 406 
Q 353 903 353 1747 
Q 353 2603 823 3093 
Q 1294 3584 2113 3584 
Q 2378 3584 2631 3529 
Q 2884 3475 3122 3366 
z
" id="DejaVuSans-63" transform="scale(0.015625)"/>
       <path d="M 2194 1759 
Q 1497 1759 1228 1600 
Q 959 1441 959 1056 
Q 959 750 1161 570 
Q 1363 391 1709 391 
Q 2188 391 2477 730 
Q 2766 1069 2766 1631 
L 2766 1759 
L 2194 1759 
z
M 3341 1997 
L 3341 0 
L 2766 0 
L 2766 531 
Q 2569 213 2275 61 
Q 1981 -91 1556 -91 
Q 1019 -91 701 211 
Q 384 513 384 1019 
Q 384 1609 779 1909 
Q 1175 2209 1959 2209 
L 2766 2209 
L 2766 2266 
Q 2766 2663 2505 2880 
Q 2244 3097 1772 3097 
Q 1472 3097 1187 3025 
Q 903 2953 641 2809 
L 641 3341 
Q 956 3463 1253 3523 
Q 1550 3584 1831 3584 
Q 2591 3584 2966 3190 
Q 3341 2797 3341 1997 
z
" id="DejaVuSans-61" transform="scale(0.015625)"/>
       <path d="M 603 4863 
L 1178 4863 
L 1178 0 
L 603 0 
L 603 4863 
z
" id="DejaVuSans-6c" transform="scale(0.015625)"/>
      </defs>
      <use xlink:href="#DejaVuSans-52"/>
      <use x="64.982422" xlink:href="#DejaVuSans-65"/>
      <use x="126.505859" xlink:href="#DejaVuSans-63"/>
      <use x="181.486328" xlink:href="#DejaVuSans-61"/>
      <use x="242.765625" xlink:href="#DejaVuSans-6c"/>
      <use x="270.548828" xlink:href="#DejaVuSans-6c"/>
     </g>
    </g>
   </g>
   <g id="matplotlib.axis_2">
    <g id="ytick_1">
     <g id="line2d_7">
      <defs>
       <path d="M 0 0 
L -3.5 0 
" id="m4278081f6a" style="stroke:#000000;stroke-width:0.8;"/>
      </defs>
      <g>
       <use style="stroke:#000000;stroke-width:0.8;" x="57.6" xlink:href="#m4278081f6a" y="307.584"/>
      </g>
     </g>
     <g id="text_8">
      <!-- 0.0 -->
      <g transform="translate(34.696875 311.383219)scale(0.1 -0.1)">
       <use xlink:href="#DejaVuSans-30"/>
       <use x="63.623047" xlink:href="#DejaVuSans-2e"/>
       <use x="95.410156" xlink:href="#DejaVuSans-30"/>
      </g>
     </g>
    </g>
    <g id="ytick_2">
     <g id="line2d_8">
      <g>
       <use style="stroke:#000000;stroke-width:0.8;" x="57.6" xlink:href="#m4278081f6a" y="256.896"/>
      </g>
     </g>
     <g id="text_9">
      <!-- 0.2 -->
      <g transform="translate(34.696875 260.695219)scale(0.1 -0.1)">
       <use xlink:href="#DejaVuSans-30"/>
       <use x="63.623047" xlink:href="#DejaVuSans-2e"/>
       <use x="95.410156" xlink:href="#DejaVuSans-32"/>
      </g>
     </g>
    </g>
    <g id="ytick_3">
     <g id="line2d_9">
      <g>
       <use style="stroke:#000000;stroke-width:0.8;" x="57.6" xlink:href="#m4278081f6a" y="206.208"/>
      </g>
     </g>
     <g id="text_10">
      <!-- 0.4 -->
      <g transform="translate(34.696875 210.007219)scale(0.1 -0.1)">
       <use xlink:href="#DejaVuSans-30"/>
       <use x="63.623047" xlink:href="#DejaVuSans-2e"/>
       <use x="95.410156" xlink:href="#DejaVuSans-34"/>
      </g>
     </g>
    </g>
    <g id="ytick_4">
     <g id="line2d_10">
      <g>
       <use style="stroke:#000000;stroke-width:0.8;" x="57.6" xlink:href="#m4278081f6a" y="155.52"/>
      </g>
     </g>
     <g id="text_11">
      <!-- 0.6 -->
      <g transform="translate(34.696875 159.319219)scale(0.1 -0.1)">
       <use xlink:href="#DejaVuSans-30"/>
       <use x="63.623047" xlink:href="#DejaVuSans-2e"/>
       <use x="95.410156" xlink:href="#DejaVuSans-36"/>
      </g>
     </g>
    </g>
    <g id="ytick_5">
     <g id="line2d_11">
      <g>
       <use style="stroke:#000000;stroke-width:0.8;" x="57.6" xlink:href="#m4278081f6a" y="104.832"/>
      </g>
     </g>
     <g id="text_12">
      <!-- 0.8 -->
      <g transform="translate(34.696875 108.631219)scale(0.1 -0.1)">
       <use xlink:href="#DejaVuSans-30"/>
       <use x="63.623047" xlink:href="#DejaVuSans-2e"/>
       <use x="95.410156" xlink:href="#DejaVuSans-38"/>
      </g>
     </g>
    </g>
    <g id="ytick_6">
     <g id="line2d_12">
      <g>
       <use style="stroke:#000000;stroke-width:0.8;" x="57.6" xlink:href="#m4278081f6a" y="54.144"/>
      </g>
     </g>
     <g id="text_13">
      <!-- 1.0 -->
      <g transform="translate(34.696875 57.943219)scale(0.1 -0.1)">
       <use xlink:href="#DejaVuSans-31"/>
       <use x="63.623047" xlink:href="#DejaVuSans-2e"/>
       <use x="95.410156" xlink:href="#DejaVuSans-30"/>
      </g>
     </g>
    </g>
    <g id="text_14">
     <!-- Precision -->
     <g transform="translate(28.617187 196.835031)rotate(-90)scale(0.1 -0.1)">
      <defs>
       <path d="M 1259 4147 
L 1259 2394 
L 2053 2394 
Q 2494 2394 2734 2622 
Q 2975 2850 2975 3272 
Q 2975 3691 2734 3919 
Q 2494 4147 2053 4147 
L 1259 4147 
z
M 628 4666 
L 2053 4666 
Q 2838 4666 3239 4311 
Q 3641 3956 3641 3272 
Q 3641 2581 3239 2228 
Q 2838 1875 2053 1875 
L 1259 1875 
L 1259 0 
L 628 0 
L 628 4666 
z
" id="DejaVuSans-50" transform="scale(0.015625)"/>
       <path d="M 2631 2963 
Q 2534 3019 2420 3045 
Q 2306 3072 2169 3072 
Q 1681 3072 1420 2755 
Q 1159 2438 1159 1844 
L 1159 0 
L 581 0 
L 581 3500 
L 1159 3500 
L 1159 2956 
Q 1341 3275 1631 3429 
Q 1922 3584 2338 3584 
Q 2397 3584 2469 3576 
Q 2541 3569 2628 3553 
L 2631 2963 
z
" id="DejaVuSans-72" transform="scale(0.015625)"/>
       <path d="M 603 3500 
L 1178 3500 
L 1178 0 
L 603 0 
L 603 3500 
z
M 603 4863 
L 1178 4863 
L 1178 4134 
L 603 4134 
L 603 4863 
z
" id="DejaVuSans-69" transform="scale(0.015625)"/>
       <path d="M 2834 3397 
L 2834 2853 
Q 2591 2978 2328 3040 
Q 2066 3103 1784 3103 
Q 1356 3103 1142 2972 
Q 928 2841 928 2578 
Q 928 2378 1081 2264 
Q 1234 2150 1697 2047 
L 1894 2003 
Q 2506 1872 2764 1633 
Q 3022 1394 3022 966 
Q 3022 478 2636 193 
Q 2250 -91 1575 -91 
Q 1294 -91 989 -36 
Q 684 19 347 128 
L 347 722 
Q 666 556 975 473 
Q 1284 391 1588 391 
Q 1994 391 2212 530 
Q 2431 669 2431 922 
Q 2431 1156 2273 1281 
Q 2116 1406 1581 1522 
L 1381 1569 
Q 847 1681 609 1914 
Q 372 2147 372 2553 
Q 372 3047 722 3315 
Q 1072 3584 1716 3584 
Q 2034 3584 2315 3537 
Q 2597 3491 2834 3397 
z
" id="DejaVuSans-73" transform="scale(0.015625)"/>
       <path d="M 1959 3097 
Q 1497 3097 1228 2736 
Q 959 2375 959 1747 
Q 959 1119 1226 758 
Q 1494 397 1959 397 
Q 2419 397 2687 759 
Q 2956 1122 2956 1747 
Q 2956 2369 2687 2733 
Q 2419 3097 1959 3097 
z
M 1959 3584 
Q 2709 3584 3137 3096 
Q 3566 2609 3566 1747 
Q 3566 888 3137 398 
Q 2709 -91 1959 -91 
Q 1206 -91 779 398 
Q 353 888 353 1747 
Q 353 2609 779 3096 
Q 1206 3584 1959 3584 
z
" id="DejaVuSans-6f" transform="scale(0.015625)"/>
       <path d="M 3513 2113 
L 3513 0 
L 2938 0 
L 2938 2094 
Q 2938 2591 2744 2837 
Q 2550 3084 2163 3084 
Q 1697 3084 1428 2787 
Q 1159 2491 1159 1978 
L 1159 0 
L 581 0 
L 581 3500 
L 1159 3500 
L 1159 2956 
Q 1366 3272 1645 3428 
Q 1925 3584 2291 3584 
Q 2894 3584 3203 3211 
Q 3513 2838 3513 2113 
z
" id="DejaVuSans-6e" transform="scale(0.015625)"/>
      </defs>
      <use xlink:href="#DejaVuSans-50"/>
      <use x="58.552734" xlink:href="#DejaVuSans-72"/>
      <use x="97.416016" xlink:href="#DejaVuSans-65"/>
      <use x="158.939453" xlink:href="#DejaVuSans-63"/>
      <use x="213.919922" xlink:href="#DejaVuSans-69"/>
      <use x="241.703125" xlink:href="#DejaVuSans-73"/>
      <use x="293.802734" xlink:href="#DejaVuSans-69"/>
      <use x="321.585938" xlink:href="#DejaVuSans-6f"/>
      <use x="382.767578" xlink:href="#DejaVuSans-6e"/>
     </g>
    </g>
   </g>
   <g id="line2d_13">
    <path clip-path="url(#pd2ecfc6f92)" d="M 414.72 214.284659 
L 414.275821 214.358017 
L 414.275821 214.272528 
L 414.275821 186.084107 
L 413.831642 186.162925 
L 413.831642 186.090348 
L 413.831642 167.114836 
L 412.943284 167.174028 
L 412.943284 166.391799 
L 412.499104 166.470021 
L 412.499104 166.371615 
L 412.499104 165.5794 
L 412.054925 165.6576 
L 412.054925 165.557933 
L 412.054925 165.258089 
L 411.610746 165.336338 
L 411.610746 165.236093 
L 411.610746 162.890819 
L 411.166567 162.968774 
L 411.166567 162.865033 
L 411.166567 162.344086 
L 410.722388 162.42204 
L 410.722388 162.317381 
L 410.722388 158.996389 
L 410.278209 159.073771 
L 410.278209 158.964089 
L 410.278209 158.191751 
L 409.389851 158.346468 
L 409.389851 158.235429 
L 409.389851 153.299234 
L 408.945672 153.375508 
L 408.945672 151.210334 
L 408.501493 151.286108 
L 408.501493 144.274375 
L 408.057313 144.347951 
L 408.057313 143.409813 
L 407.613134 143.483162 
L 407.613134 138.194076 
L 407.168955 138.265426 
L 407.168955 137.977469 
L 406.724776 138.048817 
L 406.724776 136.886622 
L 406.280597 136.957585 
L 406.280597 136.664412 
L 405.836418 136.735367 
L 405.836418 136.293517 
L 405.392239 136.364397 
L 405.392239 135.920055 
L 404.94806 135.990857 
L 404.94806 134.794044 
L 404.503881 134.864419 
L 404.503881 134.562462 
L 404.059701 134.632819 
L 404.059701 134.177684 
L 403.615522 134.247951 
L 403.615522 130.992086 
L 403.171343 131.060885 
L 403.171343 130.585508 
L 402.727164 130.654189 
L 402.727164 130.495079 
L 401.838806 130.632649 
L 401.838806 129.831964 
L 401.394627 129.900522 
L 401.394627 128.112307 
L 400.950448 128.180044 
L 400.950448 127.850862 
L 400.506269 127.918545 
L 400.506269 126.421333 
L 400.06209 126.488319 
L 400.06209 126.320327 
L 399.61791 126.387343 
L 399.61791 125.201944 
L 399.173731 125.268415 
L 399.173731 124.755332 
L 398.729552 124.821634 
L 398.729552 123.612431 
L 397.841194 123.744 
L 397.841194 121.986447 
L 397.397015 122.051368 
L 397.397015 121.159385 
L 396.952836 121.223885 
L 396.952836 121.044347 
L 396.508657 121.10886 
L 396.508657 120.386788 
L 395.620299 120.51529 
L 395.620299 119.2365 
L 395.176119 119.300129 
L 395.176119 118.746353 
L 394.73194 118.809751 
L 394.73194 118.438513 
L 394.287761 118.501795 
L 394.287761 116.432239 
L 393.843582 116.494279 
L 393.843582 115.537874 
L 393.399403 115.599391 
L 393.399403 115.020543 
L 392.511045 115.143154 
L 392.511045 113.973301 
L 392.066866 114.03398 
L 392.066866 113.047486 
L 391.622687 113.107592 
L 391.622687 112.908944 
L 391.178507 112.969031 
L 391.178507 112.370215 
L 390.734328 112.429996 
L 390.734328 110.200822 
L 390.290149 110.259094 
L 390.290149 108.812733 
L 389.84597 108.870038 
L 389.84597 108.033347 
L 389.401791 108.090133 
L 389.401791 105.750652 
L 388.513433 105.860923 
L 388.513433 104.995159 
L 388.069254 105.049779 
L 388.069254 104.395034 
L 387.625075 104.449243 
L 387.625075 104.010032 
L 387.180896 104.064 
L 387.180896 103.843502 
L 386.736716 103.897406 
L 386.736716 103.454609 
L 386.292537 103.508266 
L 386.292537 103.285961 
L 385.404179 103.393258 
L 385.404179 102.722313 
L 384.515821 102.828962 
L 384.515821 102.378455 
L 383.627463 102.484816 
L 383.627463 102.258437 
L 383.183284 102.311602 
L 383.183284 102.084531 
L 382.739104 102.137621 
L 382.739104 101.68158 
L 381.850746 101.787337 
L 381.850746 100.404605 
L 381.406567 100.456466 
L 381.406567 99.991011 
L 380.962388 100.042583 
L 380.962388 98.868706 
L 380.518209 98.919357 
L 380.518209 98.682776 
L 380.07403 98.73333 
L 380.07403 98.25813 
L 379.629851 98.308374 
L 379.629851 97.830575 
L 379.185672 97.880503 
L 379.185672 97.640568 
L 378.741493 97.690392 
L 378.741493 97.208432 
L 377.853134 97.307544 
L 377.853134 96.090667 
L 376.964776 96.187991 
L 376.964776 95.696372 
L 376.520597 95.744745 
L 376.520597 94.753684 
L 374.743881 94.944564 
L 374.743881 94.192302 
L 374.299701 94.239584 
L 374.299701 93.987404 
L 371.190448 94.319828 
L 371.190448 93.810237 
L 370.30209 93.905246 
L 370.30209 92.876708 
L 369.413731 92.970152 
L 369.413731 92.451134 
L 368.969552 92.497511 
L 368.969552 90.923707 
L 368.525373 90.968615 
L 368.525373 89.905472 
L 366.748657 90.081855 
L 366.748657 89.813333 
L 366.304478 89.857424 
L 366.304478 89.58796 
L 365.860299 89.631881 
L 365.860299 89.361469 
L 364.97194 89.449075 
L 364.97194 88.63209 
L 362.306866 88.892377 
L 362.306866 88.616947 
L 361.862687 88.660419 
L 361.862687 88.106882 
L 361.418507 88.149873 
L 361.418507 87.313403 
L 360.08597 87.440327 
L 360.08597 87.159172 
L 359.197612 87.243718 
L 359.197612 86.961231 
L 358.753433 87.003358 
L 358.753433 86.435583 
L 356.976716 86.60268 
L 356.976716 86.316435 
L 356.532537 86.358163 
L 356.532537 86.070857 
L 354.311642 86.279529 
L 354.311642 85.699439 
L 353.867463 85.74085 
L 353.867463 85.449335 
L 353.423284 85.490526 
L 353.423284 84.315429 
L 352.090746 84.435633 
L 352.090746 84.138894 
L 350.758209 84.259033 
L 350.758209 83.960471 
L 349.425672 84.080537 
L 349.425672 83.478913 
L 347.648955 83.637694 
L 347.648955 83.334244 
L 347.204776 83.373851 
L 347.204776 83.069217 
L 346.760597 83.108571 
L 346.760597 82.496087 
L 345.872239 82.573658 
L 345.872239 81.956346 
L 344.983881 82.032858 
L 344.983881 81.722182 
L 344.539701 81.760221 
L 344.539701 81.135535 
L 344.095522 81.17292 
L 344.095522 80.228228 
L 343.651343 80.264557 
L 343.651343 78.991059 
L 343.207164 79.025907 
L 343.207164 78.704899 
L 342.762985 78.739443 
L 342.762985 78.417127 
L 342.318806 78.451362 
L 342.318806 77.80318 
L 341.874627 77.836691 
L 341.874627 77.510809 
L 341.430448 77.544 
L 341.430448 77.216774 
L 339.209552 77.382052 
L 339.209552 76.720552 
L 338.765373 76.753036 
L 338.765373 75.752324 
L 338.321194 75.783595 
L 338.321194 74.772837 
L 336.988657 74.863182 
L 336.988657 73.496247 
L 336.544478 73.524706 
L 336.544478 73.179994 
L 335.656119 73.23623 
L 335.656119 72.889562 
L 335.21194 72.917333 
L 335.21194 72.569163 
L 334.767761 72.596541 
L 334.767761 71.896131 
L 333.879403 71.949202 
L 333.879403 71.596455 
L 332.102687 71.70159 
L 332.102687 71.34581 
L 331.658507 71.371795 
L 331.658507 70.656 
L 331.214328 70.681056 
L 331.214328 70.321021 
L 330.770149 70.345644 
L 330.770149 69.984 
L 329.437612 70.056772 
L 329.437612 69.692466 
L 328.105075 69.764339 
L 328.105075 69.029193 
L 326.328358 69.121792 
L 326.328358 68.750355 
L 324.107463 68.865005 
L 324.107463 68.48966 
L 322.330746 68.580456 
L 322.330746 68.201686 
L 321.442388 68.246385 
L 321.442388 67.482947 
L 318.777313 67.611826 
L 318.777313 67.224774 
L 317.444776 67.288376 
L 317.444776 66.506927 
L 309.449552 66.879678 
L 309.449552 66.070588 
L 307.672836 66.15131 
L 307.672836 65.331504 
L 301.454328 65.603896 
L 301.454328 65.182328 
L 300.56597 65.220923 
L 300.56597 64.796469 
L 297.900896 64.909593 
L 297.900896 64.479319 
L 297.012537 64.5161 
L 297.012537 64.082824 
L 296.568358 64.100571 
L 296.568358 63.665002 
L 294.791642 63.733622 
L 294.791642 63.293458 
L 292.570746 63.376787 
L 292.570746 62.931153 
L 291.682388 62.963341 
L 291.682388 62.064 
L 289.905672 62.122667 
L 289.905672 60.751374 
L 287.684776 60.813474 
L 287.684776 60.348746 
L 284.131343 60.443656 
L 284.131343 59.970207 
L 271.250149 60.312925 
L 271.250149 59.810341 
L 255.259701 60.257684 
L 255.259701 59.71411 
L 254.815522 59.726379 
L 254.815522 59.179232 
L 249.485373 59.316245 
L 249.485373 58.752 
L 246.376119 58.826494 
L 246.376119 58.250667 
L 232.162388 58.5792 
L 232.162388 57.955128 
L 204.623284 58.656285 
L 200.181493 58.794275 
L 200.181493 58.031117 
L 196.183881 58.141476 
L 196.183881 57.352101 
L 193.962985 57.403678 
L 193.962985 56.596645 
L 174.863284 56.99164 
L 174.863284 56.049564 
L 160.205373 56.319451 
L 160.205373 55.236414 
L 152.654328 55.322791 
L 152.654328 54.144 
L 57.6 54.144 
L 57.6 54.144 
" style="fill:none;stroke:#bc2a79;stroke-linecap:square;stroke-width:2;"/>
   </g>
   <g id="line2d_14">
    <path clip-path="url(#pd2ecfc6f92)" d="M 414.72 109.672476 
L 414.555201 109.692493 
L 414.555201 109.621129 
L 414.555201 107.383037 
L 414.390401 107.40246 
L 414.390401 107.329401 
L 414.390401 106.300948 
L 414.225602 106.320088 
L 414.225602 106.246203 
L 414.225602 103.625592 
L 414.060803 103.644 
L 414.060803 103.568101 
L 414.060803 95.763784 
L 413.731204 95.714043 
L 413.731204 94.477447 
L 413.566405 94.493148 
L 413.566405 94.410168 
L 413.566405 91.379261 
L 413.401606 91.393972 
L 413.401606 91.308522 
L 413.401606 89.585211 
L 413.236807 89.599337 
L 413.236807 89.512421 
L 413.236807 87.936 
L 413.072007 87.949577 
L 413.072007 87.861299 
L 413.072007 85.631065 
L 412.907208 85.643854 
L 412.907208 85.553671 
L 412.907208 85.282682 
L 412.742409 85.295355 
L 412.742409 85.204847 
L 412.742409 84.842075 
L 412.41281 84.776193 
L 412.41281 83.954361 
L 412.083212 83.887061 
L 412.083212 83.703326 
L 411.424015 83.659852 
L 411.424015 83.4754 
L 411.259216 83.487486 
L 411.259216 83.395113 
L 411.259216 82.093851 
L 411.094416 82.105443 
L 411.094416 82.011884 
L 411.094416 81.542919 
L 410.929617 81.554316 
L 410.929617 81.460255 
L 410.929617 81.271897 
L 410.764818 81.2832 
L 410.764818 81.188869 
L 410.764818 80.050728 
L 410.435219 79.97702 
L 410.435219 79.785914 
L 410.27042 79.796684 
L 410.27042 79.700975 
L 410.27042 79.028753 
L 409.940821 79.049744 
L 409.940821 78.953316 
L 409.940821 78.856807 
L 409.776022 78.867243 
L 409.776022 78.770616 
L 409.776022 78.091932 
L 409.446424 78.112244 
L 409.446424 78.014887 
L 409.446424 77.526857 
L 409.281624 77.536803 
L 409.281624 77.438911 
L 409.281624 77.340935 
L 409.116825 77.350814 
L 409.116825 77.252718 
L 409.116825 77.154537 
L 408.952026 77.16435 
L 408.952026 77.066048 
L 408.952026 76.177542 
L 408.787227 76.186982 
L 408.787227 76.087798 
L 408.787227 75.690209 
L 408.622427 75.699464 
L 408.622427 75.599814 
L 408.622427 75.500079 
L 408.457628 75.509265 
L 408.457628 75.409404 
L 408.457628 74.10336 
L 408.292829 74.112 
L 408.292829 74.010886 
L 408.292829 73.909685 
L 407.798431 73.93541 
L 407.798431 73.834 
L 407.798431 73.732502 
L 407.633632 73.741011 
L 407.633632 73.639385 
L 407.633632 73.53767 
L 407.468832 73.546105 
L 407.468832 73.444261 
L 407.468832 73.342328 
L 406.809635 73.273634 
L 406.809635 73.068996 
L 406.644836 73.077263 
L 406.644836 72.974769 
L 406.644836 72.666748 
L 406.150438 72.588121 
L 406.150438 72.485053 
L 405.985639 72.4931 
L 405.985639 72.3899 
L 405.985639 72.286609 
L 404.832044 72.238879 
L 404.832044 71.927301 
L 404.502446 71.943011 
L 404.502446 71.838883 
L 404.502446 71.734663 
L 404.337647 71.742443 
L 404.337647 71.638088 
L 404.337647 71.533641 
L 404.172847 71.541343 
L 404.172847 71.43676 
L 404.172847 71.122456 
L 403.678449 71.145084 
L 403.678449 71.04 
L 403.678449 70.934823 
L 402.689654 70.874205 
L 402.689654 70.768578 
L 402.524855 70.776 
L 402.524855 70.670235 
L 402.524855 70.246228 
L 402.030457 70.267871 
L 402.030457 70.161499 
L 402.030457 69.84181 
L 401.865658 69.848859 
L 401.865658 69.742059 
L 401.865658 69.635164 
L 401.700858 69.642129 
L 401.700858 69.535093 
L 401.700858 69.42796 
L 401.206461 69.448624 
L 401.206461 69.341259 
L 401.206461 69.126238 
L 400.876862 69.139772 
L 400.876862 69.032025 
L 400.876862 68.491826 
L 400.217665 68.409347 
L 400.217665 68.30073 
L 399.723267 68.320044 
L 399.723267 68.211188 
L 399.723267 67.884027 
L 399.228869 67.793439 
L 399.228869 67.683945 
L 399.06407 67.690131 
L 399.06407 67.58049 
L 399.06407 67.470749 
L 398.899271 67.476845 
L 398.899271 67.366957 
L 398.899271 67.146877 
L 398.734472 67.152836 
L 398.734472 67.042597 
L 398.734472 66.932257 
L 398.240074 66.839294 
L 398.240074 66.728607 
L 398.075275 66.734396 
L 398.075275 66.623558 
L 398.075275 66.512619 
L 397.745676 66.524018 
L 397.745676 66.41288 
L 397.745676 66.301638 
L 397.416078 66.312864 
L 397.416078 65.530605 
L 397.251278 65.535881 
L 397.251278 65.311347 
L 397.086479 65.316529 
L 397.086479 65.204056 
L 396.592081 65.219481 
L 396.592081 64.880983 
L 395.603286 64.911059 
L 395.603286 64.229393 
L 395.438486 64.234117 
L 395.438486 64.005941 
L 395.108888 64.015197 
L 395.108888 63.900845 
L 394.944089 63.905428 
L 394.944089 63.790917 
L 394.61449 63.799992 
L 394.61449 63.685271 
L 393.955293 63.703264 
L 393.955293 63.588226 
L 393.790494 63.592683 
L 393.790494 63.477484 
L 393.460895 63.486306 
L 393.460895 63.370894 
L 392.801698 63.388377 
L 392.801698 63.272645 
L 392.3073 63.285642 
L 392.3073 63.169641 
L 392.142501 63.173929 
L 392.142501 62.825104 
L 391.648103 62.837511 
L 391.648103 62.720854 
L 391.153706 62.733136 
L 391.153706 62.616206 
L 390.824107 62.624306 
L 390.824107 62.507156 
L 390.494509 62.515163 
L 390.494509 62.397793 
L 389.670512 62.417605 
L 389.670512 62.29985 
L 389.340914 62.307692 
L 389.340914 62.071623 
L 389.011315 62.07926 
L 389.011315 61.960945 
L 388.846516 61.964714 
L 388.846516 61.608915 
L 388.516917 61.616131 
L 388.516917 61.497191 
L 387.692921 61.515013 
L 387.692921 61.395678 
L 386.539326 61.42038 
L 386.539326 61.180571 
L 385.220932 61.208098 
L 385.220932 60.966907 
L 384.726534 60.976941 
L 384.726534 60.855996 
L 384.232137 60.865886 
L 384.232137 60.744649 
L 382.748943 60.77397 
L 382.748943 60.652089 
L 381.924947 60.668198 
L 381.924947 60.545902 
L 381.430549 60.555429 
L 381.430549 60.432834 
L 380.936151 60.442211 
L 380.936151 60.319316 
L 380.606553 60.325463 
L 380.606553 60.079067 
L 379.288159 60.102819 
L 379.288159 59.978955 
L 378.793761 59.987729 
L 378.793761 59.863559 
L 377.310568 59.889491 
L 377.310568 59.764645 
L 377.145768 59.76748 
L 377.145768 59.517286 
L 376.321772 59.530883 
L 376.321772 59.405286 
L 375.497776 59.41864 
L 375.497776 59.292603 
L 374.50898 59.30834 
L 374.50898 59.181798 
L 373.684984 59.194669 
L 373.684984 59.067681 
L 373.025787 59.07777 
L 373.025787 58.950397 
L 371.707393 58.970186 
L 371.707393 58.842167 
L 371.377794 58.84701 
L 371.377794 58.718729 
L 370.224199 58.735304 
L 370.224199 58.606434 
L 369.235404 58.620343 
L 369.235404 58.490944 
L 366.928214 58.522806 
L 366.928214 58.392339 
L 365.939419 58.405734 
L 365.939419 58.143579 
L 365.280222 58.152013 
L 365.280222 58.020456 
L 364.785824 58.026599 
L 364.785824 57.894698 
L 364.126627 57.902644 
L 364.126627 57.770328 
L 361.654638 57.799385 
L 361.654638 57.665881 
L 360.995441 57.673427 
L 360.995441 57.539498 
L 359.677047 57.554118 
L 359.677047 57.419477 
L 359.182649 57.424777 
L 359.182649 57.154626 
L 358.85305 57.157881 
L 358.85305 57.022442 
L 357.864255 57.031813 
L 357.864255 56.895792 
L 355.557065 56.916867 
L 355.557065 56.779665 
L 349.459492 56.834145 
L 349.459492 56.693983 
L 348.635496 56.70113 
L 348.635496 56.560422 
L 347.976299 56.565855 
L 347.976299 56.283336 
L 343.856317 56.313863 
L 343.856317 56.170362 
L 340.230734 56.196146 
L 340.230734 56.050667 
L 337.593946 56.068486 
L 337.593946 55.921487 
L 334.957157 55.938265 
L 334.957157 55.789714 
L 332.485168 55.804417 
L 332.485168 55.654369 
L 330.837176 55.663424 
L 330.837176 55.512302 
L 327.870789 55.527238 
L 327.870789 55.374291 
L 323.091611 55.396329 
L 323.091611 55.240465 
L 319.301228 55.256276 
L 319.301228 55.097977 
L 317.653235 55.104 
L 317.653235 54.944505 
L 316.994038 54.946533 
L 316.994038 54.786433 
L 305.29329 54.816701 
L 305.29329 54.648861 
L 292.274149 54.67681 
L 292.274149 54.499456 
L 286.670974 54.508138 
L 286.670974 54.3262 
L 284.034186 54.32832 
L 284.034186 54.144 
L 57.6 54.144 
L 57.6 54.144 
" style="fill:none;stroke:#7e7c0f;stroke-linecap:square;stroke-width:2;"/>
   </g>
   <g id="line2d_15">
    <path clip-path="url(#pd2ecfc6f92)" d="M 414.72 264.996995 
L 413.1328 265.154583 
L 413.1328 265.059236 
L 413.1328 258.516965 
L 411.5456 258.693758 
L 411.5456 258.609026 
L 411.5456 250.030925 
L 409.9584 250.230606 
L 409.9584 250.172082 
L 409.9584 249.995791 
L 408.3712 250.196459 
L 408.3712 250.1376 
L 408.3712 246.169263 
L 406.784 246.380048 
L 406.784 246.312791 
L 406.784 232.541201 
L 405.1968 232.781628 
L 405.1968 232.68068 
L 405.1968 213.510508 
L 402.0224 214.052571 
L 402.0224 213.572923 
L 400.4352 213.845918 
L 400.4352 211.374791 
L 398.848 211.651606 
L 398.848 210.107077 
L 397.2608 210.386581 
L 397.2608 184.877756 
L 395.6736 185.174204 
L 395.6736 182.912591 
L 394.0864 183.210667 
L 394.0864 182.048299 
L 392.4992 182.347841 
L 392.4992 179.651368 
L 390.912 179.952345 
L 390.912 155.52 
L 389.3248 155.810476 
L 389.3248 145.102528 
L 387.7376 145.3824 
L 387.7376 144.378056 
L 386.1504 144.658286 
L 386.1504 144.150729 
L 384.5632 144.432 
L 384.5632 131.203459 
L 382.976 131.464678 
L 382.976 129.655233 
L 379.8016 130.176 
L 379.8016 127.694769 
L 378.2144 127.952842 
L 378.2144 126.683364 
L 375.04 127.199658 
L 375.04 125.253065 
L 373.4528 125.509776 
L 373.4528 124.850087 
L 371.8656 125.1072 
L 371.8656 123.770374 
L 370.2784 124.026353 
L 370.2784 120.588944 
L 368.6912 120.838737 
L 368.6912 120.134038 
L 367.104 120.384 
L 367.104 116.7701 
L 365.5168 117.012837 
L 365.5168 114.011717 
L 363.9296 114.248348 
L 363.9296 111.92832 
L 362.3424 112.160386 
L 362.3424 110.578008 
L 360.7552 110.807415 
L 360.7552 110.004245 
L 359.168 110.23318 
L 359.168 106.104502 
L 357.5808 106.322824 
L 357.5808 104.61722 
L 355.9936 104.832 
L 355.9936 103.965538 
L 354.4064 104.179365 
L 354.4064 103.302621 
L 352.8192 103.515429 
L 352.8192 98.0736 
L 349.6448 98.467587 
L 349.6448 97.525622 
L 344.8832 98.11989 
L 344.8832 95.210667 
L 343.296 95.401674 
L 343.296 94.410168 
L 341.7088 94.599211 
L 341.7088 93.594566 
L 340.1216 93.781536 
L 340.1216 92.763429 
L 338.5344 92.948211 
L 338.5344 89.822447 
L 336.9472 89.996488 
L 336.9472 86.76499 
L 335.36 86.927284 
L 335.36 84.709628 
L 333.7728 84.864 
L 333.7728 82.591347 
L 330.5984 82.884619 
L 330.5984 81.720373 
L 329.0112 81.864 
L 329.0112 77.061447 
L 327.424 77.184 
L 327.424 74.693189 
L 325.8368 74.80487 
L 325.8368 72.246857 
L 321.0752 72.550257 
L 321.0752 68.544 
L 316.3136 68.793711 
L 316.3136 67.405395 
L 314.7264 67.482947 
L 314.7264 66.070588 
L 305.2032 66.506927 
L 305.2032 63.530667 
L 303.616 63.588969 
L 303.616 62.064 
L 287.744 62.592 
L 287.744 60.947758 
L 282.9824 61.087562 
L 282.9824 59.387586 
L 278.2208 59.498366 
L 278.2208 57.738894 
L 241.7152 58.439593 
L 214.7328 59.162614 
L 198.8608 59.71411 
L 198.8608 56.96 
L 173.4656 57.568865 
L 154.4192 58.231742 
L 140.1344 58.925887 
L 129.024 59.653565 
L 127.4368 59.776 
L 127.4368 54.144 
L 57.6 54.144 
L 57.6 54.144 
" style="fill:none;stroke:#012ca2;stroke-linecap:square;stroke-width:2;"/>
   </g>
   <g id="line2d_16">
    <path clip-path="url(#pd2ecfc6f92)" d="M 414.72 189.646574 
L 414.60826 189.666307 
L 414.60826 189.563187 
L 414.60826 182.198308 
L 414.496521 182.21814 
L 414.496521 182.120987 
L 414.496521 176.726037 
L 414.384781 176.745856 
L 414.384781 176.64 
L 414.384781 172.666708 
L 414.273041 172.686471 
L 414.273041 172.573907 
L 414.273041 172.348213 
L 414.161302 172.367976 
L 414.161302 172.277485 
L 414.161302 168.340364 
L 414.049562 168.360029 
L 414.049562 168.264062 
L 414.049562 157.28216 
L 413.937822 157.301337 
L 413.937822 157.189478 
L 413.937822 149.790138 
L 413.826083 149.808815 
L 413.826083 149.716333 
L 413.826083 145.601899 
L 413.602603 145.638585 
L 413.602603 145.541086 
L 413.602603 145.313132 
L 413.490864 145.331457 
L 413.490864 145.233558 
L 413.490864 143.916847 
L 413.379124 143.935053 
L 413.379124 143.835429 
L 413.379124 143.067596 
L 413.267384 143.085729 
L 413.267384 142.985037 
L 413.267384 142.91784 
L 413.155645 142.935964 
L 413.155645 142.835056 
L 413.155645 136.618115 
L 413.043905 136.635603 
L 413.043905 136.526788 
L 413.043905 134.134637 
L 412.820426 134.131737 
L 412.820426 134.057022 
L 412.820426 134.01964 
L 412.708686 134.036851 
L 412.708686 133.924595 
L 412.708686 133.586955 
L 412.596946 133.604121 
L 412.596946 133.528903 
L 412.596946 132.962686 
L 412.485207 132.979783 
L 412.485207 132.904 
L 412.485207 132.790202 
L 412.373467 132.807284 
L 412.373467 132.731327 
L 412.373467 131.31412 
L 412.261727 131.331029 
L 412.261727 131.253759 
L 412.261727 130.749847 
L 412.149987 130.766691 
L 412.149987 130.688901 
L 412.149987 128.562379 
L 412.038248 128.57895 
L 412.038248 128.499197 
L 412.038248 128.099365 
L 411.814768 128.092311 
L 411.814768 128.052201 
L 411.814768 128.012073 
L 411.703029 128.028588 
L 411.703029 127.948268 
L 411.703029 127.343569 
L 411.591289 127.36 
L 411.591289 127.279055 
L 411.591289 127.157501 
L 411.479549 127.173912 
L 411.479549 127.092774 
L 411.479549 126.970931 
L 411.36781 126.987322 
L 411.36781 126.905991 
L 411.36781 125.139471 
L 411.25607 125.155617 
L 411.25607 125.072601 
L 411.25607 122.802245 
L 411.14433 122.818065 
L 411.14433 122.73288 
L 411.14433 120.925676 
L 411.032591 120.941225 
L 411.032591 120.854273 
L 411.032591 115.806316 
L 410.920851 115.821071 
L 410.920851 115.729253 
L 410.920851 115.268838 
L 410.809111 115.28351 
L 410.809111 115.191147 
L 410.809111 115.144932 
L 410.585632 115.081725 
L 410.585632 113.964421 
L 410.473892 113.978891 
L 410.473892 113.885181 
L 410.473892 112.89572 
L 410.362153 112.910015 
L 410.362153 112.815237 
L 410.362153 110.609583 
L 410.250413 110.623488 
L 410.250413 110.526439 
L 410.250413 110.283398 
L 410.138673 110.297249 
L 410.138673 110.199848 
L 410.138673 109.368036 
L 410.026934 109.381729 
L 410.026934 109.28339 
L 410.026934 109.135698 
L 409.915194 109.149354 
L 409.915194 109.050753 
L 409.915194 109.001416 
L 409.803454 109.015051 
L 409.803454 108.916286 
L 409.803454 108.866866 
L 409.691715 108.880482 
L 409.691715 108.78155 
L 409.691715 108.632969 
L 409.579975 108.646547 
L 409.579975 108.547351 
L 409.579975 108.398371 
L 409.468235 108.411911 
L 409.468235 108.312449 
L 409.468235 108.262681 
L 409.356496 108.276201 
L 409.356496 108.176572 
L 409.356496 108.026941 
L 409.244756 108.040422 
L 409.244756 107.940526 
L 409.244756 107.840529 
L 409.133016 107.85398 
L 409.133016 107.753865 
L 409.133016 107.603503 
L 409.021277 107.616915 
L 409.021277 107.51653 
L 409.021277 106.557821 
L 408.909537 106.571043 
L 408.909537 106.469573 
L 408.909537 105.756401 
L 408.797797 105.769478 
L 408.797797 105.667163 
L 408.797797 104.119908 
L 408.686058 104.132677 
L 408.686058 104.028663 
L 408.686058 103.820315 
L 408.574318 103.83303 
L 408.574318 103.728676 
L 408.574318 103.519647 
L 408.239099 103.452912 
L 408.239099 102.769496 
L 408.127359 102.782022 
L 408.127359 102.676454 
L 408.127359 102.517897 
L 408.01562 102.530378 
L 408.01562 102.424516 
L 408.01562 101.413354 
L 407.90388 101.425619 
L 407.90388 101.318579 
L 407.90388 101.211429 
L 407.680401 101.182253 
L 407.680401 101.128587 
L 407.680401 100.967419 
L 407.568661 100.979606 
L 407.568661 100.872 
L 407.568661 100.65645 
L 407.456921 100.668579 
L 407.456921 100.560614 
L 407.456921 100.506589 
L 407.233442 100.530799 
L 407.233442 100.422621 
L 407.233442 99.77117 
L 406.674743 99.721947 
L 406.674743 99.503432 
L 406.451264 99.472564 
L 406.451264 99.417812 
L 406.451264 99.198517 
L 406.339524 99.210386 
L 406.339524 99.100542 
L 406.339524 98.825425 
L 406.227785 98.837221 
L 406.227785 98.726948 
L 406.227785 98.340073 
L 405.780826 98.331472 
L 405.780826 98.276012 
L 405.780826 98.109454 
L 405.669086 98.121119 
L 405.669086 98.009909 
L 405.669086 97.95426 
L 405.333867 97.87773 
L 405.333867 97.710323 
L 405.110388 97.733521 
L 405.110388 97.677635 
L 405.110388 97.285601 
L 404.998648 97.297114 
L 404.998648 97.240978 
L 404.998648 96.903529 
L 404.886909 96.914965 
L 404.886909 96.858607 
L 404.886909 96.350018 
L 404.775169 96.361339 
L 404.775169 96.304665 
L 404.775169 96.247961 
L 404.663429 96.259264 
L 404.663429 96.202518 
L 404.663429 95.747445 
L 404.43995 95.769848 
L 404.43995 95.712802 
L 404.43995 95.484307 
L 404.32821 95.495456 
L 404.32821 95.438243 
L 404.32821 95.266419 
L 404.216471 95.277524 
L 404.216471 95.220175 
L 404.216471 95.105384 
L 403.992991 95.07007 
L 403.992991 94.724612 
L 403.881252 94.73561 
L 403.881252 94.677912 
L 403.881252 94.446806 
L 403.769512 94.457746 
L 403.769512 94.399878 
L 403.769512 94.341979 
L 403.657772 94.3529 
L 403.657772 94.294957 
L 403.657772 93.946635 
L 403.546033 93.957471 
L 403.546033 93.899294 
L 403.546033 93.140097 
L 403.434293 93.150758 
L 403.434293 93.092121 
L 403.434293 92.503989 
L 403.210814 92.525037 
L 403.210814 92.46602 
L 403.210814 92.347888 
L 403.099074 92.358381 
L 403.099074 92.299253 
L 403.099074 92.121674 
L 402.875594 92.142569 
L 402.875594 92.083285 
L 402.875594 91.905234 
L 402.763855 91.915636 
L 402.763855 91.856207 
L 402.763855 91.55857 
L 402.540375 91.579229 
L 402.540375 91.519576 
L 402.540375 90.921225 
L 402.428636 90.931413 
L 402.428636 90.871382 
L 402.428636 90.811317 
L 402.316896 90.821483 
L 402.316896 90.761371 
L 402.316896 90.580836 
L 401.981677 90.550913 
L 401.981677 90.30943 
L 401.869937 90.319492 
L 401.869937 90.259024 
L 401.869937 90.077415 
L 401.758198 90.087427 
L 401.758198 90.026809 
L 401.758198 89.601537 
L 401.646458 89.611441 
L 401.646458 89.550538 
L 401.646458 89.123261 
L 401.534718 89.133056 
L 401.534718 89.071866 
L 401.534718 89.010641 
L 401.422979 89.020413 
L 401.422979 88.959139 
L 401.422979 88.897831 
L 401.199499 88.917333 
L 401.199499 88.855962 
L 401.199499 88.240347 
L 400.97602 88.197769 
L 400.97602 88.135953 
L 400.86428 88.145533 
L 400.86428 88.083667 
L 400.86428 87.835854 
L 400.752541 87.845366 
L 400.752541 87.783311 
L 400.752541 87.72122 
L 400.640801 87.730708 
L 400.640801 87.668568 
L 400.640801 87.419654 
L 400.529061 87.429072 
L 400.529061 87.366741 
L 400.529061 86.364614 
L 400.305582 86.319986 
L 400.305582 86.067762 
L 400.193842 86.076862 
L 400.193842 86.013701 
L 400.193842 85.88727 
L 400.082103 85.896329 
L 400.082103 85.833044 
L 400.082103 85.516075 
L 399.970363 85.525047 
L 399.970363 85.461529 
L 399.970363 85.270756 
L 399.746884 85.288589 
L 399.746884 85.224894 
L 399.746884 85.161163 
L 399.635144 85.170055 
L 399.635144 85.106271 
L 399.635144 84.978594 
L 399.523404 84.987444 
L 399.523404 84.923535 
L 399.523404 84.859589 
L 399.411665 84.868413 
L 399.411665 84.804414 
L 399.411665 84.676306 
L 399.188185 84.629732 
L 399.188185 84.308473 
L 399.076446 84.317168 
L 399.076446 84.252789 
L 399.076446 83.865733 
L 398.852966 83.818241 
L 398.852966 83.753532 
L 398.629487 83.770667 
L 398.629487 83.705887 
L 398.629487 83.64107 
L 398.406008 83.593273 
L 398.406008 83.463385 
L 398.182528 83.480397 
L 398.182528 83.415364 
L 398.182528 83.285185 
L 397.735569 83.253858 
L 397.735569 83.188607 
L 397.62383 83.197058 
L 397.62383 83.131753 
L 397.62383 83.00103 
L 397.51209 83.009435 
L 397.51209 82.944 
L 397.51209 82.878526 
L 397.40035 82.886904 
L 397.40035 82.821375 
L 397.40035 82.558879 
L 397.065131 82.58379 
L 397.065131 82.518019 
L 397.065131 82.386363 
L 396.953392 82.394626 
L 396.953392 82.328723 
L 396.953392 82.262782 
L 396.729912 82.279255 
L 396.729912 82.213241 
L 396.729912 82.014968 
L 396.506433 81.965121 
L 396.506433 81.567087 
L 396.282954 81.516713 
L 396.282954 81.250282 
L 396.059474 81.199523 
L 396.059474 81.132743 
L 395.947735 81.140707 
L 395.947735 81.07387 
L 395.947735 81.006994 
L 395.612516 80.96384 
L 395.612516 80.896833 
L 395.277297 80.853485 
L 395.277297 80.719166 
L 394.942078 80.742802 
L 394.942078 80.67553 
L 394.942078 80.608218 
L 394.495119 80.639658 
L 394.495119 80.572235 
L 394.495119 80.369727 
L 394.383379 80.377528 
L 394.383379 80.309927 
L 394.383379 80.242286 
L 394.04816 80.265609 
L 394.04816 80.197874 
L 394.04816 80.062283 
L 393.601202 80.09323 
L 393.601202 80.025302 
L 393.601202 79.753184 
L 393.489462 79.760842 
L 393.489462 79.692693 
L 393.489462 79.624503 
L 393.265982 79.571493 
L 393.265982 79.366446 
L 392.930763 79.389149 
L 392.930763 79.320663 
L 392.930763 79.183568 
L 392.707284 79.129969 
L 392.707284 78.923783 
L 392.595544 78.93124 
L 392.595544 78.862411 
L 392.595544 78.793539 
L 392.036846 78.830707 
L 392.036846 78.761701 
L 392.036846 78.554435 
L 391.478148 78.591342 
L 391.478148 78.522076 
L 391.478148 78.383419 
L 390.58423 78.37271 
L 390.58423 78.233499 
L 390.360751 78.248139 
L 390.360751 78.178432 
L 390.360751 77.969056 
L 390.249011 77.976307 
L 390.249011 77.906411 
L 390.249011 77.836473 
L 390.025532 77.85091 
L 390.025532 77.780891 
L 390.025532 77.640725 
L 389.802053 77.655065 
L 389.802053 77.584879 
L 389.802053 77.374064 
L 389.690313 77.381164 
L 389.690313 77.310787 
L 389.690313 77.028848 
L 389.355094 77.049882 
L 389.355094 76.979231 
L 389.355094 76.837799 
L 389.131615 76.780906 
L 389.131615 76.212775 
L 388.796395 76.233165 
L 388.796395 76.161893 
L 388.796395 76.090576 
L 388.461176 76.039464 
L 388.461176 75.896492 
L 388.237697 75.909931 
L 388.237697 75.838339 
L 388.237697 75.766702 
L 387.902478 75.786772 
L 387.902478 75.715031 
L 387.902478 75.643245 
L 387.678999 75.584694 
L 387.678999 75.296765 
L 387.34378 75.316472 
L 387.34378 75.244317 
L 387.34378 75.172117 
L 386.673342 75.13903 
L 386.673342 74.994159 
L 386.561602 75.000658 
L 386.561602 74.928135 
L 386.561602 74.855566 
L 386.338123 74.795839 
L 386.338123 74.5776 
L 386.114643 74.5175 
L 386.114643 74.152421 
L 386.002904 74.158691 
L 386.002904 74.085517 
L 386.002904 74.012297 
L 385.220726 73.982592 
L 385.220726 73.835626 
L 384.997247 73.848023 
L 384.997247 73.774428 
L 384.997247 73.700787 
L 384.438548 73.65784 
L 384.438548 73.584 
L 383.991589 73.534604 
L 383.991589 73.460584 
L 383.87985 73.466695 
L 383.87985 73.392608 
L 383.87985 73.170063 
L 383.76811 73.176091 
L 383.76811 73.101794 
L 383.76811 73.02745 
L 383.544631 73.039431 
L 383.544631 72.964997 
L 383.544631 72.890514 
L 383.209412 72.83379 
L 383.209412 72.759148 
L 382.874193 72.776922 
L 382.874193 72.702166 
L 382.874193 72.477614 
L 382.427234 72.425979 
L 382.427234 71.899393 
L 382.203755 71.835297 
L 382.203755 71.759785 
L 381.756796 71.706733 
L 381.756796 71.631035 
L 381.645056 71.636648 
L 381.645056 71.560879 
L 381.645056 71.48506 
L 381.421577 71.420296 
L 381.421577 71.344335 
L 380.974618 71.366493 
L 380.974618 71.290392 
L 380.974618 71.214242 
L 380.52766 71.159985 
L 380.52766 70.85433 
L 380.41592 70.859732 
L 380.41592 70.783172 
L 380.41592 70.399627 
L 379.968961 70.343766 
L 379.968961 70.266765 
L 379.745482 70.20014 
L 379.745482 70.122993 
L 379.186783 70.071685 
L 379.186783 69.684352 
L 378.739825 69.62694 
L 378.739825 69.549176 
L 377.845907 69.511552 
L 377.845907 69.277228 
L 377.622428 69.208906 
L 377.622428 69.130597 
L 377.510688 69.135522 
L 377.510688 69.057136 
L 377.510688 68.743078 
L 377.398949 68.747885 
L 377.398949 68.669217 
L 377.398949 68.590498 
L 377.175469 68.600024 
L 377.175469 68.521203 
L 377.175469 68.442331 
L 376.95199 68.372798 
L 376.95199 68.135564 
L 376.728511 68.14482 
L 376.728511 68.065588 
L 376.728511 67.986304 
L 376.169812 67.929791 
L 376.169812 67.691092 
L 376.058073 67.695591 
L 376.058073 67.615894 
L 376.058073 67.45634 
L 375.611114 67.39411 
L 375.611114 67.3141 
L 375.387635 67.242766 
L 375.387635 67.162599 
L 375.275895 67.166943 
L 375.275895 67.086697 
L 375.275895 67.006397 
L 374.381977 66.960289 
L 374.381977 66.879678 
L 373.935019 66.816 
L 373.935019 66.735178 
L 373.48806 66.752108 
L 373.48806 66.671128 
L 373.48806 66.509007 
L 373.37632 66.513169 
L 373.37632 66.432 
L 373.37632 66.269499 
L 373.041101 66.200356 
L 373.041101 66.11889 
L 372.705882 66.131027 
L 372.705882 66.049428 
L 372.705882 65.967773 
L 372.482403 65.975773 
L 372.482403 65.89401 
L 372.482403 65.812192 
L 372.258924 65.820098 
L 372.258924 65.738171 
L 372.258924 65.65619 
L 371.588486 65.597456 
L 371.588486 65.432895 
L 371.476746 65.436735 
L 371.476746 65.354344 
L 371.476746 65.271897 
L 371.029787 65.204457 
L 371.029787 65.12179 
L 370.471089 65.057684 
L 370.471089 64.974769 
L 370.359349 64.978473 
L 370.359349 64.895475 
L 370.359349 64.812419 
L 369.688911 64.751094 
L 369.688911 64.667761 
L 369.130213 64.602322 
L 369.130213 64.435094 
L 368.794994 64.361946 
L 368.794994 64.278105 
L 368.459775 64.204614 
L 368.459775 63.952321 
L 368.012816 63.88157 
L 368.012816 63.712743 
L 367.901076 63.716058 
L 367.901076 63.631529 
L 367.901076 63.54694 
L 367.454118 63.56 
L 367.454118 63.47524 
L 367.454118 63.305543 
L 366.5602 63.245925 
L 366.5602 63.1607 
L 365.666283 63.100417 
L 365.666283 63.014844 
L 364.660626 63.042876 
L 364.660626 62.956982 
L 364.660626 62.871027 
L 363.31975 62.821614 
L 363.31975 62.735186 
L 363.09627 62.741258 
L 363.09627 62.65471 
L 363.09627 62.481432 
L 361.978874 62.424 
L 361.978874 62.336909 
L 360.302778 62.293196 
L 360.302778 62.20553 
L 360.079299 62.123506 
L 360.079299 62.035654 
L 358.291464 61.9927 
L 358.291464 61.904231 
L 356.838849 61.851806 
L 356.838849 61.762805 
L 355.944931 61.695628 
L 355.944931 61.606246 
L 355.721452 61.611676 
L 355.721452 61.522166 
L 355.721452 61.432591 
L 354.268836 61.377194 
L 354.268836 61.196889 
L 354.157096 61.199473 
L 354.157096 61.109189 
L 354.157096 61.018839 
L 352.145782 60.973502 
L 352.145782 60.882434 
L 350.804906 60.820898 
L 350.804906 60.729301 
L 350.134468 60.652135 
L 350.134468 60.560203 
L 349.128811 60.581774 
L 349.128811 60.489471 
L 349.128811 60.397099 
L 348.458373 60.318513 
L 348.458373 60.2258 
L 347.676195 60.148784 
L 347.676195 60.055693 
L 347.117497 59.973502 
L 347.117497 59.8801 
L 344.770964 59.831699 
L 344.770964 59.737425 
L 344.324005 59.651465 
L 344.324005 59.367573 
L 343.430088 59.288512 
L 343.430088 59.193379 
L 342.75965 59.109594 
L 342.75965 59.0141 
L 341.418773 58.940663 
L 341.418773 58.844587 
L 337.396145 58.813416 
L 337.396145 58.715859 
L 334.937872 58.657178 
L 334.937872 58.558632 
L 333.820476 58.477169 
L 333.820476 58.378081 
L 332.591339 58.297094 
L 332.591339 58.197419 
L 327.674793 58.168495 
L 327.674793 58.0669 
L 325.55174 57.995039 
L 325.55174 57.789869 
L 324.769562 57.697386 
L 324.769562 57.594297 
L 322.534768 57.518981 
L 322.534768 57.414874 
L 319.964756 57.341309 
L 319.964756 57.236032 
L 313.483855 57.205398 
L 313.483855 57.097336 
L 309.461227 57.034105 
L 309.461227 56.924167 
L 308.790788 56.821183 
L 308.790788 56.710764 
L 303.315544 56.767366 
L 303.315544 56.654437 
L 298.510738 56.704 
L 298.510738 56.588759 
L 295.046809 56.624075 
L 295.046809 56.507077 
L 293.705932 56.520371 
L 293.705932 56.402612 
L 291.02418 56.428326 
L 291.02418 56.189812 
L 288.901126 56.208437 
L 288.901126 56.087931 
L 288.007209 56.095415 
L 288.007209 55.974332 
L 286.442854 55.986753 
L 286.442854 55.864737 
L 285.884155 55.86892 
L 285.884155 55.74649 
L 282.420225 55.771022 
L 282.420225 55.646609 
L 277.838899 55.677676 
L 277.838899 55.550579 
L 274.598448 55.571465 
L 274.598448 55.442361 
L 273.145832 55.451065 
L 273.145832 55.320966 
L 272.140175 55.326457 
L 272.140175 55.064643 
L 262.083605 55.109749 
L 262.083605 54.972235 
L 253.814869 55.007019 
L 253.814869 54.863591 
L 249.345282 54.880316 
L 249.345282 54.733395 
L 246.216571 54.743149 
L 246.216571 54.593627 
L 244.205257 54.598465 
L 244.205257 54.447158 
L 241.858723 54.451014 
L 241.858723 54.2976 
L 168.445757 54.399227 
L 168.445757 54.144 
L 57.6 54.144 
L 57.6 54.144 
" style="fill:none;stroke:#ff1493;stroke-dasharray:4,6.6;stroke-dashoffset:0;stroke-width:4;"/>
   </g>
   <g id="line2d_17">
    <path clip-path="url(#pd2ecfc6f92)" d="M 57.6 307.584 
L 414.72 54.144 
" style="fill:none;stroke:#000000;stroke-dasharray:7.4,3.2;stroke-dashoffset:0;stroke-width:2;"/>
   </g>
   <g id="line2d_18">
    <path clip-path="url(#pd2ecfc6f92)" d="M 57.6 307.584 
L 414.72 54.144 
" style="fill:none;stroke:#000000;stroke-dasharray:7.4,3.2;stroke-dashoffset:0;stroke-width:2;"/>
   </g>
   <g id="patch_3">
    <path d="M 57.6 307.584 
L 57.6 41.472 
" style="fill:none;stroke:#000000;stroke-linecap:square;stroke-linejoin:miter;stroke-width:0.8;"/>
   </g>
   <g id="patch_4">
    <path d="M 414.72 307.584 
L 414.72 41.472 
" style="fill:none;stroke:#000000;stroke-linecap:square;stroke-linejoin:miter;stroke-width:0.8;"/>
   </g>
   <g id="patch_5">
    <path d="M 57.6 307.584 
L 414.72 307.584 
" style="fill:none;stroke:#000000;stroke-linecap:square;stroke-linejoin:miter;stroke-width:0.8;"/>
   </g>
   <g id="patch_6">
    <path d="M 57.6 41.472 
L 414.72 41.472 
" style="fill:none;stroke:#000000;stroke-linecap:square;stroke-linejoin:miter;stroke-width:0.8;"/>
   </g>
   <g id="text_15">
    <!-- PR Curves -->
    <g transform="translate(205.63875 35.472)scale(0.12 -0.12)">
     <defs>
      <path id="DejaVuSans-20" transform="scale(0.015625)"/>
      <path d="M 4122 4306 
L 4122 3641 
Q 3803 3938 3442 4084 
Q 3081 4231 2675 4231 
Q 1875 4231 1450 3742 
Q 1025 3253 1025 2328 
Q 1025 1406 1450 917 
Q 1875 428 2675 428 
Q 3081 428 3442 575 
Q 3803 722 4122 1019 
L 4122 359 
Q 3791 134 3420 21 
Q 3050 -91 2638 -91 
Q 1578 -91 968 557 
Q 359 1206 359 2328 
Q 359 3453 968 4101 
Q 1578 4750 2638 4750 
Q 3056 4750 3426 4639 
Q 3797 4528 4122 4306 
z
" id="DejaVuSans-43" transform="scale(0.015625)"/>
      <path d="M 544 1381 
L 544 3500 
L 1119 3500 
L 1119 1403 
Q 1119 906 1312 657 
Q 1506 409 1894 409 
Q 2359 409 2629 706 
Q 2900 1003 2900 1516 
L 2900 3500 
L 3475 3500 
L 3475 0 
L 2900 0 
L 2900 538 
Q 2691 219 2414 64 
Q 2138 -91 1772 -91 
Q 1169 -91 856 284 
Q 544 659 544 1381 
z
M 1991 3584 
L 1991 3584 
z
" id="DejaVuSans-75" transform="scale(0.015625)"/>
      <path d="M 191 3500 
L 800 3500 
L 1894 563 
L 2988 3500 
L 3597 3500 
L 2284 0 
L 1503 0 
L 191 3500 
z
" id="DejaVuSans-76" transform="scale(0.015625)"/>
     </defs>
     <use xlink:href="#DejaVuSans-50"/>
     <use x="60.302734" xlink:href="#DejaVuSans-52"/>
     <use x="129.785156" xlink:href="#DejaVuSans-20"/>
     <use x="161.572266" xlink:href="#DejaVuSans-43"/>
     <use x="231.396484" xlink:href="#DejaVuSans-75"/>
     <use x="294.775391" xlink:href="#DejaVuSans-72"/>
     <use x="335.888672" xlink:href="#DejaVuSans-76"/>
     <use x="395.068359" xlink:href="#DejaVuSans-65"/>
     <use x="456.591797" xlink:href="#DejaVuSans-73"/>
    </g>
   </g>
   <g id="legend_1">
    <g id="patch_7">
     <path d="M 64.6 302.584 
L 334.28125 302.584 
Q 336.28125 302.584 336.28125 300.584 
L 336.28125 242.8715 
Q 336.28125 240.8715 334.28125 240.8715 
L 64.6 240.8715 
Q 62.6 240.8715 62.6 242.8715 
L 62.6 300.584 
Q 62.6 302.584 64.6 302.584 
z
" style="fill:#ffffff;opacity:0.8;stroke:#cccccc;stroke-linejoin:miter;"/>
    </g>
    <g id="line2d_19">
     <path d="M 66.6 248.969937 
L 86.6 248.969937 
" style="fill:none;stroke:#bc2a79;stroke-linecap:square;stroke-width:2;"/>
    </g>
    <g id="line2d_20"/>
    <g id="text_16">
     <!-- PR curve of Effector Memory CD4 (area = 0.94) -->
     <g transform="translate(94.6 252.469937)scale(0.1 -0.1)">
      <defs>
       <path d="M 2375 4863 
L 2375 4384 
L 1825 4384 
Q 1516 4384 1395 4259 
Q 1275 4134 1275 3809 
L 1275 3500 
L 2222 3500 
L 2222 3053 
L 1275 3053 
L 1275 0 
L 697 0 
L 697 3053 
L 147 3053 
L 147 3500 
L 697 3500 
L 697 3744 
Q 697 4328 969 4595 
Q 1241 4863 1831 4863 
L 2375 4863 
z
" id="DejaVuSans-66" transform="scale(0.015625)"/>
       <path d="M 628 4666 
L 3578 4666 
L 3578 4134 
L 1259 4134 
L 1259 2753 
L 3481 2753 
L 3481 2222 
L 1259 2222 
L 1259 531 
L 3634 531 
L 3634 0 
L 628 0 
L 628 4666 
z
" id="DejaVuSans-45" transform="scale(0.015625)"/>
       <path d="M 1172 4494 
L 1172 3500 
L 2356 3500 
L 2356 3053 
L 1172 3053 
L 1172 1153 
Q 1172 725 1289 603 
Q 1406 481 1766 481 
L 2356 481 
L 2356 0 
L 1766 0 
Q 1100 0 847 248 
Q 594 497 594 1153 
L 594 3053 
L 172 3053 
L 172 3500 
L 594 3500 
L 594 4494 
L 1172 4494 
z
" id="DejaVuSans-74" transform="scale(0.015625)"/>
       <path d="M 628 4666 
L 1569 4666 
L 2759 1491 
L 3956 4666 
L 4897 4666 
L 4897 0 
L 4281 0 
L 4281 4097 
L 3078 897 
L 2444 897 
L 1241 4097 
L 1241 0 
L 628 0 
L 628 4666 
z
" id="DejaVuSans-4d" transform="scale(0.015625)"/>
       <path d="M 3328 2828 
Q 3544 3216 3844 3400 
Q 4144 3584 4550 3584 
Q 5097 3584 5394 3201 
Q 5691 2819 5691 2113 
L 5691 0 
L 5113 0 
L 5113 2094 
Q 5113 2597 4934 2840 
Q 4756 3084 4391 3084 
Q 3944 3084 3684 2787 
Q 3425 2491 3425 1978 
L 3425 0 
L 2847 0 
L 2847 2094 
Q 2847 2600 2669 2842 
Q 2491 3084 2119 3084 
Q 1678 3084 1418 2786 
Q 1159 2488 1159 1978 
L 1159 0 
L 581 0 
L 581 3500 
L 1159 3500 
L 1159 2956 
Q 1356 3278 1631 3431 
Q 1906 3584 2284 3584 
Q 2666 3584 2933 3390 
Q 3200 3197 3328 2828 
z
" id="DejaVuSans-6d" transform="scale(0.015625)"/>
       <path d="M 2059 -325 
Q 1816 -950 1584 -1140 
Q 1353 -1331 966 -1331 
L 506 -1331 
L 506 -850 
L 844 -850 
Q 1081 -850 1212 -737 
Q 1344 -625 1503 -206 
L 1606 56 
L 191 3500 
L 800 3500 
L 1894 763 
L 2988 3500 
L 3597 3500 
L 2059 -325 
z
" id="DejaVuSans-79" transform="scale(0.015625)"/>
       <path d="M 1259 4147 
L 1259 519 
L 2022 519 
Q 2988 519 3436 956 
Q 3884 1394 3884 2338 
Q 3884 3275 3436 3711 
Q 2988 4147 2022 4147 
L 1259 4147 
z
M 628 4666 
L 1925 4666 
Q 3281 4666 3915 4102 
Q 4550 3538 4550 2338 
Q 4550 1131 3912 565 
Q 3275 0 1925 0 
L 628 0 
L 628 4666 
z
" id="DejaVuSans-44" transform="scale(0.015625)"/>
       <path d="M 1984 4856 
Q 1566 4138 1362 3434 
Q 1159 2731 1159 2009 
Q 1159 1288 1364 580 
Q 1569 -128 1984 -844 
L 1484 -844 
Q 1016 -109 783 600 
Q 550 1309 550 2009 
Q 550 2706 781 3412 
Q 1013 4119 1484 4856 
L 1984 4856 
z
" id="DejaVuSans-28" transform="scale(0.015625)"/>
       <path d="M 678 2906 
L 4684 2906 
L 4684 2381 
L 678 2381 
L 678 2906 
z
M 678 1631 
L 4684 1631 
L 4684 1100 
L 678 1100 
L 678 1631 
z
" id="DejaVuSans-3d" transform="scale(0.015625)"/>
       <path d="M 703 97 
L 703 672 
Q 941 559 1184 500 
Q 1428 441 1663 441 
Q 2288 441 2617 861 
Q 2947 1281 2994 2138 
Q 2813 1869 2534 1725 
Q 2256 1581 1919 1581 
Q 1219 1581 811 2004 
Q 403 2428 403 3163 
Q 403 3881 828 4315 
Q 1253 4750 1959 4750 
Q 2769 4750 3195 4129 
Q 3622 3509 3622 2328 
Q 3622 1225 3098 567 
Q 2575 -91 1691 -91 
Q 1453 -91 1209 -44 
Q 966 3 703 97 
z
M 1959 2075 
Q 2384 2075 2632 2365 
Q 2881 2656 2881 3163 
Q 2881 3666 2632 3958 
Q 2384 4250 1959 4250 
Q 1534 4250 1286 3958 
Q 1038 3666 1038 3163 
Q 1038 2656 1286 2365 
Q 1534 2075 1959 2075 
z
" id="DejaVuSans-39" transform="scale(0.015625)"/>
       <path d="M 513 4856 
L 1013 4856 
Q 1481 4119 1714 3412 
Q 1947 2706 1947 2009 
Q 1947 1309 1714 600 
Q 1481 -109 1013 -844 
L 513 -844 
Q 928 -128 1133 580 
Q 1338 1288 1338 2009 
Q 1338 2731 1133 3434 
Q 928 4138 513 4856 
z
" id="DejaVuSans-29" transform="scale(0.015625)"/>
      </defs>
      <use xlink:href="#DejaVuSans-50"/>
      <use x="60.302734" xlink:href="#DejaVuSans-52"/>
      <use x="129.785156" xlink:href="#DejaVuSans-20"/>
      <use x="161.572266" xlink:href="#DejaVuSans-63"/>
      <use x="216.552734" xlink:href="#DejaVuSans-75"/>
      <use x="279.931641" xlink:href="#DejaVuSans-72"/>
      <use x="321.044922" xlink:href="#DejaVuSans-76"/>
      <use x="380.224609" xlink:href="#DejaVuSans-65"/>
      <use x="441.748047" xlink:href="#DejaVuSans-20"/>
      <use x="473.535156" xlink:href="#DejaVuSans-6f"/>
      <use x="534.716797" xlink:href="#DejaVuSans-66"/>
      <use x="569.921875" xlink:href="#DejaVuSans-20"/>
      <use x="601.708984" xlink:href="#DejaVuSans-45"/>
      <use x="664.892578" xlink:href="#DejaVuSans-66"/>
      <use x="700.097656" xlink:href="#DejaVuSans-66"/>
      <use x="735.302734" xlink:href="#DejaVuSans-65"/>
      <use x="796.826172" xlink:href="#DejaVuSans-63"/>
      <use x="851.806641" xlink:href="#DejaVuSans-74"/>
      <use x="891.015625" xlink:href="#DejaVuSans-6f"/>
      <use x="952.197266" xlink:href="#DejaVuSans-72"/>
      <use x="993.310547" xlink:href="#DejaVuSans-20"/>
      <use x="1025.097656" xlink:href="#DejaVuSans-4d"/>
      <use x="1111.376953" xlink:href="#DejaVuSans-65"/>
      <use x="1172.900391" xlink:href="#DejaVuSans-6d"/>
      <use x="1270.3125" xlink:href="#DejaVuSans-6f"/>
      <use x="1331.494141" xlink:href="#DejaVuSans-72"/>
      <use x="1372.607422" xlink:href="#DejaVuSans-79"/>
      <use x="1431.787109" xlink:href="#DejaVuSans-20"/>
      <use x="1463.574219" xlink:href="#DejaVuSans-43"/>
      <use x="1533.398438" xlink:href="#DejaVuSans-44"/>
      <use x="1610.400391" xlink:href="#DejaVuSans-34"/>
      <use x="1674.023438" xlink:href="#DejaVuSans-20"/>
      <use x="1705.810547" xlink:href="#DejaVuSans-28"/>
      <use x="1744.824219" xlink:href="#DejaVuSans-61"/>
      <use x="1806.103516" xlink:href="#DejaVuSans-72"/>
      <use x="1844.966797" xlink:href="#DejaVuSans-65"/>
      <use x="1906.490234" xlink:href="#DejaVuSans-61"/>
      <use x="1967.769531" xlink:href="#DejaVuSans-20"/>
      <use x="1999.556641" xlink:href="#DejaVuSans-3d"/>
      <use x="2083.345703" xlink:href="#DejaVuSans-20"/>
      <use x="2115.132812" xlink:href="#DejaVuSans-30"/>
      <use x="2178.755859" xlink:href="#DejaVuSans-2e"/>
      <use x="2210.542969" xlink:href="#DejaVuSans-39"/>
      <use x="2274.166016" xlink:href="#DejaVuSans-34"/>
      <use x="2337.789062" xlink:href="#DejaVuSans-29"/>
     </g>
    </g>
    <g id="line2d_21">
     <path d="M 66.6 263.648062 
L 86.6 263.648062 
" style="fill:none;stroke:#7e7c0f;stroke-linecap:square;stroke-width:2;"/>
    </g>
    <g id="line2d_22"/>
    <g id="text_17">
     <!-- PR curve of Naive/Central CD4 (area = 0.99) -->
     <g transform="translate(94.6 267.148062)scale(0.1 -0.1)">
      <defs>
       <path d="M 628 4666 
L 1478 4666 
L 3547 763 
L 3547 4666 
L 4159 4666 
L 4159 0 
L 3309 0 
L 1241 3903 
L 1241 0 
L 628 0 
L 628 4666 
z
" id="DejaVuSans-4e" transform="scale(0.015625)"/>
       <path d="M 1625 4666 
L 2156 4666 
L 531 -594 
L 0 -594 
L 1625 4666 
z
" id="DejaVuSans-2f" transform="scale(0.015625)"/>
      </defs>
      <use xlink:href="#DejaVuSans-50"/>
      <use x="60.302734" xlink:href="#DejaVuSans-52"/>
      <use x="129.785156" xlink:href="#DejaVuSans-20"/>
      <use x="161.572266" xlink:href="#DejaVuSans-63"/>
      <use x="216.552734" xlink:href="#DejaVuSans-75"/>
      <use x="279.931641" xlink:href="#DejaVuSans-72"/>
      <use x="321.044922" xlink:href="#DejaVuSans-76"/>
      <use x="380.224609" xlink:href="#DejaVuSans-65"/>
      <use x="441.748047" xlink:href="#DejaVuSans-20"/>
      <use x="473.535156" xlink:href="#DejaVuSans-6f"/>
      <use x="534.716797" xlink:href="#DejaVuSans-66"/>
      <use x="569.921875" xlink:href="#DejaVuSans-20"/>
      <use x="601.708984" xlink:href="#DejaVuSans-4e"/>
      <use x="676.513672" xlink:href="#DejaVuSans-61"/>
      <use x="737.792969" xlink:href="#DejaVuSans-69"/>
      <use x="765.576172" xlink:href="#DejaVuSans-76"/>
      <use x="824.755859" xlink:href="#DejaVuSans-65"/>
      <use x="886.279297" xlink:href="#DejaVuSans-2f"/>
      <use x="919.970703" xlink:href="#DejaVuSans-43"/>
      <use x="989.794922" xlink:href="#DejaVuSans-65"/>
      <use x="1051.318359" xlink:href="#DejaVuSans-6e"/>
      <use x="1114.697266" xlink:href="#DejaVuSans-74"/>
      <use x="1153.90625" xlink:href="#DejaVuSans-72"/>
      <use x="1195.019531" xlink:href="#DejaVuSans-61"/>
      <use x="1256.298828" xlink:href="#DejaVuSans-6c"/>
      <use x="1284.082031" xlink:href="#DejaVuSans-20"/>
      <use x="1315.869141" xlink:href="#DejaVuSans-43"/>
      <use x="1385.693359" xlink:href="#DejaVuSans-44"/>
      <use x="1462.695312" xlink:href="#DejaVuSans-34"/>
      <use x="1526.318359" xlink:href="#DejaVuSans-20"/>
      <use x="1558.105469" xlink:href="#DejaVuSans-28"/>
      <use x="1597.119141" xlink:href="#DejaVuSans-61"/>
      <use x="1658.398438" xlink:href="#DejaVuSans-72"/>
      <use x="1697.261719" xlink:href="#DejaVuSans-65"/>
      <use x="1758.785156" xlink:href="#DejaVuSans-61"/>
      <use x="1820.064453" xlink:href="#DejaVuSans-20"/>
      <use x="1851.851562" xlink:href="#DejaVuSans-3d"/>
      <use x="1935.640625" xlink:href="#DejaVuSans-20"/>
      <use x="1967.427734" xlink:href="#DejaVuSans-30"/>
      <use x="2031.050781" xlink:href="#DejaVuSans-2e"/>
      <use x="2062.837891" xlink:href="#DejaVuSans-39"/>
      <use x="2126.460938" xlink:href="#DejaVuSans-39"/>
      <use x="2190.083984" xlink:href="#DejaVuSans-29"/>
     </g>
    </g>
    <g id="line2d_23">
     <path d="M 66.6 278.326187 
L 86.6 278.326187 
" style="fill:none;stroke:#012ca2;stroke-linecap:square;stroke-width:2;"/>
    </g>
    <g id="line2d_24"/>
    <g id="text_18">
     <!-- PR curve of T-reg CD4 (area = 0.90) -->
     <g transform="translate(94.6 281.826187)scale(0.1 -0.1)">
      <defs>
       <path d="M -19 4666 
L 3928 4666 
L 3928 4134 
L 2272 4134 
L 2272 0 
L 1638 0 
L 1638 4134 
L -19 4134 
L -19 4666 
z
" id="DejaVuSans-54" transform="scale(0.015625)"/>
       <path d="M 313 2009 
L 1997 2009 
L 1997 1497 
L 313 1497 
L 313 2009 
z
" id="DejaVuSans-2d" transform="scale(0.015625)"/>
       <path d="M 2906 1791 
Q 2906 2416 2648 2759 
Q 2391 3103 1925 3103 
Q 1463 3103 1205 2759 
Q 947 2416 947 1791 
Q 947 1169 1205 825 
Q 1463 481 1925 481 
Q 2391 481 2648 825 
Q 2906 1169 2906 1791 
z
M 3481 434 
Q 3481 -459 3084 -895 
Q 2688 -1331 1869 -1331 
Q 1566 -1331 1297 -1286 
Q 1028 -1241 775 -1147 
L 775 -588 
Q 1028 -725 1275 -790 
Q 1522 -856 1778 -856 
Q 2344 -856 2625 -561 
Q 2906 -266 2906 331 
L 2906 616 
Q 2728 306 2450 153 
Q 2172 0 1784 0 
Q 1141 0 747 490 
Q 353 981 353 1791 
Q 353 2603 747 3093 
Q 1141 3584 1784 3584 
Q 2172 3584 2450 3431 
Q 2728 3278 2906 2969 
L 2906 3500 
L 3481 3500 
L 3481 434 
z
" id="DejaVuSans-67" transform="scale(0.015625)"/>
      </defs>
      <use xlink:href="#DejaVuSans-50"/>
      <use x="60.302734" xlink:href="#DejaVuSans-52"/>
      <use x="129.785156" xlink:href="#DejaVuSans-20"/>
      <use x="161.572266" xlink:href="#DejaVuSans-63"/>
      <use x="216.552734" xlink:href="#DejaVuSans-75"/>
      <use x="279.931641" xlink:href="#DejaVuSans-72"/>
      <use x="321.044922" xlink:href="#DejaVuSans-76"/>
      <use x="380.224609" xlink:href="#DejaVuSans-65"/>
      <use x="441.748047" xlink:href="#DejaVuSans-20"/>
      <use x="473.535156" xlink:href="#DejaVuSans-6f"/>
      <use x="534.716797" xlink:href="#DejaVuSans-66"/>
      <use x="569.921875" xlink:href="#DejaVuSans-20"/>
      <use x="601.708984" xlink:href="#DejaVuSans-54"/>
      <use x="653.667969" xlink:href="#DejaVuSans-2d"/>
      <use x="689.751953" xlink:href="#DejaVuSans-72"/>
      <use x="728.615234" xlink:href="#DejaVuSans-65"/>
      <use x="790.138672" xlink:href="#DejaVuSans-67"/>
      <use x="853.615234" xlink:href="#DejaVuSans-20"/>
      <use x="885.402344" xlink:href="#DejaVuSans-43"/>
      <use x="955.226562" xlink:href="#DejaVuSans-44"/>
      <use x="1032.228516" xlink:href="#DejaVuSans-34"/>
      <use x="1095.851562" xlink:href="#DejaVuSans-20"/>
      <use x="1127.638672" xlink:href="#DejaVuSans-28"/>
      <use x="1166.652344" xlink:href="#DejaVuSans-61"/>
      <use x="1227.931641" xlink:href="#DejaVuSans-72"/>
      <use x="1266.794922" xlink:href="#DejaVuSans-65"/>
      <use x="1328.318359" xlink:href="#DejaVuSans-61"/>
      <use x="1389.597656" xlink:href="#DejaVuSans-20"/>
      <use x="1421.384766" xlink:href="#DejaVuSans-3d"/>
      <use x="1505.173828" xlink:href="#DejaVuSans-20"/>
      <use x="1536.960938" xlink:href="#DejaVuSans-30"/>
      <use x="1600.583984" xlink:href="#DejaVuSans-2e"/>
      <use x="1632.371094" xlink:href="#DejaVuSans-39"/>
      <use x="1695.994141" xlink:href="#DejaVuSans-30"/>
      <use x="1759.617188" xlink:href="#DejaVuSans-29"/>
     </g>
    </g>
    <g id="line2d_25">
     <path d="M 66.6 293.004312 
L 86.6 293.004312 
" style="fill:none;stroke:#ff1493;stroke-dasharray:4,6.6;stroke-dashoffset:0;stroke-width:4;"/>
    </g>
    <g id="line2d_26"/>
    <g id="text_19">
     <!-- micro-average PR curve (area = 0.98) -->
     <g transform="translate(94.6 296.504312)scale(0.1 -0.1)">
      <use xlink:href="#DejaVuSans-6d"/>
      <use x="97.412109" xlink:href="#DejaVuSans-69"/>
      <use x="125.195312" xlink:href="#DejaVuSans-63"/>
      <use x="180.175781" xlink:href="#DejaVuSans-72"/>
      <use x="219.039062" xlink:href="#DejaVuSans-6f"/>
      <use x="282.095703" xlink:href="#DejaVuSans-2d"/>
      <use x="318.179688" xlink:href="#DejaVuSans-61"/>
      <use x="379.458984" xlink:href="#DejaVuSans-76"/>
      <use x="438.638672" xlink:href="#DejaVuSans-65"/>
      <use x="500.162109" xlink:href="#DejaVuSans-72"/>
      <use x="541.275391" xlink:href="#DejaVuSans-61"/>
      <use x="602.554688" xlink:href="#DejaVuSans-67"/>
      <use x="666.03125" xlink:href="#DejaVuSans-65"/>
      <use x="727.554688" xlink:href="#DejaVuSans-20"/>
      <use x="759.341797" xlink:href="#DejaVuSans-50"/>
      <use x="819.644531" xlink:href="#DejaVuSans-52"/>
      <use x="889.126953" xlink:href="#DejaVuSans-20"/>
      <use x="920.914062" xlink:href="#DejaVuSans-63"/>
      <use x="975.894531" xlink:href="#DejaVuSans-75"/>
      <use x="1039.273438" xlink:href="#DejaVuSans-72"/>
      <use x="1080.386719" xlink:href="#DejaVuSans-76"/>
      <use x="1139.566406" xlink:href="#DejaVuSans-65"/>
      <use x="1201.089844" xlink:href="#DejaVuSans-20"/>
      <use x="1232.876953" xlink:href="#DejaVuSans-28"/>
      <use x="1271.890625" xlink:href="#DejaVuSans-61"/>
      <use x="1333.169922" xlink:href="#DejaVuSans-72"/>
      <use x="1372.033203" xlink:href="#DejaVuSans-65"/>
      <use x="1433.556641" xlink:href="#DejaVuSans-61"/>
      <use x="1494.835938" xlink:href="#DejaVuSans-20"/>
      <use x="1526.623047" xlink:href="#DejaVuSans-3d"/>
      <use x="1610.412109" xlink:href="#DejaVuSans-20"/>
      <use x="1642.199219" xlink:href="#DejaVuSans-30"/>
      <use x="1705.822266" xlink:href="#DejaVuSans-2e"/>
      <use x="1737.609375" xlink:href="#DejaVuSans-39"/>
      <use x="1801.232422" xlink:href="#DejaVuSans-38"/>
      <use x="1864.855469" xlink:href="#DejaVuSans-29"/>
     </g>
    </g>
   </g>
  </g>
 </g>
 <defs>
  <clipPath id="pd2ecfc6f92">
   <rect height="266.112" width="357.12" x="57.6" y="41.472"/>
  </clipPath>
 </defs>
</svg>
