<?xml version="1.0" encoding="utf-8" standalone="no"?>
<!DOCTYPE svg PUBLIC "-//W3C//DTD SVG 1.1//EN"
  "http://www.w3.org/Graphics/SVG/1.1/DTD/svg11.dtd">
<!-- Created with matplotlib (https://matplotlib.org/) -->
<svg height="288pt" version="1.1" viewBox="0 0 432 288" width="432pt" xmlns="http://www.w3.org/2000/svg" xmlns:xlink="http://www.w3.org/1999/xlink">
 <metadata>
  <rdf:RDF xmlns:cc="http://creativecommons.org/ns#" xmlns:dc="http://purl.org/dc/elements/1.1/" xmlns:rdf="http://www.w3.org/1999/02/22-rdf-syntax-ns#">
   <cc:Work>
    <dc:type rdf:resource="http://purl.org/dc/dcmitype/StillImage"/>
    <dc:date>2021-07-10T13:27:06.206337</dc:date>
    <dc:format>image/svg+xml</dc:format>
    <dc:creator>
     <cc:Agent>
      <dc:title>Matplotlib v3.3.4, https://matplotlib.org/</dc:title>
     </cc:Agent>
    </dc:creator>
   </cc:Work>
  </rdf:RDF>
 </metadata>
 <defs>
  <style type="text/css">*{stroke-linecap:butt;stroke-linejoin:round;}</style>
 </defs>
 <g id="figure_1">
  <g id="patch_1">
   <path d="M 0 288 
L 432 288 
L 432 0 
L 0 0 
z
" style="fill:#ffffff;"/>
  </g>
  <g id="axes_1">
   <g id="patch_2">
    <path d="M 54 252 
L 388.8 252 
L 388.8 34.56 
L 54 34.56 
z
" style="fill:#ffffff;"/>
   </g>
   <g id="matplotlib.axis_1">
    <g id="xtick_1">
     <g id="line2d_1">
      <defs>
       <path d="M 0 0 
L 0 3.5 
" id="m3a8ef23199" style="stroke:#000000;stroke-width:0.8;"/>
      </defs>
      <g>
       <use style="stroke:#000000;stroke-width:0.8;" x="54" xlink:href="#m3a8ef23199" y="252"/>
      </g>
     </g>
     <g id="text_1">
      <!-- 0.0 -->
      <g transform="translate(46.048437 266.598437)scale(0.1 -0.1)">
       <defs>
        <path d="M 31.78125 66.40625 
Q 24.171875 66.40625 20.328125 58.90625 
Q 16.5 51.421875 16.5 36.375 
Q 16.5 21.390625 20.328125 13.890625 
Q 24.171875 6.390625 31.78125 6.390625 
Q 39.453125 6.390625 43.28125 13.890625 
Q 47.125 21.390625 47.125 36.375 
Q 47.125 51.421875 43.28125 58.90625 
Q 39.453125 66.40625 31.78125 66.40625 
z
M 31.78125 74.21875 
Q 44.046875 74.21875 50.515625 64.515625 
Q 56.984375 54.828125 56.984375 36.375 
Q 56.984375 17.96875 50.515625 8.265625 
Q 44.046875 -1.421875 31.78125 -1.421875 
Q 19.53125 -1.421875 13.0625 8.265625 
Q 6.59375 17.96875 6.59375 36.375 
Q 6.59375 54.828125 13.0625 64.515625 
Q 19.53125 74.21875 31.78125 74.21875 
z
" id="DejaVuSans-48"/>
        <path d="M 10.6875 12.40625 
L 21 12.40625 
L 21 0 
L 10.6875 0 
z
" id="DejaVuSans-46"/>
       </defs>
       <use xlink:href="#DejaVuSans-48"/>
       <use x="63.623047" xlink:href="#DejaVuSans-46"/>
       <use x="95.410156" xlink:href="#DejaVuSans-48"/>
      </g>
     </g>
    </g>
    <g id="xtick_2">
     <g id="line2d_2">
      <g>
       <use style="stroke:#000000;stroke-width:0.8;" x="120.96" xlink:href="#m3a8ef23199" y="252"/>
      </g>
     </g>
     <g id="text_2">
      <!-- 0.2 -->
      <g transform="translate(113.008438 266.598437)scale(0.1 -0.1)">
       <defs>
        <path d="M 19.1875 8.296875 
L 53.609375 8.296875 
L 53.609375 0 
L 7.328125 0 
L 7.328125 8.296875 
Q 12.9375 14.109375 22.625 23.890625 
Q 32.328125 33.6875 34.8125 36.53125 
Q 39.546875 41.84375 41.421875 45.53125 
Q 43.3125 49.21875 43.3125 52.78125 
Q 43.3125 58.59375 39.234375 62.25 
Q 35.15625 65.921875 28.609375 65.921875 
Q 23.96875 65.921875 18.8125 64.3125 
Q 13.671875 62.703125 7.8125 59.421875 
L 7.8125 69.390625 
Q 13.765625 71.78125 18.9375 73 
Q 24.125 74.21875 28.421875 74.21875 
Q 39.75 74.21875 46.484375 68.546875 
Q 53.21875 62.890625 53.21875 53.421875 
Q 53.21875 48.921875 51.53125 44.890625 
Q 49.859375 40.875 45.40625 35.40625 
Q 44.1875 33.984375 37.640625 27.21875 
Q 31.109375 20.453125 19.1875 8.296875 
z
" id="DejaVuSans-50"/>
       </defs>
       <use xlink:href="#DejaVuSans-48"/>
       <use x="63.623047" xlink:href="#DejaVuSans-46"/>
       <use x="95.410156" xlink:href="#DejaVuSans-50"/>
      </g>
     </g>
    </g>
    <g id="xtick_3">
     <g id="line2d_3">
      <g>
       <use style="stroke:#000000;stroke-width:0.8;" x="187.92" xlink:href="#m3a8ef23199" y="252"/>
      </g>
     </g>
     <g id="text_3">
      <!-- 0.4 -->
      <g transform="translate(179.968438 266.598437)scale(0.1 -0.1)">
       <defs>
        <path d="M 37.796875 64.3125 
L 12.890625 25.390625 
L 37.796875 25.390625 
z
M 35.203125 72.90625 
L 47.609375 72.90625 
L 47.609375 25.390625 
L 58.015625 25.390625 
L 58.015625 17.1875 
L 47.609375 17.1875 
L 47.609375 0 
L 37.796875 0 
L 37.796875 17.1875 
L 4.890625 17.1875 
L 4.890625 26.703125 
z
" id="DejaVuSans-52"/>
       </defs>
       <use xlink:href="#DejaVuSans-48"/>
       <use x="63.623047" xlink:href="#DejaVuSans-46"/>
       <use x="95.410156" xlink:href="#DejaVuSans-52"/>
      </g>
     </g>
    </g>
    <g id="xtick_4">
     <g id="line2d_4">
      <g>
       <use style="stroke:#000000;stroke-width:0.8;" x="254.88" xlink:href="#m3a8ef23199" y="252"/>
      </g>
     </g>
     <g id="text_4">
      <!-- 0.6 -->
      <g transform="translate(246.928438 266.598437)scale(0.1 -0.1)">
       <defs>
        <path d="M 33.015625 40.375 
Q 26.375 40.375 22.484375 35.828125 
Q 18.609375 31.296875 18.609375 23.390625 
Q 18.609375 15.53125 22.484375 10.953125 
Q 26.375 6.390625 33.015625 6.390625 
Q 39.65625 6.390625 43.53125 10.953125 
Q 47.40625 15.53125 47.40625 23.390625 
Q 47.40625 31.296875 43.53125 35.828125 
Q 39.65625 40.375 33.015625 40.375 
z
M 52.59375 71.296875 
L 52.59375 62.3125 
Q 48.875 64.0625 45.09375 64.984375 
Q 41.3125 65.921875 37.59375 65.921875 
Q 27.828125 65.921875 22.671875 59.328125 
Q 17.53125 52.734375 16.796875 39.40625 
Q 19.671875 43.65625 24.015625 45.921875 
Q 28.375 48.1875 33.59375 48.1875 
Q 44.578125 48.1875 50.953125 41.515625 
Q 57.328125 34.859375 57.328125 23.390625 
Q 57.328125 12.15625 50.6875 5.359375 
Q 44.046875 -1.421875 33.015625 -1.421875 
Q 20.359375 -1.421875 13.671875 8.265625 
Q 6.984375 17.96875 6.984375 36.375 
Q 6.984375 53.65625 15.1875 63.9375 
Q 23.390625 74.21875 37.203125 74.21875 
Q 40.921875 74.21875 44.703125 73.484375 
Q 48.484375 72.75 52.59375 71.296875 
z
" id="DejaVuSans-54"/>
       </defs>
       <use xlink:href="#DejaVuSans-48"/>
       <use x="63.623047" xlink:href="#DejaVuSans-46"/>
       <use x="95.410156" xlink:href="#DejaVuSans-54"/>
      </g>
     </g>
    </g>
    <g id="xtick_5">
     <g id="line2d_5">
      <g>
       <use style="stroke:#000000;stroke-width:0.8;" x="321.84" xlink:href="#m3a8ef23199" y="252"/>
      </g>
     </g>
     <g id="text_5">
      <!-- 0.8 -->
      <g transform="translate(313.888438 266.598437)scale(0.1 -0.1)">
       <defs>
        <path d="M 31.78125 34.625 
Q 24.75 34.625 20.71875 30.859375 
Q 16.703125 27.09375 16.703125 20.515625 
Q 16.703125 13.921875 20.71875 10.15625 
Q 24.75 6.390625 31.78125 6.390625 
Q 38.8125 6.390625 42.859375 10.171875 
Q 46.921875 13.96875 46.921875 20.515625 
Q 46.921875 27.09375 42.890625 30.859375 
Q 38.875 34.625 31.78125 34.625 
z
M 21.921875 38.8125 
Q 15.578125 40.375 12.03125 44.71875 
Q 8.5 49.078125 8.5 55.328125 
Q 8.5 64.0625 14.71875 69.140625 
Q 20.953125 74.21875 31.78125 74.21875 
Q 42.671875 74.21875 48.875 69.140625 
Q 55.078125 64.0625 55.078125 55.328125 
Q 55.078125 49.078125 51.53125 44.71875 
Q 48 40.375 41.703125 38.8125 
Q 48.828125 37.15625 52.796875 32.3125 
Q 56.78125 27.484375 56.78125 20.515625 
Q 56.78125 9.90625 50.3125 4.234375 
Q 43.84375 -1.421875 31.78125 -1.421875 
Q 19.734375 -1.421875 13.25 4.234375 
Q 6.78125 9.90625 6.78125 20.515625 
Q 6.78125 27.484375 10.78125 32.3125 
Q 14.796875 37.15625 21.921875 38.8125 
z
M 18.3125 54.390625 
Q 18.3125 48.734375 21.84375 45.5625 
Q 25.390625 42.390625 31.78125 42.390625 
Q 38.140625 42.390625 41.71875 45.5625 
Q 45.3125 48.734375 45.3125 54.390625 
Q 45.3125 60.0625 41.71875 63.234375 
Q 38.140625 66.40625 31.78125 66.40625 
Q 25.390625 66.40625 21.84375 63.234375 
Q 18.3125 60.0625 18.3125 54.390625 
z
" id="DejaVuSans-56"/>
       </defs>
       <use xlink:href="#DejaVuSans-48"/>
       <use x="63.623047" xlink:href="#DejaVuSans-46"/>
       <use x="95.410156" xlink:href="#DejaVuSans-56"/>
      </g>
     </g>
    </g>
    <g id="xtick_6">
     <g id="line2d_6">
      <g>
       <use style="stroke:#000000;stroke-width:0.8;" x="388.8" xlink:href="#m3a8ef23199" y="252"/>
      </g>
     </g>
     <g id="text_6">
      <!-- 1.0 -->
      <g transform="translate(380.848437 266.598437)scale(0.1 -0.1)">
       <defs>
        <path d="M 12.40625 8.296875 
L 28.515625 8.296875 
L 28.515625 63.921875 
L 10.984375 60.40625 
L 10.984375 69.390625 
L 28.421875 72.90625 
L 38.28125 72.90625 
L 38.28125 8.296875 
L 54.390625 8.296875 
L 54.390625 0 
L 12.40625 0 
z
" id="DejaVuSans-49"/>
       </defs>
       <use xlink:href="#DejaVuSans-49"/>
       <use x="63.623047" xlink:href="#DejaVuSans-46"/>
       <use x="95.410156" xlink:href="#DejaVuSans-48"/>
      </g>
     </g>
    </g>
    <g id="text_7">
     <!-- Recall -->
     <g transform="translate(206.482812 280.276563)scale(0.1 -0.1)">
      <defs>
       <path d="M 44.390625 34.1875 
Q 47.5625 33.109375 50.5625 29.59375 
Q 53.5625 26.078125 56.59375 19.921875 
L 66.609375 0 
L 56 0 
L 46.6875 18.703125 
Q 43.0625 26.03125 39.671875 28.421875 
Q 36.28125 30.8125 30.421875 30.8125 
L 19.671875 30.8125 
L 19.671875 0 
L 9.8125 0 
L 9.8125 72.90625 
L 32.078125 72.90625 
Q 44.578125 72.90625 50.734375 67.671875 
Q 56.890625 62.453125 56.890625 51.90625 
Q 56.890625 45.015625 53.6875 40.46875 
Q 50.484375 35.9375 44.390625 34.1875 
z
M 19.671875 64.796875 
L 19.671875 38.921875 
L 32.078125 38.921875 
Q 39.203125 38.921875 42.84375 42.21875 
Q 46.484375 45.515625 46.484375 51.90625 
Q 46.484375 58.296875 42.84375 61.546875 
Q 39.203125 64.796875 32.078125 64.796875 
z
" id="DejaVuSans-82"/>
       <path d="M 56.203125 29.59375 
L 56.203125 25.203125 
L 14.890625 25.203125 
Q 15.484375 15.921875 20.484375 11.0625 
Q 25.484375 6.203125 34.421875 6.203125 
Q 39.59375 6.203125 44.453125 7.46875 
Q 49.3125 8.734375 54.109375 11.28125 
L 54.109375 2.78125 
Q 49.265625 0.734375 44.1875 -0.34375 
Q 39.109375 -1.421875 33.890625 -1.421875 
Q 20.796875 -1.421875 13.15625 6.1875 
Q 5.515625 13.8125 5.515625 26.8125 
Q 5.515625 40.234375 12.765625 48.109375 
Q 20.015625 56 32.328125 56 
Q 43.359375 56 49.78125 48.890625 
Q 56.203125 41.796875 56.203125 29.59375 
z
M 47.21875 32.234375 
Q 47.125 39.59375 43.09375 43.984375 
Q 39.0625 48.390625 32.421875 48.390625 
Q 24.90625 48.390625 20.390625 44.140625 
Q 15.875 39.890625 15.1875 32.171875 
z
" id="DejaVuSans-101"/>
       <path d="M 48.78125 52.59375 
L 48.78125 44.1875 
Q 44.96875 46.296875 41.140625 47.34375 
Q 37.3125 48.390625 33.40625 48.390625 
Q 24.65625 48.390625 19.8125 42.84375 
Q 14.984375 37.3125 14.984375 27.296875 
Q 14.984375 17.28125 19.8125 11.734375 
Q 24.65625 6.203125 33.40625 6.203125 
Q 37.3125 6.203125 41.140625 7.25 
Q 44.96875 8.296875 48.78125 10.40625 
L 48.78125 2.09375 
Q 45.015625 0.34375 40.984375 -0.53125 
Q 36.96875 -1.421875 32.421875 -1.421875 
Q 20.0625 -1.421875 12.78125 6.34375 
Q 5.515625 14.109375 5.515625 27.296875 
Q 5.515625 40.671875 12.859375 48.328125 
Q 20.21875 56 33.015625 56 
Q 37.15625 56 41.109375 55.140625 
Q 45.0625 54.296875 48.78125 52.59375 
z
" id="DejaVuSans-99"/>
       <path d="M 34.28125 27.484375 
Q 23.390625 27.484375 19.1875 25 
Q 14.984375 22.515625 14.984375 16.5 
Q 14.984375 11.71875 18.140625 8.90625 
Q 21.296875 6.109375 26.703125 6.109375 
Q 34.1875 6.109375 38.703125 11.40625 
Q 43.21875 16.703125 43.21875 25.484375 
L 43.21875 27.484375 
z
M 52.203125 31.203125 
L 52.203125 0 
L 43.21875 0 
L 43.21875 8.296875 
Q 40.140625 3.328125 35.546875 0.953125 
Q 30.953125 -1.421875 24.3125 -1.421875 
Q 15.921875 -1.421875 10.953125 3.296875 
Q 6 8.015625 6 15.921875 
Q 6 25.140625 12.171875 29.828125 
Q 18.359375 34.515625 30.609375 34.515625 
L 43.21875 34.515625 
L 43.21875 35.40625 
Q 43.21875 41.609375 39.140625 45 
Q 35.0625 48.390625 27.6875 48.390625 
Q 23 48.390625 18.546875 47.265625 
Q 14.109375 46.140625 10.015625 43.890625 
L 10.015625 52.203125 
Q 14.9375 54.109375 19.578125 55.046875 
Q 24.21875 56 28.609375 56 
Q 40.484375 56 46.34375 49.84375 
Q 52.203125 43.703125 52.203125 31.203125 
z
" id="DejaVuSans-97"/>
       <path d="M 9.421875 75.984375 
L 18.40625 75.984375 
L 18.40625 0 
L 9.421875 0 
z
" id="DejaVuSans-108"/>
      </defs>
      <use xlink:href="#DejaVuSans-82"/>
      <use x="64.982422" xlink:href="#DejaVuSans-101"/>
      <use x="126.505859" xlink:href="#DejaVuSans-99"/>
      <use x="181.486328" xlink:href="#DejaVuSans-97"/>
      <use x="242.765625" xlink:href="#DejaVuSans-108"/>
      <use x="270.548828" xlink:href="#DejaVuSans-108"/>
     </g>
    </g>
   </g>
   <g id="matplotlib.axis_2">
    <g id="ytick_1">
     <g id="line2d_7">
      <defs>
       <path d="M 0 0 
L -3.5 0 
" id="mf76611c92d" style="stroke:#000000;stroke-width:0.8;"/>
      </defs>
      <g>
       <use style="stroke:#000000;stroke-width:0.8;" x="54" xlink:href="#mf76611c92d" y="252"/>
      </g>
     </g>
     <g id="text_8">
      <!-- 0.0 -->
      <g transform="translate(31.096875 255.799219)scale(0.1 -0.1)">
       <use xlink:href="#DejaVuSans-48"/>
       <use x="63.623047" xlink:href="#DejaVuSans-46"/>
       <use x="95.410156" xlink:href="#DejaVuSans-48"/>
      </g>
     </g>
    </g>
    <g id="ytick_2">
     <g id="line2d_8">
      <g>
       <use style="stroke:#000000;stroke-width:0.8;" x="54" xlink:href="#mf76611c92d" y="210.582857"/>
      </g>
     </g>
     <g id="text_9">
      <!-- 0.2 -->
      <g transform="translate(31.096875 214.382076)scale(0.1 -0.1)">
       <use xlink:href="#DejaVuSans-48"/>
       <use x="63.623047" xlink:href="#DejaVuSans-46"/>
       <use x="95.410156" xlink:href="#DejaVuSans-50"/>
      </g>
     </g>
    </g>
    <g id="ytick_3">
     <g id="line2d_9">
      <g>
       <use style="stroke:#000000;stroke-width:0.8;" x="54" xlink:href="#mf76611c92d" y="169.165714"/>
      </g>
     </g>
     <g id="text_10">
      <!-- 0.4 -->
      <g transform="translate(31.096875 172.964933)scale(0.1 -0.1)">
       <use xlink:href="#DejaVuSans-48"/>
       <use x="63.623047" xlink:href="#DejaVuSans-46"/>
       <use x="95.410156" xlink:href="#DejaVuSans-52"/>
      </g>
     </g>
    </g>
    <g id="ytick_4">
     <g id="line2d_10">
      <g>
       <use style="stroke:#000000;stroke-width:0.8;" x="54" xlink:href="#mf76611c92d" y="127.748571"/>
      </g>
     </g>
     <g id="text_11">
      <!-- 0.6 -->
      <g transform="translate(31.096875 131.54779)scale(0.1 -0.1)">
       <use xlink:href="#DejaVuSans-48"/>
       <use x="63.623047" xlink:href="#DejaVuSans-46"/>
       <use x="95.410156" xlink:href="#DejaVuSans-54"/>
      </g>
     </g>
    </g>
    <g id="ytick_5">
     <g id="line2d_11">
      <g>
       <use style="stroke:#000000;stroke-width:0.8;" x="54" xlink:href="#mf76611c92d" y="86.331429"/>
      </g>
     </g>
     <g id="text_12">
      <!-- 0.8 -->
      <g transform="translate(31.096875 90.130647)scale(0.1 -0.1)">
       <use xlink:href="#DejaVuSans-48"/>
       <use x="63.623047" xlink:href="#DejaVuSans-46"/>
       <use x="95.410156" xlink:href="#DejaVuSans-56"/>
      </g>
     </g>
    </g>
    <g id="ytick_6">
     <g id="line2d_12">
      <g>
       <use style="stroke:#000000;stroke-width:0.8;" x="54" xlink:href="#mf76611c92d" y="44.914286"/>
      </g>
     </g>
     <g id="text_13">
      <!-- 1.0 -->
      <g transform="translate(31.096875 48.713504)scale(0.1 -0.1)">
       <use xlink:href="#DejaVuSans-49"/>
       <use x="63.623047" xlink:href="#DejaVuSans-46"/>
       <use x="95.410156" xlink:href="#DejaVuSans-48"/>
      </g>
     </g>
    </g>
    <g id="text_14">
     <!-- Precision -->
     <g transform="translate(25.017187 165.587031)rotate(-90)scale(0.1 -0.1)">
      <defs>
       <path d="M 19.671875 64.796875 
L 19.671875 37.40625 
L 32.078125 37.40625 
Q 38.96875 37.40625 42.71875 40.96875 
Q 46.484375 44.53125 46.484375 51.125 
Q 46.484375 57.671875 42.71875 61.234375 
Q 38.96875 64.796875 32.078125 64.796875 
z
M 9.8125 72.90625 
L 32.078125 72.90625 
Q 44.34375 72.90625 50.609375 67.359375 
Q 56.890625 61.8125 56.890625 51.125 
Q 56.890625 40.328125 50.609375 34.8125 
Q 44.34375 29.296875 32.078125 29.296875 
L 19.671875 29.296875 
L 19.671875 0 
L 9.8125 0 
z
" id="DejaVuSans-80"/>
       <path d="M 41.109375 46.296875 
Q 39.59375 47.171875 37.8125 47.578125 
Q 36.03125 48 33.890625 48 
Q 26.265625 48 22.1875 43.046875 
Q 18.109375 38.09375 18.109375 28.8125 
L 18.109375 0 
L 9.078125 0 
L 9.078125 54.6875 
L 18.109375 54.6875 
L 18.109375 46.1875 
Q 20.953125 51.171875 25.484375 53.578125 
Q 30.03125 56 36.53125 56 
Q 37.453125 56 38.578125 55.875 
Q 39.703125 55.765625 41.0625 55.515625 
z
" id="DejaVuSans-114"/>
       <path d="M 9.421875 54.6875 
L 18.40625 54.6875 
L 18.40625 0 
L 9.421875 0 
z
M 9.421875 75.984375 
L 18.40625 75.984375 
L 18.40625 64.59375 
L 9.421875 64.59375 
z
" id="DejaVuSans-105"/>
       <path d="M 44.28125 53.078125 
L 44.28125 44.578125 
Q 40.484375 46.53125 36.375 47.5 
Q 32.28125 48.484375 27.875 48.484375 
Q 21.1875 48.484375 17.84375 46.4375 
Q 14.5 44.390625 14.5 40.28125 
Q 14.5 37.15625 16.890625 35.375 
Q 19.28125 33.59375 26.515625 31.984375 
L 29.59375 31.296875 
Q 39.15625 29.25 43.1875 25.515625 
Q 47.21875 21.78125 47.21875 15.09375 
Q 47.21875 7.46875 41.1875 3.015625 
Q 35.15625 -1.421875 24.609375 -1.421875 
Q 20.21875 -1.421875 15.453125 -0.5625 
Q 10.6875 0.296875 5.421875 2 
L 5.421875 11.28125 
Q 10.40625 8.6875 15.234375 7.390625 
Q 20.0625 6.109375 24.8125 6.109375 
Q 31.15625 6.109375 34.5625 8.28125 
Q 37.984375 10.453125 37.984375 14.40625 
Q 37.984375 18.0625 35.515625 20.015625 
Q 33.0625 21.96875 24.703125 23.78125 
L 21.578125 24.515625 
Q 13.234375 26.265625 9.515625 29.90625 
Q 5.8125 33.546875 5.8125 39.890625 
Q 5.8125 47.609375 11.28125 51.796875 
Q 16.75 56 26.8125 56 
Q 31.78125 56 36.171875 55.265625 
Q 40.578125 54.546875 44.28125 53.078125 
z
" id="DejaVuSans-115"/>
       <path d="M 30.609375 48.390625 
Q 23.390625 48.390625 19.1875 42.75 
Q 14.984375 37.109375 14.984375 27.296875 
Q 14.984375 17.484375 19.15625 11.84375 
Q 23.34375 6.203125 30.609375 6.203125 
Q 37.796875 6.203125 41.984375 11.859375 
Q 46.1875 17.53125 46.1875 27.296875 
Q 46.1875 37.015625 41.984375 42.703125 
Q 37.796875 48.390625 30.609375 48.390625 
z
M 30.609375 56 
Q 42.328125 56 49.015625 48.375 
Q 55.71875 40.765625 55.71875 27.296875 
Q 55.71875 13.875 49.015625 6.21875 
Q 42.328125 -1.421875 30.609375 -1.421875 
Q 18.84375 -1.421875 12.171875 6.21875 
Q 5.515625 13.875 5.515625 27.296875 
Q 5.515625 40.765625 12.171875 48.375 
Q 18.84375 56 30.609375 56 
z
" id="DejaVuSans-111"/>
       <path d="M 54.890625 33.015625 
L 54.890625 0 
L 45.90625 0 
L 45.90625 32.71875 
Q 45.90625 40.484375 42.875 44.328125 
Q 39.84375 48.1875 33.796875 48.1875 
Q 26.515625 48.1875 22.3125 43.546875 
Q 18.109375 38.921875 18.109375 30.90625 
L 18.109375 0 
L 9.078125 0 
L 9.078125 54.6875 
L 18.109375 54.6875 
L 18.109375 46.1875 
Q 21.34375 51.125 25.703125 53.5625 
Q 30.078125 56 35.796875 56 
Q 45.21875 56 50.046875 50.171875 
Q 54.890625 44.34375 54.890625 33.015625 
z
" id="DejaVuSans-110"/>
      </defs>
      <use xlink:href="#DejaVuSans-80"/>
      <use x="58.552734" xlink:href="#DejaVuSans-114"/>
      <use x="97.416016" xlink:href="#DejaVuSans-101"/>
      <use x="158.939453" xlink:href="#DejaVuSans-99"/>
      <use x="213.919922" xlink:href="#DejaVuSans-105"/>
      <use x="241.703125" xlink:href="#DejaVuSans-115"/>
      <use x="293.802734" xlink:href="#DejaVuSans-105"/>
      <use x="321.585938" xlink:href="#DejaVuSans-111"/>
      <use x="382.767578" xlink:href="#DejaVuSans-110"/>
     </g>
    </g>
   </g>
   <g id="line2d_13">
    <path clip-path="url(#p30b124f799)" d="M 388.8 44.914286 
L 386.950276 44.914286 
L 385.100552 44.914286 
L 383.250829 44.914286 
L 381.401105 44.914286 
L 379.551381 44.914286 
L 377.701657 44.914286 
L 375.851934 44.914286 
L 374.00221 44.914286 
L 372.152486 44.914286 
L 370.302762 44.914286 
L 368.453039 44.914286 
L 366.603315 44.914286 
L 364.753591 44.914286 
L 362.903867 44.914286 
L 361.054144 44.914286 
L 359.20442 44.914286 
L 357.354696 44.914286 
L 355.504972 44.914286 
L 353.655249 44.914286 
L 351.805525 44.914286 
L 349.955801 44.914286 
L 348.106077 44.914286 
L 346.256354 44.914286 
L 344.40663 44.914286 
L 342.556906 44.914286 
L 340.707182 44.914286 
L 338.857459 44.914286 
L 337.007735 44.914286 
L 335.158011 44.914286 
L 333.308287 44.914286 
L 331.458564 44.914286 
L 329.60884 44.914286 
L 327.759116 44.914286 
L 325.909392 44.914286 
L 324.059669 44.914286 
L 322.209945 44.914286 
L 320.360221 44.914286 
L 318.510497 44.914286 
L 316.660773 44.914286 
L 314.81105 44.914286 
L 312.961326 44.914286 
L 311.111602 44.914286 
L 309.261878 44.914286 
L 307.412155 44.914286 
L 305.562431 44.914286 
L 303.712707 44.914286 
L 301.862983 44.914286 
L 300.01326 44.914286 
L 298.163536 44.914286 
L 296.313812 44.914286 
L 294.464088 44.914286 
L 292.614365 44.914286 
L 290.764641 44.914286 
L 288.914917 44.914286 
L 287.065193 44.914286 
L 285.21547 44.914286 
L 283.365746 44.914286 
L 281.516022 44.914286 
L 279.666298 44.914286 
L 277.816575 44.914286 
L 275.966851 44.914286 
L 274.117127 44.914286 
L 272.267403 44.914286 
L 270.41768 44.914286 
L 268.567956 44.914286 
L 266.718232 44.914286 
L 264.868508 44.914286 
L 263.018785 44.914286 
L 261.169061 44.914286 
L 259.319337 44.914286 
L 257.469613 44.914286 
L 253.770166 44.914286 
L 251.920442 44.914286 
L 250.070718 44.914286 
L 248.220994 44.914286 
L 246.371271 44.914286 
L 244.521547 44.914286 
L 242.671823 44.914286 
L 240.822099 44.914286 
L 238.972376 44.914286 
L 237.122652 44.914286 
L 235.272928 44.914286 
L 233.423204 44.914286 
L 231.573481 44.914286 
L 229.723757 44.914286 
L 227.874033 44.914286 
L 226.024309 44.914286 
L 224.174586 44.914286 
L 222.324862 44.914286 
L 220.475138 44.914286 
L 216.775691 44.914286 
L 214.925967 44.914286 
L 213.076243 44.914286 
L 211.226519 44.914286 
L 203.827624 44.914286 
L 201.977901 44.914286 
L 198.278453 44.914286 
L 196.428729 44.914286 
L 194.579006 44.914286 
L 192.729282 44.914286 
L 190.879558 44.914286 
L 189.029834 44.914286 
L 187.18011 44.914286 
L 185.330387 44.914286 
L 177.931492 44.914286 
L 174.232044 44.914286 
L 170.532597 44.914286 
L 168.682873 44.914286 
L 166.833149 44.914286 
L 159.434254 44.914286 
L 157.58453 44.914286 
L 155.734807 44.914286 
L 153.885083 44.914286 
L 152.035359 44.914286 
L 148.335912 44.914286 
L 146.486188 44.914286 
L 144.636464 44.914286 
L 142.78674 44.914286 
L 140.937017 44.914286 
L 139.087293 44.914286 
L 135.387845 44.914286 
L 54 44.914286 
" style="fill:none;stroke:#535fde;stroke-linecap:square;stroke-width:2;"/>
   </g>
   <g id="line2d_14">
    <path clip-path="url(#p30b124f799)" d="M 388.8 54.118095 
L 381.013953 54.327273 
L 381.013953 49.730233 
L 381.013953 44.914286 
L 373.227907 44.914286 
L 365.44186 44.914286 
L 357.655814 44.914286 
L 349.869767 44.914286 
L 342.083721 44.914286 
L 334.297674 44.914286 
L 326.511628 44.914286 
L 318.725581 44.914286 
L 310.939535 44.914286 
L 303.153488 44.914286 
L 295.367442 44.914286 
L 287.581395 44.914286 
L 279.795349 44.914286 
L 272.009302 44.914286 
L 264.223256 44.914286 
L 256.437209 44.914286 
L 248.651163 44.914286 
L 240.865116 44.914286 
L 233.07907 44.914286 
L 225.293023 44.914286 
L 217.506977 44.914286 
L 209.72093 44.914286 
L 201.934884 44.914286 
L 194.148837 44.914286 
L 186.362791 44.914286 
L 178.576744 44.914286 
L 170.790698 44.914286 
L 163.004651 44.914286 
L 155.218605 44.914286 
L 147.432558 44.914286 
L 139.646512 44.914286 
L 131.860465 44.914286 
L 124.074419 44.914286 
L 116.288372 44.914286 
L 108.502326 44.914286 
L 100.716279 44.914286 
L 92.930233 44.914286 
L 85.144186 44.914286 
L 77.35814 44.914286 
L 69.572093 44.914286 
L 61.786047 44.914286 
L 54 44.914286 
" style="fill:none;stroke:#426616;stroke-linecap:square;stroke-width:2;"/>
   </g>
   <g id="line2d_15">
    <path clip-path="url(#p30b124f799)" d="M 388.8 44.914286 
L 363.046154 44.914286 
L 337.292308 44.914286 
L 311.538462 44.914286 
L 285.784615 44.914286 
L 260.030769 44.914286 
L 234.276923 44.914286 
L 208.523077 44.914286 
L 182.769231 44.914286 
L 157.015385 44.914286 
L 131.261538 44.914286 
L 105.507692 44.914286 
L 79.753846 44.914286 
L 54 44.914286 
" style="fill:none;stroke:#b31be7;stroke-linecap:square;stroke-width:2;"/>
   </g>
   <g id="line2d_16">
    <path clip-path="url(#p30b124f799)" d="M 388.8 44.914286 
L 346.95 44.914286 
L 305.1 44.914286 
L 263.25 44.914286 
L 221.4 44.914286 
L 179.55 44.914286 
L 137.7 44.914286 
L 95.85 44.914286 
L 54 44.914286 
" style="fill:none;stroke:#eb8c7c;stroke-linecap:square;stroke-width:2;"/>
   </g>
   <g id="line2d_17">
    <path clip-path="url(#p30b124f799)" d="M 388.8 62.171429 
L 358.363636 63.74026 
L 327.927273 65.622857 
L 297.490909 67.92381 
L 267.054545 70.8 
L 236.618182 74.497959 
L 206.181818 79.428571 
L 175.745455 86.331429 
L 175.745455 44.914286 
L 145.309091 44.914286 
L 114.872727 44.914286 
L 84.436364 44.914286 
L 54 44.914286 
" style="fill:none;stroke:#77ebe3;stroke-linecap:square;stroke-width:2;"/>
   </g>
   <g id="line2d_18">
    <path clip-path="url(#p30b124f799)" d="M 388.8 104.081633 
L 372.06 106.273016 
L 372.06 100.668132 
L 372.06 94.614857 
L 372.06 88.057143 
L 372.06 80.929193 
L 372.06 73.153247 
L 372.06 64.636735 
L 372.06 55.268571 
L 372.06 44.914286 
L 355.32 44.914286 
L 338.58 44.914286 
L 321.84 44.914286 
L 305.1 44.914286 
L 288.36 44.914286 
L 271.62 44.914286 
L 254.88 44.914286 
L 238.14 44.914286 
L 221.4 44.914286 
L 204.66 44.914286 
L 187.92 44.914286 
L 171.18 44.914286 
L 154.44 44.914286 
L 137.7 44.914286 
L 120.96 44.914286 
L 104.22 44.914286 
L 87.48 44.914286 
L 70.74 44.914286 
L 54 44.914286 
" style="fill:none;stroke:#3f8238;stroke-linecap:square;stroke-width:2;"/>
   </g>
   <g id="line2d_19">
    <path clip-path="url(#p30b124f799)" d="M 388.8 47.379592 
L 386.783133 47.394354 
L 386.783133 46.16179 
L 384.766265 46.169351 
L 384.766265 44.914286 
L 54 44.914286 
L 54 44.914286 
" style="fill:none;stroke:#a17088;stroke-linecap:square;stroke-width:2;"/>
   </g>
   <g id="line2d_20">
    <path clip-path="url(#p30b124f799)" d="M 388.8 44.914286 
L 367.875 44.914286 
L 346.95 44.914286 
L 326.025 44.914286 
L 305.1 44.914286 
L 284.175 44.914286 
L 263.25 44.914286 
L 242.325 44.914286 
L 221.4 44.914286 
L 200.475 44.914286 
L 179.55 44.914286 
L 158.625 44.914286 
L 137.7 44.914286 
L 116.775 44.914286 
L 95.85 44.914286 
L 74.925 44.914286 
L 54 44.914286 
" style="fill:none;stroke:#2b55ac;stroke-linecap:square;stroke-width:2;"/>
   </g>
   <g id="line2d_21">
    <path clip-path="url(#p30b124f799)" d="M 388.8 64.18761 
L 388.068996 64.22585 
L 388.068996 49.781685 
L 387.337991 49.792108 
L 387.337991 48.045171 
L 386.606987 48.051948 
L 386.606987 47.609544 
L 385.875983 47.615404 
L 385.875983 47.170121 
L 385.144978 47.175047 
L 385.144978 46.276692 
L 379.296943 46.30102 
L 379.296943 45.840844 
L 377.834934 45.845008 
L 377.834934 45.380695 
L 369.062882 45.393651 
L 369.062882 44.914286 
L 54 44.914286 
L 54 44.914286 
" style="fill:none;stroke:#ff1493;stroke-dasharray:4,6.6;stroke-dashoffset:0;stroke-width:4;"/>
   </g>
   <g id="line2d_22">
    <path clip-path="url(#p30b124f799)" d="M 54 252 
L 388.8 44.914286 
" style="fill:none;stroke:#000000;stroke-dasharray:7.4,3.2;stroke-dashoffset:0;stroke-width:2;"/>
   </g>
   <g id="line2d_23">
    <path clip-path="url(#p30b124f799)" d="M 54 252 
L 388.8 44.914286 
" style="fill:none;stroke:#000000;stroke-dasharray:7.4,3.2;stroke-dashoffset:0;stroke-width:2;"/>
   </g>
   <g id="patch_3">
    <path d="M 54 252 
L 54 34.56 
" style="fill:none;stroke:#000000;stroke-linecap:square;stroke-linejoin:miter;stroke-width:0.8;"/>
   </g>
   <g id="patch_4">
    <path d="M 388.8 252 
L 388.8 34.56 
" style="fill:none;stroke:#000000;stroke-linecap:square;stroke-linejoin:miter;stroke-width:0.8;"/>
   </g>
   <g id="patch_5">
    <path d="M 54 252 
L 388.8 252 
" style="fill:none;stroke:#000000;stroke-linecap:square;stroke-linejoin:miter;stroke-width:0.8;"/>
   </g>
   <g id="patch_6">
    <path d="M 54 34.56 
L 388.8 34.56 
" style="fill:none;stroke:#000000;stroke-linecap:square;stroke-linejoin:miter;stroke-width:0.8;"/>
   </g>
   <g id="text_15">
    <!-- PR Curves -->
    <g transform="translate(190.87875 28.56)scale(0.12 -0.12)">
     <defs>
      <path id="DejaVuSans-32"/>
      <path d="M 64.40625 67.28125 
L 64.40625 56.890625 
Q 59.421875 61.53125 53.78125 63.8125 
Q 48.140625 66.109375 41.796875 66.109375 
Q 29.296875 66.109375 22.65625 58.46875 
Q 16.015625 50.828125 16.015625 36.375 
Q 16.015625 21.96875 22.65625 14.328125 
Q 29.296875 6.6875 41.796875 6.6875 
Q 48.140625 6.6875 53.78125 8.984375 
Q 59.421875 11.28125 64.40625 15.921875 
L 64.40625 5.609375 
Q 59.234375 2.09375 53.4375 0.328125 
Q 47.65625 -1.421875 41.21875 -1.421875 
Q 24.65625 -1.421875 15.125 8.703125 
Q 5.609375 18.84375 5.609375 36.375 
Q 5.609375 53.953125 15.125 64.078125 
Q 24.65625 74.21875 41.21875 74.21875 
Q 47.75 74.21875 53.53125 72.484375 
Q 59.328125 70.75 64.40625 67.28125 
z
" id="DejaVuSans-67"/>
      <path d="M 8.5 21.578125 
L 8.5 54.6875 
L 17.484375 54.6875 
L 17.484375 21.921875 
Q 17.484375 14.15625 20.5 10.265625 
Q 23.53125 6.390625 29.59375 6.390625 
Q 36.859375 6.390625 41.078125 11.03125 
Q 45.3125 15.671875 45.3125 23.6875 
L 45.3125 54.6875 
L 54.296875 54.6875 
L 54.296875 0 
L 45.3125 0 
L 45.3125 8.40625 
Q 42.046875 3.421875 37.71875 1 
Q 33.40625 -1.421875 27.6875 -1.421875 
Q 18.265625 -1.421875 13.375 4.4375 
Q 8.5 10.296875 8.5 21.578125 
z
M 31.109375 56 
z
" id="DejaVuSans-117"/>
      <path d="M 2.984375 54.6875 
L 12.5 54.6875 
L 29.59375 8.796875 
L 46.6875 54.6875 
L 56.203125 54.6875 
L 35.6875 0 
L 23.484375 0 
z
" id="DejaVuSans-118"/>
     </defs>
     <use xlink:href="#DejaVuSans-80"/>
     <use x="60.302734" xlink:href="#DejaVuSans-82"/>
     <use x="129.785156" xlink:href="#DejaVuSans-32"/>
     <use x="161.572266" xlink:href="#DejaVuSans-67"/>
     <use x="231.396484" xlink:href="#DejaVuSans-117"/>
     <use x="294.775391" xlink:href="#DejaVuSans-114"/>
     <use x="335.888672" xlink:href="#DejaVuSans-118"/>
     <use x="395.068359" xlink:href="#DejaVuSans-101"/>
     <use x="456.591797" xlink:href="#DejaVuSans-115"/>
    </g>
   </g>
   <g id="legend_1">
    <g id="patch_7">
     <path d="M 61 247 
L 283.389063 247 
Q 285.389063 247 285.389063 245 
L 285.389063 113.896875 
Q 285.389063 111.896875 283.389063 111.896875 
L 61 111.896875 
Q 59 111.896875 59 113.896875 
L 59 245 
Q 59 247 61 247 
z
" style="fill:#ffffff;opacity:0.8;stroke:#cccccc;stroke-linejoin:miter;"/>
    </g>
    <g id="line2d_24">
     <path d="M 63 119.995313 
L 83 119.995313 
" style="fill:none;stroke:#535fde;stroke-linecap:square;stroke-width:2;"/>
    </g>
    <g id="line2d_25"/>
    <g id="text_16">
     <!-- PR curve of class 0 (area = 1.00) -->
     <g transform="translate(91 123.495313)scale(0.1 -0.1)">
      <defs>
       <path d="M 37.109375 75.984375 
L 37.109375 68.5 
L 28.515625 68.5 
Q 23.6875 68.5 21.796875 66.546875 
Q 19.921875 64.59375 19.921875 59.515625 
L 19.921875 54.6875 
L 34.71875 54.6875 
L 34.71875 47.703125 
L 19.921875 47.703125 
L 19.921875 0 
L 10.890625 0 
L 10.890625 47.703125 
L 2.296875 47.703125 
L 2.296875 54.6875 
L 10.890625 54.6875 
L 10.890625 58.5 
Q 10.890625 67.625 15.140625 71.796875 
Q 19.390625 75.984375 28.609375 75.984375 
z
" id="DejaVuSans-102"/>
       <path d="M 31 75.875 
Q 24.46875 64.65625 21.28125 53.65625 
Q 18.109375 42.671875 18.109375 31.390625 
Q 18.109375 20.125 21.3125 9.0625 
Q 24.515625 -2 31 -13.1875 
L 23.1875 -13.1875 
Q 15.875 -1.703125 12.234375 9.375 
Q 8.59375 20.453125 8.59375 31.390625 
Q 8.59375 42.28125 12.203125 53.3125 
Q 15.828125 64.359375 23.1875 75.875 
z
" id="DejaVuSans-40"/>
       <path d="M 10.59375 45.40625 
L 73.1875 45.40625 
L 73.1875 37.203125 
L 10.59375 37.203125 
z
M 10.59375 25.484375 
L 73.1875 25.484375 
L 73.1875 17.1875 
L 10.59375 17.1875 
z
" id="DejaVuSans-61"/>
       <path d="M 8.015625 75.875 
L 15.828125 75.875 
Q 23.140625 64.359375 26.78125 53.3125 
Q 30.421875 42.28125 30.421875 31.390625 
Q 30.421875 20.453125 26.78125 9.375 
Q 23.140625 -1.703125 15.828125 -13.1875 
L 8.015625 -13.1875 
Q 14.5 -2 17.703125 9.0625 
Q 20.90625 20.125 20.90625 31.390625 
Q 20.90625 42.671875 17.703125 53.65625 
Q 14.5 64.65625 8.015625 75.875 
z
" id="DejaVuSans-41"/>
      </defs>
      <use xlink:href="#DejaVuSans-80"/>
      <use x="60.302734" xlink:href="#DejaVuSans-82"/>
      <use x="129.785156" xlink:href="#DejaVuSans-32"/>
      <use x="161.572266" xlink:href="#DejaVuSans-99"/>
      <use x="216.552734" xlink:href="#DejaVuSans-117"/>
      <use x="279.931641" xlink:href="#DejaVuSans-114"/>
      <use x="321.044922" xlink:href="#DejaVuSans-118"/>
      <use x="380.224609" xlink:href="#DejaVuSans-101"/>
      <use x="441.748047" xlink:href="#DejaVuSans-32"/>
      <use x="473.535156" xlink:href="#DejaVuSans-111"/>
      <use x="534.716797" xlink:href="#DejaVuSans-102"/>
      <use x="569.921875" xlink:href="#DejaVuSans-32"/>
      <use x="601.708984" xlink:href="#DejaVuSans-99"/>
      <use x="656.689453" xlink:href="#DejaVuSans-108"/>
      <use x="684.472656" xlink:href="#DejaVuSans-97"/>
      <use x="745.751953" xlink:href="#DejaVuSans-115"/>
      <use x="797.851562" xlink:href="#DejaVuSans-115"/>
      <use x="849.951172" xlink:href="#DejaVuSans-32"/>
      <use x="881.738281" xlink:href="#DejaVuSans-48"/>
      <use x="945.361328" xlink:href="#DejaVuSans-32"/>
      <use x="977.148438" xlink:href="#DejaVuSans-40"/>
      <use x="1016.162109" xlink:href="#DejaVuSans-97"/>
      <use x="1077.441406" xlink:href="#DejaVuSans-114"/>
      <use x="1116.304688" xlink:href="#DejaVuSans-101"/>
      <use x="1177.828125" xlink:href="#DejaVuSans-97"/>
      <use x="1239.107422" xlink:href="#DejaVuSans-32"/>
      <use x="1270.894531" xlink:href="#DejaVuSans-61"/>
      <use x="1354.683594" xlink:href="#DejaVuSans-32"/>
      <use x="1386.470703" xlink:href="#DejaVuSans-49"/>
      <use x="1450.09375" xlink:href="#DejaVuSans-46"/>
      <use x="1481.880859" xlink:href="#DejaVuSans-48"/>
      <use x="1545.503906" xlink:href="#DejaVuSans-48"/>
      <use x="1609.126953" xlink:href="#DejaVuSans-41"/>
     </g>
    </g>
    <g id="line2d_26">
     <path d="M 63 134.673438 
L 83 134.673438 
" style="fill:none;stroke:#426616;stroke-linecap:square;stroke-width:2;"/>
    </g>
    <g id="line2d_27"/>
    <g id="text_17">
     <!-- PR curve of class 1 (area = 1.00) -->
     <g transform="translate(91 138.173438)scale(0.1 -0.1)">
      <use xlink:href="#DejaVuSans-80"/>
      <use x="60.302734" xlink:href="#DejaVuSans-82"/>
      <use x="129.785156" xlink:href="#DejaVuSans-32"/>
      <use x="161.572266" xlink:href="#DejaVuSans-99"/>
      <use x="216.552734" xlink:href="#DejaVuSans-117"/>
      <use x="279.931641" xlink:href="#DejaVuSans-114"/>
      <use x="321.044922" xlink:href="#DejaVuSans-118"/>
      <use x="380.224609" xlink:href="#DejaVuSans-101"/>
      <use x="441.748047" xlink:href="#DejaVuSans-32"/>
      <use x="473.535156" xlink:href="#DejaVuSans-111"/>
      <use x="534.716797" xlink:href="#DejaVuSans-102"/>
      <use x="569.921875" xlink:href="#DejaVuSans-32"/>
      <use x="601.708984" xlink:href="#DejaVuSans-99"/>
      <use x="656.689453" xlink:href="#DejaVuSans-108"/>
      <use x="684.472656" xlink:href="#DejaVuSans-97"/>
      <use x="745.751953" xlink:href="#DejaVuSans-115"/>
      <use x="797.851562" xlink:href="#DejaVuSans-115"/>
      <use x="849.951172" xlink:href="#DejaVuSans-32"/>
      <use x="881.738281" xlink:href="#DejaVuSans-49"/>
      <use x="945.361328" xlink:href="#DejaVuSans-32"/>
      <use x="977.148438" xlink:href="#DejaVuSans-40"/>
      <use x="1016.162109" xlink:href="#DejaVuSans-97"/>
      <use x="1077.441406" xlink:href="#DejaVuSans-114"/>
      <use x="1116.304688" xlink:href="#DejaVuSans-101"/>
      <use x="1177.828125" xlink:href="#DejaVuSans-97"/>
      <use x="1239.107422" xlink:href="#DejaVuSans-32"/>
      <use x="1270.894531" xlink:href="#DejaVuSans-61"/>
      <use x="1354.683594" xlink:href="#DejaVuSans-32"/>
      <use x="1386.470703" xlink:href="#DejaVuSans-49"/>
      <use x="1450.09375" xlink:href="#DejaVuSans-46"/>
      <use x="1481.880859" xlink:href="#DejaVuSans-48"/>
      <use x="1545.503906" xlink:href="#DejaVuSans-48"/>
      <use x="1609.126953" xlink:href="#DejaVuSans-41"/>
     </g>
    </g>
    <g id="line2d_28">
     <path d="M 63 149.351562 
L 83 149.351562 
" style="fill:none;stroke:#b31be7;stroke-linecap:square;stroke-width:2;"/>
    </g>
    <g id="line2d_29"/>
    <g id="text_18">
     <!-- PR curve of class 2 (area = 1.00) -->
     <g transform="translate(91 152.851562)scale(0.1 -0.1)">
      <use xlink:href="#DejaVuSans-80"/>
      <use x="60.302734" xlink:href="#DejaVuSans-82"/>
      <use x="129.785156" xlink:href="#DejaVuSans-32"/>
      <use x="161.572266" xlink:href="#DejaVuSans-99"/>
      <use x="216.552734" xlink:href="#DejaVuSans-117"/>
      <use x="279.931641" xlink:href="#DejaVuSans-114"/>
      <use x="321.044922" xlink:href="#DejaVuSans-118"/>
      <use x="380.224609" xlink:href="#DejaVuSans-101"/>
      <use x="441.748047" xlink:href="#DejaVuSans-32"/>
      <use x="473.535156" xlink:href="#DejaVuSans-111"/>
      <use x="534.716797" xlink:href="#DejaVuSans-102"/>
      <use x="569.921875" xlink:href="#DejaVuSans-32"/>
      <use x="601.708984" xlink:href="#DejaVuSans-99"/>
      <use x="656.689453" xlink:href="#DejaVuSans-108"/>
      <use x="684.472656" xlink:href="#DejaVuSans-97"/>
      <use x="745.751953" xlink:href="#DejaVuSans-115"/>
      <use x="797.851562" xlink:href="#DejaVuSans-115"/>
      <use x="849.951172" xlink:href="#DejaVuSans-32"/>
      <use x="881.738281" xlink:href="#DejaVuSans-50"/>
      <use x="945.361328" xlink:href="#DejaVuSans-32"/>
      <use x="977.148438" xlink:href="#DejaVuSans-40"/>
      <use x="1016.162109" xlink:href="#DejaVuSans-97"/>
      <use x="1077.441406" xlink:href="#DejaVuSans-114"/>
      <use x="1116.304688" xlink:href="#DejaVuSans-101"/>
      <use x="1177.828125" xlink:href="#DejaVuSans-97"/>
      <use x="1239.107422" xlink:href="#DejaVuSans-32"/>
      <use x="1270.894531" xlink:href="#DejaVuSans-61"/>
      <use x="1354.683594" xlink:href="#DejaVuSans-32"/>
      <use x="1386.470703" xlink:href="#DejaVuSans-49"/>
      <use x="1450.09375" xlink:href="#DejaVuSans-46"/>
      <use x="1481.880859" xlink:href="#DejaVuSans-48"/>
      <use x="1545.503906" xlink:href="#DejaVuSans-48"/>
      <use x="1609.126953" xlink:href="#DejaVuSans-41"/>
     </g>
    </g>
    <g id="line2d_30">
     <path d="M 63 164.029688 
L 83 164.029688 
" style="fill:none;stroke:#eb8c7c;stroke-linecap:square;stroke-width:2;"/>
    </g>
    <g id="line2d_31"/>
    <g id="text_19">
     <!-- PR curve of class 3 (area = 1.00) -->
     <g transform="translate(91 167.529688)scale(0.1 -0.1)">
      <defs>
       <path d="M 40.578125 39.3125 
Q 47.65625 37.796875 51.625 33 
Q 55.609375 28.21875 55.609375 21.1875 
Q 55.609375 10.40625 48.1875 4.484375 
Q 40.765625 -1.421875 27.09375 -1.421875 
Q 22.515625 -1.421875 17.65625 -0.515625 
Q 12.796875 0.390625 7.625 2.203125 
L 7.625 11.71875 
Q 11.71875 9.328125 16.59375 8.109375 
Q 21.484375 6.890625 26.8125 6.890625 
Q 36.078125 6.890625 40.9375 10.546875 
Q 45.796875 14.203125 45.796875 21.1875 
Q 45.796875 27.640625 41.28125 31.265625 
Q 36.765625 34.90625 28.71875 34.90625 
L 20.21875 34.90625 
L 20.21875 43.015625 
L 29.109375 43.015625 
Q 36.375 43.015625 40.234375 45.921875 
Q 44.09375 48.828125 44.09375 54.296875 
Q 44.09375 59.90625 40.109375 62.90625 
Q 36.140625 65.921875 28.71875 65.921875 
Q 24.65625 65.921875 20.015625 65.03125 
Q 15.375 64.15625 9.8125 62.3125 
L 9.8125 71.09375 
Q 15.4375 72.65625 20.34375 73.4375 
Q 25.25 74.21875 29.59375 74.21875 
Q 40.828125 74.21875 47.359375 69.109375 
Q 53.90625 64.015625 53.90625 55.328125 
Q 53.90625 49.265625 50.4375 45.09375 
Q 46.96875 40.921875 40.578125 39.3125 
z
" id="DejaVuSans-51"/>
      </defs>
      <use xlink:href="#DejaVuSans-80"/>
      <use x="60.302734" xlink:href="#DejaVuSans-82"/>
      <use x="129.785156" xlink:href="#DejaVuSans-32"/>
      <use x="161.572266" xlink:href="#DejaVuSans-99"/>
      <use x="216.552734" xlink:href="#DejaVuSans-117"/>
      <use x="279.931641" xlink:href="#DejaVuSans-114"/>
      <use x="321.044922" xlink:href="#DejaVuSans-118"/>
      <use x="380.224609" xlink:href="#DejaVuSans-101"/>
      <use x="441.748047" xlink:href="#DejaVuSans-32"/>
      <use x="473.535156" xlink:href="#DejaVuSans-111"/>
      <use x="534.716797" xlink:href="#DejaVuSans-102"/>
      <use x="569.921875" xlink:href="#DejaVuSans-32"/>
      <use x="601.708984" xlink:href="#DejaVuSans-99"/>
      <use x="656.689453" xlink:href="#DejaVuSans-108"/>
      <use x="684.472656" xlink:href="#DejaVuSans-97"/>
      <use x="745.751953" xlink:href="#DejaVuSans-115"/>
      <use x="797.851562" xlink:href="#DejaVuSans-115"/>
      <use x="849.951172" xlink:href="#DejaVuSans-32"/>
      <use x="881.738281" xlink:href="#DejaVuSans-51"/>
      <use x="945.361328" xlink:href="#DejaVuSans-32"/>
      <use x="977.148438" xlink:href="#DejaVuSans-40"/>
      <use x="1016.162109" xlink:href="#DejaVuSans-97"/>
      <use x="1077.441406" xlink:href="#DejaVuSans-114"/>
      <use x="1116.304688" xlink:href="#DejaVuSans-101"/>
      <use x="1177.828125" xlink:href="#DejaVuSans-97"/>
      <use x="1239.107422" xlink:href="#DejaVuSans-32"/>
      <use x="1270.894531" xlink:href="#DejaVuSans-61"/>
      <use x="1354.683594" xlink:href="#DejaVuSans-32"/>
      <use x="1386.470703" xlink:href="#DejaVuSans-49"/>
      <use x="1450.09375" xlink:href="#DejaVuSans-46"/>
      <use x="1481.880859" xlink:href="#DejaVuSans-48"/>
      <use x="1545.503906" xlink:href="#DejaVuSans-48"/>
      <use x="1609.126953" xlink:href="#DejaVuSans-41"/>
     </g>
    </g>
    <g id="line2d_32">
     <path d="M 63 178.707813 
L 83 178.707813 
" style="fill:none;stroke:#77ebe3;stroke-linecap:square;stroke-width:2;"/>
    </g>
    <g id="line2d_33"/>
    <g id="text_20">
     <!-- PR curve of class 4 (area = 0.93) -->
     <g transform="translate(91 182.207813)scale(0.1 -0.1)">
      <defs>
       <path d="M 10.984375 1.515625 
L 10.984375 10.5 
Q 14.703125 8.734375 18.5 7.8125 
Q 22.3125 6.890625 25.984375 6.890625 
Q 35.75 6.890625 40.890625 13.453125 
Q 46.046875 20.015625 46.78125 33.40625 
Q 43.953125 29.203125 39.59375 26.953125 
Q 35.25 24.703125 29.984375 24.703125 
Q 19.046875 24.703125 12.671875 31.3125 
Q 6.296875 37.9375 6.296875 49.421875 
Q 6.296875 60.640625 12.9375 67.421875 
Q 19.578125 74.21875 30.609375 74.21875 
Q 43.265625 74.21875 49.921875 64.515625 
Q 56.59375 54.828125 56.59375 36.375 
Q 56.59375 19.140625 48.40625 8.859375 
Q 40.234375 -1.421875 26.421875 -1.421875 
Q 22.703125 -1.421875 18.890625 -0.6875 
Q 15.09375 0.046875 10.984375 1.515625 
z
M 30.609375 32.421875 
Q 37.25 32.421875 41.125 36.953125 
Q 45.015625 41.5 45.015625 49.421875 
Q 45.015625 57.28125 41.125 61.84375 
Q 37.25 66.40625 30.609375 66.40625 
Q 23.96875 66.40625 20.09375 61.84375 
Q 16.21875 57.28125 16.21875 49.421875 
Q 16.21875 41.5 20.09375 36.953125 
Q 23.96875 32.421875 30.609375 32.421875 
z
" id="DejaVuSans-57"/>
      </defs>
      <use xlink:href="#DejaVuSans-80"/>
      <use x="60.302734" xlink:href="#DejaVuSans-82"/>
      <use x="129.785156" xlink:href="#DejaVuSans-32"/>
      <use x="161.572266" xlink:href="#DejaVuSans-99"/>
      <use x="216.552734" xlink:href="#DejaVuSans-117"/>
      <use x="279.931641" xlink:href="#DejaVuSans-114"/>
      <use x="321.044922" xlink:href="#DejaVuSans-118"/>
      <use x="380.224609" xlink:href="#DejaVuSans-101"/>
      <use x="441.748047" xlink:href="#DejaVuSans-32"/>
      <use x="473.535156" xlink:href="#DejaVuSans-111"/>
      <use x="534.716797" xlink:href="#DejaVuSans-102"/>
      <use x="569.921875" xlink:href="#DejaVuSans-32"/>
      <use x="601.708984" xlink:href="#DejaVuSans-99"/>
      <use x="656.689453" xlink:href="#DejaVuSans-108"/>
      <use x="684.472656" xlink:href="#DejaVuSans-97"/>
      <use x="745.751953" xlink:href="#DejaVuSans-115"/>
      <use x="797.851562" xlink:href="#DejaVuSans-115"/>
      <use x="849.951172" xlink:href="#DejaVuSans-32"/>
      <use x="881.738281" xlink:href="#DejaVuSans-52"/>
      <use x="945.361328" xlink:href="#DejaVuSans-32"/>
      <use x="977.148438" xlink:href="#DejaVuSans-40"/>
      <use x="1016.162109" xlink:href="#DejaVuSans-97"/>
      <use x="1077.441406" xlink:href="#DejaVuSans-114"/>
      <use x="1116.304688" xlink:href="#DejaVuSans-101"/>
      <use x="1177.828125" xlink:href="#DejaVuSans-97"/>
      <use x="1239.107422" xlink:href="#DejaVuSans-32"/>
      <use x="1270.894531" xlink:href="#DejaVuSans-61"/>
      <use x="1354.683594" xlink:href="#DejaVuSans-32"/>
      <use x="1386.470703" xlink:href="#DejaVuSans-48"/>
      <use x="1450.09375" xlink:href="#DejaVuSans-46"/>
      <use x="1481.880859" xlink:href="#DejaVuSans-57"/>
      <use x="1545.503906" xlink:href="#DejaVuSans-51"/>
      <use x="1609.126953" xlink:href="#DejaVuSans-41"/>
     </g>
    </g>
    <g id="line2d_34">
     <path d="M 63 193.385938 
L 83 193.385938 
" style="fill:none;stroke:#3f8238;stroke-linecap:square;stroke-width:2;"/>
    </g>
    <g id="line2d_35"/>
    <g id="text_21">
     <!-- PR curve of class 5 (area = 0.99) -->
     <g transform="translate(91 196.885938)scale(0.1 -0.1)">
      <defs>
       <path d="M 10.796875 72.90625 
L 49.515625 72.90625 
L 49.515625 64.59375 
L 19.828125 64.59375 
L 19.828125 46.734375 
Q 21.96875 47.46875 24.109375 47.828125 
Q 26.265625 48.1875 28.421875 48.1875 
Q 40.625 48.1875 47.75 41.5 
Q 54.890625 34.8125 54.890625 23.390625 
Q 54.890625 11.625 47.5625 5.09375 
Q 40.234375 -1.421875 26.90625 -1.421875 
Q 22.3125 -1.421875 17.546875 -0.640625 
Q 12.796875 0.140625 7.71875 1.703125 
L 7.71875 11.625 
Q 12.109375 9.234375 16.796875 8.0625 
Q 21.484375 6.890625 26.703125 6.890625 
Q 35.15625 6.890625 40.078125 11.328125 
Q 45.015625 15.765625 45.015625 23.390625 
Q 45.015625 31 40.078125 35.4375 
Q 35.15625 39.890625 26.703125 39.890625 
Q 22.75 39.890625 18.8125 39.015625 
Q 14.890625 38.140625 10.796875 36.28125 
z
" id="DejaVuSans-53"/>
      </defs>
      <use xlink:href="#DejaVuSans-80"/>
      <use x="60.302734" xlink:href="#DejaVuSans-82"/>
      <use x="129.785156" xlink:href="#DejaVuSans-32"/>
      <use x="161.572266" xlink:href="#DejaVuSans-99"/>
      <use x="216.552734" xlink:href="#DejaVuSans-117"/>
      <use x="279.931641" xlink:href="#DejaVuSans-114"/>
      <use x="321.044922" xlink:href="#DejaVuSans-118"/>
      <use x="380.224609" xlink:href="#DejaVuSans-101"/>
      <use x="441.748047" xlink:href="#DejaVuSans-32"/>
      <use x="473.535156" xlink:href="#DejaVuSans-111"/>
      <use x="534.716797" xlink:href="#DejaVuSans-102"/>
      <use x="569.921875" xlink:href="#DejaVuSans-32"/>
      <use x="601.708984" xlink:href="#DejaVuSans-99"/>
      <use x="656.689453" xlink:href="#DejaVuSans-108"/>
      <use x="684.472656" xlink:href="#DejaVuSans-97"/>
      <use x="745.751953" xlink:href="#DejaVuSans-115"/>
      <use x="797.851562" xlink:href="#DejaVuSans-115"/>
      <use x="849.951172" xlink:href="#DejaVuSans-32"/>
      <use x="881.738281" xlink:href="#DejaVuSans-53"/>
      <use x="945.361328" xlink:href="#DejaVuSans-32"/>
      <use x="977.148438" xlink:href="#DejaVuSans-40"/>
      <use x="1016.162109" xlink:href="#DejaVuSans-97"/>
      <use x="1077.441406" xlink:href="#DejaVuSans-114"/>
      <use x="1116.304688" xlink:href="#DejaVuSans-101"/>
      <use x="1177.828125" xlink:href="#DejaVuSans-97"/>
      <use x="1239.107422" xlink:href="#DejaVuSans-32"/>
      <use x="1270.894531" xlink:href="#DejaVuSans-61"/>
      <use x="1354.683594" xlink:href="#DejaVuSans-32"/>
      <use x="1386.470703" xlink:href="#DejaVuSans-48"/>
      <use x="1450.09375" xlink:href="#DejaVuSans-46"/>
      <use x="1481.880859" xlink:href="#DejaVuSans-57"/>
      <use x="1545.503906" xlink:href="#DejaVuSans-57"/>
      <use x="1609.126953" xlink:href="#DejaVuSans-41"/>
     </g>
    </g>
    <g id="line2d_36">
     <path d="M 63 208.064063 
L 83 208.064063 
" style="fill:none;stroke:#a17088;stroke-linecap:square;stroke-width:2;"/>
    </g>
    <g id="line2d_37"/>
    <g id="text_22">
     <!-- PR curve of class 6 (area = 1.00) -->
     <g transform="translate(91 211.564063)scale(0.1 -0.1)">
      <use xlink:href="#DejaVuSans-80"/>
      <use x="60.302734" xlink:href="#DejaVuSans-82"/>
      <use x="129.785156" xlink:href="#DejaVuSans-32"/>
      <use x="161.572266" xlink:href="#DejaVuSans-99"/>
      <use x="216.552734" xlink:href="#DejaVuSans-117"/>
      <use x="279.931641" xlink:href="#DejaVuSans-114"/>
      <use x="321.044922" xlink:href="#DejaVuSans-118"/>
      <use x="380.224609" xlink:href="#DejaVuSans-101"/>
      <use x="441.748047" xlink:href="#DejaVuSans-32"/>
      <use x="473.535156" xlink:href="#DejaVuSans-111"/>
      <use x="534.716797" xlink:href="#DejaVuSans-102"/>
      <use x="569.921875" xlink:href="#DejaVuSans-32"/>
      <use x="601.708984" xlink:href="#DejaVuSans-99"/>
      <use x="656.689453" xlink:href="#DejaVuSans-108"/>
      <use x="684.472656" xlink:href="#DejaVuSans-97"/>
      <use x="745.751953" xlink:href="#DejaVuSans-115"/>
      <use x="797.851562" xlink:href="#DejaVuSans-115"/>
      <use x="849.951172" xlink:href="#DejaVuSans-32"/>
      <use x="881.738281" xlink:href="#DejaVuSans-54"/>
      <use x="945.361328" xlink:href="#DejaVuSans-32"/>
      <use x="977.148438" xlink:href="#DejaVuSans-40"/>
      <use x="1016.162109" xlink:href="#DejaVuSans-97"/>
      <use x="1077.441406" xlink:href="#DejaVuSans-114"/>
      <use x="1116.304688" xlink:href="#DejaVuSans-101"/>
      <use x="1177.828125" xlink:href="#DejaVuSans-97"/>
      <use x="1239.107422" xlink:href="#DejaVuSans-32"/>
      <use x="1270.894531" xlink:href="#DejaVuSans-61"/>
      <use x="1354.683594" xlink:href="#DejaVuSans-32"/>
      <use x="1386.470703" xlink:href="#DejaVuSans-49"/>
      <use x="1450.09375" xlink:href="#DejaVuSans-46"/>
      <use x="1481.880859" xlink:href="#DejaVuSans-48"/>
      <use x="1545.503906" xlink:href="#DejaVuSans-48"/>
      <use x="1609.126953" xlink:href="#DejaVuSans-41"/>
     </g>
    </g>
    <g id="line2d_38">
     <path d="M 63 222.742188 
L 83 222.742188 
" style="fill:none;stroke:#2b55ac;stroke-linecap:square;stroke-width:2;"/>
    </g>
    <g id="line2d_39"/>
    <g id="text_23">
     <!-- PR curve of class 7 (area = 1.00) -->
     <g transform="translate(91 226.242188)scale(0.1 -0.1)">
      <defs>
       <path d="M 8.203125 72.90625 
L 55.078125 72.90625 
L 55.078125 68.703125 
L 28.609375 0 
L 18.3125 0 
L 43.21875 64.59375 
L 8.203125 64.59375 
z
" id="DejaVuSans-55"/>
      </defs>
      <use xlink:href="#DejaVuSans-80"/>
      <use x="60.302734" xlink:href="#DejaVuSans-82"/>
      <use x="129.785156" xlink:href="#DejaVuSans-32"/>
      <use x="161.572266" xlink:href="#DejaVuSans-99"/>
      <use x="216.552734" xlink:href="#DejaVuSans-117"/>
      <use x="279.931641" xlink:href="#DejaVuSans-114"/>
      <use x="321.044922" xlink:href="#DejaVuSans-118"/>
      <use x="380.224609" xlink:href="#DejaVuSans-101"/>
      <use x="441.748047" xlink:href="#DejaVuSans-32"/>
      <use x="473.535156" xlink:href="#DejaVuSans-111"/>
      <use x="534.716797" xlink:href="#DejaVuSans-102"/>
      <use x="569.921875" xlink:href="#DejaVuSans-32"/>
      <use x="601.708984" xlink:href="#DejaVuSans-99"/>
      <use x="656.689453" xlink:href="#DejaVuSans-108"/>
      <use x="684.472656" xlink:href="#DejaVuSans-97"/>
      <use x="745.751953" xlink:href="#DejaVuSans-115"/>
      <use x="797.851562" xlink:href="#DejaVuSans-115"/>
      <use x="849.951172" xlink:href="#DejaVuSans-32"/>
      <use x="881.738281" xlink:href="#DejaVuSans-55"/>
      <use x="945.361328" xlink:href="#DejaVuSans-32"/>
      <use x="977.148438" xlink:href="#DejaVuSans-40"/>
      <use x="1016.162109" xlink:href="#DejaVuSans-97"/>
      <use x="1077.441406" xlink:href="#DejaVuSans-114"/>
      <use x="1116.304688" xlink:href="#DejaVuSans-101"/>
      <use x="1177.828125" xlink:href="#DejaVuSans-97"/>
      <use x="1239.107422" xlink:href="#DejaVuSans-32"/>
      <use x="1270.894531" xlink:href="#DejaVuSans-61"/>
      <use x="1354.683594" xlink:href="#DejaVuSans-32"/>
      <use x="1386.470703" xlink:href="#DejaVuSans-49"/>
      <use x="1450.09375" xlink:href="#DejaVuSans-46"/>
      <use x="1481.880859" xlink:href="#DejaVuSans-48"/>
      <use x="1545.503906" xlink:href="#DejaVuSans-48"/>
      <use x="1609.126953" xlink:href="#DejaVuSans-41"/>
     </g>
    </g>
    <g id="line2d_40">
     <path d="M 63 237.420312 
L 83 237.420312 
" style="fill:none;stroke:#ff1493;stroke-dasharray:4,6.6;stroke-dashoffset:0;stroke-width:4;"/>
    </g>
    <g id="line2d_41"/>
    <g id="text_24">
     <!-- micro-average PR curve (area = 1.00) -->
     <g transform="translate(91 240.920312)scale(0.1 -0.1)">
      <defs>
       <path d="M 52 44.1875 
Q 55.375 50.25 60.0625 53.125 
Q 64.75 56 71.09375 56 
Q 79.640625 56 84.28125 50.015625 
Q 88.921875 44.046875 88.921875 33.015625 
L 88.921875 0 
L 79.890625 0 
L 79.890625 32.71875 
Q 79.890625 40.578125 77.09375 44.375 
Q 74.3125 48.1875 68.609375 48.1875 
Q 61.625 48.1875 57.5625 43.546875 
Q 53.515625 38.921875 53.515625 30.90625 
L 53.515625 0 
L 44.484375 0 
L 44.484375 32.71875 
Q 44.484375 40.625 41.703125 44.40625 
Q 38.921875 48.1875 33.109375 48.1875 
Q 26.21875 48.1875 22.15625 43.53125 
Q 18.109375 38.875 18.109375 30.90625 
L 18.109375 0 
L 9.078125 0 
L 9.078125 54.6875 
L 18.109375 54.6875 
L 18.109375 46.1875 
Q 21.1875 51.21875 25.484375 53.609375 
Q 29.78125 56 35.6875 56 
Q 41.65625 56 45.828125 52.96875 
Q 50 49.953125 52 44.1875 
z
" id="DejaVuSans-109"/>
       <path d="M 4.890625 31.390625 
L 31.203125 31.390625 
L 31.203125 23.390625 
L 4.890625 23.390625 
z
" id="DejaVuSans-45"/>
       <path d="M 45.40625 27.984375 
Q 45.40625 37.75 41.375 43.109375 
Q 37.359375 48.484375 30.078125 48.484375 
Q 22.859375 48.484375 18.828125 43.109375 
Q 14.796875 37.75 14.796875 27.984375 
Q 14.796875 18.265625 18.828125 12.890625 
Q 22.859375 7.515625 30.078125 7.515625 
Q 37.359375 7.515625 41.375 12.890625 
Q 45.40625 18.265625 45.40625 27.984375 
z
M 54.390625 6.78125 
Q 54.390625 -7.171875 48.1875 -13.984375 
Q 42 -20.796875 29.203125 -20.796875 
Q 24.46875 -20.796875 20.265625 -20.09375 
Q 16.0625 -19.390625 12.109375 -17.921875 
L 12.109375 -9.1875 
Q 16.0625 -11.328125 19.921875 -12.34375 
Q 23.78125 -13.375 27.78125 -13.375 
Q 36.625 -13.375 41.015625 -8.765625 
Q 45.40625 -4.15625 45.40625 5.171875 
L 45.40625 9.625 
Q 42.625 4.78125 38.28125 2.390625 
Q 33.9375 0 27.875 0 
Q 17.828125 0 11.671875 7.65625 
Q 5.515625 15.328125 5.515625 27.984375 
Q 5.515625 40.671875 11.671875 48.328125 
Q 17.828125 56 27.875 56 
Q 33.9375 56 38.28125 53.609375 
Q 42.625 51.21875 45.40625 46.390625 
L 45.40625 54.6875 
L 54.390625 54.6875 
z
" id="DejaVuSans-103"/>
      </defs>
      <use xlink:href="#DejaVuSans-109"/>
      <use x="97.412109" xlink:href="#DejaVuSans-105"/>
      <use x="125.195312" xlink:href="#DejaVuSans-99"/>
      <use x="180.175781" xlink:href="#DejaVuSans-114"/>
      <use x="219.039062" xlink:href="#DejaVuSans-111"/>
      <use x="282.095703" xlink:href="#DejaVuSans-45"/>
      <use x="318.179688" xlink:href="#DejaVuSans-97"/>
      <use x="379.458984" xlink:href="#DejaVuSans-118"/>
      <use x="438.638672" xlink:href="#DejaVuSans-101"/>
      <use x="500.162109" xlink:href="#DejaVuSans-114"/>
      <use x="541.275391" xlink:href="#DejaVuSans-97"/>
      <use x="602.554688" xlink:href="#DejaVuSans-103"/>
      <use x="666.03125" xlink:href="#DejaVuSans-101"/>
      <use x="727.554688" xlink:href="#DejaVuSans-32"/>
      <use x="759.341797" xlink:href="#DejaVuSans-80"/>
      <use x="819.644531" xlink:href="#DejaVuSans-82"/>
      <use x="889.126953" xlink:href="#DejaVuSans-32"/>
      <use x="920.914062" xlink:href="#DejaVuSans-99"/>
      <use x="975.894531" xlink:href="#DejaVuSans-117"/>
      <use x="1039.273438" xlink:href="#DejaVuSans-114"/>
      <use x="1080.386719" xlink:href="#DejaVuSans-118"/>
      <use x="1139.566406" xlink:href="#DejaVuSans-101"/>
      <use x="1201.089844" xlink:href="#DejaVuSans-32"/>
      <use x="1232.876953" xlink:href="#DejaVuSans-40"/>
      <use x="1271.890625" xlink:href="#DejaVuSans-97"/>
      <use x="1333.169922" xlink:href="#DejaVuSans-114"/>
      <use x="1372.033203" xlink:href="#DejaVuSans-101"/>
      <use x="1433.556641" xlink:href="#DejaVuSans-97"/>
      <use x="1494.835938" xlink:href="#DejaVuSans-32"/>
      <use x="1526.623047" xlink:href="#DejaVuSans-61"/>
      <use x="1610.412109" xlink:href="#DejaVuSans-32"/>
      <use x="1642.199219" xlink:href="#DejaVuSans-49"/>
      <use x="1705.822266" xlink:href="#DejaVuSans-46"/>
      <use x="1737.609375" xlink:href="#DejaVuSans-48"/>
      <use x="1801.232422" xlink:href="#DejaVuSans-48"/>
      <use x="1864.855469" xlink:href="#DejaVuSans-41"/>
     </g>
    </g>
   </g>
  </g>
 </g>
 <defs>
  <clipPath id="p30b124f799">
   <rect height="217.44" width="334.8" x="54" y="34.56"/>
  </clipPath>
 </defs>
</svg>
