<?xml version="1.0" encoding="utf-8" standalone="no"?>
<!DOCTYPE svg PUBLIC "-//W3C//DTD SVG 1.1//EN"
  "http://www.w3.org/Graphics/SVG/1.1/DTD/svg11.dtd">
<!-- Created with matplotlib (https://matplotlib.org/) -->
<svg height="288pt" version="1.1" viewBox="0 0 432 288" width="432pt" xmlns="http://www.w3.org/2000/svg" xmlns:xlink="http://www.w3.org/1999/xlink">
 <metadata>
  <rdf:RDF xmlns:cc="http://creativecommons.org/ns#" xmlns:dc="http://purl.org/dc/elements/1.1/" xmlns:rdf="http://www.w3.org/1999/02/22-rdf-syntax-ns#">
   <cc:Work>
    <dc:type rdf:resource="http://purl.org/dc/dcmitype/StillImage"/>
    <dc:date>2021-07-10T13:27:03.934330</dc:date>
    <dc:format>image/svg+xml</dc:format>
    <dc:creator>
     <cc:Agent>
      <dc:title>Matplotlib v3.3.4, https://matplotlib.org/</dc:title>
     </cc:Agent>
    </dc:creator>
   </cc:Work>
  </rdf:RDF>
 </metadata>
 <defs>
  <style type="text/css">*{stroke-linecap:butt;stroke-linejoin:round;}</style>
 </defs>
 <g id="figure_1">
  <g id="patch_1">
   <path d="M 0 288 
L 432 288 
L 432 0 
L 0 0 
z
" style="fill:#ffffff;"/>
  </g>
  <g id="axes_1">
   <g id="patch_2">
    <path d="M 54 252 
L 388.8 252 
L 388.8 34.56 
L 54 34.56 
z
" style="fill:#ffffff;"/>
   </g>
   <g id="matplotlib.axis_1">
    <g id="xtick_1">
     <g id="line2d_1">
      <defs>
       <path d="M 0 0 
L 0 3.5 
" id="m80dd755790" style="stroke:#000000;stroke-width:0.8;"/>
      </defs>
      <g>
       <use style="stroke:#000000;stroke-width:0.8;" x="54" xlink:href="#m80dd755790" y="252"/>
      </g>
     </g>
     <g id="text_1">
      <!-- 0.0 -->
      <g transform="translate(46.048437 266.598437)scale(0.1 -0.1)">
       <defs>
        <path d="M 31.78125 66.40625 
Q 24.171875 66.40625 20.328125 58.90625 
Q 16.5 51.421875 16.5 36.375 
Q 16.5 21.390625 20.328125 13.890625 
Q 24.171875 6.390625 31.78125 6.390625 
Q 39.453125 6.390625 43.28125 13.890625 
Q 47.125 21.390625 47.125 36.375 
Q 47.125 51.421875 43.28125 58.90625 
Q 39.453125 66.40625 31.78125 66.40625 
z
M 31.78125 74.21875 
Q 44.046875 74.21875 50.515625 64.515625 
Q 56.984375 54.828125 56.984375 36.375 
Q 56.984375 17.96875 50.515625 8.265625 
Q 44.046875 -1.421875 31.78125 -1.421875 
Q 19.53125 -1.421875 13.0625 8.265625 
Q 6.59375 17.96875 6.59375 36.375 
Q 6.59375 54.828125 13.0625 64.515625 
Q 19.53125 74.21875 31.78125 74.21875 
z
" id="DejaVuSans-48"/>
        <path d="M 10.6875 12.40625 
L 21 12.40625 
L 21 0 
L 10.6875 0 
z
" id="DejaVuSans-46"/>
       </defs>
       <use xlink:href="#DejaVuSans-48"/>
       <use x="63.623047" xlink:href="#DejaVuSans-46"/>
       <use x="95.410156" xlink:href="#DejaVuSans-48"/>
      </g>
     </g>
    </g>
    <g id="xtick_2">
     <g id="line2d_2">
      <g>
       <use style="stroke:#000000;stroke-width:0.8;" x="120.96" xlink:href="#m80dd755790" y="252"/>
      </g>
     </g>
     <g id="text_2">
      <!-- 0.2 -->
      <g transform="translate(113.008438 266.598437)scale(0.1 -0.1)">
       <defs>
        <path d="M 19.1875 8.296875 
L 53.609375 8.296875 
L 53.609375 0 
L 7.328125 0 
L 7.328125 8.296875 
Q 12.9375 14.109375 22.625 23.890625 
Q 32.328125 33.6875 34.8125 36.53125 
Q 39.546875 41.84375 41.421875 45.53125 
Q 43.3125 49.21875 43.3125 52.78125 
Q 43.3125 58.59375 39.234375 62.25 
Q 35.15625 65.921875 28.609375 65.921875 
Q 23.96875 65.921875 18.8125 64.3125 
Q 13.671875 62.703125 7.8125 59.421875 
L 7.8125 69.390625 
Q 13.765625 71.78125 18.9375 73 
Q 24.125 74.21875 28.421875 74.21875 
Q 39.75 74.21875 46.484375 68.546875 
Q 53.21875 62.890625 53.21875 53.421875 
Q 53.21875 48.921875 51.53125 44.890625 
Q 49.859375 40.875 45.40625 35.40625 
Q 44.1875 33.984375 37.640625 27.21875 
Q 31.109375 20.453125 19.1875 8.296875 
z
" id="DejaVuSans-50"/>
       </defs>
       <use xlink:href="#DejaVuSans-48"/>
       <use x="63.623047" xlink:href="#DejaVuSans-46"/>
       <use x="95.410156" xlink:href="#DejaVuSans-50"/>
      </g>
     </g>
    </g>
    <g id="xtick_3">
     <g id="line2d_3">
      <g>
       <use style="stroke:#000000;stroke-width:0.8;" x="187.92" xlink:href="#m80dd755790" y="252"/>
      </g>
     </g>
     <g id="text_3">
      <!-- 0.4 -->
      <g transform="translate(179.968438 266.598437)scale(0.1 -0.1)">
       <defs>
        <path d="M 37.796875 64.3125 
L 12.890625 25.390625 
L 37.796875 25.390625 
z
M 35.203125 72.90625 
L 47.609375 72.90625 
L 47.609375 25.390625 
L 58.015625 25.390625 
L 58.015625 17.1875 
L 47.609375 17.1875 
L 47.609375 0 
L 37.796875 0 
L 37.796875 17.1875 
L 4.890625 17.1875 
L 4.890625 26.703125 
z
" id="DejaVuSans-52"/>
       </defs>
       <use xlink:href="#DejaVuSans-48"/>
       <use x="63.623047" xlink:href="#DejaVuSans-46"/>
       <use x="95.410156" xlink:href="#DejaVuSans-52"/>
      </g>
     </g>
    </g>
    <g id="xtick_4">
     <g id="line2d_4">
      <g>
       <use style="stroke:#000000;stroke-width:0.8;" x="254.88" xlink:href="#m80dd755790" y="252"/>
      </g>
     </g>
     <g id="text_4">
      <!-- 0.6 -->
      <g transform="translate(246.928438 266.598437)scale(0.1 -0.1)">
       <defs>
        <path d="M 33.015625 40.375 
Q 26.375 40.375 22.484375 35.828125 
Q 18.609375 31.296875 18.609375 23.390625 
Q 18.609375 15.53125 22.484375 10.953125 
Q 26.375 6.390625 33.015625 6.390625 
Q 39.65625 6.390625 43.53125 10.953125 
Q 47.40625 15.53125 47.40625 23.390625 
Q 47.40625 31.296875 43.53125 35.828125 
Q 39.65625 40.375 33.015625 40.375 
z
M 52.59375 71.296875 
L 52.59375 62.3125 
Q 48.875 64.0625 45.09375 64.984375 
Q 41.3125 65.921875 37.59375 65.921875 
Q 27.828125 65.921875 22.671875 59.328125 
Q 17.53125 52.734375 16.796875 39.40625 
Q 19.671875 43.65625 24.015625 45.921875 
Q 28.375 48.1875 33.59375 48.1875 
Q 44.578125 48.1875 50.953125 41.515625 
Q 57.328125 34.859375 57.328125 23.390625 
Q 57.328125 12.15625 50.6875 5.359375 
Q 44.046875 -1.421875 33.015625 -1.421875 
Q 20.359375 -1.421875 13.671875 8.265625 
Q 6.984375 17.96875 6.984375 36.375 
Q 6.984375 53.65625 15.1875 63.9375 
Q 23.390625 74.21875 37.203125 74.21875 
Q 40.921875 74.21875 44.703125 73.484375 
Q 48.484375 72.75 52.59375 71.296875 
z
" id="DejaVuSans-54"/>
       </defs>
       <use xlink:href="#DejaVuSans-48"/>
       <use x="63.623047" xlink:href="#DejaVuSans-46"/>
       <use x="95.410156" xlink:href="#DejaVuSans-54"/>
      </g>
     </g>
    </g>
    <g id="xtick_5">
     <g id="line2d_5">
      <g>
       <use style="stroke:#000000;stroke-width:0.8;" x="321.84" xlink:href="#m80dd755790" y="252"/>
      </g>
     </g>
     <g id="text_5">
      <!-- 0.8 -->
      <g transform="translate(313.888438 266.598437)scale(0.1 -0.1)">
       <defs>
        <path d="M 31.78125 34.625 
Q 24.75 34.625 20.71875 30.859375 
Q 16.703125 27.09375 16.703125 20.515625 
Q 16.703125 13.921875 20.71875 10.15625 
Q 24.75 6.390625 31.78125 6.390625 
Q 38.8125 6.390625 42.859375 10.171875 
Q 46.921875 13.96875 46.921875 20.515625 
Q 46.921875 27.09375 42.890625 30.859375 
Q 38.875 34.625 31.78125 34.625 
z
M 21.921875 38.8125 
Q 15.578125 40.375 12.03125 44.71875 
Q 8.5 49.078125 8.5 55.328125 
Q 8.5 64.0625 14.71875 69.140625 
Q 20.953125 74.21875 31.78125 74.21875 
Q 42.671875 74.21875 48.875 69.140625 
Q 55.078125 64.0625 55.078125 55.328125 
Q 55.078125 49.078125 51.53125 44.71875 
Q 48 40.375 41.703125 38.8125 
Q 48.828125 37.15625 52.796875 32.3125 
Q 56.78125 27.484375 56.78125 20.515625 
Q 56.78125 9.90625 50.3125 4.234375 
Q 43.84375 -1.421875 31.78125 -1.421875 
Q 19.734375 -1.421875 13.25 4.234375 
Q 6.78125 9.90625 6.78125 20.515625 
Q 6.78125 27.484375 10.78125 32.3125 
Q 14.796875 37.15625 21.921875 38.8125 
z
M 18.3125 54.390625 
Q 18.3125 48.734375 21.84375 45.5625 
Q 25.390625 42.390625 31.78125 42.390625 
Q 38.140625 42.390625 41.71875 45.5625 
Q 45.3125 48.734375 45.3125 54.390625 
Q 45.3125 60.0625 41.71875 63.234375 
Q 38.140625 66.40625 31.78125 66.40625 
Q 25.390625 66.40625 21.84375 63.234375 
Q 18.3125 60.0625 18.3125 54.390625 
z
" id="DejaVuSans-56"/>
       </defs>
       <use xlink:href="#DejaVuSans-48"/>
       <use x="63.623047" xlink:href="#DejaVuSans-46"/>
       <use x="95.410156" xlink:href="#DejaVuSans-56"/>
      </g>
     </g>
    </g>
    <g id="xtick_6">
     <g id="line2d_6">
      <g>
       <use style="stroke:#000000;stroke-width:0.8;" x="388.8" xlink:href="#m80dd755790" y="252"/>
      </g>
     </g>
     <g id="text_6">
      <!-- 1.0 -->
      <g transform="translate(380.848437 266.598437)scale(0.1 -0.1)">
       <defs>
        <path d="M 12.40625 8.296875 
L 28.515625 8.296875 
L 28.515625 63.921875 
L 10.984375 60.40625 
L 10.984375 69.390625 
L 28.421875 72.90625 
L 38.28125 72.90625 
L 38.28125 8.296875 
L 54.390625 8.296875 
L 54.390625 0 
L 12.40625 0 
z
" id="DejaVuSans-49"/>
       </defs>
       <use xlink:href="#DejaVuSans-49"/>
       <use x="63.623047" xlink:href="#DejaVuSans-46"/>
       <use x="95.410156" xlink:href="#DejaVuSans-48"/>
      </g>
     </g>
    </g>
    <g id="text_7">
     <!-- False Positive Rate -->
     <g transform="translate(174.933594 280.276563)scale(0.1 -0.1)">
      <defs>
       <path d="M 9.8125 72.90625 
L 51.703125 72.90625 
L 51.703125 64.59375 
L 19.671875 64.59375 
L 19.671875 43.109375 
L 48.578125 43.109375 
L 48.578125 34.8125 
L 19.671875 34.8125 
L 19.671875 0 
L 9.8125 0 
z
" id="DejaVuSans-70"/>
       <path d="M 34.28125 27.484375 
Q 23.390625 27.484375 19.1875 25 
Q 14.984375 22.515625 14.984375 16.5 
Q 14.984375 11.71875 18.140625 8.90625 
Q 21.296875 6.109375 26.703125 6.109375 
Q 34.1875 6.109375 38.703125 11.40625 
Q 43.21875 16.703125 43.21875 25.484375 
L 43.21875 27.484375 
z
M 52.203125 31.203125 
L 52.203125 0 
L 43.21875 0 
L 43.21875 8.296875 
Q 40.140625 3.328125 35.546875 0.953125 
Q 30.953125 -1.421875 24.3125 -1.421875 
Q 15.921875 -1.421875 10.953125 3.296875 
Q 6 8.015625 6 15.921875 
Q 6 25.140625 12.171875 29.828125 
Q 18.359375 34.515625 30.609375 34.515625 
L 43.21875 34.515625 
L 43.21875 35.40625 
Q 43.21875 41.609375 39.140625 45 
Q 35.0625 48.390625 27.6875 48.390625 
Q 23 48.390625 18.546875 47.265625 
Q 14.109375 46.140625 10.015625 43.890625 
L 10.015625 52.203125 
Q 14.9375 54.109375 19.578125 55.046875 
Q 24.21875 56 28.609375 56 
Q 40.484375 56 46.34375 49.84375 
Q 52.203125 43.703125 52.203125 31.203125 
z
" id="DejaVuSans-97"/>
       <path d="M 9.421875 75.984375 
L 18.40625 75.984375 
L 18.40625 0 
L 9.421875 0 
z
" id="DejaVuSans-108"/>
       <path d="M 44.28125 53.078125 
L 44.28125 44.578125 
Q 40.484375 46.53125 36.375 47.5 
Q 32.28125 48.484375 27.875 48.484375 
Q 21.1875 48.484375 17.84375 46.4375 
Q 14.5 44.390625 14.5 40.28125 
Q 14.5 37.15625 16.890625 35.375 
Q 19.28125 33.59375 26.515625 31.984375 
L 29.59375 31.296875 
Q 39.15625 29.25 43.1875 25.515625 
Q 47.21875 21.78125 47.21875 15.09375 
Q 47.21875 7.46875 41.1875 3.015625 
Q 35.15625 -1.421875 24.609375 -1.421875 
Q 20.21875 -1.421875 15.453125 -0.5625 
Q 10.6875 0.296875 5.421875 2 
L 5.421875 11.28125 
Q 10.40625 8.6875 15.234375 7.390625 
Q 20.0625 6.109375 24.8125 6.109375 
Q 31.15625 6.109375 34.5625 8.28125 
Q 37.984375 10.453125 37.984375 14.40625 
Q 37.984375 18.0625 35.515625 20.015625 
Q 33.0625 21.96875 24.703125 23.78125 
L 21.578125 24.515625 
Q 13.234375 26.265625 9.515625 29.90625 
Q 5.8125 33.546875 5.8125 39.890625 
Q 5.8125 47.609375 11.28125 51.796875 
Q 16.75 56 26.8125 56 
Q 31.78125 56 36.171875 55.265625 
Q 40.578125 54.546875 44.28125 53.078125 
z
" id="DejaVuSans-115"/>
       <path d="M 56.203125 29.59375 
L 56.203125 25.203125 
L 14.890625 25.203125 
Q 15.484375 15.921875 20.484375 11.0625 
Q 25.484375 6.203125 34.421875 6.203125 
Q 39.59375 6.203125 44.453125 7.46875 
Q 49.3125 8.734375 54.109375 11.28125 
L 54.109375 2.78125 
Q 49.265625 0.734375 44.1875 -0.34375 
Q 39.109375 -1.421875 33.890625 -1.421875 
Q 20.796875 -1.421875 13.15625 6.1875 
Q 5.515625 13.8125 5.515625 26.8125 
Q 5.515625 40.234375 12.765625 48.109375 
Q 20.015625 56 32.328125 56 
Q 43.359375 56 49.78125 48.890625 
Q 56.203125 41.796875 56.203125 29.59375 
z
M 47.21875 32.234375 
Q 47.125 39.59375 43.09375 43.984375 
Q 39.0625 48.390625 32.421875 48.390625 
Q 24.90625 48.390625 20.390625 44.140625 
Q 15.875 39.890625 15.1875 32.171875 
z
" id="DejaVuSans-101"/>
       <path id="DejaVuSans-32"/>
       <path d="M 19.671875 64.796875 
L 19.671875 37.40625 
L 32.078125 37.40625 
Q 38.96875 37.40625 42.71875 40.96875 
Q 46.484375 44.53125 46.484375 51.125 
Q 46.484375 57.671875 42.71875 61.234375 
Q 38.96875 64.796875 32.078125 64.796875 
z
M 9.8125 72.90625 
L 32.078125 72.90625 
Q 44.34375 72.90625 50.609375 67.359375 
Q 56.890625 61.8125 56.890625 51.125 
Q 56.890625 40.328125 50.609375 34.8125 
Q 44.34375 29.296875 32.078125 29.296875 
L 19.671875 29.296875 
L 19.671875 0 
L 9.8125 0 
z
" id="DejaVuSans-80"/>
       <path d="M 30.609375 48.390625 
Q 23.390625 48.390625 19.1875 42.75 
Q 14.984375 37.109375 14.984375 27.296875 
Q 14.984375 17.484375 19.15625 11.84375 
Q 23.34375 6.203125 30.609375 6.203125 
Q 37.796875 6.203125 41.984375 11.859375 
Q 46.1875 17.53125 46.1875 27.296875 
Q 46.1875 37.015625 41.984375 42.703125 
Q 37.796875 48.390625 30.609375 48.390625 
z
M 30.609375 56 
Q 42.328125 56 49.015625 48.375 
Q 55.71875 40.765625 55.71875 27.296875 
Q 55.71875 13.875 49.015625 6.21875 
Q 42.328125 -1.421875 30.609375 -1.421875 
Q 18.84375 -1.421875 12.171875 6.21875 
Q 5.515625 13.875 5.515625 27.296875 
Q 5.515625 40.765625 12.171875 48.375 
Q 18.84375 56 30.609375 56 
z
" id="DejaVuSans-111"/>
       <path d="M 9.421875 54.6875 
L 18.40625 54.6875 
L 18.40625 0 
L 9.421875 0 
z
M 9.421875 75.984375 
L 18.40625 75.984375 
L 18.40625 64.59375 
L 9.421875 64.59375 
z
" id="DejaVuSans-105"/>
       <path d="M 18.3125 70.21875 
L 18.3125 54.6875 
L 36.8125 54.6875 
L 36.8125 47.703125 
L 18.3125 47.703125 
L 18.3125 18.015625 
Q 18.3125 11.328125 20.140625 9.421875 
Q 21.96875 7.515625 27.59375 7.515625 
L 36.8125 7.515625 
L 36.8125 0 
L 27.59375 0 
Q 17.1875 0 13.234375 3.875 
Q 9.28125 7.765625 9.28125 18.015625 
L 9.28125 47.703125 
L 2.6875 47.703125 
L 2.6875 54.6875 
L 9.28125 54.6875 
L 9.28125 70.21875 
z
" id="DejaVuSans-116"/>
       <path d="M 2.984375 54.6875 
L 12.5 54.6875 
L 29.59375 8.796875 
L 46.6875 54.6875 
L 56.203125 54.6875 
L 35.6875 0 
L 23.484375 0 
z
" id="DejaVuSans-118"/>
       <path d="M 44.390625 34.1875 
Q 47.5625 33.109375 50.5625 29.59375 
Q 53.5625 26.078125 56.59375 19.921875 
L 66.609375 0 
L 56 0 
L 46.6875 18.703125 
Q 43.0625 26.03125 39.671875 28.421875 
Q 36.28125 30.8125 30.421875 30.8125 
L 19.671875 30.8125 
L 19.671875 0 
L 9.8125 0 
L 9.8125 72.90625 
L 32.078125 72.90625 
Q 44.578125 72.90625 50.734375 67.671875 
Q 56.890625 62.453125 56.890625 51.90625 
Q 56.890625 45.015625 53.6875 40.46875 
Q 50.484375 35.9375 44.390625 34.1875 
z
M 19.671875 64.796875 
L 19.671875 38.921875 
L 32.078125 38.921875 
Q 39.203125 38.921875 42.84375 42.21875 
Q 46.484375 45.515625 46.484375 51.90625 
Q 46.484375 58.296875 42.84375 61.546875 
Q 39.203125 64.796875 32.078125 64.796875 
z
" id="DejaVuSans-82"/>
      </defs>
      <use xlink:href="#DejaVuSans-70"/>
      <use x="48.394531" xlink:href="#DejaVuSans-97"/>
      <use x="109.673828" xlink:href="#DejaVuSans-108"/>
      <use x="137.457031" xlink:href="#DejaVuSans-115"/>
      <use x="189.556641" xlink:href="#DejaVuSans-101"/>
      <use x="251.080078" xlink:href="#DejaVuSans-32"/>
      <use x="282.867188" xlink:href="#DejaVuSans-80"/>
      <use x="339.544922" xlink:href="#DejaVuSans-111"/>
      <use x="400.726562" xlink:href="#DejaVuSans-115"/>
      <use x="452.826172" xlink:href="#DejaVuSans-105"/>
      <use x="480.609375" xlink:href="#DejaVuSans-116"/>
      <use x="519.818359" xlink:href="#DejaVuSans-105"/>
      <use x="547.601562" xlink:href="#DejaVuSans-118"/>
      <use x="606.78125" xlink:href="#DejaVuSans-101"/>
      <use x="668.304688" xlink:href="#DejaVuSans-32"/>
      <use x="700.091797" xlink:href="#DejaVuSans-82"/>
      <use x="767.324219" xlink:href="#DejaVuSans-97"/>
      <use x="828.603516" xlink:href="#DejaVuSans-116"/>
      <use x="867.8125" xlink:href="#DejaVuSans-101"/>
     </g>
    </g>
   </g>
   <g id="matplotlib.axis_2">
    <g id="ytick_1">
     <g id="line2d_7">
      <defs>
       <path d="M 0 0 
L -3.5 0 
" id="m5b29d28f76" style="stroke:#000000;stroke-width:0.8;"/>
      </defs>
      <g>
       <use style="stroke:#000000;stroke-width:0.8;" x="54" xlink:href="#m5b29d28f76" y="252"/>
      </g>
     </g>
     <g id="text_8">
      <!-- 0.0 -->
      <g transform="translate(31.096875 255.799219)scale(0.1 -0.1)">
       <use xlink:href="#DejaVuSans-48"/>
       <use x="63.623047" xlink:href="#DejaVuSans-46"/>
       <use x="95.410156" xlink:href="#DejaVuSans-48"/>
      </g>
     </g>
    </g>
    <g id="ytick_2">
     <g id="line2d_8">
      <g>
       <use style="stroke:#000000;stroke-width:0.8;" x="54" xlink:href="#m5b29d28f76" y="210.582857"/>
      </g>
     </g>
     <g id="text_9">
      <!-- 0.2 -->
      <g transform="translate(31.096875 214.382076)scale(0.1 -0.1)">
       <use xlink:href="#DejaVuSans-48"/>
       <use x="63.623047" xlink:href="#DejaVuSans-46"/>
       <use x="95.410156" xlink:href="#DejaVuSans-50"/>
      </g>
     </g>
    </g>
    <g id="ytick_3">
     <g id="line2d_9">
      <g>
       <use style="stroke:#000000;stroke-width:0.8;" x="54" xlink:href="#m5b29d28f76" y="169.165714"/>
      </g>
     </g>
     <g id="text_10">
      <!-- 0.4 -->
      <g transform="translate(31.096875 172.964933)scale(0.1 -0.1)">
       <use xlink:href="#DejaVuSans-48"/>
       <use x="63.623047" xlink:href="#DejaVuSans-46"/>
       <use x="95.410156" xlink:href="#DejaVuSans-52"/>
      </g>
     </g>
    </g>
    <g id="ytick_4">
     <g id="line2d_10">
      <g>
       <use style="stroke:#000000;stroke-width:0.8;" x="54" xlink:href="#m5b29d28f76" y="127.748571"/>
      </g>
     </g>
     <g id="text_11">
      <!-- 0.6 -->
      <g transform="translate(31.096875 131.54779)scale(0.1 -0.1)">
       <use xlink:href="#DejaVuSans-48"/>
       <use x="63.623047" xlink:href="#DejaVuSans-46"/>
       <use x="95.410156" xlink:href="#DejaVuSans-54"/>
      </g>
     </g>
    </g>
    <g id="ytick_5">
     <g id="line2d_11">
      <g>
       <use style="stroke:#000000;stroke-width:0.8;" x="54" xlink:href="#m5b29d28f76" y="86.331429"/>
      </g>
     </g>
     <g id="text_12">
      <!-- 0.8 -->
      <g transform="translate(31.096875 90.130647)scale(0.1 -0.1)">
       <use xlink:href="#DejaVuSans-48"/>
       <use x="63.623047" xlink:href="#DejaVuSans-46"/>
       <use x="95.410156" xlink:href="#DejaVuSans-56"/>
      </g>
     </g>
    </g>
    <g id="ytick_6">
     <g id="line2d_12">
      <g>
       <use style="stroke:#000000;stroke-width:0.8;" x="54" xlink:href="#m5b29d28f76" y="44.914286"/>
      </g>
     </g>
     <g id="text_13">
      <!-- 1.0 -->
      <g transform="translate(31.096875 48.713504)scale(0.1 -0.1)">
       <use xlink:href="#DejaVuSans-49"/>
       <use x="63.623047" xlink:href="#DejaVuSans-46"/>
       <use x="95.410156" xlink:href="#DejaVuSans-48"/>
      </g>
     </g>
    </g>
    <g id="text_14">
     <!-- True Positive Rate -->
     <g transform="translate(25.017187 187.809687)rotate(-90)scale(0.1 -0.1)">
      <defs>
       <path d="M -0.296875 72.90625 
L 61.375 72.90625 
L 61.375 64.59375 
L 35.5 64.59375 
L 35.5 0 
L 25.59375 0 
L 25.59375 64.59375 
L -0.296875 64.59375 
z
" id="DejaVuSans-84"/>
       <path d="M 41.109375 46.296875 
Q 39.59375 47.171875 37.8125 47.578125 
Q 36.03125 48 33.890625 48 
Q 26.265625 48 22.1875 43.046875 
Q 18.109375 38.09375 18.109375 28.8125 
L 18.109375 0 
L 9.078125 0 
L 9.078125 54.6875 
L 18.109375 54.6875 
L 18.109375 46.1875 
Q 20.953125 51.171875 25.484375 53.578125 
Q 30.03125 56 36.53125 56 
Q 37.453125 56 38.578125 55.875 
Q 39.703125 55.765625 41.0625 55.515625 
z
" id="DejaVuSans-114"/>
       <path d="M 8.5 21.578125 
L 8.5 54.6875 
L 17.484375 54.6875 
L 17.484375 21.921875 
Q 17.484375 14.15625 20.5 10.265625 
Q 23.53125 6.390625 29.59375 6.390625 
Q 36.859375 6.390625 41.078125 11.03125 
Q 45.3125 15.671875 45.3125 23.6875 
L 45.3125 54.6875 
L 54.296875 54.6875 
L 54.296875 0 
L 45.3125 0 
L 45.3125 8.40625 
Q 42.046875 3.421875 37.71875 1 
Q 33.40625 -1.421875 27.6875 -1.421875 
Q 18.265625 -1.421875 13.375 4.4375 
Q 8.5 10.296875 8.5 21.578125 
z
M 31.109375 56 
z
" id="DejaVuSans-117"/>
      </defs>
      <use xlink:href="#DejaVuSans-84"/>
      <use x="46.333984" xlink:href="#DejaVuSans-114"/>
      <use x="87.447266" xlink:href="#DejaVuSans-117"/>
      <use x="150.826172" xlink:href="#DejaVuSans-101"/>
      <use x="212.349609" xlink:href="#DejaVuSans-32"/>
      <use x="244.136719" xlink:href="#DejaVuSans-80"/>
      <use x="300.814453" xlink:href="#DejaVuSans-111"/>
      <use x="361.996094" xlink:href="#DejaVuSans-115"/>
      <use x="414.095703" xlink:href="#DejaVuSans-105"/>
      <use x="441.878906" xlink:href="#DejaVuSans-116"/>
      <use x="481.087891" xlink:href="#DejaVuSans-105"/>
      <use x="508.871094" xlink:href="#DejaVuSans-118"/>
      <use x="568.050781" xlink:href="#DejaVuSans-101"/>
      <use x="629.574219" xlink:href="#DejaVuSans-32"/>
      <use x="661.361328" xlink:href="#DejaVuSans-82"/>
      <use x="728.59375" xlink:href="#DejaVuSans-97"/>
      <use x="789.873047" xlink:href="#DejaVuSans-116"/>
      <use x="829.082031" xlink:href="#DejaVuSans-101"/>
     </g>
    </g>
   </g>
   <g id="line2d_13">
    <path clip-path="url(#peb914d5e4d)" d="M 54 252 
L 54 201.658721 
L 54 199.370481 
L 54 193.649882 
L 54 191.361642 
L 54 186.785162 
L 54 182.208682 
L 54 179.920442 
L 54 175.343962 
L 54 170.767482 
L 54 162.758642 
L 54 160.470403 
L 54 159.326283 
L 54 154.749803 
L 54 151.317443 
L 54 149.029203 
L 54 128.435043 
L 54 126.146803 
L 54 44.914286 
L 254.638267 44.914286 
L 287.272202 44.914286 
L 289.689531 44.914286 
L 296.941516 44.914286 
L 302.984838 44.914286 
L 306.61083 44.914286 
L 309.028159 44.914286 
L 311.445487 44.914286 
L 388.8 44.914286 
" style="fill:none;stroke:#c2e6cc;stroke-linecap:square;stroke-width:2;"/>
   </g>
   <g id="line2d_14">
    <path clip-path="url(#peb914d5e4d)" d="M 54 252 
L 54 247.184053 
L 54 49.730233 
L 55.613494 49.730233 
L 55.613494 44.914286 
L 204.861687 44.914286 
L 206.475181 44.914286 
L 213.735904 44.914286 
L 215.349398 44.914286 
L 231.484337 44.914286 
L 233.097831 44.914286 
L 241.165301 44.914286 
L 276.662169 44.914286 
L 278.275663 44.914286 
L 282.309398 44.914286 
L 283.922892 44.914286 
L 287.14988 44.914286 
L 290.376867 44.914286 
L 291.990361 44.914286 
L 293.603855 44.914286 
L 296.830843 44.914286 
L 302.478072 44.914286 
L 304.091566 44.914286 
L 304.898313 44.914286 
L 308.125301 44.914286 
L 309.738795 44.914286 
L 311.352289 44.914286 
L 342.815422 44.914286 
L 364.59759 44.914286 
L 369.438072 44.914286 
L 371.858313 44.914286 
L 374.278554 44.914286 
L 388.8 44.914286 
" style="fill:none;stroke:#79fd65;stroke-linecap:square;stroke-width:2;"/>
   </g>
   <g id="line2d_15">
    <path clip-path="url(#peb914d5e4d)" d="M 54 252 
L 54 236.07033 
L 54 44.914286 
L 178.139326 44.914286 
L 181.148764 44.914286 
L 212.747865 44.914286 
L 214.252584 44.914286 
L 222.528539 44.914286 
L 227.042697 44.914286 
L 231.556854 44.914286 
L 264.660674 44.914286 
L 266.165393 44.914286 
L 268.422472 44.914286 
L 269.927191 44.914286 
L 272.18427 44.914286 
L 275.193708 44.914286 
L 275.946067 44.914286 
L 278.955506 44.914286 
L 281.964944 44.914286 
L 286.479101 44.914286 
L 287.98382 44.914286 
L 289.488539 44.914286 
L 290.993258 44.914286 
L 312.059326 44.914286 
L 332.373034 44.914286 
L 336.887191 44.914286 
L 339.14427 44.914286 
L 339.896629 44.914286 
L 341.401348 44.914286 
L 388.8 44.914286 
" style="fill:none;stroke:#05dff9;stroke-linecap:square;stroke-width:2;"/>
   </g>
   <g id="line2d_16">
    <path clip-path="url(#peb914d5e4d)" d="M 54 252 
L 54 226.114286 
L 54 44.914286 
L 199.08 44.914286 
L 200.568 44.914286 
L 205.032 44.914286 
L 206.52 44.914286 
L 212.472 44.914286 
L 245.208 44.914286 
L 248.184 44.914286 
L 249.672 44.914286 
L 252.648 44.914286 
L 255.624 44.914286 
L 257.112 44.914286 
L 260.088 44.914286 
L 263.064 44.914286 
L 268.272 44.914286 
L 269.76 44.914286 
L 270.504 44.914286 
L 273.48 44.914286 
L 274.968 44.914286 
L 276.456 44.914286 
L 305.472 44.914286 
L 325.56 44.914286 
L 327.048 44.914286 
L 331.512 44.914286 
L 335.232 44.914286 
L 337.464 44.914286 
L 338.952 44.914286 
L 340.44 44.914286 
L 388.8 44.914286 
" style="fill:none;stroke:#e9dad4;stroke-linecap:square;stroke-width:2;"/>
   </g>
   <g id="line2d_17">
    <path clip-path="url(#peb914d5e4d)" d="M 54 252 
L 54 233.174026 
L 54 176.696104 
L 54.748993 176.696104 
L 54.748993 44.914286 
L 165.6 44.914286 
L 167.097987 44.914286 
L 178.332886 44.914286 
L 179.830872 44.914286 
L 214.284564 44.914286 
L 215.78255 44.914286 
L 230.013423 44.914286 
L 262.969128 44.914286 
L 264.467114 44.914286 
L 268.212081 44.914286 
L 269.710067 44.914286 
L 272.70604 44.914286 
L 275.702013 44.914286 
L 276.451007 44.914286 
L 279.44698 44.914286 
L 282.442953 44.914286 
L 286.187919 44.914286 
L 289.183893 44.914286 
L 316.147651 44.914286 
L 336.37047 44.914286 
L 337.868456 44.914286 
L 342.362416 44.914286 
L 345.358389 44.914286 
L 347.605369 44.914286 
L 349.103356 44.914286 
L 350.601342 44.914286 
L 388.8 44.914286 
" style="fill:none;stroke:#d83fcc;stroke-linecap:square;stroke-width:2;"/>
   </g>
   <g id="line2d_18">
    <path clip-path="url(#peb914d5e4d)" d="M 54 252 
L 54 241.645714 
L 54 55.268571 
L 60.115068 55.268571 
L 60.115068 44.914286 
L 178.594521 44.914286 
L 180.123288 44.914286 
L 182.416438 44.914286 
L 185.473973 44.914286 
L 196.939726 44.914286 
L 199.232877 44.914286 
L 209.169863 44.914286 
L 210.69863 44.914286 
L 223.693151 44.914286 
L 257.326027 44.914286 
L 258.854795 44.914286 
L 261.912329 44.914286 
L 263.441096 44.914286 
L 268.027397 44.914286 
L 269.556164 44.914286 
L 272.613699 44.914286 
L 277.964384 44.914286 
L 279.493151 44.914286 
L 280.257534 44.914286 
L 283.315068 44.914286 
L 284.843836 44.914286 
L 286.372603 44.914286 
L 310.832877 44.914286 
L 331.471233 44.914286 
L 333 44.914286 
L 337.586301 44.914286 
L 341.408219 44.914286 
L 342.936986 44.914286 
L 388.8 44.914286 
" style="fill:none;stroke:#364d1a;stroke-linecap:square;stroke-width:2;"/>
   </g>
   <g id="line2d_19">
    <path clip-path="url(#peb914d5e4d)" d="M 54 252 
L 54 218.317384 
L 54 214.574871 
L 54 207.089845 
L 54 197.109811 
L 54 193.367298 
L 54 190.872289 
L 54 188.377281 
L 54 47.409294 
L 55.146575 47.409294 
L 55.146575 46.16179 
L 56.293151 46.16179 
L 56.293151 44.914286 
L 221.4 44.914286 
L 225.986301 44.914286 
L 248.917808 44.914286 
L 251.210959 44.914286 
L 263.823288 44.914286 
L 266.116438 44.914286 
L 274.142466 44.914286 
L 324.591781 44.914286 
L 326.884932 44.914286 
L 332.617808 44.914286 
L 337.20411 44.914286 
L 339.49726 44.914286 
L 344.083562 44.914286 
L 350.963014 44.914286 
L 353.256164 44.914286 
L 357.842466 44.914286 
L 360.135616 44.914286 
L 388.8 44.914286 
" style="fill:none;stroke:#eba8b2;stroke-linecap:square;stroke-width:2;"/>
   </g>
   <g id="line2d_20">
    <path clip-path="url(#peb914d5e4d)" d="M 54 252 
L 54 239.057143 
L 54 44.914286 
L 193.373756 44.914286 
L 194.888688 44.914286 
L 204.735747 44.914286 
L 238.064253 44.914286 
L 239.579186 44.914286 
L 243.366516 44.914286 
L 244.881448 44.914286 
L 247.911312 44.914286 
L 250.941176 44.914286 
L 252.456109 44.914286 
L 255.485973 44.914286 
L 258.515837 44.914286 
L 261.545701 44.914286 
L 263.060633 44.914286 
L 266.090498 44.914286 
L 267.60543 44.914286 
L 269.120362 44.914286 
L 303.206335 44.914286 
L 323.657919 44.914286 
L 325.172851 44.914286 
L 329.717647 44.914286 
L 333.504977 44.914286 
L 335.777376 44.914286 
L 337.292308 44.914286 
L 338.80724 44.914286 
L 388.8 44.914286 
" style="fill:none;stroke:#446c80;stroke-linecap:square;stroke-width:2;"/>
   </g>
   <g id="line2d_21">
    <path clip-path="url(#peb914d5e4d)" d="M 54 252 
L 388.8 44.914286 
" style="fill:none;stroke:#000000;stroke-dasharray:7.4,3.2;stroke-dashoffset:0;stroke-width:2;"/>
   </g>
   <g id="patch_3">
    <path d="M 54 252 
L 54 34.56 
" style="fill:none;stroke:#000000;stroke-linecap:square;stroke-linejoin:miter;stroke-width:0.8;"/>
   </g>
   <g id="patch_4">
    <path d="M 388.8 252 
L 388.8 34.56 
" style="fill:none;stroke:#000000;stroke-linecap:square;stroke-linejoin:miter;stroke-width:0.8;"/>
   </g>
   <g id="patch_5">
    <path d="M 54 252 
L 388.8 252 
" style="fill:none;stroke:#000000;stroke-linecap:square;stroke-linejoin:miter;stroke-width:0.8;"/>
   </g>
   <g id="patch_6">
    <path d="M 54 34.56 
L 388.8 34.56 
" style="fill:none;stroke:#000000;stroke-linecap:square;stroke-linejoin:miter;stroke-width:0.8;"/>
   </g>
   <g id="text_15">
    <!-- Class ROC Curves -->
    <g transform="translate(167.892188 28.56)scale(0.12 -0.12)">
     <defs>
      <path d="M 64.40625 67.28125 
L 64.40625 56.890625 
Q 59.421875 61.53125 53.78125 63.8125 
Q 48.140625 66.109375 41.796875 66.109375 
Q 29.296875 66.109375 22.65625 58.46875 
Q 16.015625 50.828125 16.015625 36.375 
Q 16.015625 21.96875 22.65625 14.328125 
Q 29.296875 6.6875 41.796875 6.6875 
Q 48.140625 6.6875 53.78125 8.984375 
Q 59.421875 11.28125 64.40625 15.921875 
L 64.40625 5.609375 
Q 59.234375 2.09375 53.4375 0.328125 
Q 47.65625 -1.421875 41.21875 -1.421875 
Q 24.65625 -1.421875 15.125 8.703125 
Q 5.609375 18.84375 5.609375 36.375 
Q 5.609375 53.953125 15.125 64.078125 
Q 24.65625 74.21875 41.21875 74.21875 
Q 47.75 74.21875 53.53125 72.484375 
Q 59.328125 70.75 64.40625 67.28125 
z
" id="DejaVuSans-67"/>
      <path d="M 39.40625 66.21875 
Q 28.65625 66.21875 22.328125 58.203125 
Q 16.015625 50.203125 16.015625 36.375 
Q 16.015625 22.609375 22.328125 14.59375 
Q 28.65625 6.59375 39.40625 6.59375 
Q 50.140625 6.59375 56.421875 14.59375 
Q 62.703125 22.609375 62.703125 36.375 
Q 62.703125 50.203125 56.421875 58.203125 
Q 50.140625 66.21875 39.40625 66.21875 
z
M 39.40625 74.21875 
Q 54.734375 74.21875 63.90625 63.9375 
Q 73.09375 53.65625 73.09375 36.375 
Q 73.09375 19.140625 63.90625 8.859375 
Q 54.734375 -1.421875 39.40625 -1.421875 
Q 24.03125 -1.421875 14.8125 8.828125 
Q 5.609375 19.09375 5.609375 36.375 
Q 5.609375 53.65625 14.8125 63.9375 
Q 24.03125 74.21875 39.40625 74.21875 
z
" id="DejaVuSans-79"/>
     </defs>
     <use xlink:href="#DejaVuSans-67"/>
     <use x="69.824219" xlink:href="#DejaVuSans-108"/>
     <use x="97.607422" xlink:href="#DejaVuSans-97"/>
     <use x="158.886719" xlink:href="#DejaVuSans-115"/>
     <use x="210.986328" xlink:href="#DejaVuSans-115"/>
     <use x="263.085938" xlink:href="#DejaVuSans-32"/>
     <use x="294.873047" xlink:href="#DejaVuSans-82"/>
     <use x="364.355469" xlink:href="#DejaVuSans-79"/>
     <use x="443.066406" xlink:href="#DejaVuSans-67"/>
     <use x="512.890625" xlink:href="#DejaVuSans-32"/>
     <use x="544.677734" xlink:href="#DejaVuSans-67"/>
     <use x="614.501953" xlink:href="#DejaVuSans-117"/>
     <use x="677.880859" xlink:href="#DejaVuSans-114"/>
     <use x="718.994141" xlink:href="#DejaVuSans-118"/>
     <use x="778.173828" xlink:href="#DejaVuSans-101"/>
     <use x="839.697266" xlink:href="#DejaVuSans-115"/>
    </g>
   </g>
   <g id="legend_1">
    <g id="patch_7">
     <path d="M 176.1625 247 
L 381.8 247 
Q 383.8 247 383.8 245 
L 383.8 128.575 
Q 383.8 126.575 381.8 126.575 
L 176.1625 126.575 
Q 174.1625 126.575 174.1625 128.575 
L 174.1625 245 
Q 174.1625 247 176.1625 247 
z
" style="fill:#ffffff;opacity:0.8;stroke:#cccccc;stroke-linejoin:miter;"/>
    </g>
    <g id="line2d_22">
     <path d="M 178.1625 134.673438 
L 198.1625 134.673438 
" style="fill:none;stroke:#c2e6cc;stroke-linecap:square;stroke-width:2;"/>
    </g>
    <g id="line2d_23"/>
    <g id="text_16">
     <!-- ROC curve of class 0 (area = 1.00) -->
     <g transform="translate(206.1625 138.173438)scale(0.1 -0.1)">
      <defs>
       <path d="M 48.78125 52.59375 
L 48.78125 44.1875 
Q 44.96875 46.296875 41.140625 47.34375 
Q 37.3125 48.390625 33.40625 48.390625 
Q 24.65625 48.390625 19.8125 42.84375 
Q 14.984375 37.3125 14.984375 27.296875 
Q 14.984375 17.28125 19.8125 11.734375 
Q 24.65625 6.203125 33.40625 6.203125 
Q 37.3125 6.203125 41.140625 7.25 
Q 44.96875 8.296875 48.78125 10.40625 
L 48.78125 2.09375 
Q 45.015625 0.34375 40.984375 -0.53125 
Q 36.96875 -1.421875 32.421875 -1.421875 
Q 20.0625 -1.421875 12.78125 6.34375 
Q 5.515625 14.109375 5.515625 27.296875 
Q 5.515625 40.671875 12.859375 48.328125 
Q 20.21875 56 33.015625 56 
Q 37.15625 56 41.109375 55.140625 
Q 45.0625 54.296875 48.78125 52.59375 
z
" id="DejaVuSans-99"/>
       <path d="M 37.109375 75.984375 
L 37.109375 68.5 
L 28.515625 68.5 
Q 23.6875 68.5 21.796875 66.546875 
Q 19.921875 64.59375 19.921875 59.515625 
L 19.921875 54.6875 
L 34.71875 54.6875 
L 34.71875 47.703125 
L 19.921875 47.703125 
L 19.921875 0 
L 10.890625 0 
L 10.890625 47.703125 
L 2.296875 47.703125 
L 2.296875 54.6875 
L 10.890625 54.6875 
L 10.890625 58.5 
Q 10.890625 67.625 15.140625 71.796875 
Q 19.390625 75.984375 28.609375 75.984375 
z
" id="DejaVuSans-102"/>
       <path d="M 31 75.875 
Q 24.46875 64.65625 21.28125 53.65625 
Q 18.109375 42.671875 18.109375 31.390625 
Q 18.109375 20.125 21.3125 9.0625 
Q 24.515625 -2 31 -13.1875 
L 23.1875 -13.1875 
Q 15.875 -1.703125 12.234375 9.375 
Q 8.59375 20.453125 8.59375 31.390625 
Q 8.59375 42.28125 12.203125 53.3125 
Q 15.828125 64.359375 23.1875 75.875 
z
" id="DejaVuSans-40"/>
       <path d="M 10.59375 45.40625 
L 73.1875 45.40625 
L 73.1875 37.203125 
L 10.59375 37.203125 
z
M 10.59375 25.484375 
L 73.1875 25.484375 
L 73.1875 17.1875 
L 10.59375 17.1875 
z
" id="DejaVuSans-61"/>
       <path d="M 8.015625 75.875 
L 15.828125 75.875 
Q 23.140625 64.359375 26.78125 53.3125 
Q 30.421875 42.28125 30.421875 31.390625 
Q 30.421875 20.453125 26.78125 9.375 
Q 23.140625 -1.703125 15.828125 -13.1875 
L 8.015625 -13.1875 
Q 14.5 -2 17.703125 9.0625 
Q 20.90625 20.125 20.90625 31.390625 
Q 20.90625 42.671875 17.703125 53.65625 
Q 14.5 64.65625 8.015625 75.875 
z
" id="DejaVuSans-41"/>
      </defs>
      <use xlink:href="#DejaVuSans-82"/>
      <use x="69.482422" xlink:href="#DejaVuSans-79"/>
      <use x="148.193359" xlink:href="#DejaVuSans-67"/>
      <use x="218.017578" xlink:href="#DejaVuSans-32"/>
      <use x="249.804688" xlink:href="#DejaVuSans-99"/>
      <use x="304.785156" xlink:href="#DejaVuSans-117"/>
      <use x="368.164062" xlink:href="#DejaVuSans-114"/>
      <use x="409.277344" xlink:href="#DejaVuSans-118"/>
      <use x="468.457031" xlink:href="#DejaVuSans-101"/>
      <use x="529.980469" xlink:href="#DejaVuSans-32"/>
      <use x="561.767578" xlink:href="#DejaVuSans-111"/>
      <use x="622.949219" xlink:href="#DejaVuSans-102"/>
      <use x="658.154297" xlink:href="#DejaVuSans-32"/>
      <use x="689.941406" xlink:href="#DejaVuSans-99"/>
      <use x="744.921875" xlink:href="#DejaVuSans-108"/>
      <use x="772.705078" xlink:href="#DejaVuSans-97"/>
      <use x="833.984375" xlink:href="#DejaVuSans-115"/>
      <use x="886.083984" xlink:href="#DejaVuSans-115"/>
      <use x="938.183594" xlink:href="#DejaVuSans-32"/>
      <use x="969.970703" xlink:href="#DejaVuSans-48"/>
      <use x="1033.59375" xlink:href="#DejaVuSans-32"/>
      <use x="1065.380859" xlink:href="#DejaVuSans-40"/>
      <use x="1104.394531" xlink:href="#DejaVuSans-97"/>
      <use x="1165.673828" xlink:href="#DejaVuSans-114"/>
      <use x="1204.537109" xlink:href="#DejaVuSans-101"/>
      <use x="1266.060547" xlink:href="#DejaVuSans-97"/>
      <use x="1327.339844" xlink:href="#DejaVuSans-32"/>
      <use x="1359.126953" xlink:href="#DejaVuSans-61"/>
      <use x="1442.916016" xlink:href="#DejaVuSans-32"/>
      <use x="1474.703125" xlink:href="#DejaVuSans-49"/>
      <use x="1538.326172" xlink:href="#DejaVuSans-46"/>
      <use x="1570.113281" xlink:href="#DejaVuSans-48"/>
      <use x="1633.736328" xlink:href="#DejaVuSans-48"/>
      <use x="1697.359375" xlink:href="#DejaVuSans-41"/>
     </g>
    </g>
    <g id="line2d_24">
     <path d="M 178.1625 149.351563 
L 198.1625 149.351563 
" style="fill:none;stroke:#79fd65;stroke-linecap:square;stroke-width:2;"/>
    </g>
    <g id="line2d_25"/>
    <g id="text_17">
     <!-- ROC curve of class 1 (area = 1.00) -->
     <g transform="translate(206.1625 152.851563)scale(0.1 -0.1)">
      <use xlink:href="#DejaVuSans-82"/>
      <use x="69.482422" xlink:href="#DejaVuSans-79"/>
      <use x="148.193359" xlink:href="#DejaVuSans-67"/>
      <use x="218.017578" xlink:href="#DejaVuSans-32"/>
      <use x="249.804688" xlink:href="#DejaVuSans-99"/>
      <use x="304.785156" xlink:href="#DejaVuSans-117"/>
      <use x="368.164062" xlink:href="#DejaVuSans-114"/>
      <use x="409.277344" xlink:href="#DejaVuSans-118"/>
      <use x="468.457031" xlink:href="#DejaVuSans-101"/>
      <use x="529.980469" xlink:href="#DejaVuSans-32"/>
      <use x="561.767578" xlink:href="#DejaVuSans-111"/>
      <use x="622.949219" xlink:href="#DejaVuSans-102"/>
      <use x="658.154297" xlink:href="#DejaVuSans-32"/>
      <use x="689.941406" xlink:href="#DejaVuSans-99"/>
      <use x="744.921875" xlink:href="#DejaVuSans-108"/>
      <use x="772.705078" xlink:href="#DejaVuSans-97"/>
      <use x="833.984375" xlink:href="#DejaVuSans-115"/>
      <use x="886.083984" xlink:href="#DejaVuSans-115"/>
      <use x="938.183594" xlink:href="#DejaVuSans-32"/>
      <use x="969.970703" xlink:href="#DejaVuSans-49"/>
      <use x="1033.59375" xlink:href="#DejaVuSans-32"/>
      <use x="1065.380859" xlink:href="#DejaVuSans-40"/>
      <use x="1104.394531" xlink:href="#DejaVuSans-97"/>
      <use x="1165.673828" xlink:href="#DejaVuSans-114"/>
      <use x="1204.537109" xlink:href="#DejaVuSans-101"/>
      <use x="1266.060547" xlink:href="#DejaVuSans-97"/>
      <use x="1327.339844" xlink:href="#DejaVuSans-32"/>
      <use x="1359.126953" xlink:href="#DejaVuSans-61"/>
      <use x="1442.916016" xlink:href="#DejaVuSans-32"/>
      <use x="1474.703125" xlink:href="#DejaVuSans-49"/>
      <use x="1538.326172" xlink:href="#DejaVuSans-46"/>
      <use x="1570.113281" xlink:href="#DejaVuSans-48"/>
      <use x="1633.736328" xlink:href="#DejaVuSans-48"/>
      <use x="1697.359375" xlink:href="#DejaVuSans-41"/>
     </g>
    </g>
    <g id="line2d_26">
     <path d="M 178.1625 164.029688 
L 198.1625 164.029688 
" style="fill:none;stroke:#05dff9;stroke-linecap:square;stroke-width:2;"/>
    </g>
    <g id="line2d_27"/>
    <g id="text_18">
     <!-- ROC curve of class 2 (area = 1.00) -->
     <g transform="translate(206.1625 167.529688)scale(0.1 -0.1)">
      <use xlink:href="#DejaVuSans-82"/>
      <use x="69.482422" xlink:href="#DejaVuSans-79"/>
      <use x="148.193359" xlink:href="#DejaVuSans-67"/>
      <use x="218.017578" xlink:href="#DejaVuSans-32"/>
      <use x="249.804688" xlink:href="#DejaVuSans-99"/>
      <use x="304.785156" xlink:href="#DejaVuSans-117"/>
      <use x="368.164062" xlink:href="#DejaVuSans-114"/>
      <use x="409.277344" xlink:href="#DejaVuSans-118"/>
      <use x="468.457031" xlink:href="#DejaVuSans-101"/>
      <use x="529.980469" xlink:href="#DejaVuSans-32"/>
      <use x="561.767578" xlink:href="#DejaVuSans-111"/>
      <use x="622.949219" xlink:href="#DejaVuSans-102"/>
      <use x="658.154297" xlink:href="#DejaVuSans-32"/>
      <use x="689.941406" xlink:href="#DejaVuSans-99"/>
      <use x="744.921875" xlink:href="#DejaVuSans-108"/>
      <use x="772.705078" xlink:href="#DejaVuSans-97"/>
      <use x="833.984375" xlink:href="#DejaVuSans-115"/>
      <use x="886.083984" xlink:href="#DejaVuSans-115"/>
      <use x="938.183594" xlink:href="#DejaVuSans-32"/>
      <use x="969.970703" xlink:href="#DejaVuSans-50"/>
      <use x="1033.59375" xlink:href="#DejaVuSans-32"/>
      <use x="1065.380859" xlink:href="#DejaVuSans-40"/>
      <use x="1104.394531" xlink:href="#DejaVuSans-97"/>
      <use x="1165.673828" xlink:href="#DejaVuSans-114"/>
      <use x="1204.537109" xlink:href="#DejaVuSans-101"/>
      <use x="1266.060547" xlink:href="#DejaVuSans-97"/>
      <use x="1327.339844" xlink:href="#DejaVuSans-32"/>
      <use x="1359.126953" xlink:href="#DejaVuSans-61"/>
      <use x="1442.916016" xlink:href="#DejaVuSans-32"/>
      <use x="1474.703125" xlink:href="#DejaVuSans-49"/>
      <use x="1538.326172" xlink:href="#DejaVuSans-46"/>
      <use x="1570.113281" xlink:href="#DejaVuSans-48"/>
      <use x="1633.736328" xlink:href="#DejaVuSans-48"/>
      <use x="1697.359375" xlink:href="#DejaVuSans-41"/>
     </g>
    </g>
    <g id="line2d_28">
     <path d="M 178.1625 178.707813 
L 198.1625 178.707813 
" style="fill:none;stroke:#e9dad4;stroke-linecap:square;stroke-width:2;"/>
    </g>
    <g id="line2d_29"/>
    <g id="text_19">
     <!-- ROC curve of class 3 (area = 1.00) -->
     <g transform="translate(206.1625 182.207813)scale(0.1 -0.1)">
      <defs>
       <path d="M 40.578125 39.3125 
Q 47.65625 37.796875 51.625 33 
Q 55.609375 28.21875 55.609375 21.1875 
Q 55.609375 10.40625 48.1875 4.484375 
Q 40.765625 -1.421875 27.09375 -1.421875 
Q 22.515625 -1.421875 17.65625 -0.515625 
Q 12.796875 0.390625 7.625 2.203125 
L 7.625 11.71875 
Q 11.71875 9.328125 16.59375 8.109375 
Q 21.484375 6.890625 26.8125 6.890625 
Q 36.078125 6.890625 40.9375 10.546875 
Q 45.796875 14.203125 45.796875 21.1875 
Q 45.796875 27.640625 41.28125 31.265625 
Q 36.765625 34.90625 28.71875 34.90625 
L 20.21875 34.90625 
L 20.21875 43.015625 
L 29.109375 43.015625 
Q 36.375 43.015625 40.234375 45.921875 
Q 44.09375 48.828125 44.09375 54.296875 
Q 44.09375 59.90625 40.109375 62.90625 
Q 36.140625 65.921875 28.71875 65.921875 
Q 24.65625 65.921875 20.015625 65.03125 
Q 15.375 64.15625 9.8125 62.3125 
L 9.8125 71.09375 
Q 15.4375 72.65625 20.34375 73.4375 
Q 25.25 74.21875 29.59375 74.21875 
Q 40.828125 74.21875 47.359375 69.109375 
Q 53.90625 64.015625 53.90625 55.328125 
Q 53.90625 49.265625 50.4375 45.09375 
Q 46.96875 40.921875 40.578125 39.3125 
z
" id="DejaVuSans-51"/>
      </defs>
      <use xlink:href="#DejaVuSans-82"/>
      <use x="69.482422" xlink:href="#DejaVuSans-79"/>
      <use x="148.193359" xlink:href="#DejaVuSans-67"/>
      <use x="218.017578" xlink:href="#DejaVuSans-32"/>
      <use x="249.804688" xlink:href="#DejaVuSans-99"/>
      <use x="304.785156" xlink:href="#DejaVuSans-117"/>
      <use x="368.164062" xlink:href="#DejaVuSans-114"/>
      <use x="409.277344" xlink:href="#DejaVuSans-118"/>
      <use x="468.457031" xlink:href="#DejaVuSans-101"/>
      <use x="529.980469" xlink:href="#DejaVuSans-32"/>
      <use x="561.767578" xlink:href="#DejaVuSans-111"/>
      <use x="622.949219" xlink:href="#DejaVuSans-102"/>
      <use x="658.154297" xlink:href="#DejaVuSans-32"/>
      <use x="689.941406" xlink:href="#DejaVuSans-99"/>
      <use x="744.921875" xlink:href="#DejaVuSans-108"/>
      <use x="772.705078" xlink:href="#DejaVuSans-97"/>
      <use x="833.984375" xlink:href="#DejaVuSans-115"/>
      <use x="886.083984" xlink:href="#DejaVuSans-115"/>
      <use x="938.183594" xlink:href="#DejaVuSans-32"/>
      <use x="969.970703" xlink:href="#DejaVuSans-51"/>
      <use x="1033.59375" xlink:href="#DejaVuSans-32"/>
      <use x="1065.380859" xlink:href="#DejaVuSans-40"/>
      <use x="1104.394531" xlink:href="#DejaVuSans-97"/>
      <use x="1165.673828" xlink:href="#DejaVuSans-114"/>
      <use x="1204.537109" xlink:href="#DejaVuSans-101"/>
      <use x="1266.060547" xlink:href="#DejaVuSans-97"/>
      <use x="1327.339844" xlink:href="#DejaVuSans-32"/>
      <use x="1359.126953" xlink:href="#DejaVuSans-61"/>
      <use x="1442.916016" xlink:href="#DejaVuSans-32"/>
      <use x="1474.703125" xlink:href="#DejaVuSans-49"/>
      <use x="1538.326172" xlink:href="#DejaVuSans-46"/>
      <use x="1570.113281" xlink:href="#DejaVuSans-48"/>
      <use x="1633.736328" xlink:href="#DejaVuSans-48"/>
      <use x="1697.359375" xlink:href="#DejaVuSans-41"/>
     </g>
    </g>
    <g id="line2d_30">
     <path d="M 178.1625 193.385938 
L 198.1625 193.385938 
" style="fill:none;stroke:#d83fcc;stroke-linecap:square;stroke-width:2;"/>
    </g>
    <g id="line2d_31"/>
    <g id="text_20">
     <!-- ROC curve of class 4 (area = 1.00) -->
     <g transform="translate(206.1625 196.885938)scale(0.1 -0.1)">
      <use xlink:href="#DejaVuSans-82"/>
      <use x="69.482422" xlink:href="#DejaVuSans-79"/>
      <use x="148.193359" xlink:href="#DejaVuSans-67"/>
      <use x="218.017578" xlink:href="#DejaVuSans-32"/>
      <use x="249.804688" xlink:href="#DejaVuSans-99"/>
      <use x="304.785156" xlink:href="#DejaVuSans-117"/>
      <use x="368.164062" xlink:href="#DejaVuSans-114"/>
      <use x="409.277344" xlink:href="#DejaVuSans-118"/>
      <use x="468.457031" xlink:href="#DejaVuSans-101"/>
      <use x="529.980469" xlink:href="#DejaVuSans-32"/>
      <use x="561.767578" xlink:href="#DejaVuSans-111"/>
      <use x="622.949219" xlink:href="#DejaVuSans-102"/>
      <use x="658.154297" xlink:href="#DejaVuSans-32"/>
      <use x="689.941406" xlink:href="#DejaVuSans-99"/>
      <use x="744.921875" xlink:href="#DejaVuSans-108"/>
      <use x="772.705078" xlink:href="#DejaVuSans-97"/>
      <use x="833.984375" xlink:href="#DejaVuSans-115"/>
      <use x="886.083984" xlink:href="#DejaVuSans-115"/>
      <use x="938.183594" xlink:href="#DejaVuSans-32"/>
      <use x="969.970703" xlink:href="#DejaVuSans-52"/>
      <use x="1033.59375" xlink:href="#DejaVuSans-32"/>
      <use x="1065.380859" xlink:href="#DejaVuSans-40"/>
      <use x="1104.394531" xlink:href="#DejaVuSans-97"/>
      <use x="1165.673828" xlink:href="#DejaVuSans-114"/>
      <use x="1204.537109" xlink:href="#DejaVuSans-101"/>
      <use x="1266.060547" xlink:href="#DejaVuSans-97"/>
      <use x="1327.339844" xlink:href="#DejaVuSans-32"/>
      <use x="1359.126953" xlink:href="#DejaVuSans-61"/>
      <use x="1442.916016" xlink:href="#DejaVuSans-32"/>
      <use x="1474.703125" xlink:href="#DejaVuSans-49"/>
      <use x="1538.326172" xlink:href="#DejaVuSans-46"/>
      <use x="1570.113281" xlink:href="#DejaVuSans-48"/>
      <use x="1633.736328" xlink:href="#DejaVuSans-48"/>
      <use x="1697.359375" xlink:href="#DejaVuSans-41"/>
     </g>
    </g>
    <g id="line2d_32">
     <path d="M 178.1625 208.064063 
L 198.1625 208.064063 
" style="fill:none;stroke:#364d1a;stroke-linecap:square;stroke-width:2;"/>
    </g>
    <g id="line2d_33"/>
    <g id="text_21">
     <!-- ROC curve of class 5 (area = 1.00) -->
     <g transform="translate(206.1625 211.564063)scale(0.1 -0.1)">
      <defs>
       <path d="M 10.796875 72.90625 
L 49.515625 72.90625 
L 49.515625 64.59375 
L 19.828125 64.59375 
L 19.828125 46.734375 
Q 21.96875 47.46875 24.109375 47.828125 
Q 26.265625 48.1875 28.421875 48.1875 
Q 40.625 48.1875 47.75 41.5 
Q 54.890625 34.8125 54.890625 23.390625 
Q 54.890625 11.625 47.5625 5.09375 
Q 40.234375 -1.421875 26.90625 -1.421875 
Q 22.3125 -1.421875 17.546875 -0.640625 
Q 12.796875 0.140625 7.71875 1.703125 
L 7.71875 11.625 
Q 12.109375 9.234375 16.796875 8.0625 
Q 21.484375 6.890625 26.703125 6.890625 
Q 35.15625 6.890625 40.078125 11.328125 
Q 45.015625 15.765625 45.015625 23.390625 
Q 45.015625 31 40.078125 35.4375 
Q 35.15625 39.890625 26.703125 39.890625 
Q 22.75 39.890625 18.8125 39.015625 
Q 14.890625 38.140625 10.796875 36.28125 
z
" id="DejaVuSans-53"/>
      </defs>
      <use xlink:href="#DejaVuSans-82"/>
      <use x="69.482422" xlink:href="#DejaVuSans-79"/>
      <use x="148.193359" xlink:href="#DejaVuSans-67"/>
      <use x="218.017578" xlink:href="#DejaVuSans-32"/>
      <use x="249.804688" xlink:href="#DejaVuSans-99"/>
      <use x="304.785156" xlink:href="#DejaVuSans-117"/>
      <use x="368.164062" xlink:href="#DejaVuSans-114"/>
      <use x="409.277344" xlink:href="#DejaVuSans-118"/>
      <use x="468.457031" xlink:href="#DejaVuSans-101"/>
      <use x="529.980469" xlink:href="#DejaVuSans-32"/>
      <use x="561.767578" xlink:href="#DejaVuSans-111"/>
      <use x="622.949219" xlink:href="#DejaVuSans-102"/>
      <use x="658.154297" xlink:href="#DejaVuSans-32"/>
      <use x="689.941406" xlink:href="#DejaVuSans-99"/>
      <use x="744.921875" xlink:href="#DejaVuSans-108"/>
      <use x="772.705078" xlink:href="#DejaVuSans-97"/>
      <use x="833.984375" xlink:href="#DejaVuSans-115"/>
      <use x="886.083984" xlink:href="#DejaVuSans-115"/>
      <use x="938.183594" xlink:href="#DejaVuSans-32"/>
      <use x="969.970703" xlink:href="#DejaVuSans-53"/>
      <use x="1033.59375" xlink:href="#DejaVuSans-32"/>
      <use x="1065.380859" xlink:href="#DejaVuSans-40"/>
      <use x="1104.394531" xlink:href="#DejaVuSans-97"/>
      <use x="1165.673828" xlink:href="#DejaVuSans-114"/>
      <use x="1204.537109" xlink:href="#DejaVuSans-101"/>
      <use x="1266.060547" xlink:href="#DejaVuSans-97"/>
      <use x="1327.339844" xlink:href="#DejaVuSans-32"/>
      <use x="1359.126953" xlink:href="#DejaVuSans-61"/>
      <use x="1442.916016" xlink:href="#DejaVuSans-32"/>
      <use x="1474.703125" xlink:href="#DejaVuSans-49"/>
      <use x="1538.326172" xlink:href="#DejaVuSans-46"/>
      <use x="1570.113281" xlink:href="#DejaVuSans-48"/>
      <use x="1633.736328" xlink:href="#DejaVuSans-48"/>
      <use x="1697.359375" xlink:href="#DejaVuSans-41"/>
     </g>
    </g>
    <g id="line2d_34">
     <path d="M 178.1625 222.742188 
L 198.1625 222.742188 
" style="fill:none;stroke:#eba8b2;stroke-linecap:square;stroke-width:2;"/>
    </g>
    <g id="line2d_35"/>
    <g id="text_22">
     <!-- ROC curve of class 6 (area = 1.00) -->
     <g transform="translate(206.1625 226.242188)scale(0.1 -0.1)">
      <use xlink:href="#DejaVuSans-82"/>
      <use x="69.482422" xlink:href="#DejaVuSans-79"/>
      <use x="148.193359" xlink:href="#DejaVuSans-67"/>
      <use x="218.017578" xlink:href="#DejaVuSans-32"/>
      <use x="249.804688" xlink:href="#DejaVuSans-99"/>
      <use x="304.785156" xlink:href="#DejaVuSans-117"/>
      <use x="368.164062" xlink:href="#DejaVuSans-114"/>
      <use x="409.277344" xlink:href="#DejaVuSans-118"/>
      <use x="468.457031" xlink:href="#DejaVuSans-101"/>
      <use x="529.980469" xlink:href="#DejaVuSans-32"/>
      <use x="561.767578" xlink:href="#DejaVuSans-111"/>
      <use x="622.949219" xlink:href="#DejaVuSans-102"/>
      <use x="658.154297" xlink:href="#DejaVuSans-32"/>
      <use x="689.941406" xlink:href="#DejaVuSans-99"/>
      <use x="744.921875" xlink:href="#DejaVuSans-108"/>
      <use x="772.705078" xlink:href="#DejaVuSans-97"/>
      <use x="833.984375" xlink:href="#DejaVuSans-115"/>
      <use x="886.083984" xlink:href="#DejaVuSans-115"/>
      <use x="938.183594" xlink:href="#DejaVuSans-32"/>
      <use x="969.970703" xlink:href="#DejaVuSans-54"/>
      <use x="1033.59375" xlink:href="#DejaVuSans-32"/>
      <use x="1065.380859" xlink:href="#DejaVuSans-40"/>
      <use x="1104.394531" xlink:href="#DejaVuSans-97"/>
      <use x="1165.673828" xlink:href="#DejaVuSans-114"/>
      <use x="1204.537109" xlink:href="#DejaVuSans-101"/>
      <use x="1266.060547" xlink:href="#DejaVuSans-97"/>
      <use x="1327.339844" xlink:href="#DejaVuSans-32"/>
      <use x="1359.126953" xlink:href="#DejaVuSans-61"/>
      <use x="1442.916016" xlink:href="#DejaVuSans-32"/>
      <use x="1474.703125" xlink:href="#DejaVuSans-49"/>
      <use x="1538.326172" xlink:href="#DejaVuSans-46"/>
      <use x="1570.113281" xlink:href="#DejaVuSans-48"/>
      <use x="1633.736328" xlink:href="#DejaVuSans-48"/>
      <use x="1697.359375" xlink:href="#DejaVuSans-41"/>
     </g>
    </g>
    <g id="line2d_36">
     <path d="M 178.1625 237.420313 
L 198.1625 237.420313 
" style="fill:none;stroke:#446c80;stroke-linecap:square;stroke-width:2;"/>
    </g>
    <g id="line2d_37"/>
    <g id="text_23">
     <!-- ROC curve of class 7 (area = 1.00) -->
     <g transform="translate(206.1625 240.920313)scale(0.1 -0.1)">
      <defs>
       <path d="M 8.203125 72.90625 
L 55.078125 72.90625 
L 55.078125 68.703125 
L 28.609375 0 
L 18.3125 0 
L 43.21875 64.59375 
L 8.203125 64.59375 
z
" id="DejaVuSans-55"/>
      </defs>
      <use xlink:href="#DejaVuSans-82"/>
      <use x="69.482422" xlink:href="#DejaVuSans-79"/>
      <use x="148.193359" xlink:href="#DejaVuSans-67"/>
      <use x="218.017578" xlink:href="#DejaVuSans-32"/>
      <use x="249.804688" xlink:href="#DejaVuSans-99"/>
      <use x="304.785156" xlink:href="#DejaVuSans-117"/>
      <use x="368.164062" xlink:href="#DejaVuSans-114"/>
      <use x="409.277344" xlink:href="#DejaVuSans-118"/>
      <use x="468.457031" xlink:href="#DejaVuSans-101"/>
      <use x="529.980469" xlink:href="#DejaVuSans-32"/>
      <use x="561.767578" xlink:href="#DejaVuSans-111"/>
      <use x="622.949219" xlink:href="#DejaVuSans-102"/>
      <use x="658.154297" xlink:href="#DejaVuSans-32"/>
      <use x="689.941406" xlink:href="#DejaVuSans-99"/>
      <use x="744.921875" xlink:href="#DejaVuSans-108"/>
      <use x="772.705078" xlink:href="#DejaVuSans-97"/>
      <use x="833.984375" xlink:href="#DejaVuSans-115"/>
      <use x="886.083984" xlink:href="#DejaVuSans-115"/>
      <use x="938.183594" xlink:href="#DejaVuSans-32"/>
      <use x="969.970703" xlink:href="#DejaVuSans-55"/>
      <use x="1033.59375" xlink:href="#DejaVuSans-32"/>
      <use x="1065.380859" xlink:href="#DejaVuSans-40"/>
      <use x="1104.394531" xlink:href="#DejaVuSans-97"/>
      <use x="1165.673828" xlink:href="#DejaVuSans-114"/>
      <use x="1204.537109" xlink:href="#DejaVuSans-101"/>
      <use x="1266.060547" xlink:href="#DejaVuSans-97"/>
      <use x="1327.339844" xlink:href="#DejaVuSans-32"/>
      <use x="1359.126953" xlink:href="#DejaVuSans-61"/>
      <use x="1442.916016" xlink:href="#DejaVuSans-32"/>
      <use x="1474.703125" xlink:href="#DejaVuSans-49"/>
      <use x="1538.326172" xlink:href="#DejaVuSans-46"/>
      <use x="1570.113281" xlink:href="#DejaVuSans-48"/>
      <use x="1633.736328" xlink:href="#DejaVuSans-48"/>
      <use x="1697.359375" xlink:href="#DejaVuSans-41"/>
     </g>
    </g>
   </g>
  </g>
 </g>
 <defs>
  <clipPath id="peb914d5e4d">
   <rect height="217.44" width="334.8" x="54" y="34.56"/>
  </clipPath>
 </defs>
</svg>
