<?xml version="1.0" encoding="utf-8" standalone="no"?>
<!DOCTYPE svg PUBLIC "-//W3C//DTD SVG 1.1//EN"
  "http://www.w3.org/Graphics/SVG/1.1/DTD/svg11.dtd">
<svg height="345.6pt" version="1.1" viewBox="0 0 460.8 345.6" width="460.8pt" xmlns="http://www.w3.org/2000/svg" xmlns:xlink="http://www.w3.org/1999/xlink">
 <metadata>
  <rdf:RDF xmlns:cc="http://creativecommons.org/ns#" xmlns:dc="http://purl.org/dc/elements/1.1/" xmlns:rdf="http://www.w3.org/1999/02/22-rdf-syntax-ns#">
   <cc:Work>
    <dc:type rdf:resource="http://purl.org/dc/dcmitype/StillImage"/>
    <dc:date>2021-08-05T00:30:42.808758</dc:date>
    <dc:format>image/svg+xml</dc:format>
    <dc:creator>
     <cc:Agent>
      <dc:title>Matplotlib v3.4.2, https://matplotlib.org/</dc:title>
     </cc:Agent>
    </dc:creator>
   </cc:Work>
  </rdf:RDF>
 </metadata>
 <defs>
  <style type="text/css">*{stroke-linecap:butt;stroke-linejoin:round;}</style>
 </defs>
 <g id="figure_1">
  <g id="patch_1">
   <path d="M 0 345.6 
L 460.8 345.6 
L 460.8 0 
L 0 0 
z
" style="fill:#ffffff;"/>
  </g>
  <g id="axes_1">
   <g id="patch_2">
    <path d="M 57.6 307.584 
L 414.72 307.584 
L 414.72 41.472 
L 57.6 41.472 
z
" style="fill:#ffffff;"/>
   </g>
   <g id="matplotlib.axis_1">
    <g id="xtick_1">
     <g id="line2d_1">
      <defs>
       <path d="M 0 0 
L 0 3.5 
" id="m4bde9118d7" style="stroke:#000000;stroke-width:0.8;"/>
      </defs>
      <g>
       <use style="stroke:#000000;stroke-width:0.8;" x="57.6" xlink:href="#m4bde9118d7" y="307.584"/>
      </g>
     </g>
     <g id="text_1">
      <!-- 0.0 -->
      <g transform="translate(49.648438 322.182437)scale(0.1 -0.1)">
       <defs>
        <path d="M 2034 4250 
Q 1547 4250 1301 3770 
Q 1056 3291 1056 2328 
Q 1056 1369 1301 889 
Q 1547 409 2034 409 
Q 2525 409 2770 889 
Q 3016 1369 3016 2328 
Q 3016 3291 2770 3770 
Q 2525 4250 2034 4250 
z
M 2034 4750 
Q 2819 4750 3233 4129 
Q 3647 3509 3647 2328 
Q 3647 1150 3233 529 
Q 2819 -91 2034 -91 
Q 1250 -91 836 529 
Q 422 1150 422 2328 
Q 422 3509 836 4129 
Q 1250 4750 2034 4750 
z
" id="DejaVuSans-30" transform="scale(0.015625)"/>
        <path d="M 684 794 
L 1344 794 
L 1344 0 
L 684 0 
L 684 794 
z
" id="DejaVuSans-2e" transform="scale(0.015625)"/>
       </defs>
       <use xlink:href="#DejaVuSans-30"/>
       <use x="63.623047" xlink:href="#DejaVuSans-2e"/>
       <use x="95.410156" xlink:href="#DejaVuSans-30"/>
      </g>
     </g>
    </g>
    <g id="xtick_2">
     <g id="line2d_2">
      <g>
       <use style="stroke:#000000;stroke-width:0.8;" x="129.024" xlink:href="#m4bde9118d7" y="307.584"/>
      </g>
     </g>
     <g id="text_2">
      <!-- 0.2 -->
      <g transform="translate(121.072438 322.182437)scale(0.1 -0.1)">
       <defs>
        <path d="M 1228 531 
L 3431 531 
L 3431 0 
L 469 0 
L 469 531 
Q 828 903 1448 1529 
Q 2069 2156 2228 2338 
Q 2531 2678 2651 2914 
Q 2772 3150 2772 3378 
Q 2772 3750 2511 3984 
Q 2250 4219 1831 4219 
Q 1534 4219 1204 4116 
Q 875 4013 500 3803 
L 500 4441 
Q 881 4594 1212 4672 
Q 1544 4750 1819 4750 
Q 2544 4750 2975 4387 
Q 3406 4025 3406 3419 
Q 3406 3131 3298 2873 
Q 3191 2616 2906 2266 
Q 2828 2175 2409 1742 
Q 1991 1309 1228 531 
z
" id="DejaVuSans-32" transform="scale(0.015625)"/>
       </defs>
       <use xlink:href="#DejaVuSans-30"/>
       <use x="63.623047" xlink:href="#DejaVuSans-2e"/>
       <use x="95.410156" xlink:href="#DejaVuSans-32"/>
      </g>
     </g>
    </g>
    <g id="xtick_3">
     <g id="line2d_3">
      <g>
       <use style="stroke:#000000;stroke-width:0.8;" x="200.448" xlink:href="#m4bde9118d7" y="307.584"/>
      </g>
     </g>
     <g id="text_3">
      <!-- 0.4 -->
      <g transform="translate(192.496438 322.182437)scale(0.1 -0.1)">
       <defs>
        <path d="M 2419 4116 
L 825 1625 
L 2419 1625 
L 2419 4116 
z
M 2253 4666 
L 3047 4666 
L 3047 1625 
L 3713 1625 
L 3713 1100 
L 3047 1100 
L 3047 0 
L 2419 0 
L 2419 1100 
L 313 1100 
L 313 1709 
L 2253 4666 
z
" id="DejaVuSans-34" transform="scale(0.015625)"/>
       </defs>
       <use xlink:href="#DejaVuSans-30"/>
       <use x="63.623047" xlink:href="#DejaVuSans-2e"/>
       <use x="95.410156" xlink:href="#DejaVuSans-34"/>
      </g>
     </g>
    </g>
    <g id="xtick_4">
     <g id="line2d_4">
      <g>
       <use style="stroke:#000000;stroke-width:0.8;" x="271.872" xlink:href="#m4bde9118d7" y="307.584"/>
      </g>
     </g>
     <g id="text_4">
      <!-- 0.6 -->
      <g transform="translate(263.920438 322.182437)scale(0.1 -0.1)">
       <defs>
        <path d="M 2113 2584 
Q 1688 2584 1439 2293 
Q 1191 2003 1191 1497 
Q 1191 994 1439 701 
Q 1688 409 2113 409 
Q 2538 409 2786 701 
Q 3034 994 3034 1497 
Q 3034 2003 2786 2293 
Q 2538 2584 2113 2584 
z
M 3366 4563 
L 3366 3988 
Q 3128 4100 2886 4159 
Q 2644 4219 2406 4219 
Q 1781 4219 1451 3797 
Q 1122 3375 1075 2522 
Q 1259 2794 1537 2939 
Q 1816 3084 2150 3084 
Q 2853 3084 3261 2657 
Q 3669 2231 3669 1497 
Q 3669 778 3244 343 
Q 2819 -91 2113 -91 
Q 1303 -91 875 529 
Q 447 1150 447 2328 
Q 447 3434 972 4092 
Q 1497 4750 2381 4750 
Q 2619 4750 2861 4703 
Q 3103 4656 3366 4563 
z
" id="DejaVuSans-36" transform="scale(0.015625)"/>
       </defs>
       <use xlink:href="#DejaVuSans-30"/>
       <use x="63.623047" xlink:href="#DejaVuSans-2e"/>
       <use x="95.410156" xlink:href="#DejaVuSans-36"/>
      </g>
     </g>
    </g>
    <g id="xtick_5">
     <g id="line2d_5">
      <g>
       <use style="stroke:#000000;stroke-width:0.8;" x="343.296" xlink:href="#m4bde9118d7" y="307.584"/>
      </g>
     </g>
     <g id="text_5">
      <!-- 0.8 -->
      <g transform="translate(335.344438 322.182437)scale(0.1 -0.1)">
       <defs>
        <path d="M 2034 2216 
Q 1584 2216 1326 1975 
Q 1069 1734 1069 1313 
Q 1069 891 1326 650 
Q 1584 409 2034 409 
Q 2484 409 2743 651 
Q 3003 894 3003 1313 
Q 3003 1734 2745 1975 
Q 2488 2216 2034 2216 
z
M 1403 2484 
Q 997 2584 770 2862 
Q 544 3141 544 3541 
Q 544 4100 942 4425 
Q 1341 4750 2034 4750 
Q 2731 4750 3128 4425 
Q 3525 4100 3525 3541 
Q 3525 3141 3298 2862 
Q 3072 2584 2669 2484 
Q 3125 2378 3379 2068 
Q 3634 1759 3634 1313 
Q 3634 634 3220 271 
Q 2806 -91 2034 -91 
Q 1263 -91 848 271 
Q 434 634 434 1313 
Q 434 1759 690 2068 
Q 947 2378 1403 2484 
z
M 1172 3481 
Q 1172 3119 1398 2916 
Q 1625 2713 2034 2713 
Q 2441 2713 2670 2916 
Q 2900 3119 2900 3481 
Q 2900 3844 2670 4047 
Q 2441 4250 2034 4250 
Q 1625 4250 1398 4047 
Q 1172 3844 1172 3481 
z
" id="DejaVuSans-38" transform="scale(0.015625)"/>
       </defs>
       <use xlink:href="#DejaVuSans-30"/>
       <use x="63.623047" xlink:href="#DejaVuSans-2e"/>
       <use x="95.410156" xlink:href="#DejaVuSans-38"/>
      </g>
     </g>
    </g>
    <g id="xtick_6">
     <g id="line2d_6">
      <g>
       <use style="stroke:#000000;stroke-width:0.8;" x="414.72" xlink:href="#m4bde9118d7" y="307.584"/>
      </g>
     </g>
     <g id="text_6">
      <!-- 1.0 -->
      <g transform="translate(406.768438 322.182437)scale(0.1 -0.1)">
       <defs>
        <path d="M 794 531 
L 1825 531 
L 1825 4091 
L 703 3866 
L 703 4441 
L 1819 4666 
L 2450 4666 
L 2450 531 
L 3481 531 
L 3481 0 
L 794 0 
L 794 531 
z
" id="DejaVuSans-31" transform="scale(0.015625)"/>
       </defs>
       <use xlink:href="#DejaVuSans-31"/>
       <use x="63.623047" xlink:href="#DejaVuSans-2e"/>
       <use x="95.410156" xlink:href="#DejaVuSans-30"/>
      </g>
     </g>
    </g>
    <g id="text_7">
     <!-- Recall -->
     <g transform="translate(221.242812 335.860562)scale(0.1 -0.1)">
      <defs>
       <path d="M 2841 2188 
Q 3044 2119 3236 1894 
Q 3428 1669 3622 1275 
L 4263 0 
L 3584 0 
L 2988 1197 
Q 2756 1666 2539 1819 
Q 2322 1972 1947 1972 
L 1259 1972 
L 1259 0 
L 628 0 
L 628 4666 
L 2053 4666 
Q 2853 4666 3247 4331 
Q 3641 3997 3641 3322 
Q 3641 2881 3436 2590 
Q 3231 2300 2841 2188 
z
M 1259 4147 
L 1259 2491 
L 2053 2491 
Q 2509 2491 2742 2702 
Q 2975 2913 2975 3322 
Q 2975 3731 2742 3939 
Q 2509 4147 2053 4147 
L 1259 4147 
z
" id="DejaVuSans-52" transform="scale(0.015625)"/>
       <path d="M 3597 1894 
L 3597 1613 
L 953 1613 
Q 991 1019 1311 708 
Q 1631 397 2203 397 
Q 2534 397 2845 478 
Q 3156 559 3463 722 
L 3463 178 
Q 3153 47 2828 -22 
Q 2503 -91 2169 -91 
Q 1331 -91 842 396 
Q 353 884 353 1716 
Q 353 2575 817 3079 
Q 1281 3584 2069 3584 
Q 2775 3584 3186 3129 
Q 3597 2675 3597 1894 
z
M 3022 2063 
Q 3016 2534 2758 2815 
Q 2500 3097 2075 3097 
Q 1594 3097 1305 2825 
Q 1016 2553 972 2059 
L 3022 2063 
z
" id="DejaVuSans-65" transform="scale(0.015625)"/>
       <path d="M 3122 3366 
L 3122 2828 
Q 2878 2963 2633 3030 
Q 2388 3097 2138 3097 
Q 1578 3097 1268 2742 
Q 959 2388 959 1747 
Q 959 1106 1268 751 
Q 1578 397 2138 397 
Q 2388 397 2633 464 
Q 2878 531 3122 666 
L 3122 134 
Q 2881 22 2623 -34 
Q 2366 -91 2075 -91 
Q 1284 -91 818 406 
Q 353 903 353 1747 
Q 353 2603 823 3093 
Q 1294 3584 2113 3584 
Q 2378 3584 2631 3529 
Q 2884 3475 3122 3366 
z
" id="DejaVuSans-63" transform="scale(0.015625)"/>
       <path d="M 2194 1759 
Q 1497 1759 1228 1600 
Q 959 1441 959 1056 
Q 959 750 1161 570 
Q 1363 391 1709 391 
Q 2188 391 2477 730 
Q 2766 1069 2766 1631 
L 2766 1759 
L 2194 1759 
z
M 3341 1997 
L 3341 0 
L 2766 0 
L 2766 531 
Q 2569 213 2275 61 
Q 1981 -91 1556 -91 
Q 1019 -91 701 211 
Q 384 513 384 1019 
Q 384 1609 779 1909 
Q 1175 2209 1959 2209 
L 2766 2209 
L 2766 2266 
Q 2766 2663 2505 2880 
Q 2244 3097 1772 3097 
Q 1472 3097 1187 3025 
Q 903 2953 641 2809 
L 641 3341 
Q 956 3463 1253 3523 
Q 1550 3584 1831 3584 
Q 2591 3584 2966 3190 
Q 3341 2797 3341 1997 
z
" id="DejaVuSans-61" transform="scale(0.015625)"/>
       <path d="M 603 4863 
L 1178 4863 
L 1178 0 
L 603 0 
L 603 4863 
z
" id="DejaVuSans-6c" transform="scale(0.015625)"/>
      </defs>
      <use xlink:href="#DejaVuSans-52"/>
      <use x="64.982422" xlink:href="#DejaVuSans-65"/>
      <use x="126.505859" xlink:href="#DejaVuSans-63"/>
      <use x="181.486328" xlink:href="#DejaVuSans-61"/>
      <use x="242.765625" xlink:href="#DejaVuSans-6c"/>
      <use x="270.548828" xlink:href="#DejaVuSans-6c"/>
     </g>
    </g>
   </g>
   <g id="matplotlib.axis_2">
    <g id="ytick_1">
     <g id="line2d_7">
      <defs>
       <path d="M 0 0 
L -3.5 0 
" id="me1f293692a" style="stroke:#000000;stroke-width:0.8;"/>
      </defs>
      <g>
       <use style="stroke:#000000;stroke-width:0.8;" x="57.6" xlink:href="#me1f293692a" y="307.584"/>
      </g>
     </g>
     <g id="text_8">
      <!-- 0.0 -->
      <g transform="translate(34.696875 311.383219)scale(0.1 -0.1)">
       <use xlink:href="#DejaVuSans-30"/>
       <use x="63.623047" xlink:href="#DejaVuSans-2e"/>
       <use x="95.410156" xlink:href="#DejaVuSans-30"/>
      </g>
     </g>
    </g>
    <g id="ytick_2">
     <g id="line2d_8">
      <g>
       <use style="stroke:#000000;stroke-width:0.8;" x="57.6" xlink:href="#me1f293692a" y="256.896"/>
      </g>
     </g>
     <g id="text_9">
      <!-- 0.2 -->
      <g transform="translate(34.696875 260.695219)scale(0.1 -0.1)">
       <use xlink:href="#DejaVuSans-30"/>
       <use x="63.623047" xlink:href="#DejaVuSans-2e"/>
       <use x="95.410156" xlink:href="#DejaVuSans-32"/>
      </g>
     </g>
    </g>
    <g id="ytick_3">
     <g id="line2d_9">
      <g>
       <use style="stroke:#000000;stroke-width:0.8;" x="57.6" xlink:href="#me1f293692a" y="206.208"/>
      </g>
     </g>
     <g id="text_10">
      <!-- 0.4 -->
      <g transform="translate(34.696875 210.007219)scale(0.1 -0.1)">
       <use xlink:href="#DejaVuSans-30"/>
       <use x="63.623047" xlink:href="#DejaVuSans-2e"/>
       <use x="95.410156" xlink:href="#DejaVuSans-34"/>
      </g>
     </g>
    </g>
    <g id="ytick_4">
     <g id="line2d_10">
      <g>
       <use style="stroke:#000000;stroke-width:0.8;" x="57.6" xlink:href="#me1f293692a" y="155.52"/>
      </g>
     </g>
     <g id="text_11">
      <!-- 0.6 -->
      <g transform="translate(34.696875 159.319219)scale(0.1 -0.1)">
       <use xlink:href="#DejaVuSans-30"/>
       <use x="63.623047" xlink:href="#DejaVuSans-2e"/>
       <use x="95.410156" xlink:href="#DejaVuSans-36"/>
      </g>
     </g>
    </g>
    <g id="ytick_5">
     <g id="line2d_11">
      <g>
       <use style="stroke:#000000;stroke-width:0.8;" x="57.6" xlink:href="#me1f293692a" y="104.832"/>
      </g>
     </g>
     <g id="text_12">
      <!-- 0.8 -->
      <g transform="translate(34.696875 108.631219)scale(0.1 -0.1)">
       <use xlink:href="#DejaVuSans-30"/>
       <use x="63.623047" xlink:href="#DejaVuSans-2e"/>
       <use x="95.410156" xlink:href="#DejaVuSans-38"/>
      </g>
     </g>
    </g>
    <g id="ytick_6">
     <g id="line2d_12">
      <g>
       <use style="stroke:#000000;stroke-width:0.8;" x="57.6" xlink:href="#me1f293692a" y="54.144"/>
      </g>
     </g>
     <g id="text_13">
      <!-- 1.0 -->
      <g transform="translate(34.696875 57.943219)scale(0.1 -0.1)">
       <use xlink:href="#DejaVuSans-31"/>
       <use x="63.623047" xlink:href="#DejaVuSans-2e"/>
       <use x="95.410156" xlink:href="#DejaVuSans-30"/>
      </g>
     </g>
    </g>
    <g id="text_14">
     <!-- Precision -->
     <g transform="translate(28.617187 196.835031)rotate(-90)scale(0.1 -0.1)">
      <defs>
       <path d="M 1259 4147 
L 1259 2394 
L 2053 2394 
Q 2494 2394 2734 2622 
Q 2975 2850 2975 3272 
Q 2975 3691 2734 3919 
Q 2494 4147 2053 4147 
L 1259 4147 
z
M 628 4666 
L 2053 4666 
Q 2838 4666 3239 4311 
Q 3641 3956 3641 3272 
Q 3641 2581 3239 2228 
Q 2838 1875 2053 1875 
L 1259 1875 
L 1259 0 
L 628 0 
L 628 4666 
z
" id="DejaVuSans-50" transform="scale(0.015625)"/>
       <path d="M 2631 2963 
Q 2534 3019 2420 3045 
Q 2306 3072 2169 3072 
Q 1681 3072 1420 2755 
Q 1159 2438 1159 1844 
L 1159 0 
L 581 0 
L 581 3500 
L 1159 3500 
L 1159 2956 
Q 1341 3275 1631 3429 
Q 1922 3584 2338 3584 
Q 2397 3584 2469 3576 
Q 2541 3569 2628 3553 
L 2631 2963 
z
" id="DejaVuSans-72" transform="scale(0.015625)"/>
       <path d="M 603 3500 
L 1178 3500 
L 1178 0 
L 603 0 
L 603 3500 
z
M 603 4863 
L 1178 4863 
L 1178 4134 
L 603 4134 
L 603 4863 
z
" id="DejaVuSans-69" transform="scale(0.015625)"/>
       <path d="M 2834 3397 
L 2834 2853 
Q 2591 2978 2328 3040 
Q 2066 3103 1784 3103 
Q 1356 3103 1142 2972 
Q 928 2841 928 2578 
Q 928 2378 1081 2264 
Q 1234 2150 1697 2047 
L 1894 2003 
Q 2506 1872 2764 1633 
Q 3022 1394 3022 966 
Q 3022 478 2636 193 
Q 2250 -91 1575 -91 
Q 1294 -91 989 -36 
Q 684 19 347 128 
L 347 722 
Q 666 556 975 473 
Q 1284 391 1588 391 
Q 1994 391 2212 530 
Q 2431 669 2431 922 
Q 2431 1156 2273 1281 
Q 2116 1406 1581 1522 
L 1381 1569 
Q 847 1681 609 1914 
Q 372 2147 372 2553 
Q 372 3047 722 3315 
Q 1072 3584 1716 3584 
Q 2034 3584 2315 3537 
Q 2597 3491 2834 3397 
z
" id="DejaVuSans-73" transform="scale(0.015625)"/>
       <path d="M 1959 3097 
Q 1497 3097 1228 2736 
Q 959 2375 959 1747 
Q 959 1119 1226 758 
Q 1494 397 1959 397 
Q 2419 397 2687 759 
Q 2956 1122 2956 1747 
Q 2956 2369 2687 2733 
Q 2419 3097 1959 3097 
z
M 1959 3584 
Q 2709 3584 3137 3096 
Q 3566 2609 3566 1747 
Q 3566 888 3137 398 
Q 2709 -91 1959 -91 
Q 1206 -91 779 398 
Q 353 888 353 1747 
Q 353 2609 779 3096 
Q 1206 3584 1959 3584 
z
" id="DejaVuSans-6f" transform="scale(0.015625)"/>
       <path d="M 3513 2113 
L 3513 0 
L 2938 0 
L 2938 2094 
Q 2938 2591 2744 2837 
Q 2550 3084 2163 3084 
Q 1697 3084 1428 2787 
Q 1159 2491 1159 1978 
L 1159 0 
L 581 0 
L 581 3500 
L 1159 3500 
L 1159 2956 
Q 1366 3272 1645 3428 
Q 1925 3584 2291 3584 
Q 2894 3584 3203 3211 
Q 3513 2838 3513 2113 
z
" id="DejaVuSans-6e" transform="scale(0.015625)"/>
      </defs>
      <use xlink:href="#DejaVuSans-50"/>
      <use x="58.552734" xlink:href="#DejaVuSans-72"/>
      <use x="97.416016" xlink:href="#DejaVuSans-65"/>
      <use x="158.939453" xlink:href="#DejaVuSans-63"/>
      <use x="213.919922" xlink:href="#DejaVuSans-69"/>
      <use x="241.703125" xlink:href="#DejaVuSans-73"/>
      <use x="293.802734" xlink:href="#DejaVuSans-69"/>
      <use x="321.585938" xlink:href="#DejaVuSans-6f"/>
      <use x="382.767578" xlink:href="#DejaVuSans-6e"/>
     </g>
    </g>
   </g>
   <g id="line2d_13">
    <path clip-path="url(#p006698a966)" d="M 414.72 137.7 
L 414.303776 137.765329 
L 414.303776 133.686418 
L 413.887552 133.750154 
L 413.887552 131.920324 
L 413.471329 131.983352 
L 413.471329 102.771902 
L 413.055105 102.817907 
L 413.055105 102.624 
L 412.222657 102.715992 
L 412.222657 100.951579 
L 411.806434 100.996414 
L 411.806434 90.604684 
L 411.39021 90.641402 
L 411.39021 88.434458 
L 410.973986 88.469377 
L 410.973986 88.022204 
L 410.557762 88.056809 
L 410.557762 86.24814 
L 410.141538 86.281237 
L 410.141538 86.052854 
L 409.725315 86.085818 
L 409.725315 81.412861 
L 408.892867 81.470512 
L 408.892867 79.784895 
L 408.476643 79.81223 
L 408.476643 79.081412 
L 408.06042 79.108111 
L 408.06042 77.878424 
L 407.644196 77.904 
L 407.644196 75.402039 
L 406.395524 75.471738 
L 406.395524 74.963277 
L 405.979301 74.986105 
L 405.979301 72.927717 
L 405.563077 72.948518 
L 405.563077 72.68839 
L 405.146853 72.708972 
L 405.146853 72.448 
L 404.730629 72.46836 
L 404.730629 71.153396 
L 404.314406 71.172443 
L 404.314406 70.907408 
L 403.898182 70.926222 
L 403.898182 70.660315 
L 403.481958 70.678893 
L 403.481958 70.144722 
L 403.065734 70.162781 
L 403.065734 69.35614 
L 401.817063 69.408 
L 401.817063 69.137038 
L 400.568392 69.188384 
L 400.568392 68.915931 
L 399.31972 68.966752 
L 399.31972 68.142987 
L 398.903497 68.159115 
L 398.903497 67.882962 
L 398.487273 67.898827 
L 398.487273 67.344 
L 398.071049 67.359295 
L 398.071049 66.521302 
L 397.654825 66.535711 
L 397.654825 65.973172 
L 397.238601 65.986991 
L 397.238601 65.137294 
L 392.66014 65.280912 
L 392.66014 64.704 
L 392.243916 64.716586 
L 392.243916 64.136258 
L 390.579021 64.18424 
L 390.579021 63.891692 
L 389.33035 63.926967 
L 389.33035 63.632696 
L 388.914126 63.644169 
L 388.914126 62.458557 
L 387.665455 62.488976 
L 387.665455 62.189714 
L 386.833007 62.20941 
L 386.833007 61.908706 
L 386.000559 61.927784 
L 386.000559 61.322719 
L 385.168112 61.340444 
L 385.168112 61.036064 
L 383.919441 61.061717 
L 383.919441 60.755478 
L 382.670769 60.780209 
L 382.670769 60.1632 
L 381.422098 60.185857 
L 381.422098 59.875055 
L 380.58965 59.889491 
L 380.58965 59.264 
L 379.757203 59.276962 
L 379.757203 58.962251 
L 378.092308 58.986803 
L 378.092308 58.669714 
L 376.843636 58.687099 
L 376.843636 58.368 
L 376.011189 58.378859 
L 376.011189 58.058131 
L 373.93007 58.083482 
L 373.93007 57.435429 
L 372.265175 57.452616 
L 372.265175 57.125647 
L 368.519161 57.161143 
L 368.519161 56.829457 
L 362.275804 56.883892 
L 362.275804 56.54465 
L 351.037762 56.635685 
L 351.037762 56.282734 
L 348.956643 56.297881 
L 348.956643 55.941447 
L 348.124196 55.94656 
L 348.124196 55.588103 
L 343.545734 55.611091 
L 343.545734 55.245913 
L 329.394126 55.303024 
L 329.394126 54.917863 
L 315.242517 54.960232 
L 315.242517 54.552774 
L 306.501818 54.567105 
L 306.501818 54.144 
L 57.6 54.144 
L 57.6 54.144 
" style="fill:none;stroke:#f698ca;stroke-linecap:square;stroke-width:2;"/>
   </g>
   <g id="line2d_14">
    <path clip-path="url(#p006698a966)" d="M 414.72 93.68783 
L 414.219832 93.734627 
L 414.219832 86.945758 
L 413.719664 86.985858 
L 413.719664 84.807111 
L 413.219496 84.845014 
L 413.219496 81.491353 
L 412.719328 81.525709 
L 412.719328 80.096769 
L 411.718992 80.162555 
L 411.718992 74.247823 
L 411.218824 74.274 
L 411.218824 69.941984 
L 410.718655 69.962964 
L 410.718655 67.088516 
L 410.218487 67.105938 
L 410.218487 66.781844 
L 408.717983 66.833147 
L 408.717983 65.851826 
L 407.717647 65.883728 
L 407.717647 65.553986 
L 407.217479 65.569574 
L 407.217479 64.906521 
L 406.717311 64.921284 
L 406.717311 64.253711 
L 406.217143 64.267636 
L 406.217143 63.932028 
L 405.216807 63.959104 
L 405.216807 63.283307 
L 403.216134 63.334293 
L 403.216134 61.964028 
L 402.715966 61.975011 
L 402.715966 60.935763 
L 402.215798 60.945356 
L 402.215798 59.544 
L 401.71563 59.551681 
L 401.71563 58.844029 
L 400.715294 58.857476 
L 400.715294 58.501135 
L 399.21479 58.519942 
L 399.21479 58.161061 
L 398.714622 58.166857 
L 398.714622 57.444955 
L 392.712605 57.503293 
L 392.712605 57.134442 
L 391.712269 57.14329 
L 391.712269 56.772267 
L 379.708235 56.869161 
L 379.708235 56.483446 
L 377.207395 56.501581 
L 377.207395 55.72061 
L 376.207059 55.725529 
L 376.207059 55.332 
L 332.692437 55.518901 
L 332.692437 55.062261 
L 317.187227 55.116898 
L 317.187227 54.631385 
L 308.68437 54.647857 
L 308.68437 54.144 
L 57.6 54.144 
L 57.6 54.144 
" style="fill:none;stroke:#c8b9fa;stroke-linecap:square;stroke-width:2;"/>
   </g>
   <g id="line2d_15">
    <path clip-path="url(#p006698a966)" d="M 414.72 94.045993 
L 414.198657 94.095133 
L 414.198657 89.255335 
L 413.677314 89.299612 
L 413.677314 76.167529 
L 413.155971 76.197012 
L 413.155971 73.37522 
L 412.634628 73.401313 
L 412.634628 73.08313 
L 412.113285 73.108898 
L 412.113285 72.147934 
L 411.591942 72.172564 
L 411.591942 68.907495 
L 410.549255 68.948562 
L 410.549255 68.282912 
L 410.027912 68.302659 
L 410.027912 67.632403 
L 409.506569 67.651321 
L 409.506569 66.637521 
L 408.985226 66.655142 
L 408.985226 65.28817 
L 407.94254 65.319875 
L 407.94254 64.974769 
L 407.421197 64.99022 
L 407.421197 64.643657 
L 406.899854 64.658678 
L 406.899854 63.611586 
L 405.857168 63.63887 
L 405.857168 63.286857 
L 402.207766 63.380152 
L 402.207766 62.307514 
L 401.686423 62.319484 
L 401.686423 60.508077 
L 401.16508 60.517491 
L 401.16508 59.784356 
L 400.122394 59.801143 
L 400.122394 59.061493 
L 398.037022 59.091027 
L 398.037022 58.717353 
L 396.472993 58.738079 
L 396.472993 58.36161 
L 392.823591 58.406752 
L 392.823591 57.642405 
L 391.780905 57.653169 
L 391.780905 57.268068 
L 386.046131 57.321931 
L 386.046131 56.929055 
L 385.003445 56.937827 
L 385.003445 56.542486 
L 382.918073 56.557714 
L 382.918073 56.158626 
L 381.354044 56.168281 
L 381.354044 55.766016 
L 380.832701 55.768615 
L 380.832701 55.364417 
L 373.012555 55.394526 
L 373.012555 54.979058 
L 368.84181 54.99021 
L 368.84181 54.567813 
L 365.192409 54.572832 
L 365.192409 54.144 
L 57.6 54.144 
L 57.6 54.144 
" style="fill:none;stroke:#48a829;stroke-linecap:square;stroke-width:2;"/>
   </g>
   <g id="line2d_16">
    <path clip-path="url(#p006698a966)" d="M 414.72 138.698827 
L 414.561772 138.723799 
L 414.561772 138.624 
L 414.561772 134.112932 
L 414.403545 134.137202 
L 414.403545 134.031859 
L 414.403545 131.029412 
L 414.245317 131.053172 
L 414.245317 130.944 
L 414.245317 100.382781 
L 414.087089 100.399559 
L 414.087089 100.324356 
L 414.087089 99.72076 
L 413.928861 99.737358 
L 413.928861 99.661639 
L 413.928861 95.96113 
L 413.770634 95.976641 
L 413.770634 95.898122 
L 413.770634 93.99604 
L 413.612406 94.010966 
L 413.612406 93.930946 
L 413.612406 92.885205 
L 413.454178 92.899797 
L 413.454178 92.818906 
L 413.454178 92.250959 
L 413.137723 92.198342 
L 413.137723 90.804525 
L 412.979495 90.818486 
L 412.979495 90.735909 
L 412.979495 90.653268 
L 412.821267 90.667187 
L 412.821267 90.584458 
L 412.821267 88.072889 
L 412.663039 88.085984 
L 412.663039 88.001236 
L 412.663039 87.235546 
L 412.346584 87.175746 
L 412.346584 82.460197 
L 412.188356 82.47142 
L 412.188356 82.38216 
L 412.188356 81.215311 
L 412.030128 81.226105 
L 412.030128 81.135815 
L 412.030128 80.319949 
L 411.871901 80.330432 
L 411.871901 80.239385 
L 411.871901 79.324885 
L 411.713673 79.335018 
L 411.713673 79.24313 
L 411.713673 78.227461 
L 411.555445 78.237204 
L 411.555445 78.144389 
L 411.555445 77.958532 
L 411.23899 77.88473 
L 411.23899 77.698286 
L 411.080762 77.707849 
L 411.080762 77.614479 
L 411.080762 76.110182 
L 410.922534 76.119166 
L 410.922534 76.024458 
L 410.922534 75.834811 
L 410.764307 75.843697 
L 410.764307 75.748721 
L 410.764307 75.653668 
L 410.606079 75.662491 
L 410.606079 75.567324 
L 410.606079 75.090316 
L 410.289623 75.011847 
L 410.289623 74.532119 
L 409.973168 74.548955 
L 409.973168 74.452699 
L 409.973168 73.873491 
L 409.81494 73.881664 
L 409.81494 73.784812 
L 409.81494 73.590869 
L 409.340257 73.517893 
L 409.340257 73.12827 
L 409.182029 73.136173 
L 409.182029 73.038527 
L 409.182029 72.254422 
L 409.023802 72.261993 
L 409.023802 72.163573 
L 409.023802 71.867819 
L 408.707346 71.882676 
L 408.707346 71.783849 
L 408.707346 71.585947 
L 408.390891 71.600598 
L 408.390891 71.501445 
L 408.390891 71.402209 
L 408.232663 71.409467 
L 408.232663 71.310109 
L 408.232663 71.111141 
L 407.916207 71.025754 
L 407.916207 70.626162 
L 407.75798 70.633125 
L 407.75798 70.532977 
L 407.75798 70.432744 
L 407.441524 70.446531 
L 407.441524 70.346134 
L 407.441524 70.245652 
L 407.283296 70.252475 
L 407.283296 70.151868 
L 407.283296 69.950398 
L 407.125069 69.957107 
L 407.125069 69.856204 
L 407.125069 69.755215 
L 406.808613 69.76849 
L 406.808613 69.667335 
L 406.808613 69.058593 
L 406.492158 68.969482 
L 406.492158 68.25415 
L 405.701019 68.181681 
L 405.701019 67.769806 
L 405.542791 67.77567 
L 405.542791 67.672437 
L 405.542791 67.465706 
L 405.384564 67.471448 
L 405.384564 67.367907 
L 405.384564 66.952847 
L 405.226336 66.958382 
L 405.226336 66.85435 
L 405.226336 66.646016 
L 404.90988 66.656845 
L 404.90988 66.552458 
L 404.90988 66.238751 
L 404.751653 66.244 
L 404.751653 66.139206 
L 404.751653 66.034321 
L 404.593425 66.039489 
L 404.593425 65.93447 
L 404.593425 65.302431 
L 404.118742 65.211249 
L 404.118742 65.105363 
L 403.644058 65.013637 
L 403.644058 64.694745 
L 403.011148 64.713271 
L 403.011148 64.606609 
L 403.011148 64.393002 
L 402.061781 64.312889 
L 402.061781 64.205579 
L 401.42887 64.115777 
L 401.42887 63.900319 
L 400.637732 63.813849 
L 400.637732 63.271897 
L 400.321276 63.280021 
L 400.321276 63.171248 
L 400.321276 62.953412 
L 400.163048 62.957339 
L 400.163048 62.848228 
L 400.163048 62.73902 
L 400.004821 62.742857 
L 400.004821 62.633504 
L 400.004821 62.524054 
L 399.688365 62.421906 
L 399.688365 62.312165 
L 399.530137 62.315823 
L 399.530137 62.205935 
L 399.530137 62.09595 
L 399.213682 62.103085 
L 399.213682 61.992905 
L 399.213682 61.772248 
L 398.580771 61.67531 
L 398.580771 61.453671 
L 398.106088 61.463567 
L 398.106088 61.352451 
L 398.106088 61.241236 
L 397.94786 61.244443 
L 397.94786 61.133078 
L 397.631405 61.139403 
L 397.631405 60.916174 
L 396.998494 60.928465 
L 396.998494 60.816501 
L 396.682038 60.822564 
L 396.682038 60.7104 
L 394.308622 60.755478 
L 394.308622 60.529341 
L 393.992167 60.535197 
L 393.992167 60.081271 
L 393.517483 60.089465 
L 393.517483 59.975569 
L 392.568117 59.991716 
L 392.568117 59.877407 
L 391.776978 59.890673 
L 391.776978 59.776 
L 391.144067 59.786449 
L 391.144067 59.671462 
L 390.98584 59.674028 
L 390.98584 59.443628 
L 390.669384 59.448558 
L 390.669384 59.333093 
L 390.036473 59.342769 
L 390.036473 59.226985 
L 389.878245 59.229357 
L 389.878245 59.113412 
L 389.720018 59.115733 
L 389.720018 58.999626 
L 389.087107 59.008719 
L 389.087107 58.89229 
L 388.928879 58.894515 
L 388.928879 58.661223 
L 388.454196 58.667589 
L 388.454196 58.550617 
L 387.346602 58.56516 
L 387.346602 58.447698 
L 386.555463 58.457872 
L 386.555463 58.222069 
L 386.08078 58.227867 
L 386.08078 58.109633 
L 385.764324 58.113397 
L 385.764324 57.99494 
L 385.131413 58.002268 
L 385.131413 57.883476 
L 384.973186 57.885257 
L 384.973186 57.528034 
L 384.65673 57.531265 
L 384.65673 57.411851 
L 383.549136 57.422812 
L 383.549136 57.302888 
L 382.757997 57.310478 
L 382.757997 57.190154 
L 382.283314 57.194554 
L 382.283314 57.073942 
L 381.808631 57.078182 
L 381.808631 56.957282 
L 380.859265 56.965452 
L 380.859265 56.722605 
L 380.068126 56.728866 
L 380.068126 56.606974 
L 377.536482 56.626272 
L 377.536482 56.503314 
L 377.220027 56.505628 
L 377.220027 56.25911 
L 372.947878 56.287522 
L 372.947878 56.162437 
L 372.156739 56.167473 
L 372.156739 56.041953 
L 370.258006 56.053392 
L 370.258006 55.926995 
L 362.821303 55.970125 
L 362.821303 55.84056 
L 361.080798 55.850225 
L 361.080798 55.719793 
L 360.606114 55.722246 
L 360.606114 55.591477 
L 356.966876 55.608971 
L 356.966876 55.476492 
L 354.751688 55.486373 
L 354.751688 55.352776 
L 351.428906 55.366379 
L 351.428906 55.231142 
L 350.004856 55.236414 
L 350.004856 55.100377 
L 348.580806 55.10504 
L 348.580806 54.968195 
L 345.258024 54.977684 
L 345.258024 54.839118 
L 340.511192 54.850748 
L 340.511192 54.709714 
L 334.498538 54.72197 
L 334.498538 54.577725 
L 287.030217 54.667276 
L 287.030217 54.493091 
L 270.416305 54.520303 
L 270.416305 54.332291 
L 261.397324 54.340618 
L 261.397324 54.144 
L 57.6 54.144 
L 57.6 54.144 
" style="fill:none;stroke:#ff1493;stroke-dasharray:4,6.6;stroke-dashoffset:0;stroke-width:4;"/>
   </g>
   <g id="line2d_17">
    <path clip-path="url(#p006698a966)" d="M 57.6 307.584 
L 414.72 54.144 
" style="fill:none;stroke:#000000;stroke-dasharray:7.4,3.2;stroke-dashoffset:0;stroke-width:2;"/>
   </g>
   <g id="line2d_18">
    <path clip-path="url(#p006698a966)" d="M 57.6 307.584 
L 414.72 54.144 
" style="fill:none;stroke:#000000;stroke-dasharray:7.4,3.2;stroke-dashoffset:0;stroke-width:2;"/>
   </g>
   <g id="patch_3">
    <path d="M 57.6 307.584 
L 57.6 41.472 
" style="fill:none;stroke:#000000;stroke-linecap:square;stroke-linejoin:miter;stroke-width:0.8;"/>
   </g>
   <g id="patch_4">
    <path d="M 414.72 307.584 
L 414.72 41.472 
" style="fill:none;stroke:#000000;stroke-linecap:square;stroke-linejoin:miter;stroke-width:0.8;"/>
   </g>
   <g id="patch_5">
    <path d="M 57.6 307.584 
L 414.72 307.584 
" style="fill:none;stroke:#000000;stroke-linecap:square;stroke-linejoin:miter;stroke-width:0.8;"/>
   </g>
   <g id="patch_6">
    <path d="M 57.6 41.472 
L 414.72 41.472 
" style="fill:none;stroke:#000000;stroke-linecap:square;stroke-linejoin:miter;stroke-width:0.8;"/>
   </g>
   <g id="text_15">
    <!-- PR Curves -->
    <g transform="translate(205.63875 35.472)scale(0.12 -0.12)">
     <defs>
      <path id="DejaVuSans-20" transform="scale(0.015625)"/>
      <path d="M 4122 4306 
L 4122 3641 
Q 3803 3938 3442 4084 
Q 3081 4231 2675 4231 
Q 1875 4231 1450 3742 
Q 1025 3253 1025 2328 
Q 1025 1406 1450 917 
Q 1875 428 2675 428 
Q 3081 428 3442 575 
Q 3803 722 4122 1019 
L 4122 359 
Q 3791 134 3420 21 
Q 3050 -91 2638 -91 
Q 1578 -91 968 557 
Q 359 1206 359 2328 
Q 359 3453 968 4101 
Q 1578 4750 2638 4750 
Q 3056 4750 3426 4639 
Q 3797 4528 4122 4306 
z
" id="DejaVuSans-43" transform="scale(0.015625)"/>
      <path d="M 544 1381 
L 544 3500 
L 1119 3500 
L 1119 1403 
Q 1119 906 1312 657 
Q 1506 409 1894 409 
Q 2359 409 2629 706 
Q 2900 1003 2900 1516 
L 2900 3500 
L 3475 3500 
L 3475 0 
L 2900 0 
L 2900 538 
Q 2691 219 2414 64 
Q 2138 -91 1772 -91 
Q 1169 -91 856 284 
Q 544 659 544 1381 
z
M 1991 3584 
L 1991 3584 
z
" id="DejaVuSans-75" transform="scale(0.015625)"/>
      <path d="M 191 3500 
L 800 3500 
L 1894 563 
L 2988 3500 
L 3597 3500 
L 2284 0 
L 1503 0 
L 191 3500 
z
" id="DejaVuSans-76" transform="scale(0.015625)"/>
     </defs>
     <use xlink:href="#DejaVuSans-50"/>
     <use x="60.302734" xlink:href="#DejaVuSans-52"/>
     <use x="129.785156" xlink:href="#DejaVuSans-20"/>
     <use x="161.572266" xlink:href="#DejaVuSans-43"/>
     <use x="231.396484" xlink:href="#DejaVuSans-75"/>
     <use x="294.775391" xlink:href="#DejaVuSans-72"/>
     <use x="335.888672" xlink:href="#DejaVuSans-76"/>
     <use x="395.068359" xlink:href="#DejaVuSans-65"/>
     <use x="456.591797" xlink:href="#DejaVuSans-73"/>
    </g>
   </g>
   <g id="legend_1">
    <g id="patch_7">
     <path d="M 64.6 302.584 
L 334.28125 302.584 
Q 336.28125 302.584 336.28125 300.584 
L 336.28125 242.8715 
Q 336.28125 240.8715 334.28125 240.8715 
L 64.6 240.8715 
Q 62.6 240.8715 62.6 242.8715 
L 62.6 300.584 
Q 62.6 302.584 64.6 302.584 
z
" style="fill:#ffffff;opacity:0.8;stroke:#cccccc;stroke-linejoin:miter;"/>
    </g>
    <g id="line2d_19">
     <path d="M 66.6 248.969937 
L 86.6 248.969937 
" style="fill:none;stroke:#f698ca;stroke-linecap:square;stroke-width:2;"/>
    </g>
    <g id="line2d_20"/>
    <g id="text_16">
     <!-- PR curve of Effector Memory CD8 (area = 0.99) -->
     <g transform="translate(94.6 252.469937)scale(0.1 -0.1)">
      <defs>
       <path d="M 2375 4863 
L 2375 4384 
L 1825 4384 
Q 1516 4384 1395 4259 
Q 1275 4134 1275 3809 
L 1275 3500 
L 2222 3500 
L 2222 3053 
L 1275 3053 
L 1275 0 
L 697 0 
L 697 3053 
L 147 3053 
L 147 3500 
L 697 3500 
L 697 3744 
Q 697 4328 969 4595 
Q 1241 4863 1831 4863 
L 2375 4863 
z
" id="DejaVuSans-66" transform="scale(0.015625)"/>
       <path d="M 628 4666 
L 3578 4666 
L 3578 4134 
L 1259 4134 
L 1259 2753 
L 3481 2753 
L 3481 2222 
L 1259 2222 
L 1259 531 
L 3634 531 
L 3634 0 
L 628 0 
L 628 4666 
z
" id="DejaVuSans-45" transform="scale(0.015625)"/>
       <path d="M 1172 4494 
L 1172 3500 
L 2356 3500 
L 2356 3053 
L 1172 3053 
L 1172 1153 
Q 1172 725 1289 603 
Q 1406 481 1766 481 
L 2356 481 
L 2356 0 
L 1766 0 
Q 1100 0 847 248 
Q 594 497 594 1153 
L 594 3053 
L 172 3053 
L 172 3500 
L 594 3500 
L 594 4494 
L 1172 4494 
z
" id="DejaVuSans-74" transform="scale(0.015625)"/>
       <path d="M 628 4666 
L 1569 4666 
L 2759 1491 
L 3956 4666 
L 4897 4666 
L 4897 0 
L 4281 0 
L 4281 4097 
L 3078 897 
L 2444 897 
L 1241 4097 
L 1241 0 
L 628 0 
L 628 4666 
z
" id="DejaVuSans-4d" transform="scale(0.015625)"/>
       <path d="M 3328 2828 
Q 3544 3216 3844 3400 
Q 4144 3584 4550 3584 
Q 5097 3584 5394 3201 
Q 5691 2819 5691 2113 
L 5691 0 
L 5113 0 
L 5113 2094 
Q 5113 2597 4934 2840 
Q 4756 3084 4391 3084 
Q 3944 3084 3684 2787 
Q 3425 2491 3425 1978 
L 3425 0 
L 2847 0 
L 2847 2094 
Q 2847 2600 2669 2842 
Q 2491 3084 2119 3084 
Q 1678 3084 1418 2786 
Q 1159 2488 1159 1978 
L 1159 0 
L 581 0 
L 581 3500 
L 1159 3500 
L 1159 2956 
Q 1356 3278 1631 3431 
Q 1906 3584 2284 3584 
Q 2666 3584 2933 3390 
Q 3200 3197 3328 2828 
z
" id="DejaVuSans-6d" transform="scale(0.015625)"/>
       <path d="M 2059 -325 
Q 1816 -950 1584 -1140 
Q 1353 -1331 966 -1331 
L 506 -1331 
L 506 -850 
L 844 -850 
Q 1081 -850 1212 -737 
Q 1344 -625 1503 -206 
L 1606 56 
L 191 3500 
L 800 3500 
L 1894 763 
L 2988 3500 
L 3597 3500 
L 2059 -325 
z
" id="DejaVuSans-79" transform="scale(0.015625)"/>
       <path d="M 1259 4147 
L 1259 519 
L 2022 519 
Q 2988 519 3436 956 
Q 3884 1394 3884 2338 
Q 3884 3275 3436 3711 
Q 2988 4147 2022 4147 
L 1259 4147 
z
M 628 4666 
L 1925 4666 
Q 3281 4666 3915 4102 
Q 4550 3538 4550 2338 
Q 4550 1131 3912 565 
Q 3275 0 1925 0 
L 628 0 
L 628 4666 
z
" id="DejaVuSans-44" transform="scale(0.015625)"/>
       <path d="M 1984 4856 
Q 1566 4138 1362 3434 
Q 1159 2731 1159 2009 
Q 1159 1288 1364 580 
Q 1569 -128 1984 -844 
L 1484 -844 
Q 1016 -109 783 600 
Q 550 1309 550 2009 
Q 550 2706 781 3412 
Q 1013 4119 1484 4856 
L 1984 4856 
z
" id="DejaVuSans-28" transform="scale(0.015625)"/>
       <path d="M 678 2906 
L 4684 2906 
L 4684 2381 
L 678 2381 
L 678 2906 
z
M 678 1631 
L 4684 1631 
L 4684 1100 
L 678 1100 
L 678 1631 
z
" id="DejaVuSans-3d" transform="scale(0.015625)"/>
       <path d="M 703 97 
L 703 672 
Q 941 559 1184 500 
Q 1428 441 1663 441 
Q 2288 441 2617 861 
Q 2947 1281 2994 2138 
Q 2813 1869 2534 1725 
Q 2256 1581 1919 1581 
Q 1219 1581 811 2004 
Q 403 2428 403 3163 
Q 403 3881 828 4315 
Q 1253 4750 1959 4750 
Q 2769 4750 3195 4129 
Q 3622 3509 3622 2328 
Q 3622 1225 3098 567 
Q 2575 -91 1691 -91 
Q 1453 -91 1209 -44 
Q 966 3 703 97 
z
M 1959 2075 
Q 2384 2075 2632 2365 
Q 2881 2656 2881 3163 
Q 2881 3666 2632 3958 
Q 2384 4250 1959 4250 
Q 1534 4250 1286 3958 
Q 1038 3666 1038 3163 
Q 1038 2656 1286 2365 
Q 1534 2075 1959 2075 
z
" id="DejaVuSans-39" transform="scale(0.015625)"/>
       <path d="M 513 4856 
L 1013 4856 
Q 1481 4119 1714 3412 
Q 1947 2706 1947 2009 
Q 1947 1309 1714 600 
Q 1481 -109 1013 -844 
L 513 -844 
Q 928 -128 1133 580 
Q 1338 1288 1338 2009 
Q 1338 2731 1133 3434 
Q 928 4138 513 4856 
z
" id="DejaVuSans-29" transform="scale(0.015625)"/>
      </defs>
      <use xlink:href="#DejaVuSans-50"/>
      <use x="60.302734" xlink:href="#DejaVuSans-52"/>
      <use x="129.785156" xlink:href="#DejaVuSans-20"/>
      <use x="161.572266" xlink:href="#DejaVuSans-63"/>
      <use x="216.552734" xlink:href="#DejaVuSans-75"/>
      <use x="279.931641" xlink:href="#DejaVuSans-72"/>
      <use x="321.044922" xlink:href="#DejaVuSans-76"/>
      <use x="380.224609" xlink:href="#DejaVuSans-65"/>
      <use x="441.748047" xlink:href="#DejaVuSans-20"/>
      <use x="473.535156" xlink:href="#DejaVuSans-6f"/>
      <use x="534.716797" xlink:href="#DejaVuSans-66"/>
      <use x="569.921875" xlink:href="#DejaVuSans-20"/>
      <use x="601.708984" xlink:href="#DejaVuSans-45"/>
      <use x="664.892578" xlink:href="#DejaVuSans-66"/>
      <use x="700.097656" xlink:href="#DejaVuSans-66"/>
      <use x="735.302734" xlink:href="#DejaVuSans-65"/>
      <use x="796.826172" xlink:href="#DejaVuSans-63"/>
      <use x="851.806641" xlink:href="#DejaVuSans-74"/>
      <use x="891.015625" xlink:href="#DejaVuSans-6f"/>
      <use x="952.197266" xlink:href="#DejaVuSans-72"/>
      <use x="993.310547" xlink:href="#DejaVuSans-20"/>
      <use x="1025.097656" xlink:href="#DejaVuSans-4d"/>
      <use x="1111.376953" xlink:href="#DejaVuSans-65"/>
      <use x="1172.900391" xlink:href="#DejaVuSans-6d"/>
      <use x="1270.3125" xlink:href="#DejaVuSans-6f"/>
      <use x="1331.494141" xlink:href="#DejaVuSans-72"/>
      <use x="1372.607422" xlink:href="#DejaVuSans-79"/>
      <use x="1431.787109" xlink:href="#DejaVuSans-20"/>
      <use x="1463.574219" xlink:href="#DejaVuSans-43"/>
      <use x="1533.398438" xlink:href="#DejaVuSans-44"/>
      <use x="1610.400391" xlink:href="#DejaVuSans-38"/>
      <use x="1674.023438" xlink:href="#DejaVuSans-20"/>
      <use x="1705.810547" xlink:href="#DejaVuSans-28"/>
      <use x="1744.824219" xlink:href="#DejaVuSans-61"/>
      <use x="1806.103516" xlink:href="#DejaVuSans-72"/>
      <use x="1844.966797" xlink:href="#DejaVuSans-65"/>
      <use x="1906.490234" xlink:href="#DejaVuSans-61"/>
      <use x="1967.769531" xlink:href="#DejaVuSans-20"/>
      <use x="1999.556641" xlink:href="#DejaVuSans-3d"/>
      <use x="2083.345703" xlink:href="#DejaVuSans-20"/>
      <use x="2115.132812" xlink:href="#DejaVuSans-30"/>
      <use x="2178.755859" xlink:href="#DejaVuSans-2e"/>
      <use x="2210.542969" xlink:href="#DejaVuSans-39"/>
      <use x="2274.166016" xlink:href="#DejaVuSans-39"/>
      <use x="2337.789062" xlink:href="#DejaVuSans-29"/>
     </g>
    </g>
    <g id="line2d_21">
     <path d="M 66.6 263.648062 
L 86.6 263.648062 
" style="fill:none;stroke:#c8b9fa;stroke-linecap:square;stroke-width:2;"/>
    </g>
    <g id="line2d_22"/>
    <g id="text_17">
     <!-- PR curve of Naive CD8 (area = 1.00) -->
     <g transform="translate(94.6 267.148062)scale(0.1 -0.1)">
      <defs>
       <path d="M 628 4666 
L 1478 4666 
L 3547 763 
L 3547 4666 
L 4159 4666 
L 4159 0 
L 3309 0 
L 1241 3903 
L 1241 0 
L 628 0 
L 628 4666 
z
" id="DejaVuSans-4e" transform="scale(0.015625)"/>
      </defs>
      <use xlink:href="#DejaVuSans-50"/>
      <use x="60.302734" xlink:href="#DejaVuSans-52"/>
      <use x="129.785156" xlink:href="#DejaVuSans-20"/>
      <use x="161.572266" xlink:href="#DejaVuSans-63"/>
      <use x="216.552734" xlink:href="#DejaVuSans-75"/>
      <use x="279.931641" xlink:href="#DejaVuSans-72"/>
      <use x="321.044922" xlink:href="#DejaVuSans-76"/>
      <use x="380.224609" xlink:href="#DejaVuSans-65"/>
      <use x="441.748047" xlink:href="#DejaVuSans-20"/>
      <use x="473.535156" xlink:href="#DejaVuSans-6f"/>
      <use x="534.716797" xlink:href="#DejaVuSans-66"/>
      <use x="569.921875" xlink:href="#DejaVuSans-20"/>
      <use x="601.708984" xlink:href="#DejaVuSans-4e"/>
      <use x="676.513672" xlink:href="#DejaVuSans-61"/>
      <use x="737.792969" xlink:href="#DejaVuSans-69"/>
      <use x="765.576172" xlink:href="#DejaVuSans-76"/>
      <use x="824.755859" xlink:href="#DejaVuSans-65"/>
      <use x="886.279297" xlink:href="#DejaVuSans-20"/>
      <use x="918.066406" xlink:href="#DejaVuSans-43"/>
      <use x="987.890625" xlink:href="#DejaVuSans-44"/>
      <use x="1064.892578" xlink:href="#DejaVuSans-38"/>
      <use x="1128.515625" xlink:href="#DejaVuSans-20"/>
      <use x="1160.302734" xlink:href="#DejaVuSans-28"/>
      <use x="1199.316406" xlink:href="#DejaVuSans-61"/>
      <use x="1260.595703" xlink:href="#DejaVuSans-72"/>
      <use x="1299.458984" xlink:href="#DejaVuSans-65"/>
      <use x="1360.982422" xlink:href="#DejaVuSans-61"/>
      <use x="1422.261719" xlink:href="#DejaVuSans-20"/>
      <use x="1454.048828" xlink:href="#DejaVuSans-3d"/>
      <use x="1537.837891" xlink:href="#DejaVuSans-20"/>
      <use x="1569.625" xlink:href="#DejaVuSans-31"/>
      <use x="1633.248047" xlink:href="#DejaVuSans-2e"/>
      <use x="1665.035156" xlink:href="#DejaVuSans-30"/>
      <use x="1728.658203" xlink:href="#DejaVuSans-30"/>
      <use x="1792.28125" xlink:href="#DejaVuSans-29"/>
     </g>
    </g>
    <g id="line2d_23">
     <path d="M 66.6 278.326187 
L 86.6 278.326187 
" style="fill:none;stroke:#48a829;stroke-linecap:square;stroke-width:2;"/>
    </g>
    <g id="line2d_24"/>
    <g id="text_18">
     <!-- PR curve of Temra CD8 (area = 1.00) -->
     <g transform="translate(94.6 281.826187)scale(0.1 -0.1)">
      <defs>
       <path d="M -19 4666 
L 3928 4666 
L 3928 4134 
L 2272 4134 
L 2272 0 
L 1638 0 
L 1638 4134 
L -19 4134 
L -19 4666 
z
" id="DejaVuSans-54" transform="scale(0.015625)"/>
      </defs>
      <use xlink:href="#DejaVuSans-50"/>
      <use x="60.302734" xlink:href="#DejaVuSans-52"/>
      <use x="129.785156" xlink:href="#DejaVuSans-20"/>
      <use x="161.572266" xlink:href="#DejaVuSans-63"/>
      <use x="216.552734" xlink:href="#DejaVuSans-75"/>
      <use x="279.931641" xlink:href="#DejaVuSans-72"/>
      <use x="321.044922" xlink:href="#DejaVuSans-76"/>
      <use x="380.224609" xlink:href="#DejaVuSans-65"/>
      <use x="441.748047" xlink:href="#DejaVuSans-20"/>
      <use x="473.535156" xlink:href="#DejaVuSans-6f"/>
      <use x="534.716797" xlink:href="#DejaVuSans-66"/>
      <use x="569.921875" xlink:href="#DejaVuSans-20"/>
      <use x="601.708984" xlink:href="#DejaVuSans-54"/>
      <use x="645.792969" xlink:href="#DejaVuSans-65"/>
      <use x="707.316406" xlink:href="#DejaVuSans-6d"/>
      <use x="804.728516" xlink:href="#DejaVuSans-72"/>
      <use x="845.841797" xlink:href="#DejaVuSans-61"/>
      <use x="907.121094" xlink:href="#DejaVuSans-20"/>
      <use x="938.908203" xlink:href="#DejaVuSans-43"/>
      <use x="1008.732422" xlink:href="#DejaVuSans-44"/>
      <use x="1085.734375" xlink:href="#DejaVuSans-38"/>
      <use x="1149.357422" xlink:href="#DejaVuSans-20"/>
      <use x="1181.144531" xlink:href="#DejaVuSans-28"/>
      <use x="1220.158203" xlink:href="#DejaVuSans-61"/>
      <use x="1281.4375" xlink:href="#DejaVuSans-72"/>
      <use x="1320.300781" xlink:href="#DejaVuSans-65"/>
      <use x="1381.824219" xlink:href="#DejaVuSans-61"/>
      <use x="1443.103516" xlink:href="#DejaVuSans-20"/>
      <use x="1474.890625" xlink:href="#DejaVuSans-3d"/>
      <use x="1558.679688" xlink:href="#DejaVuSans-20"/>
      <use x="1590.466797" xlink:href="#DejaVuSans-31"/>
      <use x="1654.089844" xlink:href="#DejaVuSans-2e"/>
      <use x="1685.876953" xlink:href="#DejaVuSans-30"/>
      <use x="1749.5" xlink:href="#DejaVuSans-30"/>
      <use x="1813.123047" xlink:href="#DejaVuSans-29"/>
     </g>
    </g>
    <g id="line2d_25">
     <path d="M 66.6 293.004312 
L 86.6 293.004312 
" style="fill:none;stroke:#ff1493;stroke-dasharray:4,6.6;stroke-dashoffset:0;stroke-width:4;"/>
    </g>
    <g id="line2d_26"/>
    <g id="text_19">
     <!-- micro-average PR curve (area = 0.99) -->
     <g transform="translate(94.6 296.504312)scale(0.1 -0.1)">
      <defs>
       <path d="M 313 2009 
L 1997 2009 
L 1997 1497 
L 313 1497 
L 313 2009 
z
" id="DejaVuSans-2d" transform="scale(0.015625)"/>
       <path d="M 2906 1791 
Q 2906 2416 2648 2759 
Q 2391 3103 1925 3103 
Q 1463 3103 1205 2759 
Q 947 2416 947 1791 
Q 947 1169 1205 825 
Q 1463 481 1925 481 
Q 2391 481 2648 825 
Q 2906 1169 2906 1791 
z
M 3481 434 
Q 3481 -459 3084 -895 
Q 2688 -1331 1869 -1331 
Q 1566 -1331 1297 -1286 
Q 1028 -1241 775 -1147 
L 775 -588 
Q 1028 -725 1275 -790 
Q 1522 -856 1778 -856 
Q 2344 -856 2625 -561 
Q 2906 -266 2906 331 
L 2906 616 
Q 2728 306 2450 153 
Q 2172 0 1784 0 
Q 1141 0 747 490 
Q 353 981 353 1791 
Q 353 2603 747 3093 
Q 1141 3584 1784 3584 
Q 2172 3584 2450 3431 
Q 2728 3278 2906 2969 
L 2906 3500 
L 3481 3500 
L 3481 434 
z
" id="DejaVuSans-67" transform="scale(0.015625)"/>
      </defs>
      <use xlink:href="#DejaVuSans-6d"/>
      <use x="97.412109" xlink:href="#DejaVuSans-69"/>
      <use x="125.195312" xlink:href="#DejaVuSans-63"/>
      <use x="180.175781" xlink:href="#DejaVuSans-72"/>
      <use x="219.039062" xlink:href="#DejaVuSans-6f"/>
      <use x="282.095703" xlink:href="#DejaVuSans-2d"/>
      <use x="318.179688" xlink:href="#DejaVuSans-61"/>
      <use x="379.458984" xlink:href="#DejaVuSans-76"/>
      <use x="438.638672" xlink:href="#DejaVuSans-65"/>
      <use x="500.162109" xlink:href="#DejaVuSans-72"/>
      <use x="541.275391" xlink:href="#DejaVuSans-61"/>
      <use x="602.554688" xlink:href="#DejaVuSans-67"/>
      <use x="666.03125" xlink:href="#DejaVuSans-65"/>
      <use x="727.554688" xlink:href="#DejaVuSans-20"/>
      <use x="759.341797" xlink:href="#DejaVuSans-50"/>
      <use x="819.644531" xlink:href="#DejaVuSans-52"/>
      <use x="889.126953" xlink:href="#DejaVuSans-20"/>
      <use x="920.914062" xlink:href="#DejaVuSans-63"/>
      <use x="975.894531" xlink:href="#DejaVuSans-75"/>
      <use x="1039.273438" xlink:href="#DejaVuSans-72"/>
      <use x="1080.386719" xlink:href="#DejaVuSans-76"/>
      <use x="1139.566406" xlink:href="#DejaVuSans-65"/>
      <use x="1201.089844" xlink:href="#DejaVuSans-20"/>
      <use x="1232.876953" xlink:href="#DejaVuSans-28"/>
      <use x="1271.890625" xlink:href="#DejaVuSans-61"/>
      <use x="1333.169922" xlink:href="#DejaVuSans-72"/>
      <use x="1372.033203" xlink:href="#DejaVuSans-65"/>
      <use x="1433.556641" xlink:href="#DejaVuSans-61"/>
      <use x="1494.835938" xlink:href="#DejaVuSans-20"/>
      <use x="1526.623047" xlink:href="#DejaVuSans-3d"/>
      <use x="1610.412109" xlink:href="#DejaVuSans-20"/>
      <use x="1642.199219" xlink:href="#DejaVuSans-30"/>
      <use x="1705.822266" xlink:href="#DejaVuSans-2e"/>
      <use x="1737.609375" xlink:href="#DejaVuSans-39"/>
      <use x="1801.232422" xlink:href="#DejaVuSans-39"/>
      <use x="1864.855469" xlink:href="#DejaVuSans-29"/>
     </g>
    </g>
   </g>
  </g>
 </g>
 <defs>
  <clipPath id="p006698a966">
   <rect height="266.112" width="357.12" x="57.6" y="41.472"/>
  </clipPath>
 </defs>
</svg>
