<?xml version="1.0" encoding="utf-8" standalone="no"?>
<!DOCTYPE svg PUBLIC "-//W3C//DTD SVG 1.1//EN"
  "http://www.w3.org/Graphics/SVG/1.1/DTD/svg11.dtd">
<svg height="345.6pt" version="1.1" viewBox="0 0 460.8 345.6" width="460.8pt" xmlns="http://www.w3.org/2000/svg" xmlns:xlink="http://www.w3.org/1999/xlink">
 <metadata>
  <rdf:RDF xmlns:cc="http://creativecommons.org/ns#" xmlns:dc="http://purl.org/dc/elements/1.1/" xmlns:rdf="http://www.w3.org/1999/02/22-rdf-syntax-ns#">
   <cc:Work>
    <dc:type rdf:resource="http://purl.org/dc/dcmitype/StillImage"/>
    <dc:date>2021-08-31T14:23:39.826357</dc:date>
    <dc:format>image/svg+xml</dc:format>
    <dc:creator>
     <cc:Agent>
      <dc:title>Matplotlib v3.4.2, https://matplotlib.org/</dc:title>
     </cc:Agent>
    </dc:creator>
   </cc:Work>
  </rdf:RDF>
 </metadata>
 <defs>
  <style type="text/css">*{stroke-linecap:butt;stroke-linejoin:round;}</style>
 </defs>
 <g id="figure_1">
  <g id="patch_1">
   <path d="M 0 345.6 
L 460.8 345.6 
L 460.8 0 
L 0 0 
z
" style="fill:#ffffff;"/>
  </g>
  <g id="axes_1">
   <g id="patch_2">
    <path d="M 57.6 307.584 
L 414.72 307.584 
L 414.72 41.472 
L 57.6 41.472 
z
" style="fill:#ffffff;"/>
   </g>
   <g id="matplotlib.axis_1">
    <g id="xtick_1">
     <g id="line2d_1">
      <defs>
       <path d="M 0 0 
L 0 3.5 
" id="mbff2a7443f" style="stroke:#000000;stroke-width:0.8;"/>
      </defs>
      <g>
       <use style="stroke:#000000;stroke-width:0.8;" x="57.6" xlink:href="#mbff2a7443f" y="307.584"/>
      </g>
     </g>
     <g id="text_1">
      <!-- 0.0 -->
      <g transform="translate(49.648438 322.182437)scale(0.1 -0.1)">
       <defs>
        <path d="M 2034 4250 
Q 1547 4250 1301 3770 
Q 1056 3291 1056 2328 
Q 1056 1369 1301 889 
Q 1547 409 2034 409 
Q 2525 409 2770 889 
Q 3016 1369 3016 2328 
Q 3016 3291 2770 3770 
Q 2525 4250 2034 4250 
z
M 2034 4750 
Q 2819 4750 3233 4129 
Q 3647 3509 3647 2328 
Q 3647 1150 3233 529 
Q 2819 -91 2034 -91 
Q 1250 -91 836 529 
Q 422 1150 422 2328 
Q 422 3509 836 4129 
Q 1250 4750 2034 4750 
z
" id="DejaVuSans-30" transform="scale(0.015625)"/>
        <path d="M 684 794 
L 1344 794 
L 1344 0 
L 684 0 
L 684 794 
z
" id="DejaVuSans-2e" transform="scale(0.015625)"/>
       </defs>
       <use xlink:href="#DejaVuSans-30"/>
       <use x="63.623047" xlink:href="#DejaVuSans-2e"/>
       <use x="95.410156" xlink:href="#DejaVuSans-30"/>
      </g>
     </g>
    </g>
    <g id="xtick_2">
     <g id="line2d_2">
      <g>
       <use style="stroke:#000000;stroke-width:0.8;" x="129.024" xlink:href="#mbff2a7443f" y="307.584"/>
      </g>
     </g>
     <g id="text_2">
      <!-- 0.2 -->
      <g transform="translate(121.072438 322.182437)scale(0.1 -0.1)">
       <defs>
        <path d="M 1228 531 
L 3431 531 
L 3431 0 
L 469 0 
L 469 531 
Q 828 903 1448 1529 
Q 2069 2156 2228 2338 
Q 2531 2678 2651 2914 
Q 2772 3150 2772 3378 
Q 2772 3750 2511 3984 
Q 2250 4219 1831 4219 
Q 1534 4219 1204 4116 
Q 875 4013 500 3803 
L 500 4441 
Q 881 4594 1212 4672 
Q 1544 4750 1819 4750 
Q 2544 4750 2975 4387 
Q 3406 4025 3406 3419 
Q 3406 3131 3298 2873 
Q 3191 2616 2906 2266 
Q 2828 2175 2409 1742 
Q 1991 1309 1228 531 
z
" id="DejaVuSans-32" transform="scale(0.015625)"/>
       </defs>
       <use xlink:href="#DejaVuSans-30"/>
       <use x="63.623047" xlink:href="#DejaVuSans-2e"/>
       <use x="95.410156" xlink:href="#DejaVuSans-32"/>
      </g>
     </g>
    </g>
    <g id="xtick_3">
     <g id="line2d_3">
      <g>
       <use style="stroke:#000000;stroke-width:0.8;" x="200.448" xlink:href="#mbff2a7443f" y="307.584"/>
      </g>
     </g>
     <g id="text_3">
      <!-- 0.4 -->
      <g transform="translate(192.496438 322.182437)scale(0.1 -0.1)">
       <defs>
        <path d="M 2419 4116 
L 825 1625 
L 2419 1625 
L 2419 4116 
z
M 2253 4666 
L 3047 4666 
L 3047 1625 
L 3713 1625 
L 3713 1100 
L 3047 1100 
L 3047 0 
L 2419 0 
L 2419 1100 
L 313 1100 
L 313 1709 
L 2253 4666 
z
" id="DejaVuSans-34" transform="scale(0.015625)"/>
       </defs>
       <use xlink:href="#DejaVuSans-30"/>
       <use x="63.623047" xlink:href="#DejaVuSans-2e"/>
       <use x="95.410156" xlink:href="#DejaVuSans-34"/>
      </g>
     </g>
    </g>
    <g id="xtick_4">
     <g id="line2d_4">
      <g>
       <use style="stroke:#000000;stroke-width:0.8;" x="271.872" xlink:href="#mbff2a7443f" y="307.584"/>
      </g>
     </g>
     <g id="text_4">
      <!-- 0.6 -->
      <g transform="translate(263.920438 322.182437)scale(0.1 -0.1)">
       <defs>
        <path d="M 2113 2584 
Q 1688 2584 1439 2293 
Q 1191 2003 1191 1497 
Q 1191 994 1439 701 
Q 1688 409 2113 409 
Q 2538 409 2786 701 
Q 3034 994 3034 1497 
Q 3034 2003 2786 2293 
Q 2538 2584 2113 2584 
z
M 3366 4563 
L 3366 3988 
Q 3128 4100 2886 4159 
Q 2644 4219 2406 4219 
Q 1781 4219 1451 3797 
Q 1122 3375 1075 2522 
Q 1259 2794 1537 2939 
Q 1816 3084 2150 3084 
Q 2853 3084 3261 2657 
Q 3669 2231 3669 1497 
Q 3669 778 3244 343 
Q 2819 -91 2113 -91 
Q 1303 -91 875 529 
Q 447 1150 447 2328 
Q 447 3434 972 4092 
Q 1497 4750 2381 4750 
Q 2619 4750 2861 4703 
Q 3103 4656 3366 4563 
z
" id="DejaVuSans-36" transform="scale(0.015625)"/>
       </defs>
       <use xlink:href="#DejaVuSans-30"/>
       <use x="63.623047" xlink:href="#DejaVuSans-2e"/>
       <use x="95.410156" xlink:href="#DejaVuSans-36"/>
      </g>
     </g>
    </g>
    <g id="xtick_5">
     <g id="line2d_5">
      <g>
       <use style="stroke:#000000;stroke-width:0.8;" x="343.296" xlink:href="#mbff2a7443f" y="307.584"/>
      </g>
     </g>
     <g id="text_5">
      <!-- 0.8 -->
      <g transform="translate(335.344438 322.182437)scale(0.1 -0.1)">
       <defs>
        <path d="M 2034 2216 
Q 1584 2216 1326 1975 
Q 1069 1734 1069 1313 
Q 1069 891 1326 650 
Q 1584 409 2034 409 
Q 2484 409 2743 651 
Q 3003 894 3003 1313 
Q 3003 1734 2745 1975 
Q 2488 2216 2034 2216 
z
M 1403 2484 
Q 997 2584 770 2862 
Q 544 3141 544 3541 
Q 544 4100 942 4425 
Q 1341 4750 2034 4750 
Q 2731 4750 3128 4425 
Q 3525 4100 3525 3541 
Q 3525 3141 3298 2862 
Q 3072 2584 2669 2484 
Q 3125 2378 3379 2068 
Q 3634 1759 3634 1313 
Q 3634 634 3220 271 
Q 2806 -91 2034 -91 
Q 1263 -91 848 271 
Q 434 634 434 1313 
Q 434 1759 690 2068 
Q 947 2378 1403 2484 
z
M 1172 3481 
Q 1172 3119 1398 2916 
Q 1625 2713 2034 2713 
Q 2441 2713 2670 2916 
Q 2900 3119 2900 3481 
Q 2900 3844 2670 4047 
Q 2441 4250 2034 4250 
Q 1625 4250 1398 4047 
Q 1172 3844 1172 3481 
z
" id="DejaVuSans-38" transform="scale(0.015625)"/>
       </defs>
       <use xlink:href="#DejaVuSans-30"/>
       <use x="63.623047" xlink:href="#DejaVuSans-2e"/>
       <use x="95.410156" xlink:href="#DejaVuSans-38"/>
      </g>
     </g>
    </g>
    <g id="xtick_6">
     <g id="line2d_6">
      <g>
       <use style="stroke:#000000;stroke-width:0.8;" x="414.72" xlink:href="#mbff2a7443f" y="307.584"/>
      </g>
     </g>
     <g id="text_6">
      <!-- 1.0 -->
      <g transform="translate(406.768438 322.182437)scale(0.1 -0.1)">
       <defs>
        <path d="M 794 531 
L 1825 531 
L 1825 4091 
L 703 3866 
L 703 4441 
L 1819 4666 
L 2450 4666 
L 2450 531 
L 3481 531 
L 3481 0 
L 794 0 
L 794 531 
z
" id="DejaVuSans-31" transform="scale(0.015625)"/>
       </defs>
       <use xlink:href="#DejaVuSans-31"/>
       <use x="63.623047" xlink:href="#DejaVuSans-2e"/>
       <use x="95.410156" xlink:href="#DejaVuSans-30"/>
      </g>
     </g>
    </g>
    <g id="text_7">
     <!-- Recall -->
     <g transform="translate(221.242812 335.860562)scale(0.1 -0.1)">
      <defs>
       <path d="M 2841 2188 
Q 3044 2119 3236 1894 
Q 3428 1669 3622 1275 
L 4263 0 
L 3584 0 
L 2988 1197 
Q 2756 1666 2539 1819 
Q 2322 1972 1947 1972 
L 1259 1972 
L 1259 0 
L 628 0 
L 628 4666 
L 2053 4666 
Q 2853 4666 3247 4331 
Q 3641 3997 3641 3322 
Q 3641 2881 3436 2590 
Q 3231 2300 2841 2188 
z
M 1259 4147 
L 1259 2491 
L 2053 2491 
Q 2509 2491 2742 2702 
Q 2975 2913 2975 3322 
Q 2975 3731 2742 3939 
Q 2509 4147 2053 4147 
L 1259 4147 
z
" id="DejaVuSans-52" transform="scale(0.015625)"/>
       <path d="M 3597 1894 
L 3597 1613 
L 953 1613 
Q 991 1019 1311 708 
Q 1631 397 2203 397 
Q 2534 397 2845 478 
Q 3156 559 3463 722 
L 3463 178 
Q 3153 47 2828 -22 
Q 2503 -91 2169 -91 
Q 1331 -91 842 396 
Q 353 884 353 1716 
Q 353 2575 817 3079 
Q 1281 3584 2069 3584 
Q 2775 3584 3186 3129 
Q 3597 2675 3597 1894 
z
M 3022 2063 
Q 3016 2534 2758 2815 
Q 2500 3097 2075 3097 
Q 1594 3097 1305 2825 
Q 1016 2553 972 2059 
L 3022 2063 
z
" id="DejaVuSans-65" transform="scale(0.015625)"/>
       <path d="M 3122 3366 
L 3122 2828 
Q 2878 2963 2633 3030 
Q 2388 3097 2138 3097 
Q 1578 3097 1268 2742 
Q 959 2388 959 1747 
Q 959 1106 1268 751 
Q 1578 397 2138 397 
Q 2388 397 2633 464 
Q 2878 531 3122 666 
L 3122 134 
Q 2881 22 2623 -34 
Q 2366 -91 2075 -91 
Q 1284 -91 818 406 
Q 353 903 353 1747 
Q 353 2603 823 3093 
Q 1294 3584 2113 3584 
Q 2378 3584 2631 3529 
Q 2884 3475 3122 3366 
z
" id="DejaVuSans-63" transform="scale(0.015625)"/>
       <path d="M 2194 1759 
Q 1497 1759 1228 1600 
Q 959 1441 959 1056 
Q 959 750 1161 570 
Q 1363 391 1709 391 
Q 2188 391 2477 730 
Q 2766 1069 2766 1631 
L 2766 1759 
L 2194 1759 
z
M 3341 1997 
L 3341 0 
L 2766 0 
L 2766 531 
Q 2569 213 2275 61 
Q 1981 -91 1556 -91 
Q 1019 -91 701 211 
Q 384 513 384 1019 
Q 384 1609 779 1909 
Q 1175 2209 1959 2209 
L 2766 2209 
L 2766 2266 
Q 2766 2663 2505 2880 
Q 2244 3097 1772 3097 
Q 1472 3097 1187 3025 
Q 903 2953 641 2809 
L 641 3341 
Q 956 3463 1253 3523 
Q 1550 3584 1831 3584 
Q 2591 3584 2966 3190 
Q 3341 2797 3341 1997 
z
" id="DejaVuSans-61" transform="scale(0.015625)"/>
       <path d="M 603 4863 
L 1178 4863 
L 1178 0 
L 603 0 
L 603 4863 
z
" id="DejaVuSans-6c" transform="scale(0.015625)"/>
      </defs>
      <use xlink:href="#DejaVuSans-52"/>
      <use x="64.982422" xlink:href="#DejaVuSans-65"/>
      <use x="126.505859" xlink:href="#DejaVuSans-63"/>
      <use x="181.486328" xlink:href="#DejaVuSans-61"/>
      <use x="242.765625" xlink:href="#DejaVuSans-6c"/>
      <use x="270.548828" xlink:href="#DejaVuSans-6c"/>
     </g>
    </g>
   </g>
   <g id="matplotlib.axis_2">
    <g id="ytick_1">
     <g id="line2d_7">
      <defs>
       <path d="M 0 0 
L -3.5 0 
" id="m6e5ac02a05" style="stroke:#000000;stroke-width:0.8;"/>
      </defs>
      <g>
       <use style="stroke:#000000;stroke-width:0.8;" x="57.6" xlink:href="#m6e5ac02a05" y="307.584"/>
      </g>
     </g>
     <g id="text_8">
      <!-- 0.0 -->
      <g transform="translate(34.696875 311.383219)scale(0.1 -0.1)">
       <use xlink:href="#DejaVuSans-30"/>
       <use x="63.623047" xlink:href="#DejaVuSans-2e"/>
       <use x="95.410156" xlink:href="#DejaVuSans-30"/>
      </g>
     </g>
    </g>
    <g id="ytick_2">
     <g id="line2d_8">
      <g>
       <use style="stroke:#000000;stroke-width:0.8;" x="57.6" xlink:href="#m6e5ac02a05" y="256.896"/>
      </g>
     </g>
     <g id="text_9">
      <!-- 0.2 -->
      <g transform="translate(34.696875 260.695219)scale(0.1 -0.1)">
       <use xlink:href="#DejaVuSans-30"/>
       <use x="63.623047" xlink:href="#DejaVuSans-2e"/>
       <use x="95.410156" xlink:href="#DejaVuSans-32"/>
      </g>
     </g>
    </g>
    <g id="ytick_3">
     <g id="line2d_9">
      <g>
       <use style="stroke:#000000;stroke-width:0.8;" x="57.6" xlink:href="#m6e5ac02a05" y="206.208"/>
      </g>
     </g>
     <g id="text_10">
      <!-- 0.4 -->
      <g transform="translate(34.696875 210.007219)scale(0.1 -0.1)">
       <use xlink:href="#DejaVuSans-30"/>
       <use x="63.623047" xlink:href="#DejaVuSans-2e"/>
       <use x="95.410156" xlink:href="#DejaVuSans-34"/>
      </g>
     </g>
    </g>
    <g id="ytick_4">
     <g id="line2d_10">
      <g>
       <use style="stroke:#000000;stroke-width:0.8;" x="57.6" xlink:href="#m6e5ac02a05" y="155.52"/>
      </g>
     </g>
     <g id="text_11">
      <!-- 0.6 -->
      <g transform="translate(34.696875 159.319219)scale(0.1 -0.1)">
       <use xlink:href="#DejaVuSans-30"/>
       <use x="63.623047" xlink:href="#DejaVuSans-2e"/>
       <use x="95.410156" xlink:href="#DejaVuSans-36"/>
      </g>
     </g>
    </g>
    <g id="ytick_5">
     <g id="line2d_11">
      <g>
       <use style="stroke:#000000;stroke-width:0.8;" x="57.6" xlink:href="#m6e5ac02a05" y="104.832"/>
      </g>
     </g>
     <g id="text_12">
      <!-- 0.8 -->
      <g transform="translate(34.696875 108.631219)scale(0.1 -0.1)">
       <use xlink:href="#DejaVuSans-30"/>
       <use x="63.623047" xlink:href="#DejaVuSans-2e"/>
       <use x="95.410156" xlink:href="#DejaVuSans-38"/>
      </g>
     </g>
    </g>
    <g id="ytick_6">
     <g id="line2d_12">
      <g>
       <use style="stroke:#000000;stroke-width:0.8;" x="57.6" xlink:href="#m6e5ac02a05" y="54.144"/>
      </g>
     </g>
     <g id="text_13">
      <!-- 1.0 -->
      <g transform="translate(34.696875 57.943219)scale(0.1 -0.1)">
       <use xlink:href="#DejaVuSans-31"/>
       <use x="63.623047" xlink:href="#DejaVuSans-2e"/>
       <use x="95.410156" xlink:href="#DejaVuSans-30"/>
      </g>
     </g>
    </g>
    <g id="text_14">
     <!-- Precision -->
     <g transform="translate(28.617187 196.835031)rotate(-90)scale(0.1 -0.1)">
      <defs>
       <path d="M 1259 4147 
L 1259 2394 
L 2053 2394 
Q 2494 2394 2734 2622 
Q 2975 2850 2975 3272 
Q 2975 3691 2734 3919 
Q 2494 4147 2053 4147 
L 1259 4147 
z
M 628 4666 
L 2053 4666 
Q 2838 4666 3239 4311 
Q 3641 3956 3641 3272 
Q 3641 2581 3239 2228 
Q 2838 1875 2053 1875 
L 1259 1875 
L 1259 0 
L 628 0 
L 628 4666 
z
" id="DejaVuSans-50" transform="scale(0.015625)"/>
       <path d="M 2631 2963 
Q 2534 3019 2420 3045 
Q 2306 3072 2169 3072 
Q 1681 3072 1420 2755 
Q 1159 2438 1159 1844 
L 1159 0 
L 581 0 
L 581 3500 
L 1159 3500 
L 1159 2956 
Q 1341 3275 1631 3429 
Q 1922 3584 2338 3584 
Q 2397 3584 2469 3576 
Q 2541 3569 2628 3553 
L 2631 2963 
z
" id="DejaVuSans-72" transform="scale(0.015625)"/>
       <path d="M 603 3500 
L 1178 3500 
L 1178 0 
L 603 0 
L 603 3500 
z
M 603 4863 
L 1178 4863 
L 1178 4134 
L 603 4134 
L 603 4863 
z
" id="DejaVuSans-69" transform="scale(0.015625)"/>
       <path d="M 2834 3397 
L 2834 2853 
Q 2591 2978 2328 3040 
Q 2066 3103 1784 3103 
Q 1356 3103 1142 2972 
Q 928 2841 928 2578 
Q 928 2378 1081 2264 
Q 1234 2150 1697 2047 
L 1894 2003 
Q 2506 1872 2764 1633 
Q 3022 1394 3022 966 
Q 3022 478 2636 193 
Q 2250 -91 1575 -91 
Q 1294 -91 989 -36 
Q 684 19 347 128 
L 347 722 
Q 666 556 975 473 
Q 1284 391 1588 391 
Q 1994 391 2212 530 
Q 2431 669 2431 922 
Q 2431 1156 2273 1281 
Q 2116 1406 1581 1522 
L 1381 1569 
Q 847 1681 609 1914 
Q 372 2147 372 2553 
Q 372 3047 722 3315 
Q 1072 3584 1716 3584 
Q 2034 3584 2315 3537 
Q 2597 3491 2834 3397 
z
" id="DejaVuSans-73" transform="scale(0.015625)"/>
       <path d="M 1959 3097 
Q 1497 3097 1228 2736 
Q 959 2375 959 1747 
Q 959 1119 1226 758 
Q 1494 397 1959 397 
Q 2419 397 2687 759 
Q 2956 1122 2956 1747 
Q 2956 2369 2687 2733 
Q 2419 3097 1959 3097 
z
M 1959 3584 
Q 2709 3584 3137 3096 
Q 3566 2609 3566 1747 
Q 3566 888 3137 398 
Q 2709 -91 1959 -91 
Q 1206 -91 779 398 
Q 353 888 353 1747 
Q 353 2609 779 3096 
Q 1206 3584 1959 3584 
z
" id="DejaVuSans-6f" transform="scale(0.015625)"/>
       <path d="M 3513 2113 
L 3513 0 
L 2938 0 
L 2938 2094 
Q 2938 2591 2744 2837 
Q 2550 3084 2163 3084 
Q 1697 3084 1428 2787 
Q 1159 2491 1159 1978 
L 1159 0 
L 581 0 
L 581 3500 
L 1159 3500 
L 1159 2956 
Q 1366 3272 1645 3428 
Q 1925 3584 2291 3584 
Q 2894 3584 3203 3211 
Q 3513 2838 3513 2113 
z
" id="DejaVuSans-6e" transform="scale(0.015625)"/>
      </defs>
      <use xlink:href="#DejaVuSans-50"/>
      <use x="58.552734" xlink:href="#DejaVuSans-72"/>
      <use x="97.416016" xlink:href="#DejaVuSans-65"/>
      <use x="158.939453" xlink:href="#DejaVuSans-63"/>
      <use x="213.919922" xlink:href="#DejaVuSans-69"/>
      <use x="241.703125" xlink:href="#DejaVuSans-73"/>
      <use x="293.802734" xlink:href="#DejaVuSans-69"/>
      <use x="321.585938" xlink:href="#DejaVuSans-6f"/>
      <use x="382.767578" xlink:href="#DejaVuSans-6e"/>
     </g>
    </g>
   </g>
   <g id="line2d_13">
    <path clip-path="url(#p0ef1824eae)" d="M 414.72 167.383149 
L 414.303776 167.456206 
L 414.303776 167.365743 
L 414.303776 117.725538 
L 413.887552 117.781165 
L 413.887552 101.558701 
L 413.471329 101.603772 
L 413.471329 94.933166 
L 413.055105 94.973234 
L 413.055105 89.839775 
L 412.638881 89.875722 
L 412.638881 88.995203 
L 412.222657 89.030478 
L 412.222657 86.569793 
L 411.806434 86.603016 
L 411.806434 84.546316 
L 411.39021 84.577789 
L 411.39021 82.480552 
L 410.973986 82.510192 
L 410.973986 79.165146 
L 410.557762 79.191736 
L 410.557762 78.705278 
L 410.141538 78.731463 
L 410.141538 78.487223 
L 409.725315 78.513231 
L 409.725315 77.530094 
L 409.309091 77.555214 
L 409.309091 77.307871 
L 408.476643 77.357793 
L 408.476643 75.607974 
L 408.06042 75.631304 
L 408.06042 75.378908 
L 407.644196 75.402039 
L 407.644196 74.640787 
L 407.227972 74.663212 
L 407.227972 74.408096 
L 406.395524 74.452584 
L 406.395524 74.196396 
L 405.979301 74.218455 
L 405.979301 73.445722 
L 405.563077 73.46705 
L 405.563077 72.68839 
L 405.146853 72.708972 
L 405.146853 71.661592 
L 404.730629 71.681143 
L 404.730629 70.623283 
L 404.314406 70.641778 
L 404.314406 69.841297 
L 403.898182 69.858994 
L 403.898182 69.321763 
L 403.481958 69.338932 
L 403.481958 69.069119 
L 403.065734 69.086041 
L 403.065734 68.815328 
L 401.817063 68.865458 
L 401.817063 68.320438 
L 401.400839 68.33664 
L 401.400839 67.513541 
L 400.152168 67.559696 
L 400.152168 67.283171 
L 399.31972 67.313515 
L 399.31972 67.035746 
L 398.903497 67.050667 
L 398.903497 66.771949 
L 398.487273 66.786599 
L 398.487273 66.506927 
L 398.071049 66.521302 
L 398.071049 65.394841 
L 395.98993 65.460945 
L 395.98993 63.741728 
L 394.741259 63.775924 
L 394.741259 63.486021 
L 393.908811 63.508291 
L 393.908811 63.217031 
L 393.492587 63.227871 
L 393.492587 62.935579 
L 390.579021 63.009814 
L 390.579021 62.714435 
L 390.162797 62.724798 
L 390.162797 61.534717 
L 388.914126 61.561756 
L 388.914126 61.261363 
L 388.497902 61.270064 
L 388.497902 60.666353 
L 384.335664 60.747275 
L 384.335664 60.133254 
L 383.919441 60.140712 
L 383.919441 59.83218 
L 382.670769 59.853537 
L 382.670769 59.23188 
L 382.254545 59.238271 
L 382.254545 58.298754 
L 379.757203 58.330429 
L 379.757203 58.013313 
L 379.340979 58.018242 
L 379.340979 57.380782 
L 376.843636 57.405776 
L 376.843636 57.083381 
L 376.011189 57.090977 
L 376.011189 56.766924 
L 370.60028 56.811789 
L 370.60028 56.481391 
L 368.935385 56.493775 
L 368.935385 56.160764 
L 366.854266 56.174227 
L 366.854266 55.838118 
L 366.438042 55.840386 
L 366.438042 55.502928 
L 362.692028 55.519522 
L 362.692028 55.177043 
L 361.85958 55.179858 
L 361.85958 54.835514 
L 331.891469 54.910838 
L 331.891469 54.528 
L 328.561678 54.532712 
L 328.561678 54.144 
L 57.6 54.144 
L 57.6 54.144 
" style="fill:none;stroke:#5ed726;stroke-linecap:square;stroke-width:2;"/>
   </g>
   <g id="line2d_14">
    <path clip-path="url(#p0ef1824eae)" d="M 414.72 85.824 
L 413.719664 85.901838 
L 413.719664 75.941792 
L 413.219496 75.96981 
L 413.219496 75.073239 
L 412.719328 75.100279 
L 412.719328 72.978524 
L 412.21916 73.003112 
L 412.21916 72.696471 
L 411.718992 72.720754 
L 411.718992 71.173565 
L 411.218824 71.196032 
L 411.218824 68.992682 
L 410.718655 69.01248 
L 410.718655 67.411329 
L 410.218487 67.429161 
L 410.218487 66.131027 
L 409.718319 66.147248 
L 409.718319 65.820098 
L 409.218151 65.83594 
L 409.218151 65.507478 
L 408.217815 65.538441 
L 408.217815 64.545094 
L 407.717647 64.559342 
L 407.717647 62.206407 
L 406.717311 62.228771 
L 406.717311 60.859983 
L 406.217143 60.869363 
L 406.217143 60.178286 
L 404.716639 60.203747 
L 404.716639 59.855324 
L 403.716303 59.871458 
L 403.716303 59.521086 
L 402.215798 59.544 
L 402.215798 58.482488 
L 401.71563 58.488686 
L 401.71563 57.416539 
L 401.215462 57.421241 
L 401.215462 57.061295 
L 398.714622 57.082435 
L 398.714622 56.718862 
L 394.213109 56.752941 
L 394.213109 56.383529 
L 392.212437 56.3968 
L 392.212437 56.024119 
L 390.711933 56.032525 
L 390.711933 55.657075 
L 386.710588 55.67536 
L 386.710588 55.294257 
L 375.706891 55.333859 
L 375.706891 54.938483 
L 355.2 54.993045 
L 355.2 54.569235 
L 249.16437 54.804 
L 249.16437 54.144 
L 57.6 54.144 
L 57.6 54.144 
" style="fill:none;stroke:#35d644;stroke-linecap:square;stroke-width:2;"/>
   </g>
   <g id="line2d_15">
    <path clip-path="url(#p0ef1824eae)" d="M 414.72 76.724426 
L 414.198657 76.754493 
L 414.198657 75.207378 
L 413.677314 75.235651 
L 413.677314 71.753591 
L 413.155971 71.777615 
L 413.155971 70.808548 
L 412.113285 70.85433 
L 412.113285 70.528704 
L 410.549255 70.596597 
L 410.549255 69.28 
L 410.027912 69.301051 
L 410.027912 68.636385 
L 407.94254 68.717689 
L 407.94254 68.382202 
L 407.421197 68.402228 
L 407.421197 66.024 
L 406.378511 66.057846 
L 406.378511 64.673742 
L 404.814482 64.719194 
L 404.814482 63.666312 
L 403.771796 63.693913 
L 403.771796 63.339936 
L 403.250453 63.353302 
L 403.250453 61.925053 
L 402.729109 61.936445 
L 402.729109 61.576258 
L 400.122394 61.631149 
L 400.122394 60.169319 
L 399.601051 60.178286 
L 399.601051 59.809574 
L 398.558365 59.826511 
L 398.558365 59.455617 
L 396.472993 59.487614 
L 396.472993 59.113412 
L 393.866277 59.151173 
L 393.866277 58.773041 
L 392.823591 58.787176 
L 392.823591 58.406752 
L 392.302248 58.41328 
L 392.302248 57.647779 
L 389.695533 57.674898 
L 389.695533 57.287442 
L 388.131504 57.302131 
L 388.131504 56.52 
L 387.610161 56.523718 
L 387.610161 56.130207 
L 387.088818 56.133325 
L 387.088818 55.737962 
L 386.567474 55.740472 
L 386.567474 55.343243 
L 385.524788 55.347038 
L 385.524788 54.947296 
L 375.61927 54.972235 
L 375.61927 54.558795 
L 367.277781 54.56995 
L 367.277781 54.144 
L 57.6 54.144 
L 57.6 54.144 
" style="fill:none;stroke:#dd5bdc;stroke-linecap:square;stroke-width:2;"/>
   </g>
   <g id="line2d_16">
    <path clip-path="url(#p0ef1824eae)" d="M 414.72 159.124597 
L 414.561772 159.15185 
L 414.561772 159.074743 
L 414.561772 105.548438 
L 414.403545 105.566609 
L 414.403545 105.495174 
L 414.403545 98.240703 
L 414.245317 98.256862 
L 414.245317 98.180129 
L 414.245317 98.026494 
L 414.087089 98.042598 
L 414.087089 97.965674 
L 414.087089 91.541503 
L 413.928861 91.555658 
L 413.928861 91.47386 
L 413.928861 84.896961 
L 413.770634 84.908965 
L 413.770634 84.822016 
L 413.770634 84.560763 
L 413.612406 84.572659 
L 413.612406 84.485408 
L 413.612406 81.835781 
L 413.454178 81.846749 
L 413.454178 81.757312 
L 413.454178 81.219203 
L 413.137723 81.240725 
L 413.137723 81.150728 
L 413.137723 80.065151 
L 412.663039 80.005224 
L 412.663039 79.91412 
L 412.504812 79.924441 
L 412.504812 79.833231 
L 412.504812 78.271406 
L 412.188356 78.290887 
L 412.188356 78.198281 
L 412.188356 76.42444 
L 412.030128 76.433511 
L 412.030128 76.339356 
L 412.030128 75.961968 
L 411.871901 75.970873 
L 411.871901 75.876299 
L 411.871901 75.212108 
L 411.713673 75.220739 
L 411.713673 75.125508 
L 411.713673 74.55248 
L 411.397218 74.473412 
L 411.397218 74.377481 
L 411.080762 74.394148 
L 411.080762 74.298067 
L 411.080762 73.332879 
L 410.764307 73.251738 
L 410.764307 73.057433 
L 410.606079 73.065277 
L 410.606079 72.967967 
L 410.606079 72.870575 
L 410.289623 72.788589 
L 410.289623 72.2016 
L 409.973168 72.118468 
L 409.973168 72.020194 
L 409.656712 71.936695 
L 409.656712 71.245358 
L 409.498485 71.252528 
L 409.498485 71.153396 
L 409.498485 70.954882 
L 409.340257 70.961942 
L 409.340257 70.862521 
L 409.340257 70.763016 
L 409.182029 70.770005 
L 409.182029 70.670378 
L 409.182029 70.370992 
L 408.707346 70.291443 
L 408.707346 70.091027 
L 408.549118 70.097764 
L 408.549118 69.99739 
L 408.549118 69.796386 
L 408.390891 69.80301 
L 408.390891 69.70234 
L 408.390891 69.500746 
L 408.232663 69.507256 
L 408.232663 69.40629 
L 408.232663 69.204102 
L 408.074435 69.210497 
L 408.074435 69.109234 
L 408.074435 69.007884 
L 407.916207 69.014204 
L 407.916207 68.912728 
L 407.916207 68.811166 
L 407.125069 68.740587 
L 407.125069 68.638648 
L 406.808613 68.651031 
L 406.808613 68.548923 
L 406.808613 68.344445 
L 406.650385 68.350521 
L 406.650385 68.24811 
L 406.650385 67.940348 
L 406.492158 67.946264 
L 406.492158 67.843459 
L 406.492158 67.121349 
L 406.017475 67.034483 
L 406.017475 66.514937 
L 405.859247 66.520283 
L 405.859247 66.416062 
L 405.859247 66.311751 
L 405.701019 66.317016 
L 405.701019 66.212571 
L 405.701019 65.688989 
L 405.384564 65.699015 
L 405.384564 65.593939 
L 405.384564 65.488772 
L 405.226336 65.493704 
L 405.226336 65.388402 
L 405.226336 65.283008 
L 404.435197 65.201592 
L 404.435197 64.989904 
L 404.276969 64.994642 
L 404.276969 64.888615 
L 404.276969 64.782496 
L 403.644058 64.694745 
L 403.644058 64.268249 
L 403.327603 64.277146 
L 403.327603 64.170198 
L 403.327603 63.956019 
L 402.220009 63.878781 
L 402.220009 63.555565 
L 401.903553 63.563894 
L 401.903553 63.455873 
L 401.903553 63.347756 
L 401.42887 63.251649 
L 401.42887 63.143201 
L 401.270642 63.147197 
L 401.270642 63.038607 
L 401.270642 62.92992 
L 400.954187 62.937737 
L 400.954187 62.82886 
L 400.954187 62.719886 
L 400.795959 62.723706 
L 400.795959 62.614588 
L 400.795959 62.177143 
L 400.163048 62.081718 
L 400.163048 61.971825 
L 399.530137 61.875682 
L 399.530137 61.544539 
L 399.37191 61.547865 
L 399.37191 61.437237 
L 399.37191 61.32651 
L 398.897226 61.336216 
L 398.897226 61.225244 
L 398.897226 60.891726 
L 398.738999 60.894772 
L 398.738999 60.671826 
L 398.422543 60.677731 
L 398.422543 60.454186 
L 398.264315 60.457043 
L 398.264315 60.345069 
L 397.314949 60.361974 
L 397.314949 60.2496 
L 396.840266 60.257937 
L 396.840266 60.145311 
L 396.207355 60.156263 
L 396.207355 60.043334 
L 396.049127 60.046027 
L 396.049127 59.932945 
L 394.783305 59.954179 
L 394.783305 59.840587 
L 394.308622 59.848437 
L 394.308622 59.734588 
L 393.833939 59.742306 
L 393.833939 59.628199 
L 393.675711 59.630725 
L 393.675711 59.173036 
L 393.517483 59.175357 
L 393.517483 59.060619 
L 393.359256 59.062891 
L 393.359256 58.947994 
L 393.0428 58.952441 
L 393.0428 58.837333 
L 392.093434 58.850407 
L 392.093434 58.734878 
L 391.935206 58.737011 
L 391.935206 58.621322 
L 391.460523 58.627575 
L 391.460523 58.51162 
L 391.144067 58.515692 
L 391.144067 58.283244 
L 390.98584 58.285176 
L 390.98584 58.168736 
L 390.352929 58.17627 
L 390.352929 58.059506 
L 390.194701 58.06134 
L 390.194701 57.944412 
L 389.720018 57.949763 
L 389.720018 57.832563 
L 388.295968 57.848215 
L 388.295968 57.612504 
L 388.13774 57.614142 
L 388.13774 57.496064 
L 387.979513 57.497648 
L 387.979513 57.379404 
L 386.871918 57.390148 
L 386.871918 57.152547 
L 386.555463 57.155407 
L 386.555463 57.036325 
L 386.397235 57.037701 
L 386.397235 56.91845 
L 386.08078 56.921094 
L 386.08078 56.801617 
L 384.340275 56.815624 
L 384.340275 56.695409 
L 384.182047 56.696633 
L 384.182047 56.576246 
L 383.865591 56.578582 
L 383.865591 56.457964 
L 383.707364 56.459077 
L 383.707364 56.338286 
L 382.441542 56.346762 
L 382.441542 56.225391 
L 381.808631 56.229421 
L 381.808631 56.1077 
L 380.701037 56.114379 
L 380.701037 55.992128 
L 377.852938 56.008443 
L 377.852938 55.761437 
L 376.587116 55.767815 
L 376.587116 55.643645 
L 375.004838 55.651076 
L 375.004838 55.526172 
L 374.688383 55.527543 
L 374.688383 55.277115 
L 372.78965 55.28391 
L 372.78965 55.031484 
L 371.840284 55.034156 
L 371.840284 54.907373 
L 366.460541 54.920629 
L 366.460541 54.791522 
L 354.751688 54.816969 
L 354.751688 54.682661 
L 347.314984 54.696458 
L 347.314984 54.558569 
L 343.675747 54.563834 
L 343.675747 54.424044 
L 327.694745 54.440594 
L 327.694745 54.292384 
L 218.992291 54.392227 
L 218.992291 54.144 
L 57.6 54.144 
L 57.6 54.144 
" style="fill:none;stroke:#ff1493;stroke-dasharray:4,6.6;stroke-dashoffset:0;stroke-width:4;"/>
   </g>
   <g id="line2d_17">
    <path clip-path="url(#p0ef1824eae)" d="M 57.6 307.584 
L 414.72 54.144 
" style="fill:none;stroke:#000000;stroke-dasharray:7.4,3.2;stroke-dashoffset:0;stroke-width:2;"/>
   </g>
   <g id="line2d_18">
    <path clip-path="url(#p0ef1824eae)" d="M 57.6 307.584 
L 414.72 54.144 
" style="fill:none;stroke:#000000;stroke-dasharray:7.4,3.2;stroke-dashoffset:0;stroke-width:2;"/>
   </g>
   <g id="patch_3">
    <path d="M 57.6 307.584 
L 57.6 41.472 
" style="fill:none;stroke:#000000;stroke-linecap:square;stroke-linejoin:miter;stroke-width:0.8;"/>
   </g>
   <g id="patch_4">
    <path d="M 414.72 307.584 
L 414.72 41.472 
" style="fill:none;stroke:#000000;stroke-linecap:square;stroke-linejoin:miter;stroke-width:0.8;"/>
   </g>
   <g id="patch_5">
    <path d="M 57.6 307.584 
L 414.72 307.584 
" style="fill:none;stroke:#000000;stroke-linecap:square;stroke-linejoin:miter;stroke-width:0.8;"/>
   </g>
   <g id="patch_6">
    <path d="M 57.6 41.472 
L 414.72 41.472 
" style="fill:none;stroke:#000000;stroke-linecap:square;stroke-linejoin:miter;stroke-width:0.8;"/>
   </g>
   <g id="text_15">
    <!-- PR Curves -->
    <g transform="translate(205.63875 35.472)scale(0.12 -0.12)">
     <defs>
      <path id="DejaVuSans-20" transform="scale(0.015625)"/>
      <path d="M 4122 4306 
L 4122 3641 
Q 3803 3938 3442 4084 
Q 3081 4231 2675 4231 
Q 1875 4231 1450 3742 
Q 1025 3253 1025 2328 
Q 1025 1406 1450 917 
Q 1875 428 2675 428 
Q 3081 428 3442 575 
Q 3803 722 4122 1019 
L 4122 359 
Q 3791 134 3420 21 
Q 3050 -91 2638 -91 
Q 1578 -91 968 557 
Q 359 1206 359 2328 
Q 359 3453 968 4101 
Q 1578 4750 2638 4750 
Q 3056 4750 3426 4639 
Q 3797 4528 4122 4306 
z
" id="DejaVuSans-43" transform="scale(0.015625)"/>
      <path d="M 544 1381 
L 544 3500 
L 1119 3500 
L 1119 1403 
Q 1119 906 1312 657 
Q 1506 409 1894 409 
Q 2359 409 2629 706 
Q 2900 1003 2900 1516 
L 2900 3500 
L 3475 3500 
L 3475 0 
L 2900 0 
L 2900 538 
Q 2691 219 2414 64 
Q 2138 -91 1772 -91 
Q 1169 -91 856 284 
Q 544 659 544 1381 
z
M 1991 3584 
L 1991 3584 
z
" id="DejaVuSans-75" transform="scale(0.015625)"/>
      <path d="M 191 3500 
L 800 3500 
L 1894 563 
L 2988 3500 
L 3597 3500 
L 2284 0 
L 1503 0 
L 191 3500 
z
" id="DejaVuSans-76" transform="scale(0.015625)"/>
     </defs>
     <use xlink:href="#DejaVuSans-50"/>
     <use x="60.302734" xlink:href="#DejaVuSans-52"/>
     <use x="129.785156" xlink:href="#DejaVuSans-20"/>
     <use x="161.572266" xlink:href="#DejaVuSans-43"/>
     <use x="231.396484" xlink:href="#DejaVuSans-75"/>
     <use x="294.775391" xlink:href="#DejaVuSans-72"/>
     <use x="335.888672" xlink:href="#DejaVuSans-76"/>
     <use x="395.068359" xlink:href="#DejaVuSans-65"/>
     <use x="456.591797" xlink:href="#DejaVuSans-73"/>
    </g>
   </g>
   <g id="legend_1">
    <g id="patch_7">
     <path d="M 64.6 302.584 
L 334.28125 302.584 
Q 336.28125 302.584 336.28125 300.584 
L 336.28125 242.8715 
Q 336.28125 240.8715 334.28125 240.8715 
L 64.6 240.8715 
Q 62.6 240.8715 62.6 242.8715 
L 62.6 300.584 
Q 62.6 302.584 64.6 302.584 
z
" style="fill:#ffffff;opacity:0.8;stroke:#cccccc;stroke-linejoin:miter;"/>
    </g>
    <g id="line2d_19">
     <path d="M 66.6 248.969937 
L 86.6 248.969937 
" style="fill:none;stroke:#5ed726;stroke-linecap:square;stroke-width:2;"/>
    </g>
    <g id="line2d_20"/>
    <g id="text_16">
     <!-- PR curve of Effector Memory CD8 (area = 0.99) -->
     <g transform="translate(94.6 252.469937)scale(0.1 -0.1)">
      <defs>
       <path d="M 2375 4863 
L 2375 4384 
L 1825 4384 
Q 1516 4384 1395 4259 
Q 1275 4134 1275 3809 
L 1275 3500 
L 2222 3500 
L 2222 3053 
L 1275 3053 
L 1275 0 
L 697 0 
L 697 3053 
L 147 3053 
L 147 3500 
L 697 3500 
L 697 3744 
Q 697 4328 969 4595 
Q 1241 4863 1831 4863 
L 2375 4863 
z
" id="DejaVuSans-66" transform="scale(0.015625)"/>
       <path d="M 628 4666 
L 3578 4666 
L 3578 4134 
L 1259 4134 
L 1259 2753 
L 3481 2753 
L 3481 2222 
L 1259 2222 
L 1259 531 
L 3634 531 
L 3634 0 
L 628 0 
L 628 4666 
z
" id="DejaVuSans-45" transform="scale(0.015625)"/>
       <path d="M 1172 4494 
L 1172 3500 
L 2356 3500 
L 2356 3053 
L 1172 3053 
L 1172 1153 
Q 1172 725 1289 603 
Q 1406 481 1766 481 
L 2356 481 
L 2356 0 
L 1766 0 
Q 1100 0 847 248 
Q 594 497 594 1153 
L 594 3053 
L 172 3053 
L 172 3500 
L 594 3500 
L 594 4494 
L 1172 4494 
z
" id="DejaVuSans-74" transform="scale(0.015625)"/>
       <path d="M 628 4666 
L 1569 4666 
L 2759 1491 
L 3956 4666 
L 4897 4666 
L 4897 0 
L 4281 0 
L 4281 4097 
L 3078 897 
L 2444 897 
L 1241 4097 
L 1241 0 
L 628 0 
L 628 4666 
z
" id="DejaVuSans-4d" transform="scale(0.015625)"/>
       <path d="M 3328 2828 
Q 3544 3216 3844 3400 
Q 4144 3584 4550 3584 
Q 5097 3584 5394 3201 
Q 5691 2819 5691 2113 
L 5691 0 
L 5113 0 
L 5113 2094 
Q 5113 2597 4934 2840 
Q 4756 3084 4391 3084 
Q 3944 3084 3684 2787 
Q 3425 2491 3425 1978 
L 3425 0 
L 2847 0 
L 2847 2094 
Q 2847 2600 2669 2842 
Q 2491 3084 2119 3084 
Q 1678 3084 1418 2786 
Q 1159 2488 1159 1978 
L 1159 0 
L 581 0 
L 581 3500 
L 1159 3500 
L 1159 2956 
Q 1356 3278 1631 3431 
Q 1906 3584 2284 3584 
Q 2666 3584 2933 3390 
Q 3200 3197 3328 2828 
z
" id="DejaVuSans-6d" transform="scale(0.015625)"/>
       <path d="M 2059 -325 
Q 1816 -950 1584 -1140 
Q 1353 -1331 966 -1331 
L 506 -1331 
L 506 -850 
L 844 -850 
Q 1081 -850 1212 -737 
Q 1344 -625 1503 -206 
L 1606 56 
L 191 3500 
L 800 3500 
L 1894 763 
L 2988 3500 
L 3597 3500 
L 2059 -325 
z
" id="DejaVuSans-79" transform="scale(0.015625)"/>
       <path d="M 1259 4147 
L 1259 519 
L 2022 519 
Q 2988 519 3436 956 
Q 3884 1394 3884 2338 
Q 3884 3275 3436 3711 
Q 2988 4147 2022 4147 
L 1259 4147 
z
M 628 4666 
L 1925 4666 
Q 3281 4666 3915 4102 
Q 4550 3538 4550 2338 
Q 4550 1131 3912 565 
Q 3275 0 1925 0 
L 628 0 
L 628 4666 
z
" id="DejaVuSans-44" transform="scale(0.015625)"/>
       <path d="M 1984 4856 
Q 1566 4138 1362 3434 
Q 1159 2731 1159 2009 
Q 1159 1288 1364 580 
Q 1569 -128 1984 -844 
L 1484 -844 
Q 1016 -109 783 600 
Q 550 1309 550 2009 
Q 550 2706 781 3412 
Q 1013 4119 1484 4856 
L 1984 4856 
z
" id="DejaVuSans-28" transform="scale(0.015625)"/>
       <path d="M 678 2906 
L 4684 2906 
L 4684 2381 
L 678 2381 
L 678 2906 
z
M 678 1631 
L 4684 1631 
L 4684 1100 
L 678 1100 
L 678 1631 
z
" id="DejaVuSans-3d" transform="scale(0.015625)"/>
       <path d="M 703 97 
L 703 672 
Q 941 559 1184 500 
Q 1428 441 1663 441 
Q 2288 441 2617 861 
Q 2947 1281 2994 2138 
Q 2813 1869 2534 1725 
Q 2256 1581 1919 1581 
Q 1219 1581 811 2004 
Q 403 2428 403 3163 
Q 403 3881 828 4315 
Q 1253 4750 1959 4750 
Q 2769 4750 3195 4129 
Q 3622 3509 3622 2328 
Q 3622 1225 3098 567 
Q 2575 -91 1691 -91 
Q 1453 -91 1209 -44 
Q 966 3 703 97 
z
M 1959 2075 
Q 2384 2075 2632 2365 
Q 2881 2656 2881 3163 
Q 2881 3666 2632 3958 
Q 2384 4250 1959 4250 
Q 1534 4250 1286 3958 
Q 1038 3666 1038 3163 
Q 1038 2656 1286 2365 
Q 1534 2075 1959 2075 
z
" id="DejaVuSans-39" transform="scale(0.015625)"/>
       <path d="M 513 4856 
L 1013 4856 
Q 1481 4119 1714 3412 
Q 1947 2706 1947 2009 
Q 1947 1309 1714 600 
Q 1481 -109 1013 -844 
L 513 -844 
Q 928 -128 1133 580 
Q 1338 1288 1338 2009 
Q 1338 2731 1133 3434 
Q 928 4138 513 4856 
z
" id="DejaVuSans-29" transform="scale(0.015625)"/>
      </defs>
      <use xlink:href="#DejaVuSans-50"/>
      <use x="60.302734" xlink:href="#DejaVuSans-52"/>
      <use x="129.785156" xlink:href="#DejaVuSans-20"/>
      <use x="161.572266" xlink:href="#DejaVuSans-63"/>
      <use x="216.552734" xlink:href="#DejaVuSans-75"/>
      <use x="279.931641" xlink:href="#DejaVuSans-72"/>
      <use x="321.044922" xlink:href="#DejaVuSans-76"/>
      <use x="380.224609" xlink:href="#DejaVuSans-65"/>
      <use x="441.748047" xlink:href="#DejaVuSans-20"/>
      <use x="473.535156" xlink:href="#DejaVuSans-6f"/>
      <use x="534.716797" xlink:href="#DejaVuSans-66"/>
      <use x="569.921875" xlink:href="#DejaVuSans-20"/>
      <use x="601.708984" xlink:href="#DejaVuSans-45"/>
      <use x="664.892578" xlink:href="#DejaVuSans-66"/>
      <use x="700.097656" xlink:href="#DejaVuSans-66"/>
      <use x="735.302734" xlink:href="#DejaVuSans-65"/>
      <use x="796.826172" xlink:href="#DejaVuSans-63"/>
      <use x="851.806641" xlink:href="#DejaVuSans-74"/>
      <use x="891.015625" xlink:href="#DejaVuSans-6f"/>
      <use x="952.197266" xlink:href="#DejaVuSans-72"/>
      <use x="993.310547" xlink:href="#DejaVuSans-20"/>
      <use x="1025.097656" xlink:href="#DejaVuSans-4d"/>
      <use x="1111.376953" xlink:href="#DejaVuSans-65"/>
      <use x="1172.900391" xlink:href="#DejaVuSans-6d"/>
      <use x="1270.3125" xlink:href="#DejaVuSans-6f"/>
      <use x="1331.494141" xlink:href="#DejaVuSans-72"/>
      <use x="1372.607422" xlink:href="#DejaVuSans-79"/>
      <use x="1431.787109" xlink:href="#DejaVuSans-20"/>
      <use x="1463.574219" xlink:href="#DejaVuSans-43"/>
      <use x="1533.398438" xlink:href="#DejaVuSans-44"/>
      <use x="1610.400391" xlink:href="#DejaVuSans-38"/>
      <use x="1674.023438" xlink:href="#DejaVuSans-20"/>
      <use x="1705.810547" xlink:href="#DejaVuSans-28"/>
      <use x="1744.824219" xlink:href="#DejaVuSans-61"/>
      <use x="1806.103516" xlink:href="#DejaVuSans-72"/>
      <use x="1844.966797" xlink:href="#DejaVuSans-65"/>
      <use x="1906.490234" xlink:href="#DejaVuSans-61"/>
      <use x="1967.769531" xlink:href="#DejaVuSans-20"/>
      <use x="1999.556641" xlink:href="#DejaVuSans-3d"/>
      <use x="2083.345703" xlink:href="#DejaVuSans-20"/>
      <use x="2115.132812" xlink:href="#DejaVuSans-30"/>
      <use x="2178.755859" xlink:href="#DejaVuSans-2e"/>
      <use x="2210.542969" xlink:href="#DejaVuSans-39"/>
      <use x="2274.166016" xlink:href="#DejaVuSans-39"/>
      <use x="2337.789062" xlink:href="#DejaVuSans-29"/>
     </g>
    </g>
    <g id="line2d_21">
     <path d="M 66.6 263.648062 
L 86.6 263.648062 
" style="fill:none;stroke:#35d644;stroke-linecap:square;stroke-width:2;"/>
    </g>
    <g id="line2d_22"/>
    <g id="text_17">
     <!-- PR curve of Naive CD8 (area = 1.00) -->
     <g transform="translate(94.6 267.148062)scale(0.1 -0.1)">
      <defs>
       <path d="M 628 4666 
L 1478 4666 
L 3547 763 
L 3547 4666 
L 4159 4666 
L 4159 0 
L 3309 0 
L 1241 3903 
L 1241 0 
L 628 0 
L 628 4666 
z
" id="DejaVuSans-4e" transform="scale(0.015625)"/>
      </defs>
      <use xlink:href="#DejaVuSans-50"/>
      <use x="60.302734" xlink:href="#DejaVuSans-52"/>
      <use x="129.785156" xlink:href="#DejaVuSans-20"/>
      <use x="161.572266" xlink:href="#DejaVuSans-63"/>
      <use x="216.552734" xlink:href="#DejaVuSans-75"/>
      <use x="279.931641" xlink:href="#DejaVuSans-72"/>
      <use x="321.044922" xlink:href="#DejaVuSans-76"/>
      <use x="380.224609" xlink:href="#DejaVuSans-65"/>
      <use x="441.748047" xlink:href="#DejaVuSans-20"/>
      <use x="473.535156" xlink:href="#DejaVuSans-6f"/>
      <use x="534.716797" xlink:href="#DejaVuSans-66"/>
      <use x="569.921875" xlink:href="#DejaVuSans-20"/>
      <use x="601.708984" xlink:href="#DejaVuSans-4e"/>
      <use x="676.513672" xlink:href="#DejaVuSans-61"/>
      <use x="737.792969" xlink:href="#DejaVuSans-69"/>
      <use x="765.576172" xlink:href="#DejaVuSans-76"/>
      <use x="824.755859" xlink:href="#DejaVuSans-65"/>
      <use x="886.279297" xlink:href="#DejaVuSans-20"/>
      <use x="918.066406" xlink:href="#DejaVuSans-43"/>
      <use x="987.890625" xlink:href="#DejaVuSans-44"/>
      <use x="1064.892578" xlink:href="#DejaVuSans-38"/>
      <use x="1128.515625" xlink:href="#DejaVuSans-20"/>
      <use x="1160.302734" xlink:href="#DejaVuSans-28"/>
      <use x="1199.316406" xlink:href="#DejaVuSans-61"/>
      <use x="1260.595703" xlink:href="#DejaVuSans-72"/>
      <use x="1299.458984" xlink:href="#DejaVuSans-65"/>
      <use x="1360.982422" xlink:href="#DejaVuSans-61"/>
      <use x="1422.261719" xlink:href="#DejaVuSans-20"/>
      <use x="1454.048828" xlink:href="#DejaVuSans-3d"/>
      <use x="1537.837891" xlink:href="#DejaVuSans-20"/>
      <use x="1569.625" xlink:href="#DejaVuSans-31"/>
      <use x="1633.248047" xlink:href="#DejaVuSans-2e"/>
      <use x="1665.035156" xlink:href="#DejaVuSans-30"/>
      <use x="1728.658203" xlink:href="#DejaVuSans-30"/>
      <use x="1792.28125" xlink:href="#DejaVuSans-29"/>
     </g>
    </g>
    <g id="line2d_23">
     <path d="M 66.6 278.326187 
L 86.6 278.326187 
" style="fill:none;stroke:#dd5bdc;stroke-linecap:square;stroke-width:2;"/>
    </g>
    <g id="line2d_24"/>
    <g id="text_18">
     <!-- PR curve of Temra CD8 (area = 1.00) -->
     <g transform="translate(94.6 281.826187)scale(0.1 -0.1)">
      <defs>
       <path d="M -19 4666 
L 3928 4666 
L 3928 4134 
L 2272 4134 
L 2272 0 
L 1638 0 
L 1638 4134 
L -19 4134 
L -19 4666 
z
" id="DejaVuSans-54" transform="scale(0.015625)"/>
      </defs>
      <use xlink:href="#DejaVuSans-50"/>
      <use x="60.302734" xlink:href="#DejaVuSans-52"/>
      <use x="129.785156" xlink:href="#DejaVuSans-20"/>
      <use x="161.572266" xlink:href="#DejaVuSans-63"/>
      <use x="216.552734" xlink:href="#DejaVuSans-75"/>
      <use x="279.931641" xlink:href="#DejaVuSans-72"/>
      <use x="321.044922" xlink:href="#DejaVuSans-76"/>
      <use x="380.224609" xlink:href="#DejaVuSans-65"/>
      <use x="441.748047" xlink:href="#DejaVuSans-20"/>
      <use x="473.535156" xlink:href="#DejaVuSans-6f"/>
      <use x="534.716797" xlink:href="#DejaVuSans-66"/>
      <use x="569.921875" xlink:href="#DejaVuSans-20"/>
      <use x="601.708984" xlink:href="#DejaVuSans-54"/>
      <use x="645.792969" xlink:href="#DejaVuSans-65"/>
      <use x="707.316406" xlink:href="#DejaVuSans-6d"/>
      <use x="804.728516" xlink:href="#DejaVuSans-72"/>
      <use x="845.841797" xlink:href="#DejaVuSans-61"/>
      <use x="907.121094" xlink:href="#DejaVuSans-20"/>
      <use x="938.908203" xlink:href="#DejaVuSans-43"/>
      <use x="1008.732422" xlink:href="#DejaVuSans-44"/>
      <use x="1085.734375" xlink:href="#DejaVuSans-38"/>
      <use x="1149.357422" xlink:href="#DejaVuSans-20"/>
      <use x="1181.144531" xlink:href="#DejaVuSans-28"/>
      <use x="1220.158203" xlink:href="#DejaVuSans-61"/>
      <use x="1281.4375" xlink:href="#DejaVuSans-72"/>
      <use x="1320.300781" xlink:href="#DejaVuSans-65"/>
      <use x="1381.824219" xlink:href="#DejaVuSans-61"/>
      <use x="1443.103516" xlink:href="#DejaVuSans-20"/>
      <use x="1474.890625" xlink:href="#DejaVuSans-3d"/>
      <use x="1558.679688" xlink:href="#DejaVuSans-20"/>
      <use x="1590.466797" xlink:href="#DejaVuSans-31"/>
      <use x="1654.089844" xlink:href="#DejaVuSans-2e"/>
      <use x="1685.876953" xlink:href="#DejaVuSans-30"/>
      <use x="1749.5" xlink:href="#DejaVuSans-30"/>
      <use x="1813.123047" xlink:href="#DejaVuSans-29"/>
     </g>
    </g>
    <g id="line2d_25">
     <path d="M 66.6 293.004312 
L 86.6 293.004312 
" style="fill:none;stroke:#ff1493;stroke-dasharray:4,6.6;stroke-dashoffset:0;stroke-width:4;"/>
    </g>
    <g id="line2d_26"/>
    <g id="text_19">
     <!-- micro-average PR curve (area = 1.00) -->
     <g transform="translate(94.6 296.504312)scale(0.1 -0.1)">
      <defs>
       <path d="M 313 2009 
L 1997 2009 
L 1997 1497 
L 313 1497 
L 313 2009 
z
" id="DejaVuSans-2d" transform="scale(0.015625)"/>
       <path d="M 2906 1791 
Q 2906 2416 2648 2759 
Q 2391 3103 1925 3103 
Q 1463 3103 1205 2759 
Q 947 2416 947 1791 
Q 947 1169 1205 825 
Q 1463 481 1925 481 
Q 2391 481 2648 825 
Q 2906 1169 2906 1791 
z
M 3481 434 
Q 3481 -459 3084 -895 
Q 2688 -1331 1869 -1331 
Q 1566 -1331 1297 -1286 
Q 1028 -1241 775 -1147 
L 775 -588 
Q 1028 -725 1275 -790 
Q 1522 -856 1778 -856 
Q 2344 -856 2625 -561 
Q 2906 -266 2906 331 
L 2906 616 
Q 2728 306 2450 153 
Q 2172 0 1784 0 
Q 1141 0 747 490 
Q 353 981 353 1791 
Q 353 2603 747 3093 
Q 1141 3584 1784 3584 
Q 2172 3584 2450 3431 
Q 2728 3278 2906 2969 
L 2906 3500 
L 3481 3500 
L 3481 434 
z
" id="DejaVuSans-67" transform="scale(0.015625)"/>
      </defs>
      <use xlink:href="#DejaVuSans-6d"/>
      <use x="97.412109" xlink:href="#DejaVuSans-69"/>
      <use x="125.195312" xlink:href="#DejaVuSans-63"/>
      <use x="180.175781" xlink:href="#DejaVuSans-72"/>
      <use x="219.039062" xlink:href="#DejaVuSans-6f"/>
      <use x="282.095703" xlink:href="#DejaVuSans-2d"/>
      <use x="318.179688" xlink:href="#DejaVuSans-61"/>
      <use x="379.458984" xlink:href="#DejaVuSans-76"/>
      <use x="438.638672" xlink:href="#DejaVuSans-65"/>
      <use x="500.162109" xlink:href="#DejaVuSans-72"/>
      <use x="541.275391" xlink:href="#DejaVuSans-61"/>
      <use x="602.554688" xlink:href="#DejaVuSans-67"/>
      <use x="666.03125" xlink:href="#DejaVuSans-65"/>
      <use x="727.554688" xlink:href="#DejaVuSans-20"/>
      <use x="759.341797" xlink:href="#DejaVuSans-50"/>
      <use x="819.644531" xlink:href="#DejaVuSans-52"/>
      <use x="889.126953" xlink:href="#DejaVuSans-20"/>
      <use x="920.914062" xlink:href="#DejaVuSans-63"/>
      <use x="975.894531" xlink:href="#DejaVuSans-75"/>
      <use x="1039.273438" xlink:href="#DejaVuSans-72"/>
      <use x="1080.386719" xlink:href="#DejaVuSans-76"/>
      <use x="1139.566406" xlink:href="#DejaVuSans-65"/>
      <use x="1201.089844" xlink:href="#DejaVuSans-20"/>
      <use x="1232.876953" xlink:href="#DejaVuSans-28"/>
      <use x="1271.890625" xlink:href="#DejaVuSans-61"/>
      <use x="1333.169922" xlink:href="#DejaVuSans-72"/>
      <use x="1372.033203" xlink:href="#DejaVuSans-65"/>
      <use x="1433.556641" xlink:href="#DejaVuSans-61"/>
      <use x="1494.835938" xlink:href="#DejaVuSans-20"/>
      <use x="1526.623047" xlink:href="#DejaVuSans-3d"/>
      <use x="1610.412109" xlink:href="#DejaVuSans-20"/>
      <use x="1642.199219" xlink:href="#DejaVuSans-31"/>
      <use x="1705.822266" xlink:href="#DejaVuSans-2e"/>
      <use x="1737.609375" xlink:href="#DejaVuSans-30"/>
      <use x="1801.232422" xlink:href="#DejaVuSans-30"/>
      <use x="1864.855469" xlink:href="#DejaVuSans-29"/>
     </g>
    </g>
   </g>
  </g>
 </g>
 <defs>
  <clipPath id="p0ef1824eae">
   <rect height="266.112" width="357.12" x="57.6" y="41.472"/>
  </clipPath>
 </defs>
</svg>
