<?xml version="1.0" encoding="utf-8" standalone="no"?>
<!DOCTYPE svg PUBLIC "-//W3C//DTD SVG 1.1//EN"
  "http://www.w3.org/Graphics/SVG/1.1/DTD/svg11.dtd">
<svg height="345.6pt" version="1.1" viewBox="0 0 460.8 345.6" width="460.8pt" xmlns="http://www.w3.org/2000/svg" xmlns:xlink="http://www.w3.org/1999/xlink">
 <metadata>
  <rdf:RDF xmlns:cc="http://creativecommons.org/ns#" xmlns:dc="http://purl.org/dc/elements/1.1/" xmlns:rdf="http://www.w3.org/1999/02/22-rdf-syntax-ns#">
   <cc:Work>
    <dc:type rdf:resource="http://purl.org/dc/dcmitype/StillImage"/>
    <dc:date>2021-08-04T23:58:26.258665</dc:date>
    <dc:format>image/svg+xml</dc:format>
    <dc:creator>
     <cc:Agent>
      <dc:title>Matplotlib v3.4.2, https://matplotlib.org/</dc:title>
     </cc:Agent>
    </dc:creator>
   </cc:Work>
  </rdf:RDF>
 </metadata>
 <defs>
  <style type="text/css">*{stroke-linecap:butt;stroke-linejoin:round;}</style>
 </defs>
 <g id="figure_1">
  <g id="patch_1">
   <path d="M 0 345.6 
L 460.8 345.6 
L 460.8 0 
L 0 0 
z
" style="fill:#ffffff;"/>
  </g>
  <g id="axes_1">
   <g id="patch_2">
    <path d="M 57.6 307.584 
L 414.72 307.584 
L 414.72 41.472 
L 57.6 41.472 
z
" style="fill:#ffffff;"/>
   </g>
   <g id="matplotlib.axis_1">
    <g id="xtick_1">
     <g id="line2d_1">
      <defs>
       <path d="M 0 0 
L 0 3.5 
" id="mc195be5c6c" style="stroke:#000000;stroke-width:0.8;"/>
      </defs>
      <g>
       <use style="stroke:#000000;stroke-width:0.8;" x="57.6" xlink:href="#mc195be5c6c" y="307.584"/>
      </g>
     </g>
     <g id="text_1">
      <!-- 0.0 -->
      <g transform="translate(49.648438 322.182437)scale(0.1 -0.1)">
       <defs>
        <path d="M 2034 4250 
Q 1547 4250 1301 3770 
Q 1056 3291 1056 2328 
Q 1056 1369 1301 889 
Q 1547 409 2034 409 
Q 2525 409 2770 889 
Q 3016 1369 3016 2328 
Q 3016 3291 2770 3770 
Q 2525 4250 2034 4250 
z
M 2034 4750 
Q 2819 4750 3233 4129 
Q 3647 3509 3647 2328 
Q 3647 1150 3233 529 
Q 2819 -91 2034 -91 
Q 1250 -91 836 529 
Q 422 1150 422 2328 
Q 422 3509 836 4129 
Q 1250 4750 2034 4750 
z
" id="DejaVuSans-30" transform="scale(0.015625)"/>
        <path d="M 684 794 
L 1344 794 
L 1344 0 
L 684 0 
L 684 794 
z
" id="DejaVuSans-2e" transform="scale(0.015625)"/>
       </defs>
       <use xlink:href="#DejaVuSans-30"/>
       <use x="63.623047" xlink:href="#DejaVuSans-2e"/>
       <use x="95.410156" xlink:href="#DejaVuSans-30"/>
      </g>
     </g>
    </g>
    <g id="xtick_2">
     <g id="line2d_2">
      <g>
       <use style="stroke:#000000;stroke-width:0.8;" x="129.024" xlink:href="#mc195be5c6c" y="307.584"/>
      </g>
     </g>
     <g id="text_2">
      <!-- 0.2 -->
      <g transform="translate(121.072438 322.182437)scale(0.1 -0.1)">
       <defs>
        <path d="M 1228 531 
L 3431 531 
L 3431 0 
L 469 0 
L 469 531 
Q 828 903 1448 1529 
Q 2069 2156 2228 2338 
Q 2531 2678 2651 2914 
Q 2772 3150 2772 3378 
Q 2772 3750 2511 3984 
Q 2250 4219 1831 4219 
Q 1534 4219 1204 4116 
Q 875 4013 500 3803 
L 500 4441 
Q 881 4594 1212 4672 
Q 1544 4750 1819 4750 
Q 2544 4750 2975 4387 
Q 3406 4025 3406 3419 
Q 3406 3131 3298 2873 
Q 3191 2616 2906 2266 
Q 2828 2175 2409 1742 
Q 1991 1309 1228 531 
z
" id="DejaVuSans-32" transform="scale(0.015625)"/>
       </defs>
       <use xlink:href="#DejaVuSans-30"/>
       <use x="63.623047" xlink:href="#DejaVuSans-2e"/>
       <use x="95.410156" xlink:href="#DejaVuSans-32"/>
      </g>
     </g>
    </g>
    <g id="xtick_3">
     <g id="line2d_3">
      <g>
       <use style="stroke:#000000;stroke-width:0.8;" x="200.448" xlink:href="#mc195be5c6c" y="307.584"/>
      </g>
     </g>
     <g id="text_3">
      <!-- 0.4 -->
      <g transform="translate(192.496438 322.182437)scale(0.1 -0.1)">
       <defs>
        <path d="M 2419 4116 
L 825 1625 
L 2419 1625 
L 2419 4116 
z
M 2253 4666 
L 3047 4666 
L 3047 1625 
L 3713 1625 
L 3713 1100 
L 3047 1100 
L 3047 0 
L 2419 0 
L 2419 1100 
L 313 1100 
L 313 1709 
L 2253 4666 
z
" id="DejaVuSans-34" transform="scale(0.015625)"/>
       </defs>
       <use xlink:href="#DejaVuSans-30"/>
       <use x="63.623047" xlink:href="#DejaVuSans-2e"/>
       <use x="95.410156" xlink:href="#DejaVuSans-34"/>
      </g>
     </g>
    </g>
    <g id="xtick_4">
     <g id="line2d_4">
      <g>
       <use style="stroke:#000000;stroke-width:0.8;" x="271.872" xlink:href="#mc195be5c6c" y="307.584"/>
      </g>
     </g>
     <g id="text_4">
      <!-- 0.6 -->
      <g transform="translate(263.920438 322.182437)scale(0.1 -0.1)">
       <defs>
        <path d="M 2113 2584 
Q 1688 2584 1439 2293 
Q 1191 2003 1191 1497 
Q 1191 994 1439 701 
Q 1688 409 2113 409 
Q 2538 409 2786 701 
Q 3034 994 3034 1497 
Q 3034 2003 2786 2293 
Q 2538 2584 2113 2584 
z
M 3366 4563 
L 3366 3988 
Q 3128 4100 2886 4159 
Q 2644 4219 2406 4219 
Q 1781 4219 1451 3797 
Q 1122 3375 1075 2522 
Q 1259 2794 1537 2939 
Q 1816 3084 2150 3084 
Q 2853 3084 3261 2657 
Q 3669 2231 3669 1497 
Q 3669 778 3244 343 
Q 2819 -91 2113 -91 
Q 1303 -91 875 529 
Q 447 1150 447 2328 
Q 447 3434 972 4092 
Q 1497 4750 2381 4750 
Q 2619 4750 2861 4703 
Q 3103 4656 3366 4563 
z
" id="DejaVuSans-36" transform="scale(0.015625)"/>
       </defs>
       <use xlink:href="#DejaVuSans-30"/>
       <use x="63.623047" xlink:href="#DejaVuSans-2e"/>
       <use x="95.410156" xlink:href="#DejaVuSans-36"/>
      </g>
     </g>
    </g>
    <g id="xtick_5">
     <g id="line2d_5">
      <g>
       <use style="stroke:#000000;stroke-width:0.8;" x="343.296" xlink:href="#mc195be5c6c" y="307.584"/>
      </g>
     </g>
     <g id="text_5">
      <!-- 0.8 -->
      <g transform="translate(335.344438 322.182437)scale(0.1 -0.1)">
       <defs>
        <path d="M 2034 2216 
Q 1584 2216 1326 1975 
Q 1069 1734 1069 1313 
Q 1069 891 1326 650 
Q 1584 409 2034 409 
Q 2484 409 2743 651 
Q 3003 894 3003 1313 
Q 3003 1734 2745 1975 
Q 2488 2216 2034 2216 
z
M 1403 2484 
Q 997 2584 770 2862 
Q 544 3141 544 3541 
Q 544 4100 942 4425 
Q 1341 4750 2034 4750 
Q 2731 4750 3128 4425 
Q 3525 4100 3525 3541 
Q 3525 3141 3298 2862 
Q 3072 2584 2669 2484 
Q 3125 2378 3379 2068 
Q 3634 1759 3634 1313 
Q 3634 634 3220 271 
Q 2806 -91 2034 -91 
Q 1263 -91 848 271 
Q 434 634 434 1313 
Q 434 1759 690 2068 
Q 947 2378 1403 2484 
z
M 1172 3481 
Q 1172 3119 1398 2916 
Q 1625 2713 2034 2713 
Q 2441 2713 2670 2916 
Q 2900 3119 2900 3481 
Q 2900 3844 2670 4047 
Q 2441 4250 2034 4250 
Q 1625 4250 1398 4047 
Q 1172 3844 1172 3481 
z
" id="DejaVuSans-38" transform="scale(0.015625)"/>
       </defs>
       <use xlink:href="#DejaVuSans-30"/>
       <use x="63.623047" xlink:href="#DejaVuSans-2e"/>
       <use x="95.410156" xlink:href="#DejaVuSans-38"/>
      </g>
     </g>
    </g>
    <g id="xtick_6">
     <g id="line2d_6">
      <g>
       <use style="stroke:#000000;stroke-width:0.8;" x="414.72" xlink:href="#mc195be5c6c" y="307.584"/>
      </g>
     </g>
     <g id="text_6">
      <!-- 1.0 -->
      <g transform="translate(406.768438 322.182437)scale(0.1 -0.1)">
       <defs>
        <path d="M 794 531 
L 1825 531 
L 1825 4091 
L 703 3866 
L 703 4441 
L 1819 4666 
L 2450 4666 
L 2450 531 
L 3481 531 
L 3481 0 
L 794 0 
L 794 531 
z
" id="DejaVuSans-31" transform="scale(0.015625)"/>
       </defs>
       <use xlink:href="#DejaVuSans-31"/>
       <use x="63.623047" xlink:href="#DejaVuSans-2e"/>
       <use x="95.410156" xlink:href="#DejaVuSans-30"/>
      </g>
     </g>
    </g>
    <g id="text_7">
     <!-- Recall -->
     <g transform="translate(221.242812 335.860562)scale(0.1 -0.1)">
      <defs>
       <path d="M 2841 2188 
Q 3044 2119 3236 1894 
Q 3428 1669 3622 1275 
L 4263 0 
L 3584 0 
L 2988 1197 
Q 2756 1666 2539 1819 
Q 2322 1972 1947 1972 
L 1259 1972 
L 1259 0 
L 628 0 
L 628 4666 
L 2053 4666 
Q 2853 4666 3247 4331 
Q 3641 3997 3641 3322 
Q 3641 2881 3436 2590 
Q 3231 2300 2841 2188 
z
M 1259 4147 
L 1259 2491 
L 2053 2491 
Q 2509 2491 2742 2702 
Q 2975 2913 2975 3322 
Q 2975 3731 2742 3939 
Q 2509 4147 2053 4147 
L 1259 4147 
z
" id="DejaVuSans-52" transform="scale(0.015625)"/>
       <path d="M 3597 1894 
L 3597 1613 
L 953 1613 
Q 991 1019 1311 708 
Q 1631 397 2203 397 
Q 2534 397 2845 478 
Q 3156 559 3463 722 
L 3463 178 
Q 3153 47 2828 -22 
Q 2503 -91 2169 -91 
Q 1331 -91 842 396 
Q 353 884 353 1716 
Q 353 2575 817 3079 
Q 1281 3584 2069 3584 
Q 2775 3584 3186 3129 
Q 3597 2675 3597 1894 
z
M 3022 2063 
Q 3016 2534 2758 2815 
Q 2500 3097 2075 3097 
Q 1594 3097 1305 2825 
Q 1016 2553 972 2059 
L 3022 2063 
z
" id="DejaVuSans-65" transform="scale(0.015625)"/>
       <path d="M 3122 3366 
L 3122 2828 
Q 2878 2963 2633 3030 
Q 2388 3097 2138 3097 
Q 1578 3097 1268 2742 
Q 959 2388 959 1747 
Q 959 1106 1268 751 
Q 1578 397 2138 397 
Q 2388 397 2633 464 
Q 2878 531 3122 666 
L 3122 134 
Q 2881 22 2623 -34 
Q 2366 -91 2075 -91 
Q 1284 -91 818 406 
Q 353 903 353 1747 
Q 353 2603 823 3093 
Q 1294 3584 2113 3584 
Q 2378 3584 2631 3529 
Q 2884 3475 3122 3366 
z
" id="DejaVuSans-63" transform="scale(0.015625)"/>
       <path d="M 2194 1759 
Q 1497 1759 1228 1600 
Q 959 1441 959 1056 
Q 959 750 1161 570 
Q 1363 391 1709 391 
Q 2188 391 2477 730 
Q 2766 1069 2766 1631 
L 2766 1759 
L 2194 1759 
z
M 3341 1997 
L 3341 0 
L 2766 0 
L 2766 531 
Q 2569 213 2275 61 
Q 1981 -91 1556 -91 
Q 1019 -91 701 211 
Q 384 513 384 1019 
Q 384 1609 779 1909 
Q 1175 2209 1959 2209 
L 2766 2209 
L 2766 2266 
Q 2766 2663 2505 2880 
Q 2244 3097 1772 3097 
Q 1472 3097 1187 3025 
Q 903 2953 641 2809 
L 641 3341 
Q 956 3463 1253 3523 
Q 1550 3584 1831 3584 
Q 2591 3584 2966 3190 
Q 3341 2797 3341 1997 
z
" id="DejaVuSans-61" transform="scale(0.015625)"/>
       <path d="M 603 4863 
L 1178 4863 
L 1178 0 
L 603 0 
L 603 4863 
z
" id="DejaVuSans-6c" transform="scale(0.015625)"/>
      </defs>
      <use xlink:href="#DejaVuSans-52"/>
      <use x="64.982422" xlink:href="#DejaVuSans-65"/>
      <use x="126.505859" xlink:href="#DejaVuSans-63"/>
      <use x="181.486328" xlink:href="#DejaVuSans-61"/>
      <use x="242.765625" xlink:href="#DejaVuSans-6c"/>
      <use x="270.548828" xlink:href="#DejaVuSans-6c"/>
     </g>
    </g>
   </g>
   <g id="matplotlib.axis_2">
    <g id="ytick_1">
     <g id="line2d_7">
      <defs>
       <path d="M 0 0 
L -3.5 0 
" id="ma8bbeccb9e" style="stroke:#000000;stroke-width:0.8;"/>
      </defs>
      <g>
       <use style="stroke:#000000;stroke-width:0.8;" x="57.6" xlink:href="#ma8bbeccb9e" y="307.584"/>
      </g>
     </g>
     <g id="text_8">
      <!-- 0.0 -->
      <g transform="translate(34.696875 311.383219)scale(0.1 -0.1)">
       <use xlink:href="#DejaVuSans-30"/>
       <use x="63.623047" xlink:href="#DejaVuSans-2e"/>
       <use x="95.410156" xlink:href="#DejaVuSans-30"/>
      </g>
     </g>
    </g>
    <g id="ytick_2">
     <g id="line2d_8">
      <g>
       <use style="stroke:#000000;stroke-width:0.8;" x="57.6" xlink:href="#ma8bbeccb9e" y="256.896"/>
      </g>
     </g>
     <g id="text_9">
      <!-- 0.2 -->
      <g transform="translate(34.696875 260.695219)scale(0.1 -0.1)">
       <use xlink:href="#DejaVuSans-30"/>
       <use x="63.623047" xlink:href="#DejaVuSans-2e"/>
       <use x="95.410156" xlink:href="#DejaVuSans-32"/>
      </g>
     </g>
    </g>
    <g id="ytick_3">
     <g id="line2d_9">
      <g>
       <use style="stroke:#000000;stroke-width:0.8;" x="57.6" xlink:href="#ma8bbeccb9e" y="206.208"/>
      </g>
     </g>
     <g id="text_10">
      <!-- 0.4 -->
      <g transform="translate(34.696875 210.007219)scale(0.1 -0.1)">
       <use xlink:href="#DejaVuSans-30"/>
       <use x="63.623047" xlink:href="#DejaVuSans-2e"/>
       <use x="95.410156" xlink:href="#DejaVuSans-34"/>
      </g>
     </g>
    </g>
    <g id="ytick_4">
     <g id="line2d_10">
      <g>
       <use style="stroke:#000000;stroke-width:0.8;" x="57.6" xlink:href="#ma8bbeccb9e" y="155.52"/>
      </g>
     </g>
     <g id="text_11">
      <!-- 0.6 -->
      <g transform="translate(34.696875 159.319219)scale(0.1 -0.1)">
       <use xlink:href="#DejaVuSans-30"/>
       <use x="63.623047" xlink:href="#DejaVuSans-2e"/>
       <use x="95.410156" xlink:href="#DejaVuSans-36"/>
      </g>
     </g>
    </g>
    <g id="ytick_5">
     <g id="line2d_11">
      <g>
       <use style="stroke:#000000;stroke-width:0.8;" x="57.6" xlink:href="#ma8bbeccb9e" y="104.832"/>
      </g>
     </g>
     <g id="text_12">
      <!-- 0.8 -->
      <g transform="translate(34.696875 108.631219)scale(0.1 -0.1)">
       <use xlink:href="#DejaVuSans-30"/>
       <use x="63.623047" xlink:href="#DejaVuSans-2e"/>
       <use x="95.410156" xlink:href="#DejaVuSans-38"/>
      </g>
     </g>
    </g>
    <g id="ytick_6">
     <g id="line2d_12">
      <g>
       <use style="stroke:#000000;stroke-width:0.8;" x="57.6" xlink:href="#ma8bbeccb9e" y="54.144"/>
      </g>
     </g>
     <g id="text_13">
      <!-- 1.0 -->
      <g transform="translate(34.696875 57.943219)scale(0.1 -0.1)">
       <use xlink:href="#DejaVuSans-31"/>
       <use x="63.623047" xlink:href="#DejaVuSans-2e"/>
       <use x="95.410156" xlink:href="#DejaVuSans-30"/>
      </g>
     </g>
    </g>
    <g id="text_14">
     <!-- Precision -->
     <g transform="translate(28.617187 196.835031)rotate(-90)scale(0.1 -0.1)">
      <defs>
       <path d="M 1259 4147 
L 1259 2394 
L 2053 2394 
Q 2494 2394 2734 2622 
Q 2975 2850 2975 3272 
Q 2975 3691 2734 3919 
Q 2494 4147 2053 4147 
L 1259 4147 
z
M 628 4666 
L 2053 4666 
Q 2838 4666 3239 4311 
Q 3641 3956 3641 3272 
Q 3641 2581 3239 2228 
Q 2838 1875 2053 1875 
L 1259 1875 
L 1259 0 
L 628 0 
L 628 4666 
z
" id="DejaVuSans-50" transform="scale(0.015625)"/>
       <path d="M 2631 2963 
Q 2534 3019 2420 3045 
Q 2306 3072 2169 3072 
Q 1681 3072 1420 2755 
Q 1159 2438 1159 1844 
L 1159 0 
L 581 0 
L 581 3500 
L 1159 3500 
L 1159 2956 
Q 1341 3275 1631 3429 
Q 1922 3584 2338 3584 
Q 2397 3584 2469 3576 
Q 2541 3569 2628 3553 
L 2631 2963 
z
" id="DejaVuSans-72" transform="scale(0.015625)"/>
       <path d="M 603 3500 
L 1178 3500 
L 1178 0 
L 603 0 
L 603 3500 
z
M 603 4863 
L 1178 4863 
L 1178 4134 
L 603 4134 
L 603 4863 
z
" id="DejaVuSans-69" transform="scale(0.015625)"/>
       <path d="M 2834 3397 
L 2834 2853 
Q 2591 2978 2328 3040 
Q 2066 3103 1784 3103 
Q 1356 3103 1142 2972 
Q 928 2841 928 2578 
Q 928 2378 1081 2264 
Q 1234 2150 1697 2047 
L 1894 2003 
Q 2506 1872 2764 1633 
Q 3022 1394 3022 966 
Q 3022 478 2636 193 
Q 2250 -91 1575 -91 
Q 1294 -91 989 -36 
Q 684 19 347 128 
L 347 722 
Q 666 556 975 473 
Q 1284 391 1588 391 
Q 1994 391 2212 530 
Q 2431 669 2431 922 
Q 2431 1156 2273 1281 
Q 2116 1406 1581 1522 
L 1381 1569 
Q 847 1681 609 1914 
Q 372 2147 372 2553 
Q 372 3047 722 3315 
Q 1072 3584 1716 3584 
Q 2034 3584 2315 3537 
Q 2597 3491 2834 3397 
z
" id="DejaVuSans-73" transform="scale(0.015625)"/>
       <path d="M 1959 3097 
Q 1497 3097 1228 2736 
Q 959 2375 959 1747 
Q 959 1119 1226 758 
Q 1494 397 1959 397 
Q 2419 397 2687 759 
Q 2956 1122 2956 1747 
Q 2956 2369 2687 2733 
Q 2419 3097 1959 3097 
z
M 1959 3584 
Q 2709 3584 3137 3096 
Q 3566 2609 3566 1747 
Q 3566 888 3137 398 
Q 2709 -91 1959 -91 
Q 1206 -91 779 398 
Q 353 888 353 1747 
Q 353 2609 779 3096 
Q 1206 3584 1959 3584 
z
" id="DejaVuSans-6f" transform="scale(0.015625)"/>
       <path d="M 3513 2113 
L 3513 0 
L 2938 0 
L 2938 2094 
Q 2938 2591 2744 2837 
Q 2550 3084 2163 3084 
Q 1697 3084 1428 2787 
Q 1159 2491 1159 1978 
L 1159 0 
L 581 0 
L 581 3500 
L 1159 3500 
L 1159 2956 
Q 1366 3272 1645 3428 
Q 1925 3584 2291 3584 
Q 2894 3584 3203 3211 
Q 3513 2838 3513 2113 
z
" id="DejaVuSans-6e" transform="scale(0.015625)"/>
      </defs>
      <use xlink:href="#DejaVuSans-50"/>
      <use x="58.552734" xlink:href="#DejaVuSans-72"/>
      <use x="97.416016" xlink:href="#DejaVuSans-65"/>
      <use x="158.939453" xlink:href="#DejaVuSans-63"/>
      <use x="213.919922" xlink:href="#DejaVuSans-69"/>
      <use x="241.703125" xlink:href="#DejaVuSans-73"/>
      <use x="293.802734" xlink:href="#DejaVuSans-69"/>
      <use x="321.585938" xlink:href="#DejaVuSans-6f"/>
      <use x="382.767578" xlink:href="#DejaVuSans-6e"/>
     </g>
    </g>
   </g>
   <g id="line2d_13">
    <path clip-path="url(#pdd2f54cf64)" d="M 414.72 212.985226 
L 414.275821 213.059002 
L 414.275821 212.971113 
L 414.275821 204.64403 
L 413.831642 204.720194 
L 413.831642 204.615976 
L 413.831642 197.714335 
L 413.387463 197.791983 
L 413.387463 197.732571 
L 413.387463 194.614918 
L 412.943284 194.693131 
L 412.943284 194.63024 
L 412.943284 187.683349 
L 412.499104 187.762367 
L 412.499104 187.691425 
L 412.499104 179.985664 
L 412.054925 180.065009 
L 412.054925 179.984555 
L 412.054925 179.337253 
L 411.610746 179.41669 
L 411.610746 179.335314 
L 411.610746 175.993329 
L 411.166567 176.072761 
L 411.166567 175.986975 
L 411.166567 172.732235 
L 410.722388 172.811559 
L 410.722388 172.721349 
L 410.722388 169.29656 
L 410.278209 169.375648 
L 410.278209 169.28066 
L 410.278209 168.130528 
L 409.83403 168.209576 
L 409.83403 168.112855 
L 409.83403 166.546863 
L 409.389851 166.625798 
L 409.389851 166.526741 
L 409.389851 163.90148 
L 408.945672 163.980103 
L 408.945672 163.877161 
L 408.945672 157.978746 
L 408.501493 158.056293 
L 408.501493 157.944538 
L 408.501493 157.720527 
L 408.057313 157.798112 
L 408.057313 157.685829 
L 408.057313 148.503523 
L 407.613134 148.57865 
L 407.613134 148.325053 
L 407.168955 148.400217 
L 407.168955 146.731355 
L 406.724776 146.806082 
L 406.724776 146.023708 
L 406.280597 146.098286 
L 406.280597 145.704098 
L 405.836418 145.778658 
L 405.836418 144.851027 
L 405.392239 144.925377 
L 405.392239 143.851723 
L 404.94806 143.9258 
L 404.94806 139.626305 
L 404.059701 139.771436 
L 404.059701 137.167448 
L 403.615522 137.239082 
L 403.615522 134.4 
L 402.727164 134.541047 
L 402.727164 133.623859 
L 402.282985 133.694133 
L 402.282985 131.986286 
L 401.838806 132.05585 
L 401.838806 129.670957 
L 401.394627 129.739431 
L 401.394627 128.44011 
L 400.950448 128.508022 
L 400.950448 128.015604 
L 400.506269 128.083376 
L 400.506269 127.918545 
L 400.06209 127.986353 
L 400.06209 127.655602 
L 399.61791 127.723355 
L 399.61791 127.391202 
L 399.173731 127.458898 
L 399.173731 125.608874 
L 398.729552 125.675664 
L 398.729552 125.335011 
L 397.841194 125.468578 
L 397.841194 123.917926 
L 397.397015 123.984 
L 397.397015 123.110546 
L 396.952836 123.176229 
L 396.952836 122.64784 
L 396.064478 122.778947 
L 396.064478 122.601931 
L 395.176119 122.733328 
L 395.176119 122.555758 
L 394.73194 122.621538 
L 394.73194 122.443519 
L 394.287761 122.509318 
L 394.287761 121.613506 
L 393.843582 121.678884 
L 393.843582 121.317903 
L 393.399403 121.383184 
L 393.399403 121.202054 
L 392.955224 121.26735 
L 392.955224 120.7215 
L 392.511045 120.786581 
L 392.511045 120.42067 
L 392.066866 120.485647 
L 392.066866 120.118067 
L 391.178507 120.247937 
L 391.178507 119.878438 
L 390.734328 119.943329 
L 390.734328 119.757913 
L 390.290149 119.822813 
L 390.290149 117.567423 
L 389.84597 117.630974 
L 389.84597 116.866575 
L 388.957612 116.993032 
L 388.957612 116.027526 
L 388.513433 116.090288 
L 388.513433 115.701073 
L 387.625075 115.826444 
L 387.625075 115.238831 
L 387.180896 115.301301 
L 387.180896 114.709662 
L 386.292537 114.834154 
L 386.292537 114.635852 
L 385.848358 114.69815 
L 385.848358 114.300037 
L 384.96 114.424455 
L 384.96 113.420507 
L 384.515821 113.482189 
L 384.515821 112.874355 
L 383.627463 112.997222 
L 383.627463 112.793466 
L 383.183284 112.854943 
L 383.183284 112.650611 
L 382.739104 112.712067 
L 382.739104 112.301811 
L 381.850746 112.424506 
L 381.850746 112.218424 
L 381.406567 112.279814 
L 381.406567 111.658486 
L 380.962388 111.719541 
L 380.962388 111.511396 
L 380.07403 111.633585 
L 380.07403 110.795294 
L 379.629851 110.855949 
L 379.629851 110.433785 
L 379.185672 110.494247 
L 379.185672 109.857103 
L 378.741493 109.917204 
L 378.741493 109.703741 
L 378.297313 109.763805 
L 378.297313 109.549714 
L 377.408955 109.6699 
L 377.408955 109.023826 
L 376.964776 109.083608 
L 376.964776 108.867141 
L 375.632239 109.046757 
L 375.632239 108.611368 
L 375.18806 108.671157 
L 375.18806 108.233505 
L 374.743881 108.293075 
L 374.743881 108.07335 
L 373.855522 108.19253 
L 373.855522 107.971965 
L 372.078806 108.2112 
L 372.078806 107.544401 
L 371.634627 107.604 
L 371.634627 106.481778 
L 371.190448 106.540584 
L 371.190448 105.860618 
L 370.30209 105.977492 
L 370.30209 104.37015 
L 369.85791 104.427421 
L 369.85791 103.730087 
L 368.969552 103.843817 
L 368.969552 103.375448 
L 368.081194 103.488885 
L 368.081194 103.017533 
L 367.192836 103.130667 
L 367.192836 102.418286 
L 366.748657 102.474419 
L 366.748657 101.756415 
L 366.304478 101.812037 
L 366.304478 101.330136 
L 365.860299 101.385454 
L 365.860299 101.143437 
L 364.527761 101.309512 
L 364.527761 100.822442 
L 364.083582 100.877617 
L 364.083582 100.632994 
L 363.195224 100.743288 
L 363.195224 100.251396 
L 361.862687 100.416458 
L 361.862687 99.920842 
L 360.530149 100.085705 
L 360.530149 99.58631 
L 360.08597 99.64106 
L 360.08597 99.138783 
L 359.641791 99.19319 
L 359.641791 98.940901 
L 359.197612 98.9952 
L 359.197612 97.21021 
L 358.753433 97.262923 
L 358.753433 96.228133 
L 358.309254 96.279961 
L 358.309254 94.706978 
L 357.420896 94.807881 
L 357.420896 94.542904 
L 356.976716 94.593277 
L 356.976716 94.327371 
L 356.532537 94.3776 
L 356.532537 92.766469 
L 356.088358 92.815173 
L 356.088358 92.544 
L 355.644179 92.592546 
L 355.644179 92.320405 
L 355.2 92.368791 
L 355.2 91.821865 
L 353.867463 91.966041 
L 353.867463 91.137803 
L 351.646567 91.376165 
L 351.646567 91.097187 
L 351.202388 91.14493 
L 351.202388 90.864931 
L 350.758209 90.912497 
L 350.758209 90.631471 
L 348.981493 90.821757 
L 348.981493 89.685389 
L 348.537313 89.732031 
L 348.537313 89.445761 
L 348.093134 89.492211 
L 348.093134 88.91677 
L 346.760597 89.05494 
L 346.760597 87.891004 
L 345.42806 88.026353 
L 345.42806 86.548845 
L 344.983881 86.592518 
L 344.983881 85.995243 
L 344.539701 86.038344 
L 344.539701 85.738146 
L 344.095522 85.781015 
L 344.095522 85.479652 
L 342.762985 85.607902 
L 342.762985 85.00058 
L 341.430448 85.127736 
L 341.430448 84.821744 
L 339.653731 84.991469 
L 339.653731 84.683169 
L 338.765373 84.768 
L 338.765373 84.147343 
L 337.877015 84.231151 
L 337.877015 83.918769 
L 337.432836 83.960471 
L 337.432836 83.332315 
L 336.544478 83.414535 
L 336.544478 82.781288 
L 335.656119 82.862414 
L 335.656119 81.903431 
L 333.879403 82.062283 
L 333.879403 81.739186 
L 332.991045 81.818483 
L 332.991045 81.49364 
L 332.546866 81.533049 
L 332.546866 80.879723 
L 331.214328 80.996134 
L 331.214328 80.666791 
L 328.549254 80.900129 
L 328.549254 79.89858 
L 327.216716 80.012876 
L 327.216716 79.675733 
L 326.772537 79.713614 
L 326.772537 78.69482 
L 325.44 78.805078 
L 325.44 78.462081 
L 324.995821 78.498595 
L 324.995821 76.065214 
L 324.107463 76.131945 
L 324.107463 75.779122 
L 323.219104 75.845284 
L 323.219104 75.490401 
L 321.442388 75.621966 
L 321.442388 75.264 
L 320.55403 75.329387 
L 320.55403 74.608099 
L 319.221493 74.703875 
L 319.221493 74.34 
L 317.444776 74.467019 
L 317.444776 74.099906 
L 314.779701 74.290264 
L 314.779701 73.918777 
L 314.335522 73.950316 
L 314.335522 73.577099 
L 313.891343 73.608192 
L 313.891343 73.233231 
L 310.33791 73.481143 
L 310.33791 73.100488 
L 309.005373 73.193412 
L 309.005373 72.809794 
L 308.117015 72.871094 
L 308.117015 72.485053 
L 306.784478 72.576 
L 306.784478 72.186914 
L 305.896119 72.246857 
L 305.896119 71.855281 
L 303.231045 72.033882 
L 303.231045 71.637333 
L 302.786866 71.666833 
L 302.786866 71.268324 
L 302.342687 71.297299 
L 302.342687 69.687169 
L 300.121791 69.820701 
L 300.121791 69.41147 
L 297.456716 69.570783 
L 297.456716 69.156125 
L 296.124179 69.234998 
L 296.124179 68.816842 
L 294.791642 68.894476 
L 294.791642 68.472763 
L 294.347463 68.498124 
L 294.347463 67.648796 
L 293.014925 67.721143 
L 293.014925 67.29205 
L 292.570746 67.315613 
L 292.570746 66.884251 
L 289.461493 67.0464 
L 289.461493 66.608262 
L 285.019701 66.83951 
L 285.019701 66.39203 
L 281.02209 66.600408 
L 281.02209 66.144 
L 279.689552 66.212571 
L 279.689552 65.289545 
L 276.580299 65.440744 
L 276.580299 64.970563 
L 276.136119 64.991626 
L 276.136119 64.518737 
L 274.359403 64.600267 
L 274.359403 64.121953 
L 271.694328 64.241211 
L 271.694328 63.755497 
L 270.361791 63.813398 
L 270.361791 63.322913 
L 266.364179 63.492197 
L 266.364179 62.990982 
L 264.143284 63.082755 
L 264.143284 62.574437 
L 252.150448 63.075806 
L 252.150448 62.536053 
L 249.485373 62.648698 
L 249.485373 62.099516 
L 247.264478 62.189714 
L 247.264478 61.632 
L 241.934328 61.841944 
L 241.934328 61.266436 
L 233.050746 61.616432 
L 233.050746 61.010601 
L 227.276418 61.23774 
L 227.276418 60.609306 
L 225.055522 60.692837 
L 225.055522 60.053223 
L 218.392836 60.29214 
L 218.392836 59.623784 
L 207.288358 60.02087 
L 207.288358 59.301209 
L 206.844179 59.316245 
L 206.844179 58.590316 
L 198.404776 58.851864 
L 198.404776 57.302131 
L 196.183881 57.352101 
L 196.183881 56.557714 
L 175.307463 56.981015 
L 175.307463 56.042427 
L 153.542687 56.469138 
L 153.542687 55.311926 
L 129.112836 55.708444 
L 129.112836 54.144 
L 57.6 54.144 
L 57.6 54.144 
" style="fill:none;stroke:#d526e2;stroke-linecap:square;stroke-width:2;"/>
   </g>
   <g id="line2d_14">
    <path clip-path="url(#pdd2f54cf64)" d="M 414.72 118.398854 
L 414.555201 118.420995 
L 414.555201 118.355789 
L 414.555201 109.835066 
L 414.225602 109.803921 
L 414.225602 104.906927 
L 414.060803 104.925693 
L 414.060803 104.850746 
L 414.060803 103.719842 
L 413.896004 103.738286 
L 413.896004 103.662422 
L 413.896004 102.977099 
L 413.731204 102.995341 
L 413.731204 102.918888 
L 413.731204 102.842378 
L 413.566405 102.860589 
L 413.566405 102.784 
L 413.566405 99.435559 
L 413.401606 99.452787 
L 413.401606 99.373589 
L 413.401606 98.017949 
L 413.236807 98.034759 
L 413.236807 97.954441 
L 413.236807 95.515943 
L 413.072007 95.531991 
L 413.072007 95.449704 
L 413.072007 94.623314 
L 412.907208 94.63909 
L 412.907208 94.55607 
L 412.907208 91.694375 
L 412.742409 91.709217 
L 412.742409 91.623858 
L 412.742409 89.815579 
L 412.57761 89.829808 
L 412.57761 89.742915 
L 412.57761 88.957744 
L 412.41281 88.971692 
L 412.41281 88.884072 
L 412.41281 87.383709 
L 412.083212 87.410559 
L 412.083212 87.3216 
L 412.083212 87.054291 
L 411.918413 87.06761 
L 411.918413 86.978332 
L 411.918413 86.081561 
L 411.588814 86.017407 
L 411.588814 85.927192 
L 411.424015 85.940138 
L 411.424015 85.849819 
L 411.424015 85.759426 
L 411.259216 85.77232 
L 411.259216 85.681821 
L 411.259216 85.591249 
L 410.929617 85.526231 
L 410.929617 84.797875 
L 410.764818 84.810448 
L 410.764818 84.719035 
L 410.764818 84.352631 
L 410.600018 84.365053 
L 410.600018 84.273231 
L 410.600018 83.720709 
L 410.435219 83.732911 
L 410.435219 83.640525 
L 410.435219 83.084604 
L 410.105621 83.108571 
L 410.105621 83.015582 
L 410.105621 82.456027 
L 409.940821 82.467789 
L 409.940821 82.374224 
L 409.940821 82.186862 
L 409.611223 82.210211 
L 409.611223 82.116345 
L 409.611223 81.645836 
L 409.446424 81.657319 
L 409.446424 81.562947 
L 409.446424 81.468496 
L 409.281624 81.47992 
L 409.281624 81.385355 
L 409.281624 81.290711 
L 408.952026 81.313447 
L 408.952026 81.218654 
L 408.952026 80.361931 
L 408.787227 80.372961 
L 408.787227 80.277333 
L 408.787227 80.181625 
L 408.457628 80.10771 
L 408.457628 79.915747 
L 408.12803 79.841338 
L 408.12803 79.069002 
L 407.96323 79.079573 
L 407.96323 78.982625 
L 407.96323 78.885596 
L 407.468832 78.819918 
L 407.468832 78.625226 
L 407.304033 78.635648 
L 407.304033 78.53814 
L 407.304033 78.440549 
L 407.139234 78.450905 
L 407.139234 78.353194 
L 407.139234 78.157521 
L 406.974435 78.167775 
L 406.974435 78.069775 
L 406.974435 77.971692 
L 406.809635 77.981879 
L 406.809635 77.883675 
L 406.809635 77.095004 
L 406.644836 77.104859 
L 406.644836 77.005856 
L 406.644836 76.608991 
L 405.985639 76.54814 
L 405.985639 76.448469 
L 405.82084 76.458096 
L 405.82084 76.358301 
L 405.82084 75.858029 
L 405.491241 75.876837 
L 405.491241 75.776444 
L 405.491241 75.575396 
L 404.996844 75.50254 
L 404.996844 75.401679 
L 404.667245 75.420172 
L 404.667245 75.319144 
L 404.667245 75.218027 
L 404.172847 75.144262 
L 404.172847 74.738076 
L 403.678449 74.765102 
L 403.678449 74.663212 
L 403.678449 74.561233 
L 403.51365 74.570176 
L 403.51365 74.468067 
L 403.51365 73.647958 
L 403.184052 73.562124 
L 403.184052 73.459031 
L 402.360055 73.398276 
L 402.360055 73.294791 
L 402.195256 73.303257 
L 402.195256 73.199639 
L 402.195256 72.992127 
L 402.030457 73.000475 
L 402.030457 72.896539 
L 402.030457 72.792511 
L 401.536059 72.713094 
L 401.536059 72.608753 
L 401.206461 72.625174 
L 401.206461 72.520655 
L 401.206461 72.416043 
L 400.712063 72.440471 
L 400.712063 72.335636 
L 400.712063 72.125687 
L 400.052866 72.052551 
L 400.052866 71.84169 
L 399.558468 71.759785 
L 399.558468 71.442105 
L 399.06407 71.359223 
L 399.06407 71.146503 
L 398.734472 71.161828 
L 398.734472 71.055235 
L 398.734472 70.948547 
L 398.569672 70.95613 
L 398.569672 70.8493 
L 398.569672 70.742374 
L 398.404873 70.749874 
L 398.404873 70.642807 
L 398.404873 70.535642 
L 398.075275 70.44313 
L 398.075275 70.228134 
L 397.910475 70.235429 
L 397.910475 70.127739 
L 397.910475 69.912065 
L 397.580877 69.9264 
L 397.580877 69.818325 
L 397.580877 69.710151 
L 396.592081 69.64421 
L 396.592081 69.317967 
L 396.427282 69.324905 
L 396.427282 69.215912 
L 396.427282 69.106819 
L 395.768085 69.024881 
L 395.768085 68.9154 
L 395.603286 68.922182 
L 395.603286 68.812553 
L 395.603286 68.592993 
L 395.108888 68.502876 
L 395.108888 68.282423 
L 393.955293 68.217484 
L 393.955293 68.106667 
L 392.801698 68.040803 
L 392.801698 67.929439 
L 391.812903 67.968 
L 391.812903 67.744373 
L 391.648103 67.750723 
L 391.648103 67.638703 
L 391.318505 67.651321 
L 391.318505 67.539098 
L 391.153706 67.545366 
L 391.153706 67.432989 
L 390.988906 67.439213 
L 390.988906 66.535989 
L 390.824107 66.541817 
L 390.824107 66.428386 
L 390.494509 66.439959 
L 390.494509 66.326319 
L 390.329709 66.332062 
L 390.329709 66.218264 
L 390.16491 66.223962 
L 390.16491 65.995941 
L 388.846516 66.040899 
L 388.846516 65.926315 
L 388.516917 65.937504 
L 388.516917 65.822708 
L 388.352118 65.828259 
L 388.352118 65.598234 
L 388.02252 65.609143 
L 388.02252 65.493862 
L 387.85772 65.499272 
L 387.85772 65.383828 
L 387.363323 65.399931 
L 387.363323 65.28422 
L 387.198523 65.289545 
L 387.198523 65.17367 
L 386.704126 65.189517 
L 386.704126 64.957116 
L 386.539326 64.962302 
L 386.539326 64.729348 
L 386.374527 64.734432 
L 386.374527 64.500923 
L 386.209728 64.505905 
L 386.209728 64.03732 
L 386.044928 64.042091 
L 386.044928 63.924608 
L 385.880129 63.929328 
L 385.880129 63.693913 
L 385.385731 63.707774 
L 385.385731 63.116415 
L 385.220932 63.120769 
L 385.220932 62.64539 
L 384.561735 62.661954 
L 384.561735 62.423122 
L 383.57294 62.447413 
L 383.57294 62.327483 
L 383.243341 62.335499 
L 383.243341 62.215338 
L 382.419345 62.235159 
L 382.419345 62.114595 
L 381.924947 62.126362 
L 381.924947 61.884532 
L 381.760148 61.888347 
L 381.760148 61.767195 
L 381.595348 61.770956 
L 381.595348 61.649627 
L 381.26575 61.657043 
L 381.26575 61.535478 
L 380.112155 61.561143 
L 380.112155 61.194492 
L 379.123359 61.21557 
L 379.123359 61.092754 
L 378.299363 61.110117 
L 378.299363 60.98688 
L 378.134564 60.990303 
L 378.134564 60.866883 
L 376.486571 60.9007 
L 376.486571 60.776552 
L 376.321772 60.779891 
L 376.321772 60.655557 
L 375.662575 60.668705 
L 375.662575 60.544 
L 375.168177 60.553712 
L 375.168177 60.178286 
L 375.003378 60.181344 
L 375.003378 59.930301 
L 374.838579 59.933239 
L 374.838579 59.807464 
L 374.673779 59.810341 
L 374.673779 59.684376 
L 373.849783 59.698495 
L 373.849783 59.445551 
L 373.355385 59.453678 
L 373.355385 59.326822 
L 372.860988 59.334783 
L 372.860988 59.207607 
L 371.872192 59.223219 
L 371.872192 58.839749 
L 370.553798 58.859163 
L 370.553798 58.730556 
L 369.070605 58.752 
L 369.070605 58.622669 
L 367.422612 58.646069 
L 367.422612 58.515939 
L 364.291426 58.559797 
L 364.291426 58.428247 
L 363.46743 58.439593 
L 363.46743 58.307561 
L 362.643433 58.318623 
L 362.643433 58.186105 
L 362.313835 58.190408 
L 362.313835 58.05761 
L 362.149036 58.059695 
L 362.149036 57.793536 
L 361.16024 57.805252 
L 361.16024 57.671537 
L 358.688251 57.700093 
L 358.688251 57.565166 
L 355.721864 57.598744 
L 355.721864 57.462363 
L 354.073872 57.480566 
L 354.073872 57.343297 
L 353.249875 57.352101 
L 353.249875 57.214308 
L 350.942686 57.238162 
L 350.942686 57.099158 
L 348.635496 57.12231 
L 348.635496 56.982074 
L 341.219529 57.05543 
L 341.219529 56.767301 
L 337.264347 56.804012 
L 337.264347 56.657699 
L 337.099548 56.659166 
L 337.099548 56.512598 
L 332.814767 56.549125 
L 332.814767 56.400142 
L 332.649968 56.401482 
L 332.649968 56.252235 
L 330.837176 56.266105 
L 330.837176 56.115706 
L 321.938016 56.181551 
L 321.938016 56.02598 
L 320.94922 56.032994 
L 320.94922 55.876654 
L 312.874056 55.931077 
L 312.874056 55.769657 
L 309.578071 55.790784 
L 309.578071 55.627069 
L 306.611684 55.644632 
L 306.611684 55.478773 
L 303.810097 55.49388 
L 303.810097 55.325932 
L 301.502907 55.33706 
L 301.502907 55.167311 
L 285.846977 55.237199 
L 285.846977 55.055655 
L 281.562197 55.073032 
L 281.562197 54.887771 
L 277.936613 54.899973 
L 277.936613 54.711403 
L 255.359114 54.77602 
L 255.359114 54.565697 
L 238.879188 54.603964 
L 238.879188 54.374191 
L 198.008971 54.441116 
L 198.008971 54.144 
L 57.6 54.144 
L 57.6 54.144 
" style="fill:none;stroke:#be76d1;stroke-linecap:square;stroke-width:2;"/>
   </g>
   <g id="line2d_15">
    <path clip-path="url(#pdd2f54cf64)" d="M 414.72 267.255853 
L 413.1328 267.406675 
L 413.1328 267.321191 
L 413.1328 263.981419 
L 411.5456 264.142709 
L 411.5456 264.042305 
L 411.5456 261.067852 
L 409.9584 261.2383 
L 409.9584 261.161822 
L 409.9584 258.573826 
L 408.3712 258.752056 
L 408.3712 258.66676 
L 408.3712 253.363051 
L 406.784 253.556093 
L 406.784 253.451184 
L 406.784 249.804933 
L 405.1968 250.0079 
L 405.1968 249.948112 
L 405.1968 248.850286 
L 403.6096 249.056542 
L 403.6096 248.994477 
L 403.6096 237.469888 
L 402.0224 237.702831 
L 402.0224 237.613924 
L 402.0224 233.063024 
L 400.4352 233.305791 
L 400.4352 233.20487 
L 400.4352 230.044283 
L 398.848 230.293787 
L 398.848 230.184 
L 398.848 202.997436 
L 397.2608 203.283692 
L 397.2608 191.694769 
L 395.6736 191.98931 
L 395.6736 190.484824 
L 394.0864 190.781217 
L 394.0864 190.271162 
L 392.4992 190.569033 
L 392.4992 166.486797 
L 390.912 166.784 
L 390.912 158.501647 
L 389.3248 158.794787 
L 389.3248 158.375662 
L 387.7376 158.670102 
L 387.7376 156.536665 
L 386.1504 156.830897 
L 386.1504 152.828602 
L 384.5632 153.120568 
L 384.5632 151.737313 
L 381.3888 152.323459 
L 381.3888 149.956683 
L 379.8016 150.249688 
L 379.8016 142.155318 
L 376.6272 142.724971 
L 376.6272 141.650971 
L 375.04 141.936941 
L 375.04 140.296871 
L 371.8656 140.869316 
L 371.8656 139.19098 
L 368.6912 139.765622 
L 368.6912 139.196746 
L 367.104 139.486041 
L 367.104 134.784 
L 363.9296 135.351887 
L 363.9296 128.412132 
L 362.3424 128.685176 
L 362.3424 124.649865 
L 360.7552 124.915925 
L 360.7552 124.224 
L 359.168 124.490464 
L 359.168 123.087448 
L 357.5808 123.352615 
L 357.5808 120.474 
L 355.9936 120.734118 
L 355.9936 112.310557 
L 354.4064 112.549926 
L 354.4064 107.612354 
L 352.8192 107.838915 
L 352.8192 105.26709 
L 351.232 105.487448 
L 351.232 104.612571 
L 348.0576 105.053345 
L 348.0576 101.4528 
L 346.4704 101.664 
L 346.4704 99.808865 
L 344.8832 100.015493 
L 344.8832 99.072 
L 343.296 99.277151 
L 343.296 96.384 
L 341.7088 96.580465 
L 341.7088 93.594566 
L 338.5344 93.970286 
L 338.5344 91.916308 
L 336.9472 92.098783 
L 336.9472 87.852768 
L 335.36 88.019644 
L 335.36 80.137846 
L 333.7728 80.271835 
L 333.7728 76.701487 
L 332.1856 76.820211 
L 332.1856 75.599238 
L 330.5984 75.713362 
L 330.5984 74.473412 
L 325.8368 74.80487 
L 325.8368 73.532852 
L 324.2496 73.639385 
L 324.2496 72.346873 
L 322.6624 72.448 
L 322.6624 69.806022 
L 321.0752 69.894508 
L 321.0752 67.178057 
L 316.3136 67.405395 
L 316.3136 66.000842 
L 302.0288 66.659556 
L 302.0288 65.16313 
L 300.4416 65.232 
L 300.4416 62.164253 
L 273.4592 63.131234 
L 260.7616 63.67182 
L 260.7616 61.824 
L 256 62.002605 
L 256 60.084 
L 246.4768 60.376131 
L 246.4768 58.333091 
L 224.256 58.881196 
L 224.256 56.534943 
L 192.512 57.090977 
L 168.704 57.713577 
L 151.2448 58.368 
L 136.96 59.113412 
L 125.8496 59.904 
L 125.8496 54.144 
L 57.6 54.144 
L 57.6 54.144 
" style="fill:none;stroke:#922d9f;stroke-linecap:square;stroke-width:2;"/>
   </g>
   <g id="line2d_16">
    <path clip-path="url(#pdd2f54cf64)" d="M 414.72 188.151054 
L 414.60826 188.170816 
L 414.60826 188.065063 
L 414.60826 184.448234 
L 414.496521 184.468052 
L 414.496521 184.3556 
L 414.496521 184.299297 
L 414.384781 184.319123 
L 414.384781 184.206363 
L 414.384781 181.081902 
L 414.273041 181.101749 
L 414.273041 181.002795 
L 414.273041 179.113223 
L 414.161302 179.133072 
L 414.161302 179.030981 
L 414.161302 174.875264 
L 414.049562 174.895078 
L 414.049562 174.786102 
L 414.049562 174.655095 
L 413.937822 174.674913 
L 413.937822 174.56554 
L 413.937822 172.135674 
L 413.826083 172.155452 
L 413.826083 172.06459 
L 413.826083 171.28732 
L 413.714343 171.307084 
L 413.714343 171.215052 
L 413.714343 166.916414 
L 413.602603 166.936057 
L 413.602603 166.837993 
L 413.602603 163.907872 
L 413.490864 163.927406 
L 413.490864 163.825069 
L 413.490864 163.74822 
L 413.379124 163.767753 
L 413.379124 163.665156 
L 413.379124 161.025162 
L 413.267384 161.044578 
L 413.267384 160.938023 
L 413.267384 159.18453 
L 413.155645 159.203856 
L 413.155645 159.094573 
L 413.155645 157.099566 
L 413.043905 157.118782 
L 413.043905 157.006368 
L 413.043905 149.78548 
L 412.932165 149.804204 
L 412.932165 149.711483 
L 412.932165 148.965775 
L 412.820426 148.984441 
L 412.820426 148.890724 
L 412.820426 145.734711 
L 412.596946 145.67391 
L 412.596946 143.395811 
L 412.485207 143.414014 
L 412.485207 143.313502 
L 412.485207 141.859182 
L 412.373467 141.877245 
L 412.373467 141.77481 
L 412.373467 141.672247 
L 412.261727 141.690298 
L 412.261727 141.587599 
L 412.261727 140.518879 
L 412.149987 140.536821 
L 412.149987 140.432655 
L 412.149987 140.223933 
L 412.038248 140.241852 
L 412.038248 140.137285 
L 412.038248 139.436817 
L 411.926508 139.454661 
L 411.926508 139.349074 
L 411.926508 138.178806 
L 411.814768 138.196524 
L 411.814768 138.089316 
L 411.814768 136.464767 
L 411.703029 136.482304 
L 411.703029 136.372881 
L 411.703029 133.929652 
L 411.591289 133.946907 
L 411.591289 133.871772 
L 411.591289 131.006494 
L 411.479549 131.023402 
L 411.479549 130.94569 
L 411.479549 129.139251 
L 411.36781 129.155928 
L 411.36781 129.076538 
L 411.36781 129.036817 
L 411.25607 129.053486 
L 411.25607 128.97398 
L 411.25607 127.813135 
L 411.14433 127.829649 
L 411.14433 127.749024 
L 411.14433 127.547143 
L 411.032591 127.563627 
L 411.032591 127.482737 
L 411.032591 127.442265 
L 410.920851 127.45874 
L 410.920851 127.377731 
L 410.920851 127.134263 
L 410.809111 127.150703 
L 410.809111 127.06939 
L 410.809111 126.04676 
L 410.697372 126.063057 
L 410.697372 125.980735 
L 410.697372 123.518176 
L 410.585632 123.534124 
L 410.585632 123.449465 
L 410.585632 123.237475 
L 410.473892 123.253387 
L 410.473892 123.168442 
L 410.473892 123.040878 
L 410.362153 123.056768 
L 410.362153 122.971614 
L 410.362153 121.771162 
L 410.250413 121.786871 
L 410.250413 121.700514 
L 410.250413 121.006757 
L 410.138673 121.022357 
L 410.138673 120.935261 
L 410.138673 120.848082 
L 410.026934 120.863664 
L 410.026934 120.776391 
L 410.026934 120.557851 
L 409.915194 120.573394 
L 409.915194 120.485822 
L 409.915194 119.251141 
L 409.803454 119.266489 
L 409.803454 119.17766 
L 409.803454 118.866098 
L 409.468235 118.867386 
L 409.468235 118.822751 
L 409.468235 118.68872 
L 409.244756 118.674554 
L 409.244756 118.6298 
L 409.244756 118.001 
L 408.909537 117.956356 
L 408.909537 117.775672 
L 408.686058 117.806002 
L 408.686058 117.715502 
L 408.686058 117.624916 
L 408.574318 117.640063 
L 408.574318 117.549376 
L 408.574318 117.276795 
L 408.462578 117.291891 
L 408.462578 117.200842 
L 408.462578 117.018483 
L 408.350839 117.033543 
L 408.350839 116.942217 
L 408.350839 116.850804 
L 408.239099 116.865842 
L 408.239099 116.774326 
L 408.239099 116.591032 
L 408.127359 116.606032 
L 408.127359 116.514238 
L 408.127359 113.860491 
L 407.90388 113.842376 
L 407.90388 113.795122 
L 407.90388 113.511113 
L 407.680401 113.445242 
L 407.680401 113.397764 
L 407.568661 113.412258 
L 407.568661 113.317216 
L 407.568661 111.735473 
L 407.456921 111.749686 
L 407.456921 111.652978 
L 407.456921 110.92461 
L 407.345181 110.938685 
L 407.345181 110.841143 
L 407.345181 110.155628 
L 407.121702 110.085166 
L 407.121702 109.937448 
L 407.009962 109.951362 
L 407.009962 109.852743 
L 407.009962 109.407736 
L 406.898223 109.421559 
L 406.898223 109.322378 
L 406.898223 108.224805 
L 406.786483 108.238417 
L 406.786483 108.138017 
L 406.786483 107.7354 
L 406.563004 107.712 
L 406.563004 107.661515 
L 406.563004 107.256711 
L 406.451264 107.270157 
L 406.451264 107.168681 
L 406.451264 107.117904 
L 406.339524 107.131329 
L 406.339524 107.02968 
L 406.339524 106.417611 
L 406.227785 106.430909 
L 406.227785 106.328515 
L 406.227785 106.123414 
L 406.116045 106.136661 
L 406.116045 106.033934 
L 406.116045 105.982531 
L 406.004305 105.995755 
L 406.004305 105.892851 
L 406.004305 105.53186 
L 405.892566 105.545003 
L 405.892566 105.441605 
L 405.892566 105.338101 
L 405.780826 105.351211 
L 405.780826 105.247582 
L 405.780826 104.675716 
L 405.669086 104.688703 
L 405.669086 104.58436 
L 405.669086 104.375351 
L 405.557347 104.388284 
L 405.557347 104.283598 
L 405.557347 103.968892 
L 405.445607 103.98175 
L 405.445607 103.87661 
L 405.445607 103.296398 
L 405.333867 103.309128 
L 405.333867 103.203259 
L 405.333867 102.565731 
L 405.222128 102.578321 
L 405.222128 102.471659 
L 405.222128 102.311456 
L 404.886909 102.295618 
L 404.886909 102.242102 
L 404.886909 101.274016 
L 404.775169 101.286363 
L 404.775169 101.178212 
L 404.775169 100.58135 
L 404.663429 100.593561 
L 404.663429 100.484647 
L 404.663429 100.211861 
L 404.216471 100.205767 
L 404.216471 100.15105 
L 404.216471 100.096304 
L 403.992991 100.065775 
L 403.992991 100.010948 
L 403.992991 99.901209 
L 403.769512 99.870476 
L 403.769512 99.815511 
L 403.769512 99.042932 
L 403.434293 98.96783 
L 403.434293 98.801248 
L 403.322553 98.813137 
L 403.322553 98.701912 
L 403.322553 98.199925 
L 403.210814 98.211692 
L 403.210814 98.155755 
L 403.210814 97.987765 
L 403.099074 97.999491 
L 403.099074 97.943422 
L 403.099074 97.887324 
L 402.763855 97.866304 
L 402.763855 97.810109 
L 402.652115 97.821813 
L 402.652115 97.765576 
L 402.652115 97.427523 
L 402.540375 97.439149 
L 402.540375 97.382689 
L 402.540375 97.269677 
L 402.205156 97.304484 
L 402.205156 97.247897 
L 402.205156 96.737234 
L 402.093417 96.748727 
L 402.093417 96.691822 
L 402.093417 96.634886 
L 401.981677 96.64636 
L 401.981677 96.589381 
L 401.981677 96.075178 
L 401.869937 96.086535 
L 401.869937 96.029234 
L 401.869937 95.454513 
L 401.646458 95.476971 
L 401.646458 95.419302 
L 401.646458 95.188311 
L 401.311239 95.163989 
L 401.311239 94.990207 
L 401.199499 95.001349 
L 401.199499 94.943345 
L 401.199499 94.88531 
L 401.08776 94.896432 
L 401.08776 94.838353 
L 401.08776 94.780241 
L 400.97602 94.791344 
L 400.97602 94.733188 
L 400.97602 94.616781 
L 400.86428 94.627851 
L 400.86428 94.569587 
L 400.86428 94.511291 
L 400.640801 94.475044 
L 400.640801 94.416658 
L 400.417322 94.438737 
L 400.417322 94.380293 
L 400.417322 94.146196 
L 400.305582 94.15718 
L 400.305582 94.098562 
L 400.305582 93.746179 
L 400.193842 93.757076 
L 400.193842 93.69822 
L 400.193842 93.462468 
L 399.858623 93.494998 
L 399.858623 93.435939 
L 399.858623 93.317723 
L 399.746884 93.328539 
L 399.746884 93.269369 
L 399.746884 93.210166 
L 399.635144 93.22096 
L 399.635144 93.161711 
L 399.635144 92.924387 
L 399.411665 92.88642 
L 399.411665 92.826947 
L 399.299925 92.837666 
L 399.299925 92.778146 
L 399.299925 92.181132 
L 398.964706 92.212873 
L 398.964706 92.152948 
L 398.964706 91.852821 
L 398.852966 91.863331 
L 398.852966 91.803192 
L 398.852966 91.381274 
L 398.517747 91.412504 
L 398.517747 91.352054 
L 398.517747 91.170499 
L 398.294268 91.191236 
L 398.294268 91.130622 
L 398.294268 91.069974 
L 398.070788 91.029967 
L 398.070788 90.847632 
L 397.847309 90.807371 
L 397.847309 90.62454 
L 397.735569 90.634799 
L 397.735569 90.573772 
L 397.735569 90.512711 
L 397.62383 90.522947 
L 397.62383 90.461838 
L 397.62383 90.400694 
L 397.288611 90.431351 
L 397.288611 90.370129 
L 397.288611 90.247583 
L 397.176871 90.25777 
L 397.176871 90.19643 
L 397.176871 90.073647 
L 396.953392 90.032479 
L 396.953392 89.477658 
L 396.729912 89.435843 
L 396.729912 89.373957 
L 396.506433 89.393957 
L 396.506433 89.332007 
L 396.506433 89.021725 
L 396.282954 89.04157 
L 396.282954 88.979378 
L 396.282954 88.854888 
L 396.171214 88.864775 
L 396.171214 88.802462 
L 396.171214 88.677729 
L 396.059474 88.687576 
L 396.059474 88.625141 
L 396.059474 88.500164 
L 395.947735 88.509972 
L 395.947735 88.447415 
L 395.947735 88.25953 
L 395.612516 88.288805 
L 395.612516 88.22606 
L 395.612516 87.785835 
L 395.500776 87.795483 
L 395.500776 87.732434 
L 395.500776 87.54307 
L 395.277297 87.562259 
L 395.277297 87.499034 
L 395.277297 87.245772 
L 395.053817 87.201391 
L 395.053817 87.010859 
L 394.606859 86.985143 
L 394.606859 86.92146 
L 394.27164 86.886104 
L 394.27164 86.566715 
L 393.936421 86.530856 
L 393.936421 86.402672 
L 393.377722 86.449505 
L 393.377722 86.385278 
L 393.377722 86.321013 
L 393.154243 86.339721 
L 393.154243 86.275387 
L 393.154243 85.824 
L 392.930763 85.842472 
L 392.930763 85.777806 
L 392.930763 85.648359 
L 392.819024 85.657555 
L 392.819024 85.592759 
L 392.819024 85.527925 
L 392.707284 85.537094 
L 392.707284 85.472206 
L 392.707284 84.755926 
L 392.595544 84.764903 
L 392.595544 84.699541 
L 392.595544 84.634141 
L 392.483805 84.64309 
L 392.483805 84.577635 
L 392.483805 84.512141 
L 392.260325 84.529989 
L 392.260325 84.464423 
L 392.260325 84.004383 
L 392.148586 84.013181 
L 392.148586 83.947289 
L 392.148586 83.881358 
L 391.925106 83.898903 
L 391.925106 83.832899 
L 391.925106 83.766857 
L 391.589887 83.726979 
L 391.589887 83.130027 
L 391.142929 83.097828 
L 391.142929 82.764267 
L 390.472491 82.748455 
L 390.472491 82.614465 
L 390.249011 82.631442 
L 390.249011 82.564352 
L 390.249011 82.430052 
L 389.913792 82.388135 
L 389.913792 82.186105 
L 389.578573 82.143808 
L 389.578573 82.076291 
L 389.466834 82.084659 
L 389.466834 82.017084 
L 389.466834 81.949468 
L 389.355094 81.957805 
L 389.355094 81.890131 
L 389.355094 81.822416 
L 389.243354 81.830723 
L 389.243354 81.762949 
L 389.243354 81.695135 
L 388.684656 81.668621 
L 388.684656 81.532609 
L 388.349437 81.489244 
L 388.349437 81.284633 
L 387.902478 81.317422 
L 387.902478 81.249063 
L 387.902478 81.180664 
L 387.790738 81.188837 
L 387.790738 81.120377 
L 387.790738 80.983334 
L 387.455519 80.93908 
L 387.455519 80.801678 
L 387.008561 80.765202 
L 387.008561 80.351299 
L 386.896821 80.359272 
L 386.896821 80.290123 
L 386.896821 80.151698 
L 386.785081 80.15962 
L 386.785081 80.090325 
L 386.785081 80.020989 
L 386.673342 80.028878 
L 386.673342 79.95948 
L 386.673342 79.332991 
L 386.449862 79.278545 
L 386.449862 79.068706 
L 386.338123 79.076344 
L 386.338123 79.006293 
L 386.338123 78.866061 
L 386.226383 78.873647 
L 386.226383 78.803448 
L 386.226383 78.733205 
L 386.114643 78.740757 
L 386.114643 78.670452 
L 386.114643 78.529712 
L 385.779424 78.481729 
L 385.779424 78.411192 
L 385.555945 78.355525 
L 385.555945 78.284863 
L 385.108986 78.243883 
L 385.108986 78.173055 
L 384.885507 78.116995 
L 384.885507 77.832914 
L 384.773767 77.840248 
L 384.773767 77.769098 
L 384.773767 77.484056 
L 384.438548 77.434357 
L 384.438548 77.362882 
L 384.103329 77.312955 
L 384.103329 77.169663 
L 383.76811 77.191175 
L 383.76811 77.119402 
L 383.76811 76.903813 
L 383.097672 76.8744 
L 383.097672 76.513352 
L 382.203755 76.496994 
L 382.203755 76.42444 
L 381.980275 76.365798 
L 381.980275 76.29311 
L 381.645056 76.241224 
L 381.645056 76.168383 
L 381.309837 76.116257 
L 381.309837 75.897133 
L 380.974618 75.917746 
L 380.974618 75.84455 
L 380.974618 75.771307 
L 380.639399 75.791833 
L 380.639399 75.718481 
L 380.639399 75.571638 
L 380.52766 75.578425 
L 380.52766 75.504913 
L 380.52766 75.431353 
L 380.080701 75.384686 
L 380.080701 75.237164 
L 379.857222 75.250573 
L 379.857222 75.1767 
L 379.857222 75.102779 
L 379.522003 75.048764 
L 379.522003 74.900558 
L 379.298523 74.839579 
L 379.298523 74.765315 
L 378.851564 74.717269 
L 378.851564 74.4192 
L 378.739825 74.42569 
L 378.739825 74.351032 
L 378.739825 74.051919 
L 378.181126 74.008876 
L 378.181126 73.858716 
L 378.069387 73.865055 
L 378.069387 73.78988 
L 378.069387 73.639385 
L 377.845907 73.576577 
L 377.845907 73.501164 
L 377.734168 73.507404 
L 377.734168 73.43192 
L 377.734168 73.356387 
L 377.06373 73.317928 
L 377.06373 73.242163 
L 376.84025 73.254524 
L 376.84025 73.178665 
L 376.84025 73.026799 
L 376.616771 73.039041 
L 376.616771 72.962988 
L 376.616771 72.886887 
L 376.393292 72.899054 
L 376.393292 72.822857 
L 376.393292 72.746611 
L 375.499374 72.718593 
L 375.499374 72.642065 
L 375.052416 72.589535 
L 375.052416 72.436044 
L 374.828936 72.448 
L 374.828936 72.371133 
L 374.828936 72.294216 
L 374.717196 72.300153 
L 374.717196 72.223162 
L 374.717196 72.069029 
L 374.270238 72.015302 
L 374.270238 71.938016 
L 374.046758 71.949699 
L 374.046758 71.872315 
L 374.046758 71.639858 
L 373.37632 71.596705 
L 373.37632 71.363208 
L 373.152841 71.374574 
L 373.152841 71.296592 
L 373.152841 71.218557 
L 372.370663 71.179868 
L 372.370663 71.101562 
L 371.476746 71.068066 
L 371.476746 70.910809 
L 371.141527 70.927547 
L 371.141527 70.848767 
L 371.141527 70.691049 
L 369.91239 70.672696 
L 369.91239 70.434753 
L 368.906733 70.404343 
L 368.906733 70.324645 
L 368.459775 70.266572 
L 368.459775 70.186667 
L 368.348035 70.19207 
L 368.348035 70.112086 
L 368.348035 69.871811 
L 368.236295 69.877117 
L 368.236295 69.796892 
L 368.236295 69.716613 
L 368.124556 69.721872 
L 368.124556 69.641514 
L 368.124556 69.400111 
L 367.901076 69.410437 
L 367.901076 69.329809 
L 367.901076 69.249127 
L 367.565857 69.183674 
L 367.565857 69.102806 
L 367.454118 69.107882 
L 367.454118 69.026933 
L 367.454118 68.945929 
L 367.230638 68.874877 
L 367.230638 68.793711 
L 366.448461 68.747259 
L 366.448461 68.665801 
L 366.001502 68.60402 
L 366.001502 68.522346 
L 365.778023 68.532181 
L 365.778023 68.450398 
L 365.778023 68.368559 
L 365.554543 68.378301 
L 365.554543 68.296354 
L 365.554543 67.968 
L 364.884105 67.914124 
L 364.884105 67.831678 
L 364.660626 67.758545 
L 364.660626 67.675932 
L 363.990188 67.703959 
L 363.990188 67.621127 
L 363.990188 67.538238 
L 363.543229 67.556771 
L 363.543229 67.473716 
L 363.543229 67.307435 
L 362.425832 67.269673 
L 362.425832 67.102497 
L 361.308436 67.063777 
L 361.308436 66.979767 
L 360.973217 66.909079 
L 360.973217 66.824868 
L 360.749737 66.833748 
L 360.749737 66.749422 
L 360.749737 66.665037 
L 360.191039 66.602427 
L 360.191039 66.433079 
L 360.079299 66.437399 
L 360.079299 66.352608 
L 360.079299 66.012845 
L 358.850163 65.97359 
L 358.850163 65.802599 
L 358.179725 65.741645 
L 358.179725 65.569942 
L 357.956245 65.57806 
L 357.956245 65.49206 
L 357.956245 65.233691 
L 357.397547 65.167059 
L 357.397547 64.994089 
L 357.174068 64.9152 
L 357.174068 64.828502 
L 356.39189 64.768321 
L 356.39189 64.68129 
L 356.168411 64.601696 
L 356.168411 64.514481 
L 355.162753 64.548091 
L 355.162753 64.460542 
L 355.162753 64.37293 
L 354.604055 64.303567 
L 354.604055 64.127722 
L 354.492315 64.131332 
L 354.492315 64.043284 
L 354.492315 63.955172 
L 353.263179 63.90586 
L 353.263179 63.817282 
L 352.369262 63.756604 
L 352.369262 63.667648 
L 352.034043 63.678083 
L 352.034043 63.588969 
L 352.034043 63.499789 
L 351.251865 63.434323 
L 351.251865 63.344792 
L 350.693166 63.271938 
L 350.693166 63.182118 
L 350.581427 63.185442 
L 350.581427 63.095523 
L 350.581427 63.005538 
L 349.799249 62.938153 
L 349.799249 62.757402 
L 348.681852 62.69854 
L 348.681852 62.516739 
L 347.452716 62.459705 
L 347.452716 62.368275 
L 345.553141 62.328694 
L 345.553141 62.236562 
L 345.217922 62.245692 
L 345.217922 62.153391 
L 345.217922 61.876068 
L 343.318348 61.832737 
L 343.318348 61.739508 
L 342.424431 61.669055 
L 342.424431 61.575409 
L 341.307034 61.509751 
L 341.307034 61.321405 
L 338.960501 61.284533 
L 338.960501 61.189436 
L 338.066583 61.115809 
L 338.066583 61.020279 
L 336.837447 60.95372 
L 336.837447 60.857642 
L 336.502228 60.769236 
L 336.502228 60.576487 
L 336.055269 60.489915 
L 336.055269 60.393205 
L 334.490914 60.330331 
L 334.490914 60.232948 
L 333.261777 60.16157 
L 333.261777 59.965592 
L 331.697422 59.89941 
L 331.697422 59.800692 
L 331.026984 59.715223 
L 331.026984 59.616115 
L 329.686108 59.642497 
L 329.686108 59.542842 
L 329.686108 59.243396 
L 327.451314 59.284771 
L 327.451314 59.184 
L 327.451314 59.083147 
L 323.316946 59.056033 
L 323.316946 58.953505 
L 319.182578 58.923883 
L 319.182578 58.819623 
L 317.618223 58.742278 
L 317.618223 58.637238 
L 316.500826 58.550718 
L 316.500826 58.445061 
L 315.718648 58.351816 
L 315.718648 58.24567 
L 314.154293 58.163408 
L 314.154293 58.056453 
L 309.349487 58.020923 
L 309.349487 57.911801 
L 307.449912 57.829994 
L 307.449912 57.719873 
L 302.533367 57.678251 
L 302.533367 57.565782 
L 302.309887 57.568865 
L 302.309887 57.343423 
L 301.30423 57.356458 
L 301.30423 57.24313 
L 300.745532 57.250164 
L 300.745532 57.13648 
L 295.828986 57.197494 
L 295.828986 57.081413 
L 293.035494 57.115857 
L 293.035494 56.998322 
L 289.795044 57.037701 
L 289.795044 56.91845 
L 282.978924 57.001412 
L 282.978924 56.878517 
L 282.755444 56.881202 
L 282.755444 56.758067 
L 277.838899 56.815807 
L 277.838899 56.689856 
L 277.615419 56.692416 
L 277.615419 56.566213 
L 277.2802 56.569874 
L 277.2802 56.443355 
L 271.246258 56.507689 
L 271.246258 56.37753 
L 271.134518 56.378689 
L 271.134518 56.248328 
L 269.123204 56.26817 
L 269.123204 56.136453 
L 267.00015 56.156493 
L 267.00015 56.023322 
L 259.960551 56.088197 
L 259.960551 55.950316 
L 258.731414 55.961275 
L 258.731414 55.822411 
L 258.619675 55.823337 
L 258.619675 55.684243 
L 250.797897 55.746207 
L 250.797897 55.601389 
L 246.32831 55.635701 
L 246.32831 55.487322 
L 244.093517 55.503333 
L 244.093517 55.353016 
L 241.523504 55.369828 
L 241.523504 55.217249 
L 238.618273 55.2344 
L 238.618273 55.079203 
L 223.756896 55.162513 
L 223.756896 54.99333 
L 219.957747 55.013136 
L 219.957747 54.839786 
L 216.940776 54.852923 
L 216.940776 54.676064 
L 197.833292 54.748388 
L 197.833292 54.547246 
L 186.100626 54.584 
L 186.100626 54.364191 
L 155.260476 54.433646 
L 155.260476 54.144 
L 57.6 54.144 
L 57.6 54.144 
" style="fill:none;stroke:#ff1493;stroke-dasharray:4,6.6;stroke-dashoffset:0;stroke-width:4;"/>
   </g>
   <g id="line2d_17">
    <path clip-path="url(#pdd2f54cf64)" d="M 57.6 307.584 
L 414.72 54.144 
" style="fill:none;stroke:#000000;stroke-dasharray:7.4,3.2;stroke-dashoffset:0;stroke-width:2;"/>
   </g>
   <g id="line2d_18">
    <path clip-path="url(#pdd2f54cf64)" d="M 57.6 307.584 
L 414.72 54.144 
" style="fill:none;stroke:#000000;stroke-dasharray:7.4,3.2;stroke-dashoffset:0;stroke-width:2;"/>
   </g>
   <g id="patch_3">
    <path d="M 57.6 307.584 
L 57.6 41.472 
" style="fill:none;stroke:#000000;stroke-linecap:square;stroke-linejoin:miter;stroke-width:0.8;"/>
   </g>
   <g id="patch_4">
    <path d="M 414.72 307.584 
L 414.72 41.472 
" style="fill:none;stroke:#000000;stroke-linecap:square;stroke-linejoin:miter;stroke-width:0.8;"/>
   </g>
   <g id="patch_5">
    <path d="M 57.6 307.584 
L 414.72 307.584 
" style="fill:none;stroke:#000000;stroke-linecap:square;stroke-linejoin:miter;stroke-width:0.8;"/>
   </g>
   <g id="patch_6">
    <path d="M 57.6 41.472 
L 414.72 41.472 
" style="fill:none;stroke:#000000;stroke-linecap:square;stroke-linejoin:miter;stroke-width:0.8;"/>
   </g>
   <g id="text_15">
    <!-- PR Curves -->
    <g transform="translate(205.63875 35.472)scale(0.12 -0.12)">
     <defs>
      <path id="DejaVuSans-20" transform="scale(0.015625)"/>
      <path d="M 4122 4306 
L 4122 3641 
Q 3803 3938 3442 4084 
Q 3081 4231 2675 4231 
Q 1875 4231 1450 3742 
Q 1025 3253 1025 2328 
Q 1025 1406 1450 917 
Q 1875 428 2675 428 
Q 3081 428 3442 575 
Q 3803 722 4122 1019 
L 4122 359 
Q 3791 134 3420 21 
Q 3050 -91 2638 -91 
Q 1578 -91 968 557 
Q 359 1206 359 2328 
Q 359 3453 968 4101 
Q 1578 4750 2638 4750 
Q 3056 4750 3426 4639 
Q 3797 4528 4122 4306 
z
" id="DejaVuSans-43" transform="scale(0.015625)"/>
      <path d="M 544 1381 
L 544 3500 
L 1119 3500 
L 1119 1403 
Q 1119 906 1312 657 
Q 1506 409 1894 409 
Q 2359 409 2629 706 
Q 2900 1003 2900 1516 
L 2900 3500 
L 3475 3500 
L 3475 0 
L 2900 0 
L 2900 538 
Q 2691 219 2414 64 
Q 2138 -91 1772 -91 
Q 1169 -91 856 284 
Q 544 659 544 1381 
z
M 1991 3584 
L 1991 3584 
z
" id="DejaVuSans-75" transform="scale(0.015625)"/>
      <path d="M 191 3500 
L 800 3500 
L 1894 563 
L 2988 3500 
L 3597 3500 
L 2284 0 
L 1503 0 
L 191 3500 
z
" id="DejaVuSans-76" transform="scale(0.015625)"/>
     </defs>
     <use xlink:href="#DejaVuSans-50"/>
     <use x="60.302734" xlink:href="#DejaVuSans-52"/>
     <use x="129.785156" xlink:href="#DejaVuSans-20"/>
     <use x="161.572266" xlink:href="#DejaVuSans-43"/>
     <use x="231.396484" xlink:href="#DejaVuSans-75"/>
     <use x="294.775391" xlink:href="#DejaVuSans-72"/>
     <use x="335.888672" xlink:href="#DejaVuSans-76"/>
     <use x="395.068359" xlink:href="#DejaVuSans-65"/>
     <use x="456.591797" xlink:href="#DejaVuSans-73"/>
    </g>
   </g>
   <g id="legend_1">
    <g id="patch_7">
     <path d="M 64.6 302.584 
L 334.28125 302.584 
Q 336.28125 302.584 336.28125 300.584 
L 336.28125 242.8715 
Q 336.28125 240.8715 334.28125 240.8715 
L 64.6 240.8715 
Q 62.6 240.8715 62.6 242.8715 
L 62.6 300.584 
Q 62.6 302.584 64.6 302.584 
z
" style="fill:#ffffff;opacity:0.8;stroke:#cccccc;stroke-linejoin:miter;"/>
    </g>
    <g id="line2d_19">
     <path d="M 66.6 248.969937 
L 86.6 248.969937 
" style="fill:none;stroke:#d526e2;stroke-linecap:square;stroke-width:2;"/>
    </g>
    <g id="line2d_20"/>
    <g id="text_16">
     <!-- PR curve of Effector Memory CD4 (area = 0.93) -->
     <g transform="translate(94.6 252.469937)scale(0.1 -0.1)">
      <defs>
       <path d="M 2375 4863 
L 2375 4384 
L 1825 4384 
Q 1516 4384 1395 4259 
Q 1275 4134 1275 3809 
L 1275 3500 
L 2222 3500 
L 2222 3053 
L 1275 3053 
L 1275 0 
L 697 0 
L 697 3053 
L 147 3053 
L 147 3500 
L 697 3500 
L 697 3744 
Q 697 4328 969 4595 
Q 1241 4863 1831 4863 
L 2375 4863 
z
" id="DejaVuSans-66" transform="scale(0.015625)"/>
       <path d="M 628 4666 
L 3578 4666 
L 3578 4134 
L 1259 4134 
L 1259 2753 
L 3481 2753 
L 3481 2222 
L 1259 2222 
L 1259 531 
L 3634 531 
L 3634 0 
L 628 0 
L 628 4666 
z
" id="DejaVuSans-45" transform="scale(0.015625)"/>
       <path d="M 1172 4494 
L 1172 3500 
L 2356 3500 
L 2356 3053 
L 1172 3053 
L 1172 1153 
Q 1172 725 1289 603 
Q 1406 481 1766 481 
L 2356 481 
L 2356 0 
L 1766 0 
Q 1100 0 847 248 
Q 594 497 594 1153 
L 594 3053 
L 172 3053 
L 172 3500 
L 594 3500 
L 594 4494 
L 1172 4494 
z
" id="DejaVuSans-74" transform="scale(0.015625)"/>
       <path d="M 628 4666 
L 1569 4666 
L 2759 1491 
L 3956 4666 
L 4897 4666 
L 4897 0 
L 4281 0 
L 4281 4097 
L 3078 897 
L 2444 897 
L 1241 4097 
L 1241 0 
L 628 0 
L 628 4666 
z
" id="DejaVuSans-4d" transform="scale(0.015625)"/>
       <path d="M 3328 2828 
Q 3544 3216 3844 3400 
Q 4144 3584 4550 3584 
Q 5097 3584 5394 3201 
Q 5691 2819 5691 2113 
L 5691 0 
L 5113 0 
L 5113 2094 
Q 5113 2597 4934 2840 
Q 4756 3084 4391 3084 
Q 3944 3084 3684 2787 
Q 3425 2491 3425 1978 
L 3425 0 
L 2847 0 
L 2847 2094 
Q 2847 2600 2669 2842 
Q 2491 3084 2119 3084 
Q 1678 3084 1418 2786 
Q 1159 2488 1159 1978 
L 1159 0 
L 581 0 
L 581 3500 
L 1159 3500 
L 1159 2956 
Q 1356 3278 1631 3431 
Q 1906 3584 2284 3584 
Q 2666 3584 2933 3390 
Q 3200 3197 3328 2828 
z
" id="DejaVuSans-6d" transform="scale(0.015625)"/>
       <path d="M 2059 -325 
Q 1816 -950 1584 -1140 
Q 1353 -1331 966 -1331 
L 506 -1331 
L 506 -850 
L 844 -850 
Q 1081 -850 1212 -737 
Q 1344 -625 1503 -206 
L 1606 56 
L 191 3500 
L 800 3500 
L 1894 763 
L 2988 3500 
L 3597 3500 
L 2059 -325 
z
" id="DejaVuSans-79" transform="scale(0.015625)"/>
       <path d="M 1259 4147 
L 1259 519 
L 2022 519 
Q 2988 519 3436 956 
Q 3884 1394 3884 2338 
Q 3884 3275 3436 3711 
Q 2988 4147 2022 4147 
L 1259 4147 
z
M 628 4666 
L 1925 4666 
Q 3281 4666 3915 4102 
Q 4550 3538 4550 2338 
Q 4550 1131 3912 565 
Q 3275 0 1925 0 
L 628 0 
L 628 4666 
z
" id="DejaVuSans-44" transform="scale(0.015625)"/>
       <path d="M 1984 4856 
Q 1566 4138 1362 3434 
Q 1159 2731 1159 2009 
Q 1159 1288 1364 580 
Q 1569 -128 1984 -844 
L 1484 -844 
Q 1016 -109 783 600 
Q 550 1309 550 2009 
Q 550 2706 781 3412 
Q 1013 4119 1484 4856 
L 1984 4856 
z
" id="DejaVuSans-28" transform="scale(0.015625)"/>
       <path d="M 678 2906 
L 4684 2906 
L 4684 2381 
L 678 2381 
L 678 2906 
z
M 678 1631 
L 4684 1631 
L 4684 1100 
L 678 1100 
L 678 1631 
z
" id="DejaVuSans-3d" transform="scale(0.015625)"/>
       <path d="M 703 97 
L 703 672 
Q 941 559 1184 500 
Q 1428 441 1663 441 
Q 2288 441 2617 861 
Q 2947 1281 2994 2138 
Q 2813 1869 2534 1725 
Q 2256 1581 1919 1581 
Q 1219 1581 811 2004 
Q 403 2428 403 3163 
Q 403 3881 828 4315 
Q 1253 4750 1959 4750 
Q 2769 4750 3195 4129 
Q 3622 3509 3622 2328 
Q 3622 1225 3098 567 
Q 2575 -91 1691 -91 
Q 1453 -91 1209 -44 
Q 966 3 703 97 
z
M 1959 2075 
Q 2384 2075 2632 2365 
Q 2881 2656 2881 3163 
Q 2881 3666 2632 3958 
Q 2384 4250 1959 4250 
Q 1534 4250 1286 3958 
Q 1038 3666 1038 3163 
Q 1038 2656 1286 2365 
Q 1534 2075 1959 2075 
z
" id="DejaVuSans-39" transform="scale(0.015625)"/>
       <path d="M 2597 2516 
Q 3050 2419 3304 2112 
Q 3559 1806 3559 1356 
Q 3559 666 3084 287 
Q 2609 -91 1734 -91 
Q 1441 -91 1130 -33 
Q 819 25 488 141 
L 488 750 
Q 750 597 1062 519 
Q 1375 441 1716 441 
Q 2309 441 2620 675 
Q 2931 909 2931 1356 
Q 2931 1769 2642 2001 
Q 2353 2234 1838 2234 
L 1294 2234 
L 1294 2753 
L 1863 2753 
Q 2328 2753 2575 2939 
Q 2822 3125 2822 3475 
Q 2822 3834 2567 4026 
Q 2313 4219 1838 4219 
Q 1578 4219 1281 4162 
Q 984 4106 628 3988 
L 628 4550 
Q 988 4650 1302 4700 
Q 1616 4750 1894 4750 
Q 2613 4750 3031 4423 
Q 3450 4097 3450 3541 
Q 3450 3153 3228 2886 
Q 3006 2619 2597 2516 
z
" id="DejaVuSans-33" transform="scale(0.015625)"/>
       <path d="M 513 4856 
L 1013 4856 
Q 1481 4119 1714 3412 
Q 1947 2706 1947 2009 
Q 1947 1309 1714 600 
Q 1481 -109 1013 -844 
L 513 -844 
Q 928 -128 1133 580 
Q 1338 1288 1338 2009 
Q 1338 2731 1133 3434 
Q 928 4138 513 4856 
z
" id="DejaVuSans-29" transform="scale(0.015625)"/>
      </defs>
      <use xlink:href="#DejaVuSans-50"/>
      <use x="60.302734" xlink:href="#DejaVuSans-52"/>
      <use x="129.785156" xlink:href="#DejaVuSans-20"/>
      <use x="161.572266" xlink:href="#DejaVuSans-63"/>
      <use x="216.552734" xlink:href="#DejaVuSans-75"/>
      <use x="279.931641" xlink:href="#DejaVuSans-72"/>
      <use x="321.044922" xlink:href="#DejaVuSans-76"/>
      <use x="380.224609" xlink:href="#DejaVuSans-65"/>
      <use x="441.748047" xlink:href="#DejaVuSans-20"/>
      <use x="473.535156" xlink:href="#DejaVuSans-6f"/>
      <use x="534.716797" xlink:href="#DejaVuSans-66"/>
      <use x="569.921875" xlink:href="#DejaVuSans-20"/>
      <use x="601.708984" xlink:href="#DejaVuSans-45"/>
      <use x="664.892578" xlink:href="#DejaVuSans-66"/>
      <use x="700.097656" xlink:href="#DejaVuSans-66"/>
      <use x="735.302734" xlink:href="#DejaVuSans-65"/>
      <use x="796.826172" xlink:href="#DejaVuSans-63"/>
      <use x="851.806641" xlink:href="#DejaVuSans-74"/>
      <use x="891.015625" xlink:href="#DejaVuSans-6f"/>
      <use x="952.197266" xlink:href="#DejaVuSans-72"/>
      <use x="993.310547" xlink:href="#DejaVuSans-20"/>
      <use x="1025.097656" xlink:href="#DejaVuSans-4d"/>
      <use x="1111.376953" xlink:href="#DejaVuSans-65"/>
      <use x="1172.900391" xlink:href="#DejaVuSans-6d"/>
      <use x="1270.3125" xlink:href="#DejaVuSans-6f"/>
      <use x="1331.494141" xlink:href="#DejaVuSans-72"/>
      <use x="1372.607422" xlink:href="#DejaVuSans-79"/>
      <use x="1431.787109" xlink:href="#DejaVuSans-20"/>
      <use x="1463.574219" xlink:href="#DejaVuSans-43"/>
      <use x="1533.398438" xlink:href="#DejaVuSans-44"/>
      <use x="1610.400391" xlink:href="#DejaVuSans-34"/>
      <use x="1674.023438" xlink:href="#DejaVuSans-20"/>
      <use x="1705.810547" xlink:href="#DejaVuSans-28"/>
      <use x="1744.824219" xlink:href="#DejaVuSans-61"/>
      <use x="1806.103516" xlink:href="#DejaVuSans-72"/>
      <use x="1844.966797" xlink:href="#DejaVuSans-65"/>
      <use x="1906.490234" xlink:href="#DejaVuSans-61"/>
      <use x="1967.769531" xlink:href="#DejaVuSans-20"/>
      <use x="1999.556641" xlink:href="#DejaVuSans-3d"/>
      <use x="2083.345703" xlink:href="#DejaVuSans-20"/>
      <use x="2115.132812" xlink:href="#DejaVuSans-30"/>
      <use x="2178.755859" xlink:href="#DejaVuSans-2e"/>
      <use x="2210.542969" xlink:href="#DejaVuSans-39"/>
      <use x="2274.166016" xlink:href="#DejaVuSans-33"/>
      <use x="2337.789062" xlink:href="#DejaVuSans-29"/>
     </g>
    </g>
    <g id="line2d_21">
     <path d="M 66.6 263.648062 
L 86.6 263.648062 
" style="fill:none;stroke:#be76d1;stroke-linecap:square;stroke-width:2;"/>
    </g>
    <g id="line2d_22"/>
    <g id="text_17">
     <!-- PR curve of Naive/Central CD4 (area = 0.99) -->
     <g transform="translate(94.6 267.148062)scale(0.1 -0.1)">
      <defs>
       <path d="M 628 4666 
L 1478 4666 
L 3547 763 
L 3547 4666 
L 4159 4666 
L 4159 0 
L 3309 0 
L 1241 3903 
L 1241 0 
L 628 0 
L 628 4666 
z
" id="DejaVuSans-4e" transform="scale(0.015625)"/>
       <path d="M 1625 4666 
L 2156 4666 
L 531 -594 
L 0 -594 
L 1625 4666 
z
" id="DejaVuSans-2f" transform="scale(0.015625)"/>
      </defs>
      <use xlink:href="#DejaVuSans-50"/>
      <use x="60.302734" xlink:href="#DejaVuSans-52"/>
      <use x="129.785156" xlink:href="#DejaVuSans-20"/>
      <use x="161.572266" xlink:href="#DejaVuSans-63"/>
      <use x="216.552734" xlink:href="#DejaVuSans-75"/>
      <use x="279.931641" xlink:href="#DejaVuSans-72"/>
      <use x="321.044922" xlink:href="#DejaVuSans-76"/>
      <use x="380.224609" xlink:href="#DejaVuSans-65"/>
      <use x="441.748047" xlink:href="#DejaVuSans-20"/>
      <use x="473.535156" xlink:href="#DejaVuSans-6f"/>
      <use x="534.716797" xlink:href="#DejaVuSans-66"/>
      <use x="569.921875" xlink:href="#DejaVuSans-20"/>
      <use x="601.708984" xlink:href="#DejaVuSans-4e"/>
      <use x="676.513672" xlink:href="#DejaVuSans-61"/>
      <use x="737.792969" xlink:href="#DejaVuSans-69"/>
      <use x="765.576172" xlink:href="#DejaVuSans-76"/>
      <use x="824.755859" xlink:href="#DejaVuSans-65"/>
      <use x="886.279297" xlink:href="#DejaVuSans-2f"/>
      <use x="919.970703" xlink:href="#DejaVuSans-43"/>
      <use x="989.794922" xlink:href="#DejaVuSans-65"/>
      <use x="1051.318359" xlink:href="#DejaVuSans-6e"/>
      <use x="1114.697266" xlink:href="#DejaVuSans-74"/>
      <use x="1153.90625" xlink:href="#DejaVuSans-72"/>
      <use x="1195.019531" xlink:href="#DejaVuSans-61"/>
      <use x="1256.298828" xlink:href="#DejaVuSans-6c"/>
      <use x="1284.082031" xlink:href="#DejaVuSans-20"/>
      <use x="1315.869141" xlink:href="#DejaVuSans-43"/>
      <use x="1385.693359" xlink:href="#DejaVuSans-44"/>
      <use x="1462.695312" xlink:href="#DejaVuSans-34"/>
      <use x="1526.318359" xlink:href="#DejaVuSans-20"/>
      <use x="1558.105469" xlink:href="#DejaVuSans-28"/>
      <use x="1597.119141" xlink:href="#DejaVuSans-61"/>
      <use x="1658.398438" xlink:href="#DejaVuSans-72"/>
      <use x="1697.261719" xlink:href="#DejaVuSans-65"/>
      <use x="1758.785156" xlink:href="#DejaVuSans-61"/>
      <use x="1820.064453" xlink:href="#DejaVuSans-20"/>
      <use x="1851.851562" xlink:href="#DejaVuSans-3d"/>
      <use x="1935.640625" xlink:href="#DejaVuSans-20"/>
      <use x="1967.427734" xlink:href="#DejaVuSans-30"/>
      <use x="2031.050781" xlink:href="#DejaVuSans-2e"/>
      <use x="2062.837891" xlink:href="#DejaVuSans-39"/>
      <use x="2126.460938" xlink:href="#DejaVuSans-39"/>
      <use x="2190.083984" xlink:href="#DejaVuSans-29"/>
     </g>
    </g>
    <g id="line2d_23">
     <path d="M 66.6 278.326187 
L 86.6 278.326187 
" style="fill:none;stroke:#922d9f;stroke-linecap:square;stroke-width:2;"/>
    </g>
    <g id="line2d_24"/>
    <g id="text_18">
     <!-- PR curve of T-reg CD4 (area = 0.89) -->
     <g transform="translate(94.6 281.826187)scale(0.1 -0.1)">
      <defs>
       <path d="M -19 4666 
L 3928 4666 
L 3928 4134 
L 2272 4134 
L 2272 0 
L 1638 0 
L 1638 4134 
L -19 4134 
L -19 4666 
z
" id="DejaVuSans-54" transform="scale(0.015625)"/>
       <path d="M 313 2009 
L 1997 2009 
L 1997 1497 
L 313 1497 
L 313 2009 
z
" id="DejaVuSans-2d" transform="scale(0.015625)"/>
       <path d="M 2906 1791 
Q 2906 2416 2648 2759 
Q 2391 3103 1925 3103 
Q 1463 3103 1205 2759 
Q 947 2416 947 1791 
Q 947 1169 1205 825 
Q 1463 481 1925 481 
Q 2391 481 2648 825 
Q 2906 1169 2906 1791 
z
M 3481 434 
Q 3481 -459 3084 -895 
Q 2688 -1331 1869 -1331 
Q 1566 -1331 1297 -1286 
Q 1028 -1241 775 -1147 
L 775 -588 
Q 1028 -725 1275 -790 
Q 1522 -856 1778 -856 
Q 2344 -856 2625 -561 
Q 2906 -266 2906 331 
L 2906 616 
Q 2728 306 2450 153 
Q 2172 0 1784 0 
Q 1141 0 747 490 
Q 353 981 353 1791 
Q 353 2603 747 3093 
Q 1141 3584 1784 3584 
Q 2172 3584 2450 3431 
Q 2728 3278 2906 2969 
L 2906 3500 
L 3481 3500 
L 3481 434 
z
" id="DejaVuSans-67" transform="scale(0.015625)"/>
      </defs>
      <use xlink:href="#DejaVuSans-50"/>
      <use x="60.302734" xlink:href="#DejaVuSans-52"/>
      <use x="129.785156" xlink:href="#DejaVuSans-20"/>
      <use x="161.572266" xlink:href="#DejaVuSans-63"/>
      <use x="216.552734" xlink:href="#DejaVuSans-75"/>
      <use x="279.931641" xlink:href="#DejaVuSans-72"/>
      <use x="321.044922" xlink:href="#DejaVuSans-76"/>
      <use x="380.224609" xlink:href="#DejaVuSans-65"/>
      <use x="441.748047" xlink:href="#DejaVuSans-20"/>
      <use x="473.535156" xlink:href="#DejaVuSans-6f"/>
      <use x="534.716797" xlink:href="#DejaVuSans-66"/>
      <use x="569.921875" xlink:href="#DejaVuSans-20"/>
      <use x="601.708984" xlink:href="#DejaVuSans-54"/>
      <use x="653.667969" xlink:href="#DejaVuSans-2d"/>
      <use x="689.751953" xlink:href="#DejaVuSans-72"/>
      <use x="728.615234" xlink:href="#DejaVuSans-65"/>
      <use x="790.138672" xlink:href="#DejaVuSans-67"/>
      <use x="853.615234" xlink:href="#DejaVuSans-20"/>
      <use x="885.402344" xlink:href="#DejaVuSans-43"/>
      <use x="955.226562" xlink:href="#DejaVuSans-44"/>
      <use x="1032.228516" xlink:href="#DejaVuSans-34"/>
      <use x="1095.851562" xlink:href="#DejaVuSans-20"/>
      <use x="1127.638672" xlink:href="#DejaVuSans-28"/>
      <use x="1166.652344" xlink:href="#DejaVuSans-61"/>
      <use x="1227.931641" xlink:href="#DejaVuSans-72"/>
      <use x="1266.794922" xlink:href="#DejaVuSans-65"/>
      <use x="1328.318359" xlink:href="#DejaVuSans-61"/>
      <use x="1389.597656" xlink:href="#DejaVuSans-20"/>
      <use x="1421.384766" xlink:href="#DejaVuSans-3d"/>
      <use x="1505.173828" xlink:href="#DejaVuSans-20"/>
      <use x="1536.960938" xlink:href="#DejaVuSans-30"/>
      <use x="1600.583984" xlink:href="#DejaVuSans-2e"/>
      <use x="1632.371094" xlink:href="#DejaVuSans-38"/>
      <use x="1695.994141" xlink:href="#DejaVuSans-39"/>
      <use x="1759.617188" xlink:href="#DejaVuSans-29"/>
     </g>
    </g>
    <g id="line2d_25">
     <path d="M 66.6 293.004312 
L 86.6 293.004312 
" style="fill:none;stroke:#ff1493;stroke-dasharray:4,6.6;stroke-dashoffset:0;stroke-width:4;"/>
    </g>
    <g id="line2d_26"/>
    <g id="text_19">
     <!-- micro-average PR curve (area = 0.97) -->
     <g transform="translate(94.6 296.504312)scale(0.1 -0.1)">
      <defs>
       <path d="M 525 4666 
L 3525 4666 
L 3525 4397 
L 1831 0 
L 1172 0 
L 2766 4134 
L 525 4134 
L 525 4666 
z
" id="DejaVuSans-37" transform="scale(0.015625)"/>
      </defs>
      <use xlink:href="#DejaVuSans-6d"/>
      <use x="97.412109" xlink:href="#DejaVuSans-69"/>
      <use x="125.195312" xlink:href="#DejaVuSans-63"/>
      <use x="180.175781" xlink:href="#DejaVuSans-72"/>
      <use x="219.039062" xlink:href="#DejaVuSans-6f"/>
      <use x="282.095703" xlink:href="#DejaVuSans-2d"/>
      <use x="318.179688" xlink:href="#DejaVuSans-61"/>
      <use x="379.458984" xlink:href="#DejaVuSans-76"/>
      <use x="438.638672" xlink:href="#DejaVuSans-65"/>
      <use x="500.162109" xlink:href="#DejaVuSans-72"/>
      <use x="541.275391" xlink:href="#DejaVuSans-61"/>
      <use x="602.554688" xlink:href="#DejaVuSans-67"/>
      <use x="666.03125" xlink:href="#DejaVuSans-65"/>
      <use x="727.554688" xlink:href="#DejaVuSans-20"/>
      <use x="759.341797" xlink:href="#DejaVuSans-50"/>
      <use x="819.644531" xlink:href="#DejaVuSans-52"/>
      <use x="889.126953" xlink:href="#DejaVuSans-20"/>
      <use x="920.914062" xlink:href="#DejaVuSans-63"/>
      <use x="975.894531" xlink:href="#DejaVuSans-75"/>
      <use x="1039.273438" xlink:href="#DejaVuSans-72"/>
      <use x="1080.386719" xlink:href="#DejaVuSans-76"/>
      <use x="1139.566406" xlink:href="#DejaVuSans-65"/>
      <use x="1201.089844" xlink:href="#DejaVuSans-20"/>
      <use x="1232.876953" xlink:href="#DejaVuSans-28"/>
      <use x="1271.890625" xlink:href="#DejaVuSans-61"/>
      <use x="1333.169922" xlink:href="#DejaVuSans-72"/>
      <use x="1372.033203" xlink:href="#DejaVuSans-65"/>
      <use x="1433.556641" xlink:href="#DejaVuSans-61"/>
      <use x="1494.835938" xlink:href="#DejaVuSans-20"/>
      <use x="1526.623047" xlink:href="#DejaVuSans-3d"/>
      <use x="1610.412109" xlink:href="#DejaVuSans-20"/>
      <use x="1642.199219" xlink:href="#DejaVuSans-30"/>
      <use x="1705.822266" xlink:href="#DejaVuSans-2e"/>
      <use x="1737.609375" xlink:href="#DejaVuSans-39"/>
      <use x="1801.232422" xlink:href="#DejaVuSans-37"/>
      <use x="1864.855469" xlink:href="#DejaVuSans-29"/>
     </g>
    </g>
   </g>
  </g>
 </g>
 <defs>
  <clipPath id="pdd2f54cf64">
   <rect height="266.112" width="357.12" x="57.6" y="41.472"/>
  </clipPath>
 </defs>
</svg>
