<?xml version="1.0" encoding="utf-8" standalone="no"?>
<!DOCTYPE svg PUBLIC "-//W3C//DTD SVG 1.1//EN"
  "http://www.w3.org/Graphics/SVG/1.1/DTD/svg11.dtd">
<svg height="345.6pt" version="1.1" viewBox="0 0 460.8 345.6" width="460.8pt" xmlns="http://www.w3.org/2000/svg" xmlns:xlink="http://www.w3.org/1999/xlink">
 <metadata>
  <rdf:RDF xmlns:cc="http://creativecommons.org/ns#" xmlns:dc="http://purl.org/dc/elements/1.1/" xmlns:rdf="http://www.w3.org/1999/02/22-rdf-syntax-ns#">
   <cc:Work>
    <dc:type rdf:resource="http://purl.org/dc/dcmitype/StillImage"/>
    <dc:date>2021-08-04T23:58:25.344455</dc:date>
    <dc:format>image/svg+xml</dc:format>
    <dc:creator>
     <cc:Agent>
      <dc:title>Matplotlib v3.4.2, https://matplotlib.org/</dc:title>
     </cc:Agent>
    </dc:creator>
   </cc:Work>
  </rdf:RDF>
 </metadata>
 <defs>
  <style type="text/css">*{stroke-linecap:butt;stroke-linejoin:round;}</style>
 </defs>
 <g id="figure_1">
  <g id="patch_1">
   <path d="M 0 345.6 
L 460.8 345.6 
L 460.8 0 
L 0 0 
z
" style="fill:#ffffff;"/>
  </g>
  <g id="axes_1">
   <g id="patch_2">
    <path d="M 57.6 307.584 
L 414.72 307.584 
L 414.72 41.472 
L 57.6 41.472 
z
" style="fill:#ffffff;"/>
   </g>
   <g id="matplotlib.axis_1">
    <g id="xtick_1">
     <g id="line2d_1">
      <defs>
       <path d="M 0 0 
L 0 3.5 
" id="m32d9606b66" style="stroke:#000000;stroke-width:0.8;"/>
      </defs>
      <g>
       <use style="stroke:#000000;stroke-width:0.8;" x="57.6" xlink:href="#m32d9606b66" y="307.584"/>
      </g>
     </g>
     <g id="text_1">
      <!-- 0.0 -->
      <g transform="translate(49.648438 322.182437)scale(0.1 -0.1)">
       <defs>
        <path d="M 2034 4250 
Q 1547 4250 1301 3770 
Q 1056 3291 1056 2328 
Q 1056 1369 1301 889 
Q 1547 409 2034 409 
Q 2525 409 2770 889 
Q 3016 1369 3016 2328 
Q 3016 3291 2770 3770 
Q 2525 4250 2034 4250 
z
M 2034 4750 
Q 2819 4750 3233 4129 
Q 3647 3509 3647 2328 
Q 3647 1150 3233 529 
Q 2819 -91 2034 -91 
Q 1250 -91 836 529 
Q 422 1150 422 2328 
Q 422 3509 836 4129 
Q 1250 4750 2034 4750 
z
" id="DejaVuSans-30" transform="scale(0.015625)"/>
        <path d="M 684 794 
L 1344 794 
L 1344 0 
L 684 0 
L 684 794 
z
" id="DejaVuSans-2e" transform="scale(0.015625)"/>
       </defs>
       <use xlink:href="#DejaVuSans-30"/>
       <use x="63.623047" xlink:href="#DejaVuSans-2e"/>
       <use x="95.410156" xlink:href="#DejaVuSans-30"/>
      </g>
     </g>
    </g>
    <g id="xtick_2">
     <g id="line2d_2">
      <g>
       <use style="stroke:#000000;stroke-width:0.8;" x="129.024" xlink:href="#m32d9606b66" y="307.584"/>
      </g>
     </g>
     <g id="text_2">
      <!-- 0.2 -->
      <g transform="translate(121.072438 322.182437)scale(0.1 -0.1)">
       <defs>
        <path d="M 1228 531 
L 3431 531 
L 3431 0 
L 469 0 
L 469 531 
Q 828 903 1448 1529 
Q 2069 2156 2228 2338 
Q 2531 2678 2651 2914 
Q 2772 3150 2772 3378 
Q 2772 3750 2511 3984 
Q 2250 4219 1831 4219 
Q 1534 4219 1204 4116 
Q 875 4013 500 3803 
L 500 4441 
Q 881 4594 1212 4672 
Q 1544 4750 1819 4750 
Q 2544 4750 2975 4387 
Q 3406 4025 3406 3419 
Q 3406 3131 3298 2873 
Q 3191 2616 2906 2266 
Q 2828 2175 2409 1742 
Q 1991 1309 1228 531 
z
" id="DejaVuSans-32" transform="scale(0.015625)"/>
       </defs>
       <use xlink:href="#DejaVuSans-30"/>
       <use x="63.623047" xlink:href="#DejaVuSans-2e"/>
       <use x="95.410156" xlink:href="#DejaVuSans-32"/>
      </g>
     </g>
    </g>
    <g id="xtick_3">
     <g id="line2d_3">
      <g>
       <use style="stroke:#000000;stroke-width:0.8;" x="200.448" xlink:href="#m32d9606b66" y="307.584"/>
      </g>
     </g>
     <g id="text_3">
      <!-- 0.4 -->
      <g transform="translate(192.496438 322.182437)scale(0.1 -0.1)">
       <defs>
        <path d="M 2419 4116 
L 825 1625 
L 2419 1625 
L 2419 4116 
z
M 2253 4666 
L 3047 4666 
L 3047 1625 
L 3713 1625 
L 3713 1100 
L 3047 1100 
L 3047 0 
L 2419 0 
L 2419 1100 
L 313 1100 
L 313 1709 
L 2253 4666 
z
" id="DejaVuSans-34" transform="scale(0.015625)"/>
       </defs>
       <use xlink:href="#DejaVuSans-30"/>
       <use x="63.623047" xlink:href="#DejaVuSans-2e"/>
       <use x="95.410156" xlink:href="#DejaVuSans-34"/>
      </g>
     </g>
    </g>
    <g id="xtick_4">
     <g id="line2d_4">
      <g>
       <use style="stroke:#000000;stroke-width:0.8;" x="271.872" xlink:href="#m32d9606b66" y="307.584"/>
      </g>
     </g>
     <g id="text_4">
      <!-- 0.6 -->
      <g transform="translate(263.920438 322.182437)scale(0.1 -0.1)">
       <defs>
        <path d="M 2113 2584 
Q 1688 2584 1439 2293 
Q 1191 2003 1191 1497 
Q 1191 994 1439 701 
Q 1688 409 2113 409 
Q 2538 409 2786 701 
Q 3034 994 3034 1497 
Q 3034 2003 2786 2293 
Q 2538 2584 2113 2584 
z
M 3366 4563 
L 3366 3988 
Q 3128 4100 2886 4159 
Q 2644 4219 2406 4219 
Q 1781 4219 1451 3797 
Q 1122 3375 1075 2522 
Q 1259 2794 1537 2939 
Q 1816 3084 2150 3084 
Q 2853 3084 3261 2657 
Q 3669 2231 3669 1497 
Q 3669 778 3244 343 
Q 2819 -91 2113 -91 
Q 1303 -91 875 529 
Q 447 1150 447 2328 
Q 447 3434 972 4092 
Q 1497 4750 2381 4750 
Q 2619 4750 2861 4703 
Q 3103 4656 3366 4563 
z
" id="DejaVuSans-36" transform="scale(0.015625)"/>
       </defs>
       <use xlink:href="#DejaVuSans-30"/>
       <use x="63.623047" xlink:href="#DejaVuSans-2e"/>
       <use x="95.410156" xlink:href="#DejaVuSans-36"/>
      </g>
     </g>
    </g>
    <g id="xtick_5">
     <g id="line2d_5">
      <g>
       <use style="stroke:#000000;stroke-width:0.8;" x="343.296" xlink:href="#m32d9606b66" y="307.584"/>
      </g>
     </g>
     <g id="text_5">
      <!-- 0.8 -->
      <g transform="translate(335.344438 322.182437)scale(0.1 -0.1)">
       <defs>
        <path d="M 2034 2216 
Q 1584 2216 1326 1975 
Q 1069 1734 1069 1313 
Q 1069 891 1326 650 
Q 1584 409 2034 409 
Q 2484 409 2743 651 
Q 3003 894 3003 1313 
Q 3003 1734 2745 1975 
Q 2488 2216 2034 2216 
z
M 1403 2484 
Q 997 2584 770 2862 
Q 544 3141 544 3541 
Q 544 4100 942 4425 
Q 1341 4750 2034 4750 
Q 2731 4750 3128 4425 
Q 3525 4100 3525 3541 
Q 3525 3141 3298 2862 
Q 3072 2584 2669 2484 
Q 3125 2378 3379 2068 
Q 3634 1759 3634 1313 
Q 3634 634 3220 271 
Q 2806 -91 2034 -91 
Q 1263 -91 848 271 
Q 434 634 434 1313 
Q 434 1759 690 2068 
Q 947 2378 1403 2484 
z
M 1172 3481 
Q 1172 3119 1398 2916 
Q 1625 2713 2034 2713 
Q 2441 2713 2670 2916 
Q 2900 3119 2900 3481 
Q 2900 3844 2670 4047 
Q 2441 4250 2034 4250 
Q 1625 4250 1398 4047 
Q 1172 3844 1172 3481 
z
" id="DejaVuSans-38" transform="scale(0.015625)"/>
       </defs>
       <use xlink:href="#DejaVuSans-30"/>
       <use x="63.623047" xlink:href="#DejaVuSans-2e"/>
       <use x="95.410156" xlink:href="#DejaVuSans-38"/>
      </g>
     </g>
    </g>
    <g id="xtick_6">
     <g id="line2d_6">
      <g>
       <use style="stroke:#000000;stroke-width:0.8;" x="414.72" xlink:href="#m32d9606b66" y="307.584"/>
      </g>
     </g>
     <g id="text_6">
      <!-- 1.0 -->
      <g transform="translate(406.768438 322.182437)scale(0.1 -0.1)">
       <defs>
        <path d="M 794 531 
L 1825 531 
L 1825 4091 
L 703 3866 
L 703 4441 
L 1819 4666 
L 2450 4666 
L 2450 531 
L 3481 531 
L 3481 0 
L 794 0 
L 794 531 
z
" id="DejaVuSans-31" transform="scale(0.015625)"/>
       </defs>
       <use xlink:href="#DejaVuSans-31"/>
       <use x="63.623047" xlink:href="#DejaVuSans-2e"/>
       <use x="95.410156" xlink:href="#DejaVuSans-30"/>
      </g>
     </g>
    </g>
    <g id="text_7">
     <!-- False Positive Rate -->
     <g transform="translate(189.693594 335.860562)scale(0.1 -0.1)">
      <defs>
       <path d="M 628 4666 
L 3309 4666 
L 3309 4134 
L 1259 4134 
L 1259 2759 
L 3109 2759 
L 3109 2228 
L 1259 2228 
L 1259 0 
L 628 0 
L 628 4666 
z
" id="DejaVuSans-46" transform="scale(0.015625)"/>
       <path d="M 2194 1759 
Q 1497 1759 1228 1600 
Q 959 1441 959 1056 
Q 959 750 1161 570 
Q 1363 391 1709 391 
Q 2188 391 2477 730 
Q 2766 1069 2766 1631 
L 2766 1759 
L 2194 1759 
z
M 3341 1997 
L 3341 0 
L 2766 0 
L 2766 531 
Q 2569 213 2275 61 
Q 1981 -91 1556 -91 
Q 1019 -91 701 211 
Q 384 513 384 1019 
Q 384 1609 779 1909 
Q 1175 2209 1959 2209 
L 2766 2209 
L 2766 2266 
Q 2766 2663 2505 2880 
Q 2244 3097 1772 3097 
Q 1472 3097 1187 3025 
Q 903 2953 641 2809 
L 641 3341 
Q 956 3463 1253 3523 
Q 1550 3584 1831 3584 
Q 2591 3584 2966 3190 
Q 3341 2797 3341 1997 
z
" id="DejaVuSans-61" transform="scale(0.015625)"/>
       <path d="M 603 4863 
L 1178 4863 
L 1178 0 
L 603 0 
L 603 4863 
z
" id="DejaVuSans-6c" transform="scale(0.015625)"/>
       <path d="M 2834 3397 
L 2834 2853 
Q 2591 2978 2328 3040 
Q 2066 3103 1784 3103 
Q 1356 3103 1142 2972 
Q 928 2841 928 2578 
Q 928 2378 1081 2264 
Q 1234 2150 1697 2047 
L 1894 2003 
Q 2506 1872 2764 1633 
Q 3022 1394 3022 966 
Q 3022 478 2636 193 
Q 2250 -91 1575 -91 
Q 1294 -91 989 -36 
Q 684 19 347 128 
L 347 722 
Q 666 556 975 473 
Q 1284 391 1588 391 
Q 1994 391 2212 530 
Q 2431 669 2431 922 
Q 2431 1156 2273 1281 
Q 2116 1406 1581 1522 
L 1381 1569 
Q 847 1681 609 1914 
Q 372 2147 372 2553 
Q 372 3047 722 3315 
Q 1072 3584 1716 3584 
Q 2034 3584 2315 3537 
Q 2597 3491 2834 3397 
z
" id="DejaVuSans-73" transform="scale(0.015625)"/>
       <path d="M 3597 1894 
L 3597 1613 
L 953 1613 
Q 991 1019 1311 708 
Q 1631 397 2203 397 
Q 2534 397 2845 478 
Q 3156 559 3463 722 
L 3463 178 
Q 3153 47 2828 -22 
Q 2503 -91 2169 -91 
Q 1331 -91 842 396 
Q 353 884 353 1716 
Q 353 2575 817 3079 
Q 1281 3584 2069 3584 
Q 2775 3584 3186 3129 
Q 3597 2675 3597 1894 
z
M 3022 2063 
Q 3016 2534 2758 2815 
Q 2500 3097 2075 3097 
Q 1594 3097 1305 2825 
Q 1016 2553 972 2059 
L 3022 2063 
z
" id="DejaVuSans-65" transform="scale(0.015625)"/>
       <path id="DejaVuSans-20" transform="scale(0.015625)"/>
       <path d="M 1259 4147 
L 1259 2394 
L 2053 2394 
Q 2494 2394 2734 2622 
Q 2975 2850 2975 3272 
Q 2975 3691 2734 3919 
Q 2494 4147 2053 4147 
L 1259 4147 
z
M 628 4666 
L 2053 4666 
Q 2838 4666 3239 4311 
Q 3641 3956 3641 3272 
Q 3641 2581 3239 2228 
Q 2838 1875 2053 1875 
L 1259 1875 
L 1259 0 
L 628 0 
L 628 4666 
z
" id="DejaVuSans-50" transform="scale(0.015625)"/>
       <path d="M 1959 3097 
Q 1497 3097 1228 2736 
Q 959 2375 959 1747 
Q 959 1119 1226 758 
Q 1494 397 1959 397 
Q 2419 397 2687 759 
Q 2956 1122 2956 1747 
Q 2956 2369 2687 2733 
Q 2419 3097 1959 3097 
z
M 1959 3584 
Q 2709 3584 3137 3096 
Q 3566 2609 3566 1747 
Q 3566 888 3137 398 
Q 2709 -91 1959 -91 
Q 1206 -91 779 398 
Q 353 888 353 1747 
Q 353 2609 779 3096 
Q 1206 3584 1959 3584 
z
" id="DejaVuSans-6f" transform="scale(0.015625)"/>
       <path d="M 603 3500 
L 1178 3500 
L 1178 0 
L 603 0 
L 603 3500 
z
M 603 4863 
L 1178 4863 
L 1178 4134 
L 603 4134 
L 603 4863 
z
" id="DejaVuSans-69" transform="scale(0.015625)"/>
       <path d="M 1172 4494 
L 1172 3500 
L 2356 3500 
L 2356 3053 
L 1172 3053 
L 1172 1153 
Q 1172 725 1289 603 
Q 1406 481 1766 481 
L 2356 481 
L 2356 0 
L 1766 0 
Q 1100 0 847 248 
Q 594 497 594 1153 
L 594 3053 
L 172 3053 
L 172 3500 
L 594 3500 
L 594 4494 
L 1172 4494 
z
" id="DejaVuSans-74" transform="scale(0.015625)"/>
       <path d="M 191 3500 
L 800 3500 
L 1894 563 
L 2988 3500 
L 3597 3500 
L 2284 0 
L 1503 0 
L 191 3500 
z
" id="DejaVuSans-76" transform="scale(0.015625)"/>
       <path d="M 2841 2188 
Q 3044 2119 3236 1894 
Q 3428 1669 3622 1275 
L 4263 0 
L 3584 0 
L 2988 1197 
Q 2756 1666 2539 1819 
Q 2322 1972 1947 1972 
L 1259 1972 
L 1259 0 
L 628 0 
L 628 4666 
L 2053 4666 
Q 2853 4666 3247 4331 
Q 3641 3997 3641 3322 
Q 3641 2881 3436 2590 
Q 3231 2300 2841 2188 
z
M 1259 4147 
L 1259 2491 
L 2053 2491 
Q 2509 2491 2742 2702 
Q 2975 2913 2975 3322 
Q 2975 3731 2742 3939 
Q 2509 4147 2053 4147 
L 1259 4147 
z
" id="DejaVuSans-52" transform="scale(0.015625)"/>
      </defs>
      <use xlink:href="#DejaVuSans-46"/>
      <use x="48.394531" xlink:href="#DejaVuSans-61"/>
      <use x="109.673828" xlink:href="#DejaVuSans-6c"/>
      <use x="137.457031" xlink:href="#DejaVuSans-73"/>
      <use x="189.556641" xlink:href="#DejaVuSans-65"/>
      <use x="251.080078" xlink:href="#DejaVuSans-20"/>
      <use x="282.867188" xlink:href="#DejaVuSans-50"/>
      <use x="339.544922" xlink:href="#DejaVuSans-6f"/>
      <use x="400.726562" xlink:href="#DejaVuSans-73"/>
      <use x="452.826172" xlink:href="#DejaVuSans-69"/>
      <use x="480.609375" xlink:href="#DejaVuSans-74"/>
      <use x="519.818359" xlink:href="#DejaVuSans-69"/>
      <use x="547.601562" xlink:href="#DejaVuSans-76"/>
      <use x="606.78125" xlink:href="#DejaVuSans-65"/>
      <use x="668.304688" xlink:href="#DejaVuSans-20"/>
      <use x="700.091797" xlink:href="#DejaVuSans-52"/>
      <use x="767.324219" xlink:href="#DejaVuSans-61"/>
      <use x="828.603516" xlink:href="#DejaVuSans-74"/>
      <use x="867.8125" xlink:href="#DejaVuSans-65"/>
     </g>
    </g>
   </g>
   <g id="matplotlib.axis_2">
    <g id="ytick_1">
     <g id="line2d_7">
      <defs>
       <path d="M 0 0 
L -3.5 0 
" id="m041354b32c" style="stroke:#000000;stroke-width:0.8;"/>
      </defs>
      <g>
       <use style="stroke:#000000;stroke-width:0.8;" x="57.6" xlink:href="#m041354b32c" y="307.584"/>
      </g>
     </g>
     <g id="text_8">
      <!-- 0.0 -->
      <g transform="translate(34.696875 311.383219)scale(0.1 -0.1)">
       <use xlink:href="#DejaVuSans-30"/>
       <use x="63.623047" xlink:href="#DejaVuSans-2e"/>
       <use x="95.410156" xlink:href="#DejaVuSans-30"/>
      </g>
     </g>
    </g>
    <g id="ytick_2">
     <g id="line2d_8">
      <g>
       <use style="stroke:#000000;stroke-width:0.8;" x="57.6" xlink:href="#m041354b32c" y="256.896"/>
      </g>
     </g>
     <g id="text_9">
      <!-- 0.2 -->
      <g transform="translate(34.696875 260.695219)scale(0.1 -0.1)">
       <use xlink:href="#DejaVuSans-30"/>
       <use x="63.623047" xlink:href="#DejaVuSans-2e"/>
       <use x="95.410156" xlink:href="#DejaVuSans-32"/>
      </g>
     </g>
    </g>
    <g id="ytick_3">
     <g id="line2d_9">
      <g>
       <use style="stroke:#000000;stroke-width:0.8;" x="57.6" xlink:href="#m041354b32c" y="206.208"/>
      </g>
     </g>
     <g id="text_10">
      <!-- 0.4 -->
      <g transform="translate(34.696875 210.007219)scale(0.1 -0.1)">
       <use xlink:href="#DejaVuSans-30"/>
       <use x="63.623047" xlink:href="#DejaVuSans-2e"/>
       <use x="95.410156" xlink:href="#DejaVuSans-34"/>
      </g>
     </g>
    </g>
    <g id="ytick_4">
     <g id="line2d_10">
      <g>
       <use style="stroke:#000000;stroke-width:0.8;" x="57.6" xlink:href="#m041354b32c" y="155.52"/>
      </g>
     </g>
     <g id="text_11">
      <!-- 0.6 -->
      <g transform="translate(34.696875 159.319219)scale(0.1 -0.1)">
       <use xlink:href="#DejaVuSans-30"/>
       <use x="63.623047" xlink:href="#DejaVuSans-2e"/>
       <use x="95.410156" xlink:href="#DejaVuSans-36"/>
      </g>
     </g>
    </g>
    <g id="ytick_5">
     <g id="line2d_11">
      <g>
       <use style="stroke:#000000;stroke-width:0.8;" x="57.6" xlink:href="#m041354b32c" y="104.832"/>
      </g>
     </g>
     <g id="text_12">
      <!-- 0.8 -->
      <g transform="translate(34.696875 108.631219)scale(0.1 -0.1)">
       <use xlink:href="#DejaVuSans-30"/>
       <use x="63.623047" xlink:href="#DejaVuSans-2e"/>
       <use x="95.410156" xlink:href="#DejaVuSans-38"/>
      </g>
     </g>
    </g>
    <g id="ytick_6">
     <g id="line2d_12">
      <g>
       <use style="stroke:#000000;stroke-width:0.8;" x="57.6" xlink:href="#m041354b32c" y="54.144"/>
      </g>
     </g>
     <g id="text_13">
      <!-- 1.0 -->
      <g transform="translate(34.696875 57.943219)scale(0.1 -0.1)">
       <use xlink:href="#DejaVuSans-31"/>
       <use x="63.623047" xlink:href="#DejaVuSans-2e"/>
       <use x="95.410156" xlink:href="#DejaVuSans-30"/>
      </g>
     </g>
    </g>
    <g id="text_14">
     <!-- True Positive Rate -->
     <g transform="translate(28.617187 219.057687)rotate(-90)scale(0.1 -0.1)">
      <defs>
       <path d="M -19 4666 
L 3928 4666 
L 3928 4134 
L 2272 4134 
L 2272 0 
L 1638 0 
L 1638 4134 
L -19 4134 
L -19 4666 
z
" id="DejaVuSans-54" transform="scale(0.015625)"/>
       <path d="M 2631 2963 
Q 2534 3019 2420 3045 
Q 2306 3072 2169 3072 
Q 1681 3072 1420 2755 
Q 1159 2438 1159 1844 
L 1159 0 
L 581 0 
L 581 3500 
L 1159 3500 
L 1159 2956 
Q 1341 3275 1631 3429 
Q 1922 3584 2338 3584 
Q 2397 3584 2469 3576 
Q 2541 3569 2628 3553 
L 2631 2963 
z
" id="DejaVuSans-72" transform="scale(0.015625)"/>
       <path d="M 544 1381 
L 544 3500 
L 1119 3500 
L 1119 1403 
Q 1119 906 1312 657 
Q 1506 409 1894 409 
Q 2359 409 2629 706 
Q 2900 1003 2900 1516 
L 2900 3500 
L 3475 3500 
L 3475 0 
L 2900 0 
L 2900 538 
Q 2691 219 2414 64 
Q 2138 -91 1772 -91 
Q 1169 -91 856 284 
Q 544 659 544 1381 
z
M 1991 3584 
L 1991 3584 
z
" id="DejaVuSans-75" transform="scale(0.015625)"/>
      </defs>
      <use xlink:href="#DejaVuSans-54"/>
      <use x="46.333984" xlink:href="#DejaVuSans-72"/>
      <use x="87.447266" xlink:href="#DejaVuSans-75"/>
      <use x="150.826172" xlink:href="#DejaVuSans-65"/>
      <use x="212.349609" xlink:href="#DejaVuSans-20"/>
      <use x="244.136719" xlink:href="#DejaVuSans-50"/>
      <use x="300.814453" xlink:href="#DejaVuSans-6f"/>
      <use x="361.996094" xlink:href="#DejaVuSans-73"/>
      <use x="414.095703" xlink:href="#DejaVuSans-69"/>
      <use x="441.878906" xlink:href="#DejaVuSans-74"/>
      <use x="481.087891" xlink:href="#DejaVuSans-69"/>
      <use x="508.871094" xlink:href="#DejaVuSans-76"/>
      <use x="568.050781" xlink:href="#DejaVuSans-65"/>
      <use x="629.574219" xlink:href="#DejaVuSans-20"/>
      <use x="661.361328" xlink:href="#DejaVuSans-52"/>
      <use x="728.59375" xlink:href="#DejaVuSans-61"/>
      <use x="789.873047" xlink:href="#DejaVuSans-74"/>
      <use x="829.082031" xlink:href="#DejaVuSans-65"/>
     </g>
    </g>
   </g>
   <g id="line2d_13">
    <path clip-path="url(#pd0e142cee4)" d="M 57.6 307.584 
L 57.6 256.832955 
L 57.749298 256.832955 
L 57.749298 239.495642 
L 57.898595 239.495642 
L 57.898595 224.049672 
L 58.047893 224.049672 
L 58.047893 209.234149 
L 58.197191 209.234149 
L 58.197191 207.65803 
L 58.495786 207.65803 
L 58.495786 201.668776 
L 58.645084 201.668776 
L 58.645084 201.353552 
L 58.794381 201.353552 
L 58.794381 193.472955 
L 58.943679 193.472955 
L 58.943679 188.744597 
L 59.092977 188.744597 
L 59.092977 187.168478 
L 59.242274 187.168478 
L 59.242274 183.070567 
L 59.391572 183.070567 
L 59.391572 176.76609 
L 59.54087 176.76609 
L 59.54087 172.983403 
L 59.690167 172.983403 
L 59.690167 171.407284 
L 59.839465 171.407284 
L 59.839465 169.51594 
L 59.988763 169.51594 
L 59.988763 161.004896 
L 60.13806 161.004896 
L 60.13806 159.428776 
L 60.287358 159.428776 
L 60.287358 156.591761 
L 60.436656 156.591761 
L 60.436656 155.64609 
L 60.585953 155.64609 
L 60.585953 153.754746 
L 60.735251 153.754746 
L 60.735251 152.493851 
L 60.884548 152.493851 
L 60.884548 152.178627 
L 61.033846 152.178627 
L 61.033846 149.97206 
L 61.332441 149.97206 
L 61.332441 149.026388 
L 61.481739 149.026388 
L 61.481739 146.189373 
L 61.631037 146.189373 
L 61.631037 143.037134 
L 61.780334 143.037134 
L 61.780334 140.830567 
L 61.929632 140.830567 
L 61.929632 140.515343 
L 62.07893 140.515343 
L 62.07893 139.569672 
L 62.377525 139.569672 
L 62.377525 139.254448 
L 62.526823 139.254448 
L 62.526823 138.308776 
L 62.67612 138.308776 
L 62.67612 137.363104 
L 62.825418 137.363104 
L 62.825418 135.471761 
L 62.974716 135.471761 
L 62.974716 133.895642 
L 63.571906 133.895642 
L 63.571906 133.580418 
L 63.721204 133.580418 
L 63.721204 133.265194 
L 63.870502 133.265194 
L 63.870502 131.373851 
L 64.019799 131.373851 
L 64.019799 130.743403 
L 64.169097 130.743403 
L 64.169097 129.797731 
L 64.318395 129.797731 
L 64.318395 129.167284 
L 64.467692 129.167284 
L 64.467692 128.221612 
L 64.61699 128.221612 
L 64.61699 125.699821 
L 64.766288 125.699821 
L 64.766288 125.384597 
L 64.915585 125.384597 
L 64.915585 125.069373 
L 65.064883 125.069373 
L 65.064883 123.17803 
L 65.214181 123.17803 
L 65.214181 121.917134 
L 65.363478 121.917134 
L 65.363478 120.971463 
L 65.662074 120.971463 
L 65.662074 120.341015 
L 65.811371 120.341015 
L 65.811371 119.080119 
L 65.960669 119.080119 
L 65.960669 118.449672 
L 66.109967 118.449672 
L 66.109967 117.819224 
L 67.15505 117.819224 
L 67.15505 117.504 
L 67.304348 117.504 
L 67.304348 116.558328 
L 67.752241 116.558328 
L 67.752241 116.243104 
L 67.901538 116.243104 
L 67.901538 115.297433 
L 68.349431 115.297433 
L 68.349431 113.40609 
L 68.498729 113.40609 
L 68.498729 112.460418 
L 68.797324 112.460418 
L 68.797324 112.145194 
L 68.946622 112.145194 
L 68.946622 111.514746 
L 69.09592 111.514746 
L 69.09592 110.253851 
L 69.543813 110.253851 
L 69.543813 109.623403 
L 69.842408 109.623403 
L 69.842408 108.992955 
L 70.141003 108.992955 
L 70.141003 108.677731 
L 70.290301 108.677731 
L 70.290301 108.047284 
L 70.588896 108.047284 
L 70.588896 107.416836 
L 70.738194 107.416836 
L 70.738194 106.15594 
L 70.887492 106.15594 
L 70.887492 105.210269 
L 71.186087 105.210269 
L 71.186087 104.264597 
L 71.335385 104.264597 
L 71.335385 103.949373 
L 71.484682 103.949373 
L 71.484682 103.634149 
L 71.783278 103.634149 
L 71.783278 103.318925 
L 72.529766 103.318925 
L 72.529766 102.373254 
L 73.126957 102.373254 
L 73.126957 101.427582 
L 73.425552 101.427582 
L 73.425552 101.112358 
L 73.574849 101.112358 
L 73.574849 100.797134 
L 74.17204 100.797134 
L 74.17204 99.536239 
L 74.321338 99.536239 
L 74.321338 99.221015 
L 74.470635 99.221015 
L 74.470635 98.905791 
L 74.619933 98.905791 
L 74.619933 97.329672 
L 75.067826 97.329672 
L 75.067826 96.384 
L 75.366421 96.384 
L 75.366421 96.068776 
L 75.515719 96.068776 
L 75.515719 95.753552 
L 75.665017 95.753552 
L 75.665017 95.438328 
L 76.560803 95.438328 
L 76.560803 95.123104 
L 76.7101 95.123104 
L 76.7101 94.807881 
L 76.859398 94.807881 
L 76.859398 94.177433 
L 77.755184 94.177433 
L 77.755184 93.862209 
L 78.352375 93.862209 
L 78.352375 93.546985 
L 79.397458 93.546985 
L 79.397458 93.231761 
L 79.546756 93.231761 
L 79.546756 92.916537 
L 79.845351 92.916537 
L 79.845351 92.601313 
L 80.143946 92.601313 
L 80.143946 91.655642 
L 80.442542 91.655642 
L 80.442542 90.70997 
L 80.741137 90.70997 
L 80.741137 90.079522 
L 80.890435 90.079522 
L 80.890435 89.764299 
L 81.18903 89.764299 
L 81.18903 88.818627 
L 81.338328 88.818627 
L 81.338328 88.503403 
L 81.636923 88.503403 
L 81.636923 88.188179 
L 82.084816 88.188179 
L 82.084816 87.872955 
L 82.532709 87.872955 
L 82.532709 87.242507 
L 82.831304 87.242507 
L 82.831304 86.61206 
L 83.1299 86.61206 
L 83.1299 85.981612 
L 83.577793 85.981612 
L 83.577793 85.666388 
L 84.622876 85.666388 
L 84.622876 85.03594 
L 85.070769 85.03594 
L 85.070769 84.720716 
L 85.817258 84.720716 
L 85.817258 84.405493 
L 86.265151 84.405493 
L 86.265151 83.144597 
L 86.414448 83.144597 
L 86.414448 82.514149 
L 86.563746 82.514149 
L 86.563746 82.198925 
L 86.862341 82.198925 
L 86.862341 81.883701 
L 87.160936 81.883701 
L 87.160936 80.93803 
L 87.310234 80.93803 
L 87.310234 80.622806 
L 87.758127 80.622806 
L 87.758127 79.992358 
L 87.907425 79.992358 
L 87.907425 79.677134 
L 88.056722 79.677134 
L 88.056722 79.36191 
L 88.504615 79.36191 
L 88.504615 79.046687 
L 88.803211 79.046687 
L 88.803211 78.731463 
L 89.400401 78.731463 
L 89.400401 78.101015 
L 89.549699 78.101015 
L 89.549699 77.785791 
L 89.997592 77.785791 
L 89.997592 77.470567 
L 90.14689 77.470567 
L 90.14689 76.840119 
L 90.445485 76.840119 
L 90.445485 76.524896 
L 90.594783 76.524896 
L 90.594783 76.209672 
L 90.74408 76.209672 
L 90.74408 75.579224 
L 91.191973 75.579224 
L 91.191973 75.264 
L 91.938462 75.264 
L 91.938462 74.633552 
L 92.237057 74.633552 
L 92.237057 74.318328 
L 92.386355 74.318328 
L 92.386355 73.687881 
L 92.834247 73.687881 
L 92.834247 73.372657 
L 93.28214 73.372657 
L 93.28214 72.742209 
L 93.580736 72.742209 
L 93.580736 72.426985 
L 94.327224 72.426985 
L 94.327224 71.796537 
L 94.924415 71.796537 
L 94.924415 71.481313 
L 96.715987 71.481313 
L 96.715987 71.16609 
L 96.865284 71.16609 
L 96.865284 70.850866 
L 97.16388 70.850866 
L 97.16388 70.220418 
L 97.462475 70.220418 
L 97.462475 69.905194 
L 97.76107 69.905194 
L 97.76107 69.58997 
L 98.208963 69.58997 
L 98.208963 69.274746 
L 98.358261 69.274746 
L 98.358261 68.959522 
L 98.656856 68.959522 
L 98.656856 68.644299 
L 99.403344 68.644299 
L 99.403344 68.329075 
L 99.552642 68.329075 
L 99.552642 68.013851 
L 99.70194 68.013851 
L 99.70194 67.383403 
L 99.851237 67.383403 
L 99.851237 66.752955 
L 100.29913 66.752955 
L 100.29913 66.437731 
L 101.045619 66.437731 
L 101.045619 66.122507 
L 102.389298 66.122507 
L 102.389298 65.49206 
L 102.687893 65.49206 
L 102.687893 65.176836 
L 104.330167 65.176836 
L 104.330167 64.861612 
L 104.628763 64.861612 
L 104.628763 64.546388 
L 104.927358 64.546388 
L 104.927358 64.231164 
L 105.076656 64.231164 
L 105.076656 63.91594 
L 105.524548 63.91594 
L 105.524548 63.600716 
L 106.71893 63.600716 
L 106.71893 63.285493 
L 108.958395 63.285493 
L 108.958395 62.970269 
L 110.600669 62.970269 
L 110.600669 62.655045 
L 111.496455 62.655045 
L 111.496455 62.024597 
L 114.33311 62.024597 
L 114.33311 61.709373 
L 117.020468 61.709373 
L 117.020468 61.078925 
L 121.648696 61.078925 
L 121.648696 60.763701 
L 122.843077 60.763701 
L 122.843077 60.448478 
L 123.888161 60.448478 
L 123.888161 60.133254 
L 124.336054 60.133254 
L 124.336054 59.81803 
L 125.231839 59.81803 
L 125.231839 59.502806 
L 127.172709 59.502806 
L 127.172709 59.187582 
L 127.471304 59.187582 
L 127.471304 58.872358 
L 139.116522 58.872358 
L 139.116522 58.557134 
L 139.564415 58.557134 
L 139.564415 58.24191 
L 147.925084 58.24191 
L 147.925084 57.926687 
L 151.95612 57.926687 
L 151.95612 57.611463 
L 154.494181 57.611463 
L 154.494181 57.296239 
L 156.43505 57.296239 
L 156.43505 56.981015 
L 162.108361 56.981015 
L 162.108361 56.665791 
L 167.781672 56.665791 
L 167.781672 56.350567 
L 173.902876 56.350567 
L 173.902876 56.035343 
L 175.246555 56.035343 
L 175.246555 55.720119 
L 190.624214 55.720119 
L 190.624214 55.404896 
L 206.300468 55.404896 
L 206.300468 55.089672 
L 214.063946 55.089672 
L 214.063946 54.774448 
L 232.875452 54.774448 
L 232.875452 54.459224 
L 259.151839 54.459224 
L 259.151839 54.144 
L 414.72 54.144 
L 414.72 54.144 
" style="fill:none;stroke:#577ffb;stroke-linecap:square;stroke-width:2;"/>
   </g>
   <g id="line2d_14">
    <path clip-path="url(#pd0e142cee4)" d="M 57.6 307.584 
L 57.6 207.938924 
L 57.947055 207.938924 
L 57.947055 178.934254 
L 58.294111 178.934254 
L 58.294111 167.238822 
L 58.641166 167.238822 
L 58.641166 151.216081 
L 58.988222 151.216081 
L 58.988222 148.643086 
L 59.335277 148.643086 
L 59.335277 145.602274 
L 59.682332 145.602274 
L 59.682332 134.491614 
L 60.029388 134.491614 
L 60.029388 132.854254 
L 60.376443 132.854254 
L 60.376443 130.86603 
L 60.723499 130.86603 
L 60.723499 128.760853 
L 61.070554 128.760853 
L 61.070554 126.421766 
L 61.417609 126.421766 
L 61.417609 120.691005 
L 61.764665 120.691005 
L 61.764665 119.989279 
L 62.11172 119.989279 
L 62.11172 113.673746 
L 62.458776 113.673746 
L 62.458776 112.387249 
L 62.805831 112.387249 
L 62.805831 112.270294 
L 63.152886 112.270294 
L 63.152886 109.229482 
L 63.499942 109.229482 
L 63.499942 109.112528 
L 63.846997 109.112528 
L 63.846997 106.305624 
L 64.541108 106.305624 
L 64.541108 101.04268 
L 64.888163 101.04268 
L 64.888163 99.40532 
L 65.235219 99.40532 
L 65.235219 97.767959 
L 65.582274 97.767959 
L 65.582274 97.183188 
L 65.929329 97.183188 
L 65.929329 96.013645 
L 66.276385 96.013645 
L 66.276385 93.908467 
L 66.62344 93.908467 
L 66.62344 92.154152 
L 66.970496 92.154152 
L 66.970496 91.452426 
L 67.664606 91.452426 
L 67.664606 91.335472 
L 68.011662 91.335472 
L 68.011662 91.101563 
L 68.358717 91.101563 
L 68.358717 90.516792 
L 68.705773 90.516792 
L 68.705773 89.93202 
L 69.052828 89.93202 
L 69.052828 87.709888 
L 69.399883 87.709888 
L 69.399883 86.540345 
L 69.746939 86.540345 
L 69.746939 85.487756 
L 70.093994 85.487756 
L 70.093994 84.552122 
L 71.13516 84.552122 
L 71.13516 83.850396 
L 71.482216 83.850396 
L 71.482216 83.499533 
L 71.829271 83.499533 
L 71.829271 83.14867 
L 72.523382 83.14867 
L 72.523382 82.563898 
L 72.870437 82.563898 
L 72.870437 82.446944 
L 73.217493 82.446944 
L 73.217493 82.32999 
L 73.911603 82.32999 
L 73.911603 82.213036 
L 74.95277 82.213036 
L 74.95277 81.862173 
L 75.299825 81.862173 
L 75.299825 81.394355 
L 75.64688 81.394355 
L 75.64688 81.277401 
L 75.993936 81.277401 
L 75.993936 80.107858 
L 76.340991 80.107858 
L 76.340991 79.990904 
L 76.688047 79.990904 
L 76.688047 79.406132 
L 77.035102 79.406132 
L 77.035102 78.704406 
L 78.076268 78.704406 
L 78.076268 77.885726 
L 78.423324 77.885726 
L 78.423324 77.651817 
L 78.770379 77.651817 
L 78.770379 77.534863 
L 79.117434 77.534863 
L 79.117434 77.417909 
L 79.811545 77.417909 
L 79.811545 77.067046 
L 80.158601 77.067046 
L 80.158601 76.482274 
L 80.505656 76.482274 
L 80.505656 76.248365 
L 80.852711 76.248365 
L 80.852711 75.54664 
L 81.546822 75.54664 
L 81.546822 75.078822 
L 82.935044 75.078822 
L 82.935044 74.961868 
L 84.670321 74.961868 
L 84.670321 74.611005 
L 85.364431 74.611005 
L 85.364431 74.494051 
L 85.711487 74.494051 
L 85.711487 74.377096 
L 87.099708 74.377096 
L 87.099708 74.260142 
L 87.793819 74.260142 
L 87.793819 74.143188 
L 88.48793 74.143188 
L 88.48793 74.026234 
L 89.182041 74.026234 
L 89.182041 73.675371 
L 89.529096 73.675371 
L 89.529096 73.558416 
L 89.876152 73.558416 
L 89.876152 73.207553 
L 90.223207 73.207553 
L 90.223207 73.090599 
L 90.570262 73.090599 
L 90.570262 72.85669 
L 91.264373 72.85669 
L 91.264373 72.739736 
L 91.611429 72.739736 
L 91.611429 72.505827 
L 91.958484 72.505827 
L 91.958484 71.570193 
L 92.652595 71.570193 
L 92.652595 71.453239 
L 92.99965 71.453239 
L 92.99965 71.336284 
L 93.346706 71.336284 
L 93.346706 71.102376 
L 93.693761 71.102376 
L 93.693761 70.985421 
L 96.470204 70.985421 
L 96.470204 70.868467 
L 96.817259 70.868467 
L 96.817259 70.751513 
L 97.164315 70.751513 
L 97.164315 70.517604 
L 97.51137 70.517604 
L 97.51137 70.40065 
L 98.205481 70.40065 
L 98.205481 69.698924 
L 98.552536 69.698924 
L 98.552536 69.465015 
L 98.899592 69.465015 
L 98.899592 68.880244 
L 99.246647 68.880244 
L 99.246647 68.412426 
L 99.593703 68.412426 
L 99.593703 68.061563 
L 100.287813 68.061563 
L 100.287813 67.827655 
L 100.634869 67.827655 
L 100.634869 67.710701 
L 101.676035 67.710701 
L 101.676035 67.593746 
L 102.02309 67.593746 
L 102.02309 67.359838 
L 102.370146 67.359838 
L 102.370146 67.125929 
L 103.064257 67.125929 
L 103.064257 67.008975 
L 104.105423 67.008975 
L 104.105423 66.541157 
L 104.452478 66.541157 
L 104.452478 66.307249 
L 105.146589 66.307249 
L 105.146589 66.07334 
L 106.187755 66.07334 
L 106.187755 65.956386 
L 106.881866 65.956386 
L 106.881866 65.839431 
L 107.228921 65.839431 
L 107.228921 65.722477 
L 107.923032 65.722477 
L 107.923032 65.605523 
L 108.617143 65.605523 
L 108.617143 65.488569 
L 109.311254 65.488569 
L 109.311254 65.25466 
L 110.005364 65.25466 
L 110.005364 65.137706 
L 110.35242 65.137706 
L 110.35242 64.903797 
L 111.393586 64.903797 
L 111.393586 64.786843 
L 111.740641 64.786843 
L 111.740641 64.552934 
L 112.434752 64.552934 
L 112.434752 64.202071 
L 112.781808 64.202071 
L 112.781808 64.085117 
L 113.822974 64.085117 
L 113.822974 63.734254 
L 114.517085 63.734254 
L 114.517085 63.500345 
L 114.86414 63.500345 
L 114.86414 63.266437 
L 115.211195 63.266437 
L 115.211195 63.149482 
L 115.905306 63.149482 
L 115.905306 63.032528 
L 116.946472 63.032528 
L 116.946472 62.915574 
L 117.293528 62.915574 
L 117.293528 62.564711 
L 117.640583 62.564711 
L 117.640583 62.330802 
L 117.987638 62.330802 
L 117.987638 62.213848 
L 118.334694 62.213848 
L 118.334694 62.096893 
L 121.458192 62.096893 
L 121.458192 61.979939 
L 122.152303 61.979939 
L 122.152303 61.629076 
L 123.540525 61.629076 
L 123.540525 61.395168 
L 123.88758 61.395168 
L 123.88758 61.278213 
L 124.581691 61.278213 
L 124.581691 61.044305 
L 124.928746 61.044305 
L 124.928746 60.92735 
L 125.275802 60.92735 
L 125.275802 60.693442 
L 126.316968 60.693442 
L 126.316968 60.459533 
L 128.3993 60.459533 
L 128.3993 60.342579 
L 128.746356 60.342579 
L 128.746356 60.225624 
L 129.093411 60.225624 
L 129.093411 59.874761 
L 130.828688 59.874761 
L 130.828688 59.757807 
L 133.952187 59.757807 
L 133.952187 59.640853 
L 134.646297 59.640853 
L 134.646297 59.523898 
L 135.687464 59.523898 
L 135.687464 59.406944 
L 136.381574 59.406944 
L 136.381574 59.28999 
L 137.075685 59.28999 
L 137.075685 59.056081 
L 137.422741 59.056081 
L 137.422741 58.939127 
L 138.116851 58.939127 
L 138.116851 58.822173 
L 140.893294 58.822173 
L 140.893294 58.705218 
L 141.24035 58.705218 
L 141.24035 58.588264 
L 141.934461 58.588264 
L 141.934461 58.47131 
L 142.281516 58.47131 
L 142.281516 58.354355 
L 142.975627 58.354355 
L 142.975627 58.237401 
L 146.446181 58.237401 
L 146.446181 58.003492 
L 147.140292 58.003492 
L 147.140292 57.886538 
L 147.834402 57.886538 
L 147.834402 57.769584 
L 149.916735 57.769584 
L 149.916735 57.535675 
L 150.957901 57.535675 
L 150.957901 57.418721 
L 153.387289 57.418721 
L 153.387289 57.184812 
L 155.816676 57.184812 
L 155.816676 57.067858 
L 158.246064 57.067858 
L 158.246064 56.950904 
L 159.981341 56.950904 
L 159.981341 56.833949 
L 162.757784 56.833949 
L 162.757784 56.716995 
L 163.10484 56.716995 
L 163.10484 56.600041 
L 163.79895 56.600041 
L 163.79895 56.483086 
L 164.493061 56.483086 
L 164.493061 56.366132 
L 164.840117 56.366132 
L 164.840117 56.249178 
L 165.187172 56.249178 
L 165.187172 56.132223 
L 169.004781 56.132223 
L 169.004781 56.015269 
L 170.393003 56.015269 
L 170.393003 55.78136 
L 176.64 55.78136 
L 176.64 55.664406 
L 180.110554 55.664406 
L 180.110554 55.547452 
L 187.745773 55.547452 
L 187.745773 55.430497 
L 199.892711 55.430497 
L 199.892711 55.313543 
L 203.710321 55.313543 
L 203.710321 55.196589 
L 214.469038 55.196589 
L 214.469038 55.079635 
L 220.716035 55.079635 
L 220.716035 54.96268 
L 235.986472 54.96268 
L 235.986472 54.845726 
L 236.680583 54.845726 
L 236.680583 54.728772 
L 240.151137 54.728772 
L 240.151137 54.611817 
L 245.704023 54.611817 
L 245.704023 54.494863 
L 268.956735 54.494863 
L 268.956735 54.377909 
L 269.30379 54.377909 
L 269.30379 54.260954 
L 313.03277 54.260954 
L 313.03277 54.144 
L 414.72 54.144 
L 414.72 54.144 
" style="fill:none;stroke:#f798a5;stroke-linecap:square;stroke-width:2;"/>
   </g>
   <g id="line2d_15">
    <path clip-path="url(#pd0e142cee4)" d="M 57.6 307.584 
L 57.6 306.4576 
L 57.6 259.1488 
L 57.720202 259.1488 
L 57.720202 189.312 
L 57.840404 189.312 
L 57.840404 173.5424 
L 57.960606 173.5424 
L 57.960606 166.784 
L 58.080808 166.784 
L 58.080808 163.4048 
L 58.20101 163.4048 
L 58.20101 135.2448 
L 58.441414 135.2448 
L 58.441414 134.1184 
L 58.561616 134.1184 
L 58.561616 123.9808 
L 58.681818 123.9808 
L 58.681818 120.6016 
L 58.922221 120.6016 
L 58.922221 119.4752 
L 59.162625 119.4752 
L 59.162625 118.3488 
L 59.282827 118.3488 
L 59.282827 117.2224 
L 59.403029 117.2224 
L 59.403029 113.8432 
L 59.523231 113.8432 
L 59.523231 112.7168 
L 59.643433 112.7168 
L 59.643433 111.5904 
L 60.004039 111.5904 
L 60.004039 110.464 
L 60.845453 110.464 
L 60.845453 109.3376 
L 61.326261 109.3376 
L 61.326261 108.2112 
L 61.566664 108.2112 
L 61.566664 105.9584 
L 61.92727 105.9584 
L 61.92727 104.832 
L 62.287876 104.832 
L 62.287876 103.7056 
L 62.408078 103.7056 
L 62.408078 102.5792 
L 62.648482 102.5792 
L 62.648482 101.4528 
L 63.12929 101.4528 
L 63.12929 99.2 
L 63.249492 99.2 
L 63.249492 98.0736 
L 63.610098 98.0736 
L 63.610098 96.9472 
L 64.331309 96.9472 
L 64.331309 95.8208 
L 65.653531 95.8208 
L 65.653531 94.6944 
L 66.134339 94.6944 
L 66.134339 93.568 
L 66.374743 93.568 
L 66.374743 92.4416 
L 66.494944 92.4416 
L 66.494944 91.3152 
L 67.216156 91.3152 
L 67.216156 90.1888 
L 68.538378 90.1888 
L 68.538378 87.936 
L 69.499993 87.936 
L 69.499993 86.8096 
L 69.620195 86.8096 
L 69.620195 84.5568 
L 69.980801 84.5568 
L 69.980801 82.304 
L 70.341407 82.304 
L 70.341407 81.1776 
L 70.581811 81.1776 
L 70.581811 78.9248 
L 72.505042 78.9248 
L 72.505042 77.7984 
L 73.106052 77.7984 
L 73.106052 75.5456 
L 73.466658 75.5456 
L 73.466658 74.4192 
L 74.548475 74.4192 
L 74.548475 73.2928 
L 75.149485 73.2928 
L 75.149485 72.1664 
L 75.269687 72.1664 
L 75.269687 71.04 
L 77.793928 71.04 
L 77.793928 69.9136 
L 87.16968 69.9136 
L 87.16968 68.7872 
L 87.410084 68.7872 
L 87.410084 67.6608 
L 88.131296 67.6608 
L 88.131296 66.5344 
L 94.381797 66.5344 
L 94.381797 65.408 
L 116.498957 65.408 
L 116.498957 64.2816 
L 120.225217 64.2816 
L 120.225217 63.1552 
L 126.115113 63.1552 
L 126.115113 62.0288 
L 144.866617 62.0288 
L 144.866617 60.9024 
L 147.150454 60.9024 
L 147.150454 59.776 
L 155.203985 59.776 
L 155.203985 58.6496 
L 168.907008 58.6496 
L 168.907008 57.5232 
L 176.840337 57.5232 
L 176.840337 56.3968 
L 187.177704 56.3968 
L 187.177704 55.2704 
L 200.520121 55.2704 
L 200.520121 54.144 
L 232.974648 54.144 
L 233.215052 54.144 
L 408.469498 54.144 
L 408.709902 54.144 
L 411.835153 54.144 
L 412.075557 54.144 
L 414.72 54.144 
" style="fill:none;stroke:#9e18c5;stroke-linecap:square;stroke-width:2;"/>
   </g>
   <g id="line2d_16">
    <path clip-path="url(#pd0e142cee4)" d="M 57.6 307.584 
L 414.72 54.144 
" style="fill:none;stroke:#000000;stroke-dasharray:7.4,3.2;stroke-dashoffset:0;stroke-width:2;"/>
   </g>
   <g id="patch_3">
    <path d="M 57.6 307.584 
L 57.6 41.472 
" style="fill:none;stroke:#000000;stroke-linecap:square;stroke-linejoin:miter;stroke-width:0.8;"/>
   </g>
   <g id="patch_4">
    <path d="M 414.72 307.584 
L 414.72 41.472 
" style="fill:none;stroke:#000000;stroke-linecap:square;stroke-linejoin:miter;stroke-width:0.8;"/>
   </g>
   <g id="patch_5">
    <path d="M 57.6 307.584 
L 414.72 307.584 
" style="fill:none;stroke:#000000;stroke-linecap:square;stroke-linejoin:miter;stroke-width:0.8;"/>
   </g>
   <g id="patch_6">
    <path d="M 57.6 41.472 
L 414.72 41.472 
" style="fill:none;stroke:#000000;stroke-linecap:square;stroke-linejoin:miter;stroke-width:0.8;"/>
   </g>
   <g id="text_15">
    <!-- Class ROC Curves -->
    <g transform="translate(182.652187 35.472)scale(0.12 -0.12)">
     <defs>
      <path d="M 4122 4306 
L 4122 3641 
Q 3803 3938 3442 4084 
Q 3081 4231 2675 4231 
Q 1875 4231 1450 3742 
Q 1025 3253 1025 2328 
Q 1025 1406 1450 917 
Q 1875 428 2675 428 
Q 3081 428 3442 575 
Q 3803 722 4122 1019 
L 4122 359 
Q 3791 134 3420 21 
Q 3050 -91 2638 -91 
Q 1578 -91 968 557 
Q 359 1206 359 2328 
Q 359 3453 968 4101 
Q 1578 4750 2638 4750 
Q 3056 4750 3426 4639 
Q 3797 4528 4122 4306 
z
" id="DejaVuSans-43" transform="scale(0.015625)"/>
      <path d="M 2522 4238 
Q 1834 4238 1429 3725 
Q 1025 3213 1025 2328 
Q 1025 1447 1429 934 
Q 1834 422 2522 422 
Q 3209 422 3611 934 
Q 4013 1447 4013 2328 
Q 4013 3213 3611 3725 
Q 3209 4238 2522 4238 
z
M 2522 4750 
Q 3503 4750 4090 4092 
Q 4678 3434 4678 2328 
Q 4678 1225 4090 567 
Q 3503 -91 2522 -91 
Q 1538 -91 948 565 
Q 359 1222 359 2328 
Q 359 3434 948 4092 
Q 1538 4750 2522 4750 
z
" id="DejaVuSans-4f" transform="scale(0.015625)"/>
     </defs>
     <use xlink:href="#DejaVuSans-43"/>
     <use x="69.824219" xlink:href="#DejaVuSans-6c"/>
     <use x="97.607422" xlink:href="#DejaVuSans-61"/>
     <use x="158.886719" xlink:href="#DejaVuSans-73"/>
     <use x="210.986328" xlink:href="#DejaVuSans-73"/>
     <use x="263.085938" xlink:href="#DejaVuSans-20"/>
     <use x="294.873047" xlink:href="#DejaVuSans-52"/>
     <use x="364.355469" xlink:href="#DejaVuSans-4f"/>
     <use x="443.066406" xlink:href="#DejaVuSans-43"/>
     <use x="512.890625" xlink:href="#DejaVuSans-20"/>
     <use x="544.677734" xlink:href="#DejaVuSans-43"/>
     <use x="614.501953" xlink:href="#DejaVuSans-75"/>
     <use x="677.880859" xlink:href="#DejaVuSans-72"/>
     <use x="718.994141" xlink:href="#DejaVuSans-76"/>
     <use x="778.173828" xlink:href="#DejaVuSans-65"/>
     <use x="839.697266" xlink:href="#DejaVuSans-73"/>
    </g>
   </g>
   <g id="legend_1">
    <g id="patch_7">
     <path d="M 129.21375 302.584 
L 407.72 302.584 
Q 409.72 302.584 409.72 300.584 
L 409.72 257.549625 
Q 409.72 255.549625 407.72 255.549625 
L 129.21375 255.549625 
Q 127.21375 255.549625 127.21375 257.549625 
L 127.21375 300.584 
Q 127.21375 302.584 129.21375 302.584 
z
" style="fill:#ffffff;opacity:0.8;stroke:#cccccc;stroke-linejoin:miter;"/>
    </g>
    <g id="line2d_17">
     <path d="M 131.21375 263.648062 
L 151.21375 263.648062 
" style="fill:none;stroke:#577ffb;stroke-linecap:square;stroke-width:2;"/>
    </g>
    <g id="line2d_18"/>
    <g id="text_16">
     <!-- ROC curve of Effector Memory CD4 (area = 0.97) -->
     <g transform="translate(159.21375 267.148062)scale(0.1 -0.1)">
      <defs>
       <path d="M 3122 3366 
L 3122 2828 
Q 2878 2963 2633 3030 
Q 2388 3097 2138 3097 
Q 1578 3097 1268 2742 
Q 959 2388 959 1747 
Q 959 1106 1268 751 
Q 1578 397 2138 397 
Q 2388 397 2633 464 
Q 2878 531 3122 666 
L 3122 134 
Q 2881 22 2623 -34 
Q 2366 -91 2075 -91 
Q 1284 -91 818 406 
Q 353 903 353 1747 
Q 353 2603 823 3093 
Q 1294 3584 2113 3584 
Q 2378 3584 2631 3529 
Q 2884 3475 3122 3366 
z
" id="DejaVuSans-63" transform="scale(0.015625)"/>
       <path d="M 2375 4863 
L 2375 4384 
L 1825 4384 
Q 1516 4384 1395 4259 
Q 1275 4134 1275 3809 
L 1275 3500 
L 2222 3500 
L 2222 3053 
L 1275 3053 
L 1275 0 
L 697 0 
L 697 3053 
L 147 3053 
L 147 3500 
L 697 3500 
L 697 3744 
Q 697 4328 969 4595 
Q 1241 4863 1831 4863 
L 2375 4863 
z
" id="DejaVuSans-66" transform="scale(0.015625)"/>
       <path d="M 628 4666 
L 3578 4666 
L 3578 4134 
L 1259 4134 
L 1259 2753 
L 3481 2753 
L 3481 2222 
L 1259 2222 
L 1259 531 
L 3634 531 
L 3634 0 
L 628 0 
L 628 4666 
z
" id="DejaVuSans-45" transform="scale(0.015625)"/>
       <path d="M 628 4666 
L 1569 4666 
L 2759 1491 
L 3956 4666 
L 4897 4666 
L 4897 0 
L 4281 0 
L 4281 4097 
L 3078 897 
L 2444 897 
L 1241 4097 
L 1241 0 
L 628 0 
L 628 4666 
z
" id="DejaVuSans-4d" transform="scale(0.015625)"/>
       <path d="M 3328 2828 
Q 3544 3216 3844 3400 
Q 4144 3584 4550 3584 
Q 5097 3584 5394 3201 
Q 5691 2819 5691 2113 
L 5691 0 
L 5113 0 
L 5113 2094 
Q 5113 2597 4934 2840 
Q 4756 3084 4391 3084 
Q 3944 3084 3684 2787 
Q 3425 2491 3425 1978 
L 3425 0 
L 2847 0 
L 2847 2094 
Q 2847 2600 2669 2842 
Q 2491 3084 2119 3084 
Q 1678 3084 1418 2786 
Q 1159 2488 1159 1978 
L 1159 0 
L 581 0 
L 581 3500 
L 1159 3500 
L 1159 2956 
Q 1356 3278 1631 3431 
Q 1906 3584 2284 3584 
Q 2666 3584 2933 3390 
Q 3200 3197 3328 2828 
z
" id="DejaVuSans-6d" transform="scale(0.015625)"/>
       <path d="M 2059 -325 
Q 1816 -950 1584 -1140 
Q 1353 -1331 966 -1331 
L 506 -1331 
L 506 -850 
L 844 -850 
Q 1081 -850 1212 -737 
Q 1344 -625 1503 -206 
L 1606 56 
L 191 3500 
L 800 3500 
L 1894 763 
L 2988 3500 
L 3597 3500 
L 2059 -325 
z
" id="DejaVuSans-79" transform="scale(0.015625)"/>
       <path d="M 1259 4147 
L 1259 519 
L 2022 519 
Q 2988 519 3436 956 
Q 3884 1394 3884 2338 
Q 3884 3275 3436 3711 
Q 2988 4147 2022 4147 
L 1259 4147 
z
M 628 4666 
L 1925 4666 
Q 3281 4666 3915 4102 
Q 4550 3538 4550 2338 
Q 4550 1131 3912 565 
Q 3275 0 1925 0 
L 628 0 
L 628 4666 
z
" id="DejaVuSans-44" transform="scale(0.015625)"/>
       <path d="M 1984 4856 
Q 1566 4138 1362 3434 
Q 1159 2731 1159 2009 
Q 1159 1288 1364 580 
Q 1569 -128 1984 -844 
L 1484 -844 
Q 1016 -109 783 600 
Q 550 1309 550 2009 
Q 550 2706 781 3412 
Q 1013 4119 1484 4856 
L 1984 4856 
z
" id="DejaVuSans-28" transform="scale(0.015625)"/>
       <path d="M 678 2906 
L 4684 2906 
L 4684 2381 
L 678 2381 
L 678 2906 
z
M 678 1631 
L 4684 1631 
L 4684 1100 
L 678 1100 
L 678 1631 
z
" id="DejaVuSans-3d" transform="scale(0.015625)"/>
       <path d="M 703 97 
L 703 672 
Q 941 559 1184 500 
Q 1428 441 1663 441 
Q 2288 441 2617 861 
Q 2947 1281 2994 2138 
Q 2813 1869 2534 1725 
Q 2256 1581 1919 1581 
Q 1219 1581 811 2004 
Q 403 2428 403 3163 
Q 403 3881 828 4315 
Q 1253 4750 1959 4750 
Q 2769 4750 3195 4129 
Q 3622 3509 3622 2328 
Q 3622 1225 3098 567 
Q 2575 -91 1691 -91 
Q 1453 -91 1209 -44 
Q 966 3 703 97 
z
M 1959 2075 
Q 2384 2075 2632 2365 
Q 2881 2656 2881 3163 
Q 2881 3666 2632 3958 
Q 2384 4250 1959 4250 
Q 1534 4250 1286 3958 
Q 1038 3666 1038 3163 
Q 1038 2656 1286 2365 
Q 1534 2075 1959 2075 
z
" id="DejaVuSans-39" transform="scale(0.015625)"/>
       <path d="M 525 4666 
L 3525 4666 
L 3525 4397 
L 1831 0 
L 1172 0 
L 2766 4134 
L 525 4134 
L 525 4666 
z
" id="DejaVuSans-37" transform="scale(0.015625)"/>
       <path d="M 513 4856 
L 1013 4856 
Q 1481 4119 1714 3412 
Q 1947 2706 1947 2009 
Q 1947 1309 1714 600 
Q 1481 -109 1013 -844 
L 513 -844 
Q 928 -128 1133 580 
Q 1338 1288 1338 2009 
Q 1338 2731 1133 3434 
Q 928 4138 513 4856 
z
" id="DejaVuSans-29" transform="scale(0.015625)"/>
      </defs>
      <use xlink:href="#DejaVuSans-52"/>
      <use x="69.482422" xlink:href="#DejaVuSans-4f"/>
      <use x="148.193359" xlink:href="#DejaVuSans-43"/>
      <use x="218.017578" xlink:href="#DejaVuSans-20"/>
      <use x="249.804688" xlink:href="#DejaVuSans-63"/>
      <use x="304.785156" xlink:href="#DejaVuSans-75"/>
      <use x="368.164062" xlink:href="#DejaVuSans-72"/>
      <use x="409.277344" xlink:href="#DejaVuSans-76"/>
      <use x="468.457031" xlink:href="#DejaVuSans-65"/>
      <use x="529.980469" xlink:href="#DejaVuSans-20"/>
      <use x="561.767578" xlink:href="#DejaVuSans-6f"/>
      <use x="622.949219" xlink:href="#DejaVuSans-66"/>
      <use x="658.154297" xlink:href="#DejaVuSans-20"/>
      <use x="689.941406" xlink:href="#DejaVuSans-45"/>
      <use x="753.125" xlink:href="#DejaVuSans-66"/>
      <use x="788.330078" xlink:href="#DejaVuSans-66"/>
      <use x="823.535156" xlink:href="#DejaVuSans-65"/>
      <use x="885.058594" xlink:href="#DejaVuSans-63"/>
      <use x="940.039062" xlink:href="#DejaVuSans-74"/>
      <use x="979.248047" xlink:href="#DejaVuSans-6f"/>
      <use x="1040.429688" xlink:href="#DejaVuSans-72"/>
      <use x="1081.542969" xlink:href="#DejaVuSans-20"/>
      <use x="1113.330078" xlink:href="#DejaVuSans-4d"/>
      <use x="1199.609375" xlink:href="#DejaVuSans-65"/>
      <use x="1261.132812" xlink:href="#DejaVuSans-6d"/>
      <use x="1358.544922" xlink:href="#DejaVuSans-6f"/>
      <use x="1419.726562" xlink:href="#DejaVuSans-72"/>
      <use x="1460.839844" xlink:href="#DejaVuSans-79"/>
      <use x="1520.019531" xlink:href="#DejaVuSans-20"/>
      <use x="1551.806641" xlink:href="#DejaVuSans-43"/>
      <use x="1621.630859" xlink:href="#DejaVuSans-44"/>
      <use x="1698.632812" xlink:href="#DejaVuSans-34"/>
      <use x="1762.255859" xlink:href="#DejaVuSans-20"/>
      <use x="1794.042969" xlink:href="#DejaVuSans-28"/>
      <use x="1833.056641" xlink:href="#DejaVuSans-61"/>
      <use x="1894.335938" xlink:href="#DejaVuSans-72"/>
      <use x="1933.199219" xlink:href="#DejaVuSans-65"/>
      <use x="1994.722656" xlink:href="#DejaVuSans-61"/>
      <use x="2056.001953" xlink:href="#DejaVuSans-20"/>
      <use x="2087.789062" xlink:href="#DejaVuSans-3d"/>
      <use x="2171.578125" xlink:href="#DejaVuSans-20"/>
      <use x="2203.365234" xlink:href="#DejaVuSans-30"/>
      <use x="2266.988281" xlink:href="#DejaVuSans-2e"/>
      <use x="2298.775391" xlink:href="#DejaVuSans-39"/>
      <use x="2362.398438" xlink:href="#DejaVuSans-37"/>
      <use x="2426.021484" xlink:href="#DejaVuSans-29"/>
     </g>
    </g>
    <g id="line2d_19">
     <path d="M 131.21375 278.326188 
L 151.21375 278.326188 
" style="fill:none;stroke:#f798a5;stroke-linecap:square;stroke-width:2;"/>
    </g>
    <g id="line2d_20"/>
    <g id="text_17">
     <!-- ROC curve of Naive/Central CD4 (area = 0.98) -->
     <g transform="translate(159.21375 281.826188)scale(0.1 -0.1)">
      <defs>
       <path d="M 628 4666 
L 1478 4666 
L 3547 763 
L 3547 4666 
L 4159 4666 
L 4159 0 
L 3309 0 
L 1241 3903 
L 1241 0 
L 628 0 
L 628 4666 
z
" id="DejaVuSans-4e" transform="scale(0.015625)"/>
       <path d="M 1625 4666 
L 2156 4666 
L 531 -594 
L 0 -594 
L 1625 4666 
z
" id="DejaVuSans-2f" transform="scale(0.015625)"/>
       <path d="M 3513 2113 
L 3513 0 
L 2938 0 
L 2938 2094 
Q 2938 2591 2744 2837 
Q 2550 3084 2163 3084 
Q 1697 3084 1428 2787 
Q 1159 2491 1159 1978 
L 1159 0 
L 581 0 
L 581 3500 
L 1159 3500 
L 1159 2956 
Q 1366 3272 1645 3428 
Q 1925 3584 2291 3584 
Q 2894 3584 3203 3211 
Q 3513 2838 3513 2113 
z
" id="DejaVuSans-6e" transform="scale(0.015625)"/>
      </defs>
      <use xlink:href="#DejaVuSans-52"/>
      <use x="69.482422" xlink:href="#DejaVuSans-4f"/>
      <use x="148.193359" xlink:href="#DejaVuSans-43"/>
      <use x="218.017578" xlink:href="#DejaVuSans-20"/>
      <use x="249.804688" xlink:href="#DejaVuSans-63"/>
      <use x="304.785156" xlink:href="#DejaVuSans-75"/>
      <use x="368.164062" xlink:href="#DejaVuSans-72"/>
      <use x="409.277344" xlink:href="#DejaVuSans-76"/>
      <use x="468.457031" xlink:href="#DejaVuSans-65"/>
      <use x="529.980469" xlink:href="#DejaVuSans-20"/>
      <use x="561.767578" xlink:href="#DejaVuSans-6f"/>
      <use x="622.949219" xlink:href="#DejaVuSans-66"/>
      <use x="658.154297" xlink:href="#DejaVuSans-20"/>
      <use x="689.941406" xlink:href="#DejaVuSans-4e"/>
      <use x="764.746094" xlink:href="#DejaVuSans-61"/>
      <use x="826.025391" xlink:href="#DejaVuSans-69"/>
      <use x="853.808594" xlink:href="#DejaVuSans-76"/>
      <use x="912.988281" xlink:href="#DejaVuSans-65"/>
      <use x="974.511719" xlink:href="#DejaVuSans-2f"/>
      <use x="1008.203125" xlink:href="#DejaVuSans-43"/>
      <use x="1078.027344" xlink:href="#DejaVuSans-65"/>
      <use x="1139.550781" xlink:href="#DejaVuSans-6e"/>
      <use x="1202.929688" xlink:href="#DejaVuSans-74"/>
      <use x="1242.138672" xlink:href="#DejaVuSans-72"/>
      <use x="1283.251953" xlink:href="#DejaVuSans-61"/>
      <use x="1344.53125" xlink:href="#DejaVuSans-6c"/>
      <use x="1372.314453" xlink:href="#DejaVuSans-20"/>
      <use x="1404.101562" xlink:href="#DejaVuSans-43"/>
      <use x="1473.925781" xlink:href="#DejaVuSans-44"/>
      <use x="1550.927734" xlink:href="#DejaVuSans-34"/>
      <use x="1614.550781" xlink:href="#DejaVuSans-20"/>
      <use x="1646.337891" xlink:href="#DejaVuSans-28"/>
      <use x="1685.351562" xlink:href="#DejaVuSans-61"/>
      <use x="1746.630859" xlink:href="#DejaVuSans-72"/>
      <use x="1785.494141" xlink:href="#DejaVuSans-65"/>
      <use x="1847.017578" xlink:href="#DejaVuSans-61"/>
      <use x="1908.296875" xlink:href="#DejaVuSans-20"/>
      <use x="1940.083984" xlink:href="#DejaVuSans-3d"/>
      <use x="2023.873047" xlink:href="#DejaVuSans-20"/>
      <use x="2055.660156" xlink:href="#DejaVuSans-30"/>
      <use x="2119.283203" xlink:href="#DejaVuSans-2e"/>
      <use x="2151.070312" xlink:href="#DejaVuSans-39"/>
      <use x="2214.693359" xlink:href="#DejaVuSans-38"/>
      <use x="2278.316406" xlink:href="#DejaVuSans-29"/>
     </g>
    </g>
    <g id="line2d_21">
     <path d="M 131.21375 293.004312 
L 151.21375 293.004312 
" style="fill:none;stroke:#9e18c5;stroke-linecap:square;stroke-width:2;"/>
    </g>
    <g id="line2d_22"/>
    <g id="text_18">
     <!-- ROC curve of T-reg CD4 (area = 0.98) -->
     <g transform="translate(159.21375 296.504312)scale(0.1 -0.1)">
      <defs>
       <path d="M 313 2009 
L 1997 2009 
L 1997 1497 
L 313 1497 
L 313 2009 
z
" id="DejaVuSans-2d" transform="scale(0.015625)"/>
       <path d="M 2906 1791 
Q 2906 2416 2648 2759 
Q 2391 3103 1925 3103 
Q 1463 3103 1205 2759 
Q 947 2416 947 1791 
Q 947 1169 1205 825 
Q 1463 481 1925 481 
Q 2391 481 2648 825 
Q 2906 1169 2906 1791 
z
M 3481 434 
Q 3481 -459 3084 -895 
Q 2688 -1331 1869 -1331 
Q 1566 -1331 1297 -1286 
Q 1028 -1241 775 -1147 
L 775 -588 
Q 1028 -725 1275 -790 
Q 1522 -856 1778 -856 
Q 2344 -856 2625 -561 
Q 2906 -266 2906 331 
L 2906 616 
Q 2728 306 2450 153 
Q 2172 0 1784 0 
Q 1141 0 747 490 
Q 353 981 353 1791 
Q 353 2603 747 3093 
Q 1141 3584 1784 3584 
Q 2172 3584 2450 3431 
Q 2728 3278 2906 2969 
L 2906 3500 
L 3481 3500 
L 3481 434 
z
" id="DejaVuSans-67" transform="scale(0.015625)"/>
      </defs>
      <use xlink:href="#DejaVuSans-52"/>
      <use x="69.482422" xlink:href="#DejaVuSans-4f"/>
      <use x="148.193359" xlink:href="#DejaVuSans-43"/>
      <use x="218.017578" xlink:href="#DejaVuSans-20"/>
      <use x="249.804688" xlink:href="#DejaVuSans-63"/>
      <use x="304.785156" xlink:href="#DejaVuSans-75"/>
      <use x="368.164062" xlink:href="#DejaVuSans-72"/>
      <use x="409.277344" xlink:href="#DejaVuSans-76"/>
      <use x="468.457031" xlink:href="#DejaVuSans-65"/>
      <use x="529.980469" xlink:href="#DejaVuSans-20"/>
      <use x="561.767578" xlink:href="#DejaVuSans-6f"/>
      <use x="622.949219" xlink:href="#DejaVuSans-66"/>
      <use x="658.154297" xlink:href="#DejaVuSans-20"/>
      <use x="689.941406" xlink:href="#DejaVuSans-54"/>
      <use x="741.900391" xlink:href="#DejaVuSans-2d"/>
      <use x="777.984375" xlink:href="#DejaVuSans-72"/>
      <use x="816.847656" xlink:href="#DejaVuSans-65"/>
      <use x="878.371094" xlink:href="#DejaVuSans-67"/>
      <use x="941.847656" xlink:href="#DejaVuSans-20"/>
      <use x="973.634766" xlink:href="#DejaVuSans-43"/>
      <use x="1043.458984" xlink:href="#DejaVuSans-44"/>
      <use x="1120.460938" xlink:href="#DejaVuSans-34"/>
      <use x="1184.083984" xlink:href="#DejaVuSans-20"/>
      <use x="1215.871094" xlink:href="#DejaVuSans-28"/>
      <use x="1254.884766" xlink:href="#DejaVuSans-61"/>
      <use x="1316.164062" xlink:href="#DejaVuSans-72"/>
      <use x="1355.027344" xlink:href="#DejaVuSans-65"/>
      <use x="1416.550781" xlink:href="#DejaVuSans-61"/>
      <use x="1477.830078" xlink:href="#DejaVuSans-20"/>
      <use x="1509.617188" xlink:href="#DejaVuSans-3d"/>
      <use x="1593.40625" xlink:href="#DejaVuSans-20"/>
      <use x="1625.193359" xlink:href="#DejaVuSans-30"/>
      <use x="1688.816406" xlink:href="#DejaVuSans-2e"/>
      <use x="1720.603516" xlink:href="#DejaVuSans-39"/>
      <use x="1784.226562" xlink:href="#DejaVuSans-38"/>
      <use x="1847.849609" xlink:href="#DejaVuSans-29"/>
     </g>
    </g>
   </g>
  </g>
 </g>
 <defs>
  <clipPath id="pd0e142cee4">
   <rect height="266.112" width="357.12" x="57.6" y="41.472"/>
  </clipPath>
 </defs>
</svg>
