<?xml version="1.0" encoding="utf-8" standalone="no"?>
<!DOCTYPE svg PUBLIC "-//W3C//DTD SVG 1.1//EN"
  "http://www.w3.org/Graphics/SVG/1.1/DTD/svg11.dtd">
<svg height="345.6pt" version="1.1" viewBox="0 0 460.8 345.6" width="460.8pt" xmlns="http://www.w3.org/2000/svg" xmlns:xlink="http://www.w3.org/1999/xlink">
 <metadata>
  <rdf:RDF xmlns:cc="http://creativecommons.org/ns#" xmlns:dc="http://purl.org/dc/elements/1.1/" xmlns:rdf="http://www.w3.org/1999/02/22-rdf-syntax-ns#">
   <cc:Work>
    <dc:type rdf:resource="http://purl.org/dc/dcmitype/StillImage"/>
    <dc:date>2021-08-04T23:58:25.253329</dc:date>
    <dc:format>image/svg+xml</dc:format>
    <dc:creator>
     <cc:Agent>
      <dc:title>Matplotlib v3.4.2, https://matplotlib.org/</dc:title>
     </cc:Agent>
    </dc:creator>
   </cc:Work>
  </rdf:RDF>
 </metadata>
 <defs>
  <style type="text/css">*{stroke-linecap:butt;stroke-linejoin:round;}</style>
 </defs>
 <g id="figure_1">
  <g id="patch_1">
   <path d="M 0 345.6 
L 460.8 345.6 
L 460.8 0 
L 0 0 
z
" style="fill:#ffffff;"/>
  </g>
  <g id="axes_1">
   <g id="patch_2">
    <path d="M 57.6 307.584 
L 414.72 307.584 
L 414.72 41.472 
L 57.6 41.472 
z
" style="fill:#ffffff;"/>
   </g>
   <g id="matplotlib.axis_1">
    <g id="xtick_1">
     <g id="line2d_1">
      <defs>
       <path d="M 0 0 
L 0 3.5 
" id="m387a724809" style="stroke:#000000;stroke-width:0.8;"/>
      </defs>
      <g>
       <use style="stroke:#000000;stroke-width:0.8;" x="57.6" xlink:href="#m387a724809" y="307.584"/>
      </g>
     </g>
     <g id="text_1">
      <!-- 0.0 -->
      <g transform="translate(49.648438 322.182437)scale(0.1 -0.1)">
       <defs>
        <path d="M 2034 4250 
Q 1547 4250 1301 3770 
Q 1056 3291 1056 2328 
Q 1056 1369 1301 889 
Q 1547 409 2034 409 
Q 2525 409 2770 889 
Q 3016 1369 3016 2328 
Q 3016 3291 2770 3770 
Q 2525 4250 2034 4250 
z
M 2034 4750 
Q 2819 4750 3233 4129 
Q 3647 3509 3647 2328 
Q 3647 1150 3233 529 
Q 2819 -91 2034 -91 
Q 1250 -91 836 529 
Q 422 1150 422 2328 
Q 422 3509 836 4129 
Q 1250 4750 2034 4750 
z
" id="DejaVuSans-30" transform="scale(0.015625)"/>
        <path d="M 684 794 
L 1344 794 
L 1344 0 
L 684 0 
L 684 794 
z
" id="DejaVuSans-2e" transform="scale(0.015625)"/>
       </defs>
       <use xlink:href="#DejaVuSans-30"/>
       <use x="63.623047" xlink:href="#DejaVuSans-2e"/>
       <use x="95.410156" xlink:href="#DejaVuSans-30"/>
      </g>
     </g>
    </g>
    <g id="xtick_2">
     <g id="line2d_2">
      <g>
       <use style="stroke:#000000;stroke-width:0.8;" x="129.024" xlink:href="#m387a724809" y="307.584"/>
      </g>
     </g>
     <g id="text_2">
      <!-- 0.2 -->
      <g transform="translate(121.072438 322.182437)scale(0.1 -0.1)">
       <defs>
        <path d="M 1228 531 
L 3431 531 
L 3431 0 
L 469 0 
L 469 531 
Q 828 903 1448 1529 
Q 2069 2156 2228 2338 
Q 2531 2678 2651 2914 
Q 2772 3150 2772 3378 
Q 2772 3750 2511 3984 
Q 2250 4219 1831 4219 
Q 1534 4219 1204 4116 
Q 875 4013 500 3803 
L 500 4441 
Q 881 4594 1212 4672 
Q 1544 4750 1819 4750 
Q 2544 4750 2975 4387 
Q 3406 4025 3406 3419 
Q 3406 3131 3298 2873 
Q 3191 2616 2906 2266 
Q 2828 2175 2409 1742 
Q 1991 1309 1228 531 
z
" id="DejaVuSans-32" transform="scale(0.015625)"/>
       </defs>
       <use xlink:href="#DejaVuSans-30"/>
       <use x="63.623047" xlink:href="#DejaVuSans-2e"/>
       <use x="95.410156" xlink:href="#DejaVuSans-32"/>
      </g>
     </g>
    </g>
    <g id="xtick_3">
     <g id="line2d_3">
      <g>
       <use style="stroke:#000000;stroke-width:0.8;" x="200.448" xlink:href="#m387a724809" y="307.584"/>
      </g>
     </g>
     <g id="text_3">
      <!-- 0.4 -->
      <g transform="translate(192.496438 322.182437)scale(0.1 -0.1)">
       <defs>
        <path d="M 2419 4116 
L 825 1625 
L 2419 1625 
L 2419 4116 
z
M 2253 4666 
L 3047 4666 
L 3047 1625 
L 3713 1625 
L 3713 1100 
L 3047 1100 
L 3047 0 
L 2419 0 
L 2419 1100 
L 313 1100 
L 313 1709 
L 2253 4666 
z
" id="DejaVuSans-34" transform="scale(0.015625)"/>
       </defs>
       <use xlink:href="#DejaVuSans-30"/>
       <use x="63.623047" xlink:href="#DejaVuSans-2e"/>
       <use x="95.410156" xlink:href="#DejaVuSans-34"/>
      </g>
     </g>
    </g>
    <g id="xtick_4">
     <g id="line2d_4">
      <g>
       <use style="stroke:#000000;stroke-width:0.8;" x="271.872" xlink:href="#m387a724809" y="307.584"/>
      </g>
     </g>
     <g id="text_4">
      <!-- 0.6 -->
      <g transform="translate(263.920438 322.182437)scale(0.1 -0.1)">
       <defs>
        <path d="M 2113 2584 
Q 1688 2584 1439 2293 
Q 1191 2003 1191 1497 
Q 1191 994 1439 701 
Q 1688 409 2113 409 
Q 2538 409 2786 701 
Q 3034 994 3034 1497 
Q 3034 2003 2786 2293 
Q 2538 2584 2113 2584 
z
M 3366 4563 
L 3366 3988 
Q 3128 4100 2886 4159 
Q 2644 4219 2406 4219 
Q 1781 4219 1451 3797 
Q 1122 3375 1075 2522 
Q 1259 2794 1537 2939 
Q 1816 3084 2150 3084 
Q 2853 3084 3261 2657 
Q 3669 2231 3669 1497 
Q 3669 778 3244 343 
Q 2819 -91 2113 -91 
Q 1303 -91 875 529 
Q 447 1150 447 2328 
Q 447 3434 972 4092 
Q 1497 4750 2381 4750 
Q 2619 4750 2861 4703 
Q 3103 4656 3366 4563 
z
" id="DejaVuSans-36" transform="scale(0.015625)"/>
       </defs>
       <use xlink:href="#DejaVuSans-30"/>
       <use x="63.623047" xlink:href="#DejaVuSans-2e"/>
       <use x="95.410156" xlink:href="#DejaVuSans-36"/>
      </g>
     </g>
    </g>
    <g id="xtick_5">
     <g id="line2d_5">
      <g>
       <use style="stroke:#000000;stroke-width:0.8;" x="343.296" xlink:href="#m387a724809" y="307.584"/>
      </g>
     </g>
     <g id="text_5">
      <!-- 0.8 -->
      <g transform="translate(335.344438 322.182437)scale(0.1 -0.1)">
       <defs>
        <path d="M 2034 2216 
Q 1584 2216 1326 1975 
Q 1069 1734 1069 1313 
Q 1069 891 1326 650 
Q 1584 409 2034 409 
Q 2484 409 2743 651 
Q 3003 894 3003 1313 
Q 3003 1734 2745 1975 
Q 2488 2216 2034 2216 
z
M 1403 2484 
Q 997 2584 770 2862 
Q 544 3141 544 3541 
Q 544 4100 942 4425 
Q 1341 4750 2034 4750 
Q 2731 4750 3128 4425 
Q 3525 4100 3525 3541 
Q 3525 3141 3298 2862 
Q 3072 2584 2669 2484 
Q 3125 2378 3379 2068 
Q 3634 1759 3634 1313 
Q 3634 634 3220 271 
Q 2806 -91 2034 -91 
Q 1263 -91 848 271 
Q 434 634 434 1313 
Q 434 1759 690 2068 
Q 947 2378 1403 2484 
z
M 1172 3481 
Q 1172 3119 1398 2916 
Q 1625 2713 2034 2713 
Q 2441 2713 2670 2916 
Q 2900 3119 2900 3481 
Q 2900 3844 2670 4047 
Q 2441 4250 2034 4250 
Q 1625 4250 1398 4047 
Q 1172 3844 1172 3481 
z
" id="DejaVuSans-38" transform="scale(0.015625)"/>
       </defs>
       <use xlink:href="#DejaVuSans-30"/>
       <use x="63.623047" xlink:href="#DejaVuSans-2e"/>
       <use x="95.410156" xlink:href="#DejaVuSans-38"/>
      </g>
     </g>
    </g>
    <g id="xtick_6">
     <g id="line2d_6">
      <g>
       <use style="stroke:#000000;stroke-width:0.8;" x="414.72" xlink:href="#m387a724809" y="307.584"/>
      </g>
     </g>
     <g id="text_6">
      <!-- 1.0 -->
      <g transform="translate(406.768438 322.182437)scale(0.1 -0.1)">
       <defs>
        <path d="M 794 531 
L 1825 531 
L 1825 4091 
L 703 3866 
L 703 4441 
L 1819 4666 
L 2450 4666 
L 2450 531 
L 3481 531 
L 3481 0 
L 794 0 
L 794 531 
z
" id="DejaVuSans-31" transform="scale(0.015625)"/>
       </defs>
       <use xlink:href="#DejaVuSans-31"/>
       <use x="63.623047" xlink:href="#DejaVuSans-2e"/>
       <use x="95.410156" xlink:href="#DejaVuSans-30"/>
      </g>
     </g>
    </g>
    <g id="text_7">
     <!-- False Positive Rate -->
     <g transform="translate(189.693594 335.860562)scale(0.1 -0.1)">
      <defs>
       <path d="M 628 4666 
L 3309 4666 
L 3309 4134 
L 1259 4134 
L 1259 2759 
L 3109 2759 
L 3109 2228 
L 1259 2228 
L 1259 0 
L 628 0 
L 628 4666 
z
" id="DejaVuSans-46" transform="scale(0.015625)"/>
       <path d="M 2194 1759 
Q 1497 1759 1228 1600 
Q 959 1441 959 1056 
Q 959 750 1161 570 
Q 1363 391 1709 391 
Q 2188 391 2477 730 
Q 2766 1069 2766 1631 
L 2766 1759 
L 2194 1759 
z
M 3341 1997 
L 3341 0 
L 2766 0 
L 2766 531 
Q 2569 213 2275 61 
Q 1981 -91 1556 -91 
Q 1019 -91 701 211 
Q 384 513 384 1019 
Q 384 1609 779 1909 
Q 1175 2209 1959 2209 
L 2766 2209 
L 2766 2266 
Q 2766 2663 2505 2880 
Q 2244 3097 1772 3097 
Q 1472 3097 1187 3025 
Q 903 2953 641 2809 
L 641 3341 
Q 956 3463 1253 3523 
Q 1550 3584 1831 3584 
Q 2591 3584 2966 3190 
Q 3341 2797 3341 1997 
z
" id="DejaVuSans-61" transform="scale(0.015625)"/>
       <path d="M 603 4863 
L 1178 4863 
L 1178 0 
L 603 0 
L 603 4863 
z
" id="DejaVuSans-6c" transform="scale(0.015625)"/>
       <path d="M 2834 3397 
L 2834 2853 
Q 2591 2978 2328 3040 
Q 2066 3103 1784 3103 
Q 1356 3103 1142 2972 
Q 928 2841 928 2578 
Q 928 2378 1081 2264 
Q 1234 2150 1697 2047 
L 1894 2003 
Q 2506 1872 2764 1633 
Q 3022 1394 3022 966 
Q 3022 478 2636 193 
Q 2250 -91 1575 -91 
Q 1294 -91 989 -36 
Q 684 19 347 128 
L 347 722 
Q 666 556 975 473 
Q 1284 391 1588 391 
Q 1994 391 2212 530 
Q 2431 669 2431 922 
Q 2431 1156 2273 1281 
Q 2116 1406 1581 1522 
L 1381 1569 
Q 847 1681 609 1914 
Q 372 2147 372 2553 
Q 372 3047 722 3315 
Q 1072 3584 1716 3584 
Q 2034 3584 2315 3537 
Q 2597 3491 2834 3397 
z
" id="DejaVuSans-73" transform="scale(0.015625)"/>
       <path d="M 3597 1894 
L 3597 1613 
L 953 1613 
Q 991 1019 1311 708 
Q 1631 397 2203 397 
Q 2534 397 2845 478 
Q 3156 559 3463 722 
L 3463 178 
Q 3153 47 2828 -22 
Q 2503 -91 2169 -91 
Q 1331 -91 842 396 
Q 353 884 353 1716 
Q 353 2575 817 3079 
Q 1281 3584 2069 3584 
Q 2775 3584 3186 3129 
Q 3597 2675 3597 1894 
z
M 3022 2063 
Q 3016 2534 2758 2815 
Q 2500 3097 2075 3097 
Q 1594 3097 1305 2825 
Q 1016 2553 972 2059 
L 3022 2063 
z
" id="DejaVuSans-65" transform="scale(0.015625)"/>
       <path id="DejaVuSans-20" transform="scale(0.015625)"/>
       <path d="M 1259 4147 
L 1259 2394 
L 2053 2394 
Q 2494 2394 2734 2622 
Q 2975 2850 2975 3272 
Q 2975 3691 2734 3919 
Q 2494 4147 2053 4147 
L 1259 4147 
z
M 628 4666 
L 2053 4666 
Q 2838 4666 3239 4311 
Q 3641 3956 3641 3272 
Q 3641 2581 3239 2228 
Q 2838 1875 2053 1875 
L 1259 1875 
L 1259 0 
L 628 0 
L 628 4666 
z
" id="DejaVuSans-50" transform="scale(0.015625)"/>
       <path d="M 1959 3097 
Q 1497 3097 1228 2736 
Q 959 2375 959 1747 
Q 959 1119 1226 758 
Q 1494 397 1959 397 
Q 2419 397 2687 759 
Q 2956 1122 2956 1747 
Q 2956 2369 2687 2733 
Q 2419 3097 1959 3097 
z
M 1959 3584 
Q 2709 3584 3137 3096 
Q 3566 2609 3566 1747 
Q 3566 888 3137 398 
Q 2709 -91 1959 -91 
Q 1206 -91 779 398 
Q 353 888 353 1747 
Q 353 2609 779 3096 
Q 1206 3584 1959 3584 
z
" id="DejaVuSans-6f" transform="scale(0.015625)"/>
       <path d="M 603 3500 
L 1178 3500 
L 1178 0 
L 603 0 
L 603 3500 
z
M 603 4863 
L 1178 4863 
L 1178 4134 
L 603 4134 
L 603 4863 
z
" id="DejaVuSans-69" transform="scale(0.015625)"/>
       <path d="M 1172 4494 
L 1172 3500 
L 2356 3500 
L 2356 3053 
L 1172 3053 
L 1172 1153 
Q 1172 725 1289 603 
Q 1406 481 1766 481 
L 2356 481 
L 2356 0 
L 1766 0 
Q 1100 0 847 248 
Q 594 497 594 1153 
L 594 3053 
L 172 3053 
L 172 3500 
L 594 3500 
L 594 4494 
L 1172 4494 
z
" id="DejaVuSans-74" transform="scale(0.015625)"/>
       <path d="M 191 3500 
L 800 3500 
L 1894 563 
L 2988 3500 
L 3597 3500 
L 2284 0 
L 1503 0 
L 191 3500 
z
" id="DejaVuSans-76" transform="scale(0.015625)"/>
       <path d="M 2841 2188 
Q 3044 2119 3236 1894 
Q 3428 1669 3622 1275 
L 4263 0 
L 3584 0 
L 2988 1197 
Q 2756 1666 2539 1819 
Q 2322 1972 1947 1972 
L 1259 1972 
L 1259 0 
L 628 0 
L 628 4666 
L 2053 4666 
Q 2853 4666 3247 4331 
Q 3641 3997 3641 3322 
Q 3641 2881 3436 2590 
Q 3231 2300 2841 2188 
z
M 1259 4147 
L 1259 2491 
L 2053 2491 
Q 2509 2491 2742 2702 
Q 2975 2913 2975 3322 
Q 2975 3731 2742 3939 
Q 2509 4147 2053 4147 
L 1259 4147 
z
" id="DejaVuSans-52" transform="scale(0.015625)"/>
      </defs>
      <use xlink:href="#DejaVuSans-46"/>
      <use x="48.394531" xlink:href="#DejaVuSans-61"/>
      <use x="109.673828" xlink:href="#DejaVuSans-6c"/>
      <use x="137.457031" xlink:href="#DejaVuSans-73"/>
      <use x="189.556641" xlink:href="#DejaVuSans-65"/>
      <use x="251.080078" xlink:href="#DejaVuSans-20"/>
      <use x="282.867188" xlink:href="#DejaVuSans-50"/>
      <use x="339.544922" xlink:href="#DejaVuSans-6f"/>
      <use x="400.726562" xlink:href="#DejaVuSans-73"/>
      <use x="452.826172" xlink:href="#DejaVuSans-69"/>
      <use x="480.609375" xlink:href="#DejaVuSans-74"/>
      <use x="519.818359" xlink:href="#DejaVuSans-69"/>
      <use x="547.601562" xlink:href="#DejaVuSans-76"/>
      <use x="606.78125" xlink:href="#DejaVuSans-65"/>
      <use x="668.304688" xlink:href="#DejaVuSans-20"/>
      <use x="700.091797" xlink:href="#DejaVuSans-52"/>
      <use x="767.324219" xlink:href="#DejaVuSans-61"/>
      <use x="828.603516" xlink:href="#DejaVuSans-74"/>
      <use x="867.8125" xlink:href="#DejaVuSans-65"/>
     </g>
    </g>
   </g>
   <g id="matplotlib.axis_2">
    <g id="ytick_1">
     <g id="line2d_7">
      <defs>
       <path d="M 0 0 
L -3.5 0 
" id="md319531cf6" style="stroke:#000000;stroke-width:0.8;"/>
      </defs>
      <g>
       <use style="stroke:#000000;stroke-width:0.8;" x="57.6" xlink:href="#md319531cf6" y="307.584"/>
      </g>
     </g>
     <g id="text_8">
      <!-- 0.0 -->
      <g transform="translate(34.696875 311.383219)scale(0.1 -0.1)">
       <use xlink:href="#DejaVuSans-30"/>
       <use x="63.623047" xlink:href="#DejaVuSans-2e"/>
       <use x="95.410156" xlink:href="#DejaVuSans-30"/>
      </g>
     </g>
    </g>
    <g id="ytick_2">
     <g id="line2d_8">
      <g>
       <use style="stroke:#000000;stroke-width:0.8;" x="57.6" xlink:href="#md319531cf6" y="256.896"/>
      </g>
     </g>
     <g id="text_9">
      <!-- 0.2 -->
      <g transform="translate(34.696875 260.695219)scale(0.1 -0.1)">
       <use xlink:href="#DejaVuSans-30"/>
       <use x="63.623047" xlink:href="#DejaVuSans-2e"/>
       <use x="95.410156" xlink:href="#DejaVuSans-32"/>
      </g>
     </g>
    </g>
    <g id="ytick_3">
     <g id="line2d_9">
      <g>
       <use style="stroke:#000000;stroke-width:0.8;" x="57.6" xlink:href="#md319531cf6" y="206.208"/>
      </g>
     </g>
     <g id="text_10">
      <!-- 0.4 -->
      <g transform="translate(34.696875 210.007219)scale(0.1 -0.1)">
       <use xlink:href="#DejaVuSans-30"/>
       <use x="63.623047" xlink:href="#DejaVuSans-2e"/>
       <use x="95.410156" xlink:href="#DejaVuSans-34"/>
      </g>
     </g>
    </g>
    <g id="ytick_4">
     <g id="line2d_10">
      <g>
       <use style="stroke:#000000;stroke-width:0.8;" x="57.6" xlink:href="#md319531cf6" y="155.52"/>
      </g>
     </g>
     <g id="text_11">
      <!-- 0.6 -->
      <g transform="translate(34.696875 159.319219)scale(0.1 -0.1)">
       <use xlink:href="#DejaVuSans-30"/>
       <use x="63.623047" xlink:href="#DejaVuSans-2e"/>
       <use x="95.410156" xlink:href="#DejaVuSans-36"/>
      </g>
     </g>
    </g>
    <g id="ytick_5">
     <g id="line2d_11">
      <g>
       <use style="stroke:#000000;stroke-width:0.8;" x="57.6" xlink:href="#md319531cf6" y="104.832"/>
      </g>
     </g>
     <g id="text_12">
      <!-- 0.8 -->
      <g transform="translate(34.696875 108.631219)scale(0.1 -0.1)">
       <use xlink:href="#DejaVuSans-30"/>
       <use x="63.623047" xlink:href="#DejaVuSans-2e"/>
       <use x="95.410156" xlink:href="#DejaVuSans-38"/>
      </g>
     </g>
    </g>
    <g id="ytick_6">
     <g id="line2d_12">
      <g>
       <use style="stroke:#000000;stroke-width:0.8;" x="57.6" xlink:href="#md319531cf6" y="54.144"/>
      </g>
     </g>
     <g id="text_13">
      <!-- 1.0 -->
      <g transform="translate(34.696875 57.943219)scale(0.1 -0.1)">
       <use xlink:href="#DejaVuSans-31"/>
       <use x="63.623047" xlink:href="#DejaVuSans-2e"/>
       <use x="95.410156" xlink:href="#DejaVuSans-30"/>
      </g>
     </g>
    </g>
    <g id="text_14">
     <!-- True Positive Rate -->
     <g transform="translate(28.617187 219.057687)rotate(-90)scale(0.1 -0.1)">
      <defs>
       <path d="M -19 4666 
L 3928 4666 
L 3928 4134 
L 2272 4134 
L 2272 0 
L 1638 0 
L 1638 4134 
L -19 4134 
L -19 4666 
z
" id="DejaVuSans-54" transform="scale(0.015625)"/>
       <path d="M 2631 2963 
Q 2534 3019 2420 3045 
Q 2306 3072 2169 3072 
Q 1681 3072 1420 2755 
Q 1159 2438 1159 1844 
L 1159 0 
L 581 0 
L 581 3500 
L 1159 3500 
L 1159 2956 
Q 1341 3275 1631 3429 
Q 1922 3584 2338 3584 
Q 2397 3584 2469 3576 
Q 2541 3569 2628 3553 
L 2631 2963 
z
" id="DejaVuSans-72" transform="scale(0.015625)"/>
       <path d="M 544 1381 
L 544 3500 
L 1119 3500 
L 1119 1403 
Q 1119 906 1312 657 
Q 1506 409 1894 409 
Q 2359 409 2629 706 
Q 2900 1003 2900 1516 
L 2900 3500 
L 3475 3500 
L 3475 0 
L 2900 0 
L 2900 538 
Q 2691 219 2414 64 
Q 2138 -91 1772 -91 
Q 1169 -91 856 284 
Q 544 659 544 1381 
z
M 1991 3584 
L 1991 3584 
z
" id="DejaVuSans-75" transform="scale(0.015625)"/>
      </defs>
      <use xlink:href="#DejaVuSans-54"/>
      <use x="46.333984" xlink:href="#DejaVuSans-72"/>
      <use x="87.447266" xlink:href="#DejaVuSans-75"/>
      <use x="150.826172" xlink:href="#DejaVuSans-65"/>
      <use x="212.349609" xlink:href="#DejaVuSans-20"/>
      <use x="244.136719" xlink:href="#DejaVuSans-50"/>
      <use x="300.814453" xlink:href="#DejaVuSans-6f"/>
      <use x="361.996094" xlink:href="#DejaVuSans-73"/>
      <use x="414.095703" xlink:href="#DejaVuSans-69"/>
      <use x="441.878906" xlink:href="#DejaVuSans-74"/>
      <use x="481.087891" xlink:href="#DejaVuSans-69"/>
      <use x="508.871094" xlink:href="#DejaVuSans-76"/>
      <use x="568.050781" xlink:href="#DejaVuSans-65"/>
      <use x="629.574219" xlink:href="#DejaVuSans-20"/>
      <use x="661.361328" xlink:href="#DejaVuSans-52"/>
      <use x="728.59375" xlink:href="#DejaVuSans-61"/>
      <use x="789.873047" xlink:href="#DejaVuSans-74"/>
      <use x="829.082031" xlink:href="#DejaVuSans-65"/>
     </g>
    </g>
   </g>
   <g id="line2d_13">
    <path clip-path="url(#pebea356993)" d="M 57.6 307.584 
L 57.65587 216.390008 
L 57.71174 216.390008 
L 57.76761 194.503449 
L 57.823479 194.503449 
L 57.879349 189.666203 
L 57.935219 189.666203 
L 57.991089 177.057642 
L 58.046959 177.057642 
L 58.102829 173.64778 
L 58.158698 173.64778 
L 58.214568 164.924876 
L 58.326308 164.845577 
L 58.382178 158.977442 
L 58.438048 158.977442 
L 58.493917 156.043374 
L 58.605657 155.964075 
L 58.661527 151.444025 
L 58.717397 151.444025 
L 58.773267 147.796265 
L 58.829136 147.796265 
L 58.885006 142.800421 
L 58.940876 142.800421 
L 58.996746 138.518268 
L 59.052616 138.518268 
L 59.108486 134.632611 
L 59.164355 134.632611 
L 59.164355 133.918919 
L 59.276095 133.918919 
L 59.331965 132.174338 
L 59.387835 132.174338 
L 59.443705 130.112561 
L 59.499574 130.112561 
L 59.555444 126.5441 
L 59.611314 126.5441 
L 59.667184 124.482323 
L 59.778924 124.403024 
L 59.834793 123.84793 
L 59.890663 123.84793 
L 59.946533 123.054939 
L 60.002403 123.054939 
L 60.058273 121.944751 
L 60.114143 121.944751 
L 60.170013 119.010683 
L 60.225882 119.010683 
L 60.281752 116.076616 
L 60.393492 116.076616 
L 60.393492 114.490633 
L 60.616971 114.490633 
L 60.672841 113.301146 
L 60.728711 113.301146 
L 60.784581 112.666753 
L 60.840451 112.666753 
L 60.840451 111.953061 
L 60.95219 111.953061 
L 61.00806 111.080771 
L 61.1198 111.001472 
L 61.17567 109.891284 
L 61.231539 109.891284 
L 61.231539 109.653387 
L 61.343279 109.653387 
L 61.399149 109.415489 
L 61.455019 109.415489 
L 61.510889 108.543199 
L 61.566758 108.543199 
L 61.622628 107.908806 
L 61.678498 107.908806 
L 61.734368 106.243524 
L 61.846108 106.243524 
L 61.901977 105.450533 
L 61.957847 105.450533 
L 62.013717 104.81614 
L 62.069587 104.81614 
L 62.125457 103.468055 
L 62.348936 103.468055 
L 62.404806 103.071559 
L 62.460676 103.071559 
L 62.516546 101.24768 
L 62.572416 101.24768 
L 62.572416 101.009782 
L 62.684155 101.009782 
L 62.740025 100.216791 
L 62.851765 100.216791 
L 62.907635 99.661697 
L 63.075244 99.582398 
L 63.131114 99.185902 
L 63.242854 99.106603 
L 63.242854 98.630809 
L 63.354593 98.630809 
L 63.410463 97.917116 
L 63.466333 97.917116 
L 63.522203 97.441322 
L 63.578073 97.441322 
L 63.578073 96.886228 
L 63.801552 96.806929 
L 63.857422 96.410433 
L 63.969161 96.410433 
L 64.025031 95.617442 
L 64.136771 95.538143 
L 64.192641 94.983049 
L 64.30438 94.90375 
L 64.30438 94.824451 
L 64.47199 94.745151 
L 64.47199 94.427955 
L 64.695469 94.427955 
L 64.695469 94.269357 
L 64.807209 94.269357 
L 64.863079 93.793562 
L 64.974819 93.793562 
L 65.030688 92.921272 
L 65.421777 92.841972 
L 65.477647 92.445477 
L 65.589387 92.445477 
L 65.645257 92.207579 
L 65.701126 92.207579 
L 65.756996 91.652486 
L 65.812866 91.652486 
L 65.812866 91.25599 
L 65.980476 91.176691 
L 65.980476 90.462999 
L 66.148085 90.462999 
L 66.148085 90.145802 
L 66.259825 90.145802 
L 66.315695 89.590708 
L 66.427434 89.511409 
L 66.483304 89.035615 
L 66.762653 89.035615 
L 66.762653 88.877016 
L 66.874393 88.877016 
L 66.930263 88.55982 
L 66.986133 88.55982 
L 67.042003 88.004726 
L 67.097872 88.004726 
L 67.153742 87.766829 
L 67.321352 87.687529 
L 67.377222 87.528931 
L 67.433091 87.528931 
L 67.433091 87.370333 
L 67.544831 87.370333 
L 67.544831 87.211735 
L 67.88005 87.132436 
L 67.88005 87.053136 
L 68.159399 86.973837 
L 68.215269 86.656641 
L 68.271139 86.656641 
L 68.327009 85.942949 
L 68.494618 85.942949 
L 68.550488 85.070658 
L 68.718098 85.070658 
L 68.718098 84.832761 
L 68.829837 84.832761 
L 68.885707 84.198368 
L 68.941577 84.198368 
L 68.997447 83.643274 
L 69.109186 83.643274 
L 69.109186 83.484676 
L 69.332666 83.405377 
L 69.332666 83.008881 
L 69.556145 83.008881 
L 69.612015 82.770984 
L 69.667885 82.770984 
L 69.667885 82.533086 
L 69.947234 82.453787 
L 69.947234 82.295189 
L 70.058974 82.295189 
L 70.114844 81.977992 
L 70.170713 81.977992 
L 70.226583 81.343599 
L 70.338323 81.343599 
L 70.338323 81.185001 
L 70.450063 81.185001 
L 70.450063 81.026403 
L 70.617672 81.026403 
L 70.673542 80.471309 
L 70.841151 80.39201 
L 70.897021 80.233412 
L 71.120501 80.154113 
L 71.120501 80.074814 
L 71.23224 80.074814 
L 71.28811 79.678318 
L 71.790939 79.599019 
L 71.846809 79.281822 
L 71.958548 79.202523 
L 71.958548 79.123224 
L 72.126158 79.043925 
L 72.126158 78.885327 
L 72.237897 78.885327 
L 72.237897 78.726728 
L 72.349637 78.726728 
L 72.405507 78.409532 
L 72.684856 78.330233 
L 72.684856 78.092335 
L 72.796596 78.092335 
L 72.796596 77.854438 
L 73.020075 77.775139 
L 73.075945 77.457942 
L 73.187685 77.378643 
L 73.243554 77.220045 
L 73.299424 77.220045 
L 73.355294 76.585652 
L 73.634643 76.585652 
L 73.690513 76.109857 
L 73.913992 76.109857 
L 73.913992 75.87196 
L 74.081602 75.792661 
L 74.137472 75.475464 
L 74.472691 75.396165 
L 74.472691 75.316866 
L 74.75204 75.237567 
L 74.80791 74.99967 
L 74.86378 74.99967 
L 74.91965 74.761772 
L 75.031389 74.682473 
L 75.087259 74.444576 
L 75.366608 74.365277 
L 75.366608 74.285977 
L 75.701827 74.206678 
L 75.757697 74.04808 
L 76.428135 73.968781 
L 76.428135 73.889482 
L 76.930964 73.810183 
L 76.986834 73.492986 
L 77.098573 73.492986 
L 77.154443 73.255089 
L 77.433792 73.17579 
L 77.433792 72.858593 
L 77.657272 72.779294 
L 77.657272 72.620696 
L 77.769011 72.620696 
L 77.824881 72.2242 
L 78.04836 72.144901 
L 78.04836 72.065602 
L 78.21597 71.986303 
L 78.27184 71.748406 
L 78.439449 71.748406 
L 78.495319 71.510508 
L 78.662929 71.510508 
L 78.662929 71.35191 
L 78.774668 71.35191 
L 78.830538 70.876115 
L 79.109887 70.876115 
L 79.165757 70.558919 
L 79.724456 70.47962 
L 79.724456 70.321021 
L 79.836195 70.321021 
L 79.836195 70.162423 
L 80.394894 70.083124 
L 80.394894 69.924526 
L 80.618373 69.845227 
L 80.618373 69.765927 
L 81.400551 69.686628 
L 81.400551 69.607329 
L 81.56816 69.607329 
L 81.56816 69.448731 
L 82.015119 69.448731 
L 82.015119 69.290133 
L 82.126859 69.290133 
L 82.126859 68.893637 
L 82.238598 68.893637 
L 82.294468 68.65574 
L 82.573817 68.65574 
L 82.629687 68.417842 
L 82.741427 68.338543 
L 82.741427 68.100646 
L 82.964906 68.021347 
L 82.964906 67.942048 
L 83.244255 67.942048 
L 83.244255 67.783449 
L 83.914693 67.70415 
L 83.914693 67.466253 
L 84.305782 67.386954 
L 84.305782 67.307655 
L 84.641001 67.228355 
L 84.641001 67.069757 
L 84.97622 67.069757 
L 85.03209 66.83186 
L 85.590788 66.752561 
L 85.646658 66.593962 
L 85.981877 66.514663 
L 85.981877 66.276766 
L 86.205357 66.197467 
L 86.205357 66.118168 
L 86.428836 66.038869 
L 86.428836 65.959569 
L 86.652315 65.88027 
L 86.652315 65.800971 
L 86.764055 65.800971 
L 86.764055 65.642373 
L 86.987534 65.642373 
L 86.987534 65.404476 
L 87.769712 65.325176 
L 87.769712 65.087279 
L 88.44015 65.00798 
L 88.49602 64.849382 
L 88.887109 64.770083 
L 88.887109 64.690783 
L 89.054718 64.690783 
L 89.054718 64.452886 
L 89.725156 64.373587 
L 89.725156 64.294288 
L 90.004506 64.294288 
L 90.060375 64.05639 
L 90.227985 63.977091 
L 90.227985 63.897792 
L 90.507334 63.818493 
L 90.507334 63.739194 
L 90.786683 63.659895 
L 90.842553 63.421997 
L 91.121902 63.421997 
L 91.121902 63.263399 
L 92.295169 63.1841 
L 92.295169 63.104801 
L 92.965607 63.025502 
L 92.965607 62.787605 
L 93.524305 62.708305 
L 93.580175 62.470408 
L 93.747785 62.391109 
L 93.747785 62.31181 
L 94.585832 62.232511 
L 94.585832 62.153212 
L 94.865181 62.073912 
L 94.865181 61.915314 
L 95.759099 61.836015 
L 95.759099 61.756716 
L 95.982578 61.677417 
L 95.982578 61.598118 
L 96.094318 61.598118 
L 96.150188 61.280921 
L 97.267584 61.201622 
L 97.267584 61.122323 
L 98.329111 61.122323 
L 98.384981 60.884426 
L 99.446508 60.805126 
L 99.446508 60.725827 
L 100.619775 60.646528 
L 100.619775 60.567229 
L 101.681302 60.48793 
L 101.681302 60.408631 
L 102.40761 60.329332 
L 102.40761 60.250033 
L 102.910438 60.170733 
L 102.910438 60.091434 
L 103.860225 60.012135 
L 103.860225 59.932836 
L 104.418924 59.853537 
L 104.418924 59.774238 
L 106.318498 59.694939 
L 106.318498 59.61564 
L 107.100676 59.53634 
L 107.100676 59.457041 
L 108.106333 59.377742 
L 108.106333 59.298443 
L 111.011564 59.219144 
L 111.067434 59.060546 
L 111.570263 58.981247 
L 111.626133 58.822648 
L 115.257672 58.743349 
L 115.257672 58.66405 
L 115.81637 58.584751 
L 115.81637 58.505452 
L 116.486809 58.426153 
L 116.486809 58.267554 
L 116.822028 58.188255 
L 116.822028 58.029657 
L 117.715945 57.950358 
L 117.715945 57.871059 
L 117.995294 57.79176 
L 117.995294 57.633161 
L 120.174218 57.553862 
L 120.174218 57.474563 
L 120.788786 57.395264 
L 120.788786 57.315965 
L 123.470538 57.236666 
L 123.470538 57.157367 
L 124.140976 57.078068 
L 124.140976 56.998768 
L 129.057522 56.919469 
L 129.057522 56.84017 
L 129.67209 56.760871 
L 129.67209 56.681572 
L 131.795144 56.602273 
L 131.795144 56.522974 
L 134.644506 56.443675 
L 134.644506 56.364375 
L 142.801502 56.285076 
L 142.801502 56.205777 
L 147.494568 56.126478 
L 147.494568 56.047179 
L 149.282403 55.96788 
L 149.282403 55.888581 
L 151.517196 55.809282 
L 151.517196 55.729982 
L 157.942228 55.650683 
L 157.942228 55.571384 
L 163.808561 55.492085 
L 163.808561 55.412786 
L 179.228636 55.333487 
L 179.228636 55.254188 
L 187.329762 55.174889 
L 187.329762 55.095589 
L 193.587184 55.01629 
L 193.587184 54.936991 
L 210.683354 54.857692 
L 210.683354 54.778393 
L 219.175569 54.699094 
L 219.175569 54.619795 
L 231.075845 54.540496 
L 231.075845 54.461196 
L 245.993091 54.381897 
L 245.993091 54.302598 
L 257.949237 54.223299 
L 257.949237 54.144 
L 414.72 54.144 
L 414.72 54.144 
" style="fill:none;stroke:#ff1493;stroke-dasharray:4,6.6;stroke-dashoffset:0;stroke-width:4;"/>
   </g>
   <g id="line2d_14">
    <path clip-path="url(#pebea356993)" d="M 57.6 241.306893 
L 57.960606 189.922642 
L 58.080808 183.857734 
L 58.197191 183.332361 
L 58.294111 170.047217 
L 58.441414 169.671751 
L 58.988222 152.287628 
L 59.162625 151.386788 
L 59.643433 143.392026 
L 59.690167 139.163099 
L 59.839465 138.532652 
L 60.13806 134.24901 
L 60.884548 130.09236 
L 61.033846 129.356837 
L 61.070554 128.577142 
L 61.326261 128.201675 
L 61.481739 125.030526 
L 61.929632 121.778874 
L 62.07893 121.46365 
L 62.11172 119.358473 
L 62.408078 118.502465 
L 62.67612 117.067718 
L 62.805831 117.028733 
L 62.825418 116.398285 
L 63.12929 115.121979 
L 63.249492 113.732908 
L 63.571906 113.588849 
L 63.721204 113.108307 
L 64.019799 111.332076 
L 64.331309 110.431236 
L 64.467692 110.116012 
L 64.61699 107.5211 
L 64.766288 107.416026 
L 65.363478 104.853407 
L 65.582274 104.658484 
L 65.960669 103.052572 
L 66.109967 102.842423 
L 66.276385 101.76523 
L 66.62344 100.429525 
L 67.15505 100.090542 
L 67.304348 99.399852 
L 67.752241 99.255792 
L 68.498729 97.722003 
L 68.538378 96.97107 
L 68.946622 96.460922 
L 69.09592 95.299913 
L 69.399883 94.910065 
L 69.543813 94.324449 
L 69.746939 93.222653 
L 69.842408 93.012504 
L 70.141003 91.844618 
L 70.290301 91.634468 
L 70.341407 91.259002 
L 70.887492 89.562397 
L 71.13516 89.328488 
L 71.186087 89.013264 
L 72.505042 88.088665 
L 72.529766 87.578517 
L 72.870437 87.539533 
L 73.217493 86.434391 
L 73.425552 86.329316 
L 73.574849 85.848775 
L 73.911603 85.80979 
L 74.321338 85.284417 
L 74.470635 85.179342 
L 74.619933 84.278502 
L 74.95277 84.161548 
L 75.515719 82.729303 
L 75.665017 82.585243 
L 75.993936 82.195395 
L 76.560803 82.051336 
L 77.035102 81.30728 
L 77.755184 81.202205 
L 77.793928 80.826738 
L 78.076268 80.553845 
L 78.770379 80.331816 
L 79.397458 80.187757 
L 80.143946 79.545429 
L 80.158601 79.350505 
L 81.636923 77.726867 
L 82.532709 77.411643 
L 83.1299 76.95236 
L 85.817258 76.232063 
L 86.862341 75.391466 
L 87.099708 75.352481 
L 87.410084 74.181249 
L 88.056722 73.721966 
L 88.131296 73.346499 
L 88.504615 73.20244 
L 89.529096 72.731277 
L 89.549699 72.626202 
L 89.997592 72.404173 
L 90.223207 72.155039 
L 90.594783 71.866921 
L 90.74408 71.656771 
L 91.611429 71.434742 
L 91.938462 71.224593 
L 91.958484 70.912715 
L 92.237057 70.80764 
L 92.386355 70.597491 
L 92.99965 70.414447 
L 93.693761 69.982269 
L 94.327224 69.77212 
L 94.381797 69.396653 
L 94.924415 69.291578 
L 96.715987 69.147519 
L 96.865284 69.003459 
L 97.76107 68.466207 
L 98.208963 68.127223 
L 99.70194 66.950989 
L 99.851237 66.74084 
L 100.634869 66.518811 
L 101.045619 66.413736 
L 102.02309 66.296782 
L 102.370146 66.218812 
L 102.389298 66.008663 
L 103.064257 65.864603 
L 104.330167 65.60359 
L 105.146589 65.132427 
L 105.524548 65.027352 
L 106.881866 64.844308 
L 111.393586 64.283296 
L 111.496455 64.073147 
L 112.434752 63.878223 
L 114.517085 63.539239 
L 115.211195 63.422285 
L 115.905306 63.3833 
L 116.498957 63.007834 
L 116.946472 62.968849 
L 117.020468 62.7587 
L 117.640583 62.563776 
L 118.334694 62.485806 
L 120.225217 62.11034 
L 121.648696 61.96628 
L 122.843077 61.744251 
L 123.888161 61.522222 
L 125.275802 61.117149 
L 126.316968 60.663713 
L 130.828688 60.219655 
L 136.381574 60.063716 
L 141.24035 59.619658 
L 142.975627 59.502704 
L 144.866617 59.127237 
L 147.140292 59.010283 
L 147.150454 58.634816 
L 153.387289 58.190758 
L 154.494181 58.085684 
L 155.203985 57.710217 
L 159.981341 57.488188 
L 167.781672 57.04413 
L 169.004781 56.629679 
L 176.64 56.302575 
L 176.840337 55.927108 
L 180.110554 55.888124 
L 190.624214 55.368598 
L 199.892711 55.329613 
L 200.520121 54.954146 
L 214.063946 54.705012 
L 214.469038 54.666027 
L 245.704023 54.366029 
L 269.30379 54.182985 
L 414.72 54.144 
L 414.72 54.144 
" style="fill:none;stroke:#000080;stroke-dasharray:4,6.6;stroke-dashoffset:0;stroke-width:4;"/>
   </g>
   <g id="line2d_15">
    <path clip-path="url(#pebea356993)" d="M 57.6 307.584 
L 414.72 54.144 
" style="fill:none;stroke:#000000;stroke-dasharray:7.4,3.2;stroke-dashoffset:0;stroke-width:2;"/>
   </g>
   <g id="patch_3">
    <path d="M 57.6 307.584 
L 57.6 41.472 
" style="fill:none;stroke:#000000;stroke-linecap:square;stroke-linejoin:miter;stroke-width:0.8;"/>
   </g>
   <g id="patch_4">
    <path d="M 414.72 307.584 
L 414.72 41.472 
" style="fill:none;stroke:#000000;stroke-linecap:square;stroke-linejoin:miter;stroke-width:0.8;"/>
   </g>
   <g id="patch_5">
    <path d="M 57.6 307.584 
L 414.72 307.584 
" style="fill:none;stroke:#000000;stroke-linecap:square;stroke-linejoin:miter;stroke-width:0.8;"/>
   </g>
   <g id="patch_6">
    <path d="M 57.6 41.472 
L 414.72 41.472 
" style="fill:none;stroke:#000000;stroke-linecap:square;stroke-linejoin:miter;stroke-width:0.8;"/>
   </g>
   <g id="text_15">
    <!-- Overall ROC Curves -->
    <g transform="translate(176.993437 35.472)scale(0.12 -0.12)">
     <defs>
      <path d="M 2522 4238 
Q 1834 4238 1429 3725 
Q 1025 3213 1025 2328 
Q 1025 1447 1429 934 
Q 1834 422 2522 422 
Q 3209 422 3611 934 
Q 4013 1447 4013 2328 
Q 4013 3213 3611 3725 
Q 3209 4238 2522 4238 
z
M 2522 4750 
Q 3503 4750 4090 4092 
Q 4678 3434 4678 2328 
Q 4678 1225 4090 567 
Q 3503 -91 2522 -91 
Q 1538 -91 948 565 
Q 359 1222 359 2328 
Q 359 3434 948 4092 
Q 1538 4750 2522 4750 
z
" id="DejaVuSans-4f" transform="scale(0.015625)"/>
      <path d="M 4122 4306 
L 4122 3641 
Q 3803 3938 3442 4084 
Q 3081 4231 2675 4231 
Q 1875 4231 1450 3742 
Q 1025 3253 1025 2328 
Q 1025 1406 1450 917 
Q 1875 428 2675 428 
Q 3081 428 3442 575 
Q 3803 722 4122 1019 
L 4122 359 
Q 3791 134 3420 21 
Q 3050 -91 2638 -91 
Q 1578 -91 968 557 
Q 359 1206 359 2328 
Q 359 3453 968 4101 
Q 1578 4750 2638 4750 
Q 3056 4750 3426 4639 
Q 3797 4528 4122 4306 
z
" id="DejaVuSans-43" transform="scale(0.015625)"/>
     </defs>
     <use xlink:href="#DejaVuSans-4f"/>
     <use x="78.710938" xlink:href="#DejaVuSans-76"/>
     <use x="137.890625" xlink:href="#DejaVuSans-65"/>
     <use x="199.414062" xlink:href="#DejaVuSans-72"/>
     <use x="240.527344" xlink:href="#DejaVuSans-61"/>
     <use x="301.806641" xlink:href="#DejaVuSans-6c"/>
     <use x="329.589844" xlink:href="#DejaVuSans-6c"/>
     <use x="357.373047" xlink:href="#DejaVuSans-20"/>
     <use x="389.160156" xlink:href="#DejaVuSans-52"/>
     <use x="458.642578" xlink:href="#DejaVuSans-4f"/>
     <use x="537.353516" xlink:href="#DejaVuSans-43"/>
     <use x="607.177734" xlink:href="#DejaVuSans-20"/>
     <use x="638.964844" xlink:href="#DejaVuSans-43"/>
     <use x="708.789062" xlink:href="#DejaVuSans-75"/>
     <use x="772.167969" xlink:href="#DejaVuSans-72"/>
     <use x="813.28125" xlink:href="#DejaVuSans-76"/>
     <use x="872.460938" xlink:href="#DejaVuSans-65"/>
     <use x="933.984375" xlink:href="#DejaVuSans-73"/>
    </g>
   </g>
   <g id="legend_1">
    <g id="patch_7">
     <path d="M 173.155937 302.584 
L 407.72 302.584 
Q 409.72 302.584 409.72 300.584 
L 409.72 272.22775 
Q 409.72 270.22775 407.72 270.22775 
L 173.155937 270.22775 
Q 171.155937 270.22775 171.155937 272.22775 
L 171.155937 300.584 
Q 171.155937 302.584 173.155937 302.584 
z
" style="fill:#ffffff;opacity:0.8;stroke:#cccccc;stroke-linejoin:miter;"/>
    </g>
    <g id="line2d_16">
     <path d="M 175.155937 278.326187 
L 195.155937 278.326187 
" style="fill:none;stroke:#ff1493;stroke-dasharray:4,6.6;stroke-dashoffset:0;stroke-width:4;"/>
    </g>
    <g id="line2d_17"/>
    <g id="text_16">
     <!-- micro-average ROC curve (area = 0.99) -->
     <g transform="translate(203.155937 281.826187)scale(0.1 -0.1)">
      <defs>
       <path d="M 3328 2828 
Q 3544 3216 3844 3400 
Q 4144 3584 4550 3584 
Q 5097 3584 5394 3201 
Q 5691 2819 5691 2113 
L 5691 0 
L 5113 0 
L 5113 2094 
Q 5113 2597 4934 2840 
Q 4756 3084 4391 3084 
Q 3944 3084 3684 2787 
Q 3425 2491 3425 1978 
L 3425 0 
L 2847 0 
L 2847 2094 
Q 2847 2600 2669 2842 
Q 2491 3084 2119 3084 
Q 1678 3084 1418 2786 
Q 1159 2488 1159 1978 
L 1159 0 
L 581 0 
L 581 3500 
L 1159 3500 
L 1159 2956 
Q 1356 3278 1631 3431 
Q 1906 3584 2284 3584 
Q 2666 3584 2933 3390 
Q 3200 3197 3328 2828 
z
" id="DejaVuSans-6d" transform="scale(0.015625)"/>
       <path d="M 3122 3366 
L 3122 2828 
Q 2878 2963 2633 3030 
Q 2388 3097 2138 3097 
Q 1578 3097 1268 2742 
Q 959 2388 959 1747 
Q 959 1106 1268 751 
Q 1578 397 2138 397 
Q 2388 397 2633 464 
Q 2878 531 3122 666 
L 3122 134 
Q 2881 22 2623 -34 
Q 2366 -91 2075 -91 
Q 1284 -91 818 406 
Q 353 903 353 1747 
Q 353 2603 823 3093 
Q 1294 3584 2113 3584 
Q 2378 3584 2631 3529 
Q 2884 3475 3122 3366 
z
" id="DejaVuSans-63" transform="scale(0.015625)"/>
       <path d="M 313 2009 
L 1997 2009 
L 1997 1497 
L 313 1497 
L 313 2009 
z
" id="DejaVuSans-2d" transform="scale(0.015625)"/>
       <path d="M 2906 1791 
Q 2906 2416 2648 2759 
Q 2391 3103 1925 3103 
Q 1463 3103 1205 2759 
Q 947 2416 947 1791 
Q 947 1169 1205 825 
Q 1463 481 1925 481 
Q 2391 481 2648 825 
Q 2906 1169 2906 1791 
z
M 3481 434 
Q 3481 -459 3084 -895 
Q 2688 -1331 1869 -1331 
Q 1566 -1331 1297 -1286 
Q 1028 -1241 775 -1147 
L 775 -588 
Q 1028 -725 1275 -790 
Q 1522 -856 1778 -856 
Q 2344 -856 2625 -561 
Q 2906 -266 2906 331 
L 2906 616 
Q 2728 306 2450 153 
Q 2172 0 1784 0 
Q 1141 0 747 490 
Q 353 981 353 1791 
Q 353 2603 747 3093 
Q 1141 3584 1784 3584 
Q 2172 3584 2450 3431 
Q 2728 3278 2906 2969 
L 2906 3500 
L 3481 3500 
L 3481 434 
z
" id="DejaVuSans-67" transform="scale(0.015625)"/>
       <path d="M 1984 4856 
Q 1566 4138 1362 3434 
Q 1159 2731 1159 2009 
Q 1159 1288 1364 580 
Q 1569 -128 1984 -844 
L 1484 -844 
Q 1016 -109 783 600 
Q 550 1309 550 2009 
Q 550 2706 781 3412 
Q 1013 4119 1484 4856 
L 1984 4856 
z
" id="DejaVuSans-28" transform="scale(0.015625)"/>
       <path d="M 678 2906 
L 4684 2906 
L 4684 2381 
L 678 2381 
L 678 2906 
z
M 678 1631 
L 4684 1631 
L 4684 1100 
L 678 1100 
L 678 1631 
z
" id="DejaVuSans-3d" transform="scale(0.015625)"/>
       <path d="M 703 97 
L 703 672 
Q 941 559 1184 500 
Q 1428 441 1663 441 
Q 2288 441 2617 861 
Q 2947 1281 2994 2138 
Q 2813 1869 2534 1725 
Q 2256 1581 1919 1581 
Q 1219 1581 811 2004 
Q 403 2428 403 3163 
Q 403 3881 828 4315 
Q 1253 4750 1959 4750 
Q 2769 4750 3195 4129 
Q 3622 3509 3622 2328 
Q 3622 1225 3098 567 
Q 2575 -91 1691 -91 
Q 1453 -91 1209 -44 
Q 966 3 703 97 
z
M 1959 2075 
Q 2384 2075 2632 2365 
Q 2881 2656 2881 3163 
Q 2881 3666 2632 3958 
Q 2384 4250 1959 4250 
Q 1534 4250 1286 3958 
Q 1038 3666 1038 3163 
Q 1038 2656 1286 2365 
Q 1534 2075 1959 2075 
z
" id="DejaVuSans-39" transform="scale(0.015625)"/>
       <path d="M 513 4856 
L 1013 4856 
Q 1481 4119 1714 3412 
Q 1947 2706 1947 2009 
Q 1947 1309 1714 600 
Q 1481 -109 1013 -844 
L 513 -844 
Q 928 -128 1133 580 
Q 1338 1288 1338 2009 
Q 1338 2731 1133 3434 
Q 928 4138 513 4856 
z
" id="DejaVuSans-29" transform="scale(0.015625)"/>
      </defs>
      <use xlink:href="#DejaVuSans-6d"/>
      <use x="97.412109" xlink:href="#DejaVuSans-69"/>
      <use x="125.195312" xlink:href="#DejaVuSans-63"/>
      <use x="180.175781" xlink:href="#DejaVuSans-72"/>
      <use x="219.039062" xlink:href="#DejaVuSans-6f"/>
      <use x="282.095703" xlink:href="#DejaVuSans-2d"/>
      <use x="318.179688" xlink:href="#DejaVuSans-61"/>
      <use x="379.458984" xlink:href="#DejaVuSans-76"/>
      <use x="438.638672" xlink:href="#DejaVuSans-65"/>
      <use x="500.162109" xlink:href="#DejaVuSans-72"/>
      <use x="541.275391" xlink:href="#DejaVuSans-61"/>
      <use x="602.554688" xlink:href="#DejaVuSans-67"/>
      <use x="666.03125" xlink:href="#DejaVuSans-65"/>
      <use x="727.554688" xlink:href="#DejaVuSans-20"/>
      <use x="759.341797" xlink:href="#DejaVuSans-52"/>
      <use x="828.824219" xlink:href="#DejaVuSans-4f"/>
      <use x="907.535156" xlink:href="#DejaVuSans-43"/>
      <use x="977.359375" xlink:href="#DejaVuSans-20"/>
      <use x="1009.146484" xlink:href="#DejaVuSans-63"/>
      <use x="1064.126953" xlink:href="#DejaVuSans-75"/>
      <use x="1127.505859" xlink:href="#DejaVuSans-72"/>
      <use x="1168.619141" xlink:href="#DejaVuSans-76"/>
      <use x="1227.798828" xlink:href="#DejaVuSans-65"/>
      <use x="1289.322266" xlink:href="#DejaVuSans-20"/>
      <use x="1321.109375" xlink:href="#DejaVuSans-28"/>
      <use x="1360.123047" xlink:href="#DejaVuSans-61"/>
      <use x="1421.402344" xlink:href="#DejaVuSans-72"/>
      <use x="1460.265625" xlink:href="#DejaVuSans-65"/>
      <use x="1521.789062" xlink:href="#DejaVuSans-61"/>
      <use x="1583.068359" xlink:href="#DejaVuSans-20"/>
      <use x="1614.855469" xlink:href="#DejaVuSans-3d"/>
      <use x="1698.644531" xlink:href="#DejaVuSans-20"/>
      <use x="1730.431641" xlink:href="#DejaVuSans-30"/>
      <use x="1794.054688" xlink:href="#DejaVuSans-2e"/>
      <use x="1825.841797" xlink:href="#DejaVuSans-39"/>
      <use x="1889.464844" xlink:href="#DejaVuSans-39"/>
      <use x="1953.087891" xlink:href="#DejaVuSans-29"/>
     </g>
    </g>
    <g id="line2d_18">
     <path d="M 175.155937 293.004312 
L 195.155937 293.004312 
" style="fill:none;stroke:#000080;stroke-dasharray:4,6.6;stroke-dashoffset:0;stroke-width:4;"/>
    </g>
    <g id="line2d_19"/>
    <g id="text_17">
     <!-- macro-average ROC curve (area = 0.98) -->
     <g transform="translate(203.155937 296.504312)scale(0.1 -0.1)">
      <use xlink:href="#DejaVuSans-6d"/>
      <use x="97.412109" xlink:href="#DejaVuSans-61"/>
      <use x="158.691406" xlink:href="#DejaVuSans-63"/>
      <use x="213.671875" xlink:href="#DejaVuSans-72"/>
      <use x="252.535156" xlink:href="#DejaVuSans-6f"/>
      <use x="315.591797" xlink:href="#DejaVuSans-2d"/>
      <use x="351.675781" xlink:href="#DejaVuSans-61"/>
      <use x="412.955078" xlink:href="#DejaVuSans-76"/>
      <use x="472.134766" xlink:href="#DejaVuSans-65"/>
      <use x="533.658203" xlink:href="#DejaVuSans-72"/>
      <use x="574.771484" xlink:href="#DejaVuSans-61"/>
      <use x="636.050781" xlink:href="#DejaVuSans-67"/>
      <use x="699.527344" xlink:href="#DejaVuSans-65"/>
      <use x="761.050781" xlink:href="#DejaVuSans-20"/>
      <use x="792.837891" xlink:href="#DejaVuSans-52"/>
      <use x="862.320312" xlink:href="#DejaVuSans-4f"/>
      <use x="941.03125" xlink:href="#DejaVuSans-43"/>
      <use x="1010.855469" xlink:href="#DejaVuSans-20"/>
      <use x="1042.642578" xlink:href="#DejaVuSans-63"/>
      <use x="1097.623047" xlink:href="#DejaVuSans-75"/>
      <use x="1161.001953" xlink:href="#DejaVuSans-72"/>
      <use x="1202.115234" xlink:href="#DejaVuSans-76"/>
      <use x="1261.294922" xlink:href="#DejaVuSans-65"/>
      <use x="1322.818359" xlink:href="#DejaVuSans-20"/>
      <use x="1354.605469" xlink:href="#DejaVuSans-28"/>
      <use x="1393.619141" xlink:href="#DejaVuSans-61"/>
      <use x="1454.898438" xlink:href="#DejaVuSans-72"/>
      <use x="1493.761719" xlink:href="#DejaVuSans-65"/>
      <use x="1555.285156" xlink:href="#DejaVuSans-61"/>
      <use x="1616.564453" xlink:href="#DejaVuSans-20"/>
      <use x="1648.351562" xlink:href="#DejaVuSans-3d"/>
      <use x="1732.140625" xlink:href="#DejaVuSans-20"/>
      <use x="1763.927734" xlink:href="#DejaVuSans-30"/>
      <use x="1827.550781" xlink:href="#DejaVuSans-2e"/>
      <use x="1859.337891" xlink:href="#DejaVuSans-39"/>
      <use x="1922.960938" xlink:href="#DejaVuSans-38"/>
      <use x="1986.583984" xlink:href="#DejaVuSans-29"/>
     </g>
    </g>
   </g>
  </g>
 </g>
 <defs>
  <clipPath id="pebea356993">
   <rect height="266.112" width="357.12" x="57.6" y="41.472"/>
  </clipPath>
 </defs>
</svg>
