<?xml version="1.0" encoding="utf-8" standalone="no"?>
<!DOCTYPE svg PUBLIC "-//W3C//DTD SVG 1.1//EN"
  "http://www.w3.org/Graphics/SVG/1.1/DTD/svg11.dtd">
<!-- Created with matplotlib (https://matplotlib.org/) -->
<svg height="345.6pt" version="1.1" viewBox="0 0 460.8 345.6" width="460.8pt" xmlns="http://www.w3.org/2000/svg" xmlns:xlink="http://www.w3.org/1999/xlink">
 <metadata>
  <rdf:RDF xmlns:cc="http://creativecommons.org/ns#" xmlns:dc="http://purl.org/dc/elements/1.1/" xmlns:rdf="http://www.w3.org/1999/02/22-rdf-syntax-ns#">
   <cc:Work>
    <dc:type rdf:resource="http://purl.org/dc/dcmitype/StillImage"/>
    <dc:date>2021-07-28T22:30:51.107190</dc:date>
    <dc:format>image/svg+xml</dc:format>
    <dc:creator>
     <cc:Agent>
      <dc:title>Matplotlib v3.3.4, https://matplotlib.org/</dc:title>
     </cc:Agent>
    </dc:creator>
   </cc:Work>
  </rdf:RDF>
 </metadata>
 <defs>
  <style type="text/css">*{stroke-linecap:butt;stroke-linejoin:round;}</style>
 </defs>
 <g id="figure_1">
  <g id="patch_1">
   <path d="M 0 345.6 
L 460.8 345.6 
L 460.8 0 
L 0 0 
z
" style="fill:#ffffff;"/>
  </g>
  <g id="axes_1">
   <g id="patch_2">
    <path d="M 57.6 307.584 
L 414.72 307.584 
L 414.72 41.472 
L 57.6 41.472 
z
" style="fill:#ffffff;"/>
   </g>
   <g id="matplotlib.axis_1">
    <g id="xtick_1">
     <g id="line2d_1">
      <defs>
       <path d="M 0 0 
L 0 3.5 
" id="ma9dd676672" style="stroke:#000000;stroke-width:0.8;"/>
      </defs>
      <g>
       <use style="stroke:#000000;stroke-width:0.8;" x="57.6" xlink:href="#ma9dd676672" y="307.584"/>
      </g>
     </g>
     <g id="text_1">
      <!-- 0.0 -->
      <g transform="translate(49.648438 322.182437)scale(0.1 -0.1)">
       <defs>
        <path d="M 31.78125 66.40625 
Q 24.171875 66.40625 20.328125 58.90625 
Q 16.5 51.421875 16.5 36.375 
Q 16.5 21.390625 20.328125 13.890625 
Q 24.171875 6.390625 31.78125 6.390625 
Q 39.453125 6.390625 43.28125 13.890625 
Q 47.125 21.390625 47.125 36.375 
Q 47.125 51.421875 43.28125 58.90625 
Q 39.453125 66.40625 31.78125 66.40625 
z
M 31.78125 74.21875 
Q 44.046875 74.21875 50.515625 64.515625 
Q 56.984375 54.828125 56.984375 36.375 
Q 56.984375 17.96875 50.515625 8.265625 
Q 44.046875 -1.421875 31.78125 -1.421875 
Q 19.53125 -1.421875 13.0625 8.265625 
Q 6.59375 17.96875 6.59375 36.375 
Q 6.59375 54.828125 13.0625 64.515625 
Q 19.53125 74.21875 31.78125 74.21875 
z
" id="DejaVuSans-48"/>
        <path d="M 10.6875 12.40625 
L 21 12.40625 
L 21 0 
L 10.6875 0 
z
" id="DejaVuSans-46"/>
       </defs>
       <use xlink:href="#DejaVuSans-48"/>
       <use x="63.623047" xlink:href="#DejaVuSans-46"/>
       <use x="95.410156" xlink:href="#DejaVuSans-48"/>
      </g>
     </g>
    </g>
    <g id="xtick_2">
     <g id="line2d_2">
      <g>
       <use style="stroke:#000000;stroke-width:0.8;" x="129.024" xlink:href="#ma9dd676672" y="307.584"/>
      </g>
     </g>
     <g id="text_2">
      <!-- 0.2 -->
      <g transform="translate(121.072438 322.182437)scale(0.1 -0.1)">
       <defs>
        <path d="M 19.1875 8.296875 
L 53.609375 8.296875 
L 53.609375 0 
L 7.328125 0 
L 7.328125 8.296875 
Q 12.9375 14.109375 22.625 23.890625 
Q 32.328125 33.6875 34.8125 36.53125 
Q 39.546875 41.84375 41.421875 45.53125 
Q 43.3125 49.21875 43.3125 52.78125 
Q 43.3125 58.59375 39.234375 62.25 
Q 35.15625 65.921875 28.609375 65.921875 
Q 23.96875 65.921875 18.8125 64.3125 
Q 13.671875 62.703125 7.8125 59.421875 
L 7.8125 69.390625 
Q 13.765625 71.78125 18.9375 73 
Q 24.125 74.21875 28.421875 74.21875 
Q 39.75 74.21875 46.484375 68.546875 
Q 53.21875 62.890625 53.21875 53.421875 
Q 53.21875 48.921875 51.53125 44.890625 
Q 49.859375 40.875 45.40625 35.40625 
Q 44.1875 33.984375 37.640625 27.21875 
Q 31.109375 20.453125 19.1875 8.296875 
z
" id="DejaVuSans-50"/>
       </defs>
       <use xlink:href="#DejaVuSans-48"/>
       <use x="63.623047" xlink:href="#DejaVuSans-46"/>
       <use x="95.410156" xlink:href="#DejaVuSans-50"/>
      </g>
     </g>
    </g>
    <g id="xtick_3">
     <g id="line2d_3">
      <g>
       <use style="stroke:#000000;stroke-width:0.8;" x="200.448" xlink:href="#ma9dd676672" y="307.584"/>
      </g>
     </g>
     <g id="text_3">
      <!-- 0.4 -->
      <g transform="translate(192.496438 322.182437)scale(0.1 -0.1)">
       <defs>
        <path d="M 37.796875 64.3125 
L 12.890625 25.390625 
L 37.796875 25.390625 
z
M 35.203125 72.90625 
L 47.609375 72.90625 
L 47.609375 25.390625 
L 58.015625 25.390625 
L 58.015625 17.1875 
L 47.609375 17.1875 
L 47.609375 0 
L 37.796875 0 
L 37.796875 17.1875 
L 4.890625 17.1875 
L 4.890625 26.703125 
z
" id="DejaVuSans-52"/>
       </defs>
       <use xlink:href="#DejaVuSans-48"/>
       <use x="63.623047" xlink:href="#DejaVuSans-46"/>
       <use x="95.410156" xlink:href="#DejaVuSans-52"/>
      </g>
     </g>
    </g>
    <g id="xtick_4">
     <g id="line2d_4">
      <g>
       <use style="stroke:#000000;stroke-width:0.8;" x="271.872" xlink:href="#ma9dd676672" y="307.584"/>
      </g>
     </g>
     <g id="text_4">
      <!-- 0.6 -->
      <g transform="translate(263.920438 322.182437)scale(0.1 -0.1)">
       <defs>
        <path d="M 33.015625 40.375 
Q 26.375 40.375 22.484375 35.828125 
Q 18.609375 31.296875 18.609375 23.390625 
Q 18.609375 15.53125 22.484375 10.953125 
Q 26.375 6.390625 33.015625 6.390625 
Q 39.65625 6.390625 43.53125 10.953125 
Q 47.40625 15.53125 47.40625 23.390625 
Q 47.40625 31.296875 43.53125 35.828125 
Q 39.65625 40.375 33.015625 40.375 
z
M 52.59375 71.296875 
L 52.59375 62.3125 
Q 48.875 64.0625 45.09375 64.984375 
Q 41.3125 65.921875 37.59375 65.921875 
Q 27.828125 65.921875 22.671875 59.328125 
Q 17.53125 52.734375 16.796875 39.40625 
Q 19.671875 43.65625 24.015625 45.921875 
Q 28.375 48.1875 33.59375 48.1875 
Q 44.578125 48.1875 50.953125 41.515625 
Q 57.328125 34.859375 57.328125 23.390625 
Q 57.328125 12.15625 50.6875 5.359375 
Q 44.046875 -1.421875 33.015625 -1.421875 
Q 20.359375 -1.421875 13.671875 8.265625 
Q 6.984375 17.96875 6.984375 36.375 
Q 6.984375 53.65625 15.1875 63.9375 
Q 23.390625 74.21875 37.203125 74.21875 
Q 40.921875 74.21875 44.703125 73.484375 
Q 48.484375 72.75 52.59375 71.296875 
z
" id="DejaVuSans-54"/>
       </defs>
       <use xlink:href="#DejaVuSans-48"/>
       <use x="63.623047" xlink:href="#DejaVuSans-46"/>
       <use x="95.410156" xlink:href="#DejaVuSans-54"/>
      </g>
     </g>
    </g>
    <g id="xtick_5">
     <g id="line2d_5">
      <g>
       <use style="stroke:#000000;stroke-width:0.8;" x="343.296" xlink:href="#ma9dd676672" y="307.584"/>
      </g>
     </g>
     <g id="text_5">
      <!-- 0.8 -->
      <g transform="translate(335.344438 322.182437)scale(0.1 -0.1)">
       <defs>
        <path d="M 31.78125 34.625 
Q 24.75 34.625 20.71875 30.859375 
Q 16.703125 27.09375 16.703125 20.515625 
Q 16.703125 13.921875 20.71875 10.15625 
Q 24.75 6.390625 31.78125 6.390625 
Q 38.8125 6.390625 42.859375 10.171875 
Q 46.921875 13.96875 46.921875 20.515625 
Q 46.921875 27.09375 42.890625 30.859375 
Q 38.875 34.625 31.78125 34.625 
z
M 21.921875 38.8125 
Q 15.578125 40.375 12.03125 44.71875 
Q 8.5 49.078125 8.5 55.328125 
Q 8.5 64.0625 14.71875 69.140625 
Q 20.953125 74.21875 31.78125 74.21875 
Q 42.671875 74.21875 48.875 69.140625 
Q 55.078125 64.0625 55.078125 55.328125 
Q 55.078125 49.078125 51.53125 44.71875 
Q 48 40.375 41.703125 38.8125 
Q 48.828125 37.15625 52.796875 32.3125 
Q 56.78125 27.484375 56.78125 20.515625 
Q 56.78125 9.90625 50.3125 4.234375 
Q 43.84375 -1.421875 31.78125 -1.421875 
Q 19.734375 -1.421875 13.25 4.234375 
Q 6.78125 9.90625 6.78125 20.515625 
Q 6.78125 27.484375 10.78125 32.3125 
Q 14.796875 37.15625 21.921875 38.8125 
z
M 18.3125 54.390625 
Q 18.3125 48.734375 21.84375 45.5625 
Q 25.390625 42.390625 31.78125 42.390625 
Q 38.140625 42.390625 41.71875 45.5625 
Q 45.3125 48.734375 45.3125 54.390625 
Q 45.3125 60.0625 41.71875 63.234375 
Q 38.140625 66.40625 31.78125 66.40625 
Q 25.390625 66.40625 21.84375 63.234375 
Q 18.3125 60.0625 18.3125 54.390625 
z
" id="DejaVuSans-56"/>
       </defs>
       <use xlink:href="#DejaVuSans-48"/>
       <use x="63.623047" xlink:href="#DejaVuSans-46"/>
       <use x="95.410156" xlink:href="#DejaVuSans-56"/>
      </g>
     </g>
    </g>
    <g id="xtick_6">
     <g id="line2d_6">
      <g>
       <use style="stroke:#000000;stroke-width:0.8;" x="414.72" xlink:href="#ma9dd676672" y="307.584"/>
      </g>
     </g>
     <g id="text_6">
      <!-- 1.0 -->
      <g transform="translate(406.768438 322.182437)scale(0.1 -0.1)">
       <defs>
        <path d="M 12.40625 8.296875 
L 28.515625 8.296875 
L 28.515625 63.921875 
L 10.984375 60.40625 
L 10.984375 69.390625 
L 28.421875 72.90625 
L 38.28125 72.90625 
L 38.28125 8.296875 
L 54.390625 8.296875 
L 54.390625 0 
L 12.40625 0 
z
" id="DejaVuSans-49"/>
       </defs>
       <use xlink:href="#DejaVuSans-49"/>
       <use x="63.623047" xlink:href="#DejaVuSans-46"/>
       <use x="95.410156" xlink:href="#DejaVuSans-48"/>
      </g>
     </g>
    </g>
    <g id="text_7">
     <!-- Recall -->
     <g transform="translate(221.242812 335.860562)scale(0.1 -0.1)">
      <defs>
       <path d="M 44.390625 34.1875 
Q 47.5625 33.109375 50.5625 29.59375 
Q 53.5625 26.078125 56.59375 19.921875 
L 66.609375 0 
L 56 0 
L 46.6875 18.703125 
Q 43.0625 26.03125 39.671875 28.421875 
Q 36.28125 30.8125 30.421875 30.8125 
L 19.671875 30.8125 
L 19.671875 0 
L 9.8125 0 
L 9.8125 72.90625 
L 32.078125 72.90625 
Q 44.578125 72.90625 50.734375 67.671875 
Q 56.890625 62.453125 56.890625 51.90625 
Q 56.890625 45.015625 53.6875 40.46875 
Q 50.484375 35.9375 44.390625 34.1875 
z
M 19.671875 64.796875 
L 19.671875 38.921875 
L 32.078125 38.921875 
Q 39.203125 38.921875 42.84375 42.21875 
Q 46.484375 45.515625 46.484375 51.90625 
Q 46.484375 58.296875 42.84375 61.546875 
Q 39.203125 64.796875 32.078125 64.796875 
z
" id="DejaVuSans-82"/>
       <path d="M 56.203125 29.59375 
L 56.203125 25.203125 
L 14.890625 25.203125 
Q 15.484375 15.921875 20.484375 11.0625 
Q 25.484375 6.203125 34.421875 6.203125 
Q 39.59375 6.203125 44.453125 7.46875 
Q 49.3125 8.734375 54.109375 11.28125 
L 54.109375 2.78125 
Q 49.265625 0.734375 44.1875 -0.34375 
Q 39.109375 -1.421875 33.890625 -1.421875 
Q 20.796875 -1.421875 13.15625 6.1875 
Q 5.515625 13.8125 5.515625 26.8125 
Q 5.515625 40.234375 12.765625 48.109375 
Q 20.015625 56 32.328125 56 
Q 43.359375 56 49.78125 48.890625 
Q 56.203125 41.796875 56.203125 29.59375 
z
M 47.21875 32.234375 
Q 47.125 39.59375 43.09375 43.984375 
Q 39.0625 48.390625 32.421875 48.390625 
Q 24.90625 48.390625 20.390625 44.140625 
Q 15.875 39.890625 15.1875 32.171875 
z
" id="DejaVuSans-101"/>
       <path d="M 48.78125 52.59375 
L 48.78125 44.1875 
Q 44.96875 46.296875 41.140625 47.34375 
Q 37.3125 48.390625 33.40625 48.390625 
Q 24.65625 48.390625 19.8125 42.84375 
Q 14.984375 37.3125 14.984375 27.296875 
Q 14.984375 17.28125 19.8125 11.734375 
Q 24.65625 6.203125 33.40625 6.203125 
Q 37.3125 6.203125 41.140625 7.25 
Q 44.96875 8.296875 48.78125 10.40625 
L 48.78125 2.09375 
Q 45.015625 0.34375 40.984375 -0.53125 
Q 36.96875 -1.421875 32.421875 -1.421875 
Q 20.0625 -1.421875 12.78125 6.34375 
Q 5.515625 14.109375 5.515625 27.296875 
Q 5.515625 40.671875 12.859375 48.328125 
Q 20.21875 56 33.015625 56 
Q 37.15625 56 41.109375 55.140625 
Q 45.0625 54.296875 48.78125 52.59375 
z
" id="DejaVuSans-99"/>
       <path d="M 34.28125 27.484375 
Q 23.390625 27.484375 19.1875 25 
Q 14.984375 22.515625 14.984375 16.5 
Q 14.984375 11.71875 18.140625 8.90625 
Q 21.296875 6.109375 26.703125 6.109375 
Q 34.1875 6.109375 38.703125 11.40625 
Q 43.21875 16.703125 43.21875 25.484375 
L 43.21875 27.484375 
z
M 52.203125 31.203125 
L 52.203125 0 
L 43.21875 0 
L 43.21875 8.296875 
Q 40.140625 3.328125 35.546875 0.953125 
Q 30.953125 -1.421875 24.3125 -1.421875 
Q 15.921875 -1.421875 10.953125 3.296875 
Q 6 8.015625 6 15.921875 
Q 6 25.140625 12.171875 29.828125 
Q 18.359375 34.515625 30.609375 34.515625 
L 43.21875 34.515625 
L 43.21875 35.40625 
Q 43.21875 41.609375 39.140625 45 
Q 35.0625 48.390625 27.6875 48.390625 
Q 23 48.390625 18.546875 47.265625 
Q 14.109375 46.140625 10.015625 43.890625 
L 10.015625 52.203125 
Q 14.9375 54.109375 19.578125 55.046875 
Q 24.21875 56 28.609375 56 
Q 40.484375 56 46.34375 49.84375 
Q 52.203125 43.703125 52.203125 31.203125 
z
" id="DejaVuSans-97"/>
       <path d="M 9.421875 75.984375 
L 18.40625 75.984375 
L 18.40625 0 
L 9.421875 0 
z
" id="DejaVuSans-108"/>
      </defs>
      <use xlink:href="#DejaVuSans-82"/>
      <use x="64.982422" xlink:href="#DejaVuSans-101"/>
      <use x="126.505859" xlink:href="#DejaVuSans-99"/>
      <use x="181.486328" xlink:href="#DejaVuSans-97"/>
      <use x="242.765625" xlink:href="#DejaVuSans-108"/>
      <use x="270.548828" xlink:href="#DejaVuSans-108"/>
     </g>
    </g>
   </g>
   <g id="matplotlib.axis_2">
    <g id="ytick_1">
     <g id="line2d_7">
      <defs>
       <path d="M 0 0 
L -3.5 0 
" id="mb0dea1f97a" style="stroke:#000000;stroke-width:0.8;"/>
      </defs>
      <g>
       <use style="stroke:#000000;stroke-width:0.8;" x="57.6" xlink:href="#mb0dea1f97a" y="307.584"/>
      </g>
     </g>
     <g id="text_8">
      <!-- 0.0 -->
      <g transform="translate(34.696875 311.383219)scale(0.1 -0.1)">
       <use xlink:href="#DejaVuSans-48"/>
       <use x="63.623047" xlink:href="#DejaVuSans-46"/>
       <use x="95.410156" xlink:href="#DejaVuSans-48"/>
      </g>
     </g>
    </g>
    <g id="ytick_2">
     <g id="line2d_8">
      <g>
       <use style="stroke:#000000;stroke-width:0.8;" x="57.6" xlink:href="#mb0dea1f97a" y="256.896"/>
      </g>
     </g>
     <g id="text_9">
      <!-- 0.2 -->
      <g transform="translate(34.696875 260.695219)scale(0.1 -0.1)">
       <use xlink:href="#DejaVuSans-48"/>
       <use x="63.623047" xlink:href="#DejaVuSans-46"/>
       <use x="95.410156" xlink:href="#DejaVuSans-50"/>
      </g>
     </g>
    </g>
    <g id="ytick_3">
     <g id="line2d_9">
      <g>
       <use style="stroke:#000000;stroke-width:0.8;" x="57.6" xlink:href="#mb0dea1f97a" y="206.208"/>
      </g>
     </g>
     <g id="text_10">
      <!-- 0.4 -->
      <g transform="translate(34.696875 210.007219)scale(0.1 -0.1)">
       <use xlink:href="#DejaVuSans-48"/>
       <use x="63.623047" xlink:href="#DejaVuSans-46"/>
       <use x="95.410156" xlink:href="#DejaVuSans-52"/>
      </g>
     </g>
    </g>
    <g id="ytick_4">
     <g id="line2d_10">
      <g>
       <use style="stroke:#000000;stroke-width:0.8;" x="57.6" xlink:href="#mb0dea1f97a" y="155.52"/>
      </g>
     </g>
     <g id="text_11">
      <!-- 0.6 -->
      <g transform="translate(34.696875 159.319219)scale(0.1 -0.1)">
       <use xlink:href="#DejaVuSans-48"/>
       <use x="63.623047" xlink:href="#DejaVuSans-46"/>
       <use x="95.410156" xlink:href="#DejaVuSans-54"/>
      </g>
     </g>
    </g>
    <g id="ytick_5">
     <g id="line2d_11">
      <g>
       <use style="stroke:#000000;stroke-width:0.8;" x="57.6" xlink:href="#mb0dea1f97a" y="104.832"/>
      </g>
     </g>
     <g id="text_12">
      <!-- 0.8 -->
      <g transform="translate(34.696875 108.631219)scale(0.1 -0.1)">
       <use xlink:href="#DejaVuSans-48"/>
       <use x="63.623047" xlink:href="#DejaVuSans-46"/>
       <use x="95.410156" xlink:href="#DejaVuSans-56"/>
      </g>
     </g>
    </g>
    <g id="ytick_6">
     <g id="line2d_12">
      <g>
       <use style="stroke:#000000;stroke-width:0.8;" x="57.6" xlink:href="#mb0dea1f97a" y="54.144"/>
      </g>
     </g>
     <g id="text_13">
      <!-- 1.0 -->
      <g transform="translate(34.696875 57.943219)scale(0.1 -0.1)">
       <use xlink:href="#DejaVuSans-49"/>
       <use x="63.623047" xlink:href="#DejaVuSans-46"/>
       <use x="95.410156" xlink:href="#DejaVuSans-48"/>
      </g>
     </g>
    </g>
    <g id="text_14">
     <!-- Precision -->
     <g transform="translate(28.617187 196.835031)rotate(-90)scale(0.1 -0.1)">
      <defs>
       <path d="M 19.671875 64.796875 
L 19.671875 37.40625 
L 32.078125 37.40625 
Q 38.96875 37.40625 42.71875 40.96875 
Q 46.484375 44.53125 46.484375 51.125 
Q 46.484375 57.671875 42.71875 61.234375 
Q 38.96875 64.796875 32.078125 64.796875 
z
M 9.8125 72.90625 
L 32.078125 72.90625 
Q 44.34375 72.90625 50.609375 67.359375 
Q 56.890625 61.8125 56.890625 51.125 
Q 56.890625 40.328125 50.609375 34.8125 
Q 44.34375 29.296875 32.078125 29.296875 
L 19.671875 29.296875 
L 19.671875 0 
L 9.8125 0 
z
" id="DejaVuSans-80"/>
       <path d="M 41.109375 46.296875 
Q 39.59375 47.171875 37.8125 47.578125 
Q 36.03125 48 33.890625 48 
Q 26.265625 48 22.1875 43.046875 
Q 18.109375 38.09375 18.109375 28.8125 
L 18.109375 0 
L 9.078125 0 
L 9.078125 54.6875 
L 18.109375 54.6875 
L 18.109375 46.1875 
Q 20.953125 51.171875 25.484375 53.578125 
Q 30.03125 56 36.53125 56 
Q 37.453125 56 38.578125 55.875 
Q 39.703125 55.765625 41.0625 55.515625 
z
" id="DejaVuSans-114"/>
       <path d="M 9.421875 54.6875 
L 18.40625 54.6875 
L 18.40625 0 
L 9.421875 0 
z
M 9.421875 75.984375 
L 18.40625 75.984375 
L 18.40625 64.59375 
L 9.421875 64.59375 
z
" id="DejaVuSans-105"/>
       <path d="M 44.28125 53.078125 
L 44.28125 44.578125 
Q 40.484375 46.53125 36.375 47.5 
Q 32.28125 48.484375 27.875 48.484375 
Q 21.1875 48.484375 17.84375 46.4375 
Q 14.5 44.390625 14.5 40.28125 
Q 14.5 37.15625 16.890625 35.375 
Q 19.28125 33.59375 26.515625 31.984375 
L 29.59375 31.296875 
Q 39.15625 29.25 43.1875 25.515625 
Q 47.21875 21.78125 47.21875 15.09375 
Q 47.21875 7.46875 41.1875 3.015625 
Q 35.15625 -1.421875 24.609375 -1.421875 
Q 20.21875 -1.421875 15.453125 -0.5625 
Q 10.6875 0.296875 5.421875 2 
L 5.421875 11.28125 
Q 10.40625 8.6875 15.234375 7.390625 
Q 20.0625 6.109375 24.8125 6.109375 
Q 31.15625 6.109375 34.5625 8.28125 
Q 37.984375 10.453125 37.984375 14.40625 
Q 37.984375 18.0625 35.515625 20.015625 
Q 33.0625 21.96875 24.703125 23.78125 
L 21.578125 24.515625 
Q 13.234375 26.265625 9.515625 29.90625 
Q 5.8125 33.546875 5.8125 39.890625 
Q 5.8125 47.609375 11.28125 51.796875 
Q 16.75 56 26.8125 56 
Q 31.78125 56 36.171875 55.265625 
Q 40.578125 54.546875 44.28125 53.078125 
z
" id="DejaVuSans-115"/>
       <path d="M 30.609375 48.390625 
Q 23.390625 48.390625 19.1875 42.75 
Q 14.984375 37.109375 14.984375 27.296875 
Q 14.984375 17.484375 19.15625 11.84375 
Q 23.34375 6.203125 30.609375 6.203125 
Q 37.796875 6.203125 41.984375 11.859375 
Q 46.1875 17.53125 46.1875 27.296875 
Q 46.1875 37.015625 41.984375 42.703125 
Q 37.796875 48.390625 30.609375 48.390625 
z
M 30.609375 56 
Q 42.328125 56 49.015625 48.375 
Q 55.71875 40.765625 55.71875 27.296875 
Q 55.71875 13.875 49.015625 6.21875 
Q 42.328125 -1.421875 30.609375 -1.421875 
Q 18.84375 -1.421875 12.171875 6.21875 
Q 5.515625 13.875 5.515625 27.296875 
Q 5.515625 40.765625 12.171875 48.375 
Q 18.84375 56 30.609375 56 
z
" id="DejaVuSans-111"/>
       <path d="M 54.890625 33.015625 
L 54.890625 0 
L 45.90625 0 
L 45.90625 32.71875 
Q 45.90625 40.484375 42.875 44.328125 
Q 39.84375 48.1875 33.796875 48.1875 
Q 26.515625 48.1875 22.3125 43.546875 
Q 18.109375 38.921875 18.109375 30.90625 
L 18.109375 0 
L 9.078125 0 
L 9.078125 54.6875 
L 18.109375 54.6875 
L 18.109375 46.1875 
Q 21.34375 51.125 25.703125 53.5625 
Q 30.078125 56 35.796875 56 
Q 45.21875 56 50.046875 50.171875 
Q 54.890625 44.34375 54.890625 33.015625 
z
" id="DejaVuSans-110"/>
      </defs>
      <use xlink:href="#DejaVuSans-80"/>
      <use x="58.552734" xlink:href="#DejaVuSans-114"/>
      <use x="97.416016" xlink:href="#DejaVuSans-101"/>
      <use x="158.939453" xlink:href="#DejaVuSans-99"/>
      <use x="213.919922" xlink:href="#DejaVuSans-105"/>
      <use x="241.703125" xlink:href="#DejaVuSans-115"/>
      <use x="293.802734" xlink:href="#DejaVuSans-105"/>
      <use x="321.585938" xlink:href="#DejaVuSans-111"/>
      <use x="382.767578" xlink:href="#DejaVuSans-110"/>
     </g>
    </g>
   </g>
   <g id="line2d_13">
    <path clip-path="url(#p8f2e2a9fc1)" d="M 414.72 212.444063 
L 411.718992 212.945013 
L 411.718992 186.507401 
L 408.717983 187.045463 
L 408.717983 174.613238 
L 405.716975 175.155892 
L 405.716975 167.588571 
L 402.715966 168.131368 
L 402.715966 166.100505 
L 399.714958 166.646634 
L 399.714958 157.104 
L 396.71395 157.643058 
L 396.71395 145.783322 
L 393.712941 146.304 
L 393.712941 145.3824 
L 390.711933 145.906759 
L 390.711933 144.026791 
L 381.708908 145.622343 
L 381.708908 142.695325 
L 378.707899 143.232 
L 378.707899 141.215411 
L 375.706891 141.752889 
L 375.706891 140.722882 
L 372.705882 141.264 
L 372.705882 134.784 
L 369.704874 135.311059 
L 369.704874 134.177684 
L 366.703866 134.707709 
L 366.703866 127.554207 
L 363.702857 128.064 
L 363.702857 122.934857 
L 360.701849 123.429755 
L 360.701849 122.095304 
L 357.70084 122.591299 
L 357.70084 114.118351 
L 354.699832 114.579692 
L 354.699832 111.564 
L 345.696807 112.94208 
L 345.696807 111.372387 
L 342.695798 111.837659 
L 342.695798 110.23318 
L 336.693782 111.168 
L 336.693782 109.517445 
L 333.692773 109.986712 
L 333.692773 93.671339 
L 327.690756 94.410168 
L 327.690756 90.349714 
L 315.686723 91.783604 
L 315.686723 87.424 
L 300.681681 89.194213 
L 300.681681 84.446609 
L 297.680672 84.779604 
L 297.680672 82.304 
L 291.678655 82.944 
L 291.678655 80.361931 
L 288.677647 80.666791 
L 288.677647 75.264 
L 285.676639 75.518458 
L 285.676639 72.68839 
L 267.670588 74.152421 
L 261.668571 74.693189 
L 261.668571 71.502904 
L 249.664538 72.509217 
L 249.664538 69.052235 
L 231.658487 70.494968 
L 216.653445 71.929263 
L 213.652437 72.246857 
L 213.652437 67.968 
L 198.647395 69.3504 
L 186.643361 70.672696 
L 186.643361 65.408 
L 180.641345 65.931907 
L 180.641345 60.178286 
L 165.636303 60.99373 
L 156.633277 61.598118 
L 156.633277 54.144 
L 57.6 54.144 
L 57.6 54.144 
" style="fill:none;stroke:#2c9165;stroke-linecap:square;stroke-width:2;"/>
   </g>
   <g id="line2d_14">
    <path clip-path="url(#p8f2e2a9fc1)" d="M 414.72 113.341664 
L 413.586286 113.486049 
L 413.586286 106.115241 
L 412.452571 106.247147 
L 412.452571 103.65927 
L 411.318857 103.786887 
L 411.318857 96.158118 
L 410.185143 96.270756 
L 410.185143 95.131601 
L 409.051429 95.242378 
L 409.051429 91.742242 
L 407.917714 91.845818 
L 407.917714 90.048 
L 406.784 90.148011 
L 406.784 89.540648 
L 405.650286 89.639798 
L 405.650286 88.411944 
L 404.516571 88.508746 
L 404.516571 86.636308 
L 402.249143 86.82251 
L 402.249143 86.188138 
L 401.115429 86.280484 
L 401.115429 80.387787 
L 399.981714 80.465662 
L 399.981714 79.109731 
L 398.848 79.184479 
L 398.848 77.114393 
L 390.912 77.610667 
L 390.912 76.182261 
L 389.778286 76.250916 
L 389.778286 74.800552 
L 386.377143 74.996658 
L 386.377143 74.258286 
L 385.243429 74.322344 
L 385.243429 71.312516 
L 379.574857 71.593967 
L 379.574857 70.817684 
L 377.307429 70.928106 
L 377.307429 70.141874 
L 375.04 70.248883 
L 375.04 69.452456 
L 372.772571 69.555892 
L 372.772571 67.936653 
L 362.569143 68.372211 
L 362.569143 67.529915 
L 360.301714 67.624851 
L 360.301714 66.770904 
L 359.168 66.816 
L 359.168 65.083856 
L 356.900571 65.16313 
L 356.900571 63.393635 
L 355.766857 63.427516 
L 355.766857 61.625624 
L 344.429714 61.912276 
L 344.429714 60.967385 
L 337.627429 61.128567 
L 337.627429 59.172571 
L 334.226286 59.233157 
L 334.226286 58.231742 
L 295.68 58.881196 
L 295.68 57.713577 
L 293.412571 57.747412 
L 293.412571 56.557714 
L 248.064 57.125647 
L 243.529143 57.197494 
L 243.529143 55.68 
L 199.314286 56.155429 
L 195.913143 56.204488 
L 195.913143 54.144 
L 57.6 54.144 
L 57.6 54.144 
" style="fill:none;stroke:#587a27;stroke-linecap:square;stroke-width:2;"/>
   </g>
   <g id="line2d_15">
    <path clip-path="url(#p8f2e2a9fc1)" d="M 414.72 269.623824 
L 404.216471 270.577274 
L 404.216471 244.224 
L 393.712941 245.674992 
L 393.712941 241.64839 
L 383.209412 243.185311 
L 383.209412 215.152941 
L 372.705882 217.069714 
L 372.705882 200.496676 
L 362.202353 202.587429 
L 362.202353 189.039484 
L 351.698824 191.250885 
L 351.698824 185.233655 
L 341.195294 187.533474 
L 341.195294 136.512 
L 330.691765 138.624 
L 330.691765 134.177684 
L 320.188235 136.340757 
L 320.188235 115.584 
L 309.684706 117.504 
L 299.181176 119.547871 
L 299.181176 106.579862 
L 288.677647 108.452571 
L 288.677647 101.077333 
L 278.174118 102.882462 
L 267.670588 104.832 
L 257.167059 106.944 
L 246.663529 109.239652 
L 236.16 111.744 
L 225.656471 114.486857 
L 225.656471 69.052235 
L 215.152941 69.984 
L 204.649412 71.04 
L 194.145882 72.246857 
L 183.642353 73.639385 
L 173.138824 75.264 
L 162.635294 77.184 
L 152.131765 79.488 
L 152.131765 54.144 
L 57.6 54.144 
L 57.6 54.144 
" style="fill:none;stroke:#f0009c;stroke-linecap:square;stroke-width:2;"/>
   </g>
   <g id="line2d_16">
    <path clip-path="url(#p8f2e2a9fc1)" d="M 414.72 199.36327 
L 413.956923 199.49589 
L 413.956923 199.39709 
L 413.956923 175.489714 
L 413.193846 175.625296 
L 413.193846 173.223317 
L 412.430769 173.358943 
L 412.430769 170.069881 
L 411.667692 170.205308 
L 411.667692 152.239007 
L 410.904615 152.368762 
L 410.904615 150.918152 
L 410.141538 151.047529 
L 410.141538 143.363411 
L 409.378462 143.488719 
L 409.378462 141.151179 
L 408.615385 141.275298 
L 408.615385 139.597833 
L 407.852308 139.721143 
L 407.852308 134.475429 
L 407.089231 134.595148 
L 407.089231 132.507801 
L 405.563077 132.744908 
L 405.563077 131.412293 
L 404.8 131.53026 
L 404.8 131.261064 
L 404.036923 131.379161 
L 404.036923 124.946286 
L 403.273846 125.058849 
L 403.273846 124.768204 
L 402.510769 124.880842 
L 402.510769 116.340461 
L 401.747692 116.444468 
L 401.747692 115.480739 
L 400.984615 115.584 
L 400.984615 114.282305 
L 400.221538 114.384407 
L 400.221538 114.055837 
L 399.458462 114.157901 
L 399.458462 113.827823 
L 398.695385 113.929846 
L 398.695385 113.265509 
L 397.932308 113.367093 
L 397.932308 112.360788 
L 397.169231 112.461509 
L 397.169231 111.784 
L 396.406154 111.884243 
L 396.406154 111.543303 
L 395.643077 111.643476 
L 395.643077 110.95717 
L 394.88 111.056842 
L 394.88 110.711452 
L 394.116923 110.811042 
L 394.116923 107.642962 
L 393.353846 107.738839 
L 393.353846 107.019971 
L 392.590769 107.115243 
L 392.590769 106.753386 
L 391.827692 106.848521 
L 391.827692 105.7536 
L 391.064615 105.847607 
L 391.064615 102.104816 
L 390.301538 102.193963 
L 390.301538 101.811486 
L 389.538462 101.900418 
L 389.538462 101.515963 
L 388.775385 101.604674 
L 388.775385 100.440949 
L 387.249231 100.615985 
L 387.249231 99.039086 
L 386.486154 99.124763 
L 386.486154 98.72618 
L 385.723077 98.811586 
L 385.723077 97.604809 
L 383.433846 97.857488 
L 383.433846 97.041432 
L 382.670769 97.125053 
L 382.670769 94.634414 
L 381.907692 94.714435 
L 381.907692 93.869714 
L 381.144615 93.948692 
L 381.144615 93.095856 
L 380.381538 93.17376 
L 380.381538 92.312675 
L 379.618462 92.389473 
L 379.618462 91.955613 
L 378.092308 92.108696 
L 378.092308 89.45941 
L 377.329231 89.531926 
L 377.329231 88.632742 
L 375.803077 88.775553 
L 375.803077 88.321593 
L 375.04 88.392649 
L 375.04 87.016971 
L 372.750769 87.224589 
L 372.750769 86.759696 
L 370.461538 86.967439 
L 370.461538 86.498043 
L 368.172308 86.705884 
L 368.172308 85.755871 
L 366.646154 85.892423 
L 366.646154 84.930638 
L 365.883077 84.997565 
L 365.883077 83.045053 
L 362.830769 83.300814 
L 362.830769 81.298286 
L 360.541538 81.481348 
L 360.541538 80.972108 
L 359.015385 81.093502 
L 359.015385 79.025096 
L 355.963077 79.254415 
L 355.963077 78.727095 
L 355.2 78.784 
L 355.2 77.719814 
L 352.910769 77.885452 
L 352.910769 77.346254 
L 352.147692 77.400847 
L 352.147692 75.764474 
L 350.621538 75.867429 
L 350.621538 75.314406 
L 346.806154 75.570087 
L 346.806154 74.443806 
L 345.28 74.542829 
L 345.28 73.400471 
L 342.990769 73.543111 
L 342.990769 72.963802 
L 342.227692 73.010501 
L 342.227692 72.426985 
L 340.701538 72.5184 
L 340.701538 71.929263 
L 339.938462 71.97395 
L 339.938462 70.784 
L 338.412308 70.868467 
L 338.412308 70.266137 
L 337.649231 70.307265 
L 337.649231 69.700419 
L 336.886154 69.740308 
L 336.886154 69.128884 
L 324.676923 69.771668 
L 324.676923 69.132387 
L 323.913846 69.172787 
L 323.913846 68.528432 
L 318.572308 68.805818 
L 318.572308 68.14621 
L 317.809231 68.184997 
L 317.809231 67.52 
L 317.046154 67.557259 
L 317.046154 66.212571 
L 315.52 66.280563 
L 315.52 64.913405 
L 312.467692 65.036837 
L 312.467692 64.339862 
L 311.704615 64.369245 
L 311.704615 63.666312 
L 300.258462 64.097837 
L 300.258462 63.36 
L 296.443077 63.501785 
L 296.443077 62.748444 
L 294.153846 62.82886 
L 294.153846 62.064 
L 286.523077 62.319484 
L 286.523077 60.726857 
L 284.233846 60.791607 
L 284.233846 59.979789 
L 281.944615 60.037953 
L 281.944615 59.2128 
L 275.076923 59.369567 
L 275.076923 58.513655 
L 263.630769 58.752 
L 263.630769 57.843854 
L 240.738462 58.298754 
L 240.738462 57.272889 
L 238.449231 57.312 
L 238.449231 56.264837 
L 201.058462 56.811789 
L 194.953846 56.929055 
L 194.953846 55.544221 
L 161.378462 55.993927 
L 158.326154 56.049564 
L 158.326154 54.144 
L 57.6 54.144 
L 57.6 54.144 
" style="fill:none;stroke:#ff1493;stroke-dasharray:4,6.6;stroke-dashoffset:0;stroke-width:4;"/>
   </g>
   <g id="line2d_17">
    <path clip-path="url(#p8f2e2a9fc1)" d="M 57.6 307.584 
L 414.72 54.144 
" style="fill:none;stroke:#000000;stroke-dasharray:7.4,3.2;stroke-dashoffset:0;stroke-width:2;"/>
   </g>
   <g id="line2d_18">
    <path clip-path="url(#p8f2e2a9fc1)" d="M 57.6 307.584 
L 414.72 54.144 
" style="fill:none;stroke:#000000;stroke-dasharray:7.4,3.2;stroke-dashoffset:0;stroke-width:2;"/>
   </g>
   <g id="patch_3">
    <path d="M 57.6 307.584 
L 57.6 41.472 
" style="fill:none;stroke:#000000;stroke-linecap:square;stroke-linejoin:miter;stroke-width:0.8;"/>
   </g>
   <g id="patch_4">
    <path d="M 414.72 307.584 
L 414.72 41.472 
" style="fill:none;stroke:#000000;stroke-linecap:square;stroke-linejoin:miter;stroke-width:0.8;"/>
   </g>
   <g id="patch_5">
    <path d="M 57.6 307.584 
L 414.72 307.584 
" style="fill:none;stroke:#000000;stroke-linecap:square;stroke-linejoin:miter;stroke-width:0.8;"/>
   </g>
   <g id="patch_6">
    <path d="M 57.6 41.472 
L 414.72 41.472 
" style="fill:none;stroke:#000000;stroke-linecap:square;stroke-linejoin:miter;stroke-width:0.8;"/>
   </g>
   <g id="text_15">
    <!-- PR Curves -->
    <g transform="translate(205.63875 35.472)scale(0.12 -0.12)">
     <defs>
      <path id="DejaVuSans-32"/>
      <path d="M 64.40625 67.28125 
L 64.40625 56.890625 
Q 59.421875 61.53125 53.78125 63.8125 
Q 48.140625 66.109375 41.796875 66.109375 
Q 29.296875 66.109375 22.65625 58.46875 
Q 16.015625 50.828125 16.015625 36.375 
Q 16.015625 21.96875 22.65625 14.328125 
Q 29.296875 6.6875 41.796875 6.6875 
Q 48.140625 6.6875 53.78125 8.984375 
Q 59.421875 11.28125 64.40625 15.921875 
L 64.40625 5.609375 
Q 59.234375 2.09375 53.4375 0.328125 
Q 47.65625 -1.421875 41.21875 -1.421875 
Q 24.65625 -1.421875 15.125 8.703125 
Q 5.609375 18.84375 5.609375 36.375 
Q 5.609375 53.953125 15.125 64.078125 
Q 24.65625 74.21875 41.21875 74.21875 
Q 47.75 74.21875 53.53125 72.484375 
Q 59.328125 70.75 64.40625 67.28125 
z
" id="DejaVuSans-67"/>
      <path d="M 8.5 21.578125 
L 8.5 54.6875 
L 17.484375 54.6875 
L 17.484375 21.921875 
Q 17.484375 14.15625 20.5 10.265625 
Q 23.53125 6.390625 29.59375 6.390625 
Q 36.859375 6.390625 41.078125 11.03125 
Q 45.3125 15.671875 45.3125 23.6875 
L 45.3125 54.6875 
L 54.296875 54.6875 
L 54.296875 0 
L 45.3125 0 
L 45.3125 8.40625 
Q 42.046875 3.421875 37.71875 1 
Q 33.40625 -1.421875 27.6875 -1.421875 
Q 18.265625 -1.421875 13.375 4.4375 
Q 8.5 10.296875 8.5 21.578125 
z
M 31.109375 56 
z
" id="DejaVuSans-117"/>
      <path d="M 2.984375 54.6875 
L 12.5 54.6875 
L 29.59375 8.796875 
L 46.6875 54.6875 
L 56.203125 54.6875 
L 35.6875 0 
L 23.484375 0 
z
" id="DejaVuSans-118"/>
     </defs>
     <use xlink:href="#DejaVuSans-80"/>
     <use x="60.302734" xlink:href="#DejaVuSans-82"/>
     <use x="129.785156" xlink:href="#DejaVuSans-32"/>
     <use x="161.572266" xlink:href="#DejaVuSans-67"/>
     <use x="231.396484" xlink:href="#DejaVuSans-117"/>
     <use x="294.775391" xlink:href="#DejaVuSans-114"/>
     <use x="335.888672" xlink:href="#DejaVuSans-118"/>
     <use x="395.068359" xlink:href="#DejaVuSans-101"/>
     <use x="456.591797" xlink:href="#DejaVuSans-115"/>
    </g>
   </g>
   <g id="legend_1">
    <g id="patch_7">
     <path d="M 64.6 302.584 
L 286.989063 302.584 
Q 288.989063 302.584 288.989063 300.584 
L 288.989063 242.8715 
Q 288.989063 240.8715 286.989063 240.8715 
L 64.6 240.8715 
Q 62.6 240.8715 62.6 242.8715 
L 62.6 300.584 
Q 62.6 302.584 64.6 302.584 
z
" style="fill:#ffffff;opacity:0.8;stroke:#cccccc;stroke-linejoin:miter;"/>
    </g>
    <g id="line2d_19">
     <path d="M 66.6 248.969937 
L 86.6 248.969937 
" style="fill:none;stroke:#2c9165;stroke-linecap:square;stroke-width:2;"/>
    </g>
    <g id="line2d_20"/>
    <g id="text_16">
     <!-- PR curve of class 0 (area = 0.89) -->
     <g transform="translate(94.6 252.469937)scale(0.1 -0.1)">
      <defs>
       <path d="M 37.109375 75.984375 
L 37.109375 68.5 
L 28.515625 68.5 
Q 23.6875 68.5 21.796875 66.546875 
Q 19.921875 64.59375 19.921875 59.515625 
L 19.921875 54.6875 
L 34.71875 54.6875 
L 34.71875 47.703125 
L 19.921875 47.703125 
L 19.921875 0 
L 10.890625 0 
L 10.890625 47.703125 
L 2.296875 47.703125 
L 2.296875 54.6875 
L 10.890625 54.6875 
L 10.890625 58.5 
Q 10.890625 67.625 15.140625 71.796875 
Q 19.390625 75.984375 28.609375 75.984375 
z
" id="DejaVuSans-102"/>
       <path d="M 31 75.875 
Q 24.46875 64.65625 21.28125 53.65625 
Q 18.109375 42.671875 18.109375 31.390625 
Q 18.109375 20.125 21.3125 9.0625 
Q 24.515625 -2 31 -13.1875 
L 23.1875 -13.1875 
Q 15.875 -1.703125 12.234375 9.375 
Q 8.59375 20.453125 8.59375 31.390625 
Q 8.59375 42.28125 12.203125 53.3125 
Q 15.828125 64.359375 23.1875 75.875 
z
" id="DejaVuSans-40"/>
       <path d="M 10.59375 45.40625 
L 73.1875 45.40625 
L 73.1875 37.203125 
L 10.59375 37.203125 
z
M 10.59375 25.484375 
L 73.1875 25.484375 
L 73.1875 17.1875 
L 10.59375 17.1875 
z
" id="DejaVuSans-61"/>
       <path d="M 10.984375 1.515625 
L 10.984375 10.5 
Q 14.703125 8.734375 18.5 7.8125 
Q 22.3125 6.890625 25.984375 6.890625 
Q 35.75 6.890625 40.890625 13.453125 
Q 46.046875 20.015625 46.78125 33.40625 
Q 43.953125 29.203125 39.59375 26.953125 
Q 35.25 24.703125 29.984375 24.703125 
Q 19.046875 24.703125 12.671875 31.3125 
Q 6.296875 37.9375 6.296875 49.421875 
Q 6.296875 60.640625 12.9375 67.421875 
Q 19.578125 74.21875 30.609375 74.21875 
Q 43.265625 74.21875 49.921875 64.515625 
Q 56.59375 54.828125 56.59375 36.375 
Q 56.59375 19.140625 48.40625 8.859375 
Q 40.234375 -1.421875 26.421875 -1.421875 
Q 22.703125 -1.421875 18.890625 -0.6875 
Q 15.09375 0.046875 10.984375 1.515625 
z
M 30.609375 32.421875 
Q 37.25 32.421875 41.125 36.953125 
Q 45.015625 41.5 45.015625 49.421875 
Q 45.015625 57.28125 41.125 61.84375 
Q 37.25 66.40625 30.609375 66.40625 
Q 23.96875 66.40625 20.09375 61.84375 
Q 16.21875 57.28125 16.21875 49.421875 
Q 16.21875 41.5 20.09375 36.953125 
Q 23.96875 32.421875 30.609375 32.421875 
z
" id="DejaVuSans-57"/>
       <path d="M 8.015625 75.875 
L 15.828125 75.875 
Q 23.140625 64.359375 26.78125 53.3125 
Q 30.421875 42.28125 30.421875 31.390625 
Q 30.421875 20.453125 26.78125 9.375 
Q 23.140625 -1.703125 15.828125 -13.1875 
L 8.015625 -13.1875 
Q 14.5 -2 17.703125 9.0625 
Q 20.90625 20.125 20.90625 31.390625 
Q 20.90625 42.671875 17.703125 53.65625 
Q 14.5 64.65625 8.015625 75.875 
z
" id="DejaVuSans-41"/>
      </defs>
      <use xlink:href="#DejaVuSans-80"/>
      <use x="60.302734" xlink:href="#DejaVuSans-82"/>
      <use x="129.785156" xlink:href="#DejaVuSans-32"/>
      <use x="161.572266" xlink:href="#DejaVuSans-99"/>
      <use x="216.552734" xlink:href="#DejaVuSans-117"/>
      <use x="279.931641" xlink:href="#DejaVuSans-114"/>
      <use x="321.044922" xlink:href="#DejaVuSans-118"/>
      <use x="380.224609" xlink:href="#DejaVuSans-101"/>
      <use x="441.748047" xlink:href="#DejaVuSans-32"/>
      <use x="473.535156" xlink:href="#DejaVuSans-111"/>
      <use x="534.716797" xlink:href="#DejaVuSans-102"/>
      <use x="569.921875" xlink:href="#DejaVuSans-32"/>
      <use x="601.708984" xlink:href="#DejaVuSans-99"/>
      <use x="656.689453" xlink:href="#DejaVuSans-108"/>
      <use x="684.472656" xlink:href="#DejaVuSans-97"/>
      <use x="745.751953" xlink:href="#DejaVuSans-115"/>
      <use x="797.851562" xlink:href="#DejaVuSans-115"/>
      <use x="849.951172" xlink:href="#DejaVuSans-32"/>
      <use x="881.738281" xlink:href="#DejaVuSans-48"/>
      <use x="945.361328" xlink:href="#DejaVuSans-32"/>
      <use x="977.148438" xlink:href="#DejaVuSans-40"/>
      <use x="1016.162109" xlink:href="#DejaVuSans-97"/>
      <use x="1077.441406" xlink:href="#DejaVuSans-114"/>
      <use x="1116.304688" xlink:href="#DejaVuSans-101"/>
      <use x="1177.828125" xlink:href="#DejaVuSans-97"/>
      <use x="1239.107422" xlink:href="#DejaVuSans-32"/>
      <use x="1270.894531" xlink:href="#DejaVuSans-61"/>
      <use x="1354.683594" xlink:href="#DejaVuSans-32"/>
      <use x="1386.470703" xlink:href="#DejaVuSans-48"/>
      <use x="1450.09375" xlink:href="#DejaVuSans-46"/>
      <use x="1481.880859" xlink:href="#DejaVuSans-56"/>
      <use x="1545.503906" xlink:href="#DejaVuSans-57"/>
      <use x="1609.126953" xlink:href="#DejaVuSans-41"/>
     </g>
    </g>
    <g id="line2d_21">
     <path d="M 66.6 263.648062 
L 86.6 263.648062 
" style="fill:none;stroke:#587a27;stroke-linecap:square;stroke-width:2;"/>
    </g>
    <g id="line2d_22"/>
    <g id="text_17">
     <!-- PR curve of class 1 (area = 0.98) -->
     <g transform="translate(94.6 267.148062)scale(0.1 -0.1)">
      <use xlink:href="#DejaVuSans-80"/>
      <use x="60.302734" xlink:href="#DejaVuSans-82"/>
      <use x="129.785156" xlink:href="#DejaVuSans-32"/>
      <use x="161.572266" xlink:href="#DejaVuSans-99"/>
      <use x="216.552734" xlink:href="#DejaVuSans-117"/>
      <use x="279.931641" xlink:href="#DejaVuSans-114"/>
      <use x="321.044922" xlink:href="#DejaVuSans-118"/>
      <use x="380.224609" xlink:href="#DejaVuSans-101"/>
      <use x="441.748047" xlink:href="#DejaVuSans-32"/>
      <use x="473.535156" xlink:href="#DejaVuSans-111"/>
      <use x="534.716797" xlink:href="#DejaVuSans-102"/>
      <use x="569.921875" xlink:href="#DejaVuSans-32"/>
      <use x="601.708984" xlink:href="#DejaVuSans-99"/>
      <use x="656.689453" xlink:href="#DejaVuSans-108"/>
      <use x="684.472656" xlink:href="#DejaVuSans-97"/>
      <use x="745.751953" xlink:href="#DejaVuSans-115"/>
      <use x="797.851562" xlink:href="#DejaVuSans-115"/>
      <use x="849.951172" xlink:href="#DejaVuSans-32"/>
      <use x="881.738281" xlink:href="#DejaVuSans-49"/>
      <use x="945.361328" xlink:href="#DejaVuSans-32"/>
      <use x="977.148438" xlink:href="#DejaVuSans-40"/>
      <use x="1016.162109" xlink:href="#DejaVuSans-97"/>
      <use x="1077.441406" xlink:href="#DejaVuSans-114"/>
      <use x="1116.304688" xlink:href="#DejaVuSans-101"/>
      <use x="1177.828125" xlink:href="#DejaVuSans-97"/>
      <use x="1239.107422" xlink:href="#DejaVuSans-32"/>
      <use x="1270.894531" xlink:href="#DejaVuSans-61"/>
      <use x="1354.683594" xlink:href="#DejaVuSans-32"/>
      <use x="1386.470703" xlink:href="#DejaVuSans-48"/>
      <use x="1450.09375" xlink:href="#DejaVuSans-46"/>
      <use x="1481.880859" xlink:href="#DejaVuSans-57"/>
      <use x="1545.503906" xlink:href="#DejaVuSans-56"/>
      <use x="1609.126953" xlink:href="#DejaVuSans-41"/>
     </g>
    </g>
    <g id="line2d_23">
     <path d="M 66.6 278.326187 
L 86.6 278.326187 
" style="fill:none;stroke:#f0009c;stroke-linecap:square;stroke-width:2;"/>
    </g>
    <g id="line2d_24"/>
    <g id="text_18">
     <!-- PR curve of class 2 (area = 0.77) -->
     <g transform="translate(94.6 281.826187)scale(0.1 -0.1)">
      <defs>
       <path d="M 8.203125 72.90625 
L 55.078125 72.90625 
L 55.078125 68.703125 
L 28.609375 0 
L 18.3125 0 
L 43.21875 64.59375 
L 8.203125 64.59375 
z
" id="DejaVuSans-55"/>
      </defs>
      <use xlink:href="#DejaVuSans-80"/>
      <use x="60.302734" xlink:href="#DejaVuSans-82"/>
      <use x="129.785156" xlink:href="#DejaVuSans-32"/>
      <use x="161.572266" xlink:href="#DejaVuSans-99"/>
      <use x="216.552734" xlink:href="#DejaVuSans-117"/>
      <use x="279.931641" xlink:href="#DejaVuSans-114"/>
      <use x="321.044922" xlink:href="#DejaVuSans-118"/>
      <use x="380.224609" xlink:href="#DejaVuSans-101"/>
      <use x="441.748047" xlink:href="#DejaVuSans-32"/>
      <use x="473.535156" xlink:href="#DejaVuSans-111"/>
      <use x="534.716797" xlink:href="#DejaVuSans-102"/>
      <use x="569.921875" xlink:href="#DejaVuSans-32"/>
      <use x="601.708984" xlink:href="#DejaVuSans-99"/>
      <use x="656.689453" xlink:href="#DejaVuSans-108"/>
      <use x="684.472656" xlink:href="#DejaVuSans-97"/>
      <use x="745.751953" xlink:href="#DejaVuSans-115"/>
      <use x="797.851562" xlink:href="#DejaVuSans-115"/>
      <use x="849.951172" xlink:href="#DejaVuSans-32"/>
      <use x="881.738281" xlink:href="#DejaVuSans-50"/>
      <use x="945.361328" xlink:href="#DejaVuSans-32"/>
      <use x="977.148438" xlink:href="#DejaVuSans-40"/>
      <use x="1016.162109" xlink:href="#DejaVuSans-97"/>
      <use x="1077.441406" xlink:href="#DejaVuSans-114"/>
      <use x="1116.304688" xlink:href="#DejaVuSans-101"/>
      <use x="1177.828125" xlink:href="#DejaVuSans-97"/>
      <use x="1239.107422" xlink:href="#DejaVuSans-32"/>
      <use x="1270.894531" xlink:href="#DejaVuSans-61"/>
      <use x="1354.683594" xlink:href="#DejaVuSans-32"/>
      <use x="1386.470703" xlink:href="#DejaVuSans-48"/>
      <use x="1450.09375" xlink:href="#DejaVuSans-46"/>
      <use x="1481.880859" xlink:href="#DejaVuSans-55"/>
      <use x="1545.503906" xlink:href="#DejaVuSans-55"/>
      <use x="1609.126953" xlink:href="#DejaVuSans-41"/>
     </g>
    </g>
    <g id="line2d_25">
     <path d="M 66.6 293.004312 
L 86.6 293.004312 
" style="fill:none;stroke:#ff1493;stroke-dasharray:4,6.6;stroke-dashoffset:0;stroke-width:4;"/>
    </g>
    <g id="line2d_26"/>
    <g id="text_19">
     <!-- micro-average PR curve (area = 0.95) -->
     <g transform="translate(94.6 296.504312)scale(0.1 -0.1)">
      <defs>
       <path d="M 52 44.1875 
Q 55.375 50.25 60.0625 53.125 
Q 64.75 56 71.09375 56 
Q 79.640625 56 84.28125 50.015625 
Q 88.921875 44.046875 88.921875 33.015625 
L 88.921875 0 
L 79.890625 0 
L 79.890625 32.71875 
Q 79.890625 40.578125 77.09375 44.375 
Q 74.3125 48.1875 68.609375 48.1875 
Q 61.625 48.1875 57.5625 43.546875 
Q 53.515625 38.921875 53.515625 30.90625 
L 53.515625 0 
L 44.484375 0 
L 44.484375 32.71875 
Q 44.484375 40.625 41.703125 44.40625 
Q 38.921875 48.1875 33.109375 48.1875 
Q 26.21875 48.1875 22.15625 43.53125 
Q 18.109375 38.875 18.109375 30.90625 
L 18.109375 0 
L 9.078125 0 
L 9.078125 54.6875 
L 18.109375 54.6875 
L 18.109375 46.1875 
Q 21.1875 51.21875 25.484375 53.609375 
Q 29.78125 56 35.6875 56 
Q 41.65625 56 45.828125 52.96875 
Q 50 49.953125 52 44.1875 
z
" id="DejaVuSans-109"/>
       <path d="M 4.890625 31.390625 
L 31.203125 31.390625 
L 31.203125 23.390625 
L 4.890625 23.390625 
z
" id="DejaVuSans-45"/>
       <path d="M 45.40625 27.984375 
Q 45.40625 37.75 41.375 43.109375 
Q 37.359375 48.484375 30.078125 48.484375 
Q 22.859375 48.484375 18.828125 43.109375 
Q 14.796875 37.75 14.796875 27.984375 
Q 14.796875 18.265625 18.828125 12.890625 
Q 22.859375 7.515625 30.078125 7.515625 
Q 37.359375 7.515625 41.375 12.890625 
Q 45.40625 18.265625 45.40625 27.984375 
z
M 54.390625 6.78125 
Q 54.390625 -7.171875 48.1875 -13.984375 
Q 42 -20.796875 29.203125 -20.796875 
Q 24.46875 -20.796875 20.265625 -20.09375 
Q 16.0625 -19.390625 12.109375 -17.921875 
L 12.109375 -9.1875 
Q 16.0625 -11.328125 19.921875 -12.34375 
Q 23.78125 -13.375 27.78125 -13.375 
Q 36.625 -13.375 41.015625 -8.765625 
Q 45.40625 -4.15625 45.40625 5.171875 
L 45.40625 9.625 
Q 42.625 4.78125 38.28125 2.390625 
Q 33.9375 0 27.875 0 
Q 17.828125 0 11.671875 7.65625 
Q 5.515625 15.328125 5.515625 27.984375 
Q 5.515625 40.671875 11.671875 48.328125 
Q 17.828125 56 27.875 56 
Q 33.9375 56 38.28125 53.609375 
Q 42.625 51.21875 45.40625 46.390625 
L 45.40625 54.6875 
L 54.390625 54.6875 
z
" id="DejaVuSans-103"/>
       <path d="M 10.796875 72.90625 
L 49.515625 72.90625 
L 49.515625 64.59375 
L 19.828125 64.59375 
L 19.828125 46.734375 
Q 21.96875 47.46875 24.109375 47.828125 
Q 26.265625 48.1875 28.421875 48.1875 
Q 40.625 48.1875 47.75 41.5 
Q 54.890625 34.8125 54.890625 23.390625 
Q 54.890625 11.625 47.5625 5.09375 
Q 40.234375 -1.421875 26.90625 -1.421875 
Q 22.3125 -1.421875 17.546875 -0.640625 
Q 12.796875 0.140625 7.71875 1.703125 
L 7.71875 11.625 
Q 12.109375 9.234375 16.796875 8.0625 
Q 21.484375 6.890625 26.703125 6.890625 
Q 35.15625 6.890625 40.078125 11.328125 
Q 45.015625 15.765625 45.015625 23.390625 
Q 45.015625 31 40.078125 35.4375 
Q 35.15625 39.890625 26.703125 39.890625 
Q 22.75 39.890625 18.8125 39.015625 
Q 14.890625 38.140625 10.796875 36.28125 
z
" id="DejaVuSans-53"/>
      </defs>
      <use xlink:href="#DejaVuSans-109"/>
      <use x="97.412109" xlink:href="#DejaVuSans-105"/>
      <use x="125.195312" xlink:href="#DejaVuSans-99"/>
      <use x="180.175781" xlink:href="#DejaVuSans-114"/>
      <use x="219.039062" xlink:href="#DejaVuSans-111"/>
      <use x="282.095703" xlink:href="#DejaVuSans-45"/>
      <use x="318.179688" xlink:href="#DejaVuSans-97"/>
      <use x="379.458984" xlink:href="#DejaVuSans-118"/>
      <use x="438.638672" xlink:href="#DejaVuSans-101"/>
      <use x="500.162109" xlink:href="#DejaVuSans-114"/>
      <use x="541.275391" xlink:href="#DejaVuSans-97"/>
      <use x="602.554688" xlink:href="#DejaVuSans-103"/>
      <use x="666.03125" xlink:href="#DejaVuSans-101"/>
      <use x="727.554688" xlink:href="#DejaVuSans-32"/>
      <use x="759.341797" xlink:href="#DejaVuSans-80"/>
      <use x="819.644531" xlink:href="#DejaVuSans-82"/>
      <use x="889.126953" xlink:href="#DejaVuSans-32"/>
      <use x="920.914062" xlink:href="#DejaVuSans-99"/>
      <use x="975.894531" xlink:href="#DejaVuSans-117"/>
      <use x="1039.273438" xlink:href="#DejaVuSans-114"/>
      <use x="1080.386719" xlink:href="#DejaVuSans-118"/>
      <use x="1139.566406" xlink:href="#DejaVuSans-101"/>
      <use x="1201.089844" xlink:href="#DejaVuSans-32"/>
      <use x="1232.876953" xlink:href="#DejaVuSans-40"/>
      <use x="1271.890625" xlink:href="#DejaVuSans-97"/>
      <use x="1333.169922" xlink:href="#DejaVuSans-114"/>
      <use x="1372.033203" xlink:href="#DejaVuSans-101"/>
      <use x="1433.556641" xlink:href="#DejaVuSans-97"/>
      <use x="1494.835938" xlink:href="#DejaVuSans-32"/>
      <use x="1526.623047" xlink:href="#DejaVuSans-61"/>
      <use x="1610.412109" xlink:href="#DejaVuSans-32"/>
      <use x="1642.199219" xlink:href="#DejaVuSans-48"/>
      <use x="1705.822266" xlink:href="#DejaVuSans-46"/>
      <use x="1737.609375" xlink:href="#DejaVuSans-57"/>
      <use x="1801.232422" xlink:href="#DejaVuSans-53"/>
      <use x="1864.855469" xlink:href="#DejaVuSans-41"/>
     </g>
    </g>
   </g>
  </g>
 </g>
 <defs>
  <clipPath id="p8f2e2a9fc1">
   <rect height="266.112" width="357.12" x="57.6" y="41.472"/>
  </clipPath>
 </defs>
</svg>
